<?xml version="1.0" encoding="UTF-8" standalone="no"?>
<!DOCTYPE svg PUBLIC "-//W3C//DTD SVG 1.1//EN"
 "http://www.w3.org/Graphics/SVG/1.1/DTD/svg11.dtd">
<!-- Generated by graphviz version 2.43.0 (0)
 -->
<!-- Title: algorithms.h Pages: 1 -->
<svg width="518pt" height="302pt"
 viewBox="0.00 0.00 517.76 302.00" xmlns="http://www.w3.org/2000/svg" xmlns:xlink="http://www.w3.org/1999/xlink">
<g id="graph0" class="graph" transform="scale(1 1) rotate(0) translate(4 298)">
<title>algorithms.h</title>
<!-- Node1 -->
<g id="node1" class="node">
<title>Node1</title>
<g id="a_node1"><a xlink:title="Various algorithms used for searching, sorting, accumulating etc.">
<polygon fill="#999999" stroke="#666666" points="154,-294 76,-294 76,-275 154,-275 154,-294"/>
<text text-anchor="middle" x="115" y="-282" font-family="Helvetica,sans-Serif" font-size="10.00">algorithms.h</text>
</a>
</g>
</g>
<!-- Node2 -->
<g id="node2" class="node">
<title>Node2</title>
<g id="a_node2"><a xlink:href="interp_8cpp.html" target="_top" xlink:title="Routines for linear interpolation of vertical atmospheric profiles.">
<polygon fill="white" stroke="#666666" points="86.5,-239 21.5,-239 21.5,-220 86.5,-220 86.5,-239"/>
<text text-anchor="middle" x="54" y="-227" font-family="Helvetica,sans-Serif" font-size="10.00">interp.cpp</text>
</a>
</g>
</g>
<!-- Node1&#45;&gt;Node2 -->
<g id="edge1" class="edge">
<title>Node1&#45;&gt;Node2</title>
<path fill="none" stroke="#63b8ff" d="M97.53,-268.32C86.66,-258.87 73.06,-247.06 63.98,-239.17"/>
<polygon fill="#63b8ff" stroke="#63b8ff" points="95.35,-271.07 105.2,-274.98 99.95,-265.78 95.35,-271.07"/>
</g>
<!-- Node3 -->
<g id="node3" class="node">
<title>Node3</title>
<g id="a_node3"><a xlink:href="layer_8cpp.html" target="_top" xlink:title="Utilities and structures useful for grouping objects, conducting QC, and things that otherwise don&#39;t ...">
<polygon fill="white" stroke="#666666" points="94.5,-184 33.5,-184 33.5,-165 94.5,-165 94.5,-184"/>
<text text-anchor="middle" x="64" y="-172" font-family="Helvetica,sans-Serif" font-size="10.00">layer.cpp</text>
</a>
</g>
</g>
<!-- Node1&#45;&gt;Node3 -->
<g id="edge2" class="edge">
<title>Node1&#45;&gt;Node3</title>
<path fill="none" stroke="#63b8ff" d="M110.74,-264.93C107.39,-251.96 102.1,-234.44 95,-220 88.44,-206.65 78.17,-192.83 71.27,-184.2"/>
<polygon fill="#63b8ff" stroke="#63b8ff" points="107.42,-266.08 113.18,-274.97 114.22,-264.43 107.42,-266.08"/>
</g>
<!-- Node4 -->
<g id="node4" class="node">
<title>Node4</title>
<g id="a_node4"><a xlink:href="layer_8h.html" target="_top" xlink:title="Data structures and functions for performing operations over atmospheric layers.">
<polygon fill="white" stroke="#666666" points="283,-239 233,-239 233,-220 283,-220 283,-239"/>
<text text-anchor="middle" x="258" y="-227" font-family="Helvetica,sans-Serif" font-size="10.00">layer.h</text>
</a>
</g>
</g>
<!-- Node1&#45;&gt;Node4 -->
<g id="edge3" class="edge">
<title>Node1&#45;&gt;Node4</title>
<path fill="none" stroke="#63b8ff" d="M147.59,-271.42C174.12,-261.59 210.93,-247.95 234.61,-239.17"/>
<polygon fill="#63b8ff" stroke="#63b8ff" points="146.14,-268.23 137.98,-274.98 148.57,-274.79 146.14,-268.23"/>
</g>
<!-- Node4&#45;&gt;Node3 -->
<g id="edge7" class="edge">
<title>Node4&#45;&gt;Node3</title>
<path fill="none" stroke="#63b8ff" d="M222.9,-218.91C186.35,-208.93 129.68,-193.44 94.81,-183.92"/>
<polygon fill="#63b8ff" stroke="#63b8ff" points="222.07,-222.31 232.64,-221.57 223.91,-215.56 222.07,-222.31"/>
</g>
<!-- Node5 -->
<g id="node5" class="node">
<title>Node5</title>
<g id="a_node5"><a xlink:href="convective_8cpp.html" target="_top" xlink:title="Routines used to computed derived sounding parameters from vertical atmospheric profiles.">
<polygon fill="white" stroke="#666666" points="359,-19 269,-19 269,0 359,0 359,-19"/>
<text text-anchor="middle" x="314" y="-7" font-family="Helvetica,sans-Serif" font-size="10.00">convective.cpp</text>
</a>
</g>
</g>
<!-- Node4&#45;&gt;Node5 -->
<g id="edge4" class="edge">
<title>Node4&#45;&gt;Node5</title>
<path fill="none" stroke="#63b8ff" d="M293.27,-228.16C353.09,-225.35 471.26,-209.43 505,-129 532.55,-63.33 423.75,-31.07 359.01,-17.95"/>
<polygon fill="#63b8ff" stroke="#63b8ff" points="293.02,-224.67 283.15,-228.54 293.28,-231.67 293.02,-224.67"/>
</g>
<!-- Node6 -->
<g id="node6" class="node">
<title>Node6</title>
<g id="a_node6"><a xlink:href="convective_8h.html" target="_top" xlink:title="Routines used to computed derived sounding parameters from vertical atmospheric profiles.">
<polygon fill="white" stroke="#666666" points="353.5,-74 274.5,-74 274.5,-55 353.5,-55 353.5,-74"/>
<text text-anchor="middle" x="314" y="-62" font-family="Helvetica,sans-Serif" font-size="10.00">convective.h</text>
</a>
</g>
</g>
<!-- Node4&#45;&gt;Node6 -->
<g id="edge5" class="edge">
<title>Node4&#45;&gt;Node6</title>
<path fill="none" stroke="#63b8ff" d="M278.18,-213.43C287.03,-205.67 296.61,-195.44 302,-184 319.8,-146.21 316.98,-94.28 315,-74.05"/>
<polygon fill="#63b8ff" stroke="#63b8ff" points="275.9,-210.78 270.4,-219.83 280.35,-216.18 275.9,-210.78"/>
</g>
<!-- Node7 -->
<g id="node7" class="node">
<title>Node7</title>
<g id="a_node7"><a xlink:href="parcel_8cpp.html" target="_top" xlink:title="Routines used for parcel lifting and integration.">
<polygon fill="white" stroke="#666666" points="194.5,-74 127.5,-74 127.5,-55 194.5,-55 194.5,-74"/>
<text text-anchor="middle" x="161" y="-62" font-family="Helvetica,sans-Serif" font-size="10.00">parcel.cpp</text>
</a>
</g>
</g>
<!-- Node4&#45;&gt;Node7 -->
<g id="edge8" class="edge">
<title>Node4&#45;&gt;Node7</title>
<path fill="none" stroke="#63b8ff" d="M262.53,-209.77C264.75,-196.73 265.86,-179.19 260,-165 242.61,-122.88 197.8,-89.2 174.91,-74.11"/>
<polygon fill="#63b8ff" stroke="#63b8ff" points="259.03,-209.38 260.43,-219.89 265.89,-210.81 259.03,-209.38"/>
</g>
<!-- Node8 -->
<g id="node8" class="node">
<title>Node8</title>
<g id="a_node8"><a xlink:href="parcel_8h.html" target="_top" xlink:title="Routines used for parcel lifting and integration.">
<polygon fill="white" stroke="#666666" points="146,-129 90,-129 90,-110 146,-110 146,-129"/>
<text text-anchor="middle" x="118" y="-117" font-family="Helvetica,sans-Serif" font-size="10.00">parcel.h</text>
</a>
</g>
</g>
<!-- Node4&#45;&gt;Node8 -->
<g id="edge9" class="edge">
<title>Node4&#45;&gt;Node8</title>
<path fill="none" stroke="#63b8ff" d="M231.07,-215.21C215.76,-207.11 196.6,-196.02 181,-184 158.61,-166.75 136.22,-141.93 125.14,-129.02"/>
<polygon fill="#63b8ff" stroke="#63b8ff" points="229.55,-218.36 240.04,-219.85 232.76,-212.15 229.55,-218.36"/>
</g>
<!-- Node9 -->
<g id="node9" class="node">
<title>Node9</title>
<g id="a_node9"><a xlink:href="thermo_8cpp.html" target="_top" xlink:title="Thermodynamic routines that do not directly involve parcel based ascent.">
<polygon fill="white" stroke="#666666" points="72,-129 0,-129 0,-110 72,-110 72,-129"/>
<text text-anchor="middle" x="36" y="-117" font-family="Helvetica,sans-Serif" font-size="10.00">thermo.cpp</text>
</a>
</g>
</g>
<!-- Node4&#45;&gt;Node9 -->
<g id="edge13" class="edge">
<title>Node4&#45;&gt;Node9</title>
<path fill="none" stroke="#63b8ff" d="M227.67,-215.97C207.24,-207.36 179.78,-195.46 156,-184 117.78,-165.58 73.98,-141.67 51.34,-129.1"/>
<polygon fill="#63b8ff" stroke="#63b8ff" points="226.51,-219.28 237.08,-219.92 229.21,-212.83 226.51,-219.28"/>
</g>
<!-- Node10 -->
<g id="node10" class="node">
<title>Node10</title>
<g id="a_node10"><a xlink:href="thermo_8h.html" target="_top" xlink:title="Routines used to compute thermodynamic attributes of vertical sounding profiles.">
<polygon fill="white" stroke="#666666" points="250.5,-184 189.5,-184 189.5,-165 250.5,-165 250.5,-184"/>
<text text-anchor="middle" x="220" y="-172" font-family="Helvetica,sans-Serif" font-size="10.00">thermo.h</text>
</a>
</g>
</g>
<!-- Node4&#45;&gt;Node10 -->
<g id="edge14" class="edge">
<title>Node4&#45;&gt;Node10</title>
<path fill="none" stroke="#63b8ff" d="M245.73,-211.39C239.19,-202.27 231.43,-191.45 226.16,-184.09"/>
<polygon fill="#63b8ff" stroke="#63b8ff" points="243.05,-213.66 251.73,-219.75 248.74,-209.58 243.05,-213.66"/>
</g>
<!-- Node11 -->
<g id="node11" class="node">
<title>Node11</title>
<g id="a_node11"><a xlink:href="winds_8cpp.html" target="_top" xlink:title="Routines used to compute kinematic attributes and indices of vertical sounding profiles.">
<polygon fill="white" stroke="#666666" points="495.5,-129 430.5,-129 430.5,-110 495.5,-110 495.5,-129"/>
<text text-anchor="middle" x="463" y="-117" font-family="Helvetica,sans-Serif" font-size="10.00">winds.cpp</text>
</a>
</g>
</g>
<!-- Node4&#45;&gt;Node11 -->
<g id="edge20" class="edge">
<title>Node4&#45;&gt;Node11</title>
<path fill="none" stroke="#63b8ff" d="M293.53,-227.24C330.63,-224.23 388.78,-214.53 428,-184 446.28,-169.77 456.36,-143.19 460.59,-129.37"/>
<polygon fill="#63b8ff" stroke="#63b8ff" points="292.93,-223.77 283.19,-227.95 293.41,-230.76 292.93,-223.77"/>
</g>
<!-- Node12 -->
<g id="node12" class="node">
<title>Node12</title>
<g id="a_node12"><a xlink:href="winds_8h.html" target="_top" xlink:title="Routines used to compute kinematic attributes and indices of vertical sounding profiles.">
<polygon fill="white" stroke="#666666" points="419,-184 365,-184 365,-165 419,-165 419,-184"/>
<text text-anchor="middle" x="392" y="-172" font-family="Helvetica,sans-Serif" font-size="10.00">winds.h</text>
</a>
</g>
</g>
<!-- Node4&#45;&gt;Node12 -->
<g id="edge21" class="edge">
<title>Node4&#45;&gt;Node12</title>
<path fill="none" stroke="#63b8ff" d="M288.87,-216.29C313.7,-206.47 347.99,-192.91 370.08,-184.17"/>
<polygon fill="#63b8ff" stroke="#63b8ff" points="287.54,-213.05 279.53,-219.98 290.12,-219.56 287.54,-213.05"/>
</g>
<!-- Node6&#45;&gt;Node5 -->
<g id="edge6" class="edge">
<title>Node6&#45;&gt;Node5</title>
<path fill="none" stroke="#63b8ff" d="M314,-44.66C314,-35.93 314,-25.99 314,-19.09"/>
<polygon fill="#63b8ff" stroke="#63b8ff" points="310.5,-44.75 314,-54.75 317.5,-44.75 310.5,-44.75"/>
</g>
<!-- Node8&#45;&gt;Node5 -->
<g id="edge10" class="edge">
<title>Node8&#45;&gt;Node5</title>
<path fill="none" stroke="#63b8ff" d="M112.29,-99.68C109.33,-85.85 108.12,-67.37 118,-55 136.51,-31.82 216.87,-19.8 268.77,-14.34"/>
<polygon fill="#63b8ff" stroke="#63b8ff" points="108.96,-100.78 114.86,-109.58 115.73,-99.02 108.96,-100.78"/>
</g>
<!-- Node8&#45;&gt;Node6 -->
<g id="edge11" class="edge">
<title>Node8&#45;&gt;Node6</title>
<path fill="none" stroke="#63b8ff" d="M155.94,-108.24C192.74,-98.29 247.92,-83.37 282.4,-74.05"/>
<polygon fill="#63b8ff" stroke="#63b8ff" points="154.82,-104.92 146.08,-110.91 156.65,-111.67 154.82,-104.92"/>
</g>
<!-- Node8&#45;&gt;Node7 -->
<g id="edge12" class="edge">
<title>Node8&#45;&gt;Node7</title>
<path fill="none" stroke="#63b8ff" d="M131.42,-101.96C138.91,-92.72 147.94,-81.6 154.03,-74.09"/>
<polygon fill="#63b8ff" stroke="#63b8ff" points="128.68,-99.78 125.1,-109.75 134.12,-104.19 128.68,-99.78"/>
</g>
<!-- Node10&#45;&gt;Node5 -->
<g id="edge15" class="edge">
<title>Node10&#45;&gt;Node5</title>
<path fill="none" stroke="#63b8ff" d="M224.36,-155.08C230.74,-130.68 244.28,-86.98 266,-55 275.83,-40.52 291.21,-27.36 301.9,-19.17"/>
<polygon fill="#63b8ff" stroke="#63b8ff" points="220.96,-154.28 221.93,-164.83 227.75,-155.97 220.96,-154.28"/>
</g>
<!-- Node10&#45;&gt;Node6 -->
<g id="edge16" class="edge">
<title>Node10&#45;&gt;Node6</title>
<path fill="none" stroke="#63b8ff" d="M234.36,-157C254.61,-133.73 290.82,-92.13 306.46,-74.16"/>
<polygon fill="#63b8ff" stroke="#63b8ff" points="231.62,-154.82 227.69,-164.66 236.9,-159.42 231.62,-154.82"/>
</g>
<!-- Node10&#45;&gt;Node7 -->
<g id="edge17" class="edge">
<title>Node10&#45;&gt;Node7</title>
<path fill="none" stroke="#63b8ff" d="M210.31,-155.76C197.48,-132.28 175.37,-91.81 165.73,-74.16"/>
<polygon fill="#63b8ff" stroke="#63b8ff" points="207.31,-157.56 215.17,-164.66 213.45,-154.21 207.31,-157.56"/>
</g>
<!-- Node10&#45;&gt;Node8 -->
<g id="edge18" class="edge">
<title>Node10&#45;&gt;Node8</title>
<path fill="none" stroke="#63b8ff" d="M194.73,-160.37C175.99,-150.63 150.98,-137.64 134.69,-129.17"/>
<polygon fill="#63b8ff" stroke="#63b8ff" points="193.12,-163.48 203.61,-164.98 196.35,-157.27 193.12,-163.48"/>
</g>
<!-- Node10&#45;&gt;Node9 -->
<g id="edge19" class="edge">
<title>Node10&#45;&gt;Node9</title>
<path fill="none" stroke="#63b8ff" d="M180.71,-162.18C146.3,-152.27 97.04,-138.08 65.79,-129.08"/>
<polygon fill="#63b8ff" stroke="#63b8ff" points="179.86,-165.58 190.44,-164.98 181.8,-158.85 179.86,-165.58"/>
</g>
<!-- Node12&#45;&gt;Node5 -->
<g id="edge22" class="edge">
<title>Node12&#45;&gt;Node5</title>
<path fill="none" stroke="#63b8ff" d="M390.8,-154.72C388.5,-130.22 381.89,-86.74 363,-55 354.07,-39.99 338.47,-27.12 327.27,-19.13"/>
<polygon fill="#63b8ff" stroke="#63b8ff" points="387.32,-155.12 391.59,-164.81 394.29,-154.57 387.32,-155.12"/>
</g>
<!-- Node12&#45;&gt;Node6 -->
<g id="edge23" class="edge">
<title>Node12&#45;&gt;Node6</title>
<path fill="none" stroke="#63b8ff" d="M379.64,-156.38C362.75,-133.01 333.12,-91.97 320.25,-74.16"/>
<polygon fill="#63b8ff" stroke="#63b8ff" points="376.92,-158.6 385.62,-164.66 382.6,-154.51 376.92,-158.6"/>
</g>
<!-- Node12&#45;&gt;Node11 -->
<g id="edge24" class="edge">
<title>Node12&#45;&gt;Node11</title>
<path fill="none" stroke="#63b8ff" d="M411.59,-158.88C424.37,-149.34 440.61,-137.21 451.39,-129.17"/>
<polygon fill="#63b8ff" stroke="#63b8ff" points="409.33,-156.2 403.41,-164.98 413.51,-161.81 409.33,-156.2"/>
</g>
</g>
</svg>
