<?xml version="1.0" encoding="UTF-8" standalone="no"?>
<!DOCTYPE svg PUBLIC "-//W3C//DTD SVG 1.1//EN"
 "http://www.w3.org/Graphics/SVG/1.1/DTD/svg11.dtd">
<!-- Generated by graphviz version 2.43.0 (0)
 -->
<!-- Title: algorithms.h Pages: 1 -->
<svg width="144pt" height="82pt"
 viewBox="0.00 0.00 144.00 82.00" xmlns="http://www.w3.org/2000/svg" xmlns:xlink="http://www.w3.org/1999/xlink">
<g id="graph0" class="graph" transform="scale(1 1) rotate(0) translate(4 78)">
<title>algorithms.h</title>
<!-- Node1 -->
<g id="node1" class="node">
<title>Node1</title>
<g id="a_node1"><a xlink:title="Various algorithms used for searching, sorting, accumulating etc.">
<polygon fill="#999999" stroke="#666666" points="103.5,-74 25.5,-74 25.5,-55 103.5,-55 103.5,-74"/>
<text text-anchor="middle" x="64.5" y="-62" font-family="Helvetica,sans-Serif" font-size="10.00">algorithms.h</text>
</a>
</g>
</g>
<!-- Node2 -->
<g id="node2" class="node">
<title>Node2</title>
<g id="a_node2"><a xlink:title=" ">
<polygon fill="#e0e0e0" stroke="#999999" points="53,-19 0,-19 0,0 53,0 53,-19"/>
<text text-anchor="middle" x="26.5" y="-7" font-family="Helvetica,sans-Serif" font-size="10.00">cstddef</text>
</a>
</g>
</g>
<!-- Node1&#45;&gt;Node2 -->
<g id="edge1" class="edge">
<title>Node1&#45;&gt;Node2</title>
<path fill="none" stroke="#63b8ff" d="M58.23,-54.75C52.91,-47.34 45.14,-36.5 38.62,-27.41"/>
<polygon fill="#63b8ff" stroke="#63b8ff" points="41.33,-25.18 32.66,-19.09 35.64,-29.26 41.33,-25.18"/>
</g>
<!-- Node3 -->
<g id="node3" class="node">
<title>Node3</title>
<g id="a_node3"><a xlink:title=" ">
<polygon fill="#e0e0e0" stroke="#999999" points="136,-19 71,-19 71,0 136,0 136,-19"/>
<text text-anchor="middle" x="103.5" y="-7" font-family="Helvetica,sans-Serif" font-size="10.00">functional</text>
</a>
</g>
</g>
<!-- Node1&#45;&gt;Node3 -->
<g id="edge2" class="edge">
<title>Node1&#45;&gt;Node3</title>
<path fill="none" stroke="#63b8ff" d="M70.94,-54.75C76.39,-47.34 84.36,-36.5 91.06,-27.41"/>
<polygon fill="#63b8ff" stroke="#63b8ff" points="94.07,-29.22 97.18,-19.09 88.43,-25.07 94.07,-29.22"/>
</g>
</g>
</svg>
