<?xml version="1.0" encoding="UTF-8" standalone="no"?>
<!DOCTYPE svg PUBLIC "-//W3C//DTD SVG 1.1//EN"
 "http://www.w3.org/Graphics/SVG/1.1/DTD/svg11.dtd">
<!-- Generated by graphviz version 2.43.0 (0)
 -->
<!-- Title: algorithms.h Pages: 1 -->
<svg width="642pt" height="302pt"
 viewBox="0.00 0.00 642.34 302.00" xmlns="http://www.w3.org/2000/svg" xmlns:xlink="http://www.w3.org/1999/xlink">
<g id="graph0" class="graph" transform="scale(1 1) rotate(0) translate(4 298)">
<title>algorithms.h</title>
<!-- Node1 -->
<g id="node1" class="node">
<title>Node1</title>
<g id="a_node1"><a xlink:title="Various algorithms used for searching, sorting, accumulating etc.">
<polygon fill="#999999" stroke="#666666" points="179.5,-294 101.5,-294 101.5,-275 179.5,-275 179.5,-294"/>
<text text-anchor="middle" x="140.5" y="-282" font-family="Helvetica,sans-Serif" font-size="10.00">algorithms.h</text>
</a>
</g>
</g>
<!-- Node2 -->
<g id="node2" class="node">
<title>Node2</title>
<g id="a_node2"><a xlink:href="interp_8cpp.html" target="_top" xlink:title="Routines for linear interpolation of vertical atmospheric profiles.">
<polygon fill="white" stroke="#666666" points="112,-239 47,-239 47,-220 112,-220 112,-239"/>
<text text-anchor="middle" x="79.5" y="-227" font-family="Helvetica,sans-Serif" font-size="10.00">interp.cpp</text>
</a>
</g>
</g>
<!-- Node1&#45;&gt;Node2 -->
<g id="edge1" class="edge">
<title>Node1&#45;&gt;Node2</title>
<path fill="none" stroke="#63b8ff" d="M123.03,-268.32C112.16,-258.87 98.56,-247.06 89.48,-239.17"/>
<polygon fill="#63b8ff" stroke="#63b8ff" points="120.85,-271.07 130.7,-274.98 125.45,-265.78 120.85,-271.07"/>
</g>
<!-- Node3 -->
<g id="node3" class="node">
<title>Node3</title>
<g id="a_node3"><a xlink:href="layer_8cpp.html" target="_top" xlink:title="Utilities and structures useful for grouping objects, conducting QC, and things that otherwise don&#39;t ...">
<polygon fill="white" stroke="#666666" points="61,-184 0,-184 0,-165 61,-165 61,-184"/>
<text text-anchor="middle" x="30.5" y="-172" font-family="Helvetica,sans-Serif" font-size="10.00">layer.cpp</text>
</a>
</g>
</g>
<!-- Node1&#45;&gt;Node3 -->
<g id="edge2" class="edge">
<title>Node1&#45;&gt;Node3</title>
<path fill="none" stroke="#63b8ff" d="M138.5,-264.41C136.18,-250.69 131.19,-232.48 120.5,-220 105.08,-202 80.64,-190.56 61.12,-183.8"/>
<polygon fill="#63b8ff" stroke="#63b8ff" points="135.07,-265.21 139.88,-274.65 142.01,-264.28 135.07,-265.21"/>
</g>
<!-- Node4 -->
<g id="node4" class="node">
<title>Node4</title>
<g id="a_node4"><a xlink:href="layer_8h.html" target="_top" xlink:title="Data structures and functions for performing operations over atmospheric layers.">
<polygon fill="white" stroke="#666666" points="328.5,-239 278.5,-239 278.5,-220 328.5,-220 328.5,-239"/>
<text text-anchor="middle" x="303.5" y="-227" font-family="Helvetica,sans-Serif" font-size="10.00">layer.h</text>
</a>
</g>
</g>
<!-- Node1&#45;&gt;Node4 -->
<g id="edge3" class="edge">
<title>Node1&#45;&gt;Node4</title>
<path fill="none" stroke="#63b8ff" d="M176.24,-271.88C207.17,-261.82 251.13,-247.53 278.45,-238.65"/>
<polygon fill="#63b8ff" stroke="#63b8ff" points="175.12,-268.56 166.69,-274.98 177.28,-275.22 175.12,-268.56"/>
</g>
<!-- Node4&#45;&gt;Node3 -->
<g id="edge7" class="edge">
<title>Node4&#45;&gt;Node3</title>
<path fill="none" stroke="#63b8ff" d="M268.2,-221.65C214.35,-211.19 112.53,-191.43 61.42,-181.5"/>
<polygon fill="#63b8ff" stroke="#63b8ff" points="267.82,-225.14 278.31,-223.61 269.16,-218.27 267.82,-225.14"/>
</g>
<!-- Node5 -->
<g id="node5" class="node">
<title>Node5</title>
<g id="a_node5"><a xlink:href="convective_8cpp.html" target="_top" xlink:title="Routines used to computed derived sounding parameters from vertical atmospheric profiles.">
<polygon fill="white" stroke="#666666" points="384.5,-19 294.5,-19 294.5,0 384.5,0 384.5,-19"/>
<text text-anchor="middle" x="339.5" y="-7" font-family="Helvetica,sans-Serif" font-size="10.00">convective.cpp</text>
</a>
</g>
</g>
<!-- Node4&#45;&gt;Node5 -->
<g id="edge4" class="edge">
<title>Node4&#45;&gt;Node5</title>
<path fill="none" stroke="#63b8ff" d="M339.26,-227.62C410.73,-225.19 567.94,-216.23 609.5,-184 630.44,-167.76 627.29,-154.98 632.5,-129 653.58,-23.96 472.06,-10.21 384.73,-9.61"/>
<polygon fill="#63b8ff" stroke="#63b8ff" points="338.84,-224.13 328.96,-227.95 339.06,-231.13 338.84,-224.13"/>
</g>
<!-- Node6 -->
<g id="node6" class="node">
<title>Node6</title>
<g id="a_node6"><a xlink:href="convective_8h.html" target="_top" xlink:title="Routines used to computed derived sounding parameters from vertical atmospheric profiles.">
<polygon fill="white" stroke="#666666" points="379,-74 300,-74 300,-55 379,-55 379,-74"/>
<text text-anchor="middle" x="339.5" y="-62" font-family="Helvetica,sans-Serif" font-size="10.00">convective.h</text>
</a>
</g>
</g>
<!-- Node4&#45;&gt;Node6 -->
<g id="edge5" class="edge">
<title>Node4&#45;&gt;Node6</title>
<path fill="none" stroke="#63b8ff" d="M314.15,-211.08C325.25,-191.82 341.93,-159.46 348.5,-129 352.68,-109.63 346.69,-86.49 342.66,-74.2"/>
<polygon fill="#63b8ff" stroke="#63b8ff" points="311.02,-209.5 308.93,-219.89 317.04,-213.07 311.02,-209.5"/>
</g>
<!-- Node7 -->
<g id="node7" class="node">
<title>Node7</title>
<g id="a_node7"><a xlink:href="parcel_8cpp.html" target="_top" xlink:title="Routines used for parcel lifting and integration.">
<polygon fill="white" stroke="#666666" points="161,-74 94,-74 94,-55 161,-55 161,-74"/>
<text text-anchor="middle" x="127.5" y="-62" font-family="Helvetica,sans-Serif" font-size="10.00">parcel.cpp</text>
</a>
</g>
</g>
<!-- Node4&#45;&gt;Node7 -->
<g id="edge8" class="edge">
<title>Node4&#45;&gt;Node7</title>
<path fill="none" stroke="#63b8ff" d="M268.22,-227.82C233.36,-225.22 180.83,-215.8 149.5,-184 119.4,-153.44 123.4,-95.84 126.19,-74.1"/>
<polygon fill="#63b8ff" stroke="#63b8ff" points="268.24,-231.33 278.43,-228.43 268.66,-224.34 268.24,-231.33"/>
</g>
<!-- Node8 -->
<g id="node8" class="node">
<title>Node8</title>
<g id="a_node8"><a xlink:href="parcel_8h.html" target="_top" xlink:title="Routines used for parcel lifting and integration.">
<polygon fill="white" stroke="#666666" points="211.5,-129 155.5,-129 155.5,-110 211.5,-110 211.5,-129"/>
<text text-anchor="middle" x="183.5" y="-117" font-family="Helvetica,sans-Serif" font-size="10.00">parcel.h</text>
</a>
</g>
</g>
<!-- Node4&#45;&gt;Node8 -->
<g id="edge9" class="edge">
<title>Node4&#45;&gt;Node8</title>
<path fill="none" stroke="#63b8ff" d="M286.17,-212.91C260.54,-189.83 213.35,-147.37 193.12,-129.16"/>
<polygon fill="#63b8ff" stroke="#63b8ff" points="283.91,-215.57 293.68,-219.66 288.59,-210.37 283.91,-215.57"/>
</g>
<!-- Node9 -->
<g id="node9" class="node">
<title>Node9</title>
<g id="a_node9"><a xlink:href="thermo_8cpp.html" target="_top" xlink:title="Thermodynamic routines that do not directly involve parcel based ascent.">
<polygon fill="white" stroke="#666666" points="339.5,-129 267.5,-129 267.5,-110 339.5,-110 339.5,-129"/>
<text text-anchor="middle" x="303.5" y="-117" font-family="Helvetica,sans-Serif" font-size="10.00">thermo.cpp</text>
</a>
</g>
</g>
<!-- Node4&#45;&gt;Node9 -->
<g id="edge13" class="edge">
<title>Node4&#45;&gt;Node9</title>
<path fill="none" stroke="#63b8ff" d="M303.5,-209.48C303.5,-185.84 303.5,-146.5 303.5,-129.16"/>
<polygon fill="#63b8ff" stroke="#63b8ff" points="300,-209.66 303.5,-219.66 307,-209.66 300,-209.66"/>
</g>
<!-- Node10 -->
<g id="node10" class="node">
<title>Node10</title>
<g id="a_node10"><a xlink:href="thermo_8h.html" target="_top" xlink:title="Routines used to compute thermodynamic attributes of vertical sounding profiles.">
<polygon fill="white" stroke="#666666" points="220,-184 159,-184 159,-165 220,-165 220,-184"/>
<text text-anchor="middle" x="189.5" y="-172" font-family="Helvetica,sans-Serif" font-size="10.00">thermo.h</text>
</a>
</g>
</g>
<!-- Node4&#45;&gt;Node10 -->
<g id="edge14" class="edge">
<title>Node4&#45;&gt;Node10</title>
<path fill="none" stroke="#63b8ff" d="M276.11,-215.77C255.08,-205.99 226.61,-192.75 208.15,-184.17"/>
<polygon fill="#63b8ff" stroke="#63b8ff" points="274.64,-218.94 285.18,-219.98 277.59,-212.6 274.64,-218.94"/>
</g>
<!-- Node11 -->
<g id="node11" class="node">
<title>Node11</title>
<g id="a_node11"><a xlink:href="winds_8cpp.html" target="_top" xlink:title="Routines used to compute kinematic attributes and indices of vertical sounding profiles.">
<polygon fill="white" stroke="#666666" points="461,-129 396,-129 396,-110 461,-110 461,-129"/>
<text text-anchor="middle" x="428.5" y="-117" font-family="Helvetica,sans-Serif" font-size="10.00">winds.cpp</text>
</a>
</g>
</g>
<!-- Node4&#45;&gt;Node11 -->
<g id="edge20" class="edge">
<title>Node4&#45;&gt;Node11</title>
<path fill="none" stroke="#63b8ff" d="M332.71,-215.49C348.22,-207.71 367.02,-196.86 381.5,-184 400.17,-167.43 416.05,-142.32 423.67,-129.2"/>
<polygon fill="#63b8ff" stroke="#63b8ff" points="331.03,-212.41 323.55,-219.92 334.08,-218.72 331.03,-212.41"/>
</g>
<!-- Node12 -->
<g id="node12" class="node">
<title>Node12</title>
<g id="a_node12"><a xlink:href="winds_8h.html" target="_top" xlink:title="Routines used to compute kinematic attributes and indices of vertical sounding profiles.">
<polygon fill="white" stroke="#666666" points="508.5,-184 454.5,-184 454.5,-165 508.5,-165 508.5,-184"/>
<text text-anchor="middle" x="481.5" y="-172" font-family="Helvetica,sans-Serif" font-size="10.00">winds.h</text>
</a>
</g>
</g>
<!-- Node4&#45;&gt;Node12 -->
<g id="edge21" class="edge">
<title>Node4&#45;&gt;Node12</title>
<path fill="none" stroke="#63b8ff" d="M338.6,-218.05C372.62,-207.92 423.48,-192.77 454.46,-183.55"/>
<polygon fill="#63b8ff" stroke="#63b8ff" points="337.21,-214.81 328.63,-221.02 339.21,-221.52 337.21,-214.81"/>
</g>
<!-- Node13 -->
<g id="node13" class="node">
<title>Node13</title>
<g id="a_node13"><a xlink:href="winter_8h.html" target="_top" xlink:title="Winter weather parameters.">
<polygon fill="white" stroke="#666666" points="600.5,-184 544.5,-184 544.5,-165 600.5,-165 600.5,-184"/>
<text text-anchor="middle" x="572.5" y="-172" font-family="Helvetica,sans-Serif" font-size="10.00">winter.h</text>
</a>
</g>
</g>
<!-- Node4&#45;&gt;Node13 -->
<g id="edge25" class="edge">
<title>Node4&#45;&gt;Node13</title>
<path fill="none" stroke="#63b8ff" d="M338.95,-221.52C392.98,-210.87 494.87,-190.79 544.25,-181.07"/>
<polygon fill="#63b8ff" stroke="#63b8ff" points="337.94,-218.15 328.81,-223.51 339.29,-225.01 337.94,-218.15"/>
</g>
<!-- Node6&#45;&gt;Node5 -->
<g id="edge6" class="edge">
<title>Node6&#45;&gt;Node5</title>
<path fill="none" stroke="#63b8ff" d="M339.5,-44.66C339.5,-35.93 339.5,-25.99 339.5,-19.09"/>
<polygon fill="#63b8ff" stroke="#63b8ff" points="336,-44.75 339.5,-54.75 343,-44.75 336,-44.75"/>
</g>
<!-- Node8&#45;&gt;Node5 -->
<g id="edge10" class="edge">
<title>Node8&#45;&gt;Node5</title>
<path fill="none" stroke="#63b8ff" d="M204.44,-104.01C237.35,-81.22 300.18,-37.72 326.94,-19.2"/>
<polygon fill="#63b8ff" stroke="#63b8ff" points="202.23,-101.27 196,-109.84 206.22,-107.03 202.23,-101.27"/>
</g>
<!-- Node8&#45;&gt;Node6 -->
<g id="edge11" class="edge">
<title>Node8&#45;&gt;Node6</title>
<path fill="none" stroke="#63b8ff" d="M218.32,-106.67C247.41,-96.79 288.2,-82.93 314.24,-74.08"/>
<polygon fill="#63b8ff" stroke="#63b8ff" points="216.91,-103.45 208.56,-109.98 219.16,-110.08 216.91,-103.45"/>
</g>
<!-- Node8&#45;&gt;Node7 -->
<g id="edge12" class="edge">
<title>Node8&#45;&gt;Node7</title>
<path fill="none" stroke="#63b8ff" d="M167.17,-103.04C157.24,-93.64 144.91,-81.98 136.66,-74.17"/>
<polygon fill="#63b8ff" stroke="#63b8ff" points="164.83,-105.65 174.5,-109.98 169.65,-100.57 164.83,-105.65"/>
</g>
<!-- Node10&#45;&gt;Node5 -->
<g id="edge15" class="edge">
<title>Node10&#45;&gt;Node5</title>
<path fill="none" stroke="#63b8ff" d="M162.25,-160.22C121.25,-138.52 51.76,-93.94 84.5,-55 110.81,-23.7 228.6,-14.41 294.49,-11.66"/>
<polygon fill="#63b8ff" stroke="#63b8ff" points="160.77,-163.39 171.26,-164.87 163.97,-157.17 160.77,-163.39"/>
</g>
<!-- Node10&#45;&gt;Node6 -->
<g id="edge16" class="edge">
<title>Node10&#45;&gt;Node6</title>
<path fill="none" stroke="#63b8ff" d="M204.42,-157.76C217.81,-144.16 238.39,-124.45 258.5,-110 278.7,-95.49 304.13,-82.23 321.05,-74.04"/>
<polygon fill="#63b8ff" stroke="#63b8ff" points="201.87,-155.37 197.43,-164.98 206.9,-160.23 201.87,-155.37"/>
</g>
<!-- Node10&#45;&gt;Node7 -->
<g id="edge17" class="edge">
<title>Node10&#45;&gt;Node7</title>
<path fill="none" stroke="#63b8ff" d="M170.79,-157.92C162.33,-150.02 152.83,-139.82 146.5,-129 136.04,-111.12 130.89,-86.99 128.76,-74.24"/>
<polygon fill="#63b8ff" stroke="#63b8ff" points="168.64,-160.7 178.44,-164.74 173.3,-155.47 168.64,-160.7"/>
</g>
<!-- Node10&#45;&gt;Node8 -->
<g id="edge18" class="edge">
<title>Node10&#45;&gt;Node8</title>
<path fill="none" stroke="#63b8ff" d="M187.37,-154.66C186.38,-145.93 185.25,-135.99 184.47,-129.09"/>
<polygon fill="#63b8ff" stroke="#63b8ff" points="183.91,-155.21 188.51,-164.75 190.86,-154.42 183.91,-155.21"/>
</g>
<!-- Node10&#45;&gt;Node9 -->
<g id="edge19" class="edge">
<title>Node10&#45;&gt;Node9</title>
<path fill="none" stroke="#63b8ff" d="M216.89,-160.77C237.92,-150.99 266.39,-137.75 284.85,-129.17"/>
<polygon fill="#63b8ff" stroke="#63b8ff" points="215.41,-157.6 207.82,-164.98 218.36,-163.94 215.41,-157.6"/>
</g>
<!-- Node12&#45;&gt;Node5 -->
<g id="edge22" class="edge">
<title>Node12&#45;&gt;Node5</title>
<path fill="none" stroke="#63b8ff" d="M488.84,-155.21C492.96,-141.92 495.93,-123.89 488.5,-110 462.47,-61.31 400.9,-32.31 365.59,-19.1"/>
<polygon fill="#63b8ff" stroke="#63b8ff" points="485.53,-154.09 485.47,-164.69 492.12,-156.44 485.53,-154.09"/>
</g>
<!-- Node12&#45;&gt;Node6 -->
<g id="edge23" class="edge">
<title>Node12&#45;&gt;Node6</title>
<path fill="none" stroke="#63b8ff" d="M483.04,-154.63C483.13,-140.74 480.95,-122.22 470.5,-110 447.87,-83.53 408.85,-72.77 379.26,-68.41"/>
<polygon fill="#63b8ff" stroke="#63b8ff" points="479.53,-154.82 482.55,-164.97 486.52,-155.14 479.53,-154.82"/>
</g>
<!-- Node12&#45;&gt;Node11 -->
<g id="edge24" class="edge">
<title>Node12&#45;&gt;Node11</title>
<path fill="none" stroke="#63b8ff" d="M465.52,-157.52C456.18,-148.18 444.75,-136.75 437.09,-129.09"/>
<polygon fill="#63b8ff" stroke="#63b8ff" points="463.2,-160.15 472.75,-164.75 468.15,-155.2 463.2,-160.15"/>
</g>
<!-- Node14 -->
<g id="node14" class="node">
<title>Node14</title>
<g id="a_node14"><a xlink:href="winter_8cpp.html" target="_top" xlink:title="Winter weather parameters.">
<polygon fill="white" stroke="#666666" points="623,-129 556,-129 556,-110 623,-110 623,-129"/>
<text text-anchor="middle" x="589.5" y="-117" font-family="Helvetica,sans-Serif" font-size="10.00">winter.cpp</text>
</a>
</g>
</g>
<!-- Node13&#45;&gt;Node14 -->
<g id="edge26" class="edge">
<title>Node13&#45;&gt;Node14</title>
<path fill="none" stroke="#63b8ff" d="M578.45,-154.95C581.27,-146.15 584.51,-136.06 586.75,-129.09"/>
<polygon fill="#63b8ff" stroke="#63b8ff" points="575.03,-154.16 575.31,-164.75 581.69,-156.29 575.03,-154.16"/>
</g>
</g>
</svg>
