<?xml version="1.0" encoding="UTF-8" standalone="no"?>
<!DOCTYPE svg PUBLIC "-//W3C//DTD SVG 1.1//EN"
 "http://www.w3.org/Graphics/SVG/1.1/DTD/svg11.dtd">
<!-- Generated by graphviz version 2.43.0 (0)
 -->
<!-- Title: algorithms.h Pages: 1 -->
<svg width="571pt" height="247pt"
 viewBox="0.00 0.00 571.26 247.00" xmlns="http://www.w3.org/2000/svg" xmlns:xlink="http://www.w3.org/1999/xlink">
<g id="graph0" class="graph" transform="scale(1 1) rotate(0) translate(4 243)">
<title>algorithms.h</title>
<!-- Node1 -->
<g id="node1" class="node">
<title>Node1</title>
<g id="a_node1"><a xlink:title="Various algorithms used for searching, sorting, accumulating etc.">
<polygon fill="#999999" stroke="#666666" points="137.5,-239 59.5,-239 59.5,-220 137.5,-220 137.5,-239"/>
<text text-anchor="middle" x="98.5" y="-227" font-family="Helvetica,sans-Serif" font-size="10.00">algorithms.h</text>
</a>
</g>
</g>
<!-- Node2 -->
<g id="node2" class="node">
<title>Node2</title>
<g id="a_node2"><a xlink:href="interp_8cpp.html" target="_top" xlink:title="Routines for linear interpolation of vertical atmospheric profiles.">
<polygon fill="white" stroke="#666666" points="70,-184 5,-184 5,-165 70,-165 70,-184"/>
<text text-anchor="middle" x="37.5" y="-172" font-family="Helvetica,sans-Serif" font-size="10.00">interp.cpp</text>
</a>
</g>
</g>
<!-- Node1&#45;&gt;Node2 -->
<g id="edge1" class="edge">
<title>Node1&#45;&gt;Node2</title>
<path fill="none" stroke="#63b8ff" d="M81.03,-213.32C70.16,-203.87 56.56,-192.06 47.48,-184.17"/>
<polygon fill="#63b8ff" stroke="#63b8ff" points="78.85,-216.07 88.7,-219.98 83.45,-210.78 78.85,-216.07"/>
</g>
<!-- Node3 -->
<g id="node3" class="node">
<title>Node3</title>
<g id="a_node3"><a xlink:href="layer_8cpp.html" target="_top" xlink:title="Utilities and structures useful for grouping objects, conducting QC, and things that otherwise don&#39;t ...">
<polygon fill="white" stroke="#666666" points="61,-129 0,-129 0,-110 61,-110 61,-129"/>
<text text-anchor="middle" x="30.5" y="-117" font-family="Helvetica,sans-Serif" font-size="10.00">layer.cpp</text>
</a>
</g>
</g>
<!-- Node1&#45;&gt;Node3 -->
<g id="edge2" class="edge">
<title>Node1&#45;&gt;Node3</title>
<path fill="none" stroke="#63b8ff" d="M95.27,-209.8C92.37,-196.54 87.19,-178.73 78.5,-165 69.14,-150.21 53.67,-137.11 42.83,-129.02"/>
<polygon fill="#63b8ff" stroke="#63b8ff" points="91.85,-210.54 97.2,-219.68 98.72,-209.2 91.85,-210.54"/>
</g>
<!-- Node4 -->
<g id="node4" class="node">
<title>Node4</title>
<g id="a_node4"><a xlink:href="layer_8h.html" target="_top" xlink:title="Data structures and functions for performing operations over atmospheric layers.">
<polygon fill="white" stroke="#666666" points="273.5,-184 223.5,-184 223.5,-165 273.5,-165 273.5,-184"/>
<text text-anchor="middle" x="248.5" y="-172" font-family="Helvetica,sans-Serif" font-size="10.00">layer.h</text>
</a>
</g>
</g>
<!-- Node1&#45;&gt;Node4 -->
<g id="edge3" class="edge">
<title>Node1&#45;&gt;Node4</title>
<path fill="none" stroke="#63b8ff" d="M132.32,-216.55C160.18,-206.71 199.01,-192.98 223.96,-184.17"/>
<polygon fill="#63b8ff" stroke="#63b8ff" points="130.86,-213.35 122.6,-219.98 133.19,-219.95 130.86,-213.35"/>
</g>
<!-- Node4&#45;&gt;Node3 -->
<g id="edge6" class="edge">
<title>Node4&#45;&gt;Node3</title>
<path fill="none" stroke="#63b8ff" d="M213.68,-165.03C171.55,-154.79 101.3,-137.71 61.15,-127.95"/>
<polygon fill="#63b8ff" stroke="#63b8ff" points="212.95,-168.46 223.49,-167.42 214.6,-161.66 212.95,-168.46"/>
</g>
<!-- Node5 -->
<g id="node5" class="node">
<title>Node5</title>
<g id="a_node5"><a xlink:href="convective_8cpp.html" target="_top" xlink:title="Routines used to computed derived sounding parameters from vertical atmospheric profiles.">
<polygon fill="white" stroke="#666666" points="512.5,-19 422.5,-19 422.5,0 512.5,0 512.5,-19"/>
<text text-anchor="middle" x="467.5" y="-7" font-family="Helvetica,sans-Serif" font-size="10.00">convective.cpp</text>
</a>
</g>
</g>
<!-- Node4&#45;&gt;Node5 -->
<g id="edge4" class="edge">
<title>Node4&#45;&gt;Node5</title>
<path fill="none" stroke="#63b8ff" d="M283.64,-171.11C347.61,-166.21 480.01,-153.39 518.5,-129 549.73,-109.21 575.94,-86.45 556.5,-55 545.15,-36.63 523.66,-25.59 504.65,-19.1"/>
<polygon fill="#63b8ff" stroke="#63b8ff" points="283.34,-167.62 273.62,-171.85 283.86,-174.6 283.34,-167.62"/>
</g>
<!-- Node6 -->
<g id="node6" class="node">
<title>Node6</title>
<g id="a_node6"><a xlink:href="convective_8h.html" target="_top" xlink:title="Routines used to computed derived sounding parameters from vertical atmospheric profiles.">
<polygon fill="white" stroke="#666666" points="306,-19 227,-19 227,0 306,0 306,-19"/>
<text text-anchor="middle" x="266.5" y="-7" font-family="Helvetica,sans-Serif" font-size="10.00">convective.h</text>
</a>
</g>
</g>
<!-- Node4&#45;&gt;Node6 -->
<g id="edge5" class="edge">
<title>Node4&#45;&gt;Node6</title>
<path fill="none" stroke="#63b8ff" d="M229.44,-158.11C203.57,-135.29 162.92,-91.26 184.5,-55 195.27,-36.91 216.25,-25.71 234.29,-19.08"/>
<polygon fill="#63b8ff" stroke="#63b8ff" points="227.34,-160.92 237.22,-164.74 231.88,-155.59 227.34,-160.92"/>
</g>
<!-- Node7 -->
<g id="node7" class="node">
<title>Node7</title>
<g id="a_node7"><a xlink:href="parcel_8cpp.html" target="_top" xlink:title="Routines used for parcel lifting and integration.">
<polygon fill="white" stroke="#666666" points="199,-19 132,-19 132,0 199,0 199,-19"/>
<text text-anchor="middle" x="165.5" y="-7" font-family="Helvetica,sans-Serif" font-size="10.00">parcel.cpp</text>
</a>
</g>
</g>
<!-- Node4&#45;&gt;Node7 -->
<g id="edge7" class="edge">
<title>Node4&#45;&gt;Node7</title>
<path fill="none" stroke="#63b8ff" d="M219.49,-160.02C206.77,-152.64 192.87,-142.26 184.5,-129 161.94,-93.23 163.21,-39.67 164.7,-19.03"/>
<polygon fill="#63b8ff" stroke="#63b8ff" points="217.98,-163.18 228.44,-164.86 221.31,-157.03 217.98,-163.18"/>
</g>
<!-- Node8 -->
<g id="node8" class="node">
<title>Node8</title>
<g id="a_node8"><a xlink:href="parcel_8h.html" target="_top" xlink:title="Routines used for parcel lifting and integration.">
<polygon fill="white" stroke="#666666" points="249.5,-74 193.5,-74 193.5,-55 249.5,-55 249.5,-74"/>
<text text-anchor="middle" x="221.5" y="-62" font-family="Helvetica,sans-Serif" font-size="10.00">parcel.h</text>
</a>
</g>
</g>
<!-- Node4&#45;&gt;Node8 -->
<g id="edge8" class="edge">
<title>Node4&#45;&gt;Node8</title>
<path fill="none" stroke="#63b8ff" d="M243.83,-154.8C237.93,-131.2 228.02,-91.58 223.66,-74.16"/>
<polygon fill="#63b8ff" stroke="#63b8ff" points="240.47,-155.81 246.29,-164.66 247.26,-154.11 240.47,-155.81"/>
</g>
<!-- Node9 -->
<g id="node9" class="node">
<title>Node9</title>
<g id="a_node9"><a xlink:href="thermo_8cpp.html" target="_top" xlink:title="Thermodynamic routines that do not directly involve parcel based ascent.">
<polygon fill="white" stroke="#666666" points="415.5,-74 343.5,-74 343.5,-55 415.5,-55 415.5,-74"/>
<text text-anchor="middle" x="379.5" y="-62" font-family="Helvetica,sans-Serif" font-size="10.00">thermo.cpp</text>
</a>
</g>
</g>
<!-- Node4&#45;&gt;Node9 -->
<g id="edge12" class="edge">
<title>Node4&#45;&gt;Node9</title>
<path fill="none" stroke="#63b8ff" d="M272.81,-159.67C286.46,-151.45 303.51,-140.43 317.5,-129 338.98,-111.45 360.9,-87.19 372.03,-74.33"/>
<polygon fill="#63b8ff" stroke="#63b8ff" points="270.81,-156.78 263.98,-164.88 274.37,-162.81 270.81,-156.78"/>
</g>
<!-- Node10 -->
<g id="node10" class="node">
<title>Node10</title>
<g id="a_node10"><a xlink:href="thermo_8h.html" target="_top" xlink:title="Routines used to compute thermodynamic attributes of vertical sounding profiles.">
<polygon fill="white" stroke="#666666" points="309,-129 248,-129 248,-110 309,-110 309,-129"/>
<text text-anchor="middle" x="278.5" y="-117" font-family="Helvetica,sans-Serif" font-size="10.00">thermo.h</text>
</a>
</g>
</g>
<!-- Node4&#45;&gt;Node10 -->
<g id="edge13" class="edge">
<title>Node4&#45;&gt;Node10</title>
<path fill="none" stroke="#63b8ff" d="M258.51,-155.82C263.6,-146.82 269.56,-136.29 273.64,-129.09"/>
<polygon fill="#63b8ff" stroke="#63b8ff" points="255.33,-154.32 253.45,-164.75 261.43,-157.77 255.33,-154.32"/>
</g>
<!-- Node11 -->
<g id="node11" class="node">
<title>Node11</title>
<g id="a_node11"><a xlink:href="winds_8cpp.html" target="_top" xlink:title="Routines used to compute kinematic attributes and indices of vertical sounding profiles.">
<polygon fill="white" stroke="#666666" points="499,-74 434,-74 434,-55 499,-55 499,-74"/>
<text text-anchor="middle" x="466.5" y="-62" font-family="Helvetica,sans-Serif" font-size="10.00">winds.cpp</text>
</a>
</g>
</g>
<!-- Node4&#45;&gt;Node11 -->
<g id="edge19" class="edge">
<title>Node4&#45;&gt;Node11</title>
<path fill="none" stroke="#63b8ff" d="M275.81,-160.64C294.38,-151.85 319.49,-139.85 341.5,-129 380.58,-109.73 426.12,-86.36 449.98,-74.05"/>
<polygon fill="#63b8ff" stroke="#63b8ff" points="274.28,-157.49 266.74,-164.93 277.28,-163.82 274.28,-157.49"/>
</g>
<!-- Node12 -->
<g id="node12" class="node">
<title>Node12</title>
<g id="a_node12"><a xlink:href="winds_8h.html" target="_top" xlink:title="Routines used to compute kinematic attributes and indices of vertical sounding profiles.">
<polygon fill="white" stroke="#666666" points="509.5,-129 455.5,-129 455.5,-110 509.5,-110 509.5,-129"/>
<text text-anchor="middle" x="482.5" y="-117" font-family="Helvetica,sans-Serif" font-size="10.00">winds.h</text>
</a>
</g>
</g>
<!-- Node4&#45;&gt;Node12 -->
<g id="edge20" class="edge">
<title>Node4&#45;&gt;Node12</title>
<path fill="none" stroke="#63b8ff" d="M283.57,-165.56C330.57,-154.91 413,-136.24 455.49,-126.62"/>
<polygon fill="#63b8ff" stroke="#63b8ff" points="282.52,-162.21 273.54,-167.83 284.07,-169.03 282.52,-162.21"/>
</g>
<!-- Node8&#45;&gt;Node5 -->
<g id="edge9" class="edge">
<title>Node8&#45;&gt;Node5</title>
<path fill="none" stroke="#63b8ff" d="M259.53,-55.31C305.22,-45.46 381.48,-29.03 427.87,-19.04"/>
<polygon fill="#63b8ff" stroke="#63b8ff" points="258.76,-51.89 249.72,-57.42 260.23,-58.74 258.76,-51.89"/>
</g>
<!-- Node8&#45;&gt;Node6 -->
<g id="edge10" class="edge">
<title>Node8&#45;&gt;Node6</title>
<path fill="none" stroke="#63b8ff" d="M235.55,-46.96C243.39,-37.72 252.83,-26.6 259.21,-19.09"/>
<polygon fill="#63b8ff" stroke="#63b8ff" points="232.74,-44.86 228.93,-54.75 238.07,-49.39 232.74,-44.86"/>
</g>
<!-- Node8&#45;&gt;Node7 -->
<g id="edge11" class="edge">
<title>Node8&#45;&gt;Node7</title>
<path fill="none" stroke="#63b8ff" d="M205.17,-48.04C195.24,-38.64 182.91,-26.98 174.66,-19.17"/>
<polygon fill="#63b8ff" stroke="#63b8ff" points="202.83,-50.65 212.5,-54.98 207.65,-45.57 202.83,-50.65"/>
</g>
<!-- Node10&#45;&gt;Node5 -->
<g id="edge14" class="edge">
<title>Node10&#45;&gt;Node5</title>
<path fill="none" stroke="#63b8ff" d="M289.71,-101.39C299.86,-87.14 316.01,-67.26 334.5,-55 361.49,-37.1 396.33,-25.79 423.59,-19.05"/>
<polygon fill="#63b8ff" stroke="#63b8ff" points="286.71,-99.57 283.95,-109.8 292.49,-103.53 286.71,-99.57"/>
</g>
<!-- Node10&#45;&gt;Node6 -->
<g id="edge15" class="edge">
<title>Node10&#45;&gt;Node6</title>
<path fill="none" stroke="#63b8ff" d="M276.39,-99.48C273.76,-75.84 269.39,-36.5 267.46,-19.16"/>
<polygon fill="#63b8ff" stroke="#63b8ff" points="272.93,-100.11 277.52,-109.66 279.89,-99.34 272.93,-100.11"/>
</g>
<!-- Node10&#45;&gt;Node7 -->
<g id="edge16" class="edge">
<title>Node10&#45;&gt;Node7</title>
<path fill="none" stroke="#63b8ff" d="M238.28,-107.8C219.57,-100.95 198.43,-90.21 184.5,-74 170.85,-58.11 167.01,-32.72 165.92,-19.37"/>
<polygon fill="#63b8ff" stroke="#63b8ff" points="237.2,-111.13 247.79,-111.04 239.45,-104.5 237.2,-111.13"/>
</g>
<!-- Node10&#45;&gt;Node8 -->
<g id="edge17" class="edge">
<title>Node10&#45;&gt;Node8</title>
<path fill="none" stroke="#63b8ff" d="M261.88,-103.04C251.77,-93.64 239.22,-81.98 230.82,-74.17"/>
<polygon fill="#63b8ff" stroke="#63b8ff" points="259.64,-105.74 269.34,-109.98 264.4,-100.61 259.64,-105.74"/>
</g>
<!-- Node10&#45;&gt;Node9 -->
<g id="edge18" class="edge">
<title>Node10&#45;&gt;Node9</title>
<path fill="none" stroke="#63b8ff" d="M303.78,-105.23C322.3,-95.51 346.92,-82.6 362.98,-74.17"/>
<polygon fill="#63b8ff" stroke="#63b8ff" points="301.96,-102.24 294.73,-109.98 305.21,-108.44 301.96,-102.24"/>
</g>
<!-- Node12&#45;&gt;Node5 -->
<g id="edge21" class="edge">
<title>Node12&#45;&gt;Node5</title>
<path fill="none" stroke="#63b8ff" d="M509.9,-105.13C530.24,-93.24 552.66,-74.74 541.5,-55 531.54,-37.38 511.5,-25.97 494.79,-19.12"/>
<polygon fill="#63b8ff" stroke="#63b8ff" points="508.2,-102.07 501.13,-109.95 511.58,-108.2 508.2,-102.07"/>
</g>
<!-- Node12&#45;&gt;Node6 -->
<g id="edge22" class="edge">
<title>Node12&#45;&gt;Node6</title>
<path fill="none" stroke="#63b8ff" d="M497.91,-102.11C508.94,-88.36 519.99,-68.8 508.5,-55 483.21,-24.64 368.09,-14.92 306.18,-11.86"/>
<polygon fill="#63b8ff" stroke="#63b8ff" points="495.13,-99.97 491.24,-109.83 500.43,-104.55 495.13,-99.97"/>
</g>
<!-- Node12&#45;&gt;Node11 -->
<g id="edge23" class="edge">
<title>Node12&#45;&gt;Node11</title>
<path fill="none" stroke="#63b8ff" d="M476.9,-99.95C474.24,-91.15 471.2,-81.06 469.09,-74.09"/>
<polygon fill="#63b8ff" stroke="#63b8ff" points="473.62,-101.19 479.86,-109.75 480.32,-99.16 473.62,-101.19"/>
</g>
</g>
</svg>
