<?xml version="1.0" encoding="UTF-8" standalone="no"?>
<!DOCTYPE svg PUBLIC "-//W3C//DTD SVG 1.1//EN"
 "http://www.w3.org/Graphics/SVG/1.1/DTD/svg11.dtd">
<!-- Generated by graphviz version 2.43.0 (0)
 -->
<!-- Title: algorithms.h Pages: 1 -->
<svg width="965pt" height="302pt"
 viewBox="0.00 0.00 965.00 302.00" xmlns="http://www.w3.org/2000/svg" xmlns:xlink="http://www.w3.org/1999/xlink">
<g id="graph0" class="graph" transform="scale(1 1) rotate(0) translate(4 298)">
<title>algorithms.h</title>
<!-- Node1 -->
<g id="node1" class="node">
<title>Node1</title>
<g id="a_node1"><a xlink:title="Various algorithms used for searching, sorting, accumulating etc.">
<polygon fill="#999999" stroke="#666666" points="243.5,-294 165.5,-294 165.5,-275 243.5,-275 243.5,-294"/>
<text text-anchor="middle" x="204.5" y="-282" font-family="Helvetica,sans-Serif" font-size="10.00">algorithms.h</text>
</a>
</g>
</g>
<!-- Node2 -->
<g id="node2" class="node">
<title>Node2</title>
<g id="a_node2"><a xlink:href="interp_8cpp.html" target="_top" xlink:title="Routines for linear interpolation of vertical atmospheric profiles.">
<polygon fill="white" stroke="#666666" points="176,-239 111,-239 111,-220 176,-220 176,-239"/>
<text text-anchor="middle" x="143.5" y="-227" font-family="Helvetica,sans-Serif" font-size="10.00">interp.cpp</text>
</a>
</g>
</g>
<!-- Node1&#45;&gt;Node2 -->
<g id="edge1" class="edge">
<title>Node1&#45;&gt;Node2</title>
<path fill="none" stroke="#63b8ff" d="M187.03,-268.32C176.16,-258.87 162.56,-247.06 153.48,-239.17"/>
<polygon fill="#63b8ff" stroke="#63b8ff" points="184.85,-271.07 194.7,-274.98 189.45,-265.78 184.85,-271.07"/>
</g>
<!-- Node3 -->
<g id="node3" class="node">
<title>Node3</title>
<g id="a_node3"><a xlink:href="layer_8cpp.html" target="_top" xlink:title="Utilities and structures useful for grouping objects, conducting QC, and things that otherwise don&#39;t ...">
<polygon fill="white" stroke="#666666" points="61,-184 0,-184 0,-165 61,-165 61,-184"/>
<text text-anchor="middle" x="30.5" y="-172" font-family="Helvetica,sans-Serif" font-size="10.00">layer.cpp</text>
</a>
</g>
</g>
<!-- Node1&#45;&gt;Node3 -->
<g id="edge2" class="edge">
<title>Node1&#45;&gt;Node3</title>
<path fill="none" stroke="#63b8ff" d="M203.25,-264.7C201.33,-250.57 196.51,-231.72 184.5,-220 175.56,-211.27 103.45,-192.91 61.14,-182.71"/>
<polygon fill="#63b8ff" stroke="#63b8ff" points="199.78,-265.18 204.25,-274.78 206.75,-264.48 199.78,-265.18"/>
</g>
<!-- Node4 -->
<g id="node4" class="node">
<title>Node4</title>
<g id="a_node4"><a xlink:href="layer_8h.html" target="_top" xlink:title="Data structures and functions for performing operations over atmospheric layers.">
<polygon fill="white" stroke="#666666" points="457.5,-239 407.5,-239 407.5,-220 457.5,-220 457.5,-239"/>
<text text-anchor="middle" x="432.5" y="-227" font-family="Helvetica,sans-Serif" font-size="10.00">layer.h</text>
</a>
</g>
</g>
<!-- Node1&#45;&gt;Node4 -->
<g id="edge3" class="edge">
<title>Node1&#45;&gt;Node4</title>
<path fill="none" stroke="#63b8ff" d="M251.12,-272.66C298.35,-261.68 369.66,-245.11 407.25,-236.37"/>
<polygon fill="#63b8ff" stroke="#63b8ff" points="250.08,-269.31 241.13,-274.98 251.66,-276.13 250.08,-269.31"/>
</g>
<!-- Node4&#45;&gt;Node3 -->
<g id="edge7" class="edge">
<title>Node4&#45;&gt;Node3</title>
<path fill="none" stroke="#63b8ff" d="M397.33,-224.86C333.19,-218.05 192.99,-202.4 75.5,-184 70.94,-183.29 66.14,-182.46 61.44,-181.61"/>
<polygon fill="#63b8ff" stroke="#63b8ff" points="397.01,-228.34 407.32,-225.91 397.74,-221.38 397.01,-228.34"/>
</g>
<!-- Node5 -->
<g id="node5" class="node">
<title>Node5</title>
<g id="a_node5"><a xlink:href="convective_8cpp.html" target="_top" xlink:title="Routines used to computed derived sounding parameters from vertical atmospheric profiles.">
<polygon fill="white" stroke="#666666" points="701.5,-74 611.5,-74 611.5,-55 701.5,-55 701.5,-74"/>
<text text-anchor="middle" x="656.5" y="-62" font-family="Helvetica,sans-Serif" font-size="10.00">convective.cpp</text>
</a>
</g>
</g>
<!-- Node4&#45;&gt;Node5 -->
<g id="edge4" class="edge">
<title>Node4&#45;&gt;Node5</title>
<path fill="none" stroke="#63b8ff" d="M467.74,-225.22C555.38,-216.24 778.93,-187.84 818.5,-129 848.34,-84.63 759.47,-71.26 701.78,-67.23"/>
<polygon fill="#63b8ff" stroke="#63b8ff" points="467.35,-221.75 457.75,-226.23 468.05,-228.71 467.35,-221.75"/>
</g>
<!-- Node6 -->
<g id="node6" class="node">
<title>Node6</title>
<g id="a_node6"><a xlink:href="convective_8h.html" target="_top" xlink:title="Routines used to computed derived sounding parameters from vertical atmospheric profiles.">
<polygon fill="white" stroke="#666666" points="565,-74 486,-74 486,-55 565,-55 565,-74"/>
<text text-anchor="middle" x="525.5" y="-62" font-family="Helvetica,sans-Serif" font-size="10.00">convective.h</text>
</a>
</g>
</g>
<!-- Node4&#45;&gt;Node6 -->
<g id="edge5" class="edge">
<title>Node4&#45;&gt;Node6</title>
<path fill="none" stroke="#63b8ff" d="M442.64,-210.73C462.47,-175.97 505.75,-100.12 520.48,-74.31"/>
<polygon fill="#63b8ff" stroke="#63b8ff" points="439.42,-209.32 437.5,-219.74 445.5,-212.79 439.42,-209.32"/>
</g>
<!-- Node8 -->
<g id="node8" class="node">
<title>Node8</title>
<g id="a_node8"><a xlink:href="layer__wrap_8cpp.html" target="_top" xlink:title=" ">
<polygon fill="white" stroke="#666666" points="957,-184 866,-184 866,-165 957,-165 957,-184"/>
<text text-anchor="middle" x="911.5" y="-172" font-family="Helvetica,sans-Serif" font-size="10.00">layer_wrap.cpp</text>
</a>
</g>
</g>
<!-- Node4&#45;&gt;Node8 -->
<g id="edge8" class="edge">
<title>Node4&#45;&gt;Node8</title>
<path fill="none" stroke="#63b8ff" d="M467.9,-225.16C540.12,-218.26 709.6,-201.58 851.5,-184 856.2,-183.42 861.1,-182.78 865.99,-182.12"/>
<polygon fill="#63b8ff" stroke="#63b8ff" points="467.19,-221.71 457.57,-226.15 467.85,-228.68 467.19,-221.71"/>
</g>
<!-- Node9 -->
<g id="node9" class="node">
<title>Node9</title>
<g id="a_node9"><a xlink:href="parcel_8cpp.html" target="_top" xlink:title="Routines used for parcel lifting and integration.">
<polygon fill="white" stroke="#666666" points="251,-74 184,-74 184,-55 251,-55 251,-74"/>
<text text-anchor="middle" x="217.5" y="-62" font-family="Helvetica,sans-Serif" font-size="10.00">parcel.cpp</text>
</a>
</g>
</g>
<!-- Node4&#45;&gt;Node9 -->
<g id="edge9" class="edge">
<title>Node4&#45;&gt;Node9</title>
<path fill="none" stroke="#63b8ff" d="M397.26,-223.08C320.59,-210.5 142.8,-176.67 108.5,-129 86.31,-98.15 144.26,-79.95 183.92,-71.42"/>
<polygon fill="#63b8ff" stroke="#63b8ff" points="396.95,-226.58 407.38,-224.72 398.06,-219.67 396.95,-226.58"/>
</g>
<!-- Node10 -->
<g id="node10" class="node">
<title>Node10</title>
<g id="a_node10"><a xlink:href="parcel_8h.html" target="_top" xlink:title="Routines used for parcel lifting and integration.">
<polygon fill="white" stroke="#666666" points="459.5,-129 403.5,-129 403.5,-110 459.5,-110 459.5,-129"/>
<text text-anchor="middle" x="431.5" y="-117" font-family="Helvetica,sans-Serif" font-size="10.00">parcel.h</text>
</a>
</g>
</g>
<!-- Node4&#45;&gt;Node10 -->
<g id="edge10" class="edge">
<title>Node4&#45;&gt;Node10</title>
<path fill="none" stroke="#63b8ff" d="M432.32,-209.48C432.11,-185.84 431.74,-146.5 431.58,-129.16"/>
<polygon fill="#63b8ff" stroke="#63b8ff" points="428.83,-209.69 432.42,-219.66 435.83,-209.63 428.83,-209.69"/>
</g>
<!-- Node12 -->
<g id="node12" class="node">
<title>Node12</title>
<g id="a_node12"><a xlink:href="thermo_8cpp.html" target="_top" xlink:title="Thermodynamic routines that do not directly involve parcel based ascent.">
<polygon fill="white" stroke="#666666" points="189.5,-129 117.5,-129 117.5,-110 189.5,-110 189.5,-129"/>
<text text-anchor="middle" x="153.5" y="-117" font-family="Helvetica,sans-Serif" font-size="10.00">thermo.cpp</text>
</a>
</g>
</g>
<!-- Node4&#45;&gt;Node12 -->
<g id="edge15" class="edge">
<title>Node4&#45;&gt;Node12</title>
<path fill="none" stroke="#63b8ff" d="M400.52,-216.12C343.28,-193.96 224.72,-148.07 175.58,-129.05"/>
<polygon fill="#63b8ff" stroke="#63b8ff" points="399.55,-219.5 410.14,-219.84 402.08,-212.97 399.55,-219.5"/>
</g>
<!-- Node13 -->
<g id="node13" class="node">
<title>Node13</title>
<g id="a_node13"><a xlink:href="thermo_8h.html" target="_top" xlink:title="Routines used to compute thermodynamic attributes of vertical sounding profiles.">
<polygon fill="white" stroke="#666666" points="404,-184 343,-184 343,-165 404,-165 404,-184"/>
<text text-anchor="middle" x="373.5" y="-172" font-family="Helvetica,sans-Serif" font-size="10.00">thermo.h</text>
</a>
</g>
</g>
<!-- Node4&#45;&gt;Node13 -->
<g id="edge16" class="edge">
<title>Node4&#45;&gt;Node13</title>
<path fill="none" stroke="#63b8ff" d="M415.3,-213.04C404.83,-203.64 391.85,-191.98 383.15,-184.17"/>
<polygon fill="#63b8ff" stroke="#63b8ff" points="413.24,-215.91 423.02,-219.98 417.92,-210.7 413.24,-215.91"/>
</g>
<!-- Node15 -->
<g id="node15" class="node">
<title>Node15</title>
<g id="a_node15"><a xlink:href="winds_8cpp.html" target="_top" xlink:title="Routines used to compute kinematic attributes and indices of vertical sounding profiles.">
<polygon fill="white" stroke="#666666" points="619,-129 554,-129 554,-110 619,-110 619,-129"/>
<text text-anchor="middle" x="586.5" y="-117" font-family="Helvetica,sans-Serif" font-size="10.00">winds.cpp</text>
</a>
</g>
</g>
<!-- Node4&#45;&gt;Node15 -->
<g id="edge23" class="edge">
<title>Node4&#45;&gt;Node15</title>
<path fill="none" stroke="#63b8ff" d="M467.57,-219.2C489.77,-212.1 518.2,-200.66 539.5,-184 559.38,-168.45 574.96,-142.45 582.15,-129.05"/>
<polygon fill="#63b8ff" stroke="#63b8ff" points="466.4,-215.89 457.85,-222.16 468.44,-222.59 466.4,-215.89"/>
</g>
<!-- Node16 -->
<g id="node16" class="node">
<title>Node16</title>
<g id="a_node16"><a xlink:href="winds_8h.html" target="_top" xlink:title="Routines used to compute kinematic attributes and indices of vertical sounding profiles.">
<polygon fill="white" stroke="#666666" points="674.5,-184 620.5,-184 620.5,-165 674.5,-165 674.5,-184"/>
<text text-anchor="middle" x="647.5" y="-172" font-family="Helvetica,sans-Serif" font-size="10.00">winds.h</text>
</a>
</g>
</g>
<!-- Node4&#45;&gt;Node16 -->
<g id="edge24" class="edge">
<title>Node4&#45;&gt;Node16</title>
<path fill="none" stroke="#63b8ff" d="M467.52,-219.87C510.2,-209.35 581.39,-191.8 620.21,-182.23"/>
<polygon fill="#63b8ff" stroke="#63b8ff" points="466.46,-216.52 457.58,-222.32 468.13,-223.32 466.46,-216.52"/>
</g>
<!-- Node7 -->
<g id="node7" class="node">
<title>Node7</title>
<g id="a_node7"><a xlink:href="convective__wrap_8cpp.html" target="_top" xlink:title=" ">
<polygon fill="white" stroke="#666666" points="585,-19 466,-19 466,0 585,0 585,-19"/>
<text text-anchor="middle" x="525.5" y="-7" font-family="Helvetica,sans-Serif" font-size="10.00">convective_wrap.cpp</text>
</a>
</g>
</g>
<!-- Node6&#45;&gt;Node7 -->
<g id="edge6" class="edge">
<title>Node6&#45;&gt;Node7</title>
<path fill="none" stroke="#63b8ff" d="M525.5,-44.66C525.5,-35.93 525.5,-25.99 525.5,-19.09"/>
<polygon fill="#63b8ff" stroke="#63b8ff" points="522,-44.75 525.5,-54.75 529,-44.75 522,-44.75"/>
</g>
<!-- Node10&#45;&gt;Node5 -->
<g id="edge11" class="edge">
<title>Node10&#45;&gt;Node5</title>
<path fill="none" stroke="#63b8ff" d="M469.4,-109.57C511.48,-99.66 578.89,-83.78 620.28,-74.03"/>
<polygon fill="#63b8ff" stroke="#63b8ff" points="468.47,-106.2 459.54,-111.89 470.08,-113.01 468.47,-106.2"/>
</g>
<!-- Node10&#45;&gt;Node6 -->
<g id="edge12" class="edge">
<title>Node10&#45;&gt;Node6</title>
<path fill="none" stroke="#63b8ff" d="M455.5,-104.97C472.69,-95.28 495.31,-82.52 510.12,-74.17"/>
<polygon fill="#63b8ff" stroke="#63b8ff" points="453.59,-102.02 446.6,-109.98 457.03,-108.12 453.59,-102.02"/>
</g>
<!-- Node10&#45;&gt;Node9 -->
<g id="edge13" class="edge">
<title>Node10&#45;&gt;Node9</title>
<path fill="none" stroke="#63b8ff" d="M393.34,-109.05C353,-99.06 289.96,-83.45 251.33,-73.88"/>
<polygon fill="#63b8ff" stroke="#63b8ff" points="392.53,-112.46 403.08,-111.46 394.22,-105.66 392.53,-112.46"/>
</g>
<!-- Node11 -->
<g id="node11" class="node">
<title>Node11</title>
<g id="a_node11"><a xlink:href="parcel__wrap_8cpp.html" target="_top" xlink:title=" ">
<polygon fill="white" stroke="#666666" points="467.5,-74 371.5,-74 371.5,-55 467.5,-55 467.5,-74"/>
<text text-anchor="middle" x="419.5" y="-62" font-family="Helvetica,sans-Serif" font-size="10.00">parcel_wrap.cpp</text>
</a>
</g>
</g>
<!-- Node10&#45;&gt;Node11 -->
<g id="edge14" class="edge">
<title>Node10&#45;&gt;Node11</title>
<path fill="none" stroke="#63b8ff" d="M427.3,-99.95C425.31,-91.15 423.02,-81.06 421.44,-74.09"/>
<polygon fill="#63b8ff" stroke="#63b8ff" points="423.9,-100.77 429.52,-109.75 430.72,-99.22 423.9,-100.77"/>
</g>
<!-- Node13&#45;&gt;Node5 -->
<g id="edge17" class="edge">
<title>Node13&#45;&gt;Node5</title>
<path fill="none" stroke="#63b8ff" d="M405.58,-161.26C463.5,-139.15 584.16,-93.11 634.1,-74.05"/>
<polygon fill="#63b8ff" stroke="#63b8ff" points="404.28,-158.01 396.18,-164.84 406.77,-164.55 404.28,-158.01"/>
</g>
<!-- Node13&#45;&gt;Node6 -->
<g id="edge18" class="edge">
<title>Node13&#45;&gt;Node6</title>
<path fill="none" stroke="#63b8ff" d="M375.22,-154.83C377.47,-140.79 382.63,-121.97 394.5,-110 407.91,-96.49 454.93,-82.65 488.8,-74.07"/>
<polygon fill="#63b8ff" stroke="#63b8ff" points="371.74,-154.5 373.98,-164.86 378.69,-155.36 371.74,-154.5"/>
</g>
<!-- Node13&#45;&gt;Node9 -->
<g id="edge19" class="edge">
<title>Node13&#45;&gt;Node9</title>
<path fill="none" stroke="#63b8ff" d="M332.52,-170.24C302.13,-165.69 261.75,-154.84 236.5,-129 221.7,-113.85 218.36,-87.68 217.65,-74.15"/>
<polygon fill="#63b8ff" stroke="#63b8ff" points="332.44,-173.76 342.82,-171.6 333.36,-166.82 332.44,-173.76"/>
</g>
<!-- Node13&#45;&gt;Node10 -->
<g id="edge20" class="edge">
<title>Node13&#45;&gt;Node10</title>
<path fill="none" stroke="#63b8ff" d="M390.41,-158.04C400.7,-148.64 413.47,-136.98 422.01,-129.17"/>
<polygon fill="#63b8ff" stroke="#63b8ff" points="387.84,-155.66 382.82,-164.98 392.56,-160.82 387.84,-155.66"/>
</g>
<!-- Node13&#45;&gt;Node12 -->
<g id="edge21" class="edge">
<title>Node13&#45;&gt;Node12</title>
<path fill="none" stroke="#63b8ff" d="M333.18,-163.79C291.89,-153.84 228.34,-138.53 188.92,-129.03"/>
<polygon fill="#63b8ff" stroke="#63b8ff" points="332.37,-167.19 342.91,-166.13 334.01,-160.39 332.37,-167.19"/>
</g>
<!-- Node14 -->
<g id="node14" class="node">
<title>Node14</title>
<g id="a_node14"><a xlink:href="thermo__wrap_8cpp.html" target="_top" xlink:title=" ">
<polygon fill="white" stroke="#666666" points="347,-129 246,-129 246,-110 347,-110 347,-129"/>
<text text-anchor="middle" x="296.5" y="-117" font-family="Helvetica,sans-Serif" font-size="10.00">thermo_wrap.cpp</text>
</a>
</g>
</g>
<!-- Node13&#45;&gt;Node14 -->
<g id="edge22" class="edge">
<title>Node13&#45;&gt;Node14</title>
<path fill="none" stroke="#63b8ff" d="M352.65,-159.15C338.74,-149.57 320.89,-137.29 309.1,-129.17"/>
<polygon fill="#63b8ff" stroke="#63b8ff" points="350.91,-162.2 361.13,-164.98 354.88,-156.43 350.91,-162.2"/>
</g>
<!-- Node16&#45;&gt;Node5 -->
<g id="edge25" class="edge">
<title>Node16&#45;&gt;Node5</title>
<path fill="none" stroke="#63b8ff" d="M654.65,-155.18C657.37,-147.26 660.15,-137.81 661.5,-129 664.49,-109.54 660.9,-86.44 658.44,-74.17"/>
<polygon fill="#63b8ff" stroke="#63b8ff" points="651.27,-154.23 651.1,-164.82 657.84,-156.65 651.27,-154.23"/>
</g>
<!-- Node16&#45;&gt;Node6 -->
<g id="edge26" class="edge">
<title>Node16&#45;&gt;Node6</title>
<path fill="none" stroke="#63b8ff" d="M646.02,-154.26C644.03,-140.46 639.37,-122.23 628.5,-110 612.06,-91.51 586.58,-80.42 565.08,-73.93"/>
<polygon fill="#63b8ff" stroke="#63b8ff" points="642.58,-155.01 647.14,-164.57 649.54,-154.25 642.58,-155.01"/>
</g>
<!-- Node16&#45;&gt;Node15 -->
<g id="edge27" class="edge">
<title>Node16&#45;&gt;Node15</title>
<path fill="none" stroke="#63b8ff" d="M630.03,-158.32C619.16,-148.87 605.56,-137.06 596.48,-129.17"/>
<polygon fill="#63b8ff" stroke="#63b8ff" points="627.85,-161.07 637.7,-164.98 632.45,-155.78 627.85,-161.07"/>
</g>
<!-- Node17 -->
<g id="node17" class="node">
<title>Node17</title>
<g id="a_node17"><a xlink:href="winds__wrap_8cpp.html" target="_top" xlink:title=" ">
<polygon fill="white" stroke="#666666" points="809,-129 714,-129 714,-110 809,-110 809,-129"/>
<text text-anchor="middle" x="761.5" y="-117" font-family="Helvetica,sans-Serif" font-size="10.00">winds_wrap.cpp</text>
</a>
</g>
</g>
<!-- Node16&#45;&gt;Node17 -->
<g id="edge28" class="edge">
<title>Node16&#45;&gt;Node17</title>
<path fill="none" stroke="#63b8ff" d="M674.89,-160.77C695.92,-150.99 724.39,-137.75 742.85,-129.17"/>
<polygon fill="#63b8ff" stroke="#63b8ff" points="673.41,-157.6 665.82,-164.98 676.36,-163.94 673.41,-157.6"/>
</g>
</g>
</svg>
