<?xml version="1.0" encoding="UTF-8" standalone="no"?>
<!DOCTYPE svg PUBLIC "-//W3C//DTD SVG 1.1//EN"
 "http://www.w3.org/Graphics/SVG/1.1/DTD/svg11.dtd">
<!-- Generated by graphviz version 2.43.0 (0)
 -->
<!-- Title: constants.h Pages: 1 -->
<svg width="1214pt" height="357pt"
 viewBox="0.00 0.00 1214.00 357.00" xmlns="http://www.w3.org/2000/svg" xmlns:xlink="http://www.w3.org/1999/xlink">
<g id="graph0" class="graph" transform="scale(1 1) rotate(0) translate(4 353)">
<title>constants.h</title>
<!-- Node1 -->
<g id="node1" class="node">
<title>Node1</title>
<g id="a_node1"><a xlink:title="Meteorological constants useful for computations with vertical atmospheric sounding profiles.">
<polygon fill="#999999" stroke="#666666" points="702.5,-349 629.5,-349 629.5,-330 702.5,-330 702.5,-349"/>
<text text-anchor="middle" x="666" y="-337" font-family="Helvetica,sans-Serif" font-size="10.00">constants.h</text>
</a>
</g>
</g>
<!-- Node2 -->
<g id="node2" class="node">
<title>Node2</title>
<g id="a_node2"><a xlink:href="convective_8cpp.html" target="_top" xlink:title="Routines used to computed derived sounding parameters from vertical atmospheric profiles.">
<polygon fill="white" stroke="#666666" points="483,-74 393,-74 393,-55 483,-55 483,-74"/>
<text text-anchor="middle" x="438" y="-62" font-family="Helvetica,sans-Serif" font-size="10.00">convective.cpp</text>
</a>
</g>
</g>
<!-- Node1&#45;&gt;Node2 -->
<g id="edge1" class="edge">
<title>Node1&#45;&gt;Node2</title>
<path fill="none" stroke="#63b8ff" d="M619.12,-334.87C479.48,-323.43 76,-285.61 76,-230.5 76,-230.5 76,-230.5 76,-173.5 76,-144.04 72.53,-129.05 95,-110 143.35,-69 315.17,-82.45 378,-74 382.8,-73.36 387.81,-72.67 392.8,-71.97"/>
<polygon fill="#63b8ff" stroke="#63b8ff" points="618.84,-338.36 629.09,-335.68 619.41,-331.38 618.84,-338.36"/>
</g>
<!-- Node3 -->
<g id="node3" class="node">
<title>Node3</title>
<g id="a_node3"><a xlink:href="convective_8h.html" target="_top" xlink:title="Routines used to computed derived sounding parameters from vertical atmospheric profiles.">
<polygon fill="white" stroke="#666666" points="369.5,-74 290.5,-74 290.5,-55 369.5,-55 369.5,-74"/>
<text text-anchor="middle" x="330" y="-62" font-family="Helvetica,sans-Serif" font-size="10.00">convective.h</text>
</a>
</g>
</g>
<!-- Node1&#45;&gt;Node3 -->
<g id="edge2" class="edge">
<title>Node1&#45;&gt;Node3</title>
<path fill="none" stroke="#63b8ff" d="M619.33,-336.42C512.85,-331.33 254.75,-316.96 171,-294 107.83,-276.68 38,-296 38,-230.5 38,-230.5 38,-230.5 38,-173.5 38,-140.61 48.9,-128.64 76,-110 110.17,-86.5 227.89,-73.71 290.35,-68.43"/>
<polygon fill="#63b8ff" stroke="#63b8ff" points="619.29,-339.92 629.45,-336.9 619.62,-332.93 619.29,-339.92"/>
</g>
<!-- Node4 -->
<g id="node4" class="node">
<title>Node4</title>
<g id="a_node4"><a xlink:href="convective__wrap_8cpp.html" target="_top" xlink:title=" ">
<polygon fill="white" stroke="#666666" points="226.5,-19 107.5,-19 107.5,0 226.5,0 226.5,-19"/>
<text text-anchor="middle" x="167" y="-7" font-family="Helvetica,sans-Serif" font-size="10.00">convective_wrap.cpp</text>
</a>
</g>
</g>
<!-- Node1&#45;&gt;Node4 -->
<g id="edge4" class="edge">
<title>Node1&#45;&gt;Node4</title>
<path fill="none" stroke="#63b8ff" d="M618.92,-336.97C485.44,-332.37 111,-317.5 61,-294 25.58,-277.35 0,-269.63 0,-230.5 0,-230.5 0,-230.5 0,-118.5 0,-59.8 73.64,-31.44 123.12,-19"/>
<polygon fill="#63b8ff" stroke="#63b8ff" points="619.11,-340.48 629.22,-337.32 619.35,-333.48 619.11,-340.48"/>
</g>
<!-- Node5 -->
<g id="node5" class="node">
<title>Node5</title>
<g id="a_node5"><a xlink:href="interp_8cpp.html" target="_top" xlink:title="Routines for linear interpolation of vertical atmospheric profiles.">
<polygon fill="white" stroke="#666666" points="949.5,-239 884.5,-239 884.5,-220 949.5,-220 949.5,-239"/>
<text text-anchor="middle" x="917" y="-227" font-family="Helvetica,sans-Serif" font-size="10.00">interp.cpp</text>
</a>
</g>
</g>
<!-- Node1&#45;&gt;Node5 -->
<g id="edge5" class="edge">
<title>Node1&#45;&gt;Node5</title>
<path fill="none" stroke="#63b8ff" d="M695.41,-325.84C747.15,-303.58 853.11,-257.99 897.14,-239.05"/>
<polygon fill="#63b8ff" stroke="#63b8ff" points="693.92,-322.68 686.12,-329.84 696.69,-329.11 693.92,-322.68"/>
</g>
<!-- Node6 -->
<g id="node6" class="node">
<title>Node6</title>
<g id="a_node6"><a xlink:href="interp_8h.html" target="_top" xlink:title="Routines for linear interpolation of vertical atmospheric profiles.">
<polygon fill="white" stroke="#666666" points="693,-294 639,-294 639,-275 693,-275 693,-294"/>
<text text-anchor="middle" x="666" y="-282" font-family="Helvetica,sans-Serif" font-size="10.00">interp.h</text>
</a>
</g>
</g>
<!-- Node1&#45;&gt;Node6 -->
<g id="edge6" class="edge">
<title>Node1&#45;&gt;Node6</title>
<path fill="none" stroke="#63b8ff" d="M666,-319.66C666,-310.93 666,-300.99 666,-294.09"/>
<polygon fill="#63b8ff" stroke="#63b8ff" points="662.5,-319.75 666,-329.75 669.5,-319.75 662.5,-319.75"/>
</g>
<!-- Node8 -->
<g id="node8" class="node">
<title>Node8</title>
<g id="a_node8"><a xlink:href="layer_8cpp.html" target="_top" xlink:title="Utilities and structures useful for grouping objects, conducting QC, and things that otherwise don&#39;t ...">
<polygon fill="white" stroke="#666666" points="936.5,-184 875.5,-184 875.5,-165 936.5,-165 936.5,-184"/>
<text text-anchor="middle" x="906" y="-172" font-family="Helvetica,sans-Serif" font-size="10.00">layer.cpp</text>
</a>
</g>
</g>
<!-- Node1&#45;&gt;Node8 -->
<g id="edge41" class="edge">
<title>Node1&#45;&gt;Node8</title>
<path fill="none" stroke="#63b8ff" d="M712.91,-335.47C783.58,-330.2 913.32,-317.58 953,-294 985.51,-274.68 1014.88,-252.17 995,-220 982.38,-199.57 957.22,-188.21 936.87,-182.09"/>
<polygon fill="#63b8ff" stroke="#63b8ff" points="712.23,-332.01 702.51,-336.22 712.74,-338.99 712.23,-332.01"/>
</g>
<!-- Node9 -->
<g id="node9" class="node">
<title>Node9</title>
<g id="a_node9"><a xlink:href="layer_8h.html" target="_top" xlink:title="Data structures and functions for performing operations over atmospheric layers.">
<polygon fill="white" stroke="#666666" points="562,-239 512,-239 512,-220 562,-220 562,-239"/>
<text text-anchor="middle" x="537" y="-227" font-family="Helvetica,sans-Serif" font-size="10.00">layer.h</text>
</a>
</g>
</g>
<!-- Node1&#45;&gt;Node9 -->
<g id="edge42" class="edge">
<title>Node1&#45;&gt;Node9</title>
<path fill="none" stroke="#63b8ff" d="M647.73,-323.21C620.25,-300.2 569.18,-257.44 547.34,-239.16"/>
<polygon fill="#63b8ff" stroke="#63b8ff" points="645.53,-325.93 655.44,-329.66 650.02,-320.56 645.53,-325.93"/>
</g>
<!-- Node10 -->
<g id="node10" class="node">
<title>Node10</title>
<g id="a_node10"><a xlink:href="layer__wrap_8cpp.html" target="_top" xlink:title=" ">
<polygon fill="white" stroke="#666666" points="857.5,-184 766.5,-184 766.5,-165 857.5,-165 857.5,-184"/>
<text text-anchor="middle" x="812" y="-172" font-family="Helvetica,sans-Serif" font-size="10.00">layer_wrap.cpp</text>
</a>
</g>
</g>
<!-- Node1&#45;&gt;Node10 -->
<g id="edge43" class="edge">
<title>Node1&#45;&gt;Node10</title>
<path fill="none" stroke="#63b8ff" d="M713.04,-338.67C766.87,-337.04 856.31,-328.69 924,-294 955.05,-278.09 966.5,-271.17 980,-239 983.27,-231.21 985.15,-226.69 980,-220 972.25,-209.93 901.92,-193.84 854.75,-184.01"/>
<polygon fill="#63b8ff" stroke="#63b8ff" points="712.68,-335.17 702.77,-338.91 712.85,-342.17 712.68,-335.17"/>
</g>
<!-- Node11 -->
<g id="node11" class="node">
<title>Node11</title>
<g id="a_node11"><a xlink:href="parcel_8cpp.html" target="_top" xlink:title="Routines used for parcel lifting and integration.">
<polygon fill="white" stroke="#666666" points="697.5,-74 630.5,-74 630.5,-55 697.5,-55 697.5,-74"/>
<text text-anchor="middle" x="664" y="-62" font-family="Helvetica,sans-Serif" font-size="10.00">parcel.cpp</text>
</a>
</g>
</g>
<!-- Node1&#45;&gt;Node11 -->
<g id="edge44" class="edge">
<title>Node1&#45;&gt;Node11</title>
<path fill="none" stroke="#63b8ff" d="M712.87,-338.3C837.57,-336.53 1168,-323.08 1168,-230.5 1168,-230.5 1168,-230.5 1168,-173.5 1168,-141.69 1161.38,-127.77 1135,-110 1098.9,-85.68 799.58,-71.12 697.76,-66.84"/>
<polygon fill="#63b8ff" stroke="#63b8ff" points="712.46,-334.81 702.51,-338.43 712.55,-341.81 712.46,-334.81"/>
</g>
<!-- Node12 -->
<g id="node12" class="node">
<title>Node12</title>
<g id="a_node12"><a xlink:href="parcel_8h.html" target="_top" xlink:title="Routines used for parcel lifting and integration.">
<polygon fill="white" stroke="#666666" points="560,-129 504,-129 504,-110 560,-110 560,-129"/>
<text text-anchor="middle" x="532" y="-117" font-family="Helvetica,sans-Serif" font-size="10.00">parcel.h</text>
</a>
</g>
</g>
<!-- Node1&#45;&gt;Node12 -->
<g id="edge45" class="edge">
<title>Node1&#45;&gt;Node12</title>
<path fill="none" stroke="#63b8ff" d="M625.52,-326.72C586.16,-312.85 528.66,-285.58 503,-239 482.36,-201.53 512.35,-149.41 525.92,-129.09"/>
<polygon fill="#63b8ff" stroke="#63b8ff" points="624.52,-330.08 635.11,-329.97 626.76,-323.45 624.52,-330.08"/>
</g>
<!-- Node13 -->
<g id="node13" class="node">
<title>Node13</title>
<g id="a_node13"><a xlink:href="parcel__wrap_8cpp.html" target="_top" xlink:title=" ">
<polygon fill="white" stroke="#666666" points="1033,-74 937,-74 937,-55 1033,-55 1033,-74"/>
<text text-anchor="middle" x="985" y="-62" font-family="Helvetica,sans-Serif" font-size="10.00">parcel_wrap.cpp</text>
</a>
</g>
</g>
<!-- Node1&#45;&gt;Node13 -->
<g id="edge46" class="edge">
<title>Node1&#45;&gt;Node13</title>
<path fill="none" stroke="#63b8ff" d="M712.84,-339.02C844.1,-339.22 1206,-330.68 1206,-230.5 1206,-230.5 1206,-230.5 1206,-173.5 1206,-97.17 1098.25,-74.78 1033.23,-68.22"/>
<polygon fill="#63b8ff" stroke="#63b8ff" points="712.7,-335.52 702.69,-338.98 712.68,-342.52 712.7,-335.52"/>
</g>
<!-- Node14 -->
<g id="node14" class="node">
<title>Node14</title>
<g id="a_node14"><a xlink:href="thermo_8cpp.html" target="_top" xlink:title="Thermodynamic routines that do not directly involve parcel based ascent.">
<polygon fill="white" stroke="#666666" points="296,-129 224,-129 224,-110 296,-110 296,-129"/>
<text text-anchor="middle" x="260" y="-117" font-family="Helvetica,sans-Serif" font-size="10.00">thermo.cpp</text>
</a>
</g>
</g>
<!-- Node1&#45;&gt;Node14 -->
<g id="edge47" class="edge">
<title>Node1&#45;&gt;Node14</title>
<path fill="none" stroke="#63b8ff" d="M618.84,-337.26C565.19,-334.33 475.96,-324.76 406,-294 332.92,-261.86 301.38,-254.54 264,-184 254.69,-166.43 256.49,-142.18 258.39,-129.32"/>
<polygon fill="#63b8ff" stroke="#63b8ff" points="618.92,-340.77 629.08,-337.76 619.26,-333.78 618.92,-340.77"/>
</g>
<!-- Node15 -->
<g id="node15" class="node">
<title>Node15</title>
<g id="a_node15"><a xlink:href="thermo_8h.html" target="_top" xlink:title="Routines used to compute thermodynamic attributes of vertical sounding profiles.">
<polygon fill="white" stroke="#666666" points="371.5,-184 310.5,-184 310.5,-165 371.5,-165 371.5,-184"/>
<text text-anchor="middle" x="341" y="-172" font-family="Helvetica,sans-Serif" font-size="10.00">thermo.h</text>
</a>
</g>
</g>
<!-- Node1&#45;&gt;Node15 -->
<g id="edge48" class="edge">
<title>Node1&#45;&gt;Node15</title>
<path fill="none" stroke="#63b8ff" d="M619.29,-339.16C569.39,-337.81 489.69,-329.53 432,-294 386.5,-265.98 355.3,-206.32 344.85,-184.09"/>
<polygon fill="#63b8ff" stroke="#63b8ff" points="619.41,-342.67 629.47,-339.35 619.54,-335.67 619.41,-342.67"/>
</g>
<!-- Node16 -->
<g id="node16" class="node">
<title>Node16</title>
<g id="a_node16"><a xlink:href="thermo__wrap_8cpp.html" target="_top" xlink:title=" ">
<polygon fill="white" stroke="#666666" points="205.5,-129 104.5,-129 104.5,-110 205.5,-110 205.5,-129"/>
<text text-anchor="middle" x="155" y="-117" font-family="Helvetica,sans-Serif" font-size="10.00">thermo_wrap.cpp</text>
</a>
</g>
</g>
<!-- Node1&#45;&gt;Node16 -->
<g id="edge49" class="edge">
<title>Node1&#45;&gt;Node16</title>
<path fill="none" stroke="#63b8ff" d="M618.82,-338.66C556.91,-337.33 445.94,-329.57 359,-294 266.05,-255.97 184.72,-158.6 161.58,-129.1"/>
<polygon fill="#63b8ff" stroke="#63b8ff" points="619,-342.16 629.05,-338.83 619.11,-335.16 619,-342.16"/>
</g>
<!-- Node17 -->
<g id="node17" class="node">
<title>Node17</title>
<g id="a_node17"><a xlink:href="winds_8cpp.html" target="_top" xlink:title="Routines used to compute kinematic attributes and indices of vertical sounding profiles.">
<polygon fill="white" stroke="#666666" points="896.5,-129 831.5,-129 831.5,-110 896.5,-110 896.5,-129"/>
<text text-anchor="middle" x="864" y="-117" font-family="Helvetica,sans-Serif" font-size="10.00">winds.cpp</text>
</a>
</g>
</g>
<!-- Node1&#45;&gt;Node17 -->
<g id="edge50" class="edge">
<title>Node1&#45;&gt;Node17</title>
<path fill="none" stroke="#63b8ff" d="M712.88,-336.81C789.5,-333.23 937.3,-322.73 980,-294 1009.73,-274 1025.09,-253.36 1012,-220 992.27,-169.7 930.67,-141.74 893.45,-129.04"/>
<polygon fill="#63b8ff" stroke="#63b8ff" points="712.4,-333.32 702.56,-337.26 712.71,-340.32 712.4,-333.32"/>
</g>
<!-- Node18 -->
<g id="node18" class="node">
<title>Node18</title>
<g id="a_node18"><a xlink:href="winds_8h.html" target="_top" xlink:title="Routines used to compute kinematic attributes and indices of vertical sounding profiles.">
<polygon fill="white" stroke="#666666" points="748,-184 694,-184 694,-165 748,-165 748,-184"/>
<text text-anchor="middle" x="721" y="-172" font-family="Helvetica,sans-Serif" font-size="10.00">winds.h</text>
</a>
</g>
</g>
<!-- Node1&#45;&gt;Node18 -->
<g id="edge51" class="edge">
<title>Node1&#45;&gt;Node18</title>
<path fill="none" stroke="#63b8ff" d="M713.01,-338.32C780.59,-335.19 903.19,-318.2 959,-239 994.96,-187.98 1006.28,-234.72 758,-184 754.77,-183.34 751.39,-182.61 748.04,-181.87"/>
<polygon fill="#63b8ff" stroke="#63b8ff" points="712.52,-334.83 702.66,-338.71 712.78,-341.83 712.52,-334.83"/>
</g>
<!-- Node19 -->
<g id="node19" class="node">
<title>Node19</title>
<g id="a_node19"><a xlink:href="winds__wrap_8cpp.html" target="_top" xlink:title=" ">
<polygon fill="white" stroke="#666666" points="1125.5,-129 1030.5,-129 1030.5,-110 1125.5,-110 1125.5,-129"/>
<text text-anchor="middle" x="1078" y="-117" font-family="Helvetica,sans-Serif" font-size="10.00">winds_wrap.cpp</text>
</a>
</g>
</g>
<!-- Node1&#45;&gt;Node19 -->
<g id="edge52" class="edge">
<title>Node1&#45;&gt;Node19</title>
<path fill="none" stroke="#63b8ff" d="M712.57,-337.98C794.52,-336.17 960.08,-328.26 1005,-294 1060.87,-251.39 1074.38,-157.98 1077.28,-129.15"/>
<polygon fill="#63b8ff" stroke="#63b8ff" points="712.46,-334.48 702.53,-338.18 712.6,-341.48 712.46,-334.48"/>
</g>
<!-- Node3&#45;&gt;Node4 -->
<g id="edge3" class="edge">
<title>Node3&#45;&gt;Node4</title>
<path fill="none" stroke="#63b8ff" d="M294.01,-51.8C263.59,-41.91 220.72,-27.97 193.39,-19.08"/>
<polygon fill="#63b8ff" stroke="#63b8ff" points="293.22,-55.22 303.81,-54.98 295.38,-48.56 293.22,-55.22"/>
</g>
<!-- Node6&#45;&gt;Node5 -->
<g id="edge7" class="edge">
<title>Node6&#45;&gt;Node5</title>
<path fill="none" stroke="#63b8ff" d="M703.21,-275.64C752.17,-265.3 837.47,-247.29 884.16,-237.44"/>
<polygon fill="#63b8ff" stroke="#63b8ff" points="702.4,-272.24 693.34,-277.73 703.85,-279.09 702.4,-272.24"/>
</g>
<!-- Node7 -->
<g id="node7" class="node">
<title>Node7</title>
<g id="a_node7"><a xlink:href="interp__wrap_8cpp.html" target="_top" xlink:title=" ">
<polygon fill="white" stroke="#666666" points="751.5,-239 656.5,-239 656.5,-220 751.5,-220 751.5,-239"/>
<text text-anchor="middle" x="704" y="-227" font-family="Helvetica,sans-Serif" font-size="10.00">interp_wrap.cpp</text>
</a>
</g>
</g>
<!-- Node6&#45;&gt;Node7 -->
<g id="edge8" class="edge">
<title>Node6&#45;&gt;Node7</title>
<path fill="none" stroke="#63b8ff" d="M678.27,-266.39C684.81,-257.27 692.57,-246.45 697.84,-239.09"/>
<polygon fill="#63b8ff" stroke="#63b8ff" points="675.26,-264.58 672.27,-274.75 680.95,-268.66 675.26,-264.58"/>
</g>
<!-- Node6&#45;&gt;Node8 -->
<g id="edge9" class="edge">
<title>Node6&#45;&gt;Node8</title>
<path fill="none" stroke="#63b8ff" d="M698.07,-271.21C720.15,-262.58 750.06,-250.57 776,-239 817.29,-220.59 864.79,-196.68 889.35,-184.1"/>
<polygon fill="#63b8ff" stroke="#63b8ff" points="696.58,-268.04 688.52,-274.92 699.11,-274.56 696.58,-268.04"/>
</g>
<!-- Node6&#45;&gt;Node9 -->
<g id="edge10" class="edge">
<title>Node6&#45;&gt;Node9</title>
<path fill="none" stroke="#63b8ff" d="M635.96,-271.16C612.08,-261.35 579.28,-247.87 558.1,-239.17"/>
<polygon fill="#63b8ff" stroke="#63b8ff" points="634.69,-274.42 645.27,-274.98 637.35,-267.95 634.69,-274.42"/>
</g>
<!-- Node6&#45;&gt;Node11 -->
<g id="edge35" class="edge">
<title>Node6&#45;&gt;Node11</title>
<path fill="none" stroke="#63b8ff" d="M656.57,-265.96C652.79,-257.97 648.89,-248.26 647,-239 634.26,-176.73 653.86,-99.87 661.32,-74.26"/>
<polygon fill="#63b8ff" stroke="#63b8ff" points="653.49,-267.63 661.12,-274.98 659.74,-264.47 653.49,-267.63"/>
</g>
<!-- Node6&#45;&gt;Node12 -->
<g id="edge36" class="edge">
<title>Node6&#45;&gt;Node12</title>
<path fill="none" stroke="#63b8ff" d="M646.12,-268.51C635.95,-260.35 623.7,-249.75 614,-239 580.14,-201.48 548.66,-149.39 536.89,-129.09"/>
<polygon fill="#63b8ff" stroke="#63b8ff" points="644.05,-271.33 654.08,-274.73 648.36,-265.81 644.05,-271.33"/>
</g>
<!-- Node6&#45;&gt;Node14 -->
<g id="edge37" class="edge">
<title>Node6&#45;&gt;Node14</title>
<path fill="none" stroke="#63b8ff" d="M628.82,-278.86C541.73,-267.23 328.16,-234.18 279,-184 264.18,-168.88 260.85,-142.69 260.15,-129.15"/>
<polygon fill="#63b8ff" stroke="#63b8ff" points="628.43,-282.33 638.8,-280.17 629.34,-275.39 628.43,-282.33"/>
</g>
<!-- Node6&#45;&gt;Node15 -->
<g id="edge38" class="edge">
<title>Node6&#45;&gt;Node15</title>
<path fill="none" stroke="#63b8ff" d="M629.16,-274.64C595.9,-266.36 545.77,-253.18 503,-239 450.81,-221.7 390.95,-196.91 360.7,-184.01"/>
<polygon fill="#63b8ff" stroke="#63b8ff" points="628.36,-278.05 638.91,-277.05 630.04,-271.25 628.36,-278.05"/>
</g>
<!-- Node6&#45;&gt;Node17 -->
<g id="edge39" class="edge">
<title>Node6&#45;&gt;Node17</title>
<path fill="none" stroke="#63b8ff" d="M702.83,-273.05C775.57,-252.04 931.86,-204.92 946,-184 962.89,-159.02 922.58,-139.54 892.68,-129.06"/>
<polygon fill="#63b8ff" stroke="#63b8ff" points="701.79,-269.71 693.15,-275.83 703.72,-276.43 701.79,-269.71"/>
</g>
<!-- Node6&#45;&gt;Node18 -->
<g id="edge40" class="edge">
<title>Node6&#45;&gt;Node18</title>
<path fill="none" stroke="#63b8ff" d="M703.27,-276.26C724.08,-270.1 748.32,-258.94 761,-239 773.44,-219.43 749.24,-196.37 733.34,-184.14"/>
<polygon fill="#63b8ff" stroke="#63b8ff" points="702.15,-272.93 693.39,-278.89 703.95,-279.7 702.15,-272.93"/>
</g>
<!-- Node9&#45;&gt;Node2 -->
<g id="edge11" class="edge">
<title>Node9&#45;&gt;Node2</title>
<path fill="none" stroke="#63b8ff" d="M526.48,-211.18C505.49,-176.62 459.1,-100.23 443.35,-74.31"/>
<polygon fill="#63b8ff" stroke="#63b8ff" points="523.49,-213.01 531.68,-219.74 529.48,-209.37 523.49,-213.01"/>
</g>
<!-- Node9&#45;&gt;Node3 -->
<g id="edge12" class="edge">
<title>Node9&#45;&gt;Node3</title>
<path fill="none" stroke="#63b8ff" d="M518.07,-213.59C475.73,-180.25 374.49,-100.53 340.98,-74.15"/>
<polygon fill="#63b8ff" stroke="#63b8ff" points="516.14,-216.53 526.16,-219.97 520.47,-211.03 516.14,-216.53"/>
</g>
<!-- Node9&#45;&gt;Node8 -->
<g id="edge13" class="edge">
<title>Node9&#45;&gt;Node8</title>
<path fill="none" stroke="#63b8ff" d="M572.54,-224.66C633.18,-217.89 760.39,-202.77 867,-184 869.73,-183.52 872.56,-182.98 875.39,-182.42"/>
<polygon fill="#63b8ff" stroke="#63b8ff" points="571.92,-221.21 562.36,-225.79 572.69,-228.16 571.92,-221.21"/>
</g>
<!-- Node9&#45;&gt;Node10 -->
<g id="edge14" class="edge">
<title>Node9&#45;&gt;Node10</title>
<path fill="none" stroke="#63b8ff" d="M572.38,-221.68C622.34,-212.05 713.48,-194.49 767.82,-184.02"/>
<polygon fill="#63b8ff" stroke="#63b8ff" points="571.54,-218.28 562.38,-223.61 572.86,-225.15 571.54,-218.28"/>
</g>
<!-- Node9&#45;&gt;Node11 -->
<g id="edge15" class="edge">
<title>Node9&#45;&gt;Node11</title>
<path fill="none" stroke="#63b8ff" d="M550.15,-211.62C576.91,-177.28 636.85,-100.34 657.14,-74.31"/>
<polygon fill="#63b8ff" stroke="#63b8ff" points="547.21,-209.7 543.83,-219.74 552.74,-214 547.21,-209.7"/>
</g>
<!-- Node9&#45;&gt;Node12 -->
<g id="edge16" class="edge">
<title>Node9&#45;&gt;Node12</title>
<path fill="none" stroke="#63b8ff" d="M536.12,-209.48C535.03,-185.84 533.2,-146.5 532.4,-129.16"/>
<polygon fill="#63b8ff" stroke="#63b8ff" points="532.63,-209.83 536.59,-219.66 539.62,-209.51 532.63,-209.83"/>
</g>
<!-- Node9&#45;&gt;Node14 -->
<g id="edge21" class="edge">
<title>Node9&#45;&gt;Node14</title>
<path fill="none" stroke="#63b8ff" d="M501.74,-225.27C444.21,-219.45 333.33,-205.74 301,-184 280.74,-170.38 268.28,-143.03 262.98,-129.09"/>
<polygon fill="#63b8ff" stroke="#63b8ff" points="501.53,-228.77 511.83,-226.27 502.22,-221.8 501.53,-228.77"/>
</g>
<!-- Node9&#45;&gt;Node15 -->
<g id="edge22" class="edge">
<title>Node9&#45;&gt;Node15</title>
<path fill="none" stroke="#63b8ff" d="M501.9,-219.01C464.81,-208.98 406.89,-193.32 371.6,-183.77"/>
<polygon fill="#63b8ff" stroke="#63b8ff" points="501.21,-222.45 511.78,-221.68 503.04,-215.69 501.21,-222.45"/>
</g>
<!-- Node9&#45;&gt;Node17 -->
<g id="edge29" class="edge">
<title>Node9&#45;&gt;Node17</title>
<path fill="none" stroke="#63b8ff" d="M563.54,-215.56C592.78,-201.68 641.43,-179.66 685,-165 735.08,-148.15 794.96,-134.54 831.21,-126.99"/>
<polygon fill="#63b8ff" stroke="#63b8ff" points="561.92,-212.46 554.41,-219.93 564.94,-218.77 561.92,-212.46"/>
</g>
<!-- Node9&#45;&gt;Node18 -->
<g id="edge30" class="edge">
<title>Node9&#45;&gt;Node18</title>
<path fill="none" stroke="#63b8ff" d="M572.1,-218.39C607.5,-208.19 661.4,-192.67 693.71,-183.36"/>
<polygon fill="#63b8ff" stroke="#63b8ff" points="570.84,-215.11 562.2,-221.24 572.78,-221.84 570.84,-215.11"/>
</g>
<!-- Node12&#45;&gt;Node2 -->
<g id="edge17" class="edge">
<title>Node12&#45;&gt;Node2</title>
<path fill="none" stroke="#63b8ff" d="M508,-104.97C490.81,-95.28 468.19,-82.52 453.38,-74.17"/>
<polygon fill="#63b8ff" stroke="#63b8ff" points="506.47,-108.12 516.9,-109.98 509.91,-102.02 506.47,-108.12"/>
</g>
<!-- Node12&#45;&gt;Node3 -->
<g id="edge18" class="edge">
<title>Node12&#45;&gt;Node3</title>
<path fill="none" stroke="#63b8ff" d="M493.77,-108.47C455.83,-98.52 398.33,-83.43 362.52,-74.03"/>
<polygon fill="#63b8ff" stroke="#63b8ff" points="493.35,-111.98 503.91,-111.13 495.13,-105.21 493.35,-111.98"/>
</g>
<!-- Node12&#45;&gt;Node11 -->
<g id="edge19" class="edge">
<title>Node12&#45;&gt;Node11</title>
<path fill="none" stroke="#63b8ff" d="M562.73,-106.16C587.17,-96.35 620.74,-82.87 642.41,-74.17"/>
<polygon fill="#63b8ff" stroke="#63b8ff" points="561.18,-103.01 553.21,-109.98 563.79,-109.51 561.18,-103.01"/>
</g>
<!-- Node12&#45;&gt;Node13 -->
<g id="edge20" class="edge">
<title>Node12&#45;&gt;Node13</title>
<path fill="none" stroke="#63b8ff" d="M570.52,-113.99C652.92,-104.35 846.17,-81.74 936.66,-71.16"/>
<polygon fill="#63b8ff" stroke="#63b8ff" points="569.86,-110.55 560.34,-115.18 570.68,-117.5 569.86,-110.55"/>
</g>
<!-- Node15&#45;&gt;Node2 -->
<g id="edge23" class="edge">
<title>Node15&#45;&gt;Node2</title>
<path fill="none" stroke="#63b8ff" d="M355.82,-157C376.72,-133.73 414.08,-92.13 430.22,-74.16"/>
<polygon fill="#63b8ff" stroke="#63b8ff" points="353.02,-154.88 348.94,-164.66 358.22,-159.56 353.02,-154.88"/>
</g>
<!-- Node15&#45;&gt;Node3 -->
<g id="edge24" class="edge">
<title>Node15&#45;&gt;Node3</title>
<path fill="none" stroke="#63b8ff" d="M339.06,-154.48C336.66,-130.84 332.65,-91.5 330.88,-74.16"/>
<polygon fill="#63b8ff" stroke="#63b8ff" points="335.6,-155.07 340.1,-164.66 342.57,-154.36 335.6,-155.07"/>
</g>
<!-- Node15&#45;&gt;Node11 -->
<g id="edge25" class="edge">
<title>Node15&#45;&gt;Node11</title>
<path fill="none" stroke="#63b8ff" d="M368.83,-160.7C399.35,-146.98 449.98,-125.13 495,-110 541.16,-94.48 595.87,-80.93 630.26,-72.98"/>
<polygon fill="#63b8ff" stroke="#63b8ff" points="367.32,-157.54 359.66,-164.85 370.21,-163.92 367.32,-157.54"/>
</g>
<!-- Node15&#45;&gt;Node12 -->
<g id="edge26" class="edge">
<title>Node15&#45;&gt;Node12</title>
<path fill="none" stroke="#63b8ff" d="M381.59,-162.24C418.37,-152.03 471.59,-137.26 503.88,-128.3"/>
<polygon fill="#63b8ff" stroke="#63b8ff" points="380.39,-158.94 371.69,-164.98 382.26,-165.68 380.39,-158.94"/>
</g>
<!-- Node15&#45;&gt;Node14 -->
<g id="edge27" class="edge">
<title>Node15&#45;&gt;Node14</title>
<path fill="none" stroke="#63b8ff" d="M319.49,-159.42C304.79,-149.81 285.78,-137.37 273.25,-129.17"/>
<polygon fill="#63b8ff" stroke="#63b8ff" points="317.7,-162.44 327.99,-164.98 321.53,-156.58 317.7,-162.44"/>
</g>
<!-- Node15&#45;&gt;Node16 -->
<g id="edge28" class="edge">
<title>Node15&#45;&gt;Node16</title>
<path fill="none" stroke="#63b8ff" d="M301.29,-162.18C266.5,-152.27 216.71,-138.08 185.12,-129.08"/>
<polygon fill="#63b8ff" stroke="#63b8ff" points="300.54,-165.61 311.12,-164.98 302.46,-158.88 300.54,-165.61"/>
</g>
<!-- Node18&#45;&gt;Node2 -->
<g id="edge31" class="edge">
<title>Node18&#45;&gt;Node2</title>
<path fill="none" stroke="#63b8ff" d="M698.41,-159.46C675,-145.39 637.01,-123.89 602,-110 561.55,-93.96 513.27,-81.63 479.61,-74.06"/>
<polygon fill="#63b8ff" stroke="#63b8ff" points="696.84,-162.6 707.21,-164.81 700.48,-156.62 696.84,-162.6"/>
</g>
<!-- Node18&#45;&gt;Node3 -->
<g id="edge32" class="edge">
<title>Node18&#45;&gt;Node3</title>
<path fill="none" stroke="#63b8ff" d="M684.76,-161.69C660.85,-153.48 629.06,-141.75 602,-129 586.69,-121.79 584.88,-115.85 569,-110 550.59,-103.21 432.76,-82.8 369.71,-72.14"/>
<polygon fill="#63b8ff" stroke="#63b8ff" points="683.9,-165.09 694.49,-164.99 686.14,-158.46 683.9,-165.09"/>
</g>
<!-- Node18&#45;&gt;Node17 -->
<g id="edge33" class="edge">
<title>Node18&#45;&gt;Node17</title>
<path fill="none" stroke="#63b8ff" d="M753.59,-161.42C780.12,-151.59 816.93,-137.95 840.61,-129.17"/>
<polygon fill="#63b8ff" stroke="#63b8ff" points="752.14,-158.23 743.98,-164.98 754.57,-164.79 752.14,-158.23"/>
</g>
<!-- Node18&#45;&gt;Node19 -->
<g id="edge34" class="edge">
<title>Node18&#45;&gt;Node19</title>
<path fill="none" stroke="#63b8ff" d="M757.7,-165.06C757.8,-165.04 757.9,-165.02 758,-165 854.12,-147.31 967.65,-133.09 1030.35,-125.8"/>
<polygon fill="#63b8ff" stroke="#63b8ff" points="757.13,-161.6 748.02,-167 758.52,-168.46 757.13,-161.6"/>
</g>
</g>
</svg>
