<?xml version="1.0" encoding="UTF-8" standalone="no"?>
<!DOCTYPE svg PUBLIC "-//W3C//DTD SVG 1.1//EN"
 "http://www.w3.org/Graphics/SVG/1.1/DTD/svg11.dtd">
<!-- Generated by graphviz version 2.43.0 (0)
 -->
<!-- Title: constants.h Pages: 1 -->
<svg width="848pt" height="302pt"
 viewBox="0.00 0.00 848.00 302.00" xmlns="http://www.w3.org/2000/svg" xmlns:xlink="http://www.w3.org/1999/xlink">
<g id="graph0" class="graph" transform="scale(1 1) rotate(0) translate(4 298)">
<title>constants.h</title>
<!-- Node1 -->
<g id="node1" class="node">
<title>Node1</title>
<g id="a_node1"><a xlink:title="Meteorological constants useful for computations with vertical atmospheric sounding profiles.">
<polygon fill="#999999" stroke="#666666" points="321.5,-294 248.5,-294 248.5,-275 321.5,-275 321.5,-294"/>
<text text-anchor="middle" x="285" y="-282" font-family="Helvetica,sans-Serif" font-size="10.00">constants.h</text>
</a>
</g>
</g>
<!-- Node2 -->
<g id="node2" class="node">
<title>Node2</title>
<g id="a_node2"><a xlink:href="convective_8cpp.html" target="_top" xlink:title="Routines used to computed derived sounding parameters from vertical atmospheric profiles.">
<polygon fill="white" stroke="#666666" points="529,-19 439,-19 439,0 529,0 529,-19"/>
<text text-anchor="middle" x="484" y="-7" font-family="Helvetica,sans-Serif" font-size="10.00">convective.cpp</text>
</a>
</g>
</g>
<!-- Node1&#45;&gt;Node2 -->
<g id="edge1" class="edge">
<title>Node1&#45;&gt;Node2</title>
<path fill="none" stroke="#63b8ff" d="M249.73,-271.47C186.69,-247.72 64.04,-190.09 95,-110 106.91,-79.19 115.69,-70.24 145,-55 257.88,3.7 303.01,-36.72 429,-19 432.25,-18.54 435.61,-18.06 438.99,-17.56"/>
<polygon fill="#63b8ff" stroke="#63b8ff" points="248.71,-274.82 259.3,-274.99 251.12,-268.25 248.71,-274.82"/>
</g>
<!-- Node3 -->
<g id="node3" class="node">
<title>Node3</title>
<g id="a_node3"><a xlink:href="convective_8h.html" target="_top" xlink:title="Routines used to computed derived sounding parameters from vertical atmospheric profiles.">
<polygon fill="white" stroke="#666666" points="420.5,-19 341.5,-19 341.5,0 420.5,0 420.5,-19"/>
<text text-anchor="middle" x="381" y="-7" font-family="Helvetica,sans-Serif" font-size="10.00">convective.h</text>
</a>
</g>
</g>
<!-- Node1&#45;&gt;Node3 -->
<g id="edge2" class="edge">
<title>Node1&#45;&gt;Node3</title>
<path fill="none" stroke="#63b8ff" d="M238.1,-278.92C177.84,-272.34 77.27,-258.78 46,-239 16.55,-220.37 0,-210.35 0,-175.5 0,-175.5 0,-175.5 0,-118.5 0,-48.12 243.72,-21.23 341.3,-13.29"/>
<polygon fill="#63b8ff" stroke="#63b8ff" points="237.82,-282.41 248.13,-280 238.56,-275.45 237.82,-282.41"/>
</g>
<!-- Node4 -->
<g id="node4" class="node">
<title>Node4</title>
<g id="a_node4"><a xlink:href="fire_8cpp.html" target="_top" xlink:title="Fire weather parameters.">
<polygon fill="white" stroke="#666666" points="119.5,-239 66.5,-239 66.5,-220 119.5,-220 119.5,-239"/>
<text text-anchor="middle" x="93" y="-227" font-family="Helvetica,sans-Serif" font-size="10.00">fire.cpp</text>
</a>
</g>
</g>
<!-- Node1&#45;&gt;Node4 -->
<g id="edge3" class="edge">
<title>Node1&#45;&gt;Node4</title>
<path fill="none" stroke="#63b8ff" d="M244.04,-272.19C206.5,-261.83 151.98,-246.78 119.75,-237.88"/>
<polygon fill="#63b8ff" stroke="#63b8ff" points="243.58,-275.7 254.15,-274.98 245.44,-268.95 243.58,-275.7"/>
</g>
<!-- Node5 -->
<g id="node5" class="node">
<title>Node5</title>
<g id="a_node5"><a xlink:href="interp_8cpp.html" target="_top" xlink:title="Routines for linear interpolation of vertical atmospheric profiles.">
<polygon fill="white" stroke="#666666" points="317.5,-184 252.5,-184 252.5,-165 317.5,-165 317.5,-184"/>
<text text-anchor="middle" x="285" y="-172" font-family="Helvetica,sans-Serif" font-size="10.00">interp.cpp</text>
</a>
</g>
</g>
<!-- Node1&#45;&gt;Node5 -->
<g id="edge4" class="edge">
<title>Node1&#45;&gt;Node5</title>
<path fill="none" stroke="#63b8ff" d="M285,-264.48C285,-240.84 285,-201.5 285,-184.16"/>
<polygon fill="#63b8ff" stroke="#63b8ff" points="281.5,-264.66 285,-274.66 288.5,-264.66 281.5,-264.66"/>
</g>
<!-- Node6 -->
<g id="node6" class="node">
<title>Node6</title>
<g id="a_node6"><a xlink:href="interp_8h.html" target="_top" xlink:title="Routines for linear interpolation of vertical atmospheric profiles.">
<polygon fill="white" stroke="#666666" points="448,-239 394,-239 394,-220 448,-220 448,-239"/>
<text text-anchor="middle" x="421" y="-227" font-family="Helvetica,sans-Serif" font-size="10.00">interp.h</text>
</a>
</g>
</g>
<!-- Node1&#45;&gt;Node6 -->
<g id="edge5" class="edge">
<title>Node1&#45;&gt;Node6</title>
<path fill="none" stroke="#63b8ff" d="M316.33,-271.29C341.54,-261.47 376.33,-247.91 398.75,-239.17"/>
<polygon fill="#63b8ff" stroke="#63b8ff" points="314.9,-268.09 306.85,-274.98 317.44,-274.61 314.9,-268.09"/>
</g>
<!-- Node7 -->
<g id="node7" class="node">
<title>Node7</title>
<g id="a_node7"><a xlink:href="layer_8cpp.html" target="_top" xlink:title="Utilities and structures useful for grouping objects, conducting QC, and things that otherwise don&#39;t ...">
<polygon fill="white" stroke="#666666" points="735.5,-129 674.5,-129 674.5,-110 735.5,-110 735.5,-129"/>
<text text-anchor="middle" x="705" y="-117" font-family="Helvetica,sans-Serif" font-size="10.00">layer.cpp</text>
</a>
</g>
</g>
<!-- Node1&#45;&gt;Node7 -->
<g id="edge35" class="edge">
<title>Node1&#45;&gt;Node7</title>
<path fill="none" stroke="#63b8ff" d="M332.02,-278.62C377.46,-272.83 447.64,-261.07 505,-239 582.22,-209.29 664.02,-151.18 693.54,-129.2"/>
<polygon fill="#63b8ff" stroke="#63b8ff" points="331.37,-275.17 321.87,-279.86 332.22,-282.12 331.37,-275.17"/>
</g>
<!-- Node8 -->
<g id="node8" class="node">
<title>Node8</title>
<g id="a_node8"><a xlink:href="layer_8h.html" target="_top" xlink:title="Data structures and functions for performing operations over atmospheric layers.">
<polygon fill="white" stroke="#666666" points="500,-184 450,-184 450,-165 500,-165 500,-184"/>
<text text-anchor="middle" x="475" y="-172" font-family="Helvetica,sans-Serif" font-size="10.00">layer.h</text>
</a>
</g>
</g>
<!-- Node1&#45;&gt;Node8 -->
<g id="edge36" class="edge">
<title>Node1&#45;&gt;Node8</title>
<path fill="none" stroke="#63b8ff" d="M332.1,-283.56C370.61,-281.04 423.93,-271.32 457,-239 472.08,-224.26 474.78,-197.91 475.11,-184.25"/>
<polygon fill="#63b8ff" stroke="#63b8ff" points="331.47,-280.08 321.66,-284.09 331.82,-287.08 331.47,-280.08"/>
</g>
<!-- Node9 -->
<g id="node9" class="node">
<title>Node9</title>
<g id="a_node9"><a xlink:href="parcel_8cpp.html" target="_top" xlink:title="Routines used for parcel lifting and integration.">
<polygon fill="white" stroke="#666666" points="711.5,-19 644.5,-19 644.5,0 711.5,0 711.5,-19"/>
<text text-anchor="middle" x="678" y="-7" font-family="Helvetica,sans-Serif" font-size="10.00">parcel.cpp</text>
</a>
</g>
</g>
<!-- Node1&#45;&gt;Node9 -->
<g id="edge37" class="edge">
<title>Node1&#45;&gt;Node9</title>
<path fill="none" stroke="#63b8ff" d="M332.2,-284.27C466.32,-285.22 840,-278.6 840,-175.5 840,-175.5 840,-175.5 840,-118.5 840,-57.32 759.02,-28.66 711.57,-17.12"/>
<polygon fill="#63b8ff" stroke="#63b8ff" points="331.88,-280.77 321.84,-284.18 331.81,-287.77 331.88,-280.77"/>
</g>
<!-- Node10 -->
<g id="node10" class="node">
<title>Node10</title>
<g id="a_node10"><a xlink:href="parcel_8h.html" target="_top" xlink:title="Routines used for parcel lifting and integration.">
<polygon fill="white" stroke="#666666" points="650,-74 594,-74 594,-55 650,-55 650,-74"/>
<text text-anchor="middle" x="622" y="-62" font-family="Helvetica,sans-Serif" font-size="10.00">parcel.h</text>
</a>
</g>
</g>
<!-- Node1&#45;&gt;Node10 -->
<g id="edge38" class="edge">
<title>Node1&#45;&gt;Node10</title>
<path fill="none" stroke="#63b8ff" d="M332.07,-279.82C384.11,-274.72 469.86,-263.23 540,-239 637.73,-205.24 691.91,-217.73 745,-129 767.89,-90.74 693.02,-74.59 650.05,-68.59"/>
<polygon fill="#63b8ff" stroke="#63b8ff" points="331.44,-276.36 321.81,-280.78 332.1,-283.33 331.44,-276.36"/>
</g>
<!-- Node11 -->
<g id="node11" class="node">
<title>Node11</title>
<g id="a_node11"><a xlink:href="thermo_8cpp.html" target="_top" xlink:title="Thermodynamic routines that do not directly involve parcel based ascent.">
<polygon fill="white" stroke="#666666" points="361,-74 289,-74 289,-55 361,-55 361,-74"/>
<text text-anchor="middle" x="325" y="-62" font-family="Helvetica,sans-Serif" font-size="10.00">thermo.cpp</text>
</a>
</g>
</g>
<!-- Node1&#45;&gt;Node11 -->
<g id="edge39" class="edge">
<title>Node1&#45;&gt;Node11</title>
<path fill="none" stroke="#63b8ff" d="M271.62,-266.83C254.9,-243.88 229.98,-201.27 243,-165 257.29,-125.18 295.18,-89.92 314.03,-74.2"/>
<polygon fill="#63b8ff" stroke="#63b8ff" points="268.89,-269.03 277.73,-274.87 274.46,-264.79 268.89,-269.03"/>
</g>
<!-- Node12 -->
<g id="node12" class="node">
<title>Node12</title>
<g id="a_node12"><a xlink:href="thermo_8h.html" target="_top" xlink:title="Routines used to compute thermodynamic attributes of vertical sounding profiles.">
<polygon fill="white" stroke="#666666" points="541.5,-129 480.5,-129 480.5,-110 541.5,-110 541.5,-129"/>
<text text-anchor="middle" x="511" y="-117" font-family="Helvetica,sans-Serif" font-size="10.00">thermo.h</text>
</a>
</g>
</g>
<!-- Node1&#45;&gt;Node12 -->
<g id="edge40" class="edge">
<title>Node1&#45;&gt;Node12</title>
<path fill="none" stroke="#63b8ff" d="M331.9,-280.48C372.67,-276.1 432.06,-265.35 477,-239 505.5,-222.29 515.09,-214.81 527,-184 534.3,-165.12 523.71,-141.8 516.58,-129.34"/>
<polygon fill="#63b8ff" stroke="#63b8ff" points="331.31,-277.02 321.7,-281.49 332,-283.99 331.31,-277.02"/>
</g>
<!-- Node13 -->
<g id="node13" class="node">
<title>Node13</title>
<g id="a_node13"><a xlink:href="winds_8cpp.html" target="_top" xlink:title="Routines used to compute kinematic attributes and indices of vertical sounding profiles.">
<polygon fill="white" stroke="#666666" points="240.5,-74 175.5,-74 175.5,-55 240.5,-55 240.5,-74"/>
<text text-anchor="middle" x="208" y="-62" font-family="Helvetica,sans-Serif" font-size="10.00">winds.cpp</text>
</a>
</g>
</g>
<!-- Node1&#45;&gt;Node13 -->
<g id="edge41" class="edge">
<title>Node1&#45;&gt;Node13</title>
<path fill="none" stroke="#63b8ff" d="M266.29,-268.09C257.93,-260.23 248.7,-250.01 243,-239 213.19,-181.42 208.74,-100.89 208.1,-74.36"/>
<polygon fill="#63b8ff" stroke="#63b8ff" points="264.1,-270.82 273.89,-274.86 268.75,-265.59 264.1,-270.82"/>
</g>
<!-- Node14 -->
<g id="node14" class="node">
<title>Node14</title>
<g id="a_node14"><a xlink:href="winds_8h.html" target="_top" xlink:title="Routines used to compute kinematic attributes and indices of vertical sounding profiles.">
<polygon fill="white" stroke="#666666" points="158,-129 104,-129 104,-110 158,-110 158,-129"/>
<text text-anchor="middle" x="131" y="-117" font-family="Helvetica,sans-Serif" font-size="10.00">winds.h</text>
</a>
</g>
</g>
<!-- Node1&#45;&gt;Node14 -->
<g id="edge42" class="edge">
<title>Node1&#45;&gt;Node14</title>
<path fill="none" stroke="#63b8ff" d="M238.07,-281.16C178.14,-277.08 79.48,-266.29 57,-239 25.85,-201.18 89.93,-149.27 118.35,-129.05"/>
<polygon fill="#63b8ff" stroke="#63b8ff" points="237.86,-284.65 248.06,-281.8 238.31,-277.67 237.86,-284.65"/>
</g>
<!-- Node6&#45;&gt;Node5 -->
<g id="edge6" class="edge">
<title>Node6&#45;&gt;Node5</title>
<path fill="none" stroke="#63b8ff" d="M389.67,-216.29C364.46,-206.47 329.67,-192.91 307.25,-184.17"/>
<polygon fill="#63b8ff" stroke="#63b8ff" points="388.56,-219.61 399.15,-219.98 391.1,-213.09 388.56,-219.61"/>
</g>
<!-- Node6&#45;&gt;Node7 -->
<g id="edge7" class="edge">
<title>Node6&#45;&gt;Node7</title>
<path fill="none" stroke="#63b8ff" d="M458.31,-225.59C500.72,-221.14 571.16,-210.18 626,-184 655.22,-170.05 683.25,-143.35 696.7,-129.43"/>
<polygon fill="#63b8ff" stroke="#63b8ff" points="457.77,-222.13 448.16,-226.59 458.45,-229.1 457.77,-222.13"/>
</g>
<!-- Node6&#45;&gt;Node8 -->
<g id="edge8" class="edge">
<title>Node6&#45;&gt;Node8</title>
<path fill="none" stroke="#63b8ff" d="M437.28,-212.52C446.8,-203.18 458.44,-191.75 466.25,-184.09"/>
<polygon fill="#63b8ff" stroke="#63b8ff" points="434.6,-210.25 429.92,-219.75 439.51,-215.24 434.6,-210.25"/>
</g>
<!-- Node6&#45;&gt;Node9 -->
<g id="edge29" class="edge">
<title>Node6&#45;&gt;Node9</title>
<path fill="none" stroke="#63b8ff" d="M458.24,-225.58C505.38,-220.95 588.46,-209.67 655,-184 698.74,-167.13 722.07,-169.89 745,-129 768.12,-87.77 714.22,-38.64 689.53,-19.11"/>
<polygon fill="#63b8ff" stroke="#63b8ff" points="457.81,-222.1 448.18,-226.52 458.46,-229.07 457.81,-222.1"/>
</g>
<!-- Node6&#45;&gt;Node10 -->
<g id="edge30" class="edge">
<title>Node6&#45;&gt;Node10</title>
<path fill="none" stroke="#63b8ff" d="M458.09,-217.5C479.45,-210.08 506.11,-198.92 527,-184 570.77,-152.74 605.11,-96.05 617.25,-74.31"/>
<polygon fill="#63b8ff" stroke="#63b8ff" points="456.77,-214.25 448.39,-220.74 458.99,-220.89 456.77,-214.25"/>
</g>
<!-- Node6&#45;&gt;Node11 -->
<g id="edge31" class="edge">
<title>Node6&#45;&gt;Node11</title>
<path fill="none" stroke="#63b8ff" d="M415.93,-210.3C411.94,-197.27 405.76,-179.55 398,-165 392.8,-155.27 348.7,-96.77 331.67,-74.29"/>
<polygon fill="#63b8ff" stroke="#63b8ff" points="412.59,-211.34 418.75,-219.96 419.3,-209.38 412.59,-211.34"/>
</g>
<!-- Node6&#45;&gt;Node12 -->
<g id="edge32" class="edge">
<title>Node6&#45;&gt;Node12</title>
<path fill="none" stroke="#63b8ff" d="M458.08,-219.45C476.68,-212.86 497.62,-201.87 509,-184 519.78,-167.07 516.24,-142.12 513.3,-129.11"/>
<polygon fill="#63b8ff" stroke="#63b8ff" points="456.79,-216.19 448.34,-222.59 458.93,-222.85 456.79,-216.19"/>
</g>
<!-- Node6&#45;&gt;Node13 -->
<g id="edge33" class="edge">
<title>Node6&#45;&gt;Node13</title>
<path fill="none" stroke="#63b8ff" d="M406.28,-212.24C393.79,-198.86 375.07,-179.76 357,-165 311,-127.41 250.7,-90.52 223.04,-74.22"/>
<polygon fill="#63b8ff" stroke="#63b8ff" points="403.85,-214.76 413.2,-219.75 408.99,-210.02 403.85,-214.76"/>
</g>
<!-- Node6&#45;&gt;Node14 -->
<g id="edge34" class="edge">
<title>Node6&#45;&gt;Node14</title>
<path fill="none" stroke="#63b8ff" d="M402.89,-213.43C384.59,-198.95 354.97,-177.48 326,-165 269.07,-140.48 196.73,-128.52 158.14,-123.52"/>
<polygon fill="#63b8ff" stroke="#63b8ff" points="400.93,-216.35 410.91,-219.91 405.33,-210.9 400.93,-216.35"/>
</g>
<!-- Node8&#45;&gt;Node2 -->
<g id="edge9" class="edge">
<title>Node8&#45;&gt;Node2</title>
<path fill="none" stroke="#63b8ff" d="M472.96,-154.93C472.18,-146.96 471.38,-137.53 471,-129 469.15,-87.65 478.12,-38.58 482.14,-19.09"/>
<polygon fill="#63b8ff" stroke="#63b8ff" points="469.49,-155.4 474.01,-164.98 476.45,-154.68 469.49,-155.4"/>
</g>
<!-- Node8&#45;&gt;Node3 -->
<g id="edge10" class="edge">
<title>Node8&#45;&gt;Node3</title>
<path fill="none" stroke="#63b8ff" d="M464.75,-155.73C444.71,-120.97 400.97,-45.12 386.08,-19.31"/>
<polygon fill="#63b8ff" stroke="#63b8ff" points="461.92,-157.82 469.95,-164.74 467.98,-154.33 461.92,-157.82"/>
</g>
<!-- Node8&#45;&gt;Node7 -->
<g id="edge11" class="edge">
<title>Node8&#45;&gt;Node7</title>
<path fill="none" stroke="#63b8ff" d="M509.89,-165.46C554.61,-155.15 631.46,-137.45 674.15,-127.61"/>
<polygon fill="#63b8ff" stroke="#63b8ff" points="509.01,-162.07 500.05,-167.73 510.58,-168.89 509.01,-162.07"/>
</g>
<!-- Node8&#45;&gt;Node9 -->
<g id="edge12" class="edge">
<title>Node8&#45;&gt;Node9</title>
<path fill="none" stroke="#63b8ff" d="M509.88,-164.46C552.03,-151.64 621.93,-123.99 659,-74 671.48,-57.18 675.82,-32.18 677.28,-19.13"/>
<polygon fill="#63b8ff" stroke="#63b8ff" points="508.66,-161.16 500.05,-167.33 510.63,-167.88 508.66,-161.16"/>
</g>
<!-- Node8&#45;&gt;Node10 -->
<g id="edge13" class="edge">
<title>Node8&#45;&gt;Node10</title>
<path fill="none" stroke="#63b8ff" d="M500.47,-159.96C515.35,-151.67 534.23,-140.47 550,-129 574.26,-111.35 600,-87.12 613.14,-74.3"/>
<polygon fill="#63b8ff" stroke="#63b8ff" points="498.44,-157.08 491.35,-164.96 501.8,-163.22 498.44,-157.08"/>
</g>
<!-- Node8&#45;&gt;Node11 -->
<g id="edge17" class="edge">
<title>Node8&#45;&gt;Node11</title>
<path fill="none" stroke="#63b8ff" d="M449.61,-159.84C434.76,-151.51 415.88,-140.31 400,-129 374.99,-111.18 348.07,-87.03 334.29,-74.26"/>
<polygon fill="#63b8ff" stroke="#63b8ff" points="448.27,-163.09 458.71,-164.87 451.65,-156.97 448.27,-163.09"/>
</g>
<!-- Node8&#45;&gt;Node12 -->
<g id="edge18" class="edge">
<title>Node8&#45;&gt;Node12</title>
<path fill="none" stroke="#63b8ff" d="M486.62,-156.39C492.82,-147.27 500.17,-136.45 505.17,-129.09"/>
<polygon fill="#63b8ff" stroke="#63b8ff" points="483.67,-154.51 480.94,-164.75 489.46,-158.44 483.67,-154.51"/>
</g>
<!-- Node8&#45;&gt;Node13 -->
<g id="edge24" class="edge">
<title>Node8&#45;&gt;Node13</title>
<path fill="none" stroke="#63b8ff" d="M444.06,-160.98C389.15,-138.77 276.06,-93.03 229.13,-74.05"/>
<polygon fill="#63b8ff" stroke="#63b8ff" points="443.02,-164.34 453.6,-164.84 445.64,-157.85 443.02,-164.34"/>
</g>
<!-- Node8&#45;&gt;Node14 -->
<g id="edge25" class="edge">
<title>Node8&#45;&gt;Node14</title>
<path fill="none" stroke="#63b8ff" d="M440.09,-168.12C371.45,-157.55 220.24,-134.25 158.28,-124.7"/>
<polygon fill="#63b8ff" stroke="#63b8ff" points="439.57,-171.58 449.98,-169.65 440.63,-164.66 439.57,-171.58"/>
</g>
<!-- Node10&#45;&gt;Node2 -->
<g id="edge14" class="edge">
<title>Node10&#45;&gt;Node2</title>
<path fill="none" stroke="#63b8ff" d="M590.21,-51.29C564.63,-41.47 529.33,-27.91 506.58,-19.17"/>
<polygon fill="#63b8ff" stroke="#63b8ff" points="589.24,-54.67 599.83,-54.98 591.75,-48.13 589.24,-54.67"/>
</g>
<!-- Node10&#45;&gt;Node3 -->
<g id="edge15" class="edge">
<title>Node10&#45;&gt;Node3</title>
<path fill="none" stroke="#63b8ff" d="M583.95,-55.13C539.05,-45.26 464.81,-28.93 419.65,-19"/>
<polygon fill="#63b8ff" stroke="#63b8ff" points="583.36,-58.59 593.88,-57.32 584.87,-51.75 583.36,-58.59"/>
</g>
<!-- Node10&#45;&gt;Node9 -->
<g id="edge16" class="edge">
<title>Node10&#45;&gt;Node9</title>
<path fill="none" stroke="#63b8ff" d="M638.33,-48.04C648.26,-38.64 660.59,-26.98 668.84,-19.17"/>
<polygon fill="#63b8ff" stroke="#63b8ff" points="635.85,-45.57 631,-54.98 640.67,-50.65 635.85,-45.57"/>
</g>
<!-- Node12&#45;&gt;Node2 -->
<g id="edge19" class="edge">
<title>Node12&#45;&gt;Node2</title>
<path fill="none" stroke="#63b8ff" d="M510.45,-99.39C509.7,-86.64 507.97,-69.58 504,-55 500.44,-41.92 493.51,-27.81 488.82,-19.06"/>
<polygon fill="#63b8ff" stroke="#63b8ff" points="506.96,-99.87 510.89,-109.71 513.96,-99.57 506.96,-99.87"/>
</g>
<!-- Node12&#45;&gt;Node3 -->
<g id="edge20" class="edge">
<title>Node12&#45;&gt;Node3</title>
<path fill="none" stroke="#63b8ff" d="M492.59,-103.21C464.9,-80.2 413.43,-37.44 391.42,-19.16"/>
<polygon fill="#63b8ff" stroke="#63b8ff" points="490.43,-105.96 500.36,-109.66 494.91,-100.58 490.43,-105.96"/>
</g>
<!-- Node12&#45;&gt;Node9 -->
<g id="edge21" class="edge">
<title>Node12&#45;&gt;Node9</title>
<path fill="none" stroke="#63b8ff" d="M527,-102.57C541.36,-88.84 563.42,-69.07 585,-55 607.94,-40.04 636.68,-27.07 656.09,-19.05"/>
<polygon fill="#63b8ff" stroke="#63b8ff" points="524.23,-100.39 519.51,-109.87 529.11,-105.4 524.23,-100.39"/>
</g>
<!-- Node12&#45;&gt;Node10 -->
<g id="edge22" class="edge">
<title>Node12&#45;&gt;Node10</title>
<path fill="none" stroke="#63b8ff" d="M537.95,-105.63C558.39,-95.87 585.95,-82.71 603.84,-74.17"/>
<polygon fill="#63b8ff" stroke="#63b8ff" points="536.35,-102.52 528.83,-109.98 539.37,-108.83 536.35,-102.52"/>
</g>
<!-- Node12&#45;&gt;Node11 -->
<g id="edge23" class="edge">
<title>Node12&#45;&gt;Node11</title>
<path fill="none" stroke="#63b8ff" d="M471.29,-107.18C436.5,-97.27 386.71,-83.08 355.12,-74.08"/>
<polygon fill="#63b8ff" stroke="#63b8ff" points="470.54,-110.61 481.12,-109.98 472.46,-103.88 470.54,-110.61"/>
</g>
<!-- Node14&#45;&gt;Node2 -->
<g id="edge26" class="edge">
<title>Node14&#45;&gt;Node2</title>
<path fill="none" stroke="#63b8ff" d="M136.06,-100.25C141.13,-85.56 150.47,-65.66 166,-55 214.63,-21.62 370.63,-27.51 429,-19 432.25,-18.53 435.61,-18.03 438.99,-17.52"/>
<polygon fill="#63b8ff" stroke="#63b8ff" points="132.71,-99.24 133.09,-109.83 139.4,-101.31 132.71,-99.24"/>
</g>
<!-- Node14&#45;&gt;Node3 -->
<g id="edge27" class="edge">
<title>Node14&#45;&gt;Node3</title>
<path fill="none" stroke="#63b8ff" d="M122.93,-100.44C118.04,-86.45 114.55,-67.43 125,-55 152.19,-22.68 276.57,-13.83 341.41,-11.41"/>
<polygon fill="#63b8ff" stroke="#63b8ff" points="119.77,-101.97 126.73,-109.96 126.27,-99.37 119.77,-101.97"/>
</g>
<!-- Node14&#45;&gt;Node13 -->
<g id="edge28" class="edge">
<title>Node14&#45;&gt;Node13</title>
<path fill="none" stroke="#63b8ff" d="M151.85,-104.15C165.76,-94.57 183.61,-82.29 195.4,-74.17"/>
<polygon fill="#63b8ff" stroke="#63b8ff" points="149.62,-101.43 143.37,-109.98 153.59,-107.2 149.62,-101.43"/>
</g>
</g>
</svg>
