<?xml version="1.0" encoding="UTF-8" standalone="no"?>
<!DOCTYPE svg PUBLIC "-//W3C//DTD SVG 1.1//EN"
 "http://www.w3.org/Graphics/SVG/1.1/DTD/svg11.dtd">
<!-- Generated by graphviz version 2.43.0 (0)
 -->
<!-- Title: constants.h Pages: 1 -->
<svg width="998pt" height="357pt"
 viewBox="0.00 0.00 998.00 357.00" xmlns="http://www.w3.org/2000/svg" xmlns:xlink="http://www.w3.org/1999/xlink">
<g id="graph0" class="graph" transform="scale(1 1) rotate(0) translate(4 353)">
<title>constants.h</title>
<!-- Node1 -->
<g id="node1" class="node">
<title>Node1</title>
<g id="a_node1"><a xlink:title="Meteorological constants useful for computations with vertical atmospheric sounding profiles.">
<polygon fill="#999999" stroke="#666666" points="505.5,-349 432.5,-349 432.5,-330 505.5,-330 505.5,-349"/>
<text text-anchor="middle" x="469" y="-337" font-family="Helvetica,sans-Serif" font-size="10.00">constants.h</text>
</a>
</g>
</g>
<!-- Node2 -->
<g id="node2" class="node">
<title>Node2</title>
<g id="a_node2"><a xlink:href="convective_8cpp.html" target="_top" xlink:title="Routines used to computed derived sounding parameters from vertical atmospheric profiles.">
<polygon fill="white" stroke="#666666" points="462,-19 372,-19 372,0 462,0 462,-19"/>
<text text-anchor="middle" x="417" y="-7" font-family="Helvetica,sans-Serif" font-size="10.00">convective.cpp</text>
</a>
</g>
</g>
<!-- Node1&#45;&gt;Node2 -->
<g id="edge1" class="edge">
<title>Node1&#45;&gt;Node2</title>
<path fill="none" stroke="#63b8ff" d="M515.91,-338.67C643.96,-337.89 990,-326.86 990,-230.5 990,-230.5 990,-230.5 990,-118.5 990,-64.91 597.97,-26.08 462.44,-14.26"/>
<polygon fill="#63b8ff" stroke="#63b8ff" points="515.62,-335.17 505.64,-338.72 515.65,-342.17 515.62,-335.17"/>
</g>
<!-- Node3 -->
<g id="node3" class="node">
<title>Node3</title>
<g id="a_node3"><a xlink:href="convective_8h.html" target="_top" xlink:title="Routines used to computed derived sounding parameters from vertical atmospheric profiles.">
<polygon fill="white" stroke="#666666" points="353.5,-74 274.5,-74 274.5,-55 353.5,-55 353.5,-74"/>
<text text-anchor="middle" x="314" y="-62" font-family="Helvetica,sans-Serif" font-size="10.00">convective.h</text>
</a>
</g>
</g>
<!-- Node1&#45;&gt;Node3 -->
<g id="edge2" class="edge">
<title>Node1&#45;&gt;Node3</title>
<path fill="none" stroke="#63b8ff" d="M422.16,-338.44C325.35,-337.53 106.98,-331.29 44,-294 14.46,-276.51 0,-264.84 0,-230.5 0,-230.5 0,-230.5 0,-173.5 0,-116.14 189.74,-82.7 274.23,-70.65"/>
<polygon fill="#63b8ff" stroke="#63b8ff" points="422.22,-341.94 432.25,-338.51 422.27,-334.94 422.22,-341.94"/>
</g>
<!-- Node4 -->
<g id="node4" class="node">
<title>Node4</title>
<g id="a_node4"><a xlink:href="fire_8cpp.html" target="_top" xlink:title="Fire weather parameters.">
<polygon fill="white" stroke="#666666" points="119.5,-294 66.5,-294 66.5,-275 119.5,-275 119.5,-294"/>
<text text-anchor="middle" x="93" y="-282" font-family="Helvetica,sans-Serif" font-size="10.00">fire.cpp</text>
</a>
</g>
</g>
<!-- Node1&#45;&gt;Node4 -->
<g id="edge4" class="edge">
<title>Node1&#45;&gt;Node4</title>
<path fill="none" stroke="#63b8ff" d="M421.86,-333.33C356.87,-325.95 236.19,-311.36 134,-294 129.41,-293.22 124.56,-292.3 119.85,-291.36"/>
<polygon fill="#63b8ff" stroke="#63b8ff" points="421.86,-336.85 432.19,-334.49 422.64,-329.89 421.86,-336.85"/>
</g>
<!-- Node5 -->
<g id="node5" class="node">
<title>Node5</title>
<g id="a_node5"><a xlink:href="interp_8cpp.html" target="_top" xlink:title="Routines for linear interpolation of vertical atmospheric profiles.">
<polygon fill="white" stroke="#666666" points="317.5,-239 252.5,-239 252.5,-220 317.5,-220 317.5,-239"/>
<text text-anchor="middle" x="285" y="-227" font-family="Helvetica,sans-Serif" font-size="10.00">interp.cpp</text>
</a>
</g>
</g>
<!-- Node1&#45;&gt;Node5 -->
<g id="edge5" class="edge">
<title>Node1&#45;&gt;Node5</title>
<path fill="none" stroke="#63b8ff" d="M445.27,-324.57C406.62,-301.89 331.23,-257.64 299.56,-239.05"/>
<polygon fill="#63b8ff" stroke="#63b8ff" points="443.86,-327.8 454.25,-329.84 447.4,-321.76 443.86,-327.8"/>
</g>
<!-- Node6 -->
<g id="node6" class="node">
<title>Node6</title>
<g id="a_node6"><a xlink:href="interp_8h.html" target="_top" xlink:title="Routines for linear interpolation of vertical atmospheric profiles.">
<polygon fill="white" stroke="#666666" points="496,-294 442,-294 442,-275 496,-275 496,-294"/>
<text text-anchor="middle" x="469" y="-282" font-family="Helvetica,sans-Serif" font-size="10.00">interp.h</text>
</a>
</g>
</g>
<!-- Node1&#45;&gt;Node6 -->
<g id="edge6" class="edge">
<title>Node1&#45;&gt;Node6</title>
<path fill="none" stroke="#63b8ff" d="M469,-319.66C469,-310.93 469,-300.99 469,-294.09"/>
<polygon fill="#63b8ff" stroke="#63b8ff" points="465.5,-319.75 469,-329.75 472.5,-319.75 465.5,-319.75"/>
</g>
<!-- Node7 -->
<g id="node7" class="node">
<title>Node7</title>
<g id="a_node7"><a xlink:href="layer_8cpp.html" target="_top" xlink:title="Utilities and structures useful for grouping objects, conducting QC, and things that otherwise don&#39;t ...">
<polygon fill="white" stroke="#666666" points="773.5,-184 712.5,-184 712.5,-165 773.5,-165 773.5,-184"/>
<text text-anchor="middle" x="743" y="-172" font-family="Helvetica,sans-Serif" font-size="10.00">layer.cpp</text>
</a>
</g>
</g>
<!-- Node1&#45;&gt;Node7 -->
<g id="edge39" class="edge">
<title>Node1&#45;&gt;Node7</title>
<path fill="none" stroke="#63b8ff" d="M515.64,-334.45C573.35,-328.57 667.28,-315.92 694,-294 729.29,-265.06 739.48,-206.48 742.14,-184.29"/>
<polygon fill="#63b8ff" stroke="#63b8ff" points="515.27,-330.97 505.66,-335.43 515.96,-337.93 515.27,-330.97"/>
</g>
<!-- Node8 -->
<g id="node8" class="node">
<title>Node8</title>
<g id="a_node8"><a xlink:href="layer_8h.html" target="_top" xlink:title="Data structures and functions for performing operations over atmospheric layers.">
<polygon fill="white" stroke="#666666" points="576,-239 526,-239 526,-220 576,-220 576,-239"/>
<text text-anchor="middle" x="551" y="-227" font-family="Helvetica,sans-Serif" font-size="10.00">layer.h</text>
</a>
</g>
</g>
<!-- Node1&#45;&gt;Node8 -->
<g id="edge40" class="edge">
<title>Node1&#45;&gt;Node8</title>
<path fill="none" stroke="#63b8ff" d="M482.76,-321.92C489.56,-313.62 497.83,-303.37 505,-294 519.73,-274.76 536.22,-251.58 544.89,-239.23"/>
<polygon fill="#63b8ff" stroke="#63b8ff" points="479.97,-319.8 476.31,-329.75 485.37,-324.25 479.97,-319.8"/>
</g>
<!-- Node9 -->
<g id="node9" class="node">
<title>Node9</title>
<g id="a_node9"><a xlink:href="parcel_8cpp.html" target="_top" xlink:title="Routines used for parcel lifting and integration.">
<polygon fill="white" stroke="#666666" points="579.5,-74 512.5,-74 512.5,-55 579.5,-55 579.5,-74"/>
<text text-anchor="middle" x="546" y="-62" font-family="Helvetica,sans-Serif" font-size="10.00">parcel.cpp</text>
</a>
</g>
</g>
<!-- Node1&#45;&gt;Node9 -->
<g id="edge41" class="edge">
<title>Node1&#45;&gt;Node9</title>
<path fill="none" stroke="#63b8ff" d="M515.74,-336.4C566.8,-332.68 650.12,-322.41 716,-294 759.63,-275.19 802,-278.01 802,-230.5 802,-230.5 802,-230.5 802,-173.5 802,-78.11 649.25,-65.65 579.73,-64.91"/>
<polygon fill="#63b8ff" stroke="#63b8ff" points="515.4,-332.91 505.66,-337.08 515.87,-339.9 515.4,-332.91"/>
</g>
<!-- Node10 -->
<g id="node10" class="node">
<title>Node10</title>
<g id="a_node10"><a xlink:href="parcel_8h.html" target="_top" xlink:title="Routines used for parcel lifting and integration.">
<polygon fill="white" stroke="#666666" points="542,-129 486,-129 486,-110 542,-110 542,-129"/>
<text text-anchor="middle" x="514" y="-117" font-family="Helvetica,sans-Serif" font-size="10.00">parcel.h</text>
</a>
</g>
</g>
<!-- Node1&#45;&gt;Node10 -->
<g id="edge42" class="edge">
<title>Node1&#45;&gt;Node10</title>
<path fill="none" stroke="#63b8ff" d="M495.84,-325.06C524.36,-309.04 567.68,-279.3 585,-239 603.75,-195.37 551.02,-148.34 526.17,-129.27"/>
<polygon fill="#63b8ff" stroke="#63b8ff" points="493.92,-322.12 486.79,-329.96 497.25,-328.27 493.92,-322.12"/>
</g>
<!-- Node11 -->
<g id="node11" class="node">
<title>Node11</title>
<g id="a_node11"><a xlink:href="thermo_8cpp.html" target="_top" xlink:title="Thermodynamic routines that do not directly involve parcel based ascent.">
<polygon fill="white" stroke="#666666" points="316,-129 244,-129 244,-110 316,-110 316,-129"/>
<text text-anchor="middle" x="280" y="-117" font-family="Helvetica,sans-Serif" font-size="10.00">thermo.cpp</text>
</a>
</g>
</g>
<!-- Node1&#45;&gt;Node11 -->
<g id="edge43" class="edge">
<title>Node1&#45;&gt;Node11</title>
<path fill="none" stroke="#63b8ff" d="M422.02,-336.96C380.1,-333.56 318.62,-323.44 274,-294 242.79,-273.41 225.97,-256.51 234,-220 241.89,-184.13 264.03,-145.79 274.45,-129.09"/>
<polygon fill="#63b8ff" stroke="#63b8ff" points="422.01,-340.47 432.23,-337.68 422.51,-333.48 422.01,-340.47"/>
</g>
<!-- Node12 -->
<g id="node12" class="node">
<title>Node12</title>
<g id="a_node12"><a xlink:href="thermo_8h.html" target="_top" xlink:title="Routines used to compute thermodynamic attributes of vertical sounding profiles.">
<polygon fill="white" stroke="#666666" points="427.5,-184 366.5,-184 366.5,-165 427.5,-165 427.5,-184"/>
<text text-anchor="middle" x="397" y="-172" font-family="Helvetica,sans-Serif" font-size="10.00">thermo.h</text>
</a>
</g>
</g>
<!-- Node1&#45;&gt;Node12 -->
<g id="edge44" class="edge">
<title>Node1&#45;&gt;Node12</title>
<path fill="none" stroke="#63b8ff" d="M422.06,-333C368.12,-323.88 282.05,-300.08 243,-239 213.32,-192.59 313.09,-180.09 366.09,-176.73"/>
<polygon fill="#63b8ff" stroke="#63b8ff" points="421.64,-336.48 432.06,-334.59 422.73,-329.56 421.64,-336.48"/>
</g>
<!-- Node13 -->
<g id="node13" class="node">
<title>Node13</title>
<g id="a_node13"><a xlink:href="winds_8cpp.html" target="_top" xlink:title="Routines used to compute kinematic attributes and indices of vertical sounding profiles.">
<polygon fill="white" stroke="#666666" points="221.5,-129 156.5,-129 156.5,-110 221.5,-110 221.5,-129"/>
<text text-anchor="middle" x="189" y="-117" font-family="Helvetica,sans-Serif" font-size="10.00">winds.cpp</text>
</a>
</g>
</g>
<!-- Node1&#45;&gt;Node13 -->
<g id="edge45" class="edge">
<title>Node1&#45;&gt;Node13</title>
<path fill="none" stroke="#63b8ff" d="M422.15,-334.66C364.65,-329.04 271.59,-316.68 246,-294 195.22,-249 189.51,-157.99 189,-129.34"/>
<polygon fill="#63b8ff" stroke="#63b8ff" points="422.17,-338.18 432.45,-335.64 422.83,-331.21 422.17,-338.18"/>
</g>
<!-- Node14 -->
<g id="node14" class="node">
<title>Node14</title>
<g id="a_node14"><a xlink:href="winds_8h.html" target="_top" xlink:title="Routines used to compute kinematic attributes and indices of vertical sounding profiles.">
<polygon fill="white" stroke="#666666" points="120,-184 66,-184 66,-165 120,-165 120,-184"/>
<text text-anchor="middle" x="93" y="-172" font-family="Helvetica,sans-Serif" font-size="10.00">winds.h</text>
</a>
</g>
</g>
<!-- Node1&#45;&gt;Node14 -->
<g id="edge46" class="edge">
<title>Node1&#45;&gt;Node14</title>
<path fill="none" stroke="#63b8ff" d="M422.13,-336.89C319.28,-332.89 81.05,-320.78 57,-294 27.7,-261.36 67.96,-205.49 85.52,-184.14"/>
<polygon fill="#63b8ff" stroke="#63b8ff" points="422.1,-340.4 432.23,-337.28 422.37,-333.4 422.1,-340.4"/>
</g>
<!-- Node15 -->
<g id="node15" class="node">
<title>Node15</title>
<g id="a_node15"><a xlink:href="winter_8h.html" target="_top" xlink:title="Winter weather parameters.">
<polygon fill="white" stroke="#666666" points="924,-184 868,-184 868,-165 924,-165 924,-184"/>
<text text-anchor="middle" x="896" y="-172" font-family="Helvetica,sans-Serif" font-size="10.00">winter.h</text>
</a>
</g>
</g>
<!-- Node1&#45;&gt;Node15 -->
<g id="edge48" class="edge">
<title>Node1&#45;&gt;Node15</title>
<path fill="none" stroke="#63b8ff" d="M515.72,-337.22C598.47,-334.18 766.72,-324.37 816,-294 859.53,-267.17 884.81,-206.79 893.02,-184.23"/>
<polygon fill="#63b8ff" stroke="#63b8ff" points="515.46,-333.72 505.59,-337.57 515.71,-340.72 515.46,-333.72"/>
</g>
<!-- Node16 -->
<g id="node16" class="node">
<title>Node16</title>
<g id="a_node16"><a xlink:href="winter_8cpp.html" target="_top" xlink:title="Winter weather parameters.">
<polygon fill="white" stroke="#666666" points="929.5,-129 862.5,-129 862.5,-110 929.5,-110 929.5,-129"/>
<text text-anchor="middle" x="896" y="-117" font-family="Helvetica,sans-Serif" font-size="10.00">winter.cpp</text>
</a>
</g>
</g>
<!-- Node1&#45;&gt;Node16 -->
<g id="edge47" class="edge">
<title>Node1&#45;&gt;Node16</title>
<path fill="none" stroke="#63b8ff" d="M515.78,-337.12C602.64,-333.87 784.98,-323.64 840,-294 896.36,-263.64 910.99,-244.12 933,-184 940.72,-162.91 920.34,-140.81 906.84,-129.05"/>
<polygon fill="#63b8ff" stroke="#63b8ff" points="515.55,-333.63 505.68,-337.48 515.8,-340.62 515.55,-333.63"/>
</g>
<!-- Node3&#45;&gt;Node2 -->
<g id="edge3" class="edge">
<title>Node3&#45;&gt;Node2</title>
<path fill="none" stroke="#63b8ff" d="M339.52,-50.37C358.44,-40.63 383.7,-27.64 400.15,-19.17"/>
<polygon fill="#63b8ff" stroke="#63b8ff" points="337.84,-47.3 330.55,-54.98 341.04,-53.52 337.84,-47.3"/>
</g>
<!-- Node6&#45;&gt;Node5 -->
<g id="edge7" class="edge">
<title>Node6&#45;&gt;Node5</title>
<path fill="none" stroke="#63b8ff" d="M432.14,-272.88C397.62,-262.94 346.69,-248.27 314.7,-239.06"/>
<polygon fill="#63b8ff" stroke="#63b8ff" points="431.27,-276.27 441.85,-275.68 433.21,-269.55 431.27,-276.27"/>
</g>
<!-- Node6&#45;&gt;Node7 -->
<g id="edge8" class="edge">
<title>Node6&#45;&gt;Node7</title>
<path fill="none" stroke="#63b8ff" d="M505.94,-274.45C536.48,-266.5 580.72,-253.89 618,-239 659.36,-222.47 705.47,-197.13 728.39,-184.01"/>
<polygon fill="#63b8ff" stroke="#63b8ff" points="504.96,-271.09 496.14,-276.96 506.7,-277.87 504.96,-271.09"/>
</g>
<!-- Node6&#45;&gt;Node8 -->
<g id="edge9" class="edge">
<title>Node6&#45;&gt;Node8</title>
<path fill="none" stroke="#63b8ff" d="M490.78,-269.42C505.66,-259.81 524.91,-247.37 537.59,-239.17"/>
<polygon fill="#63b8ff" stroke="#63b8ff" points="488.67,-266.62 482.17,-274.98 492.47,-272.5 488.67,-266.62"/>
</g>
<!-- Node6&#45;&gt;Node9 -->
<g id="edge32" class="edge">
<title>Node6&#45;&gt;Node9</title>
<path fill="none" stroke="#63b8ff" d="M506.38,-280.05C533.16,-275.39 567.47,-264.5 585,-239 622.08,-185.06 571,-101.47 552.35,-74.33"/>
<polygon fill="#63b8ff" stroke="#63b8ff" points="505.54,-276.63 496.17,-281.59 506.58,-283.55 505.54,-276.63"/>
</g>
<!-- Node6&#45;&gt;Node10 -->
<g id="edge33" class="edge">
<title>Node6&#45;&gt;Node10</title>
<path fill="none" stroke="#63b8ff" d="M474.15,-264.83C483.86,-229.67 504.5,-154.9 511.57,-129.31"/>
<polygon fill="#63b8ff" stroke="#63b8ff" points="470.71,-264.17 471.42,-274.74 477.45,-266.03 470.71,-264.17"/>
</g>
<!-- Node6&#45;&gt;Node11 -->
<g id="edge34" class="edge">
<title>Node6&#45;&gt;Node11</title>
<path fill="none" stroke="#63b8ff" d="M453.7,-267.61C439.96,-253.9 418.81,-234.14 398,-220 368.4,-199.9 353.28,-207.15 326,-184 307.11,-167.97 291.83,-142.64 284.57,-129.33"/>
<polygon fill="#63b8ff" stroke="#63b8ff" points="451.36,-270.22 460.87,-274.89 456.35,-265.31 451.36,-270.22"/>
</g>
<!-- Node6&#45;&gt;Node12 -->
<g id="edge35" class="edge">
<title>Node6&#45;&gt;Node12</title>
<path fill="none" stroke="#63b8ff" d="M461.12,-265.61C455.02,-252.52 445.96,-234.57 436,-220 426.84,-206.6 414.13,-192.79 405.74,-184.18"/>
<polygon fill="#63b8ff" stroke="#63b8ff" points="458.02,-267.25 465.34,-274.92 464.4,-264.36 458.02,-267.25"/>
</g>
<!-- Node6&#45;&gt;Node13 -->
<g id="edge36" class="edge">
<title>Node6&#45;&gt;Node13</title>
<path fill="none" stroke="#63b8ff" d="M445.7,-269.55C424.06,-256.62 390.92,-236.9 362,-220 303.96,-186.09 234.54,-146.43 204.31,-129.21"/>
<polygon fill="#63b8ff" stroke="#63b8ff" points="444.12,-272.68 454.5,-274.81 447.71,-266.67 444.12,-272.68"/>
</g>
<!-- Node6&#45;&gt;Node14 -->
<g id="edge37" class="edge">
<title>Node6&#45;&gt;Node14</title>
<path fill="none" stroke="#63b8ff" d="M440.93,-270.84C400.98,-252.84 331.87,-221.84 326,-220 253.29,-197.24 163.99,-184.14 120.05,-178.62"/>
<polygon fill="#63b8ff" stroke="#63b8ff" points="439.61,-274.08 450.16,-275 442.48,-267.7 439.61,-274.08"/>
</g>
<!-- Node6&#45;&gt;Node16 -->
<g id="edge38" class="edge">
<title>Node6&#45;&gt;Node16</title>
<path fill="none" stroke="#63b8ff" d="M506.07,-276.48C543.79,-268.9 603.69,-255.65 654,-239 713.17,-219.42 727.08,-211.53 783,-184 819.54,-166.01 860.9,-141.72 882,-129.02"/>
<polygon fill="#63b8ff" stroke="#63b8ff" points="505.18,-273.09 496.05,-278.47 506.54,-279.96 505.18,-273.09"/>
</g>
<!-- Node8&#45;&gt;Node2 -->
<g id="edge10" class="edge">
<title>Node8&#45;&gt;Node2</title>
<path fill="none" stroke="#63b8ff" d="M562.94,-211.15C584.51,-177.43 624.52,-102.24 588,-55 572.71,-35.22 507.56,-22.59 462.25,-16.02"/>
<polygon fill="#63b8ff" stroke="#63b8ff" points="559.77,-209.58 557.18,-219.85 565.61,-213.44 559.77,-209.58"/>
</g>
<!-- Node8&#45;&gt;Node3 -->
<g id="edge11" class="edge">
<title>Node8&#45;&gt;Node3</title>
<path fill="none" stroke="#63b8ff" d="M530.23,-214.21C482.31,-181.26 365.18,-100.7 326.57,-74.15"/>
<polygon fill="#63b8ff" stroke="#63b8ff" points="528.37,-217.18 538.59,-219.97 532.34,-211.42 528.37,-217.18"/>
</g>
<!-- Node8&#45;&gt;Node7 -->
<g id="edge12" class="edge">
<title>Node8&#45;&gt;Node7</title>
<path fill="none" stroke="#63b8ff" d="M586.17,-218.79C622.24,-208.83 677.78,-193.5 712.18,-184.01"/>
<polygon fill="#63b8ff" stroke="#63b8ff" points="584.81,-215.54 576.1,-221.57 586.67,-222.28 584.81,-215.54"/>
</g>
<!-- Node8&#45;&gt;Node9 -->
<g id="edge13" class="edge">
<title>Node8&#45;&gt;Node9</title>
<path fill="none" stroke="#63b8ff" d="M551.65,-209.64C552.31,-186.24 552.97,-145.14 551,-110 550.3,-97.43 548.48,-82.95 547.24,-74.01"/>
<polygon fill="#63b8ff" stroke="#63b8ff" points="548.14,-209.76 551.33,-219.87 555.14,-209.98 548.14,-209.76"/>
</g>
<!-- Node8&#45;&gt;Node10 -->
<g id="edge14" class="edge">
<title>Node8&#45;&gt;Node10</title>
<path fill="none" stroke="#63b8ff" d="M544.7,-210.12C536.63,-186.56 522.96,-146.66 516.97,-129.16"/>
<polygon fill="#63b8ff" stroke="#63b8ff" points="541.42,-211.34 547.97,-219.66 548.04,-209.07 541.42,-211.34"/>
</g>
<!-- Node8&#45;&gt;Node11 -->
<g id="edge18" class="edge">
<title>Node8&#45;&gt;Node11</title>
<path fill="none" stroke="#63b8ff" d="M515.78,-225.35C475.61,-220.67 408.79,-209.5 357,-184 328.4,-169.92 301.13,-143.27 288.06,-129.4"/>
<polygon fill="#63b8ff" stroke="#63b8ff" points="515.56,-228.85 525.88,-226.46 516.32,-221.89 515.56,-228.85"/>
</g>
<!-- Node8&#45;&gt;Node12 -->
<g id="edge19" class="edge">
<title>Node8&#45;&gt;Node12</title>
<path fill="none" stroke="#63b8ff" d="M516.62,-216.67C487.91,-206.79 447.64,-192.93 421.94,-184.08"/>
<polygon fill="#63b8ff" stroke="#63b8ff" points="515.66,-220.04 526.26,-219.98 517.94,-213.42 515.66,-220.04"/>
</g>
<!-- Node8&#45;&gt;Node13 -->
<g id="edge25" class="edge">
<title>Node8&#45;&gt;Node13</title>
<path fill="none" stroke="#63b8ff" d="M515.77,-224.19C470.91,-218.1 391.38,-205.28 326,-184 280.13,-169.07 229.42,-142.8 204.53,-129.2"/>
<polygon fill="#63b8ff" stroke="#63b8ff" points="515.5,-227.68 525.87,-225.52 516.41,-220.74 515.5,-227.68"/>
</g>
<!-- Node8&#45;&gt;Node14 -->
<g id="edge26" class="edge">
<title>Node8&#45;&gt;Node14</title>
<path fill="none" stroke="#63b8ff" d="M515.68,-224.41C427.48,-214.21 199.01,-187.77 120.2,-178.65"/>
<polygon fill="#63b8ff" stroke="#63b8ff" points="515.39,-227.9 525.72,-225.57 516.19,-220.95 515.39,-227.9"/>
</g>
<!-- Node8&#45;&gt;Node15 -->
<g id="edge30" class="edge">
<title>Node8&#45;&gt;Node15</title>
<path fill="none" stroke="#63b8ff" d="M586.38,-223.06C655.03,-212.52 805.05,-189.47 867.66,-179.85"/>
<polygon fill="#63b8ff" stroke="#63b8ff" points="585.44,-219.67 576.09,-224.65 586.5,-226.59 585.44,-219.67"/>
</g>
<!-- Node10&#45;&gt;Node2 -->
<g id="edge15" class="edge">
<title>Node10&#45;&gt;Node2</title>
<path fill="none" stroke="#63b8ff" d="M499.18,-102C478.28,-78.73 440.92,-37.13 424.78,-19.16"/>
<polygon fill="#63b8ff" stroke="#63b8ff" points="496.78,-104.56 506.06,-109.66 501.98,-99.88 496.78,-104.56"/>
</g>
<!-- Node10&#45;&gt;Node3 -->
<g id="edge16" class="edge">
<title>Node10&#45;&gt;Node3</title>
<path fill="none" stroke="#63b8ff" d="M475.73,-108.36C438.24,-98.42 381.73,-83.45 346.39,-74.08"/>
<polygon fill="#63b8ff" stroke="#63b8ff" points="475.21,-111.84 485.77,-111.02 477,-105.07 475.21,-111.84"/>
</g>
<!-- Node10&#45;&gt;Node9 -->
<g id="edge17" class="edge">
<title>Node10&#45;&gt;Node9</title>
<path fill="none" stroke="#63b8ff" d="M524.5,-101.1C529.97,-92.04 536.42,-81.37 540.81,-74.09"/>
<polygon fill="#63b8ff" stroke="#63b8ff" points="521.46,-99.38 519.28,-109.75 527.45,-103 521.46,-99.38"/>
</g>
<!-- Node12&#45;&gt;Node2 -->
<g id="edge20" class="edge">
<title>Node12&#45;&gt;Node2</title>
<path fill="none" stroke="#63b8ff" d="M399.35,-154.37C403.68,-119.03 412.79,-44.79 415.92,-19.31"/>
<polygon fill="#63b8ff" stroke="#63b8ff" points="395.82,-154.38 398.08,-164.74 402.77,-155.24 395.82,-154.38"/>
</g>
<!-- Node12&#45;&gt;Node3 -->
<g id="edge21" class="edge">
<title>Node12&#45;&gt;Node3</title>
<path fill="none" stroke="#63b8ff" d="M384.08,-156.69C366.16,-133.37 334.4,-92.05 320.65,-74.16"/>
<polygon fill="#63b8ff" stroke="#63b8ff" points="381.34,-158.87 390.21,-164.66 386.89,-154.6 381.34,-158.87"/>
</g>
<!-- Node12&#45;&gt;Node9 -->
<g id="edge22" class="edge">
<title>Node12&#45;&gt;Node9</title>
<path fill="none" stroke="#63b8ff" d="M415.07,-158.32C431.04,-145.11 455.11,-125.69 477,-110 495.42,-96.8 517.58,-82.83 531.72,-74.14"/>
<polygon fill="#63b8ff" stroke="#63b8ff" points="412.55,-155.86 407.11,-164.95 417.03,-161.24 412.55,-155.86"/>
</g>
<!-- Node12&#45;&gt;Node10 -->
<g id="edge23" class="edge">
<title>Node12&#45;&gt;Node10</title>
<path fill="none" stroke="#63b8ff" d="M425.11,-160.77C446.69,-150.99 475.91,-137.75 494.86,-129.17"/>
<polygon fill="#63b8ff" stroke="#63b8ff" points="423.46,-157.67 415.8,-164.98 426.35,-164.05 423.46,-157.67"/>
</g>
<!-- Node12&#45;&gt;Node11 -->
<g id="edge24" class="edge">
<title>Node12&#45;&gt;Node11</title>
<path fill="none" stroke="#63b8ff" d="M368.89,-160.77C347.31,-150.99 318.09,-137.75 299.14,-129.17"/>
<polygon fill="#63b8ff" stroke="#63b8ff" points="367.65,-164.05 378.2,-164.98 370.54,-157.67 367.65,-164.05"/>
</g>
<!-- Node14&#45;&gt;Node2 -->
<g id="edge27" class="edge">
<title>Node14&#45;&gt;Node2</title>
<path fill="none" stroke="#63b8ff" d="M97.71,-154.89C102.13,-140.87 110.04,-122.06 123,-110 193.41,-44.47 308.57,-21.95 371.84,-14.32"/>
<polygon fill="#63b8ff" stroke="#63b8ff" points="94.24,-154.31 94.89,-164.88 100.97,-156.21 94.24,-154.31"/>
</g>
<!-- Node14&#45;&gt;Node3 -->
<g id="edge28" class="edge">
<title>Node14&#45;&gt;Node3</title>
<path fill="none" stroke="#63b8ff" d="M103.49,-156.09C113.07,-141.65 128.53,-121.66 147,-110 186.07,-85.33 238.57,-74.24 274.2,-69.31"/>
<polygon fill="#63b8ff" stroke="#63b8ff" points="100.47,-154.31 98.07,-164.63 106.38,-158.06 100.47,-154.31"/>
</g>
<!-- Node14&#45;&gt;Node13 -->
<g id="edge29" class="edge">
<title>Node14&#45;&gt;Node13</title>
<path fill="none" stroke="#63b8ff" d="M117.52,-159.97C135.06,-150.28 158.17,-137.52 173.3,-129.17"/>
<polygon fill="#63b8ff" stroke="#63b8ff" points="115.49,-157.09 108.42,-164.98 118.87,-163.22 115.49,-157.09"/>
</g>
<!-- Node15&#45;&gt;Node16 -->
<g id="edge31" class="edge">
<title>Node15&#45;&gt;Node16</title>
<path fill="none" stroke="#63b8ff" d="M896,-154.66C896,-145.93 896,-135.99 896,-129.09"/>
<polygon fill="#63b8ff" stroke="#63b8ff" points="892.5,-154.75 896,-164.75 899.5,-154.75 892.5,-154.75"/>
</g>
</g>
</svg>
