<?xml version="1.0" encoding="UTF-8" standalone="no"?>
<!DOCTYPE svg PUBLIC "-//W3C//DTD SVG 1.1//EN"
 "http://www.w3.org/Graphics/SVG/1.1/DTD/svg11.dtd">
<!-- Generated by graphviz version 2.43.0 (0)
 -->
<!-- Title: constants.h Pages: 1 -->
<svg width="799pt" height="357pt"
 viewBox="0.00 0.00 798.85 357.00" xmlns="http://www.w3.org/2000/svg" xmlns:xlink="http://www.w3.org/1999/xlink">
<g id="graph0" class="graph" transform="scale(1 1) rotate(0) translate(4 353)">
<title>constants.h</title>
<!-- Node1 -->
<g id="node1" class="node">
<title>Node1</title>
<g id="a_node1"><a xlink:title="Meteorological constants useful for computations with vertical atmospheric sounding profiles.">
<polygon fill="#999999" stroke="#666666" points="443.35,-349 370.35,-349 370.35,-330 443.35,-330 443.35,-349"/>
<text text-anchor="middle" x="406.85" y="-337" font-family="Helvetica,sans-Serif" font-size="10.00">constants.h</text>
</a>
</g>
</g>
<!-- Node2 -->
<g id="node2" class="node">
<title>Node2</title>
<g id="a_node2"><a xlink:href="convective_8cpp.html" target="_top" xlink:title="Routines used to computed derived sounding parameters from vertical atmospheric profiles.">
<polygon fill="white" stroke="#666666" points="261.85,-19 171.85,-19 171.85,0 261.85,0 261.85,-19"/>
<text text-anchor="middle" x="216.85" y="-7" font-family="Helvetica,sans-Serif" font-size="10.00">convective.cpp</text>
</a>
</g>
</g>
<!-- Node1&#45;&gt;Node2 -->
<g id="edge1" class="edge">
<title>Node1&#45;&gt;Node2</title>
<path fill="none" stroke="#63b8ff" d="M453.75,-335.21C556.18,-326.75 790.85,-299.8 790.85,-230.5 790.85,-230.5 790.85,-230.5 790.85,-118.5 790.85,-64.76 397.21,-25.96 261.9,-14.21"/>
<polygon fill="#63b8ff" stroke="#63b8ff" points="453.36,-331.73 443.67,-336.02 453.92,-338.71 453.36,-331.73"/>
</g>
<!-- Node3 -->
<g id="node3" class="node">
<title>Node3</title>
<g id="a_node3"><a xlink:href="convective_8h.html" target="_top" xlink:title="Routines used to computed derived sounding parameters from vertical atmospheric profiles.">
<polygon fill="white" stroke="#666666" points="222.35,-74 143.35,-74 143.35,-55 222.35,-55 222.35,-74"/>
<text text-anchor="middle" x="182.85" y="-62" font-family="Helvetica,sans-Serif" font-size="10.00">convective.h</text>
</a>
</g>
</g>
<!-- Node1&#45;&gt;Node3 -->
<g id="edge2" class="edge">
<title>Node1&#45;&gt;Node3</title>
<path fill="none" stroke="#63b8ff" d="M360.23,-337.67C273.72,-335.35 92.37,-326.63 39.85,-294 8.79,-274.7 -7.25,-254.85 3.85,-220 22.05,-162.9 35.42,-147.89 81.85,-110 102.79,-92.92 131.3,-81.15 152.69,-74.03"/>
<polygon fill="#63b8ff" stroke="#63b8ff" points="360.21,-341.17 370.29,-337.92 360.38,-334.17 360.21,-341.17"/>
</g>
<!-- Node4 -->
<g id="node4" class="node">
<title>Node4</title>
<g id="a_node4"><a xlink:href="fire_8cpp.html" target="_top" xlink:title="Fire weather parameters.">
<polygon fill="white" stroke="#666666" points="115.35,-294 62.35,-294 62.35,-275 115.35,-275 115.35,-294"/>
<text text-anchor="middle" x="88.85" y="-282" font-family="Helvetica,sans-Serif" font-size="10.00">fire.cpp</text>
</a>
</g>
</g>
<!-- Node1&#45;&gt;Node4 -->
<g id="edge4" class="edge">
<title>Node1&#45;&gt;Node4</title>
<path fill="none" stroke="#63b8ff" d="M359.85,-331.61C304.66,-323.37 210.41,-308.81 129.85,-294 125.28,-293.16 120.43,-292.21 115.73,-291.25"/>
<polygon fill="#63b8ff" stroke="#63b8ff" points="359.62,-335.11 370.02,-333.12 360.65,-328.19 359.62,-335.11"/>
</g>
<!-- Node5 -->
<g id="node5" class="node">
<title>Node5</title>
<g id="a_node5"><a xlink:href="interp_8cpp.html" target="_top" xlink:title="Routines for linear interpolation of vertical atmospheric profiles.">
<polygon fill="white" stroke="#666666" points="78.35,-239 13.35,-239 13.35,-220 78.35,-220 78.35,-239"/>
<text text-anchor="middle" x="45.85" y="-227" font-family="Helvetica,sans-Serif" font-size="10.00">interp.cpp</text>
</a>
</g>
</g>
<!-- Node1&#45;&gt;Node5 -->
<g id="edge5" class="edge">
<title>Node1&#45;&gt;Node5</title>
<path fill="none" stroke="#63b8ff" d="M360.06,-335.81C268.8,-330.11 74.07,-315.54 52.85,-294 38.53,-279.46 41.18,-253.02 43.81,-239.29"/>
<polygon fill="#63b8ff" stroke="#63b8ff" points="359.94,-339.31 370.14,-336.43 360.37,-332.32 359.94,-339.31"/>
</g>
<!-- Node6 -->
<g id="node6" class="node">
<title>Node6</title>
<g id="a_node6"><a xlink:href="interp_8h.html" target="_top" xlink:title="Routines for linear interpolation of vertical atmospheric profiles.">
<polygon fill="white" stroke="#666666" points="433.85,-294 379.85,-294 379.85,-275 433.85,-275 433.85,-294"/>
<text text-anchor="middle" x="406.85" y="-282" font-family="Helvetica,sans-Serif" font-size="10.00">interp.h</text>
</a>
</g>
</g>
<!-- Node1&#45;&gt;Node6 -->
<g id="edge6" class="edge">
<title>Node1&#45;&gt;Node6</title>
<path fill="none" stroke="#63b8ff" d="M406.85,-319.66C406.85,-310.93 406.85,-300.99 406.85,-294.09"/>
<polygon fill="#63b8ff" stroke="#63b8ff" points="403.35,-319.75 406.85,-329.75 410.35,-319.75 403.35,-319.75"/>
</g>
<!-- Node7 -->
<g id="node7" class="node">
<title>Node7</title>
<g id="a_node7"><a xlink:href="layer_8cpp.html" target="_top" xlink:title="Utilities and structures useful for grouping objects, conducting QC, and things that otherwise don&#39;t ...">
<polygon fill="white" stroke="#666666" points="496.35,-184 435.35,-184 435.35,-165 496.35,-165 496.35,-184"/>
<text text-anchor="middle" x="465.85" y="-172" font-family="Helvetica,sans-Serif" font-size="10.00">layer.cpp</text>
</a>
</g>
</g>
<!-- Node1&#45;&gt;Node7 -->
<g id="edge36" class="edge">
<title>Node1&#45;&gt;Node7</title>
<path fill="none" stroke="#63b8ff" d="M423.05,-322.46C430.17,-314.53 438,-304.43 442.85,-294 460.64,-255.82 464.68,-204.54 465.59,-184.27"/>
<polygon fill="#63b8ff" stroke="#63b8ff" points="420.37,-320.2 416.05,-329.87 425.46,-325.01 420.37,-320.2"/>
</g>
<!-- Node8 -->
<g id="node8" class="node">
<title>Node8</title>
<g id="a_node8"><a xlink:href="layer_8h.html" target="_top" xlink:title="Data structures and functions for performing operations over atmospheric layers.">
<polygon fill="white" stroke="#666666" points="355.85,-239 305.85,-239 305.85,-220 355.85,-220 355.85,-239"/>
<text text-anchor="middle" x="330.85" y="-227" font-family="Helvetica,sans-Serif" font-size="10.00">layer.h</text>
</a>
</g>
</g>
<!-- Node1&#45;&gt;Node8 -->
<g id="edge37" class="edge">
<title>Node1&#45;&gt;Node8</title>
<path fill="none" stroke="#63b8ff" d="M392.83,-322.12C385.96,-313.86 377.72,-303.6 370.85,-294 357.36,-275.14 343.29,-251.81 335.97,-239.34"/>
<polygon fill="#63b8ff" stroke="#63b8ff" points="390.25,-324.48 399.37,-329.87 395.6,-319.97 390.25,-324.48"/>
</g>
<!-- Node9 -->
<g id="node9" class="node">
<title>Node9</title>
<g id="a_node9"><a xlink:href="parcel_8cpp.html" target="_top" xlink:title="Routines used for parcel lifting and integration.">
<polygon fill="white" stroke="#666666" points="360.35,-74 293.35,-74 293.35,-55 360.35,-55 360.35,-74"/>
<text text-anchor="middle" x="326.85" y="-62" font-family="Helvetica,sans-Serif" font-size="10.00">parcel.cpp</text>
</a>
</g>
</g>
<!-- Node1&#45;&gt;Node9 -->
<g id="edge38" class="edge">
<title>Node1&#45;&gt;Node9</title>
<path fill="none" stroke="#63b8ff" d="M453.71,-333.79C548.23,-322.99 752.85,-292.44 752.85,-230.5 752.85,-230.5 752.85,-230.5 752.85,-173.5 752.85,-134.06 726.21,-127.49 690.85,-110 633.15,-81.45 439.43,-70.23 360.62,-66.79"/>
<polygon fill="#63b8ff" stroke="#63b8ff" points="453.11,-330.34 443.56,-334.92 453.88,-337.29 453.11,-330.34"/>
</g>
<!-- Node10 -->
<g id="node10" class="node">
<title>Node10</title>
<g id="a_node10"><a xlink:href="parcel_8h.html" target="_top" xlink:title="Routines used for parcel lifting and integration.">
<polygon fill="white" stroke="#666666" points="146.85,-129 90.85,-129 90.85,-110 146.85,-110 146.85,-129"/>
<text text-anchor="middle" x="118.85" y="-117" font-family="Helvetica,sans-Serif" font-size="10.00">parcel.h</text>
</a>
</g>
</g>
<!-- Node1&#45;&gt;Node10 -->
<g id="edge39" class="edge">
<title>Node1&#45;&gt;Node10</title>
<path fill="none" stroke="#63b8ff" d="M370.65,-326.74C324.69,-310.87 244.03,-279.82 182.85,-239 153.3,-219.28 140.41,-215.94 124.85,-184 116.13,-166.08 116.71,-141.97 117.82,-129.23"/>
<polygon fill="#63b8ff" stroke="#63b8ff" points="369.59,-330.08 380.19,-329.99 371.85,-323.45 369.59,-330.08"/>
</g>
<!-- Node11 -->
<g id="node11" class="node">
<title>Node11</title>
<g id="a_node11"><a xlink:href="thermo_8cpp.html" target="_top" xlink:title="Thermodynamic routines that do not directly involve parcel based ascent.">
<polygon fill="white" stroke="#666666" points="434.85,-129 362.85,-129 362.85,-110 434.85,-110 434.85,-129"/>
<text text-anchor="middle" x="398.85" y="-117" font-family="Helvetica,sans-Serif" font-size="10.00">thermo.cpp</text>
</a>
</g>
</g>
<!-- Node1&#45;&gt;Node11 -->
<g id="edge40" class="edge">
<title>Node1&#45;&gt;Node11</title>
<path fill="none" stroke="#63b8ff" d="M429.44,-323.89C440.11,-316.06 452.34,-305.65 460.85,-294 496.59,-245.09 538.39,-215.45 504.85,-165 496.04,-151.74 457.06,-137.73 428.93,-129.05"/>
<polygon fill="#63b8ff" stroke="#63b8ff" points="427.15,-321.22 420.96,-329.82 431.16,-326.95 427.15,-321.22"/>
</g>
<!-- Node12 -->
<g id="node12" class="node">
<title>Node12</title>
<g id="a_node12"><a xlink:href="thermo_8h.html" target="_top" xlink:title="Routines used to compute thermodynamic attributes of vertical sounding profiles.">
<polygon fill="white" stroke="#666666" points="264.35,-184 203.35,-184 203.35,-165 264.35,-165 264.35,-184"/>
<text text-anchor="middle" x="233.85" y="-172" font-family="Helvetica,sans-Serif" font-size="10.00">thermo.h</text>
</a>
</g>
</g>
<!-- Node1&#45;&gt;Node12 -->
<g id="edge41" class="edge">
<title>Node1&#45;&gt;Node12</title>
<path fill="none" stroke="#63b8ff" d="M382.21,-324.76C352.99,-307.57 304.08,-275.87 270.85,-239 255.31,-221.75 243.17,-196.93 237.45,-184.03"/>
<polygon fill="#63b8ff" stroke="#63b8ff" points="380.55,-327.84 390.96,-329.82 384.05,-321.78 380.55,-327.84"/>
</g>
<!-- Node13 -->
<g id="node13" class="node">
<title>Node13</title>
<g id="a_node13"><a xlink:href="winds_8cpp.html" target="_top" xlink:title="Routines used to compute kinematic attributes and indices of vertical sounding profiles.">
<polygon fill="white" stroke="#666666" points="681.35,-129 616.35,-129 616.35,-110 681.35,-110 681.35,-129"/>
<text text-anchor="middle" x="648.85" y="-117" font-family="Helvetica,sans-Serif" font-size="10.00">winds.cpp</text>
</a>
</g>
</g>
<!-- Node1&#45;&gt;Node13 -->
<g id="edge42" class="edge">
<title>Node1&#45;&gt;Node13</title>
<path fill="none" stroke="#63b8ff" d="M453.51,-337.37C495.06,-334.24 555.76,-324.29 598.85,-294 646.46,-260.54 653.41,-239.82 669.85,-184 675.7,-164.17 663.26,-141.22 655.14,-129.07"/>
<polygon fill="#63b8ff" stroke="#63b8ff" points="453.14,-333.88 443.39,-338.02 453.59,-340.87 453.14,-333.88"/>
</g>
<!-- Node14 -->
<g id="node14" class="node">
<title>Node14</title>
<g id="a_node14"><a xlink:href="winds_8h.html" target="_top" xlink:title="Routines used to compute kinematic attributes and indices of vertical sounding profiles.">
<polygon fill="white" stroke="#666666" points="644.85,-184 590.85,-184 590.85,-165 644.85,-165 644.85,-184"/>
<text text-anchor="middle" x="617.85" y="-172" font-family="Helvetica,sans-Serif" font-size="10.00">winds.h</text>
</a>
</g>
</g>
<!-- Node1&#45;&gt;Node14 -->
<g id="edge43" class="edge">
<title>Node1&#45;&gt;Node14</title>
<path fill="none" stroke="#63b8ff" d="M453.65,-337.86C491.39,-334.89 543.5,-324.88 576.85,-294 609.6,-263.68 616.19,-205.93 617.52,-184.13"/>
<polygon fill="#63b8ff" stroke="#63b8ff" points="453.17,-334.38 443.41,-338.52 453.62,-341.37 453.17,-334.38"/>
</g>
<!-- Node3&#45;&gt;Node2 -->
<g id="edge3" class="edge">
<title>Node3&#45;&gt;Node2</title>
<path fill="none" stroke="#63b8ff" d="M194.02,-46.1C199.83,-37.04 206.67,-26.37 211.34,-19.09"/>
<polygon fill="#63b8ff" stroke="#63b8ff" points="190.92,-44.44 188.47,-54.75 196.81,-48.22 190.92,-44.44"/>
</g>
<!-- Node6&#45;&gt;Node5 -->
<g id="edge7" class="edge">
<title>Node6&#45;&gt;Node5</title>
<path fill="none" stroke="#63b8ff" d="M369.47,-278.01C298.52,-267.59 145.47,-245.13 78.43,-235.28"/>
<polygon fill="#63b8ff" stroke="#63b8ff" points="369.32,-281.53 379.72,-279.52 370.34,-274.6 369.32,-281.53"/>
</g>
<!-- Node6&#45;&gt;Node7 -->
<g id="edge8" class="edge">
<title>Node6&#45;&gt;Node7</title>
<path fill="none" stroke="#63b8ff" d="M416.55,-265.76C429.37,-242.28 451.48,-201.81 461.12,-184.16"/>
<polygon fill="#63b8ff" stroke="#63b8ff" points="413.41,-264.21 411.68,-274.66 419.55,-267.56 413.41,-264.21"/>
</g>
<!-- Node6&#45;&gt;Node8 -->
<g id="edge9" class="edge">
<title>Node6&#45;&gt;Node8</title>
<path fill="none" stroke="#63b8ff" d="M386.28,-269.15C372.54,-259.57 354.93,-247.29 343.29,-239.17"/>
<polygon fill="#63b8ff" stroke="#63b8ff" points="384.44,-272.14 394.64,-274.98 388.44,-266.39 384.44,-272.14"/>
</g>
<!-- Node6&#45;&gt;Node9 -->
<g id="edge30" class="edge">
<title>Node6&#45;&gt;Node9</title>
<path fill="none" stroke="#63b8ff" d="M432.85,-269.95C468.05,-249.62 524.38,-208.89 504.85,-165 479.53,-108.07 404.89,-82.39 360.72,-71.9"/>
<polygon fill="#63b8ff" stroke="#63b8ff" points="431.01,-266.97 423.99,-274.9 434.42,-273.08 431.01,-266.97"/>
</g>
<!-- Node6&#45;&gt;Node10 -->
<g id="edge31" class="edge">
<title>Node6&#45;&gt;Node10</title>
<path fill="none" stroke="#63b8ff" d="M369.64,-280.12C312.04,-272.89 201.51,-250.67 139.85,-184 125.35,-168.31 120.85,-142.37 119.46,-129.02"/>
<polygon fill="#63b8ff" stroke="#63b8ff" points="369.42,-283.62 379.76,-281.31 370.23,-276.67 369.42,-283.62"/>
</g>
<!-- Node6&#45;&gt;Node11 -->
<g id="edge32" class="edge">
<title>Node6&#45;&gt;Node11</title>
<path fill="none" stroke="#63b8ff" d="M405.92,-264.37C404.18,-229.03 400.54,-154.79 399.29,-129.31"/>
<polygon fill="#63b8ff" stroke="#63b8ff" points="402.44,-264.92 406.42,-274.74 409.43,-264.58 402.44,-264.92"/>
</g>
<!-- Node6&#45;&gt;Node12 -->
<g id="edge33" class="edge">
<title>Node6&#45;&gt;Node12</title>
<path fill="none" stroke="#63b8ff" d="M369.83,-272.71C347.58,-265.24 319.32,-253.94 296.85,-239 273.32,-223.35 251.41,-197.86 240.7,-184.43"/>
<polygon fill="#63b8ff" stroke="#63b8ff" points="369,-276.12 379.59,-275.88 371.16,-269.46 369,-276.12"/>
</g>
<!-- Node6&#45;&gt;Node13 -->
<g id="edge34" class="edge">
<title>Node6&#45;&gt;Node13</title>
<path fill="none" stroke="#63b8ff" d="M444.25,-282.04C502.55,-277.42 612.69,-258.72 653.85,-184 663.46,-166.57 657.09,-142.25 652.45,-129.36"/>
<polygon fill="#63b8ff" stroke="#63b8ff" points="443.73,-278.56 433.99,-282.74 444.21,-285.55 443.73,-278.56"/>
</g>
<!-- Node6&#45;&gt;Node14 -->
<g id="edge35" class="edge">
<title>Node6&#45;&gt;Node14</title>
<path fill="none" stroke="#63b8ff" d="M443.97,-274.75C471.25,-267.44 508.67,-255.53 538.85,-239 567.25,-223.45 595.64,-197.45 609.36,-184.05"/>
<polygon fill="#63b8ff" stroke="#63b8ff" points="442.84,-271.43 434.05,-277.33 444.6,-278.2 442.84,-271.43"/>
</g>
<!-- Node8&#45;&gt;Node2 -->
<g id="edge10" class="edge">
<title>Node8&#45;&gt;Node2</title>
<path fill="none" stroke="#63b8ff" d="M295.44,-228.22C235.35,-225.49 116.54,-209.69 81.85,-129 58.39,-74.42 144.6,-35.45 190.26,-19.08"/>
<polygon fill="#63b8ff" stroke="#63b8ff" points="295.48,-231.72 305.6,-228.58 295.73,-224.73 295.48,-231.72"/>
</g>
<!-- Node8&#45;&gt;Node3 -->
<g id="edge11" class="edge">
<title>Node8&#45;&gt;Node3</title>
<path fill="none" stroke="#63b8ff" d="M295.55,-227.37C263.69,-224.31 218.2,-214.44 193.85,-184 167.53,-151.08 176.17,-95.38 180.77,-74.11"/>
<polygon fill="#63b8ff" stroke="#63b8ff" points="295.54,-230.88 305.78,-228.17 296.09,-223.9 295.54,-230.88"/>
</g>
<!-- Node8&#45;&gt;Node7 -->
<g id="edge12" class="edge">
<title>Node8&#45;&gt;Node7</title>
<path fill="none" stroke="#63b8ff" d="M361.95,-216.29C386.97,-206.47 421.51,-192.91 443.77,-184.17"/>
<polygon fill="#63b8ff" stroke="#63b8ff" points="360.57,-213.07 352.54,-219.98 363.13,-219.59 360.57,-213.07"/>
</g>
<!-- Node8&#45;&gt;Node9 -->
<g id="edge13" class="edge">
<title>Node8&#45;&gt;Node9</title>
<path fill="none" stroke="#63b8ff" d="M330.39,-209.37C329.52,-174.03 327.7,-99.79 327.07,-74.31"/>
<polygon fill="#63b8ff" stroke="#63b8ff" points="326.9,-209.83 330.64,-219.74 333.89,-209.65 326.9,-209.83"/>
</g>
<!-- Node8&#45;&gt;Node10 -->
<g id="edge14" class="edge">
<title>Node8&#45;&gt;Node10</title>
<path fill="none" stroke="#63b8ff" d="M295.5,-226.57C258.77,-223 201.16,-212.85 160.85,-184 141.08,-169.84 128.03,-143.23 122.26,-129.38"/>
<polygon fill="#63b8ff" stroke="#63b8ff" points="295.46,-230.08 305.72,-227.45 296.06,-223.11 295.46,-230.08"/>
</g>
<!-- Node8&#45;&gt;Node11 -->
<g id="edge18" class="edge">
<title>Node8&#45;&gt;Node11</title>
<path fill="none" stroke="#63b8ff" d="M335.63,-209.93C339.54,-196.73 345.9,-178.95 354.85,-165 364.01,-150.74 378.35,-137.33 388.15,-129.04"/>
<polygon fill="#63b8ff" stroke="#63b8ff" points="332.21,-209.18 332.92,-219.75 338.95,-211.05 332.21,-209.18"/>
</g>
<!-- Node8&#45;&gt;Node12 -->
<g id="edge19" class="edge">
<title>Node8&#45;&gt;Node12</title>
<path fill="none" stroke="#63b8ff" d="M306.08,-214.97C288.35,-205.28 265.01,-192.52 249.72,-184.17"/>
<polygon fill="#63b8ff" stroke="#63b8ff" points="304.82,-218.26 315.27,-219.98 308.17,-212.12 304.82,-218.26"/>
</g>
<!-- Node8&#45;&gt;Node13 -->
<g id="edge25" class="edge">
<title>Node8&#45;&gt;Node13</title>
<path fill="none" stroke="#63b8ff" d="M348.89,-213.26C367.13,-198.65 396.72,-177.08 425.85,-165 490.22,-138.31 571.83,-127.27 616.32,-122.99"/>
<polygon fill="#63b8ff" stroke="#63b8ff" points="346.42,-210.76 340.9,-219.8 350.86,-216.17 346.42,-210.76"/>
</g>
<!-- Node8&#45;&gt;Node14 -->
<g id="edge26" class="edge">
<title>Node8&#45;&gt;Node14</title>
<path fill="none" stroke="#63b8ff" d="M366.23,-221.97C424.29,-211.25 538.54,-190.15 590.72,-180.51"/>
<polygon fill="#63b8ff" stroke="#63b8ff" points="365.27,-218.59 356.07,-223.84 366.54,-225.47 365.27,-218.59"/>
</g>
<!-- Node10&#45;&gt;Node2 -->
<g id="edge15" class="edge">
<title>Node10&#45;&gt;Node2</title>
<path fill="none" stroke="#63b8ff" d="M119.29,-99.58C120.5,-85.94 124.04,-67.77 133.85,-55 147.41,-37.37 169.98,-25.91 188.17,-19.05"/>
<polygon fill="#63b8ff" stroke="#63b8ff" points="115.79,-99.57 118.74,-109.75 122.78,-99.95 115.79,-99.57"/>
</g>
<!-- Node10&#45;&gt;Node3 -->
<g id="edge16" class="edge">
<title>Node10&#45;&gt;Node3</title>
<path fill="none" stroke="#63b8ff" d="M136.85,-103.6C148.31,-94.11 162.77,-82.13 172.38,-74.17"/>
<polygon fill="#63b8ff" stroke="#63b8ff" points="134.61,-100.91 129.14,-109.98 139.07,-106.3 134.61,-100.91"/>
</g>
<!-- Node10&#45;&gt;Node9 -->
<g id="edge17" class="edge">
<title>Node10&#45;&gt;Node9</title>
<path fill="none" stroke="#63b8ff" d="M156.84,-108.82C195.89,-98.87 256.11,-83.53 293.41,-74.02"/>
<polygon fill="#63b8ff" stroke="#63b8ff" points="155.73,-105.49 146.91,-111.35 157.46,-112.27 155.73,-105.49"/>
</g>
<!-- Node12&#45;&gt;Node2 -->
<g id="edge20" class="edge">
<title>Node12&#45;&gt;Node2</title>
<path fill="none" stroke="#63b8ff" d="M234.99,-154.5C236.03,-130.97 236.64,-89.73 230.85,-55 228.73,-42.22 223.79,-28.03 220.39,-19.19"/>
<polygon fill="#63b8ff" stroke="#63b8ff" points="231.48,-154.63 234.46,-164.8 238.47,-154.99 231.48,-154.63"/>
</g>
<!-- Node12&#45;&gt;Node3 -->
<g id="edge21" class="edge">
<title>Node12&#45;&gt;Node3</title>
<path fill="none" stroke="#63b8ff" d="M225.33,-155.44C214.22,-131.92 195.24,-91.73 186.94,-74.16"/>
<polygon fill="#63b8ff" stroke="#63b8ff" points="222.25,-157.11 229.68,-164.66 228.58,-154.12 222.25,-157.11"/>
</g>
<!-- Node12&#45;&gt;Node9 -->
<g id="edge22" class="edge">
<title>Node12&#45;&gt;Node9</title>
<path fill="none" stroke="#63b8ff" d="M248.06,-157C268.1,-133.73 303.92,-92.13 319.4,-74.16"/>
<polygon fill="#63b8ff" stroke="#63b8ff" points="245.34,-154.8 241.47,-164.66 250.64,-159.37 245.34,-154.8"/>
</g>
<!-- Node12&#45;&gt;Node10 -->
<g id="edge23" class="edge">
<title>Node12&#45;&gt;Node10</title>
<path fill="none" stroke="#63b8ff" d="M206.22,-160.77C185.01,-150.99 156.29,-137.75 137.67,-129.17"/>
<polygon fill="#63b8ff" stroke="#63b8ff" points="204.83,-163.98 215.38,-164.98 207.76,-157.62 204.83,-163.98"/>
</g>
<!-- Node12&#45;&gt;Node11 -->
<g id="edge24" class="edge">
<title>Node12&#45;&gt;Node11</title>
<path fill="none" stroke="#63b8ff" d="M270.28,-161.8C301.08,-151.91 344.48,-137.97 372.14,-129.08"/>
<polygon fill="#63b8ff" stroke="#63b8ff" points="268.82,-158.59 260.36,-164.98 270.96,-165.26 268.82,-158.59"/>
</g>
<!-- Node14&#45;&gt;Node2 -->
<g id="edge27" class="edge">
<title>Node14&#45;&gt;Node2</title>
<path fill="none" stroke="#63b8ff" d="M601.95,-157.77C586.83,-143.57 562.89,-122.98 538.85,-110 446.82,-60.32 326.32,-31.51 261.98,-18.64"/>
<polygon fill="#63b8ff" stroke="#63b8ff" points="599.75,-160.5 609.38,-164.91 604.6,-155.46 599.75,-160.5"/>
</g>
<!-- Node14&#45;&gt;Node3 -->
<g id="edge28" class="edge">
<title>Node14&#45;&gt;Node3</title>
<path fill="none" stroke="#63b8ff" d="M588.77,-161.04C554.64,-146.85 496.05,-123.85 443.85,-110 366.77,-89.54 274.29,-76.38 222.69,-70.01"/>
<polygon fill="#63b8ff" stroke="#63b8ff" points="587.56,-164.33 598.14,-164.97 590.27,-157.87 587.56,-164.33"/>
</g>
<!-- Node14&#45;&gt;Node13 -->
<g id="edge29" class="edge">
<title>Node14&#45;&gt;Node13</title>
<path fill="none" stroke="#63b8ff" d="M628.03,-156.1C633.33,-147.04 639.57,-136.37 643.83,-129.09"/>
<polygon fill="#63b8ff" stroke="#63b8ff" points="625,-154.35 622.97,-164.75 631.04,-157.88 625,-154.35"/>
</g>
</g>
</svg>
