<?xml version="1.0" encoding="UTF-8" standalone="no"?>
<!DOCTYPE svg PUBLIC "-//W3C//DTD SVG 1.1//EN"
 "http://www.w3.org/Graphics/SVG/1.1/DTD/svg11.dtd">
<!-- Generated by graphviz version 2.43.0 (0)
 -->
<!-- Title: constants.h Pages: 1 -->
<svg width="810pt" height="302pt"
 viewBox="0.00 0.00 810.00 302.00" xmlns="http://www.w3.org/2000/svg" xmlns:xlink="http://www.w3.org/1999/xlink">
<g id="graph0" class="graph" transform="scale(1 1) rotate(0) translate(4 298)">
<title>constants.h</title>
<!-- Node1 -->
<g id="node1" class="node">
<title>Node1</title>
<g id="a_node1"><a xlink:title="Meteorological constants useful for computations with vertical atmospheric sounding profiles.">
<polygon fill="#999999" stroke="#666666" points="389.5,-294 316.5,-294 316.5,-275 389.5,-275 389.5,-294"/>
<text text-anchor="middle" x="353" y="-282" font-family="Helvetica,sans-Serif" font-size="10.00">constants.h</text>
</a>
</g>
</g>
<!-- Node2 -->
<g id="node2" class="node">
<title>Node2</title>
<g id="a_node2"><a xlink:href="convective_8cpp.html" target="_top" xlink:title="Routines used to computed derived sounding parameters from vertical atmospheric profiles.">
<polygon fill="white" stroke="#666666" points="374,-19 284,-19 284,0 374,0 374,-19"/>
<text text-anchor="middle" x="329" y="-7" font-family="Helvetica,sans-Serif" font-size="10.00">convective.cpp</text>
</a>
</g>
</g>
<!-- Node1&#45;&gt;Node2 -->
<g id="edge1" class="edge">
<title>Node1&#45;&gt;Node2</title>
<path fill="none" stroke="#63b8ff" d="M400.11,-281.06C508.05,-274.18 764,-250.02 764,-175.5 764,-175.5 764,-175.5 764,-118.5 764,-78.67 485.74,-33.47 374.32,-16.96"/>
<polygon fill="#63b8ff" stroke="#63b8ff" points="399.6,-277.58 389.84,-281.69 400.03,-284.57 399.6,-277.58"/>
</g>
<!-- Node3 -->
<g id="node3" class="node">
<title>Node3</title>
<g id="a_node3"><a xlink:href="convective_8h.html" target="_top" xlink:title="Routines used to computed derived sounding parameters from vertical atmospheric profiles.">
<polygon fill="white" stroke="#666666" points="254.5,-19 175.5,-19 175.5,0 254.5,0 254.5,-19"/>
<text text-anchor="middle" x="215" y="-7" font-family="Helvetica,sans-Serif" font-size="10.00">convective.h</text>
</a>
</g>
</g>
<!-- Node1&#45;&gt;Node3 -->
<g id="edge2" class="edge">
<title>Node1&#45;&gt;Node3</title>
<path fill="none" stroke="#63b8ff" d="M306.2,-279.08C210.21,-268.72 0,-238.8 0,-175.5 0,-175.5 0,-175.5 0,-118.5 0,-40.91 113.19,-19.06 175.32,-12.91"/>
<polygon fill="#63b8ff" stroke="#63b8ff" points="305.91,-282.57 316.22,-280.14 306.64,-275.61 305.91,-282.57"/>
</g>
<!-- Node4 -->
<g id="node4" class="node">
<title>Node4</title>
<g id="a_node4"><a xlink:href="interp_8cpp.html" target="_top" xlink:title="Routines for linear interpolation of vertical atmospheric profiles.">
<polygon fill="white" stroke="#666666" points="207.5,-184 142.5,-184 142.5,-165 207.5,-165 207.5,-184"/>
<text text-anchor="middle" x="175" y="-172" font-family="Helvetica,sans-Serif" font-size="10.00">interp.cpp</text>
</a>
</g>
</g>
<!-- Node1&#45;&gt;Node4 -->
<g id="edge3" class="edge">
<title>Node1&#45;&gt;Node4</title>
<path fill="none" stroke="#63b8ff" d="M330.07,-269.59C292.79,-246.97 220.12,-202.88 189.33,-184.2"/>
<polygon fill="#63b8ff" stroke="#63b8ff" points="328.37,-272.65 338.73,-274.84 332,-266.66 328.37,-272.65"/>
</g>
<!-- Node5 -->
<g id="node5" class="node">
<title>Node5</title>
<g id="a_node5"><a xlink:href="interp_8h.html" target="_top" xlink:title="Routines for linear interpolation of vertical atmospheric profiles.">
<polygon fill="white" stroke="#666666" points="408,-239 354,-239 354,-220 408,-220 408,-239"/>
<text text-anchor="middle" x="381" y="-227" font-family="Helvetica,sans-Serif" font-size="10.00">interp.h</text>
</a>
</g>
</g>
<!-- Node1&#45;&gt;Node5 -->
<g id="edge4" class="edge">
<title>Node1&#45;&gt;Node5</title>
<path fill="none" stroke="#63b8ff" d="M362.34,-265.82C367.09,-256.82 372.66,-246.29 376.46,-239.09"/>
<polygon fill="#63b8ff" stroke="#63b8ff" points="359.2,-264.27 357.62,-274.75 365.39,-267.54 359.2,-264.27"/>
</g>
<!-- Node6 -->
<g id="node6" class="node">
<title>Node6</title>
<g id="a_node6"><a xlink:href="layer_8cpp.html" target="_top" xlink:title="Utilities and structures useful for grouping objects, conducting QC, and things that otherwise don&#39;t ...">
<polygon fill="white" stroke="#666666" points="621.5,-129 560.5,-129 560.5,-110 621.5,-110 621.5,-129"/>
<text text-anchor="middle" x="591" y="-117" font-family="Helvetica,sans-Serif" font-size="10.00">layer.cpp</text>
</a>
</g>
</g>
<!-- Node1&#45;&gt;Node6 -->
<g id="edge34" class="edge">
<title>Node1&#45;&gt;Node6</title>
<path fill="none" stroke="#63b8ff" d="M392.13,-271.76C435.83,-257.05 506.62,-228.27 554,-184 570.97,-168.15 582.51,-142.74 587.77,-129.38"/>
<polygon fill="#63b8ff" stroke="#63b8ff" points="390.85,-268.49 382.44,-274.94 393.03,-275.14 390.85,-268.49"/>
</g>
<!-- Node7 -->
<g id="node7" class="node">
<title>Node7</title>
<g id="a_node7"><a xlink:href="layer_8h.html" target="_top" xlink:title="Data structures and functions for performing operations over atmospheric layers.">
<polygon fill="white" stroke="#666666" points="352,-184 302,-184 302,-165 352,-165 352,-184"/>
<text text-anchor="middle" x="327" y="-172" font-family="Helvetica,sans-Serif" font-size="10.00">layer.h</text>
</a>
</g>
</g>
<!-- Node1&#45;&gt;Node7 -->
<g id="edge35" class="edge">
<title>Node1&#45;&gt;Node7</title>
<path fill="none" stroke="#63b8ff" d="M348.5,-264.8C342.82,-241.2 333.28,-201.58 329.08,-184.16"/>
<polygon fill="#63b8ff" stroke="#63b8ff" points="345.13,-265.76 350.87,-274.66 351.93,-264.12 345.13,-265.76"/>
</g>
<!-- Node8 -->
<g id="node8" class="node">
<title>Node8</title>
<g id="a_node8"><a xlink:href="parcel_8cpp.html" target="_top" xlink:title="Routines used for parcel lifting and integration.">
<polygon fill="white" stroke="#666666" points="512.5,-19 445.5,-19 445.5,0 512.5,0 512.5,-19"/>
<text text-anchor="middle" x="479" y="-7" font-family="Helvetica,sans-Serif" font-size="10.00">parcel.cpp</text>
</a>
</g>
</g>
<!-- Node1&#45;&gt;Node8 -->
<g id="edge36" class="edge">
<title>Node1&#45;&gt;Node8</title>
<path fill="none" stroke="#63b8ff" d="M400.01,-282.11C515.17,-277.42 802,-257.52 802,-175.5 802,-175.5 802,-175.5 802,-118.5 802,-57.97 595.38,-25.18 512.65,-14.47"/>
<polygon fill="#63b8ff" stroke="#63b8ff" points="399.6,-278.62 389.74,-282.5 399.87,-285.61 399.6,-278.62"/>
</g>
<!-- Node9 -->
<g id="node9" class="node">
<title>Node9</title>
<g id="a_node9"><a xlink:href="parcel_8h.html" target="_top" xlink:title="Routines used for parcel lifting and integration.">
<polygon fill="white" stroke="#666666" points="451,-74 395,-74 395,-55 451,-55 451,-74"/>
<text text-anchor="middle" x="423" y="-62" font-family="Helvetica,sans-Serif" font-size="10.00">parcel.h</text>
</a>
</g>
</g>
<!-- Node1&#45;&gt;Node9 -->
<g id="edge37" class="edge">
<title>Node1&#45;&gt;Node9</title>
<path fill="none" stroke="#63b8ff" d="M399.61,-275.44C468.14,-260.63 592.14,-221.63 631,-129 634.27,-121.21 636.31,-116.57 631,-110 619.71,-96.04 505.51,-77.6 451.29,-69.55"/>
<polygon fill="#63b8ff" stroke="#63b8ff" points="398.6,-272.08 389.52,-277.54 400.02,-278.93 398.6,-272.08"/>
</g>
<!-- Node10 -->
<g id="node10" class="node">
<title>Node10</title>
<g id="a_node10"><a xlink:href="thermo_8cpp.html" target="_top" xlink:title="Thermodynamic routines that do not directly involve parcel based ascent.">
<polygon fill="white" stroke="#666666" points="579,-74 507,-74 507,-55 579,-55 579,-74"/>
<text text-anchor="middle" x="543" y="-62" font-family="Helvetica,sans-Serif" font-size="10.00">thermo.cpp</text>
</a>
</g>
</g>
<!-- Node1&#45;&gt;Node10 -->
<g id="edge38" class="edge">
<title>Node1&#45;&gt;Node10</title>
<path fill="none" stroke="#63b8ff" d="M399.72,-277.9C439.07,-271.95 496.12,-260.33 542,-239 579.16,-221.72 589.12,-214.93 616,-184 639.28,-157.21 665.49,-139.66 646,-110 631.23,-87.54 602.46,-76.36 579.07,-70.83"/>
<polygon fill="#63b8ff" stroke="#63b8ff" points="399.01,-274.47 389.62,-279.37 400.02,-281.4 399.01,-274.47"/>
</g>
<!-- Node11 -->
<g id="node11" class="node">
<title>Node11</title>
<g id="a_node11"><a xlink:href="thermo_8h.html" target="_top" xlink:title="Routines used to compute thermodynamic attributes of vertical sounding profiles.">
<polygon fill="white" stroke="#666666" points="351.5,-129 290.5,-129 290.5,-110 351.5,-110 351.5,-129"/>
<text text-anchor="middle" x="321" y="-117" font-family="Helvetica,sans-Serif" font-size="10.00">thermo.h</text>
</a>
</g>
</g>
<!-- Node1&#45;&gt;Node11 -->
<g id="edge39" class="edge">
<title>Node1&#45;&gt;Node11</title>
<path fill="none" stroke="#63b8ff" d="M306.09,-277.35C253.51,-267.67 170.7,-243.39 133,-184 96.53,-126.56 228.23,-119.95 290.32,-119.93"/>
<polygon fill="#63b8ff" stroke="#63b8ff" points="305.73,-280.84 316.18,-279.1 306.92,-273.95 305.73,-280.84"/>
</g>
<!-- Node12 -->
<g id="node12" class="node">
<title>Node12</title>
<g id="a_node12"><a xlink:href="winds_8cpp.html" target="_top" xlink:title="Routines used to compute kinematic attributes and indices of vertical sounding profiles.">
<polygon fill="white" stroke="#666666" points="186.5,-74 121.5,-74 121.5,-55 186.5,-55 186.5,-74"/>
<text text-anchor="middle" x="154" y="-62" font-family="Helvetica,sans-Serif" font-size="10.00">winds.cpp</text>
</a>
</g>
</g>
<!-- Node1&#45;&gt;Node12 -->
<g id="edge40" class="edge">
<title>Node1&#45;&gt;Node12</title>
<path fill="none" stroke="#63b8ff" d="M305.97,-283.01C260.29,-280.5 190.61,-271.1 140,-239 82.43,-202.49 20.19,-167.38 57,-110 71.1,-88.01 99.1,-76.74 121.4,-71.06"/>
<polygon fill="#63b8ff" stroke="#63b8ff" points="306.04,-286.52 316.19,-283.48 306.36,-279.53 306.04,-286.52"/>
</g>
<!-- Node13 -->
<g id="node13" class="node">
<title>Node13</title>
<g id="a_node13"><a xlink:href="winds_8h.html" target="_top" xlink:title="Routines used to compute kinematic attributes and indices of vertical sounding profiles.">
<polygon fill="white" stroke="#666666" points="120,-129 66,-129 66,-110 120,-110 120,-129"/>
<text text-anchor="middle" x="93" y="-117" font-family="Helvetica,sans-Serif" font-size="10.00">winds.h</text>
</a>
</g>
</g>
<!-- Node1&#45;&gt;Node13 -->
<g id="edge41" class="edge">
<title>Node1&#45;&gt;Node13</title>
<path fill="none" stroke="#63b8ff" d="M306.22,-281.59C265.39,-277.92 206.1,-267.61 163,-239 121.99,-211.78 101.65,-151.63 95.27,-129.18"/>
<polygon fill="#63b8ff" stroke="#63b8ff" points="306.19,-285.1 316.44,-282.4 306.74,-278.12 306.19,-285.1"/>
</g>
<!-- Node5&#45;&gt;Node4 -->
<g id="edge5" class="edge">
<title>Node5&#45;&gt;Node4</title>
<path fill="none" stroke="#63b8ff" d="M343.77,-218.92C304.92,-208.93 244.59,-193.4 207.57,-183.88"/>
<polygon fill="#63b8ff" stroke="#63b8ff" points="343.09,-222.36 353.64,-221.46 344.83,-215.58 343.09,-222.36"/>
</g>
<!-- Node5&#45;&gt;Node6 -->
<g id="edge6" class="edge">
<title>Node5&#45;&gt;Node6</title>
<path fill="none" stroke="#63b8ff" d="M418.1,-222.72C449.39,-216.62 494.47,-204.92 529,-184 553.25,-169.31 574.67,-142.93 584.8,-129.26"/>
<polygon fill="#63b8ff" stroke="#63b8ff" points="417.25,-219.31 408.05,-224.57 418.52,-226.2 417.25,-219.31"/>
</g>
<!-- Node5&#45;&gt;Node7 -->
<g id="edge7" class="edge">
<title>Node5&#45;&gt;Node7</title>
<path fill="none" stroke="#63b8ff" d="M364.72,-212.52C355.2,-203.18 343.56,-191.75 335.75,-184.09"/>
<polygon fill="#63b8ff" stroke="#63b8ff" points="362.49,-215.24 372.08,-219.75 367.4,-210.25 362.49,-215.24"/>
</g>
<!-- Node5&#45;&gt;Node8 -->
<g id="edge28" class="edge">
<title>Node5&#45;&gt;Node8</title>
<path fill="none" stroke="#63b8ff" d="M418.09,-227.57C477.48,-223.75 591.28,-206.19 631,-129 659.94,-72.77 563.3,-34.98 510.73,-19.05"/>
<polygon fill="#63b8ff" stroke="#63b8ff" points="417.8,-224.08 408.01,-228.12 418.18,-231.07 417.8,-224.08"/>
</g>
<!-- Node5&#45;&gt;Node9 -->
<g id="edge29" class="edge">
<title>Node5&#45;&gt;Node9</title>
<path fill="none" stroke="#63b8ff" d="M385.81,-209.83C394.87,-174.67 414.14,-99.9 420.73,-74.31"/>
<polygon fill="#63b8ff" stroke="#63b8ff" points="382.36,-209.18 383.26,-219.74 389.14,-210.93 382.36,-209.18"/>
</g>
<!-- Node5&#45;&gt;Node10 -->
<g id="edge30" class="edge">
<title>Node5&#45;&gt;Node10</title>
<path fill="none" stroke="#63b8ff" d="M401.33,-213.71C425.79,-195.38 467.37,-162.46 498,-129 514.42,-111.06 530,-86.96 537.8,-74.22"/>
<polygon fill="#63b8ff" stroke="#63b8ff" points="399.1,-211.01 393.15,-219.78 403.26,-216.64 399.1,-211.01"/>
</g>
<!-- Node5&#45;&gt;Node11 -->
<g id="edge31" class="edge">
<title>Node5&#45;&gt;Node11</title>
<path fill="none" stroke="#63b8ff" d="M377.38,-210.03C374.3,-196.88 369.06,-179.12 361,-165 352.97,-150.93 339.87,-137.48 330.86,-129.12"/>
<polygon fill="#63b8ff" stroke="#63b8ff" points="373.96,-210.77 379.49,-219.81 380.81,-209.3 373.96,-210.77"/>
</g>
<!-- Node5&#45;&gt;Node12 -->
<g id="edge32" class="edge">
<title>Node5&#45;&gt;Node12</title>
<path fill="none" stroke="#63b8ff" d="M354.12,-215.34C302.18,-189.83 192.52,-135.57 186,-129 170.18,-113.05 160.68,-87.68 156.51,-74.35"/>
<polygon fill="#63b8ff" stroke="#63b8ff" points="352.88,-218.63 363.4,-219.89 355.97,-212.35 352.88,-218.63"/>
</g>
<!-- Node5&#45;&gt;Node13 -->
<g id="edge33" class="edge">
<title>Node5&#45;&gt;Node13</title>
<path fill="none" stroke="#63b8ff" d="M346.77,-216.48C322.44,-207.8 289.05,-195.6 260,-184 240.22,-176.1 235.8,-172.85 216,-165 182.43,-151.69 143.12,-137.75 118.14,-129.09"/>
<polygon fill="#63b8ff" stroke="#63b8ff" points="345.69,-219.81 356.28,-219.86 348.03,-213.21 345.69,-219.81"/>
</g>
<!-- Node7&#45;&gt;Node2 -->
<g id="edge8" class="edge">
<title>Node7&#45;&gt;Node2</title>
<path fill="none" stroke="#63b8ff" d="M305.01,-158.55C295.75,-150.91 285.98,-140.75 281,-129 277.7,-121.23 279.12,-118.23 281,-110 289.25,-73.91 312.34,-35.69 323.21,-19.06"/>
<polygon fill="#63b8ff" stroke="#63b8ff" points="303.15,-161.53 313.22,-164.82 307.4,-155.97 303.15,-161.53"/>
</g>
<!-- Node7&#45;&gt;Node3 -->
<g id="edge9" class="edge">
<title>Node7&#45;&gt;Node3</title>
<path fill="none" stroke="#63b8ff" d="M306.25,-158.39C296.27,-150.42 284.63,-140.02 276,-129 247.18,-92.2 225.86,-39.7 218.15,-19.18"/>
<polygon fill="#63b8ff" stroke="#63b8ff" points="304.42,-161.39 314.48,-164.72 308.69,-155.85 304.42,-161.39"/>
</g>
<!-- Node7&#45;&gt;Node6 -->
<g id="edge10" class="edge">
<title>Node7&#45;&gt;Node6</title>
<path fill="none" stroke="#63b8ff" d="M362.41,-166.39C414.46,-155.94 510.78,-136.6 560.12,-126.7"/>
<polygon fill="#63b8ff" stroke="#63b8ff" points="361.43,-163.02 352.31,-168.42 362.81,-169.88 361.43,-163.02"/>
</g>
<!-- Node7&#45;&gt;Node8 -->
<g id="edge11" class="edge">
<title>Node7&#45;&gt;Node8</title>
<path fill="none" stroke="#63b8ff" d="M354.21,-160.16C384.5,-143.93 432.77,-113.7 460,-74 471.85,-56.73 476.45,-31.92 478.12,-19.02"/>
<polygon fill="#63b8ff" stroke="#63b8ff" points="352.3,-157.21 345.05,-164.94 355.54,-163.42 352.3,-157.21"/>
</g>
<!-- Node7&#45;&gt;Node9 -->
<g id="edge12" class="edge">
<title>Node7&#45;&gt;Node9</title>
<path fill="none" stroke="#63b8ff" d="M341.67,-157C362.35,-133.73 399.33,-92.13 415.3,-74.16"/>
<polygon fill="#63b8ff" stroke="#63b8ff" points="338.88,-154.86 334.86,-164.66 344.12,-159.51 338.88,-154.86"/>
</g>
<!-- Node7&#45;&gt;Node10 -->
<g id="edge16" class="edge">
<title>Node7&#45;&gt;Node10</title>
<path fill="none" stroke="#63b8ff" d="M362.03,-166.86C392.02,-160.2 435.67,-148.15 470,-129 496.99,-113.94 522.9,-87.73 535.33,-74.17"/>
<polygon fill="#63b8ff" stroke="#63b8ff" points="361.07,-163.48 352.03,-168.99 362.54,-170.33 361.07,-163.48"/>
</g>
<!-- Node7&#45;&gt;Node11 -->
<g id="edge17" class="edge">
<title>Node7&#45;&gt;Node11</title>
<path fill="none" stroke="#63b8ff" d="M324.87,-154.66C323.88,-145.93 322.75,-135.99 321.97,-129.09"/>
<polygon fill="#63b8ff" stroke="#63b8ff" points="321.41,-155.21 326.01,-164.75 328.36,-154.42 321.41,-155.21"/>
</g>
<!-- Node7&#45;&gt;Node12 -->
<g id="edge23" class="edge">
<title>Node7&#45;&gt;Node12</title>
<path fill="none" stroke="#63b8ff" d="M291.65,-164.91C267.25,-157.86 234.86,-146.22 210,-129 187.77,-113.6 168.56,-87.53 159.52,-74.09"/>
<polygon fill="#63b8ff" stroke="#63b8ff" points="291,-168.36 301.57,-167.65 292.86,-161.61 291,-168.36"/>
</g>
<!-- Node7&#45;&gt;Node13 -->
<g id="edge24" class="edge">
<title>Node7&#45;&gt;Node13</title>
<path fill="none" stroke="#63b8ff" d="M291.93,-165.56C244.93,-154.91 162.5,-136.24 120.01,-126.62"/>
<polygon fill="#63b8ff" stroke="#63b8ff" points="291.43,-169.03 301.96,-167.83 292.98,-162.21 291.43,-169.03"/>
</g>
<!-- Node9&#45;&gt;Node2 -->
<g id="edge13" class="edge">
<title>Node9&#45;&gt;Node2</title>
<path fill="none" stroke="#63b8ff" d="M399,-49.97C381.81,-40.28 359.19,-27.52 344.38,-19.17"/>
<polygon fill="#63b8ff" stroke="#63b8ff" points="397.47,-53.12 407.9,-54.98 400.91,-47.02 397.47,-53.12"/>
</g>
<!-- Node9&#45;&gt;Node3 -->
<g id="edge14" class="edge">
<title>Node9&#45;&gt;Node3</title>
<path fill="none" stroke="#63b8ff" d="M385.02,-53.82C345.97,-43.87 285.75,-28.53 248.44,-19.02"/>
<polygon fill="#63b8ff" stroke="#63b8ff" points="384.39,-57.27 394.95,-56.35 386.12,-50.49 384.39,-57.27"/>
</g>
<!-- Node9&#45;&gt;Node8 -->
<g id="edge15" class="edge">
<title>Node9&#45;&gt;Node8</title>
<path fill="none" stroke="#63b8ff" d="M439.33,-48.04C449.26,-38.64 461.59,-26.98 469.84,-19.17"/>
<polygon fill="#63b8ff" stroke="#63b8ff" points="436.85,-45.57 432,-54.98 441.67,-50.65 436.85,-45.57"/>
</g>
<!-- Node11&#45;&gt;Node2 -->
<g id="edge18" class="edge">
<title>Node11&#45;&gt;Node2</title>
<path fill="none" stroke="#63b8ff" d="M322.41,-99.48C324.16,-75.84 327.07,-36.5 328.36,-19.16"/>
<polygon fill="#63b8ff" stroke="#63b8ff" points="318.9,-99.43 321.65,-109.66 325.88,-99.95 318.9,-99.43"/>
</g>
<!-- Node11&#45;&gt;Node3 -->
<g id="edge19" class="edge">
<title>Node11&#45;&gt;Node3</title>
<path fill="none" stroke="#63b8ff" d="M305.1,-102.3C282.33,-79.1 241.21,-37.21 223.5,-19.16"/>
<polygon fill="#63b8ff" stroke="#63b8ff" points="302.82,-104.98 312.33,-109.66 307.82,-100.07 302.82,-104.98"/>
</g>
<!-- Node11&#45;&gt;Node8 -->
<g id="edge20" class="edge">
<title>Node11&#45;&gt;Node8</title>
<path fill="none" stroke="#63b8ff" d="M335.05,-102.03C347.44,-88.21 366.51,-68.62 386,-55 408.15,-39.52 436.53,-26.82 456.08,-19"/>
<polygon fill="#63b8ff" stroke="#63b8ff" points="332.22,-99.95 328.25,-109.77 337.48,-104.56 332.22,-99.95"/>
</g>
<!-- Node11&#45;&gt;Node9 -->
<g id="edge21" class="edge">
<title>Node11&#45;&gt;Node9</title>
<path fill="none" stroke="#63b8ff" d="M346.27,-105.37C365.01,-95.63 390.02,-82.64 406.31,-74.17"/>
<polygon fill="#63b8ff" stroke="#63b8ff" points="344.65,-102.27 337.39,-109.98 347.88,-108.48 344.65,-102.27"/>
</g>
<!-- Node11&#45;&gt;Node10 -->
<g id="edge22" class="edge">
<title>Node11&#45;&gt;Node10</title>
<path fill="none" stroke="#63b8ff" d="M361.69,-108.79C403.35,-98.84 467.48,-83.53 507.25,-74.03"/>
<polygon fill="#63b8ff" stroke="#63b8ff" points="360.78,-105.4 351.87,-111.13 362.41,-112.21 360.78,-105.4"/>
</g>
<!-- Node13&#45;&gt;Node2 -->
<g id="edge25" class="edge">
<title>Node13&#45;&gt;Node2</title>
<path fill="none" stroke="#63b8ff" d="M93.67,-99.45C95.22,-85.19 99.68,-66.28 112,-55 124.59,-43.48 224.04,-26.54 283.85,-17.24"/>
<polygon fill="#63b8ff" stroke="#63b8ff" points="90.16,-99.43 92.96,-109.65 97.15,-99.92 90.16,-99.43"/>
</g>
<!-- Node13&#45;&gt;Node3 -->
<g id="edge26" class="edge">
<title>Node13&#45;&gt;Node3</title>
<path fill="none" stroke="#63b8ff" d="M82.17,-100.92C75.28,-87.24 69.3,-68.39 79,-55 100.8,-24.93 143.52,-14.8 175.29,-11.58"/>
<polygon fill="#63b8ff" stroke="#63b8ff" points="79.21,-102.8 87.14,-109.82 85.32,-99.38 79.21,-102.8"/>
</g>
<!-- Node13&#45;&gt;Node12 -->
<g id="edge27" class="edge">
<title>Node13&#45;&gt;Node12</title>
<path fill="none" stroke="#63b8ff" d="M110.47,-103.32C121.34,-93.87 134.94,-82.06 144.02,-74.17"/>
<polygon fill="#63b8ff" stroke="#63b8ff" points="108.05,-100.78 102.8,-109.98 112.65,-106.07 108.05,-100.78"/>
</g>
</g>
</svg>
