<?xml version="1.0" encoding="UTF-8" standalone="no"?>
<!DOCTYPE svg PUBLIC "-//W3C//DTD SVG 1.1//EN"
 "http://www.w3.org/Graphics/SVG/1.1/DTD/svg11.dtd">
<!-- Generated by graphviz version 2.43.0 (0)
 -->
<!-- Title: convective.cpp Pages: 1 -->
<svg width="715pt" height="357pt"
 viewBox="0.00 0.00 714.50 357.00" xmlns="http://www.w3.org/2000/svg" xmlns:xlink="http://www.w3.org/1999/xlink">
<g id="graph0" class="graph" transform="scale(1 1) rotate(0) translate(4 353)">
<title>convective.cpp</title>
<!-- Node1 -->
<g id="node1" class="node">
<title>Node1</title>
<g id="a_node1"><a xlink:title="Routines used to computed derived sounding parameters from vertical atmospheric profiles.">
<polygon fill="#999999" stroke="#666666" points="479.5,-349 389.5,-349 389.5,-330 479.5,-330 479.5,-349"/>
<text text-anchor="middle" x="434.5" y="-337" font-family="Helvetica,sans-Serif" font-size="10.00">convective.cpp</text>
</a>
</g>
</g>
<!-- Node2 -->
<g id="node2" class="node">
<title>Node2</title>
<g id="a_node2"><a xlink:href="convective_8h.html" target="_top" xlink:title="Routines used to computed derived sounding parameters from vertical atmospheric profiles.">
<polygon fill="white" stroke="#666666" points="463,-294 296,-294 296,-275 463,-275 463,-294"/>
<text text-anchor="middle" x="379.5" y="-282" font-family="Helvetica,sans-Serif" font-size="10.00">SHARPlib/params/convective.h</text>
</a>
</g>
</g>
<!-- Node1&#45;&gt;Node2 -->
<g id="edge1" class="edge">
<title>Node1&#45;&gt;Node2</title>
<path fill="none" stroke="#63b8ff" d="M425.42,-329.75C417.41,-322.03 405.54,-310.6 395.88,-301.28"/>
<polygon fill="#63b8ff" stroke="#63b8ff" points="398.04,-298.51 388.41,-294.09 393.19,-303.55 398.04,-298.51"/>
</g>
<!-- Node3 -->
<g id="node3" class="node">
<title>Node3</title>
<g id="a_node3"><a xlink:href="constants_8h.html" target="_top" xlink:title="Meteorological constants useful for computations with vertical atmospheric sounding profiles.">
<polygon fill="white" stroke="#666666" points="653,-19 532,-19 532,0 653,0 653,-19"/>
<text text-anchor="middle" x="592.5" y="-7" font-family="Helvetica,sans-Serif" font-size="10.00">SHARPlib/constants.h</text>
</a>
</g>
</g>
<!-- Node1&#45;&gt;Node3 -->
<g id="edge32" class="edge">
<title>Node1&#45;&gt;Node3</title>
<path fill="none" stroke="#63b8ff" d="M479.72,-330.23C557.06,-314.78 706.5,-278.7 706.5,-230.5 706.5,-230.5 706.5,-230.5 706.5,-118.5 706.5,-72.47 656.92,-40.18 623.15,-23.53"/>
<polygon fill="#63b8ff" stroke="#63b8ff" points="624.21,-20.16 613.68,-19.05 621.22,-26.49 624.21,-20.16"/>
</g>
<!-- Node4 -->
<g id="node4" class="node">
<title>Node4</title>
<g id="a_node4"><a xlink:href="layer_8h.html" target="_top" xlink:title="Data structures and functions for performing operations over atmospheric layers.">
<polygon fill="white" stroke="#666666" points="217.5,-129 119.5,-129 119.5,-110 217.5,-110 217.5,-129"/>
<text text-anchor="middle" x="168.5" y="-117" font-family="Helvetica,sans-Serif" font-size="10.00">SHARPlib/layer.h</text>
</a>
</g>
</g>
<!-- Node1&#45;&gt;Node4 -->
<g id="edge33" class="edge">
<title>Node1&#45;&gt;Node4</title>
<path fill="none" stroke="#63b8ff" d="M389.18,-333.38C355.16,-327.86 308.61,-316.6 273.5,-294 219.91,-259.5 209.18,-241.41 181.5,-184 174.7,-169.89 171.45,-152.35 169.9,-139.28"/>
<polygon fill="#63b8ff" stroke="#63b8ff" points="173.37,-138.76 168.93,-129.14 166.4,-139.43 173.37,-138.76"/>
</g>
<!-- Node10 -->
<g id="node10" class="node">
<title>Node10</title>
<g id="a_node10"><a xlink:href="parcel_8h.html" target="_top" xlink:title="Routines used for parcel lifting and integration.">
<polygon fill="white" stroke="#666666" points="454.5,-239 350.5,-239 350.5,-220 454.5,-220 454.5,-239"/>
<text text-anchor="middle" x="402.5" y="-227" font-family="Helvetica,sans-Serif" font-size="10.00">SHARPlib/parcel.h</text>
</a>
</g>
</g>
<!-- Node1&#45;&gt;Node10 -->
<g id="edge34" class="edge">
<title>Node1&#45;&gt;Node10</title>
<path fill="none" stroke="#63b8ff" d="M446,-329.99C460.84,-317.91 483.51,-295.04 472.5,-275 464.73,-260.85 450.33,-250.56 436.61,-243.46"/>
<polygon fill="#63b8ff" stroke="#63b8ff" points="437.84,-240.17 427.31,-239.05 434.84,-246.49 437.84,-240.17"/>
</g>
<!-- Node11 -->
<g id="node11" class="node">
<title>Node11</title>
<g id="a_node11"><a xlink:href="thermo_8h.html" target="_top" xlink:title="Routines used to compute thermodynamic attributes of vertical sounding profiles.">
<polygon fill="white" stroke="#666666" points="540,-184 431,-184 431,-165 540,-165 540,-184"/>
<text text-anchor="middle" x="485.5" y="-172" font-family="Helvetica,sans-Serif" font-size="10.00">SHARPlib/thermo.h</text>
</a>
</g>
</g>
<!-- Node1&#45;&gt;Node11 -->
<g id="edge35" class="edge">
<title>Node1&#45;&gt;Node11</title>
<path fill="none" stroke="#63b8ff" d="M451.08,-329.87C463.67,-322.3 480.04,-310.01 487.5,-294 502.66,-261.48 496.24,-218.28 490.6,-194.04"/>
<polygon fill="#63b8ff" stroke="#63b8ff" points="493.92,-192.9 488.07,-184.06 487.14,-194.62 493.92,-192.9"/>
</g>
<!-- Node12 -->
<g id="node12" class="node">
<title>Node12</title>
<g id="a_node12"><a xlink:href="winds_8h.html" target="_top" xlink:title="Routines used to compute kinematic attributes and indices of vertical sounding profiles.">
<polygon fill="white" stroke="#666666" points="336.5,-184 234.5,-184 234.5,-165 336.5,-165 336.5,-184"/>
<text text-anchor="middle" x="285.5" y="-172" font-family="Helvetica,sans-Serif" font-size="10.00">SHARPlib/winds.h</text>
</a>
</g>
</g>
<!-- Node1&#45;&gt;Node12 -->
<g id="edge36" class="edge">
<title>Node1&#45;&gt;Node12</title>
<path fill="none" stroke="#63b8ff" d="M389.4,-338.12C355.48,-335.17 310.96,-325.07 287.5,-294 265.46,-264.82 273.06,-219.05 279.76,-193.79"/>
<polygon fill="#63b8ff" stroke="#63b8ff" points="283.17,-194.61 282.58,-184.04 276.44,-192.67 283.17,-194.61"/>
</g>
<!-- Node2&#45;&gt;Node3 -->
<g id="edge2" class="edge">
<title>Node2&#45;&gt;Node3</title>
<path fill="none" stroke="#63b8ff" d="M431.84,-274.99C515.12,-259.94 668.5,-225.45 668.5,-175.5 668.5,-175.5 668.5,-175.5 668.5,-118.5 668.5,-79.47 634.89,-44.58 612.37,-25.6"/>
<polygon fill="#63b8ff" stroke="#63b8ff" points="614.35,-22.7 604.38,-19.12 609.94,-28.14 614.35,-22.7"/>
</g>
<!-- Node2&#45;&gt;Node4 -->
<g id="edge3" class="edge">
<title>Node2&#45;&gt;Node4</title>
<path fill="none" stroke="#63b8ff" d="M353.67,-274.95C315.57,-261.19 244.02,-230.85 199.5,-184 187.36,-171.23 179.09,-152.8 174.16,-139.09"/>
<polygon fill="#63b8ff" stroke="#63b8ff" points="177.38,-137.69 170.92,-129.29 170.74,-139.89 177.38,-137.69"/>
</g>
<!-- Node2&#45;&gt;Node10 -->
<g id="edge15" class="edge">
<title>Node2&#45;&gt;Node10</title>
<path fill="none" stroke="#63b8ff" d="M383.3,-274.75C386.41,-267.57 390.92,-257.18 394.79,-248.27"/>
<polygon fill="#63b8ff" stroke="#63b8ff" points="398,-249.66 398.77,-239.09 391.58,-246.87 398,-249.66"/>
</g>
<!-- Node2&#45;&gt;Node11 -->
<g id="edge26" class="edge">
<title>Node2&#45;&gt;Node11</title>
<path fill="none" stroke="#63b8ff" d="M407.14,-274.87C425.43,-267.87 448.68,-256.29 463.5,-239 474.3,-226.4 479.89,-208.21 482.72,-194.52"/>
<polygon fill="#63b8ff" stroke="#63b8ff" points="486.23,-194.76 484.51,-184.31 479.34,-193.55 486.23,-194.76"/>
</g>
<!-- Node2&#45;&gt;Node12 -->
<g id="edge27" class="edge">
<title>Node2&#45;&gt;Node12</title>
<path fill="none" stroke="#63b8ff" d="M371.81,-274.66C356.03,-256.54 319.8,-214.91 299.66,-191.77"/>
<polygon fill="#63b8ff" stroke="#63b8ff" points="302.24,-189.4 293.04,-184.16 296.96,-194 302.24,-189.4"/>
</g>
<!-- Node4&#45;&gt;Node3 -->
<g id="edge7" class="edge">
<title>Node4&#45;&gt;Node3</title>
<path fill="none" stroke="#63b8ff" d="M195.7,-109.93C221.99,-101.45 262.83,-87.79 297.5,-74 316.54,-66.43 319.92,-61.04 339.5,-55 399.72,-36.41 470.56,-24.78 521.94,-18.09"/>
<polygon fill="#63b8ff" stroke="#63b8ff" points="522.47,-21.56 531.94,-16.82 521.58,-14.61 522.47,-21.56"/>
</g>
<!-- Node5 -->
<g id="node5" class="node">
<title>Node5</title>
<g id="a_node5"><a xlink:href="algorithms_8h.html" target="_top" xlink:title="Various algorithms used for searching, sorting, accumulating etc.">
<polygon fill="white" stroke="#666666" points="140.5,-74 14.5,-74 14.5,-55 140.5,-55 140.5,-74"/>
<text text-anchor="middle" x="77.5" y="-62" font-family="Helvetica,sans-Serif" font-size="10.00">SHARPlib/algorithms.h</text>
</a>
</g>
</g>
<!-- Node4&#45;&gt;Node5 -->
<g id="edge4" class="edge">
<title>Node4&#45;&gt;Node5</title>
<path fill="none" stroke="#63b8ff" d="M153.88,-109.98C139.64,-101.69 117.75,-88.94 101.05,-79.22"/>
<polygon fill="#63b8ff" stroke="#63b8ff" points="102.79,-76.18 92.39,-74.17 99.27,-82.23 102.79,-76.18"/>
</g>
<!-- Node6 -->
<g id="node6" class="node">
<title>Node6</title>
<g id="a_node6"><a xlink:title=" ">
<polygon fill="#e0e0e0" stroke="#999999" points="252,-19 199,-19 199,0 252,0 252,-19"/>
<text text-anchor="middle" x="225.5" y="-7" font-family="Helvetica,sans-Serif" font-size="10.00">cstddef</text>
</a>
</g>
</g>
<!-- Node4&#45;&gt;Node6 -->
<g id="edge13" class="edge">
<title>Node4&#45;&gt;Node6</title>
<path fill="none" stroke="#63b8ff" d="M170.9,-109.96C174.6,-97.45 182.33,-73.62 192.5,-55 197.85,-45.2 205.13,-35.15 211.49,-27.08"/>
<polygon fill="#63b8ff" stroke="#63b8ff" points="214.3,-29.17 217.9,-19.21 208.87,-24.75 214.3,-29.17"/>
</g>
<!-- Node7 -->
<g id="node7" class="node">
<title>Node7</title>
<g id="a_node7"><a xlink:title=" ">
<polygon fill="#e0e0e0" stroke="#999999" points="65,-19 0,-19 0,0 65,0 65,-19"/>
<text text-anchor="middle" x="32.5" y="-7" font-family="Helvetica,sans-Serif" font-size="10.00">functional</text>
</a>
</g>
</g>
<!-- Node4&#45;&gt;Node7 -->
<g id="edge14" class="edge">
<title>Node4&#45;&gt;Node7</title>
<path fill="none" stroke="#63b8ff" d="M119.26,-111.69C76.51,-104.65 19.34,-92.13 5.5,-74 -5.46,-59.65 5.85,-40.19 17,-26.6"/>
<polygon fill="#63b8ff" stroke="#63b8ff" points="19.71,-28.82 23.72,-19.01 14.47,-24.18 19.71,-28.82"/>
</g>
<!-- Node8 -->
<g id="node8" class="node">
<title>Node8</title>
<g id="a_node8"><a xlink:href="interp_8h.html" target="_top" xlink:title="Routines for linear interpolation of vertical atmospheric profiles.">
<polygon fill="white" stroke="#666666" points="450.5,-74 348.5,-74 348.5,-55 450.5,-55 450.5,-74"/>
<text text-anchor="middle" x="399.5" y="-62" font-family="Helvetica,sans-Serif" font-size="10.00">SHARPlib/interp.h</text>
</a>
</g>
</g>
<!-- Node4&#45;&gt;Node8 -->
<g id="edge8" class="edge">
<title>Node4&#45;&gt;Node8</title>
<path fill="none" stroke="#63b8ff" d="M205.61,-109.98C245.49,-100.84 308.96,-86.27 352.34,-76.32"/>
<polygon fill="#63b8ff" stroke="#63b8ff" points="353.13,-79.73 362.09,-74.08 351.57,-72.91 353.13,-79.73"/>
</g>
<!-- Node9 -->
<g id="node9" class="node">
<title>Node9</title>
<g id="a_node9"><a xlink:title=" ">
<polygon fill="#e0e0e0" stroke="#999999" points="423,-19 376,-19 376,0 423,0 423,-19"/>
<text text-anchor="middle" x="399.5" y="-7" font-family="Helvetica,sans-Serif" font-size="10.00">cmath</text>
</a>
</g>
</g>
<!-- Node4&#45;&gt;Node9 -->
<g id="edge12" class="edge">
<title>Node4&#45;&gt;Node9</title>
<path fill="none" stroke="#63b8ff" d="M187.01,-109.84C227.58,-90.88 324.47,-45.58 372.11,-23.31"/>
<polygon fill="#63b8ff" stroke="#63b8ff" points="373.64,-26.45 381.22,-19.05 370.68,-20.11 373.64,-26.45"/>
</g>
<!-- Node5&#45;&gt;Node6 -->
<g id="edge5" class="edge">
<title>Node5&#45;&gt;Node6</title>
<path fill="none" stroke="#63b8ff" d="M101.28,-54.98C125.73,-46.23 164.03,-32.51 191.65,-22.62"/>
<polygon fill="#63b8ff" stroke="#63b8ff" points="193.05,-25.84 201.29,-19.17 190.69,-19.25 193.05,-25.84"/>
</g>
<!-- Node5&#45;&gt;Node7 -->
<g id="edge6" class="edge">
<title>Node5&#45;&gt;Node7</title>
<path fill="none" stroke="#63b8ff" d="M70.07,-54.75C63.65,-47.18 54.19,-36.05 46.38,-26.84"/>
<polygon fill="#63b8ff" stroke="#63b8ff" points="48.93,-24.45 39.79,-19.09 43.6,-28.98 48.93,-24.45"/>
</g>
<!-- Node8&#45;&gt;Node3 -->
<g id="edge9" class="edge">
<title>Node8&#45;&gt;Node3</title>
<path fill="none" stroke="#63b8ff" d="M430.51,-54.98C463.33,-45.97 515.3,-31.7 551.49,-21.76"/>
<polygon fill="#63b8ff" stroke="#63b8ff" points="552.53,-25.11 561.25,-19.08 550.68,-18.36 552.53,-25.11"/>
</g>
<!-- Node8&#45;&gt;Node6 -->
<g id="edge11" class="edge">
<title>Node8&#45;&gt;Node6</title>
<path fill="none" stroke="#63b8ff" d="M371.54,-54.98C341.77,-45.92 294.53,-31.53 261.87,-21.58"/>
<polygon fill="#63b8ff" stroke="#63b8ff" points="262.83,-18.21 252.24,-18.65 260.79,-24.91 262.83,-18.21"/>
</g>
<!-- Node8&#45;&gt;Node9 -->
<g id="edge10" class="edge">
<title>Node8&#45;&gt;Node9</title>
<path fill="none" stroke="#63b8ff" d="M399.5,-54.75C399.5,-47.8 399.5,-37.85 399.5,-29.13"/>
<polygon fill="#63b8ff" stroke="#63b8ff" points="403,-29.09 399.5,-19.09 396,-29.09 403,-29.09"/>
</g>
<!-- Node10&#45;&gt;Node3 -->
<g id="edge16" class="edge">
<title>Node10&#45;&gt;Node3</title>
<path fill="none" stroke="#63b8ff" d="M454.78,-225.36C486.35,-220.71 525.07,-209.71 549.5,-184 590.6,-140.75 594.22,-64.6 593.47,-29.36"/>
<polygon fill="#63b8ff" stroke="#63b8ff" points="596.96,-28.96 593.1,-19.09 589.97,-29.21 596.96,-28.96"/>
</g>
<!-- Node10&#45;&gt;Node4 -->
<g id="edge18" class="edge">
<title>Node10&#45;&gt;Node4</title>
<path fill="none" stroke="#63b8ff" d="M350.2,-223.54C313.21,-218.15 263.62,-207 225.5,-184 206.35,-172.45 189.97,-152.45 179.75,-137.97"/>
<polygon fill="#63b8ff" stroke="#63b8ff" points="182.45,-135.72 173.95,-129.4 176.65,-139.65 182.45,-135.72"/>
</g>
<!-- Node10&#45;&gt;Node6 -->
<g id="edge25" class="edge">
<title>Node10&#45;&gt;Node6</title>
<path fill="none" stroke="#63b8ff" d="M395.56,-219.95C369.13,-187.4 274.47,-70.81 239.02,-27.16"/>
<polygon fill="#63b8ff" stroke="#63b8ff" points="241.6,-24.78 232.58,-19.22 236.17,-29.19 241.6,-24.78"/>
</g>
<!-- Node10&#45;&gt;Node8 -->
<g id="edge17" class="edge">
<title>Node10&#45;&gt;Node8</title>
<path fill="none" stroke="#63b8ff" d="M402.34,-219.74C401.87,-194.31 400.5,-120.08 399.85,-84.69"/>
<polygon fill="#63b8ff" stroke="#63b8ff" points="403.35,-84.24 399.66,-74.31 396.35,-84.37 403.35,-84.24"/>
</g>
<!-- Node10&#45;&gt;Node11 -->
<g id="edge19" class="edge">
<title>Node10&#45;&gt;Node11</title>
<path fill="none" stroke="#63b8ff" d="M415.84,-219.98C428.59,-211.84 448.05,-199.41 463.17,-189.76"/>
<polygon fill="#63b8ff" stroke="#63b8ff" points="465.38,-192.5 471.92,-184.17 461.61,-186.6 465.38,-192.5"/>
</g>
<!-- Node11&#45;&gt;Node3 -->
<g id="edge20" class="edge">
<title>Node11&#45;&gt;Node3</title>
<path fill="none" stroke="#63b8ff" d="M491.25,-164.74C508.23,-138.87 558.38,-62.48 581.09,-27.88"/>
<polygon fill="#63b8ff" stroke="#63b8ff" points="584.16,-29.59 586.72,-19.31 578.31,-25.75 584.16,-29.59"/>
</g>
<!-- Node11&#45;&gt;Node4 -->
<g id="edge22" class="edge">
<title>Node11&#45;&gt;Node4</title>
<path fill="none" stroke="#63b8ff" d="M434.57,-164.98C378.15,-155.55 287.31,-140.36 227.75,-130.41"/>
<polygon fill="#63b8ff" stroke="#63b8ff" points="228.18,-126.93 217.74,-128.73 227.03,-133.83 228.18,-126.93"/>
</g>
<!-- Node11&#45;&gt;Node6 -->
<g id="edge24" class="edge">
<title>Node11&#45;&gt;Node6</title>
<path fill="none" stroke="#63b8ff" d="M486.5,-164.85C488.51,-142.98 490.46,-85.1 459.5,-55 431.95,-28.21 321.08,-16.87 262.38,-12.66"/>
<polygon fill="#63b8ff" stroke="#63b8ff" points="262.62,-9.17 252.4,-11.98 262.14,-16.15 262.62,-9.17"/>
</g>
<!-- Node11&#45;&gt;Node8 -->
<g id="edge21" class="edge">
<title>Node11&#45;&gt;Node8</title>
<path fill="none" stroke="#63b8ff" d="M478.46,-164.66C464.09,-146.61 431.17,-105.28 412.7,-82.08"/>
<polygon fill="#63b8ff" stroke="#63b8ff" points="415.36,-79.8 406.39,-74.16 409.89,-84.16 415.36,-79.8"/>
</g>
<!-- Node11&#45;&gt;Node9 -->
<g id="edge23" class="edge">
<title>Node11&#45;&gt;Node9</title>
<path fill="none" stroke="#63b8ff" d="M489.14,-164.92C497.33,-144.17 514.8,-90.4 492.5,-55 479.54,-34.44 454.17,-23.17 433.19,-17.12"/>
<polygon fill="#63b8ff" stroke="#63b8ff" points="433.88,-13.68 423.32,-14.55 432.12,-20.46 433.88,-13.68"/>
</g>
<!-- Node12&#45;&gt;Node3 -->
<g id="edge28" class="edge">
<title>Node12&#45;&gt;Node3</title>
<path fill="none" stroke="#63b8ff" d="M301.57,-164.97C351.81,-138.29 506.17,-56.34 567.24,-23.91"/>
<polygon fill="#63b8ff" stroke="#63b8ff" points="569.02,-26.93 576.22,-19.15 565.74,-20.74 569.02,-26.93"/>
</g>
<!-- Node12&#45;&gt;Node4 -->
<g id="edge30" class="edge">
<title>Node12&#45;&gt;Node4</title>
<path fill="none" stroke="#63b8ff" d="M266.7,-164.98C247.88,-156.46 218.68,-143.23 197,-133.41"/>
<polygon fill="#63b8ff" stroke="#63b8ff" points="198.19,-130.11 187.64,-129.17 195.3,-136.48 198.19,-130.11"/>
</g>
<!-- Node12&#45;&gt;Node6 -->
<g id="edge31" class="edge">
<title>Node12&#45;&gt;Node6</title>
<path fill="none" stroke="#63b8ff" d="M278.95,-164.76C266.89,-148.12 241.4,-110.29 230.5,-74 226.16,-59.57 225.03,-42.5 224.91,-29.7"/>
<polygon fill="#63b8ff" stroke="#63b8ff" points="228.42,-29.38 225.03,-19.34 221.42,-29.3 228.42,-29.38"/>
</g>
<!-- Node12&#45;&gt;Node8 -->
<g id="edge29" class="edge">
<title>Node12&#45;&gt;Node8</title>
<path fill="none" stroke="#63b8ff" d="M294.23,-164.77C306.62,-152.43 330.06,-129.25 350.5,-110 360.85,-100.25 372.65,-89.53 382.07,-81.05"/>
<polygon fill="#63b8ff" stroke="#63b8ff" points="384.53,-83.54 389.64,-74.26 379.86,-78.33 384.53,-83.54"/>
</g>
</g>
</svg>
