<?xml version="1.0" encoding="UTF-8" standalone="no"?>
<!DOCTYPE svg PUBLIC "-//W3C//DTD SVG 1.1//EN"
 "http://www.w3.org/Graphics/SVG/1.1/DTD/svg11.dtd">
<!-- Generated by graphviz version 2.43.0 (0)
 -->
<!-- Title: convective_wrap.h Pages: 1 -->
<svg width="375pt" height="159pt"
 viewBox="0.00 0.00 375.00 159.00" xmlns="http://www.w3.org/2000/svg" xmlns:xlink="http://www.w3.org/1999/xlink">
<g id="graph0" class="graph" transform="scale(1 1) rotate(0) translate(4 155)">
<title>convective_wrap.h</title>
<!-- Node1 -->
<g id="node1" class="node">
<title>Node1</title>
<g id="a_node1"><a xlink:title="Header defining the C wrapper interface to derived parameters.">
<polygon fill="#999999" stroke="#666666" points="235.5,-151 127.5,-151 127.5,-132 235.5,-132 235.5,-151"/>
<text text-anchor="middle" x="181.5" y="-139" font-family="Helvetica,sans-Serif" font-size="10.00">convective_wrap.h</text>
</a>
</g>
</g>
<!-- Node2 -->
<g id="node2" class="node">
<title>Node2</title>
<g id="a_node2"><a xlink:href="layer__wrap_8h.html" target="_top" xlink:title="Header defining the C wrapper interface to layer based routines.">
<polygon fill="white" stroke="#666666" points="125,-30 0,-30 0,0 125,0 125,-30"/>
<text text-anchor="start" x="8" y="-18" font-family="Helvetica,sans-Serif" font-size="10.00">SHARPlib/CWrap/layer</text>
<text text-anchor="middle" x="62.5" y="-7" font-family="Helvetica,sans-Serif" font-size="10.00">_wrap.h</text>
</a>
</g>
</g>
<!-- Node1&#45;&gt;Node2 -->
<g id="edge1" class="edge">
<title>Node1&#45;&gt;Node2</title>
<path fill="none" stroke="#63b8ff" d="M127.3,-139.17C95.06,-135.23 56.48,-124.32 35.5,-96 22.87,-78.95 33.16,-55.6 44.48,-38.53"/>
<polygon fill="#63b8ff" stroke="#63b8ff" points="47.44,-40.42 50.38,-30.24 41.73,-36.36 47.44,-40.42"/>
</g>
<!-- Node3 -->
<g id="node3" class="node">
<title>Node3</title>
<g id="a_node3"><a xlink:href="parcel__wrap_8h.html" target="_top" xlink:title="Header defining the C wrapper interface to parcel routines.">
<polygon fill="white" stroke="#666666" points="320.5,-96 190.5,-96 190.5,-66 320.5,-66 320.5,-96"/>
<text text-anchor="start" x="198.5" y="-84" font-family="Helvetica,sans-Serif" font-size="10.00">SHARPlib/CWrap/parcel</text>
<text text-anchor="middle" x="255.5" y="-73" font-family="Helvetica,sans-Serif" font-size="10.00">_wrap.h</text>
</a>
</g>
</g>
<!-- Node1&#45;&gt;Node3 -->
<g id="edge2" class="edge">
<title>Node1&#45;&gt;Node3</title>
<path fill="none" stroke="#63b8ff" d="M192.42,-131.87C202.18,-124.15 216.87,-112.54 229.62,-102.46"/>
<polygon fill="#63b8ff" stroke="#63b8ff" points="231.97,-105.06 237.65,-96.11 227.63,-99.57 231.97,-105.06"/>
</g>
<!-- Node4 -->
<g id="node4" class="node">
<title>Node4</title>
<g id="a_node4"><a xlink:href="profile__wrap_8h.html" target="_top" xlink:title="Header defining the C wrapper interface to the Profile structure.">
<polygon fill="white" stroke="#666666" points="367,-30 236,-30 236,0 367,0 367,-30"/>
<text text-anchor="start" x="244" y="-18" font-family="Helvetica,sans-Serif" font-size="10.00">SHARPlib/CWrap/profile</text>
<text text-anchor="middle" x="301.5" y="-7" font-family="Helvetica,sans-Serif" font-size="10.00">_wrap.h</text>
</a>
</g>
</g>
<!-- Node1&#45;&gt;Node4 -->
<g id="edge4" class="edge">
<title>Node1&#45;&gt;Node4</title>
<path fill="none" stroke="#63b8ff" d="M235.68,-139.47C268.5,-135.69 308.05,-124.85 329.5,-96 342.21,-78.91 331.59,-55.56 319.96,-38.5"/>
<polygon fill="#63b8ff" stroke="#63b8ff" points="322.64,-36.23 313.91,-30.22 316.99,-40.36 322.64,-36.23"/>
</g>
<!-- Node5 -->
<g id="node5" class="node">
<title>Node5</title>
<g id="a_node5"><a xlink:href="winds__wrap_8h.html" target="_top" xlink:title="Header defining the C wrapper interface to kinematic routines.">
<polygon fill="white" stroke="#666666" points="172.5,-96 44.5,-96 44.5,-66 172.5,-66 172.5,-96"/>
<text text-anchor="start" x="52.5" y="-84" font-family="Helvetica,sans-Serif" font-size="10.00">SHARPlib/CWrap/winds</text>
<text text-anchor="middle" x="108.5" y="-73" font-family="Helvetica,sans-Serif" font-size="10.00">_wrap.h</text>
</a>
</g>
</g>
<!-- Node1&#45;&gt;Node5 -->
<g id="edge5" class="edge">
<title>Node1&#45;&gt;Node5</title>
<path fill="none" stroke="#63b8ff" d="M170.73,-131.87C161.1,-124.15 146.61,-112.54 134.03,-102.46"/>
<polygon fill="#63b8ff" stroke="#63b8ff" points="136.11,-99.64 126.11,-96.11 131.73,-105.1 136.11,-99.64"/>
</g>
<!-- Node3&#45;&gt;Node4 -->
<g id="edge3" class="edge">
<title>Node3&#45;&gt;Node4</title>
<path fill="none" stroke="#63b8ff" d="M265.71,-65.8C271.49,-57.76 278.84,-47.53 285.38,-38.43"/>
<polygon fill="#63b8ff" stroke="#63b8ff" points="288.33,-40.33 291.32,-30.16 282.64,-36.24 288.33,-40.33"/>
</g>
<!-- Node5&#45;&gt;Node2 -->
<g id="edge6" class="edge">
<title>Node5&#45;&gt;Node2</title>
<path fill="none" stroke="#63b8ff" d="M98.29,-65.8C92.51,-57.76 85.16,-47.53 78.62,-38.43"/>
<polygon fill="#63b8ff" stroke="#63b8ff" points="81.36,-36.24 72.68,-30.16 75.67,-40.33 81.36,-36.24"/>
</g>
</g>
</svg>
