<?xml version="1.0" encoding="UTF-8" standalone="no"?>
<!DOCTYPE svg PUBLIC "-//W3C//DTD SVG 1.1//EN"
 "http://www.w3.org/Graphics/SVG/1.1/DTD/svg11.dtd">
<!-- Generated by graphviz version 2.43.0 (0)
 -->
<!-- Title: convective_wrap.cpp Pages: 1 -->
<svg width="1066pt" height="390pt"
 viewBox="0.00 0.00 1065.63 390.00" xmlns="http://www.w3.org/2000/svg" xmlns:xlink="http://www.w3.org/1999/xlink">
<g id="graph0" class="graph" transform="scale(1 1) rotate(0) translate(4 386)">
<title>convective_wrap.cpp</title>
<!-- Node1 -->
<g id="node1" class="node">
<title>Node1</title>
<g id="a_node1"><a xlink:title=" ">
<polygon fill="#999999" stroke="#666666" points="560,-382 441,-382 441,-363 560,-363 560,-382"/>
<text text-anchor="middle" x="500.5" y="-370" font-family="Helvetica,sans-Serif" font-size="10.00">convective_wrap.cpp</text>
</a>
</g>
</g>
<!-- Node2 -->
<g id="node2" class="node">
<title>Node2</title>
<g id="a_node2"><a xlink:href="convective__wrap_8h.html" target="_top" xlink:title="Header defining the C wrapper interface to derived parameters.">
<polygon fill="white" stroke="#666666" points="269,-327 132,-327 132,-297 269,-297 269,-327"/>
<text text-anchor="start" x="140" y="-315" font-family="Helvetica,sans-Serif" font-size="10.00">SHARPlib/CWrap/params</text>
<text text-anchor="middle" x="200.5" y="-304" font-family="Helvetica,sans-Serif" font-size="10.00">/convective_wrap.h</text>
</a>
</g>
</g>
<!-- Node1&#45;&gt;Node2 -->
<g id="edge1" class="edge">
<title>Node1&#45;&gt;Node2</title>
<path fill="none" stroke="#63b8ff" d="M456.88,-362.99C410.43,-353.94 335.93,-339.41 279.19,-328.34"/>
<polygon fill="#63b8ff" stroke="#63b8ff" points="279.65,-324.87 269.17,-326.39 278.31,-331.74 279.65,-324.87"/>
</g>
<!-- Node7 -->
<g id="node7" class="node">
<title>Node7</title>
<g id="a_node7"><a xlink:href="constants_8h.html" target="_top" xlink:title="Meteorological constants useful for computations with vertical atmospheric sounding profiles.">
<polygon fill="white" stroke="#666666" points="561,-19 440,-19 440,0 561,0 561,-19"/>
<text text-anchor="middle" x="500.5" y="-7" font-family="Helvetica,sans-Serif" font-size="10.00">SHARPlib/constants.h</text>
</a>
</g>
</g>
<!-- Node1&#45;&gt;Node7 -->
<g id="edge8" class="edge">
<title>Node1&#45;&gt;Node7</title>
<path fill="none" stroke="#63b8ff" d="M483.19,-362.87C451.29,-345.6 386.5,-303.56 386.5,-247 386.5,-247 386.5,-247 386.5,-118.5 386.5,-72.47 436.08,-40.18 469.85,-23.53"/>
<polygon fill="#63b8ff" stroke="#63b8ff" points="471.78,-26.49 479.32,-19.05 468.79,-20.16 471.78,-26.49"/>
</g>
<!-- Node8 -->
<g id="node8" class="node">
<title>Node8</title>
<g id="a_node8"><a xlink:href="convective_8h.html" target="_top" xlink:title="Routines used to computed derived sounding parameters from vertical atmospheric profiles.">
<polygon fill="white" stroke="#666666" points="705,-321.5 538,-321.5 538,-302.5 705,-302.5 705,-321.5"/>
<text text-anchor="middle" x="621.5" y="-309.5" font-family="Helvetica,sans-Serif" font-size="10.00">SHARPlib/params/convective.h</text>
</a>
</g>
</g>
<!-- Node1&#45;&gt;Node8 -->
<g id="edge9" class="edge">
<title>Node1&#45;&gt;Node8</title>
<path fill="none" stroke="#63b8ff" d="M518.09,-362.99C538.26,-353.25 571.52,-337.16 594.86,-325.88"/>
<polygon fill="#63b8ff" stroke="#63b8ff" points="596.4,-329.02 603.88,-321.52 593.36,-322.72 596.4,-329.02"/>
</g>
<!-- Node18 -->
<g id="node18" class="node">
<title>Node18</title>
<g id="a_node18"><a xlink:title=" ">
<polygon fill="#e0e0e0" stroke="#999999" points="776,-321.5 723,-321.5 723,-302.5 776,-302.5 776,-321.5"/>
<text text-anchor="middle" x="749.5" y="-309.5" font-family="Helvetica,sans-Serif" font-size="10.00">stdlib.h</text>
</a>
</g>
</g>
<!-- Node1&#45;&gt;Node18 -->
<g id="edge40" class="edge">
<title>Node1&#45;&gt;Node18</title>
<path fill="none" stroke="#63b8ff" d="M553.18,-362.99C596.66,-355.38 659.72,-342.96 713.5,-327 715.43,-326.43 717.4,-325.8 719.38,-325.13"/>
<polygon fill="#63b8ff" stroke="#63b8ff" points="720.93,-328.29 729.14,-321.59 718.55,-321.71 720.93,-328.29"/>
</g>
<!-- Node3 -->
<g id="node3" class="node">
<title>Node3</title>
<g id="a_node3"><a xlink:href="layer__wrap_8h.html" target="_top" xlink:title="Header defining the C wrapper interface to layer based routines.">
<polygon fill="white" stroke="#666666" points="125,-195 0,-195 0,-165 125,-165 125,-195"/>
<text text-anchor="start" x="8" y="-183" font-family="Helvetica,sans-Serif" font-size="10.00">SHARPlib/CWrap/layer</text>
<text text-anchor="middle" x="62.5" y="-172" font-family="Helvetica,sans-Serif" font-size="10.00">_wrap.h</text>
</a>
</g>
</g>
<!-- Node2&#45;&gt;Node3 -->
<g id="edge2" class="edge">
<title>Node2&#45;&gt;Node3</title>
<path fill="none" stroke="#63b8ff" d="M131.77,-308.6C97.02,-303.47 57.61,-290.81 35.5,-261 22.86,-243.96 33.15,-220.61 44.48,-203.53"/>
<polygon fill="#63b8ff" stroke="#63b8ff" points="47.43,-205.42 50.38,-195.24 41.73,-201.36 47.43,-205.42"/>
</g>
<!-- Node4 -->
<g id="node4" class="node">
<title>Node4</title>
<g id="a_node4"><a xlink:href="parcel__wrap_8h.html" target="_top" xlink:title="Header defining the C wrapper interface to parcel routines.">
<polygon fill="white" stroke="#666666" points="358.5,-261 228.5,-261 228.5,-231 358.5,-231 358.5,-261"/>
<text text-anchor="start" x="236.5" y="-249" font-family="Helvetica,sans-Serif" font-size="10.00">SHARPlib/CWrap/parcel</text>
<text text-anchor="middle" x="293.5" y="-238" font-family="Helvetica,sans-Serif" font-size="10.00">_wrap.h</text>
</a>
</g>
</g>
<!-- Node2&#45;&gt;Node4 -->
<g id="edge3" class="edge">
<title>Node2&#45;&gt;Node4</title>
<path fill="none" stroke="#63b8ff" d="M221.14,-296.8C233.9,-288.01 250.48,-276.61 264.54,-266.93"/>
<polygon fill="#63b8ff" stroke="#63b8ff" points="266.66,-269.72 272.92,-261.16 262.7,-263.95 266.66,-269.72"/>
</g>
<!-- Node5 -->
<g id="node5" class="node">
<title>Node5</title>
<g id="a_node5"><a xlink:href="profile__wrap_8h.html" target="_top" xlink:title="Header defining the C wrapper interface to the Profile structure.">
<polygon fill="white" stroke="#666666" points="339,-195 208,-195 208,-165 339,-165 339,-195"/>
<text text-anchor="start" x="216" y="-183" font-family="Helvetica,sans-Serif" font-size="10.00">SHARPlib/CWrap/profile</text>
<text text-anchor="middle" x="273.5" y="-172" font-family="Helvetica,sans-Serif" font-size="10.00">_wrap.h</text>
</a>
</g>
</g>
<!-- Node2&#45;&gt;Node5 -->
<g id="edge5" class="edge">
<title>Node2&#45;&gt;Node5</title>
<path fill="none" stroke="#63b8ff" d="M201.38,-296.78C202.95,-280.02 207.33,-251.83 219.5,-231 225.99,-219.88 235.74,-209.77 245.18,-201.59"/>
<polygon fill="#63b8ff" stroke="#63b8ff" points="247.45,-204.25 252.95,-195.2 243.01,-198.85 247.45,-204.25"/>
</g>
<!-- Node6 -->
<g id="node6" class="node">
<title>Node6</title>
<g id="a_node6"><a xlink:href="winds__wrap_8h.html" target="_top" xlink:title="Header defining the C wrapper interface to kinematic routines.">
<polygon fill="white" stroke="#666666" points="172.5,-261 44.5,-261 44.5,-231 172.5,-231 172.5,-261"/>
<text text-anchor="start" x="52.5" y="-249" font-family="Helvetica,sans-Serif" font-size="10.00">SHARPlib/CWrap/winds</text>
<text text-anchor="middle" x="108.5" y="-238" font-family="Helvetica,sans-Serif" font-size="10.00">_wrap.h</text>
</a>
</g>
</g>
<!-- Node2&#45;&gt;Node6 -->
<g id="edge6" class="edge">
<title>Node2&#45;&gt;Node6</title>
<path fill="none" stroke="#63b8ff" d="M180.08,-296.8C167.46,-288.01 151.06,-276.61 137.15,-266.93"/>
<polygon fill="#63b8ff" stroke="#63b8ff" points="139.07,-264 128.86,-261.16 135.07,-269.75 139.07,-264"/>
</g>
<!-- Node4&#45;&gt;Node5 -->
<g id="edge4" class="edge">
<title>Node4&#45;&gt;Node5</title>
<path fill="none" stroke="#63b8ff" d="M289.06,-230.8C286.68,-223.17 283.68,-213.57 280.95,-204.84"/>
<polygon fill="#63b8ff" stroke="#63b8ff" points="284.25,-203.66 277.93,-195.16 277.57,-205.75 284.25,-203.66"/>
</g>
<!-- Node6&#45;&gt;Node3 -->
<g id="edge7" class="edge">
<title>Node6&#45;&gt;Node3</title>
<path fill="none" stroke="#63b8ff" d="M98.29,-230.8C92.51,-222.76 85.16,-212.53 78.62,-203.43"/>
<polygon fill="#63b8ff" stroke="#63b8ff" points="81.36,-201.24 72.68,-195.16 75.67,-205.33 81.36,-201.24"/>
</g>
<!-- Node8&#45;&gt;Node7 -->
<g id="edge10" class="edge">
<title>Node8&#45;&gt;Node7</title>
<path fill="none" stroke="#63b8ff" d="M577.78,-302.46C519.74,-288.3 424.5,-253.94 424.5,-181 424.5,-181 424.5,-181 424.5,-118.5 424.5,-79.47 458.11,-44.58 480.63,-25.6"/>
<polygon fill="#63b8ff" stroke="#63b8ff" points="483.06,-28.14 488.62,-19.12 478.65,-22.7 483.06,-28.14"/>
</g>
<!-- Node9 -->
<g id="node9" class="node">
<title>Node9</title>
<g id="a_node9"><a xlink:href="layer_8h.html" target="_top" xlink:title="Data structures and functions for performing operations over atmospheric layers.">
<polygon fill="white" stroke="#666666" points="792.5,-129 694.5,-129 694.5,-110 792.5,-110 792.5,-129"/>
<text text-anchor="middle" x="743.5" y="-117" font-family="Helvetica,sans-Serif" font-size="10.00">SHARPlib/layer.h</text>
</a>
</g>
</g>
<!-- Node8&#45;&gt;Node9 -->
<g id="edge11" class="edge">
<title>Node8&#45;&gt;Node9</title>
<path fill="none" stroke="#63b8ff" d="M627.06,-302.32C645.8,-273.06 706.87,-177.69 732.27,-138.04"/>
<polygon fill="#63b8ff" stroke="#63b8ff" points="735.46,-139.54 737.91,-129.23 729.57,-135.76 735.46,-139.54"/>
</g>
<!-- Node15 -->
<g id="node15" class="node">
<title>Node15</title>
<g id="a_node15"><a xlink:href="parcel_8h.html" target="_top" xlink:title="Routines used for parcel lifting and integration.">
<polygon fill="white" stroke="#666666" points="877.5,-255.5 773.5,-255.5 773.5,-236.5 877.5,-236.5 877.5,-255.5"/>
<text text-anchor="middle" x="825.5" y="-243.5" font-family="Helvetica,sans-Serif" font-size="10.00">SHARPlib/parcel.h</text>
</a>
</g>
</g>
<!-- Node8&#45;&gt;Node15 -->
<g id="edge23" class="edge">
<title>Node8&#45;&gt;Node15</title>
<path fill="none" stroke="#63b8ff" d="M649.01,-302.37C685.01,-291.08 748.21,-271.25 788.41,-258.64"/>
<polygon fill="#63b8ff" stroke="#63b8ff" points="789.6,-261.93 798.1,-255.6 787.51,-255.25 789.6,-261.93"/>
</g>
<!-- Node16 -->
<g id="node16" class="node">
<title>Node16</title>
<g id="a_node16"><a xlink:href="thermo_8h.html" target="_top" xlink:title="Routines used to compute thermodynamic attributes of vertical sounding profiles.">
<polygon fill="white" stroke="#666666" points="996,-189.5 887,-189.5 887,-170.5 996,-170.5 996,-189.5"/>
<text text-anchor="middle" x="941.5" y="-177.5" font-family="Helvetica,sans-Serif" font-size="10.00">SHARPlib/thermo.h</text>
</a>
</g>
</g>
<!-- Node8&#45;&gt;Node16 -->
<g id="edge34" class="edge">
<title>Node8&#45;&gt;Node16</title>
<path fill="none" stroke="#63b8ff" d="M671.97,-302.5C746.33,-289.82 877.54,-266.84 886.5,-261 909.51,-246.01 925.51,-217.69 934.1,-199.09"/>
<polygon fill="#63b8ff" stroke="#63b8ff" points="937.42,-200.23 938.21,-189.66 931,-197.43 937.42,-200.23"/>
</g>
<!-- Node17 -->
<g id="node17" class="node">
<title>Node17</title>
<g id="a_node17"><a xlink:href="winds_8h.html" target="_top" xlink:title="Routines used to compute kinematic attributes and indices of vertical sounding profiles.">
<polygon fill="white" stroke="#666666" points="672.5,-189.5 570.5,-189.5 570.5,-170.5 672.5,-170.5 672.5,-189.5"/>
<text text-anchor="middle" x="621.5" y="-177.5" font-family="Helvetica,sans-Serif" font-size="10.00">SHARPlib/winds.h</text>
</a>
</g>
</g>
<!-- Node8&#45;&gt;Node17 -->
<g id="edge35" class="edge">
<title>Node8&#45;&gt;Node17</title>
<path fill="none" stroke="#63b8ff" d="M621.5,-302.47C621.5,-281.82 621.5,-228.72 621.5,-200.04"/>
<polygon fill="#63b8ff" stroke="#63b8ff" points="625,-199.73 621.5,-189.73 618,-199.73 625,-199.73"/>
</g>
<!-- Node9&#45;&gt;Node7 -->
<g id="edge15" class="edge">
<title>Node9&#45;&gt;Node7</title>
<path fill="none" stroke="#63b8ff" d="M724.03,-109.84C681.26,-90.84 579,-45.39 529,-23.17"/>
<polygon fill="#63b8ff" stroke="#63b8ff" points="530.29,-19.91 519.73,-19.05 527.45,-26.31 530.29,-19.91"/>
</g>
<!-- Node10 -->
<g id="node10" class="node">
<title>Node10</title>
<g id="a_node10"><a xlink:href="algorithms_8h.html" target="_top" xlink:title="Various algorithms used for searching, sorting, accumulating etc.">
<polygon fill="white" stroke="#666666" points="806.5,-74 680.5,-74 680.5,-55 806.5,-55 806.5,-74"/>
<text text-anchor="middle" x="743.5" y="-62" font-family="Helvetica,sans-Serif" font-size="10.00">SHARPlib/algorithms.h</text>
</a>
</g>
</g>
<!-- Node9&#45;&gt;Node10 -->
<g id="edge12" class="edge">
<title>Node9&#45;&gt;Node10</title>
<path fill="none" stroke="#63b8ff" d="M743.5,-109.75C743.5,-102.8 743.5,-92.85 743.5,-84.13"/>
<polygon fill="#63b8ff" stroke="#63b8ff" points="747,-84.09 743.5,-74.09 740,-84.09 747,-84.09"/>
</g>
<!-- Node11 -->
<g id="node11" class="node">
<title>Node11</title>
<g id="a_node11"><a xlink:title=" ">
<polygon fill="#e0e0e0" stroke="#999999" points="886,-19 833,-19 833,0 886,0 886,-19"/>
<text text-anchor="middle" x="859.5" y="-7" font-family="Helvetica,sans-Serif" font-size="10.00">cstddef</text>
</a>
</g>
</g>
<!-- Node9&#45;&gt;Node11 -->
<g id="edge21" class="edge">
<title>Node9&#45;&gt;Node11</title>
<path fill="none" stroke="#63b8ff" d="M761.78,-109.89C777.25,-102.01 799.4,-89.27 815.5,-74 829.75,-60.48 842.09,-41.65 850.05,-28"/>
<polygon fill="#63b8ff" stroke="#63b8ff" points="853.19,-29.57 855.03,-19.14 847.08,-26.14 853.19,-29.57"/>
</g>
<!-- Node12 -->
<g id="node12" class="node">
<title>Node12</title>
<g id="a_node12"><a xlink:title=" ">
<polygon fill="#e0e0e0" stroke="#999999" points="731,-19 666,-19 666,0 731,0 731,-19"/>
<text text-anchor="middle" x="698.5" y="-7" font-family="Helvetica,sans-Serif" font-size="10.00">functional</text>
</a>
</g>
</g>
<!-- Node9&#45;&gt;Node12 -->
<g id="edge22" class="edge">
<title>Node9&#45;&gt;Node12</title>
<path fill="none" stroke="#63b8ff" d="M717.65,-109.99C701.23,-103.09 681.3,-91.58 671.5,-74 662.98,-58.72 672.96,-40.21 683.11,-27.13"/>
<polygon fill="#63b8ff" stroke="#63b8ff" points="685.86,-29.31 689.62,-19.41 680.5,-24.8 685.86,-29.31"/>
</g>
<!-- Node13 -->
<g id="node13" class="node">
<title>Node13</title>
<g id="a_node13"><a xlink:href="interp_8h.html" target="_top" xlink:title="Routines for linear interpolation of vertical atmospheric profiles.">
<polygon fill="white" stroke="#666666" points="1002.5,-74 900.5,-74 900.5,-55 1002.5,-55 1002.5,-74"/>
<text text-anchor="middle" x="951.5" y="-62" font-family="Helvetica,sans-Serif" font-size="10.00">SHARPlib/interp.h</text>
</a>
</g>
</g>
<!-- Node9&#45;&gt;Node13 -->
<g id="edge16" class="edge">
<title>Node9&#45;&gt;Node13</title>
<path fill="none" stroke="#63b8ff" d="M776.92,-109.98C812.44,-100.93 868.77,-86.58 907.8,-76.64"/>
<polygon fill="#63b8ff" stroke="#63b8ff" points="908.99,-79.94 917.82,-74.08 907.26,-73.16 908.99,-79.94"/>
</g>
<!-- Node14 -->
<g id="node14" class="node">
<title>Node14</title>
<g id="a_node14"><a xlink:title=" ">
<polygon fill="#e0e0e0" stroke="#999999" points="975,-19 928,-19 928,0 975,0 975,-19"/>
<text text-anchor="middle" x="951.5" y="-7" font-family="Helvetica,sans-Serif" font-size="10.00">cmath</text>
</a>
</g>
</g>
<!-- Node9&#45;&gt;Node14 -->
<g id="edge20" class="edge">
<title>Node9&#45;&gt;Node14</title>
<path fill="none" stroke="#63b8ff" d="M762.18,-109.95C781.07,-101.21 811.04,-87.11 836.5,-74 868.4,-57.58 904.53,-37.36 927.63,-24.21"/>
<polygon fill="#63b8ff" stroke="#63b8ff" points="929.45,-27.2 936.4,-19.21 925.98,-21.12 929.45,-27.2"/>
</g>
<!-- Node10&#45;&gt;Node11 -->
<g id="edge13" class="edge">
<title>Node10&#45;&gt;Node11</title>
<path fill="none" stroke="#63b8ff" d="M762.14,-54.98C780.8,-46.46 809.75,-33.23 831.24,-23.41"/>
<polygon fill="#63b8ff" stroke="#63b8ff" points="832.88,-26.51 840.52,-19.17 829.97,-20.14 832.88,-26.51"/>
</g>
<!-- Node10&#45;&gt;Node12 -->
<g id="edge14" class="edge">
<title>Node10&#45;&gt;Node12</title>
<path fill="none" stroke="#63b8ff" d="M736.07,-54.75C729.65,-47.18 720.19,-36.05 712.38,-26.84"/>
<polygon fill="#63b8ff" stroke="#63b8ff" points="714.93,-24.45 705.79,-19.09 709.6,-28.98 714.93,-24.45"/>
</g>
<!-- Node13&#45;&gt;Node7 -->
<g id="edge17" class="edge">
<title>Node13&#45;&gt;Node7</title>
<path fill="none" stroke="#63b8ff" d="M900.2,-57.47C819.43,-47.98 662.39,-29.52 571.05,-18.79"/>
<polygon fill="#63b8ff" stroke="#63b8ff" points="571.4,-15.31 561.06,-17.62 570.58,-22.26 571.4,-15.31"/>
</g>
<!-- Node13&#45;&gt;Node11 -->
<g id="edge19" class="edge">
<title>Node13&#45;&gt;Node11</title>
<path fill="none" stroke="#63b8ff" d="M936.72,-54.98C922.32,-46.69 900.19,-33.94 883.31,-24.22"/>
<polygon fill="#63b8ff" stroke="#63b8ff" points="884.96,-21.13 874.55,-19.17 881.47,-27.19 884.96,-21.13"/>
</g>
<!-- Node13&#45;&gt;Node14 -->
<g id="edge18" class="edge">
<title>Node13&#45;&gt;Node14</title>
<path fill="none" stroke="#63b8ff" d="M951.5,-54.75C951.5,-47.8 951.5,-37.85 951.5,-29.13"/>
<polygon fill="#63b8ff" stroke="#63b8ff" points="955,-29.09 951.5,-19.09 948,-29.09 955,-29.09"/>
</g>
<!-- Node15&#45;&gt;Node7 -->
<g id="edge24" class="edge">
<title>Node15&#45;&gt;Node7</title>
<path fill="none" stroke="#63b8ff" d="M773.32,-241.33C705.58,-235.54 592.38,-222.05 561.5,-195 511.82,-151.49 502.45,-66.64 500.79,-29.12"/>
<polygon fill="#63b8ff" stroke="#63b8ff" points="504.29,-28.98 500.49,-19.09 497.29,-29.19 504.29,-28.98"/>
</g>
<!-- Node15&#45;&gt;Node9 -->
<g id="edge26" class="edge">
<title>Node15&#45;&gt;Node9</title>
<path fill="none" stroke="#63b8ff" d="M819.86,-236.44C806.46,-216.1 772.5,-164.53 754.73,-137.54"/>
<polygon fill="#63b8ff" stroke="#63b8ff" points="757.6,-135.54 749.18,-129.12 751.75,-139.39 757.6,-135.54"/>
</g>
<!-- Node15&#45;&gt;Node11 -->
<g id="edge33" class="edge">
<title>Node15&#45;&gt;Node11</title>
<path fill="none" stroke="#63b8ff" d="M877.64,-244.64C918.29,-241.44 973.11,-230.2 1005.5,-195 1042.57,-154.72 1023.37,-128.5 1028.5,-74 1029.29,-65.59 1033.66,-61.69 1028.5,-55 1020.32,-44.39 943.05,-27.25 895.87,-17.63"/>
<polygon fill="#63b8ff" stroke="#63b8ff" points="896.51,-14.19 886.01,-15.64 895.12,-21.05 896.51,-14.19"/>
</g>
<!-- Node15&#45;&gt;Node13 -->
<g id="edge25" class="edge">
<title>Node15&#45;&gt;Node13</title>
<path fill="none" stroke="#63b8ff" d="M831.24,-236.03C840.83,-221.13 860.77,-190.42 878.5,-165 899.03,-135.57 923.94,-102.06 938.71,-82.41"/>
<polygon fill="#63b8ff" stroke="#63b8ff" points="941.69,-84.28 944.91,-74.18 936.1,-80.06 941.69,-84.28"/>
</g>
<!-- Node15&#45;&gt;Node16 -->
<g id="edge27" class="edge">
<title>Node15&#45;&gt;Node16</title>
<path fill="none" stroke="#63b8ff" d="M841.14,-236.37C860.6,-225.63 894.05,-207.18 916.94,-194.55"/>
<polygon fill="#63b8ff" stroke="#63b8ff" points="918.67,-197.59 925.73,-189.7 915.29,-191.47 918.67,-197.59"/>
</g>
<!-- Node16&#45;&gt;Node7 -->
<g id="edge28" class="edge">
<title>Node16&#45;&gt;Node7</title>
<path fill="none" stroke="#63b8ff" d="M886.87,-174.33C833.86,-168.43 751.91,-155.62 685.5,-129 619.16,-102.4 550.82,-51.25 518.95,-25.74"/>
<polygon fill="#63b8ff" stroke="#63b8ff" points="520.93,-22.85 510.96,-19.27 516.53,-28.29 520.93,-22.85"/>
</g>
<!-- Node16&#45;&gt;Node9 -->
<g id="edge30" class="edge">
<title>Node16&#45;&gt;Node9</title>
<path fill="none" stroke="#63b8ff" d="M912.71,-170.49C878.25,-160.31 820.41,-143.22 782.1,-131.9"/>
<polygon fill="#63b8ff" stroke="#63b8ff" points="782.91,-128.49 772.33,-129.02 780.92,-135.21 782.91,-128.49"/>
</g>
<!-- Node16&#45;&gt;Node11 -->
<g id="edge32" class="edge">
<title>Node16&#45;&gt;Node11</title>
<path fill="none" stroke="#63b8ff" d="M953.13,-170.42C979.94,-149.6 1041.59,-95.16 1011.5,-55 997.66,-36.53 936.6,-23.15 896.21,-16.12"/>
<polygon fill="#63b8ff" stroke="#63b8ff" points="896.62,-12.64 886.17,-14.43 895.45,-19.54 896.62,-12.64"/>
</g>
<!-- Node16&#45;&gt;Node13 -->
<g id="edge29" class="edge">
<title>Node16&#45;&gt;Node13</title>
<path fill="none" stroke="#63b8ff" d="M942.25,-170.47C943.86,-152.23 947.66,-109.07 949.86,-84.14"/>
<polygon fill="#63b8ff" stroke="#63b8ff" points="953.35,-84.4 950.74,-74.13 946.38,-83.78 953.35,-84.4"/>
</g>
<!-- Node16&#45;&gt;Node14 -->
<g id="edge31" class="edge">
<title>Node16&#45;&gt;Node14</title>
<path fill="none" stroke="#63b8ff" d="M982.09,-170.42C1004.64,-163.36 1030.84,-150.82 1044.5,-129 1061.95,-101.12 1062.03,-82.83 1044.5,-55 1031.54,-34.44 1006.17,-23.17 985.19,-17.12"/>
<polygon fill="#63b8ff" stroke="#63b8ff" points="985.88,-13.68 975.32,-14.55 984.12,-20.46 985.88,-13.68"/>
</g>
<!-- Node17&#45;&gt;Node7 -->
<g id="edge36" class="edge">
<title>Node17&#45;&gt;Node7</title>
<path fill="none" stroke="#63b8ff" d="M589.19,-170.38C567.61,-162.94 540.38,-150.01 524.5,-129 502.22,-99.52 499.23,-54.55 499.54,-29.33"/>
<polygon fill="#63b8ff" stroke="#63b8ff" points="503.04,-29.37 499.86,-19.26 496.04,-29.15 503.04,-29.37"/>
</g>
<!-- Node17&#45;&gt;Node9 -->
<g id="edge38" class="edge">
<title>Node17&#45;&gt;Node9</title>
<path fill="none" stroke="#63b8ff" d="M639.24,-170.49C659.57,-160.75 693.11,-144.66 716.64,-133.38"/>
<polygon fill="#63b8ff" stroke="#63b8ff" points="718.24,-136.5 725.74,-129.02 715.21,-130.18 718.24,-136.5"/>
</g>
<!-- Node17&#45;&gt;Node11 -->
<g id="edge39" class="edge">
<title>Node17&#45;&gt;Node11</title>
<path fill="none" stroke="#63b8ff" d="M622.33,-170.22C624.96,-147.47 635.24,-86.17 671.5,-55 713.97,-18.5 781.01,-10.68 822.51,-9.66"/>
<polygon fill="#63b8ff" stroke="#63b8ff" points="822.78,-13.16 832.73,-9.53 822.69,-6.16 822.78,-13.16"/>
</g>
<!-- Node17&#45;&gt;Node13 -->
<g id="edge37" class="edge">
<title>Node17&#45;&gt;Node13</title>
<path fill="none" stroke="#63b8ff" d="M658.18,-170.47C694.9,-161.54 752.79,-146.42 801.5,-129 821.17,-121.96 825.3,-118.23 844.5,-110 870.32,-98.93 899.8,-86.7 921.27,-77.87"/>
<polygon fill="#63b8ff" stroke="#63b8ff" points="922.61,-81.1 930.53,-74.06 919.95,-74.62 922.61,-81.1"/>
</g>
</g>
</svg>
