<?xml version="1.0" encoding="UTF-8" standalone="no"?>
<!DOCTYPE svg PUBLIC "-//W3C//DTD SVG 1.1//EN"
 "http://www.w3.org/Graphics/SVG/1.1/DTD/svg11.dtd">
<!-- Generated by graphviz version 2.43.0 (0)
 -->
<!-- Title: sharp_effective_inflow_layer Pages: 1 -->
<svg width="1078pt" height="340pt"
 viewBox="0.00 0.00 1078.00 340.00" xmlns="http://www.w3.org/2000/svg" xmlns:xlink="http://www.w3.org/1999/xlink">
<g id="graph0" class="graph" transform="scale(1 1) rotate(0) translate(4 336)">
<title>sharp_effective_inflow_layer</title>
<!-- Node1 -->
<g id="node1" class="node">
<title>Node1</title>
<g id="a_node1"><a xlink:title=" ">
<polygon fill="#999999" stroke="#666666" points="126,-242.5 0,-242.5 0,-212.5 126,-212.5 126,-242.5"/>
<text text-anchor="start" x="8" y="-230.5" font-family="Helvetica,sans-Serif" font-size="10.00">sharp_effective_inflow</text>
<text text-anchor="middle" x="63" y="-219.5" font-family="Helvetica,sans-Serif" font-size="10.00">_layer</text>
</a>
</g>
</g>
<!-- Node2 -->
<g id="node2" class="node">
<title>Node2</title>
<g id="a_node2"><a xlink:href="namespacesharp.html#a2e6b7cd4a3594a8f2c2050b0e4784cce" target="_top" xlink:title="Computes the Effective Inflow Layer for a given atmospheric sounding.">
<polygon fill="white" stroke="#666666" points="289,-242.5 162,-242.5 162,-212.5 289,-212.5 289,-242.5"/>
<text text-anchor="start" x="170" y="-230.5" font-family="Helvetica,sans-Serif" font-size="10.00">sharp::effective_inflow</text>
<text text-anchor="middle" x="225.5" y="-219.5" font-family="Helvetica,sans-Serif" font-size="10.00">_layer</text>
</a>
</g>
</g>
<!-- Node1&#45;&gt;Node2 -->
<g id="edge1" class="edge">
<title>Node1&#45;&gt;Node2</title>
<path fill="none" stroke="#63b8ff" d="M126.05,-227.5C134.49,-227.5 143.2,-227.5 151.8,-227.5"/>
<polygon fill="#63b8ff" stroke="#63b8ff" points="151.82,-231 161.82,-227.5 151.82,-224 151.82,-231"/>
</g>
<!-- Node3 -->
<g id="node3" class="node">
<title>Node3</title>
<g id="a_node3"><a xlink:href="namespacesharp.html#aae31e8a18568ec26222b603e629c5598" target="_top" xlink:title="compute buoyancy given parcel and environment temperatures">
<polygon fill="white" stroke="#666666" points="440.5,-274 343.5,-274 343.5,-255 440.5,-255 440.5,-274"/>
<text text-anchor="middle" x="392" y="-262" font-family="Helvetica,sans-Serif" font-size="10.00">sharp::buoyancy</text>
</a>
</g>
</g>
<!-- Node2&#45;&gt;Node3 -->
<g id="edge2" class="edge">
<title>Node2&#45;&gt;Node3</title>
<path fill="none" stroke="#63b8ff" d="M289.16,-241.59C305.4,-245.25 322.71,-249.14 338.38,-252.66"/>
<polygon fill="#63b8ff" stroke="#63b8ff" points="337.88,-256.14 348.4,-254.92 339.42,-249.31 337.88,-256.14"/>
</g>
<!-- Node4 -->
<g id="node4" class="node">
<title>Node4</title>
<g id="a_node4"><a xlink:href="structsharp_1_1Parcel.html#a0560bd193b2d2d6bc6b08baa7463fba4" target="_top" xlink:title="Compute CAPE and CINH for a previously lifted sharp::Parcel.">
<polygon fill="white" stroke="#666666" points="459,-237 325,-237 325,-218 459,-218 459,-237"/>
<text text-anchor="middle" x="392" y="-225" font-family="Helvetica,sans-Serif" font-size="10.00">sharp::Parcel::cape_cinh</text>
</a>
</g>
</g>
<!-- Node2&#45;&gt;Node4 -->
<g id="edge3" class="edge">
<title>Node2&#45;&gt;Node4</title>
<path fill="none" stroke="#63b8ff" d="M289.16,-227.5C297.58,-227.5 306.29,-227.5 314.91,-227.5"/>
<polygon fill="#63b8ff" stroke="#63b8ff" points="314.96,-231 324.96,-227.5 314.96,-224 314.96,-231"/>
</g>
<!-- Node16 -->
<g id="node16" class="node">
<title>Node16</title>
<g id="a_node16"><a xlink:href="structsharp_1_1Parcel.html#a9523de2b8b4c28ca49fba3013f94cb06" target="_top" xlink:title="Lifts a sharp::Parcel to compute its virtual temperature.">
<polygon fill="white" stroke="#666666" points="441,-118.5 343,-118.5 343,-88.5 441,-88.5 441,-118.5"/>
<text text-anchor="start" x="351" y="-106.5" font-family="Helvetica,sans-Serif" font-size="10.00">sharp::Parcel::lift</text>
<text text-anchor="middle" x="392" y="-95.5" font-family="Helvetica,sans-Serif" font-size="10.00">_parcel</text>
</a>
</g>
</g>
<!-- Node2&#45;&gt;Node16 -->
<g id="edge21" class="edge">
<title>Node2&#45;&gt;Node16</title>
<path fill="none" stroke="#63b8ff" d="M246.67,-212.3C275.73,-190.39 329.51,-149.85 362.58,-124.92"/>
<polygon fill="#63b8ff" stroke="#63b8ff" points="365.04,-127.45 370.92,-118.64 360.83,-121.86 365.04,-127.45"/>
</g>
<!-- Node5 -->
<g id="node5" class="node">
<title>Node5</title>
<g id="a_node5"><a xlink:href="structsharp_1_1Parcel.html#a8a311e09b1d46a829212da94cf181537" target="_top" xlink:title="Find the LFC and EL that bounds the layer with the maximum CAPE.">
<polygon fill="white" stroke="#666666" points="620,-218.5 517,-218.5 517,-188.5 620,-188.5 620,-218.5"/>
<text text-anchor="start" x="525" y="-206.5" font-family="Helvetica,sans-Serif" font-size="10.00">sharp::Parcel::find</text>
<text text-anchor="middle" x="568.5" y="-195.5" font-family="Helvetica,sans-Serif" font-size="10.00">_lfc_el</text>
</a>
</g>
</g>
<!-- Node4&#45;&gt;Node5 -->
<g id="edge4" class="edge">
<title>Node4&#45;&gt;Node5</title>
<path fill="none" stroke="#63b8ff" d="M459.47,-218.36C474.96,-216.23 491.39,-213.97 506.63,-211.87"/>
<polygon fill="#63b8ff" stroke="#63b8ff" points="507.53,-215.28 516.96,-210.45 506.58,-208.35 507.53,-215.28"/>
</g>
<!-- Node12 -->
<g id="node12" class="node">
<title>Node12</title>
<g id="a_node12"><a xlink:href="namespacesharp.html#a7acec1642f27591dc988bf9e48b4612d" target="_top" xlink:title="Returns a trapezoidal integration of the given layer.">
<polygon fill="white" stroke="#666666" points="630.5,-314.5 506.5,-314.5 506.5,-284.5 630.5,-284.5 630.5,-314.5"/>
<text text-anchor="start" x="514.5" y="-302.5" font-family="Helvetica,sans-Serif" font-size="10.00">sharp::integrate_layer</text>
<text text-anchor="middle" x="568.5" y="-291.5" font-family="Helvetica,sans-Serif" font-size="10.00">_trapz</text>
</a>
</g>
</g>
<!-- Node4&#45;&gt;Node12 -->
<g id="edge12" class="edge">
<title>Node4&#45;&gt;Node12</title>
<path fill="none" stroke="#63b8ff" d="M435.51,-237.03C443.54,-239.58 451.7,-242.71 459,-246.5 477.23,-255.97 476.96,-265.67 495,-275.5 498.22,-277.25 501.58,-278.91 505.03,-280.46"/>
<polygon fill="#63b8ff" stroke="#63b8ff" points="503.72,-283.71 514.29,-284.35 506.43,-277.25 503.72,-283.71"/>
</g>
<!-- Node15 -->
<g id="node15" class="node">
<title>Node15</title>
<g id="a_node15"><a xlink:href="namespacesharp.html#a31da980f398c9f6a5960ddf868101a94" target="_top" xlink:title="Converts a sharp::PressureLayer to a sharp::HeightLayer.">
<polygon fill="white" stroke="#666666" points="629.5,-266.5 507.5,-266.5 507.5,-236.5 629.5,-236.5 629.5,-266.5"/>
<text text-anchor="start" x="515.5" y="-254.5" font-family="Helvetica,sans-Serif" font-size="10.00">sharp::pressure_layer</text>
<text text-anchor="middle" x="568.5" y="-243.5" font-family="Helvetica,sans-Serif" font-size="10.00">_to_height</text>
</a>
</g>
</g>
<!-- Node4&#45;&gt;Node15 -->
<g id="edge19" class="edge">
<title>Node4&#45;&gt;Node15</title>
<path fill="none" stroke="#63b8ff" d="M459.47,-236.64C471.73,-238.33 484.58,-240.1 496.96,-241.8"/>
<polygon fill="#63b8ff" stroke="#63b8ff" points="496.84,-245.32 507.23,-243.21 497.8,-238.38 496.84,-245.32"/>
</g>
<!-- Node6 -->
<g id="node6" class="node">
<title>Node6</title>
<g id="a_node6"><a xlink:href="namespacesharp.html#ac93f477dfa774c966b5da7521bd43ee6" target="_top" xlink:title="Returns the array indices corresponding to the given layer.">
<polygon fill="white" stroke="#666666" points="806,-216 678,-216 678,-197 806,-197 806,-216"/>
<text text-anchor="middle" x="742" y="-204" font-family="Helvetica,sans-Serif" font-size="10.00">sharp::get_layer_index</text>
</a>
</g>
</g>
<!-- Node5&#45;&gt;Node6 -->
<g id="edge5" class="edge">
<title>Node5&#45;&gt;Node6</title>
<path fill="none" stroke="#63b8ff" d="M620.03,-204.38C634.86,-204.64 651.39,-204.93 667.36,-205.21"/>
<polygon fill="#63b8ff" stroke="#63b8ff" points="667.68,-208.72 677.74,-205.39 667.8,-201.72 667.68,-208.72"/>
</g>
<!-- Node9 -->
<g id="node9" class="node">
<title>Node9</title>
<g id="a_node9"><a xlink:href="namespacesharp.html#a55e4f8ee4ff8a4a30d7b3f3d92a41c75" target="_top" xlink:title="Linearly interpolate a data field to a requested pressure level.">
<polygon fill="white" stroke="#666666" points="804.5,-258 679.5,-258 679.5,-239 804.5,-239 804.5,-258"/>
<text text-anchor="middle" x="742" y="-246" font-family="Helvetica,sans-Serif" font-size="10.00">sharp::interp_pressure</text>
</a>
</g>
</g>
<!-- Node5&#45;&gt;Node9 -->
<g id="edge8" class="edge">
<title>Node5&#45;&gt;Node9</title>
<path fill="none" stroke="#63b8ff" d="M620.03,-216.76C643.7,-222.97 671.7,-230.32 694.8,-236.38"/>
<polygon fill="#63b8ff" stroke="#63b8ff" points="694.14,-239.82 704.7,-238.98 695.92,-233.05 694.14,-239.82"/>
</g>
<!-- Node7 -->
<g id="node7" class="node">
<title>Node7</title>
<g id="a_node7"><a xlink:href="namespacesharp.html#a1edcf8bff9a13429bcbff7c1129024b3" target="_top" xlink:title="Finds the index of the lower bound that does not satisfy element &lt; value.">
<polygon fill="white" stroke="#666666" points="954.5,-216 842.5,-216 842.5,-197 954.5,-197 954.5,-216"/>
<text text-anchor="middle" x="898.5" y="-204" font-family="Helvetica,sans-Serif" font-size="10.00">sharp::lower_bound</text>
</a>
</g>
</g>
<!-- Node6&#45;&gt;Node7 -->
<g id="edge6" class="edge">
<title>Node6&#45;&gt;Node7</title>
<path fill="none" stroke="#63b8ff" d="M806.29,-206.5C814.91,-206.5 823.78,-206.5 832.43,-206.5"/>
<polygon fill="#63b8ff" stroke="#63b8ff" points="832.47,-210 842.47,-206.5 832.47,-203 832.47,-210"/>
</g>
<!-- Node8 -->
<g id="node8" class="node">
<title>Node8</title>
<g id="a_node8"><a xlink:href="namespacesharp.html#a772686549a5111c1152b778731119aa6" target="_top" xlink:title="Finds the first index that satisfies value &lt; element.">
<polygon fill="white" stroke="#666666" points="955,-258 842,-258 842,-239 955,-239 955,-258"/>
<text text-anchor="middle" x="898.5" y="-246" font-family="Helvetica,sans-Serif" font-size="10.00">sharp::upper_bound</text>
</a>
</g>
</g>
<!-- Node6&#45;&gt;Node8 -->
<g id="edge7" class="edge">
<title>Node6&#45;&gt;Node8</title>
<path fill="none" stroke="#63b8ff" d="M778.06,-216.03C800.1,-222.02 828.76,-229.81 852.48,-236.26"/>
<polygon fill="#63b8ff" stroke="#63b8ff" points="851.75,-239.69 862.31,-238.93 853.58,-232.93 851.75,-239.69"/>
</g>
<!-- Node9&#45;&gt;Node8 -->
<g id="edge11" class="edge">
<title>Node9&#45;&gt;Node8</title>
<path fill="none" stroke="#63b8ff" d="M804.51,-248.5C813.43,-248.5 822.65,-248.5 831.66,-248.5"/>
<polygon fill="#63b8ff" stroke="#63b8ff" points="831.71,-252 841.71,-248.5 831.71,-245 831.71,-252"/>
</g>
<!-- Node10 -->
<g id="node10" class="node">
<title>Node10</title>
<g id="a_node10"><a xlink:href="namespacesharp.html#a0bf533560780fdb77bc3656db8d89208" target="_top" xlink:title="Linearly interpolates between a and b with distance t.">
<polygon fill="white" stroke="#666666" points="932.5,-313 864.5,-313 864.5,-294 932.5,-294 932.5,-313"/>
<text text-anchor="middle" x="898.5" y="-301" font-family="Helvetica,sans-Serif" font-size="10.00">sharp::lerp</text>
</a>
</g>
</g>
<!-- Node9&#45;&gt;Node10 -->
<g id="edge9" class="edge">
<title>Node9&#45;&gt;Node10</title>
<path fill="none" stroke="#63b8ff" d="M776.51,-258.05C786.09,-260.93 796.5,-264.21 806,-267.5 825.82,-274.37 847.69,-282.94 865.08,-290"/>
<polygon fill="#63b8ff" stroke="#63b8ff" points="864.18,-293.41 874.76,-293.95 866.82,-286.93 864.18,-293.41"/>
</g>
<!-- Node11 -->
<g id="node11" class="node">
<title>Node11</title>
<g id="a_node11"><a xlink:href="namespacesharp.html#ac4464059524ff56c7974141bb4cc7375" target="_top" xlink:title="Linearly interpolates between a and b with distance t.">
<polygon fill="white" stroke="#666666" points="1070,-313 991,-313 991,-294 1070,-294 1070,-313"/>
<text text-anchor="middle" x="1030.5" y="-301" font-family="Helvetica,sans-Serif" font-size="10.00">sharp::__lerp</text>
</a>
</g>
</g>
<!-- Node10&#45;&gt;Node11 -->
<g id="edge10" class="edge">
<title>Node10&#45;&gt;Node11</title>
<path fill="none" stroke="#63b8ff" d="M932.64,-303.5C947.2,-303.5 964.6,-303.5 980.61,-303.5"/>
<polygon fill="#63b8ff" stroke="#63b8ff" points="980.88,-307 990.88,-303.5 980.88,-300 980.88,-307"/>
</g>
<!-- Node12&#45;&gt;Node6 -->
<g id="edge14" class="edge">
<title>Node12&#45;&gt;Node6</title>
<path fill="none" stroke="#63b8ff" d="M626.09,-284.41C631.69,-281.86 637.1,-278.91 642,-275.5 663.02,-260.87 657.3,-245.59 678,-230.5 683.59,-226.42 689.96,-222.95 696.45,-220.02"/>
<polygon fill="#63b8ff" stroke="#63b8ff" points="698.05,-223.14 705.97,-216.1 695.39,-216.67 698.05,-223.14"/>
</g>
<!-- Node12&#45;&gt;Node9 -->
<g id="edge18" class="edge">
<title>Node12&#45;&gt;Node9</title>
<path fill="none" stroke="#63b8ff" d="M620.03,-284.47C645.19,-276.99 675.24,-268.06 699.1,-260.96"/>
<polygon fill="#63b8ff" stroke="#63b8ff" points="700.32,-264.25 708.91,-258.04 698.33,-257.54 700.32,-264.25"/>
</g>
<!-- Node13 -->
<g id="node13" class="node">
<title>Node13</title>
<g id="a_node13"><a xlink:href="namespacesharp.html#a3558a68454edd4679ef97335e3a9f1fb" target="_top" xlink:title="A kernel that computes the area under a curve using the trapezoidal rule.">
<polygon fill="white" stroke="#666666" points="797,-295 687,-295 687,-276 797,-276 797,-295"/>
<text text-anchor="middle" x="742" y="-283" font-family="Helvetica,sans-Serif" font-size="10.00">sharp::_integ_trapz</text>
</a>
</g>
</g>
<!-- Node12&#45;&gt;Node13 -->
<g id="edge13" class="edge">
<title>Node12&#45;&gt;Node13</title>
<path fill="none" stroke="#63b8ff" d="M630.93,-294.49C645.77,-293.27 661.67,-291.98 676.63,-290.75"/>
<polygon fill="#63b8ff" stroke="#63b8ff" points="677.14,-294.22 686.82,-289.92 676.57,-287.25 677.14,-294.22"/>
</g>
<!-- Node14 -->
<g id="node14" class="node">
<title>Node14</title>
<g id="a_node14"><a xlink:href="namespacesharp.html#ae8240f026498ad2775633a8d0dcf100d" target="_top" xlink:title="Linearly interpolate a data field to a requested height level.">
<polygon fill="white" stroke="#666666" points="799,-332 685,-332 685,-313 799,-313 799,-332"/>
<text text-anchor="middle" x="742" y="-320" font-family="Helvetica,sans-Serif" font-size="10.00">sharp::interp_height</text>
</a>
</g>
</g>
<!-- Node12&#45;&gt;Node14 -->
<g id="edge15" class="edge">
<title>Node12&#45;&gt;Node14</title>
<path fill="none" stroke="#63b8ff" d="M630.93,-307.74C645.08,-309.64 660.2,-311.66 674.56,-313.59"/>
<polygon fill="#63b8ff" stroke="#63b8ff" points="674.47,-317.11 684.85,-314.97 675.4,-310.17 674.47,-317.11"/>
</g>
<!-- Node14&#45;&gt;Node8 -->
<g id="edge17" class="edge">
<title>Node14&#45;&gt;Node8</title>
<path fill="none" stroke="#63b8ff" d="M782.56,-312.97C790.47,-310.58 798.61,-307.75 806,-304.5 819.64,-298.51 851.96,-278.14 874.29,-263.7"/>
<polygon fill="#63b8ff" stroke="#63b8ff" points="876.39,-266.51 882.87,-258.12 872.58,-260.64 876.39,-266.51"/>
</g>
<!-- Node14&#45;&gt;Node10 -->
<g id="edge16" class="edge">
<title>Node14&#45;&gt;Node10</title>
<path fill="none" stroke="#63b8ff" d="M799.22,-315.59C817.36,-313.35 837.19,-310.92 854.25,-308.82"/>
<polygon fill="#63b8ff" stroke="#63b8ff" points="854.98,-312.26 864.48,-307.56 854.12,-305.31 854.98,-312.26"/>
</g>
<!-- Node15&#45;&gt;Node9 -->
<g id="edge20" class="edge">
<title>Node15&#45;&gt;Node9</title>
<path fill="none" stroke="#63b8ff" d="M629.96,-250.44C642.6,-250.22 656.03,-249.99 669.03,-249.76"/>
<polygon fill="#63b8ff" stroke="#63b8ff" points="669.41,-253.25 679.34,-249.58 669.28,-246.25 669.41,-253.25"/>
</g>
<!-- Node16&#45;&gt;Node6 -->
<g id="edge26" class="edge">
<title>Node16&#45;&gt;Node6</title>
<path fill="none" stroke="#63b8ff" d="M431.96,-118.55C450.86,-125.62 473.97,-133.91 495,-140.5 559.5,-160.71 576.73,-161.94 642,-179.5 659.83,-184.3 679.46,-189.64 696.49,-194.29"/>
<polygon fill="#63b8ff" stroke="#63b8ff" points="695.63,-197.68 706.2,-196.94 697.47,-190.93 695.63,-197.68"/>
</g>
<!-- Node17 -->
<g id="node17" class="node">
<title>Node17</title>
<g id="a_node17"><a xlink:href="namespacesharp.html#ae4385866921cd7286946d9ffdd65c25e" target="_top" xlink:title="Lift a parcel dry adiabatically to its Lifted Condensation Level (LCL).">
<polygon fill="white" stroke="#666666" points="607.5,-132 529.5,-132 529.5,-113 607.5,-113 607.5,-132"/>
<text text-anchor="middle" x="568.5" y="-120" font-family="Helvetica,sans-Serif" font-size="10.00">sharp::drylift</text>
</a>
</g>
</g>
<!-- Node16&#45;&gt;Node17 -->
<g id="edge22" class="edge">
<title>Node16&#45;&gt;Node17</title>
<path fill="none" stroke="#63b8ff" d="M441.14,-108.74C465.51,-111.39 495,-114.61 519.36,-117.26"/>
<polygon fill="#63b8ff" stroke="#63b8ff" points="519.14,-120.75 529.46,-118.36 519.9,-113.8 519.14,-120.75"/>
</g>
<!-- Node19 -->
<g id="node19" class="node">
<title>Node19</title>
<g id="a_node19"><a xlink:href="namespacesharp.html#acfd0143ab72871c4aabc95c1140ee8fb" target="_top" xlink:title="Compute the potential temperature.">
<polygon fill="white" stroke="#666666" points="779.5,-95 704.5,-95 704.5,-76 779.5,-76 779.5,-95"/>
<text text-anchor="middle" x="742" y="-83" font-family="Helvetica,sans-Serif" font-size="10.00">sharp::theta</text>
</a>
</g>
</g>
<!-- Node16&#45;&gt;Node19 -->
<g id="edge28" class="edge">
<title>Node16&#45;&gt;Node19</title>
<path fill="none" stroke="#63b8ff" d="M441.02,-101.02C507.84,-97.56 628.06,-91.34 694.21,-87.92"/>
<polygon fill="#63b8ff" stroke="#63b8ff" points="694.54,-91.41 704.34,-87.4 694.18,-84.42 694.54,-91.41"/>
</g>
<!-- Node21 -->
<g id="node21" class="node">
<title>Node21</title>
<g id="a_node21"><a xlink:href="namespacesharp.html#ac38870166f07ac30aadbc46b81340cc4" target="_top" xlink:title="Compute the water vapor mixing ratio from specific humidity.">
<polygon fill="white" stroke="#666666" points="614,-56 523,-56 523,-37 614,-37 614,-56"/>
<text text-anchor="middle" x="568.5" y="-44" font-family="Helvetica,sans-Serif" font-size="10.00">sharp::mixratio</text>
</a>
</g>
</g>
<!-- Node16&#45;&gt;Node21 -->
<g id="edge27" class="edge">
<title>Node16&#45;&gt;Node21</title>
<path fill="none" stroke="#63b8ff" d="M439.3,-88.37C467.15,-79.28 502.19,-67.83 528.59,-59.21"/>
<polygon fill="#63b8ff" stroke="#63b8ff" points="529.84,-62.48 538.26,-56.05 527.67,-55.83 529.84,-62.48"/>
</g>
<!-- Node22 -->
<g id="node22" class="node">
<title>Node22</title>
<g id="a_node22"><a xlink:href="namespacesharp.html#a46e2f332f68747fee1eb817f7bd3a00b" target="_top" xlink:title="Compute the full virtual temperature.">
<polygon fill="white" stroke="#666666" points="642,-19 495,-19 495,0 642,0 642,-19"/>
<text text-anchor="middle" x="568.5" y="-7" font-family="Helvetica,sans-Serif" font-size="10.00">sharp::virtual_temperature</text>
</a>
</g>
</g>
<!-- Node16&#45;&gt;Node22 -->
<g id="edge29" class="edge">
<title>Node16&#45;&gt;Node22</title>
<path fill="none" stroke="#63b8ff" d="M408.98,-88.36C428.02,-71.14 461.46,-43.36 495,-27.5 499.13,-25.54 503.51,-23.79 507.97,-22.21"/>
<polygon fill="#63b8ff" stroke="#63b8ff" points="509.39,-25.43 517.84,-19.03 507.24,-18.76 509.39,-25.43"/>
</g>
<!-- Node18 -->
<g id="node18" class="node">
<title>Node18</title>
<g id="a_node18"><a xlink:href="namespacesharp.html#af016701e4a46d5c04d26c0a09c0aad38" target="_top" xlink:title="Compute the temperature of the LCL.">
<polygon fill="white" stroke="#666666" points="805.5,-169 678.5,-169 678.5,-150 805.5,-150 805.5,-169"/>
<text text-anchor="middle" x="742" y="-157" font-family="Helvetica,sans-Serif" font-size="10.00">sharp::lcl_temperature</text>
</a>
</g>
</g>
<!-- Node17&#45;&gt;Node18 -->
<g id="edge23" class="edge">
<title>Node17&#45;&gt;Node18</title>
<path fill="none" stroke="#63b8ff" d="M607.56,-130.71C630.82,-135.73 660.95,-142.23 686.69,-147.78"/>
<polygon fill="#63b8ff" stroke="#63b8ff" points="686.16,-151.25 696.68,-149.94 687.64,-144.41 686.16,-151.25"/>
</g>
<!-- Node17&#45;&gt;Node19 -->
<g id="edge24" class="edge">
<title>Node17&#45;&gt;Node19</title>
<path fill="none" stroke="#63b8ff" d="M607.56,-114.29C633.11,-108.78 666.95,-101.48 694.15,-95.61"/>
<polygon fill="#63b8ff" stroke="#63b8ff" points="695.19,-98.96 704.22,-93.43 693.71,-92.12 695.19,-98.96"/>
</g>
<!-- Node20 -->
<g id="node20" class="node">
<title>Node20</title>
<g id="a_node20"><a xlink:href="namespacesharp.html#ab50b565bcba73d207dc1433dee5b03c9" target="_top" xlink:title="Comute the pressure level given potential temperature and temperature.">
<polygon fill="white" stroke="#666666" points="794,-132 690,-132 690,-113 794,-113 794,-132"/>
<text text-anchor="middle" x="742" y="-120" font-family="Helvetica,sans-Serif" font-size="10.00">sharp::theta_level</text>
</a>
</g>
</g>
<!-- Node17&#45;&gt;Node20 -->
<g id="edge25" class="edge">
<title>Node17&#45;&gt;Node20</title>
<path fill="none" stroke="#63b8ff" d="M607.56,-122.5C628.72,-122.5 655.55,-122.5 679.6,-122.5"/>
<polygon fill="#63b8ff" stroke="#63b8ff" points="679.71,-126 689.71,-122.5 679.71,-119 679.71,-126"/>
</g>
</g>
</svg>
