<?xml version="1.0" encoding="UTF-8" standalone="no"?>
<!DOCTYPE svg PUBLIC "-//W3C//DTD SVG 1.1//EN"
 "http://www.w3.org/Graphics/SVG/1.1/DTD/svg11.dtd">
<!-- Generated by graphviz version 2.43.0 (0)
 -->
<!-- Title: sharp_energy_helicity_index Pages: 1 -->
<svg width="843pt" height="101pt"
 viewBox="0.00 0.00 843.00 101.00" xmlns="http://www.w3.org/2000/svg" xmlns:xlink="http://www.w3.org/1999/xlink">
<g id="graph0" class="graph" transform="scale(1 1) rotate(0) translate(4 97)">
<title>sharp_energy_helicity_index</title>
<!-- Node1 -->
<g id="node1" class="node">
<title>Node1</title>
<g id="a_node1"><a xlink:title=" ">
<polygon fill="#999999" stroke="#666666" points="124,-61.5 0,-61.5 0,-31.5 124,-31.5 124,-61.5"/>
<text text-anchor="start" x="8" y="-49.5" font-family="Helvetica,sans-Serif" font-size="10.00">sharp_energy_helicity</text>
<text text-anchor="middle" x="62" y="-38.5" font-family="Helvetica,sans-Serif" font-size="10.00">_index</text>
</a>
</g>
</g>
<!-- Node2 -->
<g id="node2" class="node">
<title>Node2</title>
<g id="a_node2"><a xlink:href="namespacesharp.html#ab89a7e3555a52f0fd9f4086d5aba7037" target="_top" xlink:title=" ">
<polygon fill="white" stroke="#666666" points="285,-61.5 160,-61.5 160,-31.5 285,-31.5 285,-61.5"/>
<text text-anchor="start" x="168" y="-49.5" font-family="Helvetica,sans-Serif" font-size="10.00">sharp::energy_helicity</text>
<text text-anchor="middle" x="222.5" y="-38.5" font-family="Helvetica,sans-Serif" font-size="10.00">_index</text>
</a>
</g>
</g>
<!-- Node1&#45;&gt;Node2 -->
<g id="edge1" class="edge">
<title>Node1&#45;&gt;Node2</title>
<path fill="none" stroke="#63b8ff" d="M124.28,-46.5C132.58,-46.5 141.16,-46.5 149.62,-46.5"/>
<polygon fill="#63b8ff" stroke="#63b8ff" points="149.86,-50 159.86,-46.5 149.86,-43 149.86,-50"/>
</g>
<!-- Node3 -->
<g id="node3" class="node">
<title>Node3</title>
<g id="a_node3"><a xlink:href="namespacesharp.html#a80858337a63be77bafadbb343d6e4931" target="_top" xlink:title="Computes the Storm Relative Helicity (SRH) over a given layer.">
<polygon fill="white" stroke="#666666" points="407,-56 321,-56 321,-37 407,-37 407,-56"/>
<text text-anchor="middle" x="364" y="-44" font-family="Helvetica,sans-Serif" font-size="10.00">sharp::helicity</text>
</a>
</g>
</g>
<!-- Node2&#45;&gt;Node3 -->
<g id="edge2" class="edge">
<title>Node2&#45;&gt;Node3</title>
<path fill="none" stroke="#63b8ff" d="M285.09,-46.5C293.71,-46.5 302.49,-46.5 310.9,-46.5"/>
<polygon fill="#63b8ff" stroke="#63b8ff" points="310.95,-50 320.95,-46.5 310.95,-43 310.95,-50"/>
</g>
<!-- Node4 -->
<g id="node4" class="node">
<title>Node4</title>
<g id="a_node4"><a xlink:href="namespacesharp.html#ac93f477dfa774c966b5da7521bd43ee6" target="_top" xlink:title="Returns the array indices corresponding to the given layer.">
<polygon fill="white" stroke="#666666" points="571,-93 443,-93 443,-74 571,-74 571,-93"/>
<text text-anchor="middle" x="507" y="-81" font-family="Helvetica,sans-Serif" font-size="10.00">sharp::get_layer_index</text>
</a>
</g>
</g>
<!-- Node3&#45;&gt;Node4 -->
<g id="edge3" class="edge">
<title>Node3&#45;&gt;Node4</title>
<path fill="none" stroke="#63b8ff" d="M401.31,-56.03C419.02,-60.67 440.52,-66.32 459.42,-71.28"/>
<polygon fill="#63b8ff" stroke="#63b8ff" points="458.76,-74.72 469.32,-73.88 460.54,-67.95 458.76,-74.72"/>
</g>
<!-- Node7 -->
<g id="node7" class="node">
<title>Node7</title>
<g id="a_node7"><a xlink:href="namespacesharp.html#af8484e9fe21c025b64ecffde614feb11" target="_top" xlink:title="Linearly interpolate a data field to a requested height level.">
<polygon fill="white" stroke="#666666" points="564,-19 450,-19 450,0 564,0 564,-19"/>
<text text-anchor="middle" x="507" y="-7" font-family="Helvetica,sans-Serif" font-size="10.00">sharp::interp_height</text>
</a>
</g>
</g>
<!-- Node3&#45;&gt;Node7 -->
<g id="edge6" class="edge">
<title>Node3&#45;&gt;Node7</title>
<path fill="none" stroke="#63b8ff" d="M401.31,-36.97C419.02,-32.33 440.52,-26.68 459.42,-21.72"/>
<polygon fill="#63b8ff" stroke="#63b8ff" points="460.54,-25.05 469.32,-19.12 458.76,-18.28 460.54,-25.05"/>
</g>
<!-- Node10 -->
<g id="node10" class="node">
<title>Node10</title>
<g id="a_node10"><a xlink:href="namespacesharp.html#a7ed0899941867073e5062af04fdbd3e7" target="_top" xlink:title="Linearly interpolate a data field to a requested pressure level.">
<polygon fill="white" stroke="#666666" points="569.5,-56 444.5,-56 444.5,-37 569.5,-37 569.5,-56"/>
<text text-anchor="middle" x="507" y="-44" font-family="Helvetica,sans-Serif" font-size="10.00">sharp::interp_pressure</text>
</a>
</g>
</g>
<!-- Node3&#45;&gt;Node10 -->
<g id="edge10" class="edge">
<title>Node3&#45;&gt;Node10</title>
<path fill="none" stroke="#63b8ff" d="M407.3,-46.5C415.88,-46.5 425.13,-46.5 434.4,-46.5"/>
<polygon fill="#63b8ff" stroke="#63b8ff" points="434.44,-50 444.44,-46.5 434.44,-43 434.44,-50"/>
</g>
<!-- Node5 -->
<g id="node5" class="node">
<title>Node5</title>
<g id="a_node5"><a xlink:href="namespacesharp.html#a1edcf8bff9a13429bcbff7c1129024b3" target="_top" xlink:title="Finds the index of the lower bound that does not satisfy element &lt; value.">
<polygon fill="white" stroke="#666666" points="719.5,-93 607.5,-93 607.5,-74 719.5,-74 719.5,-93"/>
<text text-anchor="middle" x="663.5" y="-81" font-family="Helvetica,sans-Serif" font-size="10.00">sharp::lower_bound</text>
</a>
</g>
</g>
<!-- Node4&#45;&gt;Node5 -->
<g id="edge4" class="edge">
<title>Node4&#45;&gt;Node5</title>
<path fill="none" stroke="#63b8ff" d="M571.29,-83.5C579.91,-83.5 588.78,-83.5 597.43,-83.5"/>
<polygon fill="#63b8ff" stroke="#63b8ff" points="597.47,-87 607.47,-83.5 597.47,-80 597.47,-87"/>
</g>
<!-- Node6 -->
<g id="node6" class="node">
<title>Node6</title>
<g id="a_node6"><a xlink:href="namespacesharp.html#a772686549a5111c1152b778731119aa6" target="_top" xlink:title="Finds the first index that satisfies value &lt; element.">
<polygon fill="white" stroke="#666666" points="720,-56 607,-56 607,-37 720,-37 720,-56"/>
<text text-anchor="middle" x="663.5" y="-44" font-family="Helvetica,sans-Serif" font-size="10.00">sharp::upper_bound</text>
</a>
</g>
</g>
<!-- Node4&#45;&gt;Node6 -->
<g id="edge5" class="edge">
<title>Node4&#45;&gt;Node6</title>
<path fill="none" stroke="#63b8ff" d="M547.79,-73.97C567.62,-69.22 591.81,-63.43 612.85,-58.39"/>
<polygon fill="#63b8ff" stroke="#63b8ff" points="613.67,-61.79 622.58,-56.06 612.04,-54.99 613.67,-61.79"/>
</g>
<!-- Node7&#45;&gt;Node6 -->
<g id="edge9" class="edge">
<title>Node7&#45;&gt;Node6</title>
<path fill="none" stroke="#63b8ff" d="M547.79,-19.03C567.62,-23.78 591.81,-29.57 612.85,-34.61"/>
<polygon fill="#63b8ff" stroke="#63b8ff" points="612.04,-38.01 622.58,-36.94 613.67,-31.21 612.04,-38.01"/>
</g>
<!-- Node8 -->
<g id="node8" class="node">
<title>Node8</title>
<g id="a_node8"><a xlink:href="namespacesharp.html#a8aa123fbe3b59a7023446b0fe2186c49" target="_top" xlink:title="Linearly interpolates between a and b with distance t.">
<polygon fill="white" stroke="#666666" points="697.5,-19 629.5,-19 629.5,0 697.5,0 697.5,-19"/>
<text text-anchor="middle" x="663.5" y="-7" font-family="Helvetica,sans-Serif" font-size="10.00">sharp::lerp</text>
</a>
</g>
</g>
<!-- Node7&#45;&gt;Node8 -->
<g id="edge7" class="edge">
<title>Node7&#45;&gt;Node8</title>
<path fill="none" stroke="#63b8ff" d="M564.22,-9.5C582.36,-9.5 602.19,-9.5 619.25,-9.5"/>
<polygon fill="#63b8ff" stroke="#63b8ff" points="619.48,-13 629.48,-9.5 619.48,-6 619.48,-13"/>
</g>
<!-- Node9 -->
<g id="node9" class="node">
<title>Node9</title>
<g id="a_node9"><a xlink:href="namespacesharp.html#a8848423b96dfe09b90322efd2cc5bd43" target="_top" xlink:title="Linearly interpolates between a and b with distance t.">
<polygon fill="white" stroke="#666666" points="835,-19 756,-19 756,0 835,0 835,-19"/>
<text text-anchor="middle" x="795.5" y="-7" font-family="Helvetica,sans-Serif" font-size="10.00">sharp::__lerp</text>
</a>
</g>
</g>
<!-- Node8&#45;&gt;Node9 -->
<g id="edge8" class="edge">
<title>Node8&#45;&gt;Node9</title>
<path fill="none" stroke="#63b8ff" d="M697.64,-9.5C712.2,-9.5 729.6,-9.5 745.61,-9.5"/>
<polygon fill="#63b8ff" stroke="#63b8ff" points="745.88,-13 755.88,-9.5 745.88,-6 745.88,-13"/>
</g>
<!-- Node10&#45;&gt;Node6 -->
<g id="edge12" class="edge">
<title>Node10&#45;&gt;Node6</title>
<path fill="none" stroke="#63b8ff" d="M569.51,-46.5C578.43,-46.5 587.65,-46.5 596.66,-46.5"/>
<polygon fill="#63b8ff" stroke="#63b8ff" points="596.71,-50 606.71,-46.5 596.71,-43 596.71,-50"/>
</g>
<!-- Node10&#45;&gt;Node8 -->
<g id="edge11" class="edge">
<title>Node10&#45;&gt;Node8</title>
<path fill="none" stroke="#63b8ff" d="M547.79,-36.97C569.73,-31.72 596.99,-25.19 619.43,-19.81"/>
<polygon fill="#63b8ff" stroke="#63b8ff" points="620.46,-23.17 629.37,-17.43 618.83,-16.36 620.46,-23.17"/>
</g>
</g>
</svg>
