<?xml version="1.0" encoding="UTF-8" standalone="no"?>
<!DOCTYPE svg PUBLIC "-//W3C//DTD SVG 1.1//EN"
 "http://www.w3.org/Graphics/SVG/1.1/DTD/svg11.dtd">
<!-- Generated by graphviz version 2.43.0 (0)
 -->
<!-- Title: sharp_entrainment_cape Pages: 1 -->
<svg width="1096pt" height="493pt"
 viewBox="0.00 0.00 1096.00 493.00" xmlns="http://www.w3.org/2000/svg" xmlns:xlink="http://www.w3.org/1999/xlink">
<g id="graph0" class="graph" transform="scale(1 1) rotate(0) translate(4 489)">
<title>sharp_entrainment_cape</title>
<!-- Node1 -->
<g id="node1" class="node">
<title>Node1</title>
<g id="a_node1"><a xlink:title=" ">
<polygon fill="#999999" stroke="#666666" points="137,-259.5 0,-259.5 0,-240.5 137,-240.5 137,-259.5"/>
<text text-anchor="middle" x="68.5" y="-247.5" font-family="Helvetica,sans-Serif" font-size="10.00">sharp_entrainment_cape</text>
</a>
</g>
</g>
<!-- Node2 -->
<g id="node2" class="node">
<title>Node2</title>
<g id="a_node2"><a xlink:href="namespacesharp.html#a72bbdc4cfe7895dd51981902ac9fc822" target="_top" xlink:title="Computes Entrainment CAPE using a previously lifted parcel.">
<polygon fill="white" stroke="#666666" points="311,-259.5 173,-259.5 173,-240.5 311,-240.5 311,-259.5"/>
<text text-anchor="middle" x="242" y="-247.5" font-family="Helvetica,sans-Serif" font-size="10.00">sharp::entrainment_cape</text>
</a>
</g>
</g>
<!-- Node1&#45;&gt;Node2 -->
<g id="edge1" class="edge">
<title>Node1&#45;&gt;Node2</title>
<path fill="none" stroke="#63b8ff" d="M137.28,-250C145.6,-250 154.16,-250 162.62,-250"/>
<polygon fill="#63b8ff" stroke="#63b8ff" points="162.87,-253.5 172.87,-250 162.87,-246.5 162.87,-253.5"/>
</g>
<!-- Node3 -->
<g id="node3" class="node">
<title>Node3</title>
<g id="a_node3"><a xlink:href="namespacesharp.html#a0cc6e590243b248f4fb44d9b0e1a6400" target="_top" xlink:title=" ">
<polygon fill="white" stroke="#666666" points="486,-485 347,-485 347,-455 486,-455 486,-485"/>
<text text-anchor="start" x="355" y="-473" font-family="Helvetica,sans-Serif" font-size="10.00">sharp::buoyancy_dilution</text>
<text text-anchor="middle" x="416.5" y="-462" font-family="Helvetica,sans-Serif" font-size="10.00">_potential</text>
</a>
</g>
</g>
<!-- Node2&#45;&gt;Node3 -->
<g id="edge2" class="edge">
<title>Node2&#45;&gt;Node3</title>
<path fill="none" stroke="#63b8ff" d="M245.77,-259.78C254.99,-290.63 287.41,-386.99 347,-441 350.64,-444.3 354.7,-447.25 358.99,-449.9"/>
<polygon fill="#63b8ff" stroke="#63b8ff" points="357.59,-453.12 368.04,-454.9 360.98,-447 357.59,-453.12"/>
</g>
<!-- Node4 -->
<g id="node4" class="node">
<title>Node4</title>
<g id="a_node4"><a xlink:href="namespacesharp.html#ac93f477dfa774c966b5da7521bd43ee6" target="_top" xlink:title="Returns the array indices corresponding to the given layer.">
<polygon fill="white" stroke="#666666" points="824,-426.5 696,-426.5 696,-407.5 824,-407.5 824,-426.5"/>
<text text-anchor="middle" x="760" y="-414.5" font-family="Helvetica,sans-Serif" font-size="10.00">sharp::get_layer_index</text>
</a>
</g>
</g>
<!-- Node2&#45;&gt;Node4 -->
<g id="edge3" class="edge">
<title>Node2&#45;&gt;Node4</title>
<path fill="none" stroke="#63b8ff" d="M246.49,-259.74C256.84,-287.03 290.24,-364.24 347,-396 461.6,-460.12 623.39,-443.17 705.98,-428.38"/>
<polygon fill="#63b8ff" stroke="#63b8ff" points="706.7,-431.81 715.89,-426.55 705.42,-424.92 706.7,-431.81"/>
</g>
<!-- Node7 -->
<g id="node7" class="node">
<title>Node7</title>
<g id="a_node7"><a xlink:href="namespacesharp.html#a7acec1642f27591dc988bf9e48b4612d" target="_top" xlink:title="Returns a trapezoidal integration of the given layer.">
<polygon fill="white" stroke="#666666" points="653,-399 529,-399 529,-369 653,-369 653,-399"/>
<text text-anchor="start" x="537" y="-387" font-family="Helvetica,sans-Serif" font-size="10.00">sharp::integrate_layer</text>
<text text-anchor="middle" x="591" y="-376" font-family="Helvetica,sans-Serif" font-size="10.00">_trapz</text>
</a>
</g>
</g>
<!-- Node2&#45;&gt;Node7 -->
<g id="edge6" class="edge">
<title>Node2&#45;&gt;Node7</title>
<path fill="none" stroke="#63b8ff" d="M247.88,-259.77C260.46,-283.71 296.53,-345.18 347,-370 400.21,-396.17 468.11,-397.86 518.59,-394.04"/>
<polygon fill="#63b8ff" stroke="#63b8ff" points="519.1,-397.51 528.77,-393.18 518.51,-390.53 519.1,-397.51"/>
</g>
<!-- Node9 -->
<g id="node9" class="node">
<title>Node9</title>
<g id="a_node9"><a xlink:href="namespacesharp.html#ae8240f026498ad2775633a8d0dcf100d" target="_top" xlink:title="Linearly interpolate a data field to a requested height level.">
<polygon fill="white" stroke="#666666" points="817,-349.5 703,-349.5 703,-330.5 817,-330.5 817,-349.5"/>
<text text-anchor="middle" x="760" y="-337.5" font-family="Helvetica,sans-Serif" font-size="10.00">sharp::interp_height</text>
</a>
</g>
</g>
<!-- Node2&#45;&gt;Node9 -->
<g id="edge16" class="edge">
<title>Node2&#45;&gt;Node9</title>
<path fill="none" stroke="#63b8ff" d="M265.79,-259.51C286.64,-267.93 318.48,-280.07 347,-288 465.9,-321.05 610.01,-333.15 692.44,-337.54"/>
<polygon fill="#63b8ff" stroke="#63b8ff" points="692.51,-341.05 702.68,-338.06 692.87,-334.06 692.51,-341.05"/>
</g>
<!-- Node12 -->
<g id="node12" class="node">
<title>Node12</title>
<g id="a_node12"><a xlink:href="namespacesharp.html#a55e4f8ee4ff8a4a30d7b3f3d92a41c75" target="_top" xlink:title="Linearly interpolate a data field to a requested pressure level.">
<polygon fill="white" stroke="#666666" points="822.5,-308.5 697.5,-308.5 697.5,-289.5 822.5,-289.5 822.5,-308.5"/>
<text text-anchor="middle" x="760" y="-296.5" font-family="Helvetica,sans-Serif" font-size="10.00">sharp::interp_pressure</text>
</a>
</g>
</g>
<!-- Node2&#45;&gt;Node12 -->
<g id="edge17" class="edge">
<title>Node2&#45;&gt;Node12</title>
<path fill="none" stroke="#63b8ff" d="M252.93,-240.38C270.36,-224.12 308.31,-191.46 347,-176 476.59,-124.22 536.91,-85.25 660,-151 711.67,-178.6 741.09,-246.43 752.89,-279.81"/>
<polygon fill="#63b8ff" stroke="#63b8ff" points="749.59,-280.99 756.11,-289.34 756.22,-278.75 749.59,-280.99"/>
</g>
<!-- Node13 -->
<g id="node13" class="node">
<title>Node13</title>
<g id="a_node13"><a xlink:href="namespacesharp.html#a298e2c96c389f2c5177d3626c908927e" target="_top" xlink:title="Computes the mass&#45;weighted mean value of a field over a given pressure layer.">
<polygon fill="white" stroke="#666666" points="470,-360.5 363,-360.5 363,-341.5 470,-341.5 470,-360.5"/>
<text text-anchor="middle" x="416.5" y="-348.5" font-family="Helvetica,sans-Serif" font-size="10.00">sharp::layer_mean</text>
</a>
</g>
</g>
<!-- Node2&#45;&gt;Node13 -->
<g id="edge18" class="edge">
<title>Node2&#45;&gt;Node13</title>
<path fill="none" stroke="#63b8ff" d="M253.79,-259.74C271.91,-275.65 310.07,-307.44 347,-327 354.93,-331.2 363.75,-334.92 372.34,-338.1"/>
<polygon fill="#63b8ff" stroke="#63b8ff" points="371.31,-341.45 381.9,-341.46 373.63,-334.84 371.31,-341.45"/>
</g>
<!-- Node14 -->
<g id="node14" class="node">
<title>Node14</title>
<g id="a_node14"><a xlink:href="namespacesharp.html#a136ed55b860c71004fb8b75d1aa543cf" target="_top" xlink:title="Compute the water vapor mixing ratio from specific humidity.">
<polygon fill="white" stroke="#666666" points="462,-105.5 371,-105.5 371,-86.5 462,-86.5 462,-105.5"/>
<text text-anchor="middle" x="416.5" y="-93.5" font-family="Helvetica,sans-Serif" font-size="10.00">sharp::mixratio</text>
</a>
</g>
</g>
<!-- Node2&#45;&gt;Node14 -->
<g id="edge20" class="edge">
<title>Node2&#45;&gt;Node14</title>
<path fill="none" stroke="#63b8ff" d="M248.18,-240.31C261.42,-216.4 298.89,-154.09 347,-120 353.01,-115.74 359.84,-112.18 366.81,-109.21"/>
<polygon fill="#63b8ff" stroke="#63b8ff" points="368.27,-112.4 376.34,-105.53 365.75,-105.87 368.27,-112.4"/>
</g>
<!-- Node15 -->
<g id="node15" class="node">
<title>Node15</title>
<g id="a_node15"><a xlink:href="namespacesharp.html#ab5fed65fe0cdf797961047fb9cde3295" target="_top" xlink:title="Compute moist static energy.">
<polygon fill="white" stroke="#666666" points="471.5,-30 361.5,-30 361.5,0 471.5,0 471.5,-30"/>
<text text-anchor="start" x="369.5" y="-18" font-family="Helvetica,sans-Serif" font-size="10.00">sharp::moist_static</text>
<text text-anchor="middle" x="416.5" y="-7" font-family="Helvetica,sans-Serif" font-size="10.00">_energy</text>
</a>
</g>
</g>
<!-- Node2&#45;&gt;Node15 -->
<g id="edge21" class="edge">
<title>Node2&#45;&gt;Node15</title>
<path fill="none" stroke="#63b8ff" d="M245.31,-240.37C253.49,-208.14 284.09,-102.83 347,-44 350.53,-40.7 354.49,-37.75 358.68,-35.11"/>
<polygon fill="#63b8ff" stroke="#63b8ff" points="360.54,-38.08 367.54,-30.12 357.11,-31.98 360.54,-38.08"/>
</g>
<!-- Node16 -->
<g id="node16" class="node">
<title>Node16</title>
<g id="a_node16"><a xlink:href="namespacesharp.html#a792a4a2a9f9243a82fb44cb77c2ee561" target="_top" xlink:title="Compute specific humidity from a mixing ratio.">
<polygon fill="white" stroke="#666666" points="658.5,-46.5 523.5,-46.5 523.5,-27.5 658.5,-27.5 658.5,-46.5"/>
<text text-anchor="middle" x="591" y="-34.5" font-family="Helvetica,sans-Serif" font-size="10.00">sharp::specific_humidity</text>
</a>
</g>
</g>
<!-- Node2&#45;&gt;Node16 -->
<g id="edge25" class="edge">
<title>Node2&#45;&gt;Node16</title>
<path fill="none" stroke="#63b8ff" d="M245.71,-240.12C254.55,-209.98 285.53,-118.72 347,-77 373.56,-58.97 452.55,-48.33 513.33,-42.62"/>
<polygon fill="#63b8ff" stroke="#63b8ff" points="513.66,-46.1 523.3,-41.71 513.03,-39.13 513.66,-46.1"/>
</g>
<!-- Node17 -->
<g id="node17" class="node">
<title>Node17</title>
<g id="a_node17"><a xlink:href="namespacesharp.html#a31da980f398c9f6a5960ddf868101a94" target="_top" xlink:title="Converts a sharp::PressureLayer to a sharp::HeightLayer.">
<polygon fill="white" stroke="#666666" points="652,-313 530,-313 530,-283 652,-283 652,-313"/>
<text text-anchor="start" x="538" y="-301" font-family="Helvetica,sans-Serif" font-size="10.00">sharp::pressure_layer</text>
<text text-anchor="middle" x="591" y="-290" font-family="Helvetica,sans-Serif" font-size="10.00">_to_height</text>
</a>
</g>
</g>
<!-- Node2&#45;&gt;Node17 -->
<g id="edge23" class="edge">
<title>Node2&#45;&gt;Node17</title>
<path fill="none" stroke="#63b8ff" d="M311.14,-259.43C371.44,-267.77 459.06,-279.89 519.93,-288.31"/>
<polygon fill="#63b8ff" stroke="#63b8ff" points="519.45,-291.77 529.84,-289.68 520.41,-284.84 519.45,-291.77"/>
</g>
<!-- Node18 -->
<g id="node18" class="node">
<title>Node18</title>
<g id="a_node18"><a xlink:href="namespacesharp.html#a74a735636c932467b4d2ced544e0cb51" target="_top" xlink:title="Estimates supercell storm motion using the Bunkers et al. 2000 method.">
<polygon fill="white" stroke="#666666" points="475.5,-244 357.5,-244 357.5,-214 475.5,-214 475.5,-244"/>
<text text-anchor="start" x="365.5" y="-232" font-family="Helvetica,sans-Serif" font-size="10.00">sharp::storm_motion</text>
<text text-anchor="middle" x="416.5" y="-221" font-family="Helvetica,sans-Serif" font-size="10.00">_bunkers</text>
</a>
</g>
</g>
<!-- Node2&#45;&gt;Node18 -->
<g id="edge26" class="edge">
<title>Node2&#45;&gt;Node18</title>
<path fill="none" stroke="#63b8ff" d="M311.18,-241.7C322.98,-240.26 335.25,-238.77 347.06,-237.33"/>
<polygon fill="#63b8ff" stroke="#63b8ff" points="347.78,-240.77 357.29,-236.09 346.94,-233.82 347.78,-240.77"/>
</g>
<!-- Node21 -->
<g id="node21" class="node">
<title>Node21</title>
<g id="a_node21"><a xlink:href="namespacesharp.html#af887f27accb1a1d656a35abec65cab5f" target="_top" xlink:title="Computes the magnitude of a vector given its components.">
<polygon fill="white" stroke="#666666" points="660,-179.5 522,-179.5 522,-160.5 660,-160.5 660,-179.5"/>
<text text-anchor="middle" x="591" y="-167.5" font-family="Helvetica,sans-Serif" font-size="10.00">sharp::vector_magnitude</text>
</a>
</g>
</g>
<!-- Node2&#45;&gt;Node21 -->
<g id="edge32" class="edge">
<title>Node2&#45;&gt;Node21</title>
<path fill="none" stroke="#63b8ff" d="M261.24,-240.33C281.59,-229.98 315.77,-213.84 347,-205 400.99,-189.73 463.71,-180.91 511.9,-175.94"/>
<polygon fill="#63b8ff" stroke="#63b8ff" points="512.35,-179.41 521.96,-174.94 511.66,-172.45 512.35,-179.41"/>
</g>
<!-- Node5 -->
<g id="node5" class="node">
<title>Node5</title>
<g id="a_node5"><a xlink:href="namespacesharp.html#a1edcf8bff9a13429bcbff7c1129024b3" target="_top" xlink:title="Finds the index of the lower bound that does not satisfy element &lt; value.">
<polygon fill="white" stroke="#666666" points="972.5,-426.5 860.5,-426.5 860.5,-407.5 972.5,-407.5 972.5,-426.5"/>
<text text-anchor="middle" x="916.5" y="-414.5" font-family="Helvetica,sans-Serif" font-size="10.00">sharp::lower_bound</text>
</a>
</g>
</g>
<!-- Node4&#45;&gt;Node5 -->
<g id="edge4" class="edge">
<title>Node4&#45;&gt;Node5</title>
<path fill="none" stroke="#63b8ff" d="M824.29,-417C832.91,-417 841.78,-417 850.43,-417"/>
<polygon fill="#63b8ff" stroke="#63b8ff" points="850.47,-420.5 860.47,-417 850.47,-413.5 850.47,-420.5"/>
</g>
<!-- Node6 -->
<g id="node6" class="node">
<title>Node6</title>
<g id="a_node6"><a xlink:href="namespacesharp.html#a772686549a5111c1152b778731119aa6" target="_top" xlink:title="Finds the first index that satisfies value &lt; element.">
<polygon fill="white" stroke="#666666" points="973,-349.5 860,-349.5 860,-330.5 973,-330.5 973,-349.5"/>
<text text-anchor="middle" x="916.5" y="-337.5" font-family="Helvetica,sans-Serif" font-size="10.00">sharp::upper_bound</text>
</a>
</g>
</g>
<!-- Node4&#45;&gt;Node6 -->
<g id="edge5" class="edge">
<title>Node4&#45;&gt;Node6</title>
<path fill="none" stroke="#63b8ff" d="M801.29,-407.4C808.98,-405.04 816.85,-402.24 824,-399 849.8,-387.31 876.75,-369.08 894.67,-355.98"/>
<polygon fill="#63b8ff" stroke="#63b8ff" points="897.23,-358.44 903.16,-349.66 893.04,-352.83 897.23,-358.44"/>
</g>
<!-- Node7&#45;&gt;Node4 -->
<g id="edge8" class="edge">
<title>Node7&#45;&gt;Node4</title>
<path fill="none" stroke="#63b8ff" d="M653.24,-396.1C668.81,-399.18 685.51,-402.48 700.92,-405.52"/>
<polygon fill="#63b8ff" stroke="#63b8ff" points="700.35,-408.98 710.84,-407.48 701.71,-402.11 700.35,-408.98"/>
</g>
<!-- Node8 -->
<g id="node8" class="node">
<title>Node8</title>
<g id="a_node8"><a xlink:href="namespacesharp.html#a3558a68454edd4679ef97335e3a9f1fb" target="_top" xlink:title="A kernel that computes the area under a curve using the trapezoidal rule.">
<polygon fill="white" stroke="#666666" points="815,-389.5 705,-389.5 705,-370.5 815,-370.5 815,-389.5"/>
<text text-anchor="middle" x="760" y="-377.5" font-family="Helvetica,sans-Serif" font-size="10.00">sharp::_integ_trapz</text>
</a>
</g>
</g>
<!-- Node7&#45;&gt;Node8 -->
<g id="edge7" class="edge">
<title>Node7&#45;&gt;Node8</title>
<path fill="none" stroke="#63b8ff" d="M653.24,-382.53C666.74,-382.21 681.08,-381.87 694.69,-381.54"/>
<polygon fill="#63b8ff" stroke="#63b8ff" points="695.03,-385.03 704.94,-381.29 694.86,-378.04 695.03,-385.03"/>
</g>
<!-- Node7&#45;&gt;Node9 -->
<g id="edge9" class="edge">
<title>Node7&#45;&gt;Node9</title>
<path fill="none" stroke="#63b8ff" d="M649,-368.98C669.86,-363.49 693.17,-357.34 712.95,-352.13"/>
<polygon fill="#63b8ff" stroke="#63b8ff" points="713.87,-355.51 722.65,-349.58 712.08,-348.74 713.87,-355.51"/>
</g>
<!-- Node7&#45;&gt;Node12 -->
<g id="edge13" class="edge">
<title>Node7&#45;&gt;Node12</title>
<path fill="none" stroke="#63b8ff" d="M614.45,-368.94C635.07,-355.51 666.76,-335.9 696,-322 703.55,-318.41 711.82,-315.02 719.82,-312.01"/>
<polygon fill="#63b8ff" stroke="#63b8ff" points="721.17,-315.24 729.36,-308.53 718.77,-308.67 721.17,-315.24"/>
</g>
<!-- Node9&#45;&gt;Node6 -->
<g id="edge12" class="edge">
<title>Node9&#45;&gt;Node6</title>
<path fill="none" stroke="#63b8ff" d="M817.22,-340C827.74,-340 838.83,-340 849.62,-340"/>
<polygon fill="#63b8ff" stroke="#63b8ff" points="849.84,-343.5 859.84,-340 849.84,-336.5 849.84,-343.5"/>
</g>
<!-- Node10 -->
<g id="node10" class="node">
<title>Node10</title>
<g id="a_node10"><a xlink:href="namespacesharp.html#a0bf533560780fdb77bc3656db8d89208" target="_top" xlink:title="Linearly interpolates between a and b with distance t.">
<polygon fill="white" stroke="#666666" points="950.5,-311.5 882.5,-311.5 882.5,-292.5 950.5,-292.5 950.5,-311.5"/>
<text text-anchor="middle" x="916.5" y="-299.5" font-family="Helvetica,sans-Serif" font-size="10.00">sharp::lerp</text>
</a>
</g>
</g>
<!-- Node9&#45;&gt;Node10 -->
<g id="edge10" class="edge">
<title>Node9&#45;&gt;Node10</title>
<path fill="none" stroke="#63b8ff" d="M799.99,-330.41C822.1,-324.97 849.81,-318.16 872.55,-312.56"/>
<polygon fill="#63b8ff" stroke="#63b8ff" points="873.41,-315.96 882.28,-310.17 871.74,-309.16 873.41,-315.96"/>
</g>
<!-- Node11 -->
<g id="node11" class="node">
<title>Node11</title>
<g id="a_node11"><a xlink:href="namespacesharp.html#ac4464059524ff56c7974141bb4cc7375" target="_top" xlink:title="Linearly interpolates between a and b with distance t.">
<polygon fill="white" stroke="#666666" points="1088,-311.5 1009,-311.5 1009,-292.5 1088,-292.5 1088,-311.5"/>
<text text-anchor="middle" x="1048.5" y="-299.5" font-family="Helvetica,sans-Serif" font-size="10.00">sharp::__lerp</text>
</a>
</g>
</g>
<!-- Node10&#45;&gt;Node11 -->
<g id="edge11" class="edge">
<title>Node10&#45;&gt;Node11</title>
<path fill="none" stroke="#63b8ff" d="M950.64,-302C965.2,-302 982.6,-302 998.61,-302"/>
<polygon fill="#63b8ff" stroke="#63b8ff" points="998.88,-305.5 1008.88,-302 998.88,-298.5 998.88,-305.5"/>
</g>
<!-- Node12&#45;&gt;Node6 -->
<g id="edge15" class="edge">
<title>Node12&#45;&gt;Node6</title>
<path fill="none" stroke="#63b8ff" d="M796.83,-308.51C818.6,-314.28 846.58,-321.71 869.91,-327.9"/>
<polygon fill="#63b8ff" stroke="#63b8ff" points="869.03,-331.29 879.59,-330.47 870.83,-324.52 869.03,-331.29"/>
</g>
<!-- Node12&#45;&gt;Node10 -->
<g id="edge14" class="edge">
<title>Node12&#45;&gt;Node10</title>
<path fill="none" stroke="#63b8ff" d="M822.51,-300.19C839.05,-300.52 856.6,-300.86 871.95,-301.15"/>
<polygon fill="#63b8ff" stroke="#63b8ff" points="872.12,-304.66 882.18,-301.35 872.25,-297.66 872.12,-304.66"/>
</g>
<!-- Node13&#45;&gt;Node7 -->
<g id="edge19" class="edge">
<title>Node13&#45;&gt;Node7</title>
<path fill="none" stroke="#63b8ff" d="M467.39,-360.54C483.45,-363.62 501.56,-367.08 518.83,-370.39"/>
<polygon fill="#63b8ff" stroke="#63b8ff" points="518.41,-373.87 528.89,-372.31 519.72,-366.99 518.41,-373.87"/>
</g>
<!-- Node15&#45;&gt;Node16 -->
<g id="edge22" class="edge">
<title>Node15&#45;&gt;Node16</title>
<path fill="none" stroke="#63b8ff" d="M471.61,-21.9C484.81,-23.58 499.18,-25.42 513.21,-27.21"/>
<polygon fill="#63b8ff" stroke="#63b8ff" points="512.98,-30.71 523.34,-28.5 513.87,-23.76 512.98,-30.71"/>
</g>
<!-- Node17&#45;&gt;Node12 -->
<g id="edge24" class="edge">
<title>Node17&#45;&gt;Node12</title>
<path fill="none" stroke="#63b8ff" d="M652.29,-298.36C663.64,-298.43 675.6,-298.5 687.26,-298.57"/>
<polygon fill="#63b8ff" stroke="#63b8ff" points="687.37,-302.07 697.39,-298.63 687.41,-295.07 687.37,-302.07"/>
</g>
<!-- Node19 -->
<g id="node19" class="node">
<title>Node19</title>
<g id="a_node19"><a xlink:href="namespacesharp.html#ab77e344c7462c9615b0ddac228bc2193" target="_top" xlink:title="Converts a sharp::HeightLayer to a sharp::PressureLayer.">
<polygon fill="white" stroke="#666666" points="646,-265 536,-265 536,-235 646,-235 646,-265"/>
<text text-anchor="start" x="544" y="-253" font-family="Helvetica,sans-Serif" font-size="10.00">sharp::height_layer</text>
<text text-anchor="middle" x="591" y="-242" font-family="Helvetica,sans-Serif" font-size="10.00">_to_pressure</text>
</a>
</g>
</g>
<!-- Node18&#45;&gt;Node19 -->
<g id="edge27" class="edge">
<title>Node18&#45;&gt;Node19</title>
<path fill="none" stroke="#63b8ff" d="M475.9,-236.11C491.93,-238.06 509.39,-240.19 525.73,-242.18"/>
<polygon fill="#63b8ff" stroke="#63b8ff" points="525.38,-245.66 535.73,-243.39 526.23,-238.71 525.38,-245.66"/>
</g>
<!-- Node20 -->
<g id="node20" class="node">
<title>Node20</title>
<g id="a_node20"><a xlink:href="namespacesharp.html#a3c8b9022103d067f30281d68fa81cbda" target="_top" xlink:title="Compute the mean wind over the given sharp::PressureLayer.">
<polygon fill="white" stroke="#666666" points="644,-216.5 538,-216.5 538,-197.5 644,-197.5 644,-216.5"/>
<text text-anchor="middle" x="591" y="-204.5" font-family="Helvetica,sans-Serif" font-size="10.00">sharp::mean_wind</text>
</a>
</g>
</g>
<!-- Node18&#45;&gt;Node20 -->
<g id="edge29" class="edge">
<title>Node18&#45;&gt;Node20</title>
<path fill="none" stroke="#63b8ff" d="M475.9,-221.55C492.49,-219.44 510.63,-217.12 527.46,-214.98"/>
<polygon fill="#63b8ff" stroke="#63b8ff" points="528.26,-218.4 537.74,-213.67 527.38,-211.46 528.26,-218.4"/>
</g>
<!-- Node18&#45;&gt;Node21 -->
<g id="edge31" class="edge">
<title>Node18&#45;&gt;Node21</title>
<path fill="none" stroke="#63b8ff" d="M452.92,-213.93C472.98,-205.69 498.66,-195.64 522,-188 528.09,-186.01 534.55,-184.07 540.96,-182.26"/>
<polygon fill="#63b8ff" stroke="#63b8ff" points="542.22,-185.54 550.94,-179.52 540.37,-178.79 542.22,-185.54"/>
</g>
<!-- Node19&#45;&gt;Node9 -->
<g id="edge28" class="edge">
<title>Node19&#45;&gt;Node9</title>
<path fill="none" stroke="#63b8ff" d="M644.34,-265.11C649.85,-267.67 655.18,-270.62 660,-274 680.68,-288.52 675.3,-303.51 696,-318 700.63,-321.24 705.78,-324.04 711.08,-326.46"/>
<polygon fill="#63b8ff" stroke="#63b8ff" points="710.14,-329.85 720.72,-330.4 712.79,-323.37 710.14,-329.85"/>
</g>
<!-- Node20&#45;&gt;Node12 -->
<g id="edge30" class="edge">
<title>Node20&#45;&gt;Node12</title>
<path fill="none" stroke="#63b8ff" d="M635.32,-216.56C643.71,-219.11 652.29,-222.24 660,-226 690.93,-241.09 722.15,-266.11 741.04,-282.58"/>
<polygon fill="#63b8ff" stroke="#63b8ff" points="738.77,-285.24 748.57,-289.27 743.42,-280.01 738.77,-285.24"/>
</g>
</g>
</svg>
