<?xml version="1.0" encoding="UTF-8" standalone="no"?>
<!DOCTYPE svg PUBLIC "-//W3C//DTD SVG 1.1//EN"
 "http://www.w3.org/Graphics/SVG/1.1/DTD/svg11.dtd">
<!-- Generated by graphviz version 2.43.0 (0)
 -->
<!-- Title: convective.h Pages: 1 -->
<svg width="614pt" height="302pt"
 viewBox="0.00 0.00 614.26 302.00" xmlns="http://www.w3.org/2000/svg" xmlns:xlink="http://www.w3.org/1999/xlink">
<g id="graph0" class="graph" transform="scale(1 1) rotate(0) translate(4 298)">
<title>convective.h</title>
<!-- Node1 -->
<g id="node1" class="node">
<title>Node1</title>
<g id="a_node1"><a xlink:title="Routines used to computed derived sounding parameters from vertical atmospheric profiles.">
<polygon fill="#999999" stroke="#666666" points="290.5,-294 211.5,-294 211.5,-275 290.5,-275 290.5,-294"/>
<text text-anchor="middle" x="251" y="-282" font-family="Helvetica,sans-Serif" font-size="10.00">convective.h</text>
</a>
</g>
</g>
<!-- Node2 -->
<g id="node2" class="node">
<title>Node2</title>
<g id="a_node2"><a xlink:href="constants_8h.html" target="_top" xlink:title="Meteorological constants useful for computations with vertical atmospheric sounding profiles.">
<polygon fill="white" stroke="#666666" points="163.5,-19 42.5,-19 42.5,0 163.5,0 163.5,-19"/>
<text text-anchor="middle" x="103" y="-7" font-family="Helvetica,sans-Serif" font-size="10.00">SHARPlib/constants.h</text>
</a>
</g>
</g>
<!-- Node1&#45;&gt;Node2 -->
<g id="edge1" class="edge">
<title>Node1&#45;&gt;Node2</title>
<path fill="none" stroke="#63b8ff" d="M211.23,-283.69C140.45,-281.71 0,-266.35 0,-175.5 0,-175.5 0,-175.5 0,-118.5 0,-74.36 45.62,-41.13 76.14,-23.85"/>
<polygon fill="#63b8ff" stroke="#63b8ff" points="77.94,-26.85 85.06,-19 74.6,-20.7 77.94,-26.85"/>
</g>
<!-- Node3 -->
<g id="node3" class="node">
<title>Node3</title>
<g id="a_node3"><a xlink:href="layer_8h.html" target="_top" xlink:title="Data structures and functions for performing operations over atmospheric layers.">
<polygon fill="white" stroke="#666666" points="458,-129 360,-129 360,-110 458,-110 458,-129"/>
<text text-anchor="middle" x="409" y="-117" font-family="Helvetica,sans-Serif" font-size="10.00">SHARPlib/layer.h</text>
</a>
</g>
</g>
<!-- Node1&#45;&gt;Node3 -->
<g id="edge2" class="edge">
<title>Node1&#45;&gt;Node3</title>
<path fill="none" stroke="#63b8ff" d="M281.58,-274.92C320.11,-262.24 384.5,-234.37 411,-184 418.22,-170.27 416.91,-152.47 414.25,-139.2"/>
<polygon fill="#63b8ff" stroke="#63b8ff" points="417.62,-138.22 411.87,-129.32 410.81,-139.86 417.62,-138.22"/>
</g>
<!-- Node9 -->
<g id="node9" class="node">
<title>Node9</title>
<g id="a_node9"><a xlink:href="parcel_8h.html" target="_top" xlink:title="Routines used for parcel lifting and integration.">
<polygon fill="white" stroke="#666666" points="303,-239 199,-239 199,-220 303,-220 303,-239"/>
<text text-anchor="middle" x="251" y="-227" font-family="Helvetica,sans-Serif" font-size="10.00">SHARPlib/parcel.h</text>
</a>
</g>
</g>
<!-- Node1&#45;&gt;Node9 -->
<g id="edge14" class="edge">
<title>Node1&#45;&gt;Node9</title>
<path fill="none" stroke="#63b8ff" d="M251,-274.75C251,-267.8 251,-257.85 251,-249.13"/>
<polygon fill="#63b8ff" stroke="#63b8ff" points="254.5,-249.09 251,-239.09 247.5,-249.09 254.5,-249.09"/>
</g>
<!-- Node10 -->
<g id="node10" class="node">
<title>Node10</title>
<g id="a_node10"><a xlink:href="thermo_8h.html" target="_top" xlink:title="Routines used to compute thermodynamic attributes of vertical sounding profiles.">
<polygon fill="white" stroke="#666666" points="223.5,-184 114.5,-184 114.5,-165 223.5,-165 223.5,-184"/>
<text text-anchor="middle" x="169" y="-172" font-family="Helvetica,sans-Serif" font-size="10.00">SHARPlib/thermo.h</text>
</a>
</g>
</g>
<!-- Node1&#45;&gt;Node10 -->
<g id="edge25" class="edge">
<title>Node1&#45;&gt;Node10</title>
<path fill="none" stroke="#63b8ff" d="M233.97,-274.95C220.28,-267.27 201.51,-254.78 190,-239 180.27,-225.66 174.87,-207.55 171.99,-194.08"/>
<polygon fill="#63b8ff" stroke="#63b8ff" points="175.4,-193.26 170.13,-184.07 168.52,-194.54 175.4,-193.26"/>
</g>
<!-- Node11 -->
<g id="node11" class="node">
<title>Node11</title>
<g id="a_node11"><a xlink:href="winds_8h.html" target="_top" xlink:title="Routines used to compute kinematic attributes and indices of vertical sounding profiles.">
<polygon fill="white" stroke="#666666" points="382,-184 280,-184 280,-165 382,-165 382,-184"/>
<text text-anchor="middle" x="331" y="-172" font-family="Helvetica,sans-Serif" font-size="10.00">SHARPlib/winds.h</text>
</a>
</g>
</g>
<!-- Node1&#45;&gt;Node11 -->
<g id="edge26" class="edge">
<title>Node1&#45;&gt;Node11</title>
<path fill="none" stroke="#63b8ff" d="M268.43,-274.88C282.16,-267.24 300.8,-254.84 312,-239 321.45,-225.64 326.26,-207.53 328.68,-194.07"/>
<polygon fill="#63b8ff" stroke="#63b8ff" points="332.15,-194.47 330.19,-184.06 325.23,-193.43 332.15,-194.47"/>
</g>
<!-- Node3&#45;&gt;Node2 -->
<g id="edge6" class="edge">
<title>Node3&#45;&gt;Node2</title>
<path fill="none" stroke="#63b8ff" d="M395.74,-109.86C374.47,-96.36 331.02,-70.2 291,-55 250.3,-39.54 202.55,-28.32 165.35,-21.01"/>
<polygon fill="#63b8ff" stroke="#63b8ff" points="165.63,-17.5 155.15,-19.05 164.31,-24.37 165.63,-17.5"/>
</g>
<!-- Node4 -->
<g id="node4" class="node">
<title>Node4</title>
<g id="a_node4"><a xlink:href="algorithms_8h.html" target="_top" xlink:title="Various algorithms used for searching, sorting, accumulating etc.">
<polygon fill="white" stroke="#666666" points="578,-74 452,-74 452,-55 578,-55 578,-74"/>
<text text-anchor="middle" x="515" y="-62" font-family="Helvetica,sans-Serif" font-size="10.00">SHARPlib/algorithms.h</text>
</a>
</g>
</g>
<!-- Node3&#45;&gt;Node4 -->
<g id="edge3" class="edge">
<title>Node3&#45;&gt;Node4</title>
<path fill="none" stroke="#63b8ff" d="M426.03,-109.98C442.93,-101.54 469.06,-88.47 488.64,-78.68"/>
<polygon fill="#63b8ff" stroke="#63b8ff" points="490.28,-81.77 497.66,-74.17 487.15,-75.51 490.28,-81.77"/>
</g>
<!-- Node5 -->
<g id="node5" class="node">
<title>Node5</title>
<g id="a_node5"><a xlink:title=" ">
<polygon fill="#e0e0e0" stroke="#999999" points="479.5,-19 426.5,-19 426.5,0 479.5,0 479.5,-19"/>
<text text-anchor="middle" x="453" y="-7" font-family="Helvetica,sans-Serif" font-size="10.00">cstddef</text>
</a>
</g>
</g>
<!-- Node3&#45;&gt;Node5 -->
<g id="edge12" class="edge">
<title>Node3&#45;&gt;Node5</title>
<path fill="none" stroke="#63b8ff" d="M412.6,-109.66C419.79,-92.01 436.06,-52.09 445.61,-28.64"/>
<polygon fill="#63b8ff" stroke="#63b8ff" points="448.94,-29.74 449.47,-19.16 442.46,-27.1 448.94,-29.74"/>
</g>
<!-- Node6 -->
<g id="node6" class="node">
<title>Node6</title>
<g id="a_node6"><a xlink:title=" ">
<polygon fill="#e0e0e0" stroke="#999999" points="592.5,-19 527.5,-19 527.5,0 592.5,0 592.5,-19"/>
<text text-anchor="middle" x="560" y="-7" font-family="Helvetica,sans-Serif" font-size="10.00">functional</text>
</a>
</g>
</g>
<!-- Node3&#45;&gt;Node6 -->
<g id="edge13" class="edge">
<title>Node3&#45;&gt;Node6</title>
<path fill="none" stroke="#63b8ff" d="M458.26,-112.95C505.3,-106.52 571.27,-94.15 587,-74 598.11,-59.77 586.78,-40.28 575.58,-26.66"/>
<polygon fill="#63b8ff" stroke="#63b8ff" points="578.08,-24.21 568.83,-19.04 572.84,-28.85 578.08,-24.21"/>
</g>
<!-- Node7 -->
<g id="node7" class="node">
<title>Node7</title>
<g id="a_node7"><a xlink:href="interp_8h.html" target="_top" xlink:title="Routines for linear interpolation of vertical atmospheric profiles.">
<polygon fill="white" stroke="#666666" points="282,-74 180,-74 180,-55 282,-55 282,-74"/>
<text text-anchor="middle" x="231" y="-62" font-family="Helvetica,sans-Serif" font-size="10.00">SHARPlib/interp.h</text>
</a>
</g>
</g>
<!-- Node3&#45;&gt;Node7 -->
<g id="edge7" class="edge">
<title>Node3&#45;&gt;Node7</title>
<path fill="none" stroke="#63b8ff" d="M380.4,-109.98C350.39,-101.05 303.02,-86.94 269.68,-77.02"/>
<polygon fill="#63b8ff" stroke="#63b8ff" points="270.41,-73.58 259.82,-74.08 268.41,-80.29 270.41,-73.58"/>
</g>
<!-- Node8 -->
<g id="node8" class="node">
<title>Node8</title>
<g id="a_node8"><a xlink:title=" ">
<polygon fill="#e0e0e0" stroke="#999999" points="254.5,-19 207.5,-19 207.5,0 254.5,0 254.5,-19"/>
<text text-anchor="middle" x="231" y="-7" font-family="Helvetica,sans-Serif" font-size="10.00">cmath</text>
</a>
</g>
</g>
<!-- Node3&#45;&gt;Node8 -->
<g id="edge11" class="edge">
<title>Node3&#45;&gt;Node8</title>
<path fill="none" stroke="#63b8ff" d="M404.78,-109.79C397.75,-96.17 382.38,-69.88 362,-55 332.93,-33.78 293,-22.15 264.89,-16.16"/>
<polygon fill="#63b8ff" stroke="#63b8ff" points="265.24,-12.66 254.75,-14.13 263.87,-19.53 265.24,-12.66"/>
</g>
<!-- Node4&#45;&gt;Node5 -->
<g id="edge4" class="edge">
<title>Node4&#45;&gt;Node5</title>
<path fill="none" stroke="#63b8ff" d="M505.04,-54.98C495.87,-47.15 482.06,-35.34 470.97,-25.86"/>
<polygon fill="#63b8ff" stroke="#63b8ff" points="473.02,-23.01 463.14,-19.17 468.47,-28.33 473.02,-23.01"/>
</g>
<!-- Node4&#45;&gt;Node6 -->
<g id="edge5" class="edge">
<title>Node4&#45;&gt;Node6</title>
<path fill="none" stroke="#63b8ff" d="M522.43,-54.75C528.85,-47.18 538.31,-36.05 546.12,-26.84"/>
<polygon fill="#63b8ff" stroke="#63b8ff" points="548.9,-28.98 552.71,-19.09 543.57,-24.45 548.9,-28.98"/>
</g>
<!-- Node7&#45;&gt;Node2 -->
<g id="edge8" class="edge">
<title>Node7&#45;&gt;Node2</title>
<path fill="none" stroke="#63b8ff" d="M210.43,-54.98C189.57,-46.34 157.03,-32.87 133.23,-23.02"/>
<polygon fill="#63b8ff" stroke="#63b8ff" points="134.52,-19.76 123.94,-19.17 131.84,-26.23 134.52,-19.76"/>
</g>
<!-- Node7&#45;&gt;Node5 -->
<g id="edge10" class="edge">
<title>Node7&#45;&gt;Node5</title>
<path fill="none" stroke="#63b8ff" d="M266.67,-54.98C307.8,-45.17 375.05,-29.11 416.52,-19.21"/>
<polygon fill="#63b8ff" stroke="#63b8ff" points="417.56,-22.56 426.48,-16.83 415.94,-15.75 417.56,-22.56"/>
</g>
<!-- Node7&#45;&gt;Node8 -->
<g id="edge9" class="edge">
<title>Node7&#45;&gt;Node8</title>
<path fill="none" stroke="#63b8ff" d="M231,-54.75C231,-47.8 231,-37.85 231,-29.13"/>
<polygon fill="#63b8ff" stroke="#63b8ff" points="234.5,-29.09 231,-19.09 227.5,-29.09 234.5,-29.09"/>
</g>
<!-- Node9&#45;&gt;Node2 -->
<g id="edge15" class="edge">
<title>Node9&#45;&gt;Node2</title>
<path fill="none" stroke="#63b8ff" d="M198.72,-227.3C166.18,-223.51 126.54,-212.73 105,-184 70.27,-137.67 86.56,-63.11 96.84,-28.83"/>
<polygon fill="#63b8ff" stroke="#63b8ff" points="100.21,-29.79 99.89,-19.2 93.53,-27.67 100.21,-29.79"/>
</g>
<!-- Node9&#45;&gt;Node3 -->
<g id="edge17" class="edge">
<title>Node9&#45;&gt;Node3</title>
<path fill="none" stroke="#63b8ff" d="M303.28,-223.96C332.74,-218.74 368.11,-207.63 391,-184 402.58,-172.05 406.81,-153.23 408.31,-139.18"/>
<polygon fill="#63b8ff" stroke="#63b8ff" points="411.8,-139.37 409.01,-129.15 404.82,-138.88 411.8,-139.37"/>
</g>
<!-- Node9&#45;&gt;Node5 -->
<g id="edge24" class="edge">
<title>Node9&#45;&gt;Node5</title>
<path fill="none" stroke="#63b8ff" d="M303.12,-226.5C390.09,-219.86 559.56,-191.71 603,-74 605.92,-66.08 608.05,-61.77 603,-55 589.4,-36.78 529.43,-23.36 489.56,-16.25"/>
<polygon fill="#63b8ff" stroke="#63b8ff" points="490.1,-12.79 479.65,-14.54 488.91,-19.69 490.1,-12.79"/>
</g>
<!-- Node9&#45;&gt;Node7 -->
<g id="edge16" class="edge">
<title>Node9&#45;&gt;Node7</title>
<path fill="none" stroke="#63b8ff" d="M249.92,-219.74C246.8,-194.31 237.7,-120.08 233.35,-84.69"/>
<polygon fill="#63b8ff" stroke="#63b8ff" points="236.77,-83.81 232.08,-74.31 229.82,-84.66 236.77,-83.81"/>
</g>
<!-- Node9&#45;&gt;Node10 -->
<g id="edge18" class="edge">
<title>Node9&#45;&gt;Node10</title>
<path fill="none" stroke="#63b8ff" d="M237.83,-219.98C225.23,-211.84 206,-199.41 191.06,-189.76"/>
<polygon fill="#63b8ff" stroke="#63b8ff" points="192.71,-186.66 182.41,-184.17 188.91,-192.54 192.71,-186.66"/>
</g>
<!-- Node10&#45;&gt;Node2 -->
<g id="edge19" class="edge">
<title>Node10&#45;&gt;Node2</title>
<path fill="none" stroke="#63b8ff" d="M165.45,-164.74C155.07,-139.09 124.57,-63.78 110.4,-28.78"/>
<polygon fill="#63b8ff" stroke="#63b8ff" points="113.56,-27.26 106.57,-19.31 107.07,-29.89 113.56,-27.26"/>
</g>
<!-- Node10&#45;&gt;Node3 -->
<g id="edge21" class="edge">
<title>Node10&#45;&gt;Node3</title>
<path fill="none" stroke="#63b8ff" d="M207.56,-164.98C249.07,-155.82 315.21,-141.21 360.29,-131.26"/>
<polygon fill="#63b8ff" stroke="#63b8ff" points="361.13,-134.66 370.14,-129.08 359.62,-127.82 361.13,-134.66"/>
</g>
<!-- Node10&#45;&gt;Node5 -->
<g id="edge23" class="edge">
<title>Node10&#45;&gt;Node5</title>
<path fill="none" stroke="#63b8ff" d="M183.87,-164.97C230.15,-138.4 371.96,-57.01 428.93,-24.31"/>
<polygon fill="#63b8ff" stroke="#63b8ff" points="431,-27.16 437.94,-19.15 427.52,-21.09 431,-27.16"/>
</g>
<!-- Node10&#45;&gt;Node7 -->
<g id="edge20" class="edge">
<title>Node10&#45;&gt;Node7</title>
<path fill="none" stroke="#63b8ff" d="M174.07,-164.66C184.3,-146.85 207.54,-106.37 220.95,-83.01"/>
<polygon fill="#63b8ff" stroke="#63b8ff" points="224.09,-84.57 226.03,-74.16 218.02,-81.09 224.09,-84.57"/>
</g>
<!-- Node10&#45;&gt;Node8 -->
<g id="edge22" class="edge">
<title>Node10&#45;&gt;Node8</title>
<path fill="none" stroke="#63b8ff" d="M166.69,-164.84C161.74,-144.38 152,-91.97 171,-55 177.8,-41.76 190.56,-31.45 202.57,-24.1"/>
<polygon fill="#63b8ff" stroke="#63b8ff" points="204.51,-27.03 211.5,-19.06 201.07,-20.93 204.51,-27.03"/>
</g>
<!-- Node11&#45;&gt;Node2 -->
<g id="edge27" class="edge">
<title>Node11&#45;&gt;Node2</title>
<path fill="none" stroke="#63b8ff" d="M314.89,-164.86C285.25,-148.68 220.59,-112 171,-74 151.89,-59.36 131.98,-40.24 118.68,-26.82"/>
<polygon fill="#63b8ff" stroke="#63b8ff" points="120.81,-23.99 111.32,-19.29 115.81,-28.89 120.81,-23.99"/>
</g>
<!-- Node11&#45;&gt;Node3 -->
<g id="edge29" class="edge">
<title>Node11&#45;&gt;Node3</title>
<path fill="none" stroke="#63b8ff" d="M343.53,-164.98C355.4,-156.92 373.46,-144.65 387.61,-135.03"/>
<polygon fill="#63b8ff" stroke="#63b8ff" points="389.94,-137.69 396.24,-129.17 386,-131.9 389.94,-137.69"/>
</g>
<!-- Node11&#45;&gt;Node5 -->
<g id="edge30" class="edge">
<title>Node11&#45;&gt;Node5</title>
<path fill="none" stroke="#63b8ff" d="M382.09,-170.6C443.24,-164.03 542.9,-142.73 587,-74 591.56,-66.89 591.94,-61.85 587,-55 575.45,-38.99 525.37,-25.51 489.83,-17.71"/>
<polygon fill="#63b8ff" stroke="#63b8ff" points="490.29,-14.23 479.78,-15.57 488.83,-21.08 490.29,-14.23"/>
</g>
<!-- Node11&#45;&gt;Node7 -->
<g id="edge28" class="edge">
<title>Node11&#45;&gt;Node7</title>
<path fill="none" stroke="#63b8ff" d="M324.8,-164.93C315.57,-152.4 297.44,-128.53 280,-110 270.38,-99.77 258.77,-89.17 249.28,-80.88"/>
<polygon fill="#63b8ff" stroke="#63b8ff" points="251.44,-78.12 241.57,-74.26 246.87,-83.43 251.44,-78.12"/>
</g>
</g>
</svg>
