<?xml version="1.0" encoding="UTF-8" standalone="no"?>
<!DOCTYPE svg PUBLIC "-//W3C//DTD SVG 1.1//EN"
 "http://www.w3.org/Graphics/SVG/1.1/DTD/svg11.dtd">
<!-- Generated by graphviz version 2.43.0 (0)
 -->
<!-- Title: sharp_storm_motion_bunkers Pages: 1 -->
<svg width="878pt" height="113pt"
 viewBox="0.00 0.00 878.00 112.50" xmlns="http://www.w3.org/2000/svg" xmlns:xlink="http://www.w3.org/1999/xlink">
<g id="graph0" class="graph" transform="scale(1 1) rotate(0) translate(4 108.5)">
<title>sharp_storm_motion_bunkers</title>
<!-- Node1 -->
<g id="node1" class="node">
<title>Node1</title>
<g id="a_node1"><a xlink:title=" ">
<polygon fill="#999999" stroke="#666666" points="117,-61.5 0,-61.5 0,-31.5 117,-31.5 117,-61.5"/>
<text text-anchor="start" x="8" y="-49.5" font-family="Helvetica,sans-Serif" font-size="10.00">sharp_storm_motion</text>
<text text-anchor="middle" x="58.5" y="-38.5" font-family="Helvetica,sans-Serif" font-size="10.00">_bunkers</text>
</a>
</g>
</g>
<!-- Node2 -->
<g id="node2" class="node">
<title>Node2</title>
<g id="a_node2"><a xlink:href="namespacesharp.html#a74a735636c932467b4d2ced544e0cb51" target="_top" xlink:title="Estimates supercell storm motion using the Bunkers et al. 2000 method.">
<polygon fill="white" stroke="#666666" points="271,-61.5 153,-61.5 153,-31.5 271,-31.5 271,-61.5"/>
<text text-anchor="start" x="161" y="-49.5" font-family="Helvetica,sans-Serif" font-size="10.00">sharp::storm_motion</text>
<text text-anchor="middle" x="212" y="-38.5" font-family="Helvetica,sans-Serif" font-size="10.00">_bunkers</text>
</a>
</g>
</g>
<!-- Node1&#45;&gt;Node2 -->
<g id="edge1" class="edge">
<title>Node1&#45;&gt;Node2</title>
<path fill="none" stroke="#63b8ff" d="M117.21,-46.5C125.62,-46.5 134.35,-46.5 142.95,-46.5"/>
<polygon fill="#63b8ff" stroke="#63b8ff" points="142.95,-50 152.95,-46.5 142.95,-43 142.95,-50"/>
</g>
<!-- Node3 -->
<g id="node3" class="node">
<title>Node3</title>
<g id="a_node3"><a xlink:href="namespacesharp.html#ab77e344c7462c9615b0ddac228bc2193" target="_top" xlink:title="Converts a sharp::HeightLayer to a sharp::PressureLayer.">
<polygon fill="white" stroke="#666666" points="431,-104.5 321,-104.5 321,-74.5 431,-74.5 431,-104.5"/>
<text text-anchor="start" x="329" y="-92.5" font-family="Helvetica,sans-Serif" font-size="10.00">sharp::height_layer</text>
<text text-anchor="middle" x="376" y="-81.5" font-family="Helvetica,sans-Serif" font-size="10.00">_to_pressure</text>
</a>
</g>
</g>
<!-- Node2&#45;&gt;Node3 -->
<g id="edge2" class="edge">
<title>Node2&#45;&gt;Node3</title>
<path fill="none" stroke="#63b8ff" d="M269.66,-61.54C283.02,-65.09 297.36,-68.89 311.02,-72.52"/>
<polygon fill="#63b8ff" stroke="#63b8ff" points="310.26,-75.94 320.82,-75.12 312.06,-69.17 310.26,-75.94"/>
</g>
<!-- Node8 -->
<g id="node8" class="node">
<title>Node8</title>
<g id="a_node8"><a xlink:href="namespacesharp.html#a3c8b9022103d067f30281d68fa81cbda" target="_top" xlink:title="Compute the mean wind over the given sharp::PressureLayer.">
<polygon fill="white" stroke="#666666" points="429,-56 323,-56 323,-37 429,-37 429,-56"/>
<text text-anchor="middle" x="376" y="-44" font-family="Helvetica,sans-Serif" font-size="10.00">sharp::mean_wind</text>
</a>
</g>
</g>
<!-- Node2&#45;&gt;Node8 -->
<g id="edge7" class="edge">
<title>Node2&#45;&gt;Node8</title>
<path fill="none" stroke="#63b8ff" d="M271.03,-46.5C284.48,-46.5 298.86,-46.5 312.5,-46.5"/>
<polygon fill="#63b8ff" stroke="#63b8ff" points="312.76,-50 322.76,-46.5 312.76,-43 312.76,-50"/>
</g>
<!-- Node10 -->
<g id="node10" class="node">
<title>Node10</title>
<g id="a_node10"><a xlink:href="namespacesharp.html#af887f27accb1a1d656a35abec65cab5f" target="_top" xlink:title="Computes the magnitude of a vector given its components.">
<polygon fill="white" stroke="#666666" points="445,-19 307,-19 307,0 445,0 445,-19"/>
<text text-anchor="middle" x="376" y="-7" font-family="Helvetica,sans-Serif" font-size="10.00">sharp::vector_magnitude</text>
</a>
</g>
</g>
<!-- Node2&#45;&gt;Node10 -->
<g id="edge11" class="edge">
<title>Node2&#45;&gt;Node10</title>
<path fill="none" stroke="#63b8ff" d="M271.03,-33.25C288.1,-29.35 306.65,-25.11 323.29,-21.31"/>
<polygon fill="#63b8ff" stroke="#63b8ff" points="324.41,-24.65 333.38,-19.01 322.85,-17.82 324.41,-24.65"/>
</g>
<!-- Node4 -->
<g id="node4" class="node">
<title>Node4</title>
<g id="a_node4"><a xlink:href="namespacesharp.html#af8484e9fe21c025b64ecffde614feb11" target="_top" xlink:title="Linearly interpolate a data field to a requested height level.">
<polygon fill="white" stroke="#666666" points="600.5,-96 486.5,-96 486.5,-77 600.5,-77 600.5,-96"/>
<text text-anchor="middle" x="543.5" y="-84" font-family="Helvetica,sans-Serif" font-size="10.00">sharp::interp_height</text>
</a>
</g>
</g>
<!-- Node3&#45;&gt;Node4 -->
<g id="edge3" class="edge">
<title>Node3&#45;&gt;Node4</title>
<path fill="none" stroke="#63b8ff" d="M431.19,-88.52C445.59,-88.26 461.31,-87.97 476.27,-87.7"/>
<polygon fill="#63b8ff" stroke="#63b8ff" points="476.55,-91.2 486.48,-87.52 476.42,-84.2 476.55,-91.2"/>
</g>
<!-- Node5 -->
<g id="node5" class="node">
<title>Node5</title>
<g id="a_node5"><a xlink:href="namespacesharp.html#a8aa123fbe3b59a7023446b0fe2186c49" target="_top" xlink:title="Linearly interpolates between a and b with distance t.">
<polygon fill="white" stroke="#666666" points="732.5,-96 664.5,-96 664.5,-77 732.5,-77 732.5,-96"/>
<text text-anchor="middle" x="698.5" y="-84" font-family="Helvetica,sans-Serif" font-size="10.00">sharp::lerp</text>
</a>
</g>
</g>
<!-- Node4&#45;&gt;Node5 -->
<g id="edge4" class="edge">
<title>Node4&#45;&gt;Node5</title>
<path fill="none" stroke="#63b8ff" d="M600.6,-86.5C618.09,-86.5 637.12,-86.5 653.64,-86.5"/>
<polygon fill="#63b8ff" stroke="#63b8ff" points="654.1,-90 664.1,-86.5 654.1,-83 654.1,-90"/>
</g>
<!-- Node7 -->
<g id="node7" class="node">
<title>Node7</title>
<g id="a_node7"><a xlink:href="namespacesharp.html#a772686549a5111c1152b778731119aa6" target="_top" xlink:title="Finds the first index that satisfies value &lt; element.">
<polygon fill="white" stroke="#666666" points="755,-59 642,-59 642,-40 755,-40 755,-59"/>
<text text-anchor="middle" x="698.5" y="-47" font-family="Helvetica,sans-Serif" font-size="10.00">sharp::upper_bound</text>
</a>
</g>
</g>
<!-- Node4&#45;&gt;Node7 -->
<g id="edge6" class="edge">
<title>Node4&#45;&gt;Node7</title>
<path fill="none" stroke="#63b8ff" d="M583.9,-76.97C603.46,-72.24 627.28,-66.48 648.05,-61.46"/>
<polygon fill="#63b8ff" stroke="#63b8ff" points="649.07,-64.81 657.97,-59.06 647.42,-58.01 649.07,-64.81"/>
</g>
<!-- Node6 -->
<g id="node6" class="node">
<title>Node6</title>
<g id="a_node6"><a xlink:href="namespacesharp.html#a8848423b96dfe09b90322efd2cc5bd43" target="_top" xlink:title="Linearly interpolates between a and b with distance t.">
<polygon fill="white" stroke="#666666" points="870,-96 791,-96 791,-77 870,-77 870,-96"/>
<text text-anchor="middle" x="830.5" y="-84" font-family="Helvetica,sans-Serif" font-size="10.00">sharp::__lerp</text>
</a>
</g>
</g>
<!-- Node5&#45;&gt;Node6 -->
<g id="edge5" class="edge">
<title>Node5&#45;&gt;Node6</title>
<path fill="none" stroke="#63b8ff" d="M732.64,-86.5C747.2,-86.5 764.6,-86.5 780.61,-86.5"/>
<polygon fill="#63b8ff" stroke="#63b8ff" points="780.88,-90 790.88,-86.5 780.88,-83 780.88,-90"/>
</g>
<!-- Node9 -->
<g id="node9" class="node">
<title>Node9</title>
<g id="a_node9"><a xlink:href="namespacesharp.html#a7ed0899941867073e5062af04fdbd3e7" target="_top" xlink:title="Linearly interpolate a data field to a requested pressure level.">
<polygon fill="white" stroke="#666666" points="606,-59 481,-59 481,-40 606,-40 606,-59"/>
<text text-anchor="middle" x="543.5" y="-47" font-family="Helvetica,sans-Serif" font-size="10.00">sharp::interp_pressure</text>
</a>
</g>
</g>
<!-- Node8&#45;&gt;Node9 -->
<g id="edge8" class="edge">
<title>Node8&#45;&gt;Node9</title>
<path fill="none" stroke="#63b8ff" d="M429.37,-47.45C442.55,-47.69 456.93,-47.95 470.88,-48.2"/>
<polygon fill="#63b8ff" stroke="#63b8ff" points="470.87,-51.7 480.93,-48.38 471,-44.7 470.87,-51.7"/>
</g>
<!-- Node9&#45;&gt;Node5 -->
<g id="edge9" class="edge">
<title>Node9&#45;&gt;Node5</title>
<path fill="none" stroke="#63b8ff" d="M583.9,-59.03C605.55,-64.26 632.44,-70.77 654.62,-76.13"/>
<polygon fill="#63b8ff" stroke="#63b8ff" points="653.9,-79.56 664.44,-78.51 655.54,-72.75 653.9,-79.56"/>
</g>
<!-- Node9&#45;&gt;Node7 -->
<g id="edge10" class="edge">
<title>Node9&#45;&gt;Node7</title>
<path fill="none" stroke="#63b8ff" d="M606.29,-49.5C614.66,-49.5 623.28,-49.5 631.72,-49.5"/>
<polygon fill="#63b8ff" stroke="#63b8ff" points="631.9,-53 641.9,-49.5 631.9,-46 631.9,-53"/>
</g>
</g>
</svg>
