<?xml version="1.0" encoding="UTF-8" standalone="no"?>
<!DOCTYPE svg PUBLIC "-//W3C//DTD SVG 1.1//EN"
 "http://www.w3.org/Graphics/SVG/1.1/DTD/svg11.dtd">
<!-- Generated by graphviz version 2.43.0 (0)
 -->
<!-- Title: SHARPlib Pages: 1 -->
<svg width="257pt" height="125pt"
 viewBox="0.00 0.00 257.00 125.00" xmlns="http://www.w3.org/2000/svg" xmlns:xlink="http://www.w3.org/1999/xlink">
<g id="graph0" class="graph" transform="scale(1 1) rotate(0) translate(4 121)">
<title>SHARPlib</title>
<g id="clust1" class="cluster">
<title>clusterdir_68267d1309a1af8e8297ef4c3efbcdba</title>
<g id="a_clust1"><a xlink:href="dir_68267d1309a1af8e8297ef4c3efbcdba.html" target="_top" xlink:title="src">
<polygon fill="#daedff" stroke="#404040" stroke-dasharray="5,2" points="8,-39 8,-109 241,-109 241,-39 8,-39"/>
<text text-anchor="middle" x="124.5" y="-97" font-family="Helvetica,sans-Serif" font-size="10.00">src</text>
</a>
</g>
</g>
<g id="clust2" class="cluster">
<title>clusterdir_da3333df562648373a1c39a9df032a51</title>
<g id="a_clust2"><a xlink:href="dir_da3333df562648373a1c39a9df032a51.html" target="_top">
<polygon fill="#daedff" stroke="#404040" stroke-width="2" points="16,-47 16,-82 233,-82 233,-47 16,-47"/>
</a>
</g>
</g>
<!-- dir_da3333df562648373a1c39a9df032a51 -->
<g id="node1" class="node">
<title>dir_da3333df562648373a1c39a9df032a51</title>
<text text-anchor="middle" x="194" y="-62" font-family="Helvetica,sans-Serif" font-size="10.00">SHARPlib</text>
</g>
<!-- dir_d44c64559bbebec7f509842c48db8b23 -->
<g id="node4" class="node">
<title>dir_d44c64559bbebec7f509842c48db8b23</title>
<g id="a_node4"><a xlink:href="dir_d44c64559bbebec7f509842c48db8b23.html" target="_top" xlink:title="include">
<polygon fill="#daedff" stroke="red" points="146,-19 94,-19 94,0 146,0 146,-19"/>
<text text-anchor="middle" x="120" y="-7" font-family="Helvetica,sans-Serif" font-size="10.00">include</text>
</a>
</g>
</g>
<!-- dir_da3333df562648373a1c39a9df032a51&#45;&gt;dir_d44c64559bbebec7f509842c48db8b23 -->
<g id="edge1" class="edge">
<title>dir_da3333df562648373a1c39a9df032a51&#45;&gt;dir_d44c64559bbebec7f509842c48db8b23</title>
<path fill="none" stroke="#63b8ff" d="M182.11,-54.98C170.85,-46.92 153.71,-34.65 140.29,-25.03"/>
<polygon fill="#63b8ff" stroke="#63b8ff" points="142.27,-22.15 132.11,-19.17 138.2,-27.84 142.27,-22.15"/>
<g id="a_edge1&#45;headlabel"><a xlink:href="dir_000008_000002.html" target="_top" xlink:title="46">
<text text-anchor="middle" x="146.85" y="-19.43" font-family="Helvetica,sans-Serif" font-size="10.00" fill="#63b8ff">46</text>
</a>
</g>
</g>
<!-- dir_f39ef84b696c3d99ee93708fe0f75ea1 -->
<g id="node2" class="node">
<title>dir_f39ef84b696c3d99ee93708fe0f75ea1</title>
<g id="a_node2"><a xlink:href="dir_f39ef84b696c3d99ee93708fe0f75ea1.html" target="_top" xlink:title="CWrap">
<polygon fill="#4ea9ff" stroke="#404040" points="144.5,-74 95.5,-74 95.5,-55 144.5,-55 144.5,-74"/>
<text text-anchor="middle" x="120" y="-62" font-family="Helvetica,sans-Serif" font-size="10.00">CWrap</text>
</a>
</g>
</g>
<!-- dir_f39ef84b696c3d99ee93708fe0f75ea1&#45;&gt;dir_d44c64559bbebec7f509842c48db8b23 -->
<g id="edge2" class="edge">
<title>dir_f39ef84b696c3d99ee93708fe0f75ea1&#45;&gt;dir_d44c64559bbebec7f509842c48db8b23</title>
<path fill="none" stroke="#63b8ff" d="M120,-54.75C120,-47.8 120,-37.85 120,-29.13"/>
<polygon fill="#63b8ff" stroke="#63b8ff" points="123.5,-29.09 120,-19.09 116.5,-29.09 123.5,-29.09"/>
<g id="a_edge2&#45;headlabel"><a xlink:href="dir_000001_000002.html" target="_top" xlink:title="19">
<text text-anchor="middle" x="126.34" y="-30.18" font-family="Helvetica,sans-Serif" font-size="10.00" fill="#63b8ff">19</text>
</a>
</g>
</g>
<!-- dir_bf785d60f5475a083f21365295522698 -->
<g id="node3" class="node">
<title>dir_bf785d60f5475a083f21365295522698</title>
<g id="a_node3"><a xlink:href="dir_bf785d60f5475a083f21365295522698.html" target="_top" xlink:title="params">
<polygon fill="#4ea9ff" stroke="#404040" points="77.5,-74 24.5,-74 24.5,-55 77.5,-55 77.5,-74"/>
<text text-anchor="middle" x="51" y="-62" font-family="Helvetica,sans-Serif" font-size="10.00">params</text>
</a>
</g>
</g>
<!-- dir_bf785d60f5475a083f21365295522698&#45;&gt;dir_d44c64559bbebec7f509842c48db8b23 -->
<g id="edge3" class="edge">
<title>dir_bf785d60f5475a083f21365295522698&#45;&gt;dir_d44c64559bbebec7f509842c48db8b23</title>
<path fill="none" stroke="#63b8ff" d="M62.09,-54.98C72.49,-47 88.26,-34.88 100.72,-25.31"/>
<polygon fill="#63b8ff" stroke="#63b8ff" points="102.91,-28.04 108.71,-19.17 98.65,-22.49 102.91,-28.04"/>
<g id="a_edge3&#45;headlabel"><a xlink:href="dir_000006_000002.html" target="_top" xlink:title="7">
<text text-anchor="middle" x="101.79" y="-29.98" font-family="Helvetica,sans-Serif" font-size="10.00" fill="#63b8ff">7</text>
</a>
</g>
</g>
</g>
</svg>
