<?xml version="1.0" encoding="UTF-8" standalone="no"?>
<!DOCTYPE svg PUBLIC "-//W3C//DTD SVG 1.1//EN"
 "http://www.w3.org/Graphics/SVG/1.1/DTD/svg11.dtd">
<!-- Generated by graphviz version 2.43.0 (0)
 -->
<!-- Title: interp_wrap.cpp Pages: 1 -->
<svg width="328pt" height="148pt"
 viewBox="0.00 0.00 327.50 148.00" xmlns="http://www.w3.org/2000/svg" xmlns:xlink="http://www.w3.org/1999/xlink">
<g id="graph0" class="graph" transform="scale(1 1) rotate(0) translate(4 144)">
<title>interp_wrap.cpp</title>
<!-- Node1 -->
<g id="node1" class="node">
<title>Node1</title>
<g id="a_node1"><a xlink:title=" ">
<polygon fill="#999999" stroke="#666666" points="244.5,-140 149.5,-140 149.5,-121 244.5,-121 244.5,-140"/>
<text text-anchor="middle" x="197" y="-128" font-family="Helvetica,sans-Serif" font-size="10.00">interp_wrap.cpp</text>
</a>
</g>
</g>
<!-- Node2 -->
<g id="node2" class="node">
<title>Node2</title>
<g id="a_node2"><a xlink:href="interp__wrap_8h.html" target="_top" xlink:title="Header defining the C wrapper interface to interpolation routines.">
<polygon fill="white" stroke="#666666" points="128,-85 0,-85 0,-55 128,-55 128,-85"/>
<text text-anchor="start" x="8" y="-73" font-family="Helvetica,sans-Serif" font-size="10.00">SHARPlib/CWrap/interp</text>
<text text-anchor="middle" x="64" y="-62" font-family="Helvetica,sans-Serif" font-size="10.00">_wrap.h</text>
</a>
</g>
</g>
<!-- Node1&#45;&gt;Node2 -->
<g id="edge1" class="edge">
<title>Node1&#45;&gt;Node2</title>
<path fill="none" stroke="#63b8ff" d="M177.66,-120.99C158.77,-112.68 129.42,-99.78 105.28,-89.16"/>
<polygon fill="#63b8ff" stroke="#63b8ff" points="106.54,-85.89 95.98,-85.06 103.72,-92.29 106.54,-85.89"/>
</g>
<!-- Node3 -->
<g id="node3" class="node">
<title>Node3</title>
<g id="a_node3"><a xlink:href="interp_8h.html" target="_top" xlink:title="Routines for linear interpolation of vertical atmospheric profiles.">
<polygon fill="white" stroke="#666666" points="248,-79.5 146,-79.5 146,-60.5 248,-60.5 248,-79.5"/>
<text text-anchor="middle" x="197" y="-67.5" font-family="Helvetica,sans-Serif" font-size="10.00">SHARPlib/interp.h</text>
</a>
</g>
</g>
<!-- Node1&#45;&gt;Node3 -->
<g id="edge2" class="edge">
<title>Node1&#45;&gt;Node3</title>
<path fill="none" stroke="#63b8ff" d="M197,-120.87C197,-112.75 197,-100.31 197,-89.89"/>
<polygon fill="#63b8ff" stroke="#63b8ff" points="200.5,-89.67 197,-79.67 193.5,-89.67 200.5,-89.67"/>
</g>
<!-- Node7 -->
<g id="node7" class="node">
<title>Node7</title>
<g id="a_node7"><a xlink:title=" ">
<polygon fill="#e0e0e0" stroke="#999999" points="319.5,-79.5 266.5,-79.5 266.5,-60.5 319.5,-60.5 319.5,-79.5"/>
<text text-anchor="middle" x="293" y="-67.5" font-family="Helvetica,sans-Serif" font-size="10.00">stdlib.h</text>
</a>
</g>
</g>
<!-- Node1&#45;&gt;Node7 -->
<g id="edge6" class="edge">
<title>Node1&#45;&gt;Node7</title>
<path fill="none" stroke="#63b8ff" d="M211.17,-120.87C226.69,-111.41 251.83,-96.09 270.15,-84.92"/>
<polygon fill="#63b8ff" stroke="#63b8ff" points="272.06,-87.86 278.78,-79.67 268.42,-81.88 272.06,-87.86"/>
</g>
<!-- Node4 -->
<g id="node4" class="node">
<title>Node4</title>
<g id="a_node4"><a xlink:href="constants_8h.html" target="_top" xlink:title="Meteorological constants useful for computations with vertical atmospheric sounding profiles.">
<polygon fill="white" stroke="#666666" points="155.5,-19 34.5,-19 34.5,0 155.5,0 155.5,-19"/>
<text text-anchor="middle" x="95" y="-7" font-family="Helvetica,sans-Serif" font-size="10.00">SHARPlib/constants.h</text>
</a>
</g>
</g>
<!-- Node3&#45;&gt;Node4 -->
<g id="edge3" class="edge">
<title>Node3&#45;&gt;Node4</title>
<path fill="none" stroke="#63b8ff" d="M181.95,-60.37C165.38,-50.86 138.5,-35.45 119.01,-24.27"/>
<polygon fill="#63b8ff" stroke="#63b8ff" points="120.53,-21.11 110.11,-19.17 117.05,-27.18 120.53,-21.11"/>
</g>
<!-- Node5 -->
<g id="node5" class="node">
<title>Node5</title>
<g id="a_node5"><a xlink:title=" ">
<polygon fill="#e0e0e0" stroke="#999999" points="220.5,-19 173.5,-19 173.5,0 220.5,0 220.5,-19"/>
<text text-anchor="middle" x="197" y="-7" font-family="Helvetica,sans-Serif" font-size="10.00">cmath</text>
</a>
</g>
</g>
<!-- Node3&#45;&gt;Node5 -->
<g id="edge4" class="edge">
<title>Node3&#45;&gt;Node5</title>
<path fill="none" stroke="#63b8ff" d="M197,-60.37C197,-52.25 197,-39.81 197,-29.39"/>
<polygon fill="#63b8ff" stroke="#63b8ff" points="200.5,-29.17 197,-19.17 193.5,-29.17 200.5,-29.17"/>
</g>
<!-- Node6 -->
<g id="node6" class="node">
<title>Node6</title>
<g id="a_node6"><a xlink:title=" ">
<polygon fill="#e0e0e0" stroke="#999999" points="291.5,-19 238.5,-19 238.5,0 291.5,0 291.5,-19"/>
<text text-anchor="middle" x="265" y="-7" font-family="Helvetica,sans-Serif" font-size="10.00">cstddef</text>
</a>
</g>
</g>
<!-- Node3&#45;&gt;Node6 -->
<g id="edge5" class="edge">
<title>Node3&#45;&gt;Node6</title>
<path fill="none" stroke="#63b8ff" d="M207.03,-60.37C217.58,-51.3 234.39,-36.84 247.19,-25.82"/>
<polygon fill="#63b8ff" stroke="#63b8ff" points="249.63,-28.34 254.93,-19.17 245.06,-23.04 249.63,-28.34"/>
</g>
</g>
</svg>
