<?xml version="1.0" encoding="UTF-8" standalone="no"?>
<!DOCTYPE svg PUBLIC "-//W3C//DTD SVG 1.1//EN"
 "http://www.w3.org/Graphics/SVG/1.1/DTD/svg11.dtd">
<!-- Generated by graphviz version 2.43.0 (0)
 -->
<!-- Title: interp.cpp Pages: 1 -->
<svg width="481pt" height="137pt"
 viewBox="0.00 0.00 481.02 137.00" xmlns="http://www.w3.org/2000/svg" xmlns:xlink="http://www.w3.org/1999/xlink">
<g id="graph0" class="graph" transform="scale(1 1) rotate(0) translate(4 133)">
<title>interp.cpp</title>
<!-- Node1 -->
<g id="node1" class="node">
<title>Node1</title>
<g id="a_node1"><a xlink:title="Routines for linear interpolation of vertical atmospheric profiles.">
<polygon fill="#999999" stroke="#666666" points="298,-129 233,-129 233,-110 298,-110 298,-129"/>
<text text-anchor="middle" x="265.5" y="-117" font-family="Helvetica,sans-Serif" font-size="10.00">interp.cpp</text>
</a>
</g>
</g>
<!-- Node2 -->
<g id="node2" class="node">
<title>Node2</title>
<g id="a_node2"><a xlink:title=" ">
<polygon fill="#e0e0e0" stroke="#999999" points="119,-74 0,-74 0,-55 119,-55 119,-74"/>
<text text-anchor="middle" x="59.5" y="-62" font-family="Helvetica,sans-Serif" font-size="10.00">pybind11/pybind11.h</text>
</a>
</g>
</g>
<!-- Node1&#45;&gt;Node2 -->
<g id="edge1" class="edge">
<title>Node1&#45;&gt;Node2</title>
<path fill="none" stroke="#63b8ff" d="M232.86,-110.1C197.66,-101.05 141.46,-86.59 102.63,-76.6"/>
<polygon fill="#63b8ff" stroke="#63b8ff" points="103.23,-73.14 92.67,-74.03 101.48,-79.92 103.23,-73.14"/>
</g>
<!-- Node3 -->
<g id="node3" class="node">
<title>Node3</title>
<g id="a_node3"><a xlink:href="algorithms_8h.html" target="_top" xlink:title="Various algorithms used for searching, sorting, accumulating etc.">
<polygon fill="white" stroke="#666666" points="459.5,-74 333.5,-74 333.5,-55 459.5,-55 459.5,-74"/>
<text text-anchor="middle" x="396.5" y="-62" font-family="Helvetica,sans-Serif" font-size="10.00">SHARPlib/algorithms.h</text>
</a>
</g>
</g>
<!-- Node1&#45;&gt;Node3 -->
<g id="edge2" class="edge">
<title>Node1&#45;&gt;Node3</title>
<path fill="none" stroke="#63b8ff" d="M286.55,-109.98C307.91,-101.34 341.2,-87.87 365.56,-78.02"/>
<polygon fill="#63b8ff" stroke="#63b8ff" points="367.11,-81.17 375.07,-74.17 364.49,-74.68 367.11,-81.17"/>
</g>
<!-- Node5 -->
<g id="node5" class="node">
<title>Node5</title>
<g id="a_node5"><a xlink:title=" ">
<polygon fill="#e0e0e0" stroke="#999999" points="456,-19 391,-19 391,0 456,0 456,-19"/>
<text text-anchor="middle" x="423.5" y="-7" font-family="Helvetica,sans-Serif" font-size="10.00">functional</text>
</a>
</g>
</g>
<!-- Node1&#45;&gt;Node5 -->
<g id="edge11" class="edge">
<title>Node1&#45;&gt;Node5</title>
<path fill="none" stroke="#63b8ff" d="M298.02,-116.2C349.84,-111.79 447.47,-100.14 468.5,-74 481.53,-57.81 462.65,-38.15 445.51,-25.03"/>
<polygon fill="#63b8ff" stroke="#63b8ff" points="447.54,-22.18 437.38,-19.16 443.44,-27.85 447.54,-22.18"/>
</g>
<!-- Node6 -->
<g id="node6" class="node">
<title>Node6</title>
<g id="a_node6"><a xlink:href="constants_8h.html" target="_top" xlink:title="Meteorological constants useful for computations with vertical atmospheric sounding profiles.">
<polygon fill="white" stroke="#666666" points="236,-19 115,-19 115,0 236,0 236,-19"/>
<text text-anchor="middle" x="175.5" y="-7" font-family="Helvetica,sans-Serif" font-size="10.00">SHARPlib/constants.h</text>
</a>
</g>
</g>
<!-- Node1&#45;&gt;Node6 -->
<g id="edge5" class="edge">
<title>Node1&#45;&gt;Node6</title>
<path fill="none" stroke="#63b8ff" d="M232.74,-113.25C209.9,-107.7 181.03,-96.47 166.5,-74 157.73,-60.44 161.78,-41.86 166.95,-28.31"/>
<polygon fill="#63b8ff" stroke="#63b8ff" points="170.18,-29.65 170.92,-19.08 163.75,-26.89 170.18,-29.65"/>
</g>
<!-- Node7 -->
<g id="node7" class="node">
<title>Node7</title>
<g id="a_node7"><a xlink:href="interp_8h.html" target="_top" xlink:title="Routines for linear interpolation of vertical atmospheric profiles.">
<polygon fill="white" stroke="#666666" points="277.5,-74 175.5,-74 175.5,-55 277.5,-55 277.5,-74"/>
<text text-anchor="middle" x="226.5" y="-62" font-family="Helvetica,sans-Serif" font-size="10.00">SHARPlib/interp.h</text>
</a>
</g>
</g>
<!-- Node1&#45;&gt;Node7 -->
<g id="edge6" class="edge">
<title>Node1&#45;&gt;Node7</title>
<path fill="none" stroke="#63b8ff" d="M259.06,-109.75C253.61,-102.34 245.64,-91.5 238.94,-82.41"/>
<polygon fill="#63b8ff" stroke="#63b8ff" points="241.57,-80.07 232.82,-74.09 235.93,-84.22 241.57,-80.07"/>
</g>
<!-- Node8 -->
<g id="node8" class="node">
<title>Node8</title>
<g id="a_node8"><a xlink:title=" ">
<polygon fill="#e0e0e0" stroke="#999999" points="302,-19 255,-19 255,0 302,0 302,-19"/>
<text text-anchor="middle" x="278.5" y="-7" font-family="Helvetica,sans-Serif" font-size="10.00">cmath</text>
</a>
</g>
</g>
<!-- Node1&#45;&gt;Node8 -->
<g id="edge10" class="edge">
<title>Node1&#45;&gt;Node8</title>
<path fill="none" stroke="#63b8ff" d="M271.08,-109.72C276.24,-101.03 283.55,-87.17 286.5,-74 289.85,-59.07 287.28,-41.84 284.19,-29.09"/>
<polygon fill="#63b8ff" stroke="#63b8ff" points="287.5,-27.93 281.48,-19.22 280.75,-29.79 287.5,-27.93"/>
</g>
<!-- Node4 -->
<g id="node4" class="node">
<title>Node4</title>
<g id="a_node4"><a xlink:title=" ">
<polygon fill="#e0e0e0" stroke="#999999" points="373,-19 320,-19 320,0 373,0 373,-19"/>
<text text-anchor="middle" x="346.5" y="-7" font-family="Helvetica,sans-Serif" font-size="10.00">cstddef</text>
</a>
</g>
</g>
<!-- Node3&#45;&gt;Node4 -->
<g id="edge3" class="edge">
<title>Node3&#45;&gt;Node4</title>
<path fill="none" stroke="#63b8ff" d="M388.24,-54.75C381.04,-47.11 370.39,-35.82 361.65,-26.56"/>
<polygon fill="#63b8ff" stroke="#63b8ff" points="364.01,-23.96 354.6,-19.09 358.92,-28.76 364.01,-23.96"/>
</g>
<!-- Node3&#45;&gt;Node5 -->
<g id="edge4" class="edge">
<title>Node3&#45;&gt;Node5</title>
<path fill="none" stroke="#63b8ff" d="M400.96,-54.75C404.62,-47.57 409.91,-37.18 414.45,-28.27"/>
<polygon fill="#63b8ff" stroke="#63b8ff" points="417.7,-29.59 419.12,-19.09 411.47,-26.41 417.7,-29.59"/>
</g>
<!-- Node7&#45;&gt;Node4 -->
<g id="edge9" class="edge">
<title>Node7&#45;&gt;Node4</title>
<path fill="none" stroke="#63b8ff" d="M245.78,-54.98C265.17,-46.42 295.31,-33.11 317.57,-23.28"/>
<polygon fill="#63b8ff" stroke="#63b8ff" points="319.14,-26.41 326.87,-19.17 316.31,-20.01 319.14,-26.41"/>
</g>
<!-- Node7&#45;&gt;Node6 -->
<g id="edge7" class="edge">
<title>Node7&#45;&gt;Node6</title>
<path fill="none" stroke="#63b8ff" d="M218.08,-54.75C210.73,-47.11 199.87,-35.82 190.96,-26.56"/>
<polygon fill="#63b8ff" stroke="#63b8ff" points="193.22,-23.87 183.76,-19.09 188.18,-28.72 193.22,-23.87"/>
</g>
<!-- Node7&#45;&gt;Node8 -->
<g id="edge8" class="edge">
<title>Node7&#45;&gt;Node8</title>
<path fill="none" stroke="#63b8ff" d="M235.09,-54.75C242.66,-47.03 253.88,-35.6 263.01,-26.28"/>
<polygon fill="#63b8ff" stroke="#63b8ff" points="265.57,-28.68 270.07,-19.09 260.57,-23.78 265.57,-28.68"/>
</g>
</g>
</svg>
