<?xml version="1.0" encoding="UTF-8" standalone="no"?>
<!DOCTYPE svg PUBLIC "-//W3C//DTD SVG 1.1//EN"
 "http://www.w3.org/Graphics/SVG/1.1/DTD/svg11.dtd">
<!-- Generated by graphviz version 2.43.0 (0)
 -->
<!-- Title: interp.h Pages: 1 -->
<svg width="783pt" height="302pt"
 viewBox="0.00 0.00 783.00 302.00" xmlns="http://www.w3.org/2000/svg" xmlns:xlink="http://www.w3.org/1999/xlink">
<g id="graph0" class="graph" transform="scale(1 1) rotate(0) translate(4 298)">
<title>interp.h</title>
<!-- Node1 -->
<g id="node1" class="node">
<title>Node1</title>
<g id="a_node1"><a xlink:title="Routines for linear interpolation of vertical atmospheric profiles.">
<polygon fill="#999999" stroke="#666666" points="374.5,-294 320.5,-294 320.5,-275 374.5,-275 374.5,-294"/>
<text text-anchor="middle" x="347.5" y="-282" font-family="Helvetica,sans-Serif" font-size="10.00">interp.h</text>
</a>
</g>
</g>
<!-- Node2 -->
<g id="node2" class="node">
<title>Node2</title>
<g id="a_node2"><a xlink:href="interp_8cpp.html" target="_top" xlink:title="Routines for linear interpolation of vertical atmospheric profiles.">
<polygon fill="white" stroke="#666666" points="65,-239 0,-239 0,-220 65,-220 65,-239"/>
<text text-anchor="middle" x="32.5" y="-227" font-family="Helvetica,sans-Serif" font-size="10.00">interp.cpp</text>
</a>
</g>
</g>
<!-- Node1&#45;&gt;Node2 -->
<g id="edge1" class="edge">
<title>Node1&#45;&gt;Node2</title>
<path fill="none" stroke="#63b8ff" d="M310.44,-277.52C258.69,-269.13 161.89,-253.29 79.5,-239 74.84,-238.19 69.93,-237.32 65.11,-236.46"/>
<polygon fill="#63b8ff" stroke="#63b8ff" points="310.04,-281 320.47,-279.14 311.16,-274.09 310.04,-281"/>
</g>
<!-- Node3 -->
<g id="node3" class="node">
<title>Node3</title>
<g id="a_node3"><a xlink:href="layer_8cpp.html" target="_top" xlink:title="Utilities and structures useful for grouping objects, conducting QC, and things that otherwise don&#39;t ...">
<polygon fill="white" stroke="#666666" points="221,-184 160,-184 160,-165 221,-165 221,-184"/>
<text text-anchor="middle" x="190.5" y="-172" font-family="Helvetica,sans-Serif" font-size="10.00">layer.cpp</text>
</a>
</g>
</g>
<!-- Node1&#45;&gt;Node3 -->
<g id="edge2" class="edge">
<title>Node1&#45;&gt;Node3</title>
<path fill="none" stroke="#63b8ff" d="M326.43,-269.01C293.31,-246.22 230.07,-202.72 203.14,-184.2"/>
<polygon fill="#63b8ff" stroke="#63b8ff" points="324.69,-272.06 334.92,-274.84 328.66,-266.29 324.69,-272.06"/>
</g>
<!-- Node4 -->
<g id="node4" class="node">
<title>Node4</title>
<g id="a_node4"><a xlink:href="layer_8h.html" target="_top" xlink:title="Data structures and functions for performing operations over atmospheric layers.">
<polygon fill="white" stroke="#666666" points="468.5,-239 418.5,-239 418.5,-220 468.5,-220 468.5,-239"/>
<text text-anchor="middle" x="443.5" y="-227" font-family="Helvetica,sans-Serif" font-size="10.00">layer.h</text>
</a>
</g>
</g>
<!-- Node1&#45;&gt;Node4 -->
<g id="edge3" class="edge">
<title>Node1&#45;&gt;Node4</title>
<path fill="none" stroke="#63b8ff" d="M372.02,-269.97C389.56,-260.28 412.67,-247.52 427.8,-239.17"/>
<polygon fill="#63b8ff" stroke="#63b8ff" points="369.99,-267.09 362.92,-274.98 373.37,-273.22 369.99,-267.09"/>
</g>
<!-- Node7 -->
<g id="node7" class="node">
<title>Node7</title>
<g id="a_node7"><a xlink:href="parcel_8cpp.html" target="_top" xlink:title="Routines used for parcel lifting and integration.">
<polygon fill="white" stroke="#666666" points="249,-74 182,-74 182,-55 249,-55 249,-74"/>
<text text-anchor="middle" x="215.5" y="-62" font-family="Helvetica,sans-Serif" font-size="10.00">parcel.cpp</text>
</a>
</g>
</g>
<!-- Node1&#45;&gt;Node7 -->
<g id="edge27" class="edge">
<title>Node1&#45;&gt;Node7</title>
<path fill="none" stroke="#63b8ff" d="M310.35,-281.09C274.23,-277.13 219.3,-266.67 180.5,-239 156.51,-221.89 152.1,-212.18 143.5,-184 138.65,-168.09 136.89,-126.54 146.5,-110 156.52,-92.74 176.22,-81.05 192.01,-74"/>
<polygon fill="#63b8ff" stroke="#63b8ff" points="310.17,-284.59 320.46,-282.08 310.85,-277.63 310.17,-284.59"/>
</g>
<!-- Node8 -->
<g id="node8" class="node">
<title>Node8</title>
<g id="a_node8"><a xlink:href="parcel_8h.html" target="_top" xlink:title="Routines used for parcel lifting and integration.">
<polygon fill="white" stroke="#666666" points="211.5,-129 155.5,-129 155.5,-110 211.5,-110 211.5,-129"/>
<text text-anchor="middle" x="183.5" y="-117" font-family="Helvetica,sans-Serif" font-size="10.00">parcel.h</text>
</a>
</g>
</g>
<!-- Node1&#45;&gt;Node8 -->
<g id="edge28" class="edge">
<title>Node1&#45;&gt;Node8</title>
<path fill="none" stroke="#63b8ff" d="M310.35,-276.92C263.56,-266.42 185.1,-240.93 150.5,-184 139.01,-165.1 159.46,-141.78 172.98,-129.33"/>
<polygon fill="#63b8ff" stroke="#63b8ff" points="309.88,-280.4 320.39,-279.06 311.34,-273.55 309.88,-280.4"/>
</g>
<!-- Node9 -->
<g id="node9" class="node">
<title>Node9</title>
<g id="a_node9"><a xlink:href="thermo_8cpp.html" target="_top" xlink:title="Thermodynamic routines that do not directly involve parcel based ascent.">
<polygon fill="white" stroke="#666666" points="415.5,-129 343.5,-129 343.5,-110 415.5,-110 415.5,-129"/>
<text text-anchor="middle" x="379.5" y="-117" font-family="Helvetica,sans-Serif" font-size="10.00">thermo.cpp</text>
</a>
</g>
</g>
<!-- Node1&#45;&gt;Node9 -->
<g id="edge29" class="edge">
<title>Node1&#45;&gt;Node9</title>
<path fill="none" stroke="#63b8ff" d="M351.17,-264.83C358.07,-229.67 372.75,-154.9 377.77,-129.31"/>
<polygon fill="#63b8ff" stroke="#63b8ff" points="347.71,-264.25 349.22,-274.74 354.58,-265.6 347.71,-264.25"/>
</g>
<!-- Node10 -->
<g id="node10" class="node">
<title>Node10</title>
<g id="a_node10"><a xlink:href="thermo_8h.html" target="_top" xlink:title="Routines used to compute thermodynamic attributes of vertical sounding profiles.">
<polygon fill="white" stroke="#666666" points="339,-184 278,-184 278,-165 339,-165 339,-184"/>
<text text-anchor="middle" x="308.5" y="-172" font-family="Helvetica,sans-Serif" font-size="10.00">thermo.h</text>
</a>
</g>
</g>
<!-- Node1&#45;&gt;Node10 -->
<g id="edge30" class="edge">
<title>Node1&#45;&gt;Node10</title>
<path fill="none" stroke="#63b8ff" d="M340.86,-265.12C332.36,-241.56 317.95,-201.66 311.63,-184.16"/>
<polygon fill="#63b8ff" stroke="#63b8ff" points="337.62,-266.45 344.31,-274.66 344.2,-264.07 337.62,-266.45"/>
</g>
<!-- Node11 -->
<g id="node11" class="node">
<title>Node11</title>
<g id="a_node11"><a xlink:href="winds_8cpp.html" target="_top" xlink:title="Routines used to compute kinematic attributes and indices of vertical sounding profiles.">
<polygon fill="white" stroke="#666666" points="775,-129 710,-129 710,-110 775,-110 775,-129"/>
<text text-anchor="middle" x="742.5" y="-117" font-family="Helvetica,sans-Serif" font-size="10.00">winds.cpp</text>
</a>
</g>
</g>
<!-- Node1&#45;&gt;Node11 -->
<g id="edge31" class="edge">
<title>Node1&#45;&gt;Node11</title>
<path fill="none" stroke="#63b8ff" d="M384.54,-284.25C446.08,-284.24 572.23,-278.79 669.5,-239 707.43,-223.49 725.09,-220.61 743.5,-184 752.41,-166.27 748.3,-142.08 745.07,-129.28"/>
<polygon fill="#63b8ff" stroke="#63b8ff" points="384.55,-280.75 374.53,-284.21 384.51,-287.75 384.55,-280.75"/>
</g>
<!-- Node12 -->
<g id="node12" class="node">
<title>Node12</title>
<g id="a_node12"><a xlink:href="winds_8h.html" target="_top" xlink:title="Routines used to compute kinematic attributes and indices of vertical sounding profiles.">
<polygon fill="white" stroke="#666666" points="713.5,-184 659.5,-184 659.5,-165 713.5,-165 713.5,-184"/>
<text text-anchor="middle" x="686.5" y="-172" font-family="Helvetica,sans-Serif" font-size="10.00">winds.h</text>
</a>
</g>
</g>
<!-- Node1&#45;&gt;Node12 -->
<g id="edge32" class="edge">
<title>Node1&#45;&gt;Node12</title>
<path fill="none" stroke="#63b8ff" d="M384.96,-281.72C455.11,-277.77 603.06,-266.37 645.5,-239 666.01,-225.77 678.36,-198.24 683.58,-184.18"/>
<polygon fill="#63b8ff" stroke="#63b8ff" points="384.59,-278.23 374.79,-282.27 384.97,-285.22 384.59,-278.23"/>
</g>
<!-- Node14 -->
<g id="node14" class="node">
<title>Node14</title>
<g id="a_node14"><a xlink:href="winter_8cpp.html" target="_top" xlink:title="Winter weather parameters.">
<polygon fill="white" stroke="#666666" points="615,-129 548,-129 548,-110 615,-110 615,-129"/>
<text text-anchor="middle" x="581.5" y="-117" font-family="Helvetica,sans-Serif" font-size="10.00">winter.cpp</text>
</a>
</g>
</g>
<!-- Node1&#45;&gt;Node14 -->
<g id="edge33" class="edge">
<title>Node1&#45;&gt;Node14</title>
<path fill="none" stroke="#63b8ff" d="M384.82,-282.25C444.91,-277.98 561.54,-259.79 612.5,-184 624.82,-165.68 604.49,-141.73 591.33,-129.12"/>
<polygon fill="#63b8ff" stroke="#63b8ff" points="384.4,-278.77 374.63,-282.88 384.83,-285.76 384.4,-278.77"/>
</g>
<!-- Node4&#45;&gt;Node3 -->
<g id="edge7" class="edge">
<title>Node4&#45;&gt;Node3</title>
<path fill="none" stroke="#63b8ff" d="M408.33,-221.13C358.51,-210.7 268.2,-191.78 221.04,-181.9"/>
<polygon fill="#63b8ff" stroke="#63b8ff" points="407.81,-224.6 418.32,-223.22 409.25,-217.75 407.81,-224.6"/>
</g>
<!-- Node5 -->
<g id="node5" class="node">
<title>Node5</title>
<g id="a_node5"><a xlink:href="convective_8cpp.html" target="_top" xlink:title="Routines used to computed derived sounding parameters from vertical atmospheric profiles.">
<polygon fill="white" stroke="#666666" points="443.5,-19 353.5,-19 353.5,0 443.5,0 443.5,-19"/>
<text text-anchor="middle" x="398.5" y="-7" font-family="Helvetica,sans-Serif" font-size="10.00">convective.cpp</text>
</a>
</g>
</g>
<!-- Node4&#45;&gt;Node5 -->
<g id="edge4" class="edge">
<title>Node4&#45;&gt;Node5</title>
<path fill="none" stroke="#63b8ff" d="M459.42,-212.34C466.07,-204.47 473.04,-194.46 476.5,-184 480.21,-172.78 482.26,-139.96 474.5,-110 467.62,-83.45 463.04,-76.89 446.5,-55 435.81,-40.86 420.33,-27.43 409.86,-19.09"/>
<polygon fill="#63b8ff" stroke="#63b8ff" points="456.64,-210.2 452.52,-219.96 461.83,-214.9 456.64,-210.2"/>
</g>
<!-- Node6 -->
<g id="node6" class="node">
<title>Node6</title>
<g id="a_node6"><a xlink:href="convective_8h.html" target="_top" xlink:title="Routines used to computed derived sounding parameters from vertical atmospheric profiles.">
<polygon fill="white" stroke="#666666" points="438,-74 359,-74 359,-55 438,-55 438,-74"/>
<text text-anchor="middle" x="398.5" y="-62" font-family="Helvetica,sans-Serif" font-size="10.00">convective.h</text>
</a>
</g>
</g>
<!-- Node4&#45;&gt;Node6 -->
<g id="edge5" class="edge">
<title>Node4&#45;&gt;Node6</title>
<path fill="none" stroke="#63b8ff" d="M451.52,-210.56C461.05,-186.39 473.76,-142.63 457.5,-110 449.26,-93.46 431.62,-81.45 417.77,-74.1"/>
<polygon fill="#63b8ff" stroke="#63b8ff" points="448.24,-209.33 447.6,-219.91 454.69,-212.04 448.24,-209.33"/>
</g>
<!-- Node4&#45;&gt;Node7 -->
<g id="edge8" class="edge">
<title>Node4&#45;&gt;Node7</title>
<path fill="none" stroke="#63b8ff" d="M446.37,-209.94C449.25,-183.97 450.13,-136.97 424.5,-110 400.86,-85.13 302.24,-72.96 249.36,-68.13"/>
<polygon fill="#63b8ff" stroke="#63b8ff" points="442.89,-209.58 445.04,-219.95 449.83,-210.5 442.89,-209.58"/>
</g>
<!-- Node4&#45;&gt;Node8 -->
<g id="edge9" class="edge">
<title>Node4&#45;&gt;Node8</title>
<path fill="none" stroke="#63b8ff" d="M408.28,-223.71C371.92,-217.82 314.21,-205.81 268.5,-184 237.91,-169.4 207.38,-142.98 192.63,-129.28"/>
<polygon fill="#63b8ff" stroke="#63b8ff" points="407.97,-227.2 418.39,-225.27 409.05,-220.28 407.97,-227.2"/>
</g>
<!-- Node4&#45;&gt;Node9 -->
<g id="edge13" class="edge">
<title>Node4&#45;&gt;Node9</title>
<path fill="none" stroke="#63b8ff" d="M432.99,-210.76C419.07,-187.28 395.09,-146.81 384.63,-129.16"/>
<polygon fill="#63b8ff" stroke="#63b8ff" points="430.15,-212.84 438.26,-219.66 436.18,-209.27 430.15,-212.84"/>
</g>
<!-- Node4&#45;&gt;Node10 -->
<g id="edge14" class="edge">
<title>Node4&#45;&gt;Node10</title>
<path fill="none" stroke="#63b8ff" d="M412.4,-216.29C387.38,-206.47 352.84,-192.91 330.58,-184.17"/>
<polygon fill="#63b8ff" stroke="#63b8ff" points="411.22,-219.59 421.81,-219.98 413.78,-213.07 411.22,-219.59"/>
</g>
<!-- Node4&#45;&gt;Node11 -->
<g id="edge20" class="edge">
<title>Node4&#45;&gt;Node11</title>
<path fill="none" stroke="#63b8ff" d="M478.7,-227.39C545.35,-224.58 686.54,-215.02 722.5,-184 738.6,-170.11 741.89,-143.38 742.46,-129.45"/>
<polygon fill="#63b8ff" stroke="#63b8ff" points="478.52,-223.89 468.67,-227.78 478.8,-230.89 478.52,-223.89"/>
</g>
<!-- Node4&#45;&gt;Node12 -->
<g id="edge21" class="edge">
<title>Node4&#45;&gt;Node12</title>
<path fill="none" stroke="#63b8ff" d="M478.4,-220.89C527.25,-210.23 615.02,-191.09 659.33,-181.43"/>
<polygon fill="#63b8ff" stroke="#63b8ff" points="477.61,-217.48 468.59,-223.03 479.11,-224.32 477.61,-217.48"/>
</g>
<!-- Node13 -->
<g id="node13" class="node">
<title>Node13</title>
<g id="a_node13"><a xlink:href="winter_8h.html" target="_top" xlink:title="Winter weather parameters.">
<polygon fill="white" stroke="#666666" points="603.5,-184 547.5,-184 547.5,-165 603.5,-165 603.5,-184"/>
<text text-anchor="middle" x="575.5" y="-172" font-family="Helvetica,sans-Serif" font-size="10.00">winter.h</text>
</a>
</g>
</g>
<!-- Node4&#45;&gt;Node13 -->
<g id="edge25" class="edge">
<title>Node4&#45;&gt;Node13</title>
<path fill="none" stroke="#63b8ff" d="M474.23,-216.16C498.67,-206.35 532.24,-192.87 553.91,-184.17"/>
<polygon fill="#63b8ff" stroke="#63b8ff" points="472.68,-213.01 464.71,-219.98 475.29,-219.51 472.68,-213.01"/>
</g>
<!-- Node6&#45;&gt;Node5 -->
<g id="edge6" class="edge">
<title>Node6&#45;&gt;Node5</title>
<path fill="none" stroke="#63b8ff" d="M398.5,-44.66C398.5,-35.93 398.5,-25.99 398.5,-19.09"/>
<polygon fill="#63b8ff" stroke="#63b8ff" points="395,-44.75 398.5,-54.75 402,-44.75 395,-44.75"/>
</g>
<!-- Node8&#45;&gt;Node5 -->
<g id="edge10" class="edge">
<title>Node8&#45;&gt;Node5</title>
<path fill="none" stroke="#63b8ff" d="M173.46,-100.52C167.19,-86.61 162.09,-67.66 172.5,-55 194.95,-27.7 294.13,-16.89 353.39,-12.81"/>
<polygon fill="#63b8ff" stroke="#63b8ff" points="170.41,-102.24 178.03,-109.59 176.66,-99.09 170.41,-102.24"/>
</g>
<!-- Node8&#45;&gt;Node6 -->
<g id="edge11" class="edge">
<title>Node8&#45;&gt;Node6</title>
<path fill="none" stroke="#63b8ff" d="M221.34,-109.17C261.67,-99.23 324.98,-83.62 363.99,-74.01"/>
<polygon fill="#63b8ff" stroke="#63b8ff" points="220.48,-105.78 211.61,-111.57 222.15,-112.58 220.48,-105.78"/>
</g>
<!-- Node8&#45;&gt;Node7 -->
<g id="edge12" class="edge">
<title>Node8&#45;&gt;Node7</title>
<path fill="none" stroke="#63b8ff" d="M194,-101.1C199.47,-92.04 205.92,-81.37 210.31,-74.09"/>
<polygon fill="#63b8ff" stroke="#63b8ff" points="190.96,-99.38 188.78,-109.75 196.95,-103 190.96,-99.38"/>
</g>
<!-- Node10&#45;&gt;Node5 -->
<g id="edge15" class="edge">
<title>Node10&#45;&gt;Node5</title>
<path fill="none" stroke="#63b8ff" d="M310.56,-154.69C312.32,-141.85 315.41,-124.58 320.5,-110 329.61,-83.91 332.57,-76.84 349.5,-55 360.48,-40.83 376.28,-27.41 386.94,-19.08"/>
<polygon fill="#63b8ff" stroke="#63b8ff" points="307.08,-154.31 309.33,-164.66 314.03,-155.16 307.08,-154.31"/>
</g>
<!-- Node10&#45;&gt;Node6 -->
<g id="edge16" class="edge">
<title>Node10&#45;&gt;Node6</title>
<path fill="none" stroke="#63b8ff" d="M313.06,-154.84C317.06,-141.34 323.9,-123.21 334.5,-110 347.12,-94.27 366.73,-81.78 380.92,-74.08"/>
<polygon fill="#63b8ff" stroke="#63b8ff" points="309.58,-154.32 310.36,-164.89 316.34,-156.14 309.58,-154.32"/>
</g>
<!-- Node10&#45;&gt;Node7 -->
<g id="edge17" class="edge">
<title>Node10&#45;&gt;Node7</title>
<path fill="none" stroke="#63b8ff" d="M291.78,-158.08C283.05,-149.75 272.37,-139.13 263.5,-129 247.11,-110.28 230.04,-86.49 221.35,-74.02"/>
<polygon fill="#63b8ff" stroke="#63b8ff" points="289.46,-160.7 299.15,-165 294.26,-155.6 289.46,-160.7"/>
</g>
<!-- Node10&#45;&gt;Node8 -->
<g id="edge18" class="edge">
<title>Node10&#45;&gt;Node8</title>
<path fill="none" stroke="#63b8ff" d="M279.09,-161.03C255.97,-151.23 224.37,-137.83 203.95,-129.17"/>
<polygon fill="#63b8ff" stroke="#63b8ff" points="277.84,-164.3 288.42,-164.98 280.58,-157.86 277.84,-164.3"/>
</g>
<!-- Node10&#45;&gt;Node9 -->
<g id="edge19" class="edge">
<title>Node10&#45;&gt;Node9</title>
<path fill="none" stroke="#63b8ff" d="M328.09,-158.88C340.87,-149.34 357.11,-137.21 367.89,-129.17"/>
<polygon fill="#63b8ff" stroke="#63b8ff" points="325.83,-156.2 319.91,-164.98 330.01,-161.81 325.83,-156.2"/>
</g>
<!-- Node12&#45;&gt;Node5 -->
<g id="edge22" class="edge">
<title>Node12&#45;&gt;Node5</title>
<path fill="none" stroke="#63b8ff" d="M679.67,-155.09C673.74,-141.21 663.98,-122.49 650.5,-110 591.5,-55.34 498.88,-29.3 443.88,-18.04"/>
<polygon fill="#63b8ff" stroke="#63b8ff" points="676.5,-156.59 683.46,-164.58 683,-153.99 676.5,-156.59"/>
</g>
<!-- Node12&#45;&gt;Node6 -->
<g id="edge23" class="edge">
<title>Node12&#45;&gt;Node6</title>
<path fill="none" stroke="#63b8ff" d="M674.51,-156.68C663.1,-142 644.58,-121.31 623.5,-110 564.2,-78.19 485.14,-68.99 438.25,-66.4"/>
<polygon fill="#63b8ff" stroke="#63b8ff" points="671.87,-159 680.65,-164.92 677.48,-154.81 671.87,-159"/>
</g>
<!-- Node12&#45;&gt;Node11 -->
<g id="edge24" class="edge">
<title>Node12&#45;&gt;Node11</title>
<path fill="none" stroke="#63b8ff" d="M702.83,-158.04C712.76,-148.64 725.09,-136.98 733.34,-129.17"/>
<polygon fill="#63b8ff" stroke="#63b8ff" points="700.35,-155.57 695.5,-164.98 705.17,-160.65 700.35,-155.57"/>
</g>
<!-- Node13&#45;&gt;Node14 -->
<g id="edge26" class="edge">
<title>Node13&#45;&gt;Node14</title>
<path fill="none" stroke="#63b8ff" d="M577.63,-154.66C578.62,-145.93 579.75,-135.99 580.53,-129.09"/>
<polygon fill="#63b8ff" stroke="#63b8ff" points="574.14,-154.42 576.49,-164.75 581.09,-155.21 574.14,-154.42"/>
</g>
</g>
</svg>
