<?xml version="1.0" encoding="UTF-8" standalone="no"?>
<!DOCTYPE svg PUBLIC "-//W3C//DTD SVG 1.1//EN"
 "http://www.w3.org/Graphics/SVG/1.1/DTD/svg11.dtd">
<!-- Generated by graphviz version 2.43.0 (0)
 -->
<!-- Title: interp.h Pages: 1 -->
<svg width="705pt" height="247pt"
 viewBox="0.00 0.00 705.39 247.00" xmlns="http://www.w3.org/2000/svg" xmlns:xlink="http://www.w3.org/1999/xlink">
<g id="graph0" class="graph" transform="scale(1 1) rotate(0) translate(4 243)">
<title>interp.h</title>
<!-- Node1 -->
<g id="node1" class="node">
<title>Node1</title>
<g id="a_node1"><a xlink:title="Routines for linear interpolation of vertical atmospheric profiles.">
<polygon fill="#999999" stroke="#666666" points="386.5,-239 332.5,-239 332.5,-220 386.5,-220 386.5,-239"/>
<text text-anchor="middle" x="359.5" y="-227" font-family="Helvetica,sans-Serif" font-size="10.00">interp.h</text>
</a>
</g>
</g>
<!-- Node2 -->
<g id="node2" class="node">
<title>Node2</title>
<g id="a_node2"><a xlink:href="interp_8cpp.html" target="_top" xlink:title="Routines for linear interpolation of vertical atmospheric profiles.">
<polygon fill="white" stroke="#666666" points="65,-184 0,-184 0,-165 65,-165 65,-184"/>
<text text-anchor="middle" x="32.5" y="-172" font-family="Helvetica,sans-Serif" font-size="10.00">interp.cpp</text>
</a>
</g>
</g>
<!-- Node1&#45;&gt;Node2 -->
<g id="edge1" class="edge">
<title>Node1&#45;&gt;Node2</title>
<path fill="none" stroke="#63b8ff" d="M322.38,-222.86C268.72,-214.64 166.39,-198.76 79.5,-184 74.84,-183.21 69.93,-182.35 65.1,-181.49"/>
<polygon fill="#63b8ff" stroke="#63b8ff" points="322.02,-226.34 332.44,-224.4 323.08,-219.42 322.02,-226.34"/>
</g>
<!-- Node3 -->
<g id="node3" class="node">
<title>Node3</title>
<g id="a_node3"><a xlink:href="layer_8cpp.html" target="_top" xlink:title="Utilities and structures useful for grouping objects, conducting QC, and things that otherwise don&#39;t ...">
<polygon fill="white" stroke="#666666" points="183,-129 122,-129 122,-110 183,-110 183,-129"/>
<text text-anchor="middle" x="152.5" y="-117" font-family="Helvetica,sans-Serif" font-size="10.00">layer.cpp</text>
</a>
</g>
</g>
<!-- Node1&#45;&gt;Node3 -->
<g id="edge2" class="edge">
<title>Node1&#45;&gt;Node3</title>
<path fill="none" stroke="#63b8ff" d="M333.9,-215.14C290.77,-192.64 204.81,-147.79 168.88,-129.05"/>
<polygon fill="#63b8ff" stroke="#63b8ff" points="332.43,-218.32 342.91,-219.84 335.66,-212.12 332.43,-218.32"/>
</g>
<!-- Node4 -->
<g id="node4" class="node">
<title>Node4</title>
<g id="a_node4"><a xlink:href="layer_8h.html" target="_top" xlink:title="Data structures and functions for performing operations over atmospheric layers.">
<polygon fill="white" stroke="#666666" points="384.5,-184 334.5,-184 334.5,-165 384.5,-165 384.5,-184"/>
<text text-anchor="middle" x="359.5" y="-172" font-family="Helvetica,sans-Serif" font-size="10.00">layer.h</text>
</a>
</g>
</g>
<!-- Node1&#45;&gt;Node4 -->
<g id="edge3" class="edge">
<title>Node1&#45;&gt;Node4</title>
<path fill="none" stroke="#63b8ff" d="M359.5,-209.66C359.5,-200.93 359.5,-190.99 359.5,-184.09"/>
<polygon fill="#63b8ff" stroke="#63b8ff" points="356,-209.75 359.5,-219.75 363,-209.75 356,-209.75"/>
</g>
<!-- Node7 -->
<g id="node7" class="node">
<title>Node7</title>
<g id="a_node7"><a xlink:href="parcel_8cpp.html" target="_top" xlink:title="Routines used for parcel lifting and integration.">
<polygon fill="white" stroke="#666666" points="590,-19 523,-19 523,0 590,0 590,-19"/>
<text text-anchor="middle" x="556.5" y="-7" font-family="Helvetica,sans-Serif" font-size="10.00">parcel.cpp</text>
</a>
</g>
</g>
<!-- Node1&#45;&gt;Node7 -->
<g id="edge24" class="edge">
<title>Node1&#45;&gt;Node7</title>
<path fill="none" stroke="#63b8ff" d="M396.79,-226.43C474.07,-219.76 648.31,-191.73 694.5,-74 711.84,-29.81 636.57,-16.37 590.35,-12.28"/>
<polygon fill="#63b8ff" stroke="#63b8ff" points="396.25,-222.96 386.56,-227.23 396.8,-229.94 396.25,-222.96"/>
</g>
<!-- Node8 -->
<g id="node8" class="node">
<title>Node8</title>
<g id="a_node8"><a xlink:href="parcel_8h.html" target="_top" xlink:title="Routines used for parcel lifting and integration.">
<polygon fill="white" stroke="#666666" points="481.5,-74 425.5,-74 425.5,-55 481.5,-55 481.5,-74"/>
<text text-anchor="middle" x="453.5" y="-62" font-family="Helvetica,sans-Serif" font-size="10.00">parcel.h</text>
</a>
</g>
</g>
<!-- Node1&#45;&gt;Node8 -->
<g id="edge25" class="edge">
<title>Node1&#45;&gt;Node8</title>
<path fill="none" stroke="#63b8ff" d="M373.25,-212.01C379.77,-203.84 387.43,-193.68 393.5,-184 418.14,-144.74 441.08,-94.08 449.79,-74.12"/>
<polygon fill="#63b8ff" stroke="#63b8ff" points="370.37,-210.01 366.77,-219.98 375.8,-214.43 370.37,-210.01"/>
</g>
<!-- Node9 -->
<g id="node9" class="node">
<title>Node9</title>
<g id="a_node9"><a xlink:href="thermo_8cpp.html" target="_top" xlink:title="Thermodynamic routines that do not directly involve parcel based ascent.">
<polygon fill="white" stroke="#666666" points="685.5,-74 613.5,-74 613.5,-55 685.5,-55 685.5,-74"/>
<text text-anchor="middle" x="649.5" y="-62" font-family="Helvetica,sans-Serif" font-size="10.00">thermo.cpp</text>
</a>
</g>
</g>
<!-- Node1&#45;&gt;Node9 -->
<g id="edge26" class="edge">
<title>Node1&#45;&gt;Node9</title>
<path fill="none" stroke="#63b8ff" d="M397.1,-223.91C453.37,-215.16 559.66,-191.07 623.5,-129 639.22,-113.72 645.77,-87.6 648.22,-74.12"/>
<polygon fill="#63b8ff" stroke="#63b8ff" points="396.26,-220.5 386.87,-225.42 397.28,-227.42 396.26,-220.5"/>
</g>
<!-- Node10 -->
<g id="node10" class="node">
<title>Node10</title>
<g id="a_node10"><a xlink:href="thermo_8h.html" target="_top" xlink:title="Routines used to compute thermodynamic attributes of vertical sounding profiles.">
<polygon fill="white" stroke="#666666" points="525,-129 464,-129 464,-110 525,-110 525,-129"/>
<text text-anchor="middle" x="494.5" y="-117" font-family="Helvetica,sans-Serif" font-size="10.00">thermo.h</text>
</a>
</g>
</g>
<!-- Node1&#45;&gt;Node10 -->
<g id="edge27" class="edge">
<title>Node1&#45;&gt;Node10</title>
<path fill="none" stroke="#63b8ff" d="M394.22,-216.1C412.01,-208.62 433.28,-197.85 449.5,-184 468.2,-168.03 483.06,-142.67 490.08,-129.35"/>
<polygon fill="#63b8ff" stroke="#63b8ff" points="392.72,-212.93 384.75,-219.91 395.33,-219.43 392.72,-212.93"/>
</g>
<!-- Node11 -->
<g id="node11" class="node">
<title>Node11</title>
<g id="a_node11"><a xlink:href="winds_8cpp.html" target="_top" xlink:title="Routines used to compute kinematic attributes and indices of vertical sounding profiles.">
<polygon fill="white" stroke="#666666" points="217,-74 152,-74 152,-55 217,-55 217,-74"/>
<text text-anchor="middle" x="184.5" y="-62" font-family="Helvetica,sans-Serif" font-size="10.00">winds.cpp</text>
</a>
</g>
</g>
<!-- Node1&#45;&gt;Node11 -->
<g id="edge28" class="edge">
<title>Node1&#45;&gt;Node11</title>
<path fill="none" stroke="#63b8ff" d="M322.15,-226.09C265.38,-220.16 159.07,-199.69 112.5,-129 96.91,-105.34 133.78,-85.1 160.31,-74.17"/>
<polygon fill="#63b8ff" stroke="#63b8ff" points="321.86,-229.58 332.15,-227.03 322.52,-222.61 321.86,-229.58"/>
</g>
<!-- Node12 -->
<g id="node12" class="node">
<title>Node12</title>
<g id="a_node12"><a xlink:href="winds_8h.html" target="_top" xlink:title="Routines used to compute kinematic attributes and indices of vertical sounding profiles.">
<polygon fill="white" stroke="#666666" points="293.5,-129 239.5,-129 239.5,-110 293.5,-110 293.5,-129"/>
<text text-anchor="middle" x="266.5" y="-117" font-family="Helvetica,sans-Serif" font-size="10.00">winds.h</text>
</a>
</g>
</g>
<!-- Node1&#45;&gt;Node12 -->
<g id="edge29" class="edge">
<title>Node1&#45;&gt;Node12</title>
<path fill="none" stroke="#63b8ff" d="M345.29,-212C325.26,-188.73 289.43,-147.13 273.96,-129.16"/>
<polygon fill="#63b8ff" stroke="#63b8ff" points="342.71,-214.37 351.89,-219.66 348.02,-209.8 342.71,-214.37"/>
</g>
<!-- Node4&#45;&gt;Node3 -->
<g id="edge6" class="edge">
<title>Node4&#45;&gt;Node3</title>
<path fill="none" stroke="#63b8ff" d="M324.35,-164.5C284.69,-154.35 220.84,-138 183.14,-128.35"/>
<polygon fill="#63b8ff" stroke="#63b8ff" points="323.56,-167.91 334.12,-167 325.3,-161.13 323.56,-167.91"/>
</g>
<!-- Node5 -->
<g id="node5" class="node">
<title>Node5</title>
<g id="a_node5"><a xlink:href="convective_8cpp.html" target="_top" xlink:title="Routines used to computed derived sounding parameters from vertical atmospheric profiles.">
<polygon fill="white" stroke="#666666" points="488.5,-19 398.5,-19 398.5,0 488.5,0 488.5,-19"/>
<text text-anchor="middle" x="443.5" y="-7" font-family="Helvetica,sans-Serif" font-size="10.00">convective.cpp</text>
</a>
</g>
</g>
<!-- Node4&#45;&gt;Node5 -->
<g id="edge4" class="edge">
<title>Node4&#45;&gt;Node5</title>
<path fill="none" stroke="#63b8ff" d="M367.57,-155.33C378.16,-131.84 397.63,-89.81 416.5,-55 423.39,-42.29 432.22,-28.08 437.86,-19.22"/>
<polygon fill="#63b8ff" stroke="#63b8ff" points="364.26,-154.17 363.37,-164.73 370.65,-157.04 364.26,-154.17"/>
</g>
<!-- Node6 -->
<g id="node6" class="node">
<title>Node6</title>
<g id="a_node6"><a xlink:href="convective_8h.html" target="_top" xlink:title="Routines used to computed derived sounding parameters from vertical atmospheric profiles.">
<polygon fill="white" stroke="#666666" points="348,-19 269,-19 269,0 348,0 348,-19"/>
<text text-anchor="middle" x="308.5" y="-7" font-family="Helvetica,sans-Serif" font-size="10.00">convective.h</text>
</a>
</g>
</g>
<!-- Node4&#45;&gt;Node6 -->
<g id="edge5" class="edge">
<title>Node4&#45;&gt;Node6</title>
<path fill="none" stroke="#63b8ff" d="M353.73,-155.18C351.2,-147.15 348.2,-137.61 345.5,-129 332.61,-87.87 317.28,-38.68 311.19,-19.13"/>
<polygon fill="#63b8ff" stroke="#63b8ff" points="350.47,-156.48 356.81,-164.97 357.14,-154.38 350.47,-156.48"/>
</g>
<!-- Node4&#45;&gt;Node7 -->
<g id="edge7" class="edge">
<title>Node4&#45;&gt;Node7</title>
<path fill="none" stroke="#63b8ff" d="M394.71,-169.06C440.17,-162.59 515.66,-149.11 534.5,-129 563.82,-97.69 560.29,-40.54 557.72,-19.01"/>
<polygon fill="#63b8ff" stroke="#63b8ff" points="394.11,-165.61 384.68,-170.44 395.07,-172.54 394.11,-165.61"/>
</g>
<!-- Node4&#45;&gt;Node8 -->
<g id="edge8" class="edge">
<title>Node4&#45;&gt;Node8</title>
<path fill="none" stroke="#63b8ff" d="M373.86,-157C394.11,-133.73 430.32,-92.13 445.96,-74.16"/>
<polygon fill="#63b8ff" stroke="#63b8ff" points="371.12,-154.82 367.19,-164.66 376.4,-159.42 371.12,-154.82"/>
</g>
<!-- Node4&#45;&gt;Node9 -->
<g id="edge12" class="edge">
<title>Node4&#45;&gt;Node9</title>
<path fill="none" stroke="#63b8ff" d="M394.83,-174.49C444.19,-174.28 534.96,-168 599.5,-129 621.84,-115.5 638.11,-88.1 645.34,-74.12"/>
<polygon fill="#63b8ff" stroke="#63b8ff" points="394.68,-170.99 384.66,-174.45 394.65,-177.99 394.68,-170.99"/>
</g>
<!-- Node4&#45;&gt;Node10 -->
<g id="edge13" class="edge">
<title>Node4&#45;&gt;Node10</title>
<path fill="none" stroke="#63b8ff" d="M390.6,-161.29C415.62,-151.47 450.16,-137.91 472.42,-129.17"/>
<polygon fill="#63b8ff" stroke="#63b8ff" points="389.22,-158.07 381.19,-164.98 391.78,-164.59 389.22,-158.07"/>
</g>
<!-- Node4&#45;&gt;Node11 -->
<g id="edge19" class="edge">
<title>Node4&#45;&gt;Node11</title>
<path fill="none" stroke="#63b8ff" d="M324.33,-167.42C296.73,-161.3 258.43,-149.71 230.5,-129 210.38,-114.08 195.42,-87.8 188.59,-74.2"/>
<polygon fill="#63b8ff" stroke="#63b8ff" points="323.84,-170.89 334.34,-169.5 325.27,-164.04 323.84,-170.89"/>
</g>
<!-- Node4&#45;&gt;Node12 -->
<g id="edge20" class="edge">
<title>Node4&#45;&gt;Node12</title>
<path fill="none" stroke="#63b8ff" d="M335.75,-159.97C318.75,-150.28 296.37,-137.52 281.71,-129.17"/>
<polygon fill="#63b8ff" stroke="#63b8ff" points="334.14,-163.07 344.56,-164.98 337.6,-156.99 334.14,-163.07"/>
</g>
<!-- Node8&#45;&gt;Node5 -->
<g id="edge9" class="edge">
<title>Node8&#45;&gt;Node5</title>
<path fill="none" stroke="#63b8ff" d="M449.95,-44.66C448.3,-35.93 446.42,-25.99 445.12,-19.09"/>
<polygon fill="#63b8ff" stroke="#63b8ff" points="446.56,-45.57 451.85,-54.75 453.43,-44.27 446.56,-45.57"/>
</g>
<!-- Node8&#45;&gt;Node6 -->
<g id="edge10" class="edge">
<title>Node8&#45;&gt;Node6</title>
<path fill="none" stroke="#63b8ff" d="M420.81,-51.55C393.88,-41.71 356.34,-27.98 332.22,-19.17"/>
<polygon fill="#63b8ff" stroke="#63b8ff" points="419.61,-54.84 430.2,-54.98 422.01,-48.26 419.61,-54.84"/>
</g>
<!-- Node8&#45;&gt;Node7 -->
<g id="edge11" class="edge">
<title>Node8&#45;&gt;Node7</title>
<path fill="none" stroke="#63b8ff" d="M479.02,-50.37C497.94,-40.63 523.2,-27.64 539.65,-19.17"/>
<polygon fill="#63b8ff" stroke="#63b8ff" points="477.34,-47.3 470.05,-54.98 480.54,-53.52 477.34,-47.3"/>
</g>
<!-- Node10&#45;&gt;Node5 -->
<g id="edge14" class="edge">
<title>Node10&#45;&gt;Node5</title>
<path fill="none" stroke="#63b8ff" d="M496.83,-99.61C497.63,-86.49 497.02,-68.93 490.5,-55 483.35,-39.73 468.45,-27.08 457.33,-19.22"/>
<polygon fill="#63b8ff" stroke="#63b8ff" points="493.33,-99.51 495.88,-109.79 500.3,-100.16 493.33,-99.51"/>
</g>
<!-- Node10&#45;&gt;Node6 -->
<g id="edge15" class="edge">
<title>Node10&#45;&gt;Node6</title>
<path fill="none" stroke="#63b8ff" d="M470.32,-104.82C454.9,-96.06 434.49,-84.42 416.5,-74 383,-54.6 343.87,-31.48 323.14,-19.19"/>
<polygon fill="#63b8ff" stroke="#63b8ff" points="468.8,-107.97 479.22,-109.86 472.25,-101.88 468.8,-107.97"/>
</g>
<!-- Node10&#45;&gt;Node7 -->
<g id="edge16" class="edge">
<title>Node10&#45;&gt;Node7</title>
<path fill="none" stroke="#63b8ff" d="M504.69,-100.76C518.16,-77.28 541.39,-36.81 551.53,-19.16"/>
<polygon fill="#63b8ff" stroke="#63b8ff" points="501.52,-99.25 499.57,-109.66 507.59,-102.73 501.52,-99.25"/>
</g>
<!-- Node10&#45;&gt;Node8 -->
<g id="edge17" class="edge">
<title>Node10&#45;&gt;Node8</title>
<path fill="none" stroke="#63b8ff" d="M481.48,-101.67C474.38,-92.5 465.9,-81.52 460.14,-74.09"/>
<polygon fill="#63b8ff" stroke="#63b8ff" points="478.84,-103.98 487.73,-109.75 484.38,-99.7 478.84,-103.98"/>
</g>
<!-- Node10&#45;&gt;Node9 -->
<g id="edge18" class="edge">
<title>Node10&#45;&gt;Node9</title>
<path fill="none" stroke="#63b8ff" d="M529.1,-106.67C558,-96.79 598.53,-82.93 624.4,-74.08"/>
<polygon fill="#63b8ff" stroke="#63b8ff" points="527.73,-103.44 519.4,-109.98 530,-110.06 527.73,-103.44"/>
</g>
<!-- Node12&#45;&gt;Node5 -->
<g id="edge21" class="edge">
<title>Node12&#45;&gt;Node5</title>
<path fill="none" stroke="#63b8ff" d="M283.27,-102.94C298.66,-89.18 322.49,-69.16 345.5,-55 369.85,-40.02 400.1,-27.05 420.5,-19.04"/>
<polygon fill="#63b8ff" stroke="#63b8ff" points="280.7,-100.54 275.65,-109.86 285.41,-105.73 280.7,-100.54"/>
</g>
<!-- Node12&#45;&gt;Node6 -->
<g id="edge22" class="edge">
<title>Node12&#45;&gt;Node6</title>
<path fill="none" stroke="#63b8ff" d="M264.21,-99.81C263.37,-86.78 263.75,-69.25 269.5,-55 275.42,-40.33 288.33,-27.21 297.68,-19.08"/>
<polygon fill="#63b8ff" stroke="#63b8ff" points="260.74,-100.28 265.17,-109.9 267.71,-99.62 260.74,-100.28"/>
</g>
<!-- Node12&#45;&gt;Node11 -->
<g id="edge23" class="edge">
<title>Node12&#45;&gt;Node11</title>
<path fill="none" stroke="#63b8ff" d="M244.72,-104.42C229.84,-94.81 210.59,-82.37 197.91,-74.17"/>
<polygon fill="#63b8ff" stroke="#63b8ff" points="243.03,-107.5 253.33,-109.98 246.83,-101.62 243.03,-107.5"/>
</g>
</g>
</svg>
