<?xml version="1.0" encoding="UTF-8" standalone="no"?>
<!DOCTYPE svg PUBLIC "-//W3C//DTD SVG 1.1//EN"
 "http://www.w3.org/Graphics/SVG/1.1/DTD/svg11.dtd">
<!-- Generated by graphviz version 2.43.0 (0)
 -->
<!-- Title: interp.cpp Pages: 1 -->
<svg width="395pt" height="137pt"
 viewBox="0.00 0.00 395.00 137.00" xmlns="http://www.w3.org/2000/svg" xmlns:xlink="http://www.w3.org/1999/xlink">
<g id="graph0" class="graph" transform="scale(1 1) rotate(0) translate(4 133)">
<title>interp.cpp</title>
<!-- Node1 -->
<g id="node1" class="node">
<title>Node1</title>
<g id="a_node1"><a xlink:title="Routines for linear interpolation of vertical atmospheric profiles.">
<polygon fill="#999999" stroke="#666666" points="251,-129 186,-129 186,-110 251,-110 251,-129"/>
<text text-anchor="middle" x="218.5" y="-117" font-family="Helvetica,sans-Serif" font-size="10.00">interp.cpp</text>
</a>
</g>
</g>
<!-- Node2 -->
<g id="node2" class="node">
<title>Node2</title>
<g id="a_node2"><a xlink:href="algorithms_8h.html" target="_top" xlink:title="Various algorithms used for searching, sorting, accumulating etc.">
<polygon fill="white" stroke="#666666" points="372.5,-74 246.5,-74 246.5,-55 372.5,-55 372.5,-74"/>
<text text-anchor="middle" x="309.5" y="-62" font-family="Helvetica,sans-Serif" font-size="10.00">SHARPlib/algorithms.h</text>
</a>
</g>
</g>
<!-- Node1&#45;&gt;Node2 -->
<g id="edge1" class="edge">
<title>Node1&#45;&gt;Node2</title>
<path fill="none" stroke="#63b8ff" d="M233.12,-109.98C247.36,-101.69 269.25,-88.94 285.95,-79.22"/>
<polygon fill="#63b8ff" stroke="#63b8ff" points="287.73,-82.23 294.61,-74.17 284.21,-76.18 287.73,-82.23"/>
</g>
<!-- Node4 -->
<g id="node4" class="node">
<title>Node4</title>
<g id="a_node4"><a xlink:title=" ">
<polygon fill="#e0e0e0" stroke="#999999" points="387,-19 322,-19 322,0 387,0 387,-19"/>
<text text-anchor="middle" x="354.5" y="-7" font-family="Helvetica,sans-Serif" font-size="10.00">functional</text>
</a>
</g>
</g>
<!-- Node1&#45;&gt;Node4 -->
<g id="edge10" class="edge">
<title>Node1&#45;&gt;Node4</title>
<path fill="none" stroke="#63b8ff" d="M251.35,-114.24C294.26,-107.93 365.79,-94.57 381.5,-74 392.46,-59.65 381.15,-40.19 370,-26.6"/>
<polygon fill="#63b8ff" stroke="#63b8ff" points="372.53,-24.18 363.28,-19.01 367.29,-28.82 372.53,-24.18"/>
</g>
<!-- Node5 -->
<g id="node5" class="node">
<title>Node5</title>
<g id="a_node5"><a xlink:href="constants_8h.html" target="_top" xlink:title="Meteorological constants useful for computations with vertical atmospheric sounding profiles.">
<polygon fill="white" stroke="#666666" points="121,-19 0,-19 0,0 121,0 121,-19"/>
<text text-anchor="middle" x="60.5" y="-7" font-family="Helvetica,sans-Serif" font-size="10.00">SHARPlib/constants.h</text>
</a>
</g>
</g>
<!-- Node1&#45;&gt;Node5 -->
<g id="edge4" class="edge">
<title>Node1&#45;&gt;Node5</title>
<path fill="none" stroke="#63b8ff" d="M185.91,-116.56C154.5,-112.96 107.71,-102.76 79.5,-74 67.8,-62.07 63.26,-43.25 61.52,-29.19"/>
<polygon fill="#63b8ff" stroke="#63b8ff" points="65,-28.81 60.64,-19.16 58.03,-29.42 65,-28.81"/>
</g>
<!-- Node6 -->
<g id="node6" class="node">
<title>Node6</title>
<g id="a_node6"><a xlink:href="interp_8h.html" target="_top" xlink:title="Routines for linear interpolation of vertical atmospheric profiles.">
<polygon fill="white" stroke="#666666" points="190.5,-74 88.5,-74 88.5,-55 190.5,-55 190.5,-74"/>
<text text-anchor="middle" x="139.5" y="-62" font-family="Helvetica,sans-Serif" font-size="10.00">SHARPlib/interp.h</text>
</a>
</g>
</g>
<!-- Node1&#45;&gt;Node6 -->
<g id="edge5" class="edge">
<title>Node1&#45;&gt;Node6</title>
<path fill="none" stroke="#63b8ff" d="M205.81,-109.98C193.67,-101.84 175.14,-89.41 160.75,-79.76"/>
<polygon fill="#63b8ff" stroke="#63b8ff" points="162.68,-76.84 152.42,-74.17 158.78,-82.65 162.68,-76.84"/>
</g>
<!-- Node7 -->
<g id="node7" class="node">
<title>Node7</title>
<g id="a_node7"><a xlink:title=" ">
<polygon fill="#e0e0e0" stroke="#999999" points="186,-19 139,-19 139,0 186,0 186,-19"/>
<text text-anchor="middle" x="162.5" y="-7" font-family="Helvetica,sans-Serif" font-size="10.00">cmath</text>
</a>
</g>
</g>
<!-- Node1&#45;&gt;Node7 -->
<g id="edge9" class="edge">
<title>Node1&#45;&gt;Node7</title>
<path fill="none" stroke="#63b8ff" d="M217.06,-109.86C214.7,-97.23 209.29,-73.25 199.5,-55 194,-44.75 185.91,-34.67 178.69,-26.7"/>
<polygon fill="#63b8ff" stroke="#63b8ff" points="181.05,-24.1 171.64,-19.24 175.97,-28.91 181.05,-24.1"/>
</g>
<!-- Node3 -->
<g id="node3" class="node">
<title>Node3</title>
<g id="a_node3"><a xlink:title=" ">
<polygon fill="#e0e0e0" stroke="#999999" points="258,-19 205,-19 205,0 258,0 258,-19"/>
<text text-anchor="middle" x="231.5" y="-7" font-family="Helvetica,sans-Serif" font-size="10.00">cstddef</text>
</a>
</g>
</g>
<!-- Node2&#45;&gt;Node3 -->
<g id="edge2" class="edge">
<title>Node2&#45;&gt;Node3</title>
<path fill="none" stroke="#63b8ff" d="M296.97,-54.98C285.1,-46.92 267.04,-34.65 252.89,-25.03"/>
<polygon fill="#63b8ff" stroke="#63b8ff" points="254.5,-21.9 244.26,-19.17 250.56,-27.69 254.5,-21.9"/>
</g>
<!-- Node2&#45;&gt;Node4 -->
<g id="edge3" class="edge">
<title>Node2&#45;&gt;Node4</title>
<path fill="none" stroke="#63b8ff" d="M316.93,-54.75C323.35,-47.18 332.81,-36.05 340.62,-26.84"/>
<polygon fill="#63b8ff" stroke="#63b8ff" points="343.4,-28.98 347.21,-19.09 338.07,-24.45 343.4,-28.98"/>
</g>
<!-- Node6&#45;&gt;Node3 -->
<g id="edge8" class="edge">
<title>Node6&#45;&gt;Node3</title>
<path fill="none" stroke="#63b8ff" d="M154.28,-54.98C168.68,-46.69 190.81,-33.94 207.69,-24.22"/>
<polygon fill="#63b8ff" stroke="#63b8ff" points="209.53,-27.19 216.45,-19.17 206.04,-21.13 209.53,-27.19"/>
</g>
<!-- Node6&#45;&gt;Node5 -->
<g id="edge6" class="edge">
<title>Node6&#45;&gt;Node5</title>
<path fill="none" stroke="#63b8ff" d="M126.81,-54.98C114.67,-46.84 96.14,-34.41 81.75,-24.76"/>
<polygon fill="#63b8ff" stroke="#63b8ff" points="83.68,-21.84 73.42,-19.17 79.78,-27.65 83.68,-21.84"/>
</g>
<!-- Node6&#45;&gt;Node7 -->
<g id="edge7" class="edge">
<title>Node6&#45;&gt;Node7</title>
<path fill="none" stroke="#63b8ff" d="M143.3,-54.75C146.41,-47.57 150.92,-37.18 154.79,-28.27"/>
<polygon fill="#63b8ff" stroke="#63b8ff" points="158,-29.66 158.77,-19.09 151.58,-26.87 158,-29.66"/>
</g>
</g>
</svg>
