<?xml version="1.0" encoding="UTF-8" standalone="no"?>
<!DOCTYPE svg PUBLIC "-//W3C//DTD SVG 1.1//EN"
 "http://www.w3.org/Graphics/SVG/1.1/DTD/svg11.dtd">
<!-- Generated by graphviz version 2.43.0 (0)
 -->
<!-- Title: interp.h Pages: 1 -->
<svg width="1014pt" height="302pt"
 viewBox="0.00 0.00 1014.32 302.00" xmlns="http://www.w3.org/2000/svg" xmlns:xlink="http://www.w3.org/1999/xlink">
<g id="graph0" class="graph" transform="scale(1 1) rotate(0) translate(4 298)">
<title>interp.h</title>
<!-- Node1 -->
<g id="node1" class="node">
<title>Node1</title>
<g id="a_node1"><a xlink:title="Routines for linear interpolation of vertical atmospheric profiles.">
<polygon fill="#999999" stroke="#666666" points="505.5,-294 451.5,-294 451.5,-275 505.5,-275 505.5,-294"/>
<text text-anchor="middle" x="478.5" y="-282" font-family="Helvetica,sans-Serif" font-size="10.00">interp.h</text>
</a>
</g>
</g>
<!-- Node2 -->
<g id="node2" class="node">
<title>Node2</title>
<g id="a_node2"><a xlink:href="interp_8cpp.html" target="_top" xlink:title="Routines for linear interpolation of vertical atmospheric profiles.">
<polygon fill="white" stroke="#666666" points="65,-239 0,-239 0,-220 65,-220 65,-239"/>
<text text-anchor="middle" x="32.5" y="-227" font-family="Helvetica,sans-Serif" font-size="10.00">interp.cpp</text>
</a>
</g>
</g>
<!-- Node1&#45;&gt;Node2 -->
<g id="edge1" class="edge">
<title>Node1&#45;&gt;Node2</title>
<path fill="none" stroke="#63b8ff" d="M441.06,-280.58C369.41,-274.74 208.07,-260.29 73.5,-239 70.77,-238.57 67.95,-238.08 65.12,-237.55"/>
<polygon fill="#63b8ff" stroke="#63b8ff" points="441.12,-284.1 451.37,-281.41 441.68,-277.12 441.12,-284.1"/>
</g>
<!-- Node3 -->
<g id="node3" class="node">
<title>Node3</title>
<g id="a_node3"><a xlink:href="interp__wrap_8cpp.html" target="_top" xlink:title=" ">
<polygon fill="white" stroke="#666666" points="178,-239 83,-239 83,-220 178,-220 178,-239"/>
<text text-anchor="middle" x="130.5" y="-227" font-family="Helvetica,sans-Serif" font-size="10.00">interp_wrap.cpp</text>
</a>
</g>
</g>
<!-- Node1&#45;&gt;Node3 -->
<g id="edge2" class="edge">
<title>Node1&#45;&gt;Node3</title>
<path fill="none" stroke="#63b8ff" d="M441.51,-277.87C378.01,-268.2 248.32,-248.44 178.14,-237.76"/>
<polygon fill="#63b8ff" stroke="#63b8ff" points="441.07,-281.34 451.48,-279.39 442.12,-274.42 441.07,-281.34"/>
</g>
<!-- Node4 -->
<g id="node4" class="node">
<title>Node4</title>
<g id="a_node4"><a xlink:href="layer_8cpp.html" target="_top" xlink:title="Utilities and structures useful for grouping objects, conducting QC, and things that otherwise don&#39;t ...">
<polygon fill="white" stroke="#666666" points="296,-184 235,-184 235,-165 296,-165 296,-184"/>
<text text-anchor="middle" x="265.5" y="-172" font-family="Helvetica,sans-Serif" font-size="10.00">layer.cpp</text>
</a>
</g>
</g>
<!-- Node1&#45;&gt;Node4 -->
<g id="edge3" class="edge">
<title>Node1&#45;&gt;Node4</title>
<path fill="none" stroke="#63b8ff" d="M452.44,-270.28C408.15,-247.83 319.41,-202.83 282.36,-184.05"/>
<polygon fill="#63b8ff" stroke="#63b8ff" points="450.93,-273.44 461.43,-274.84 454.09,-267.2 450.93,-273.44"/>
</g>
<!-- Node5 -->
<g id="node5" class="node">
<title>Node5</title>
<g id="a_node5"><a xlink:href="layer_8h.html" target="_top" xlink:title="Data structures and functions for performing operations over atmospheric layers.">
<polygon fill="white" stroke="#666666" points="540.5,-239 490.5,-239 490.5,-220 540.5,-220 540.5,-239"/>
<text text-anchor="middle" x="515.5" y="-227" font-family="Helvetica,sans-Serif" font-size="10.00">layer.h</text>
</a>
</g>
</g>
<!-- Node1&#45;&gt;Node5 -->
<g id="edge4" class="edge">
<title>Node1&#45;&gt;Node5</title>
<path fill="none" stroke="#63b8ff" d="M490.45,-266.39C496.81,-257.27 504.37,-246.45 509.5,-239.09"/>
<polygon fill="#63b8ff" stroke="#63b8ff" points="487.46,-264.55 484.61,-274.75 493.2,-268.55 487.46,-264.55"/>
</g>
<!-- Node10 -->
<g id="node10" class="node">
<title>Node10</title>
<g id="a_node10"><a xlink:href="parcel_8cpp.html" target="_top" xlink:title="Routines used for parcel lifting and integration.">
<polygon fill="white" stroke="#666666" points="745,-74 678,-74 678,-55 745,-55 745,-74"/>
<text text-anchor="middle" x="711.5" y="-62" font-family="Helvetica,sans-Serif" font-size="10.00">parcel.cpp</text>
</a>
</g>
</g>
<!-- Node1&#45;&gt;Node10 -->
<g id="edge30" class="edge">
<title>Node1&#45;&gt;Node10</title>
<path fill="none" stroke="#63b8ff" d="M515.78,-280.91C572.53,-276.3 683.58,-264.63 774.5,-239 834.88,-221.98 848.17,-211.62 904.5,-184 949.35,-162.01 977.26,-172.1 1002.5,-129 1006.77,-121.71 1008,-116.41 1002.5,-110 969.66,-71.76 814.67,-66.03 745.26,-65.41"/>
<polygon fill="#63b8ff" stroke="#63b8ff" points="515.2,-277.44 505.51,-281.72 515.75,-284.42 515.2,-277.44"/>
</g>
<!-- Node11 -->
<g id="node11" class="node">
<title>Node11</title>
<g id="a_node11"><a xlink:href="parcel_8h.html" target="_top" xlink:title="Routines used for parcel lifting and integration.">
<polygon fill="white" stroke="#666666" points="358.5,-129 302.5,-129 302.5,-110 358.5,-110 358.5,-129"/>
<text text-anchor="middle" x="330.5" y="-117" font-family="Helvetica,sans-Serif" font-size="10.00">parcel.h</text>
</a>
</g>
</g>
<!-- Node1&#45;&gt;Node11 -->
<g id="edge31" class="edge">
<title>Node1&#45;&gt;Node11</title>
<path fill="none" stroke="#63b8ff" d="M441.25,-281.47C383.52,-276.07 274.12,-256.29 226.5,-184 205.67,-152.38 264.82,-133.93 302.28,-125.7"/>
<polygon fill="#63b8ff" stroke="#63b8ff" points="441.15,-284.97 451.4,-282.32 441.73,-278 441.15,-284.97"/>
</g>
<!-- Node13 -->
<g id="node13" class="node">
<title>Node13</title>
<g id="a_node13"><a xlink:href="thermo_8cpp.html" target="_top" xlink:title="Thermodynamic routines that do not directly involve parcel based ascent.">
<polygon fill="white" stroke="#666666" points="682.5,-129 610.5,-129 610.5,-110 682.5,-110 682.5,-129"/>
<text text-anchor="middle" x="646.5" y="-117" font-family="Helvetica,sans-Serif" font-size="10.00">thermo.cpp</text>
</a>
</g>
</g>
<!-- Node1&#45;&gt;Node13 -->
<g id="edge32" class="edge">
<title>Node1&#45;&gt;Node13</title>
<path fill="none" stroke="#63b8ff" d="M508.69,-270.72C542.09,-255.06 595.18,-225.42 625.5,-184 637.98,-166.95 643.33,-142.05 645.38,-129.08"/>
<polygon fill="#63b8ff" stroke="#63b8ff" points="507.07,-267.61 499.42,-274.94 509.97,-273.98 507.07,-267.61"/>
</g>
<!-- Node14 -->
<g id="node14" class="node">
<title>Node14</title>
<g id="a_node14"><a xlink:href="thermo_8h.html" target="_top" xlink:title="Routines used to compute thermodynamic attributes of vertical sounding profiles.">
<polygon fill="white" stroke="#666666" points="452,-184 391,-184 391,-165 452,-165 452,-184"/>
<text text-anchor="middle" x="421.5" y="-172" font-family="Helvetica,sans-Serif" font-size="10.00">thermo.h</text>
</a>
</g>
</g>
<!-- Node1&#45;&gt;Node14 -->
<g id="edge33" class="edge">
<title>Node1&#45;&gt;Node14</title>
<path fill="none" stroke="#63b8ff" d="M469.14,-265.76C456.75,-242.28 435.39,-201.81 426.07,-184.16"/>
<polygon fill="#63b8ff" stroke="#63b8ff" points="466.07,-267.45 473.84,-274.66 472.26,-264.18 466.07,-267.45"/>
</g>
<!-- Node16 -->
<g id="node16" class="node">
<title>Node16</title>
<g id="a_node16"><a xlink:href="winds_8cpp.html" target="_top" xlink:title="Routines used to compute kinematic attributes and indices of vertical sounding profiles.">
<polygon fill="white" stroke="#666666" points="993,-129 928,-129 928,-110 993,-110 993,-129"/>
<text text-anchor="middle" x="960.5" y="-117" font-family="Helvetica,sans-Serif" font-size="10.00">winds.cpp</text>
</a>
</g>
</g>
<!-- Node1&#45;&gt;Node16 -->
<g id="edge34" class="edge">
<title>Node1&#45;&gt;Node16</title>
<path fill="none" stroke="#63b8ff" d="M515.67,-280.13C588.52,-272.28 753.6,-248.3 875.5,-184 905.32,-168.27 935.94,-142.58 950.98,-129.21"/>
<polygon fill="#63b8ff" stroke="#63b8ff" points="515.19,-276.66 505.61,-281.17 515.91,-283.62 515.19,-276.66"/>
</g>
<!-- Node17 -->
<g id="node17" class="node">
<title>Node17</title>
<g id="a_node17"><a xlink:href="winds_8h.html" target="_top" xlink:title="Routines used to compute kinematic attributes and indices of vertical sounding profiles.">
<polygon fill="white" stroke="#666666" points="830.5,-184 776.5,-184 776.5,-165 830.5,-165 830.5,-184"/>
<text text-anchor="middle" x="803.5" y="-172" font-family="Helvetica,sans-Serif" font-size="10.00">winds.h</text>
</a>
</g>
</g>
<!-- Node1&#45;&gt;Node17 -->
<g id="edge35" class="edge">
<title>Node1&#45;&gt;Node17</title>
<path fill="none" stroke="#63b8ff" d="M515.85,-278.16C556.83,-271.64 624.13,-258.94 679.5,-239 721.37,-223.93 767.11,-197.72 789.53,-184.17"/>
<polygon fill="#63b8ff" stroke="#63b8ff" points="515.12,-274.73 505.78,-279.73 516.2,-281.65 515.12,-274.73"/>
</g>
<!-- Node5&#45;&gt;Node4 -->
<g id="edge8" class="edge">
<title>Node5&#45;&gt;Node4</title>
<path fill="none" stroke="#63b8ff" d="M480.3,-221.04C431.21,-210.63 342.99,-191.93 296.35,-182.04"/>
<polygon fill="#63b8ff" stroke="#63b8ff" points="479.64,-224.48 490.15,-223.13 481.1,-217.63 479.64,-224.48"/>
</g>
<!-- Node6 -->
<g id="node6" class="node">
<title>Node6</title>
<g id="a_node6"><a xlink:href="convective_8cpp.html" target="_top" xlink:title="Routines used to computed derived sounding parameters from vertical atmospheric profiles.">
<polygon fill="white" stroke="#666666" points="587.5,-74 497.5,-74 497.5,-55 587.5,-55 587.5,-74"/>
<text text-anchor="middle" x="542.5" y="-62" font-family="Helvetica,sans-Serif" font-size="10.00">convective.cpp</text>
</a>
</g>
</g>
<!-- Node5&#45;&gt;Node6 -->
<g id="edge5" class="edge">
<title>Node5&#45;&gt;Node6</title>
<path fill="none" stroke="#63b8ff" d="M541.58,-214.51C552.66,-207.06 564.41,-196.77 570.5,-184 588.8,-145.65 561.1,-94.47 548.36,-74.25"/>
<polygon fill="#63b8ff" stroke="#63b8ff" points="539.6,-211.62 532.96,-219.88 543.3,-217.57 539.6,-211.62"/>
</g>
<!-- Node7 -->
<g id="node7" class="node">
<title>Node7</title>
<g id="a_node7"><a xlink:href="convective_8h.html" target="_top" xlink:title="Routines used to computed derived sounding parameters from vertical atmospheric profiles.">
<polygon fill="white" stroke="#666666" points="314,-74 235,-74 235,-55 314,-55 314,-74"/>
<text text-anchor="middle" x="274.5" y="-62" font-family="Helvetica,sans-Serif" font-size="10.00">convective.h</text>
</a>
</g>
</g>
<!-- Node5&#45;&gt;Node7 -->
<g id="edge6" class="edge">
<title>Node5&#45;&gt;Node7</title>
<path fill="none" stroke="#63b8ff" d="M480.22,-222.03C447.4,-215.21 397.66,-202.83 357.5,-184 318.43,-165.68 298.48,-166.7 277.5,-129 267.84,-111.64 270.28,-87.3 272.58,-74.38"/>
<polygon fill="#63b8ff" stroke="#63b8ff" points="479.75,-225.5 490.24,-224.05 481.13,-218.64 479.75,-225.5"/>
</g>
<!-- Node9 -->
<g id="node9" class="node">
<title>Node9</title>
<g id="a_node9"><a xlink:href="layer__wrap_8cpp.html" target="_top" xlink:title=" ">
<polygon fill="white" stroke="#666666" points="561,-184 470,-184 470,-165 561,-165 561,-184"/>
<text text-anchor="middle" x="515.5" y="-172" font-family="Helvetica,sans-Serif" font-size="10.00">layer_wrap.cpp</text>
</a>
</g>
</g>
<!-- Node5&#45;&gt;Node9 -->
<g id="edge9" class="edge">
<title>Node5&#45;&gt;Node9</title>
<path fill="none" stroke="#63b8ff" d="M515.5,-209.66C515.5,-200.93 515.5,-190.99 515.5,-184.09"/>
<polygon fill="#63b8ff" stroke="#63b8ff" points="512,-209.75 515.5,-219.75 519,-209.75 512,-209.75"/>
</g>
<!-- Node5&#45;&gt;Node10 -->
<g id="edge10" class="edge">
<title>Node5&#45;&gt;Node10</title>
<path fill="none" stroke="#63b8ff" d="M550.17,-219.24C591.21,-206.32 658.18,-178.69 691.5,-129 703.09,-111.72 708.27,-87.35 710.32,-74.4"/>
<polygon fill="#63b8ff" stroke="#63b8ff" points="549.14,-215.89 540.58,-222.14 551.16,-222.6 549.14,-215.89"/>
</g>
<!-- Node5&#45;&gt;Node11 -->
<g id="edge11" class="edge">
<title>Node5&#45;&gt;Node11</title>
<path fill="none" stroke="#63b8ff" d="M480.46,-222.38C452.14,-216.18 412.22,-204.5 382.5,-184 360.92,-169.11 343.5,-142.82 335.4,-129.21"/>
<polygon fill="#63b8ff" stroke="#63b8ff" points="479.83,-225.83 490.34,-224.43 481.25,-218.97 479.83,-225.83"/>
</g>
<!-- Node5&#45;&gt;Node13 -->
<g id="edge16" class="edge">
<title>Node5&#45;&gt;Node13</title>
<path fill="none" stroke="#63b8ff" d="M549.56,-216.09C566.99,-208.62 587.78,-197.84 603.5,-184 621.69,-167.99 635.75,-142.65 642.36,-129.34"/>
<polygon fill="#63b8ff" stroke="#63b8ff" points="548.2,-212.87 540.28,-219.91 550.86,-219.34 548.2,-212.87"/>
</g>
<!-- Node5&#45;&gt;Node14 -->
<g id="edge17" class="edge">
<title>Node5&#45;&gt;Node14</title>
<path fill="none" stroke="#63b8ff" d="M491.5,-214.97C474.31,-205.28 451.69,-192.52 436.88,-184.17"/>
<polygon fill="#63b8ff" stroke="#63b8ff" points="489.97,-218.12 500.4,-219.98 493.41,-212.02 489.97,-218.12"/>
</g>
<!-- Node5&#45;&gt;Node16 -->
<g id="edge24" class="edge">
<title>Node5&#45;&gt;Node16</title>
<path fill="none" stroke="#63b8ff" d="M550.68,-227.63C611.13,-225.27 737.99,-216.5 839.5,-184 881.52,-170.54 926.36,-143.12 947.73,-129.13"/>
<polygon fill="#63b8ff" stroke="#63b8ff" points="550.4,-224.14 540.53,-227.99 550.65,-231.13 550.4,-224.14"/>
</g>
<!-- Node5&#45;&gt;Node17 -->
<g id="edge25" class="edge">
<title>Node5&#45;&gt;Node17</title>
<path fill="none" stroke="#63b8ff" d="M550.67,-222.46C598.62,-214.16 687.18,-198.59 762.5,-184 766.92,-183.14 771.61,-182.2 776.17,-181.27"/>
<polygon fill="#63b8ff" stroke="#63b8ff" points="550.04,-219.02 540.79,-224.17 551.24,-225.92 550.04,-219.02"/>
</g>
<!-- Node8 -->
<g id="node8" class="node">
<title>Node8</title>
<g id="a_node8"><a xlink:href="convective__wrap_8cpp.html" target="_top" xlink:title=" ">
<polygon fill="white" stroke="#666666" points="334,-19 215,-19 215,0 334,0 334,-19"/>
<text text-anchor="middle" x="274.5" y="-7" font-family="Helvetica,sans-Serif" font-size="10.00">convective_wrap.cpp</text>
</a>
</g>
</g>
<!-- Node7&#45;&gt;Node8 -->
<g id="edge7" class="edge">
<title>Node7&#45;&gt;Node8</title>
<path fill="none" stroke="#63b8ff" d="M274.5,-44.66C274.5,-35.93 274.5,-25.99 274.5,-19.09"/>
<polygon fill="#63b8ff" stroke="#63b8ff" points="271,-44.75 274.5,-54.75 278,-44.75 271,-44.75"/>
</g>
<!-- Node11&#45;&gt;Node6 -->
<g id="edge12" class="edge">
<title>Node11&#45;&gt;Node6</title>
<path fill="none" stroke="#63b8ff" d="M368.49,-109C408.22,-99.07 470,-83.63 508.26,-74.06"/>
<polygon fill="#63b8ff" stroke="#63b8ff" points="367.5,-105.64 358.65,-111.46 369.2,-112.43 367.5,-105.64"/>
</g>
<!-- Node11&#45;&gt;Node7 -->
<g id="edge13" class="edge">
<title>Node11&#45;&gt;Node7</title>
<path fill="none" stroke="#63b8ff" d="M314.17,-103.04C304.24,-93.64 291.91,-81.98 283.66,-74.17"/>
<polygon fill="#63b8ff" stroke="#63b8ff" points="311.83,-105.65 321.5,-109.98 316.65,-100.57 311.83,-105.65"/>
</g>
<!-- Node11&#45;&gt;Node10 -->
<g id="edge14" class="edge">
<title>Node11&#45;&gt;Node10</title>
<path fill="none" stroke="#63b8ff" d="M368.2,-110.05C368.3,-110.04 368.4,-110.02 368.5,-110 481.15,-90.14 616.08,-75.19 677.75,-68.85"/>
<polygon fill="#63b8ff" stroke="#63b8ff" points="367.82,-106.56 358.66,-111.9 369.15,-113.43 367.82,-106.56"/>
</g>
<!-- Node12 -->
<g id="node12" class="node">
<title>Node12</title>
<g id="a_node12"><a xlink:href="parcel__wrap_8cpp.html" target="_top" xlink:title=" ">
<polygon fill="white" stroke="#666666" points="428.5,-74 332.5,-74 332.5,-55 428.5,-55 428.5,-74"/>
<text text-anchor="middle" x="380.5" y="-62" font-family="Helvetica,sans-Serif" font-size="10.00">parcel_wrap.cpp</text>
</a>
</g>
</g>
<!-- Node11&#45;&gt;Node12 -->
<g id="edge15" class="edge">
<title>Node11&#45;&gt;Node12</title>
<path fill="none" stroke="#63b8ff" d="M345.84,-102.24C354.6,-92.95 365.24,-81.68 372.4,-74.09"/>
<polygon fill="#63b8ff" stroke="#63b8ff" points="343.07,-100.07 338.76,-109.75 348.16,-104.88 343.07,-100.07"/>
</g>
<!-- Node14&#45;&gt;Node6 -->
<g id="edge18" class="edge">
<title>Node14&#45;&gt;Node6</title>
<path fill="none" stroke="#63b8ff" d="M445.34,-159.57C458.4,-151.43 474.52,-140.51 487.5,-129 507.15,-111.59 526.36,-87.27 536.03,-74.36"/>
<polygon fill="#63b8ff" stroke="#63b8ff" points="443.18,-156.79 436.46,-164.98 446.82,-162.77 443.18,-156.79"/>
</g>
<!-- Node14&#45;&gt;Node7 -->
<g id="edge19" class="edge">
<title>Node14&#45;&gt;Node7</title>
<path fill="none" stroke="#63b8ff" d="M380.93,-169.11C352.79,-163.99 316.39,-152.92 293.5,-129 278.86,-113.7 275.45,-87.59 274.69,-74.11"/>
<polygon fill="#63b8ff" stroke="#63b8ff" points="380.45,-172.57 390.89,-170.74 381.58,-165.67 380.45,-172.57"/>
</g>
<!-- Node14&#45;&gt;Node10 -->
<g id="edge20" class="edge">
<title>Node14&#45;&gt;Node10</title>
<path fill="none" stroke="#63b8ff" d="M454.37,-161.26C513.72,-139.15 637.37,-93.11 688.55,-74.05"/>
<polygon fill="#63b8ff" stroke="#63b8ff" points="452.89,-158.07 444.74,-164.84 455.33,-164.63 452.89,-158.07"/>
</g>
<!-- Node14&#45;&gt;Node11 -->
<g id="edge21" class="edge">
<title>Node14&#45;&gt;Node11</title>
<path fill="none" stroke="#63b8ff" d="M397.8,-159.7C381.22,-150.04 359.59,-137.44 345.39,-129.17"/>
<polygon fill="#63b8ff" stroke="#63b8ff" points="396.48,-162.98 406.88,-164.98 400,-156.93 396.48,-162.98"/>
</g>
<!-- Node14&#45;&gt;Node13 -->
<g id="edge22" class="edge">
<title>Node14&#45;&gt;Node13</title>
<path fill="none" stroke="#63b8ff" d="M462.27,-163.9C504.56,-153.93 570.05,-138.51 610.49,-128.98"/>
<polygon fill="#63b8ff" stroke="#63b8ff" points="461.24,-160.54 452.31,-166.24 462.85,-167.36 461.24,-160.54"/>
</g>
<!-- Node15 -->
<g id="node15" class="node">
<title>Node15</title>
<g id="a_node15"><a xlink:href="thermo__wrap_8cpp.html" target="_top" xlink:title=" ">
<polygon fill="white" stroke="#666666" points="478,-129 377,-129 377,-110 478,-110 478,-129"/>
<text text-anchor="middle" x="427.5" y="-117" font-family="Helvetica,sans-Serif" font-size="10.00">thermo_wrap.cpp</text>
</a>
</g>
</g>
<!-- Node14&#45;&gt;Node15 -->
<g id="edge23" class="edge">
<title>Node14&#45;&gt;Node15</title>
<path fill="none" stroke="#63b8ff" d="M423.63,-154.66C424.62,-145.93 425.75,-135.99 426.53,-129.09"/>
<polygon fill="#63b8ff" stroke="#63b8ff" points="420.14,-154.42 422.49,-164.75 427.09,-155.21 420.14,-154.42"/>
</g>
<!-- Node17&#45;&gt;Node6 -->
<g id="edge26" class="edge">
<title>Node17&#45;&gt;Node6</title>
<path fill="none" stroke="#63b8ff" d="M787.81,-157.35C772.84,-142.87 749,-122.09 724.5,-110 680.75,-88.41 625.78,-76.84 587.77,-70.96"/>
<polygon fill="#63b8ff" stroke="#63b8ff" points="785.6,-160.09 795.16,-164.66 790.53,-155.13 785.6,-160.09"/>
</g>
<!-- Node17&#45;&gt;Node7 -->
<g id="edge27" class="edge">
<title>Node17&#45;&gt;Node7</title>
<path fill="none" stroke="#63b8ff" d="M779.03,-159.79C763.41,-151.02 742.74,-139.39 724.5,-129 709.79,-120.62 707.62,-115.16 691.5,-110 534.99,-59.87 486.35,-96.06 323.5,-74 320.42,-73.58 317.24,-73.11 314.04,-72.62"/>
<polygon fill="#63b8ff" stroke="#63b8ff" points="777.6,-163.01 788.04,-164.85 781.03,-156.9 777.6,-163.01"/>
</g>
<!-- Node17&#45;&gt;Node16 -->
<g id="edge28" class="edge">
<title>Node17&#45;&gt;Node16</title>
<path fill="none" stroke="#63b8ff" d="M838.55,-161.67C867.82,-151.79 908.87,-137.93 935.08,-129.08"/>
<polygon fill="#63b8ff" stroke="#63b8ff" points="837.08,-158.47 828.72,-164.98 839.32,-165.1 837.08,-158.47"/>
</g>
<!-- Node18 -->
<g id="node18" class="node">
<title>Node18</title>
<g id="a_node18"><a xlink:href="winds__wrap_8cpp.html" target="_top" xlink:title=" ">
<polygon fill="white" stroke="#666666" points="910,-129 815,-129 815,-110 910,-110 910,-129"/>
<text text-anchor="middle" x="862.5" y="-117" font-family="Helvetica,sans-Serif" font-size="10.00">winds_wrap.cpp</text>
</a>
</g>
</g>
<!-- Node17&#45;&gt;Node18 -->
<g id="edge29" class="edge">
<title>Node17&#45;&gt;Node18</title>
<path fill="none" stroke="#63b8ff" d="M820.7,-158.04C831.17,-148.64 844.15,-136.98 852.85,-129.17"/>
<polygon fill="#63b8ff" stroke="#63b8ff" points="818.08,-155.7 812.98,-164.98 822.76,-160.91 818.08,-155.7"/>
</g>
</g>
</svg>
