<?xml version="1.0" encoding="UTF-8" standalone="no"?>
<!DOCTYPE svg PUBLIC "-//W3C//DTD SVG 1.1//EN"
 "http://www.w3.org/Graphics/SVG/1.1/DTD/svg11.dtd">
<!-- Generated by graphviz version 2.43.0 (0)
 -->
<!-- Title: interp.cpp Pages: 1 -->
<svg width="427pt" height="137pt"
 viewBox="0.00 0.00 427.00 137.00" xmlns="http://www.w3.org/2000/svg" xmlns:xlink="http://www.w3.org/1999/xlink">
<g id="graph0" class="graph" transform="scale(1 1) rotate(0) translate(4 133)">
<title>interp.cpp</title>
<!-- Node1 -->
<g id="node1" class="node">
<title>Node1</title>
<g id="a_node1"><a xlink:title="Routines for linear interpolation of vertical atmospheric profiles.">
<polygon fill="#999999" stroke="#666666" points="264,-129 199,-129 199,-110 264,-110 264,-129"/>
<text text-anchor="middle" x="231.5" y="-117" font-family="Helvetica,sans-Serif" font-size="10.00">interp.cpp</text>
</a>
</g>
</g>
<!-- Node2 -->
<g id="node2" class="node">
<title>Node2</title>
<g id="a_node2"><a xlink:href="algorithms_8h.html" target="_top" xlink:title="Various algorithms used for searching, sorting, accumulating etc.">
<polygon fill="white" stroke="#666666" points="404.5,-74 278.5,-74 278.5,-55 404.5,-55 404.5,-74"/>
<text text-anchor="middle" x="341.5" y="-62" font-family="Helvetica,sans-Serif" font-size="10.00">SHARPlib/algorithms.h</text>
</a>
</g>
</g>
<!-- Node1&#45;&gt;Node2 -->
<g id="edge1" class="edge">
<title>Node1&#45;&gt;Node2</title>
<path fill="none" stroke="#63b8ff" d="M249.17,-109.98C266.79,-101.5 294.08,-88.35 314.43,-78.54"/>
<polygon fill="#63b8ff" stroke="#63b8ff" points="316.02,-81.66 323.51,-74.17 312.98,-75.36 316.02,-81.66"/>
</g>
<!-- Node3 -->
<g id="node3" class="node">
<title>Node3</title>
<g id="a_node3"><a xlink:title=" ">
<polygon fill="#e0e0e0" stroke="#999999" points="277,-19 224,-19 224,0 277,0 277,-19"/>
<text text-anchor="middle" x="250.5" y="-7" font-family="Helvetica,sans-Serif" font-size="10.00">cstddef</text>
</a>
</g>
</g>
<!-- Node1&#45;&gt;Node3 -->
<g id="edge10" class="edge">
<title>Node1&#45;&gt;Node3</title>
<path fill="none" stroke="#63b8ff" d="M233.05,-109.66C236.13,-92.17 243.06,-52.8 247.2,-29.27"/>
<polygon fill="#63b8ff" stroke="#63b8ff" points="250.69,-29.61 248.98,-19.16 243.8,-28.4 250.69,-29.61"/>
</g>
<!-- Node4 -->
<g id="node4" class="node">
<title>Node4</title>
<g id="a_node4"><a xlink:title=" ">
<polygon fill="#e0e0e0" stroke="#999999" points="419,-19 354,-19 354,0 419,0 419,-19"/>
<text text-anchor="middle" x="386.5" y="-7" font-family="Helvetica,sans-Serif" font-size="10.00">functional</text>
</a>
</g>
</g>
<!-- Node1&#45;&gt;Node4 -->
<g id="edge11" class="edge">
<title>Node1&#45;&gt;Node4</title>
<path fill="none" stroke="#63b8ff" d="M264.14,-115.29C311.41,-109.88 395.27,-97.22 413.5,-74 424.65,-59.8 413.31,-40.31 402.1,-26.68"/>
<polygon fill="#63b8ff" stroke="#63b8ff" points="404.59,-24.21 395.34,-19.05 399.35,-28.86 404.59,-24.21"/>
</g>
<!-- Node5 -->
<g id="node5" class="node">
<title>Node5</title>
<g id="a_node5"><a xlink:href="constants_8h.html" target="_top" xlink:title="Meteorological constants useful for computations with vertical atmospheric sounding profiles.">
<polygon fill="white" stroke="#666666" points="121,-19 0,-19 0,0 121,0 121,-19"/>
<text text-anchor="middle" x="60.5" y="-7" font-family="Helvetica,sans-Serif" font-size="10.00">SHARPlib/constants.h</text>
</a>
</g>
</g>
<!-- Node1&#45;&gt;Node5 -->
<g id="edge4" class="edge">
<title>Node1&#45;&gt;Node5</title>
<path fill="none" stroke="#63b8ff" d="M198.92,-118.73C162.93,-117.12 105.81,-108.75 73.5,-74 62.37,-62.04 59.69,-43.22 59.44,-29.17"/>
<polygon fill="#63b8ff" stroke="#63b8ff" points="62.94,-29.22 59.66,-19.15 55.95,-29.07 62.94,-29.22"/>
</g>
<!-- Node6 -->
<g id="node6" class="node">
<title>Node6</title>
<g id="a_node6"><a xlink:href="interp_8h.html" target="_top" xlink:title="Routines for linear interpolation of vertical atmospheric profiles.">
<polygon fill="white" stroke="#666666" points="184.5,-74 82.5,-74 82.5,-55 184.5,-55 184.5,-74"/>
<text text-anchor="middle" x="133.5" y="-62" font-family="Helvetica,sans-Serif" font-size="10.00">SHARPlib/interp.h</text>
</a>
</g>
</g>
<!-- Node1&#45;&gt;Node6 -->
<g id="edge5" class="edge">
<title>Node1&#45;&gt;Node6</title>
<path fill="none" stroke="#63b8ff" d="M215.75,-109.98C200.27,-101.61 176.41,-88.7 158.36,-78.95"/>
<polygon fill="#63b8ff" stroke="#63b8ff" points="159.99,-75.85 149.53,-74.17 156.66,-82.01 159.99,-75.85"/>
</g>
<!-- Node7 -->
<g id="node7" class="node">
<title>Node7</title>
<g id="a_node7"><a xlink:title=" ">
<polygon fill="#e0e0e0" stroke="#999999" points="199,-19 152,-19 152,0 199,0 199,-19"/>
<text text-anchor="middle" x="175.5" y="-7" font-family="Helvetica,sans-Serif" font-size="10.00">cmath</text>
</a>
</g>
</g>
<!-- Node1&#45;&gt;Node7 -->
<g id="edge9" class="edge">
<title>Node1&#45;&gt;Node7</title>
<path fill="none" stroke="#63b8ff" d="M226.92,-109.66C217.72,-91.93 196.88,-51.73 184.74,-28.32"/>
<polygon fill="#63b8ff" stroke="#63b8ff" points="187.7,-26.42 179.99,-19.16 181.49,-29.65 187.7,-26.42"/>
</g>
<!-- Node2&#45;&gt;Node3 -->
<g id="edge2" class="edge">
<title>Node2&#45;&gt;Node3</title>
<path fill="none" stroke="#63b8ff" d="M326.88,-54.98C312.64,-46.69 290.75,-33.94 274.05,-24.22"/>
<polygon fill="#63b8ff" stroke="#63b8ff" points="275.79,-21.18 265.39,-19.17 272.27,-27.23 275.79,-21.18"/>
</g>
<!-- Node2&#45;&gt;Node4 -->
<g id="edge3" class="edge">
<title>Node2&#45;&gt;Node4</title>
<path fill="none" stroke="#63b8ff" d="M348.93,-54.75C355.35,-47.18 364.81,-36.05 372.62,-26.84"/>
<polygon fill="#63b8ff" stroke="#63b8ff" points="375.4,-28.98 379.21,-19.09 370.07,-24.45 375.4,-28.98"/>
</g>
<!-- Node6&#45;&gt;Node3 -->
<g id="edge8" class="edge">
<title>Node6&#45;&gt;Node3</title>
<path fill="none" stroke="#63b8ff" d="M152.3,-54.98C171.12,-46.46 200.32,-33.23 222,-23.41"/>
<polygon fill="#63b8ff" stroke="#63b8ff" points="223.7,-26.48 231.36,-19.17 220.81,-20.11 223.7,-26.48"/>
</g>
<!-- Node6&#45;&gt;Node5 -->
<g id="edge6" class="edge">
<title>Node6&#45;&gt;Node5</title>
<path fill="none" stroke="#63b8ff" d="M121.77,-54.98C110.77,-47 94.08,-34.88 80.9,-25.31"/>
<polygon fill="#63b8ff" stroke="#63b8ff" points="82.59,-22.21 72.44,-19.17 78.48,-27.88 82.59,-22.21"/>
</g>
<!-- Node6&#45;&gt;Node7 -->
<g id="edge7" class="edge">
<title>Node6&#45;&gt;Node7</title>
<path fill="none" stroke="#63b8ff" d="M140.44,-54.75C146.37,-47.26 155.07,-36.28 162.32,-27.13"/>
<polygon fill="#63b8ff" stroke="#63b8ff" points="165.23,-29.1 168.69,-19.09 159.74,-24.75 165.23,-29.1"/>
</g>
</g>
</svg>
