<?xml version="1.0" encoding="UTF-8" standalone="no"?>
<!DOCTYPE svg PUBLIC "-//W3C//DTD SVG 1.1//EN"
 "http://www.w3.org/Graphics/SVG/1.1/DTD/svg11.dtd">
<!-- Generated by graphviz version 2.43.0 (0)
 -->
<!-- Title: interp.h Pages: 1 -->
<svg width="693pt" height="302pt"
 viewBox="0.00 0.00 693.00 302.00" xmlns="http://www.w3.org/2000/svg" xmlns:xlink="http://www.w3.org/1999/xlink">
<g id="graph0" class="graph" transform="scale(1 1) rotate(0) translate(4 298)">
<title>interp.h</title>
<!-- Node1 -->
<g id="node1" class="node">
<title>Node1</title>
<g id="a_node1"><a xlink:title="Routines for linear interpolation of vertical atmospheric profiles.">
<polygon fill="#999999" stroke="#666666" points="356.5,-294 302.5,-294 302.5,-275 356.5,-275 356.5,-294"/>
<text text-anchor="middle" x="329.5" y="-282" font-family="Helvetica,sans-Serif" font-size="10.00">interp.h</text>
</a>
</g>
</g>
<!-- Node2 -->
<g id="node2" class="node">
<title>Node2</title>
<g id="a_node2"><a xlink:href="interp_8cpp.html" target="_top" xlink:title="Routines for linear interpolation of vertical atmospheric profiles.">
<polygon fill="white" stroke="#666666" points="65,-239 0,-239 0,-220 65,-220 65,-239"/>
<text text-anchor="middle" x="32.5" y="-227" font-family="Helvetica,sans-Serif" font-size="10.00">interp.cpp</text>
</a>
</g>
</g>
<!-- Node1&#45;&gt;Node2 -->
<g id="edge1" class="edge">
<title>Node1&#45;&gt;Node2</title>
<path fill="none" stroke="#63b8ff" d="M292.4,-276.93C243.58,-268.28 155.1,-252.56 79.5,-239 74.85,-238.17 69.94,-237.28 65.11,-236.41"/>
<polygon fill="#63b8ff" stroke="#63b8ff" points="292.03,-280.42 302.49,-278.72 293.25,-273.53 292.03,-280.42"/>
</g>
<!-- Node3 -->
<g id="node3" class="node">
<title>Node3</title>
<g id="a_node3"><a xlink:href="layer_8cpp.html" target="_top" xlink:title="Utilities and structures useful for grouping objects, conducting QC, and things that otherwise don&#39;t ...">
<polygon fill="white" stroke="#666666" points="183,-184 122,-184 122,-165 183,-165 183,-184"/>
<text text-anchor="middle" x="152.5" y="-172" font-family="Helvetica,sans-Serif" font-size="10.00">layer.cpp</text>
</a>
</g>
</g>
<!-- Node1&#45;&gt;Node3 -->
<g id="edge2" class="edge">
<title>Node1&#45;&gt;Node3</title>
<path fill="none" stroke="#63b8ff" d="M306.7,-269.59C269.63,-246.97 197.37,-202.88 166.75,-184.2"/>
<polygon fill="#63b8ff" stroke="#63b8ff" points="304.96,-272.62 315.31,-274.84 308.6,-266.65 304.96,-272.62"/>
</g>
<!-- Node4 -->
<g id="node4" class="node">
<title>Node4</title>
<g id="a_node4"><a xlink:href="layer_8h.html" target="_top" xlink:title="Data structures and functions for performing operations over atmospheric layers.">
<polygon fill="white" stroke="#666666" points="419.5,-239 369.5,-239 369.5,-220 419.5,-220 419.5,-239"/>
<text text-anchor="middle" x="394.5" y="-227" font-family="Helvetica,sans-Serif" font-size="10.00">layer.h</text>
</a>
</g>
</g>
<!-- Node1&#45;&gt;Node4 -->
<g id="edge3" class="edge">
<title>Node1&#45;&gt;Node4</title>
<path fill="none" stroke="#63b8ff" d="M347.77,-268.6C359.42,-259.11 374.1,-247.13 383.87,-239.17"/>
<polygon fill="#63b8ff" stroke="#63b8ff" points="345.48,-265.95 339.94,-274.98 349.91,-271.38 345.48,-265.95"/>
</g>
<!-- Node7 -->
<g id="node7" class="node">
<title>Node7</title>
<g id="a_node7"><a xlink:href="parcel_8cpp.html" target="_top" xlink:title="Routines used for parcel lifting and integration.">
<polygon fill="white" stroke="#666666" points="481,-74 414,-74 414,-55 481,-55 481,-74"/>
<text text-anchor="middle" x="447.5" y="-62" font-family="Helvetica,sans-Serif" font-size="10.00">parcel.cpp</text>
</a>
</g>
</g>
<!-- Node1&#45;&gt;Node7 -->
<g id="edge25" class="edge">
<title>Node1&#45;&gt;Node7</title>
<path fill="none" stroke="#63b8ff" d="M366.45,-275.65C387.64,-269.26 413.02,-258.08 428.5,-239 469.16,-188.88 455.31,-102.05 449.51,-74.3"/>
<polygon fill="#63b8ff" stroke="#63b8ff" points="365.46,-272.29 356.75,-278.33 367.33,-279.04 365.46,-272.29"/>
</g>
<!-- Node8 -->
<g id="node8" class="node">
<title>Node8</title>
<g id="a_node8"><a xlink:href="parcel_8h.html" target="_top" xlink:title="Routines used for parcel lifting and integration.">
<polygon fill="white" stroke="#666666" points="169.5,-129 113.5,-129 113.5,-110 169.5,-110 169.5,-129"/>
<text text-anchor="middle" x="141.5" y="-117" font-family="Helvetica,sans-Serif" font-size="10.00">parcel.h</text>
</a>
</g>
</g>
<!-- Node1&#45;&gt;Node8 -->
<g id="edge26" class="edge">
<title>Node1&#45;&gt;Node8</title>
<path fill="none" stroke="#63b8ff" d="M292.46,-278.85C241.54,-270.24 151.78,-246.56 112.5,-184 100.9,-165.52 119.95,-141.64 132.28,-129.08"/>
<polygon fill="#63b8ff" stroke="#63b8ff" points="291.97,-282.32 302.4,-280.42 293.07,-275.4 291.97,-282.32"/>
</g>
<!-- Node9 -->
<g id="node9" class="node">
<title>Node9</title>
<g id="a_node9"><a xlink:href="thermo_8cpp.html" target="_top" xlink:title="Thermodynamic routines that do not directly involve parcel based ascent.">
<polygon fill="white" stroke="#666666" points="373.5,-129 301.5,-129 301.5,-110 373.5,-110 373.5,-129"/>
<text text-anchor="middle" x="337.5" y="-117" font-family="Helvetica,sans-Serif" font-size="10.00">thermo.cpp</text>
</a>
</g>
</g>
<!-- Node1&#45;&gt;Node9 -->
<g id="edge27" class="edge">
<title>Node1&#45;&gt;Node9</title>
<path fill="none" stroke="#63b8ff" d="M330.44,-264.37C332.17,-229.03 335.82,-154.79 337.07,-129.31"/>
<polygon fill="#63b8ff" stroke="#63b8ff" points="326.92,-264.58 329.93,-274.74 333.92,-264.92 326.92,-264.58"/>
</g>
<!-- Node10 -->
<g id="node10" class="node">
<title>Node10</title>
<g id="a_node10"><a xlink:href="thermo_8h.html" target="_top" xlink:title="Routines used to compute thermodynamic attributes of vertical sounding profiles.">
<polygon fill="white" stroke="#666666" points="301,-184 240,-184 240,-165 301,-165 301,-184"/>
<text text-anchor="middle" x="270.5" y="-172" font-family="Helvetica,sans-Serif" font-size="10.00">thermo.h</text>
</a>
</g>
</g>
<!-- Node1&#45;&gt;Node10 -->
<g id="edge28" class="edge">
<title>Node1&#45;&gt;Node10</title>
<path fill="none" stroke="#63b8ff" d="M319.81,-265.76C306.98,-242.28 284.87,-201.81 275.23,-184.16"/>
<polygon fill="#63b8ff" stroke="#63b8ff" points="316.81,-267.56 324.67,-274.66 322.95,-264.21 316.81,-267.56"/>
</g>
<!-- Node11 -->
<g id="node11" class="node">
<title>Node11</title>
<g id="a_node11"><a xlink:href="winds_8cpp.html" target="_top" xlink:title="Routines used to compute kinematic attributes and indices of vertical sounding profiles.">
<polygon fill="white" stroke="#666666" points="685,-129 620,-129 620,-110 685,-110 685,-129"/>
<text text-anchor="middle" x="652.5" y="-117" font-family="Helvetica,sans-Serif" font-size="10.00">winds.cpp</text>
</a>
</g>
</g>
<!-- Node1&#45;&gt;Node11 -->
<g id="edge29" class="edge">
<title>Node1&#45;&gt;Node11</title>
<path fill="none" stroke="#63b8ff" d="M366.75,-281.1C413.11,-277.04 493.92,-266.37 557.5,-239 596.13,-222.37 610.29,-218.39 634.5,-184 646.5,-166.95 650.54,-142.05 651.87,-129.08"/>
<polygon fill="#63b8ff" stroke="#63b8ff" points="366.25,-277.63 356.57,-281.94 366.82,-284.61 366.25,-277.63"/>
</g>
<!-- Node12 -->
<g id="node12" class="node">
<title>Node12</title>
<g id="a_node12"><a xlink:href="winds_8h.html" target="_top" xlink:title="Routines used to compute kinematic attributes and indices of vertical sounding profiles.">
<polygon fill="white" stroke="#666666" points="601.5,-184 547.5,-184 547.5,-165 601.5,-165 601.5,-184"/>
<text text-anchor="middle" x="574.5" y="-172" font-family="Helvetica,sans-Serif" font-size="10.00">winds.h</text>
</a>
</g>
</g>
<!-- Node1&#45;&gt;Node12 -->
<g id="edge30" class="edge">
<title>Node1&#45;&gt;Node12</title>
<path fill="none" stroke="#63b8ff" d="M366.68,-283.67C410.32,-282.12 483.13,-273.91 533.5,-239 553.56,-225.1 566.11,-197.87 571.48,-184.03"/>
<polygon fill="#63b8ff" stroke="#63b8ff" points="366.41,-280.17 356.5,-283.93 366.59,-287.17 366.41,-280.17"/>
</g>
<!-- Node4&#45;&gt;Node3 -->
<g id="edge7" class="edge">
<title>Node4&#45;&gt;Node3</title>
<path fill="none" stroke="#63b8ff" d="M359.23,-220.78C311.81,-210.39 228.26,-192.09 183.26,-182.24"/>
<polygon fill="#63b8ff" stroke="#63b8ff" points="358.54,-224.21 369.06,-222.93 360.04,-217.37 358.54,-224.21"/>
</g>
<!-- Node5 -->
<g id="node5" class="node">
<title>Node5</title>
<g id="a_node5"><a xlink:href="convective_8cpp.html" target="_top" xlink:title="Routines used to computed derived sounding parameters from vertical atmospheric profiles.">
<polygon fill="white" stroke="#666666" points="370.5,-19 280.5,-19 280.5,0 370.5,0 370.5,-19"/>
<text text-anchor="middle" x="325.5" y="-7" font-family="Helvetica,sans-Serif" font-size="10.00">convective.cpp</text>
</a>
</g>
</g>
<!-- Node4&#45;&gt;Node5 -->
<g id="edge4" class="edge">
<title>Node4&#45;&gt;Node5</title>
<path fill="none" stroke="#63b8ff" d="M414.35,-213.27C452.85,-181.89 530.42,-108.51 489.5,-55 475.07,-36.14 413.93,-23.4 370.53,-16.54"/>
<polygon fill="#63b8ff" stroke="#63b8ff" points="411.99,-210.67 406.35,-219.64 416.36,-216.14 411.99,-210.67"/>
</g>
<!-- Node6 -->
<g id="node6" class="node">
<title>Node6</title>
<g id="a_node6"><a xlink:href="convective_8h.html" target="_top" xlink:title="Routines used to computed derived sounding parameters from vertical atmospheric profiles.">
<polygon fill="white" stroke="#666666" points="365,-74 286,-74 286,-55 365,-55 365,-74"/>
<text text-anchor="middle" x="325.5" y="-62" font-family="Helvetica,sans-Serif" font-size="10.00">convective.h</text>
</a>
</g>
</g>
<!-- Node4&#45;&gt;Node6 -->
<g id="edge5" class="edge">
<title>Node4&#45;&gt;Node6</title>
<path fill="none" stroke="#63b8ff" d="M396.93,-209.67C399.18,-185.11 399.93,-141.57 382.5,-110 373.58,-93.84 356.11,-81.57 342.85,-74.05"/>
<polygon fill="#63b8ff" stroke="#63b8ff" points="393.43,-209.46 395.82,-219.79 400.39,-210.23 393.43,-209.46"/>
</g>
<!-- Node4&#45;&gt;Node7 -->
<g id="edge8" class="edge">
<title>Node4&#45;&gt;Node7</title>
<path fill="none" stroke="#63b8ff" d="M405.69,-211.25C410.49,-203.22 415.84,-193.39 419.5,-184 434.94,-144.42 443.4,-93.94 446.32,-74.08"/>
<polygon fill="#63b8ff" stroke="#63b8ff" points="402.55,-209.65 400.24,-219.99 408.5,-213.36 402.55,-209.65"/>
</g>
<!-- Node4&#45;&gt;Node8 -->
<g id="edge9" class="edge">
<title>Node4&#45;&gt;Node8</title>
<path fill="none" stroke="#63b8ff" d="M359.41,-222.72C325.32,-216.25 272.66,-203.97 230.5,-184 198.94,-169.05 166.77,-142.79 151.17,-129.2"/>
<polygon fill="#63b8ff" stroke="#63b8ff" points="358.9,-226.18 369.36,-224.54 360.16,-219.3 358.9,-226.18"/>
</g>
<!-- Node4&#45;&gt;Node9 -->
<g id="edge13" class="edge">
<title>Node4&#45;&gt;Node9</title>
<path fill="none" stroke="#63b8ff" d="M385.14,-210.76C372.75,-187.28 351.39,-146.81 342.07,-129.16"/>
<polygon fill="#63b8ff" stroke="#63b8ff" points="382.07,-212.45 389.84,-219.66 388.26,-209.18 382.07,-212.45"/>
</g>
<!-- Node4&#45;&gt;Node10 -->
<g id="edge14" class="edge">
<title>Node4&#45;&gt;Node10</title>
<path fill="none" stroke="#63b8ff" d="M365.32,-216.03C342.39,-206.23 311.05,-192.83 290.79,-184.17"/>
<polygon fill="#63b8ff" stroke="#63b8ff" points="364.01,-219.27 374.58,-219.98 366.76,-212.84 364.01,-219.27"/>
</g>
<!-- Node4&#45;&gt;Node11 -->
<g id="edge20" class="edge">
<title>Node4&#45;&gt;Node11</title>
<path fill="none" stroke="#63b8ff" d="M429.77,-229.22C475.32,-228.48 555.31,-221.34 610.5,-184 630.86,-170.22 643.81,-142.95 649.36,-129.06"/>
<polygon fill="#63b8ff" stroke="#63b8ff" points="429.48,-225.72 419.5,-229.29 429.53,-232.72 429.48,-225.72"/>
</g>
<!-- Node4&#45;&gt;Node12 -->
<g id="edge21" class="edge">
<title>Node4&#45;&gt;Node12</title>
<path fill="none" stroke="#63b8ff" d="M429.18,-218.29C463.64,-208.14 515.77,-192.79 547.33,-183.5"/>
<polygon fill="#63b8ff" stroke="#63b8ff" points="428.13,-214.95 419.53,-221.13 430.11,-221.66 428.13,-214.95"/>
</g>
<!-- Node6&#45;&gt;Node5 -->
<g id="edge6" class="edge">
<title>Node6&#45;&gt;Node5</title>
<path fill="none" stroke="#63b8ff" d="M325.5,-44.66C325.5,-35.93 325.5,-25.99 325.5,-19.09"/>
<polygon fill="#63b8ff" stroke="#63b8ff" points="322,-44.75 325.5,-54.75 329,-44.75 322,-44.75"/>
</g>
<!-- Node8&#45;&gt;Node5 -->
<g id="edge10" class="edge">
<title>Node8&#45;&gt;Node5</title>
<path fill="none" stroke="#63b8ff" d="M149.26,-100.43C156.26,-86.16 167.86,-66.77 183.5,-55 211.78,-33.72 250.46,-22.47 280.31,-16.61"/>
<polygon fill="#63b8ff" stroke="#63b8ff" points="145.99,-99.18 144.99,-109.73 152.35,-102.1 145.99,-99.18"/>
</g>
<!-- Node8&#45;&gt;Node6 -->
<g id="edge11" class="edge">
<title>Node8&#45;&gt;Node6</title>
<path fill="none" stroke="#63b8ff" d="M179.58,-107.53C214.11,-97.59 264.3,-83.13 295.9,-74.03"/>
<polygon fill="#63b8ff" stroke="#63b8ff" points="178.49,-104.2 169.85,-110.33 180.42,-110.93 178.49,-104.2"/>
</g>
<!-- Node8&#45;&gt;Node7 -->
<g id="edge12" class="edge">
<title>Node8&#45;&gt;Node7</title>
<path fill="none" stroke="#63b8ff" d="M179.62,-111.9C239.93,-101.45 356.38,-81.28 413.8,-71.34"/>
<polygon fill="#63b8ff" stroke="#63b8ff" points="179,-108.45 169.74,-113.61 180.19,-115.35 179,-108.45"/>
</g>
<!-- Node10&#45;&gt;Node5 -->
<g id="edge15" class="edge">
<title>Node10&#45;&gt;Node5</title>
<path fill="none" stroke="#63b8ff" d="M260.29,-156.02C254.13,-143.37 248.08,-125.8 251.5,-110 257.18,-83.76 260.68,-76.7 276.5,-55 286.93,-40.7 302.54,-27.5 313.33,-19.25"/>
<polygon fill="#63b8ff" stroke="#63b8ff" points="257.28,-157.81 265.08,-164.98 263.45,-154.51 257.28,-157.81"/>
</g>
<!-- Node10&#45;&gt;Node6 -->
<g id="edge16" class="edge">
<title>Node10&#45;&gt;Node6</title>
<path fill="none" stroke="#63b8ff" d="M261.46,-155.29C256.24,-142.04 252.04,-124.03 259.5,-110 268.58,-92.92 287.47,-81.21 302.72,-74.11"/>
<polygon fill="#63b8ff" stroke="#63b8ff" points="258.4,-157.02 265.67,-164.73 264.8,-154.18 258.4,-157.02"/>
</g>
<!-- Node10&#45;&gt;Node7 -->
<g id="edge17" class="edge">
<title>Node10&#45;&gt;Node7</title>
<path fill="none" stroke="#63b8ff" d="M272.39,-154.66C274.78,-140.51 280.2,-121.65 292.5,-110 309.93,-93.49 373.57,-79.13 413.68,-71.45"/>
<polygon fill="#63b8ff" stroke="#63b8ff" points="268.89,-154.39 271.04,-164.76 275.83,-155.31 268.89,-154.39"/>
</g>
<!-- Node10&#45;&gt;Node8 -->
<g id="edge18" class="edge">
<title>Node10&#45;&gt;Node8</title>
<path fill="none" stroke="#63b8ff" d="M240.46,-161.16C216.58,-151.35 183.78,-137.87 162.6,-129.17"/>
<polygon fill="#63b8ff" stroke="#63b8ff" points="239.19,-164.42 249.77,-164.98 241.85,-157.95 239.19,-164.42"/>
</g>
<!-- Node10&#45;&gt;Node9 -->
<g id="edge19" class="edge">
<title>Node10&#45;&gt;Node9</title>
<path fill="none" stroke="#63b8ff" d="M289.33,-158.6C301.34,-149.11 316.47,-137.13 326.54,-129.17"/>
<polygon fill="#63b8ff" stroke="#63b8ff" points="286.94,-156.04 281.26,-164.98 291.28,-161.53 286.94,-156.04"/>
</g>
<!-- Node12&#45;&gt;Node5 -->
<g id="edge22" class="edge">
<title>Node12&#45;&gt;Node5</title>
<path fill="none" stroke="#63b8ff" d="M579.74,-154.73C585.71,-128.88 591.76,-82.44 567.5,-55 542.11,-26.28 433.35,-15.96 370.61,-12.35"/>
<polygon fill="#63b8ff" stroke="#63b8ff" points="576.28,-154.16 577.2,-164.72 583.06,-155.89 576.28,-154.16"/>
</g>
<!-- Node12&#45;&gt;Node6 -->
<g id="edge23" class="edge">
<title>Node12&#45;&gt;Node6</title>
<path fill="none" stroke="#63b8ff" d="M545.32,-160.84C494,-138.58 388.88,-92.99 345.21,-74.05"/>
<polygon fill="#63b8ff" stroke="#63b8ff" points="543.98,-164.08 554.54,-164.84 546.76,-157.65 543.98,-164.08"/>
</g>
<!-- Node12&#45;&gt;Node11 -->
<g id="edge24" class="edge">
<title>Node12&#45;&gt;Node11</title>
<path fill="none" stroke="#63b8ff" d="M595.62,-159.15C609.71,-149.57 627.79,-137.29 639.74,-129.17"/>
<polygon fill="#63b8ff" stroke="#63b8ff" points="593.34,-156.47 587.03,-164.98 597.27,-162.26 593.34,-156.47"/>
</g>
</g>
</svg>
