<?xml version="1.0" encoding="UTF-8" standalone="no"?>
<!DOCTYPE svg PUBLIC "-//W3C//DTD SVG 1.1//EN"
 "http://www.w3.org/Graphics/SVG/1.1/DTD/svg11.dtd">
<!-- Generated by graphviz version 2.43.0 (0)
 -->
<!-- Title: layer.h Pages: 1 -->
<svg width="484pt" height="247pt"
 viewBox="0.00 0.00 484.50 247.00" xmlns="http://www.w3.org/2000/svg" xmlns:xlink="http://www.w3.org/1999/xlink">
<g id="graph0" class="graph" transform="scale(1 1) rotate(0) translate(4 243)">
<title>layer.h</title>
<!-- Node1 -->
<g id="node1" class="node">
<title>Node1</title>
<g id="a_node1"><a xlink:title="Data structures and functions for performing operations over atmospheric layers.">
<polygon fill="#999999" stroke="#666666" points="285.5,-239 235.5,-239 235.5,-220 285.5,-220 285.5,-239"/>
<text text-anchor="middle" x="260.5" y="-227" font-family="Helvetica,sans-Serif" font-size="10.00">layer.h</text>
</a>
</g>
</g>
<!-- Node2 -->
<g id="node2" class="node">
<title>Node2</title>
<g id="a_node2"><a xlink:href="convective_8cpp.html" target="_top" xlink:title="Routines used to computed derived sounding parameters from vertical atmospheric profiles.">
<polygon fill="white" stroke="#666666" points="307.5,-19 217.5,-19 217.5,0 307.5,0 307.5,-19"/>
<text text-anchor="middle" x="262.5" y="-7" font-family="Helvetica,sans-Serif" font-size="10.00">convective.cpp</text>
</a>
</g>
</g>
<!-- Node1&#45;&gt;Node2 -->
<g id="edge1" class="edge">
<title>Node1&#45;&gt;Node2</title>
<path fill="none" stroke="#63b8ff" d="M295.7,-225.89C347.7,-221.21 441.09,-209.42 461.5,-184 500.97,-134.84 454.85,-90.13 402.5,-55 373.91,-35.82 336.54,-24.49 307.6,-18.07"/>
<polygon fill="#63b8ff" stroke="#63b8ff" points="295.25,-222.41 285.58,-226.75 295.84,-229.39 295.25,-222.41"/>
</g>
<!-- Node3 -->
<g id="node3" class="node">
<title>Node3</title>
<g id="a_node3"><a xlink:href="convective_8h.html" target="_top" xlink:title="Routines used to computed derived sounding parameters from vertical atmospheric profiles.">
<polygon fill="white" stroke="#666666" points="302,-74 223,-74 223,-55 302,-55 302,-74"/>
<text text-anchor="middle" x="262.5" y="-62" font-family="Helvetica,sans-Serif" font-size="10.00">convective.h</text>
</a>
</g>
</g>
<!-- Node1&#45;&gt;Node3 -->
<g id="edge2" class="edge">
<title>Node1&#45;&gt;Node3</title>
<path fill="none" stroke="#63b8ff" d="M271.36,-211.13C284.44,-187.94 303.4,-145.66 292.5,-110 288.25,-96.1 278.04,-82.62 270.71,-74.2"/>
<polygon fill="#63b8ff" stroke="#63b8ff" points="268.29,-209.43 266.21,-219.82 274.32,-213 268.29,-209.43"/>
</g>
<!-- Node4 -->
<g id="node4" class="node">
<title>Node4</title>
<g id="a_node4"><a xlink:href="layer_8cpp.html" target="_top" xlink:title="Utilities and structures useful for grouping objects, conducting QC, and things that otherwise don&#39;t ...">
<polygon fill="white" stroke="#666666" points="153,-184 92,-184 92,-165 153,-165 153,-184"/>
<text text-anchor="middle" x="122.5" y="-172" font-family="Helvetica,sans-Serif" font-size="10.00">layer.cpp</text>
</a>
</g>
</g>
<!-- Node1&#45;&gt;Node4 -->
<g id="edge4" class="edge">
<title>Node1&#45;&gt;Node4</title>
<path fill="none" stroke="#63b8ff" d="M228.71,-216.29C203.13,-206.47 167.83,-192.91 145.08,-184.17"/>
<polygon fill="#63b8ff" stroke="#63b8ff" points="227.74,-219.67 238.33,-219.98 230.25,-213.13 227.74,-219.67"/>
</g>
<!-- Node5 -->
<g id="node5" class="node">
<title>Node5</title>
<g id="a_node5"><a xlink:href="parcel_8cpp.html" target="_top" xlink:title="Routines used for parcel lifting and integration.">
<polygon fill="white" stroke="#666666" points="67,-74 0,-74 0,-55 67,-55 67,-74"/>
<text text-anchor="middle" x="33.5" y="-62" font-family="Helvetica,sans-Serif" font-size="10.00">parcel.cpp</text>
</a>
</g>
</g>
<!-- Node1&#45;&gt;Node5 -->
<g id="edge5" class="edge">
<title>Node1&#45;&gt;Node5</title>
<path fill="none" stroke="#63b8ff" d="M225.07,-227.9C184.66,-225.57 118.29,-216.57 72.5,-184 48.89,-167.21 46.47,-156.55 37.5,-129 31.41,-110.3 31.86,-86.91 32.69,-74.39"/>
<polygon fill="#63b8ff" stroke="#63b8ff" points="225.09,-231.4 235.24,-228.38 225.42,-224.41 225.09,-231.4"/>
</g>
<!-- Node6 -->
<g id="node6" class="node">
<title>Node6</title>
<g id="a_node6"><a xlink:href="parcel_8h.html" target="_top" xlink:title="Routines used for parcel lifting and integration.">
<polygon fill="white" stroke="#666666" points="117.5,-129 61.5,-129 61.5,-110 117.5,-110 117.5,-129"/>
<text text-anchor="middle" x="89.5" y="-117" font-family="Helvetica,sans-Serif" font-size="10.00">parcel.h</text>
</a>
</g>
</g>
<!-- Node1&#45;&gt;Node6 -->
<g id="edge6" class="edge">
<title>Node1&#45;&gt;Node6</title>
<path fill="none" stroke="#63b8ff" d="M225.15,-224.76C178.39,-219 99.86,-206.23 82.5,-184 70.08,-168.09 78.86,-142.71 84.97,-129.36"/>
<polygon fill="#63b8ff" stroke="#63b8ff" points="224.83,-228.25 235.17,-225.95 225.65,-221.3 224.83,-228.25"/>
</g>
<!-- Node7 -->
<g id="node7" class="node">
<title>Node7</title>
<g id="a_node7"><a xlink:href="thermo_8cpp.html" target="_top" xlink:title="Thermodynamic routines that do not directly involve parcel based ascent.">
<polygon fill="white" stroke="#666666" points="283.5,-129 211.5,-129 211.5,-110 283.5,-110 283.5,-129"/>
<text text-anchor="middle" x="247.5" y="-117" font-family="Helvetica,sans-Serif" font-size="10.00">thermo.cpp</text>
</a>
</g>
</g>
<!-- Node1&#45;&gt;Node7 -->
<g id="edge10" class="edge">
<title>Node1&#45;&gt;Node7</title>
<path fill="none" stroke="#63b8ff" d="M258.21,-209.48C255.37,-185.84 250.63,-146.5 248.54,-129.16"/>
<polygon fill="#63b8ff" stroke="#63b8ff" points="254.77,-210.15 259.44,-219.66 261.72,-209.32 254.77,-210.15"/>
</g>
<!-- Node8 -->
<g id="node8" class="node">
<title>Node8</title>
<g id="a_node8"><a xlink:href="thermo_8h.html" target="_top" xlink:title="Routines used to compute thermodynamic attributes of vertical sounding profiles.">
<polygon fill="white" stroke="#666666" points="232,-184 171,-184 171,-165 232,-165 232,-184"/>
<text text-anchor="middle" x="201.5" y="-172" font-family="Helvetica,sans-Serif" font-size="10.00">thermo.h</text>
</a>
</g>
</g>
<!-- Node1&#45;&gt;Node8 -->
<g id="edge11" class="edge">
<title>Node1&#45;&gt;Node8</title>
<path fill="none" stroke="#63b8ff" d="M243.3,-213.04C232.83,-203.64 219.85,-191.98 211.15,-184.17"/>
<polygon fill="#63b8ff" stroke="#63b8ff" points="241.24,-215.91 251.02,-219.98 245.92,-210.7 241.24,-215.91"/>
</g>
<!-- Node9 -->
<g id="node9" class="node">
<title>Node9</title>
<g id="a_node9"><a xlink:href="winds_8cpp.html" target="_top" xlink:title="Routines used to compute kinematic attributes and indices of vertical sounding profiles.">
<polygon fill="white" stroke="#666666" points="405,-129 340,-129 340,-110 405,-110 405,-129"/>
<text text-anchor="middle" x="372.5" y="-117" font-family="Helvetica,sans-Serif" font-size="10.00">winds.cpp</text>
</a>
</g>
</g>
<!-- Node1&#45;&gt;Node9 -->
<g id="edge17" class="edge">
<title>Node1&#45;&gt;Node9</title>
<path fill="none" stroke="#63b8ff" d="M284.81,-214.58C297.68,-206.56 313.3,-195.76 325.5,-184 343.47,-166.68 359.65,-141.89 367.49,-129.01"/>
<polygon fill="#63b8ff" stroke="#63b8ff" points="282.76,-211.73 276.01,-219.9 286.38,-217.72 282.76,-211.73"/>
</g>
<!-- Node10 -->
<g id="node10" class="node">
<title>Node10</title>
<g id="a_node10"><a xlink:href="winds_8h.html" target="_top" xlink:title="Routines used to compute kinematic attributes and indices of vertical sounding profiles.">
<polygon fill="white" stroke="#666666" points="452.5,-184 398.5,-184 398.5,-165 452.5,-165 452.5,-184"/>
<text text-anchor="middle" x="425.5" y="-172" font-family="Helvetica,sans-Serif" font-size="10.00">winds.h</text>
</a>
</g>
</g>
<!-- Node1&#45;&gt;Node10 -->
<g id="edge18" class="edge">
<title>Node1&#45;&gt;Node10</title>
<path fill="none" stroke="#63b8ff" d="M295.47,-217.27C326.36,-207.34 370.74,-193.09 398.83,-184.07"/>
<polygon fill="#63b8ff" stroke="#63b8ff" points="294.01,-214.06 285.56,-220.45 296.15,-220.72 294.01,-214.06"/>
</g>
<!-- Node3&#45;&gt;Node2 -->
<g id="edge3" class="edge">
<title>Node3&#45;&gt;Node2</title>
<path fill="none" stroke="#63b8ff" d="M262.5,-44.66C262.5,-35.93 262.5,-25.99 262.5,-19.09"/>
<polygon fill="#63b8ff" stroke="#63b8ff" points="259,-44.75 262.5,-54.75 266,-44.75 259,-44.75"/>
</g>
<!-- Node6&#45;&gt;Node2 -->
<g id="edge7" class="edge">
<title>Node6&#45;&gt;Node2</title>
<path fill="none" stroke="#63b8ff" d="M97.34,-100.53C104.38,-86.32 116,-66.95 131.5,-55 156.51,-35.71 190.39,-24.5 217.43,-18.15"/>
<polygon fill="#63b8ff" stroke="#63b8ff" points="94.08,-99.24 93.03,-109.78 100.42,-102.19 94.08,-99.24"/>
</g>
<!-- Node6&#45;&gt;Node3 -->
<g id="edge8" class="edge">
<title>Node6&#45;&gt;Node3</title>
<path fill="none" stroke="#63b8ff" d="M127.27,-106.93C159.59,-97.03 205.36,-83.01 234.49,-74.08"/>
<polygon fill="#63b8ff" stroke="#63b8ff" points="125.83,-103.71 117.3,-109.98 127.88,-110.4 125.83,-103.71"/>
</g>
<!-- Node6&#45;&gt;Node5 -->
<g id="edge9" class="edge">
<title>Node6&#45;&gt;Node5</title>
<path fill="none" stroke="#63b8ff" d="M73.17,-103.04C63.24,-93.64 50.91,-81.98 42.66,-74.17"/>
<polygon fill="#63b8ff" stroke="#63b8ff" points="70.83,-105.65 80.5,-109.98 75.65,-100.57 70.83,-105.65"/>
</g>
<!-- Node8&#45;&gt;Node2 -->
<g id="edge12" class="edge">
<title>Node8&#45;&gt;Node2</title>
<path fill="none" stroke="#63b8ff" d="M195.65,-154.99C192.42,-142.28 189.6,-125.05 192.5,-110 197.48,-84.15 199.59,-76.7 214.5,-55 224.41,-40.58 239.77,-27.4 250.43,-19.19"/>
<polygon fill="#63b8ff" stroke="#63b8ff" points="192.35,-156.17 198.46,-164.83 199.08,-154.25 192.35,-156.17"/>
</g>
<!-- Node8&#45;&gt;Node3 -->
<g id="edge13" class="edge">
<title>Node8&#45;&gt;Node3</title>
<path fill="none" stroke="#63b8ff" d="M197.61,-154.84C195.82,-141.59 195.42,-123.79 202.5,-110 211.03,-93.39 228.95,-81.38 242.99,-74.06"/>
<polygon fill="#63b8ff" stroke="#63b8ff" points="194.16,-155.44 199.32,-164.7 201.06,-154.25 194.16,-155.44"/>
</g>
<!-- Node8&#45;&gt;Node5 -->
<g id="edge14" class="edge">
<title>Node8&#45;&gt;Node5</title>
<path fill="none" stroke="#63b8ff" d="M160.97,-163.51C119.59,-152.97 60.35,-136.85 52.5,-129 37.52,-114.03 34.26,-87.78 33.61,-74.19"/>
<polygon fill="#63b8ff" stroke="#63b8ff" points="160.25,-166.93 170.8,-165.99 161.96,-160.15 160.25,-166.93"/>
</g>
<!-- Node8&#45;&gt;Node6 -->
<g id="edge15" class="edge">
<title>Node8&#45;&gt;Node6</title>
<path fill="none" stroke="#63b8ff" d="M174.31,-160.63C153.68,-150.87 125.88,-137.71 107.82,-129.17"/>
<polygon fill="#63b8ff" stroke="#63b8ff" points="172.97,-163.87 183.51,-164.98 175.96,-157.54 172.97,-163.87"/>
</g>
<!-- Node8&#45;&gt;Node7 -->
<g id="edge16" class="edge">
<title>Node8&#45;&gt;Node7</title>
<path fill="none" stroke="#63b8ff" d="M215.86,-156.96C223.87,-147.72 233.53,-136.6 240.05,-129.09"/>
<polygon fill="#63b8ff" stroke="#63b8ff" points="213.01,-154.9 209.1,-164.75 218.29,-159.49 213.01,-154.9"/>
</g>
<!-- Node10&#45;&gt;Node2 -->
<g id="edge19" class="edge">
<title>Node10&#45;&gt;Node2</title>
<path fill="none" stroke="#63b8ff" d="M433.09,-155.08C437.32,-141.71 440.34,-123.67 432.5,-110 403.16,-58.83 336.17,-31.44 295.59,-19.02"/>
<polygon fill="#63b8ff" stroke="#63b8ff" points="429.75,-154.02 429.61,-164.61 436.32,-156.42 429.75,-154.02"/>
</g>
<!-- Node10&#45;&gt;Node3 -->
<g id="edge20" class="edge">
<title>Node10&#45;&gt;Node3</title>
<path fill="none" stroke="#63b8ff" d="M427.19,-154.5C427.36,-140.54 425.21,-122 414.5,-110 386.3,-78.41 337.02,-68.72 302.23,-66.02"/>
<polygon fill="#63b8ff" stroke="#63b8ff" points="423.67,-154.73 426.63,-164.9 430.66,-155.1 423.67,-154.73"/>
</g>
<!-- Node10&#45;&gt;Node9 -->
<g id="edge21" class="edge">
<title>Node10&#45;&gt;Node9</title>
<path fill="none" stroke="#63b8ff" d="M409.52,-157.52C400.18,-148.18 388.75,-136.75 381.09,-129.09"/>
<polygon fill="#63b8ff" stroke="#63b8ff" points="407.2,-160.15 416.75,-164.75 412.15,-155.2 407.2,-160.15"/>
</g>
</g>
</svg>
