<?xml version="1.0" encoding="UTF-8" standalone="no"?>
<!DOCTYPE svg PUBLIC "-//W3C//DTD SVG 1.1//EN"
 "http://www.w3.org/Graphics/SVG/1.1/DTD/svg11.dtd">
<!-- Generated by graphviz version 2.43.0 (0)
 -->
<!-- Title: layer_wrap.h Pages: 1 -->
<svg width="405pt" height="192pt"
 viewBox="0.00 0.00 404.50 192.00" xmlns="http://www.w3.org/2000/svg" xmlns:xlink="http://www.w3.org/1999/xlink">
<g id="graph0" class="graph" transform="scale(1 1) rotate(0) translate(4 188)">
<title>layer_wrap.h</title>
<!-- Node1 -->
<g id="node1" class="node">
<title>Node1</title>
<g id="a_node1"><a xlink:title="Header defining the C wrapper interface to layer based routines.">
<polygon fill="#999999" stroke="#666666" points="248.5,-184 168.5,-184 168.5,-165 248.5,-165 248.5,-184"/>
<text text-anchor="middle" x="208.5" y="-172" font-family="Helvetica,sans-Serif" font-size="10.00">layer_wrap.h</text>
</a>
</g>
</g>
<!-- Node2 -->
<g id="node2" class="node">
<title>Node2</title>
<g id="a_node2"><a xlink:href="convective__wrap_8h.html" target="_top" xlink:title="Header defining the C wrapper interface to derived parameters.">
<polygon fill="white" stroke="#666666" points="113.5,-74 5.5,-74 5.5,-55 113.5,-55 113.5,-74"/>
<text text-anchor="middle" x="59.5" y="-62" font-family="Helvetica,sans-Serif" font-size="10.00">convective_wrap.h</text>
</a>
</g>
</g>
<!-- Node1&#45;&gt;Node2 -->
<g id="edge1" class="edge">
<title>Node1&#45;&gt;Node2</title>
<path fill="none" stroke="#63b8ff" d="M158.41,-166.26C116.64,-159.08 61.88,-146.6 48.5,-129 36.18,-112.79 46.94,-87.53 54.19,-74.29"/>
<polygon fill="#63b8ff" stroke="#63b8ff" points="158.01,-169.75 168.45,-167.93 159.16,-162.84 158.01,-169.75"/>
</g>
<!-- Node4 -->
<g id="node4" class="node">
<title>Node4</title>
<g id="a_node4"><a xlink:href="layer__wrap_8cpp.html" target="_top" xlink:title=" ">
<polygon fill="white" stroke="#666666" points="149,-129 58,-129 58,-110 149,-110 149,-129"/>
<text text-anchor="middle" x="103.5" y="-117" font-family="Helvetica,sans-Serif" font-size="10.00">layer_wrap.cpp</text>
</a>
</g>
</g>
<!-- Node1&#45;&gt;Node4 -->
<g id="edge3" class="edge">
<title>Node1&#45;&gt;Node4</title>
<path fill="none" stroke="#63b8ff" d="M182.48,-160.37C163.2,-150.63 137.45,-137.64 120.68,-129.17"/>
<polygon fill="#63b8ff" stroke="#63b8ff" points="181.13,-163.6 191.63,-164.98 184.28,-157.35 181.13,-163.6"/>
</g>
<!-- Node5 -->
<g id="node5" class="node">
<title>Node5</title>
<g id="a_node5"><a xlink:href="thermo__wrap_8cpp.html" target="_top" xlink:title=" ">
<polygon fill="white" stroke="#666666" points="388,-74 287,-74 287,-55 388,-55 388,-74"/>
<text text-anchor="middle" x="337.5" y="-62" font-family="Helvetica,sans-Serif" font-size="10.00">thermo_wrap.cpp</text>
</a>
</g>
</g>
<!-- Node1&#45;&gt;Node5 -->
<g id="edge4" class="edge">
<title>Node1&#45;&gt;Node5</title>
<path fill="none" stroke="#63b8ff" d="M226.77,-158.21C254.25,-135.2 305.32,-92.44 327.16,-74.16"/>
<polygon fill="#63b8ff" stroke="#63b8ff" points="224.48,-155.56 219.06,-164.66 228.97,-160.93 224.48,-155.56"/>
</g>
<!-- Node6 -->
<g id="node6" class="node">
<title>Node6</title>
<g id="a_node6"><a xlink:href="thermo__wrap_8h.html" target="_top" xlink:title="Header defining the C wrapper interface to thermodynamic routines.">
<polygon fill="white" stroke="#666666" points="396.5,-129 306.5,-129 306.5,-110 396.5,-110 396.5,-129"/>
<text text-anchor="middle" x="351.5" y="-117" font-family="Helvetica,sans-Serif" font-size="10.00">thermo_wrap.h</text>
</a>
</g>
</g>
<!-- Node1&#45;&gt;Node6 -->
<g id="edge5" class="edge">
<title>Node1&#45;&gt;Node6</title>
<path fill="none" stroke="#63b8ff" d="M241.09,-161.42C267.62,-151.59 304.43,-137.95 328.11,-129.17"/>
<polygon fill="#63b8ff" stroke="#63b8ff" points="239.64,-158.23 231.48,-164.98 242.07,-164.79 239.64,-158.23"/>
</g>
<!-- Node7 -->
<g id="node7" class="node">
<title>Node7</title>
<g id="a_node7"><a xlink:href="winds__wrap_8h.html" target="_top" xlink:title="Header defining the C wrapper interface to kinematic routines.">
<polygon fill="white" stroke="#666666" points="250,-129 167,-129 167,-110 250,-110 250,-129"/>
<text text-anchor="middle" x="208.5" y="-117" font-family="Helvetica,sans-Serif" font-size="10.00">winds_wrap.h</text>
</a>
</g>
</g>
<!-- Node1&#45;&gt;Node7 -->
<g id="edge7" class="edge">
<title>Node1&#45;&gt;Node7</title>
<path fill="none" stroke="#63b8ff" d="M208.5,-154.66C208.5,-145.93 208.5,-135.99 208.5,-129.09"/>
<polygon fill="#63b8ff" stroke="#63b8ff" points="205,-154.75 208.5,-164.75 212,-154.75 205,-154.75"/>
</g>
<!-- Node3 -->
<g id="node3" class="node">
<title>Node3</title>
<g id="a_node3"><a xlink:href="convective__wrap_8cpp.html" target="_top" xlink:title=" ">
<polygon fill="white" stroke="#666666" points="119,-19 0,-19 0,0 119,0 119,-19"/>
<text text-anchor="middle" x="59.5" y="-7" font-family="Helvetica,sans-Serif" font-size="10.00">convective_wrap.cpp</text>
</a>
</g>
</g>
<!-- Node2&#45;&gt;Node3 -->
<g id="edge2" class="edge">
<title>Node2&#45;&gt;Node3</title>
<path fill="none" stroke="#63b8ff" d="M59.5,-44.66C59.5,-35.93 59.5,-25.99 59.5,-19.09"/>
<polygon fill="#63b8ff" stroke="#63b8ff" points="56,-44.75 59.5,-54.75 63,-44.75 56,-44.75"/>
</g>
<!-- Node6&#45;&gt;Node5 -->
<g id="edge6" class="edge">
<title>Node6&#45;&gt;Node5</title>
<path fill="none" stroke="#63b8ff" d="M346.6,-99.95C344.28,-91.15 341.61,-81.06 339.77,-74.09"/>
<polygon fill="#63b8ff" stroke="#63b8ff" points="343.25,-100.97 349.19,-109.75 350.02,-99.19 343.25,-100.97"/>
</g>
<!-- Node7&#45;&gt;Node2 -->
<g id="edge8" class="edge">
<title>Node7&#45;&gt;Node2</title>
<path fill="none" stroke="#63b8ff" d="M174.91,-106.55C147.24,-96.71 108.66,-82.98 83.88,-74.17"/>
<polygon fill="#63b8ff" stroke="#63b8ff" points="173.97,-109.93 184.56,-109.98 176.31,-103.34 173.97,-109.93"/>
</g>
<!-- Node8 -->
<g id="node8" class="node">
<title>Node8</title>
<g id="a_node8"><a xlink:href="winds__wrap_8cpp.html" target="_top" xlink:title=" ">
<polygon fill="white" stroke="#666666" points="256,-74 161,-74 161,-55 256,-55 256,-74"/>
<text text-anchor="middle" x="208.5" y="-62" font-family="Helvetica,sans-Serif" font-size="10.00">winds_wrap.cpp</text>
</a>
</g>
</g>
<!-- Node7&#45;&gt;Node8 -->
<g id="edge9" class="edge">
<title>Node7&#45;&gt;Node8</title>
<path fill="none" stroke="#63b8ff" d="M208.5,-99.66C208.5,-90.93 208.5,-80.99 208.5,-74.09"/>
<polygon fill="#63b8ff" stroke="#63b8ff" points="205,-99.75 208.5,-109.75 212,-99.75 205,-99.75"/>
</g>
</g>
</svg>
