<?xml version="1.0" encoding="UTF-8" standalone="no"?>
<!DOCTYPE svg PUBLIC "-//W3C//DTD SVG 1.1//EN"
 "http://www.w3.org/Graphics/SVG/1.1/DTD/svg11.dtd">
<!-- Generated by graphviz version 2.43.0 (0)
 -->
<!-- Title: layer.cpp Pages: 1 -->
<svg width="664pt" height="192pt"
 viewBox="0.00 0.00 663.50 192.00" xmlns="http://www.w3.org/2000/svg" xmlns:xlink="http://www.w3.org/1999/xlink">
<g id="graph0" class="graph" transform="scale(1 1) rotate(0) translate(4 188)">
<title>layer.cpp</title>
<!-- Node1 -->
<g id="node1" class="node">
<title>Node1</title>
<g id="a_node1"><a xlink:title="Utilities and structures useful for grouping objects, conducting QC, and things that otherwise don&#39;t ...">
<polygon fill="#999999" stroke="#666666" points="439.5,-184 378.5,-184 378.5,-165 439.5,-165 439.5,-184"/>
<text text-anchor="middle" x="409" y="-172" font-family="Helvetica,sans-Serif" font-size="10.00">layer.cpp</text>
</a>
</g>
</g>
<!-- Node2 -->
<g id="node2" class="node">
<title>Node2</title>
<g id="a_node2"><a xlink:href="algorithms_8h.html" target="_top" xlink:title="Various algorithms used for searching, sorting, accumulating etc.">
<polygon fill="white" stroke="#666666" points="139,-74 13,-74 13,-55 139,-55 139,-74"/>
<text text-anchor="middle" x="76" y="-62" font-family="Helvetica,sans-Serif" font-size="10.00">SHARPlib/algorithms.h</text>
</a>
</g>
</g>
<!-- Node1&#45;&gt;Node2 -->
<g id="edge1" class="edge">
<title>Node1&#45;&gt;Node2</title>
<path fill="none" stroke="#63b8ff" d="M378.41,-170.66C334.45,-165.87 251.38,-154.12 185,-129 151.99,-116.51 117.35,-94.58 96.21,-80.05"/>
<polygon fill="#63b8ff" stroke="#63b8ff" points="97.96,-77 87.76,-74.13 93.95,-82.74 97.96,-77"/>
</g>
<!-- Node4 -->
<g id="node4" class="node">
<title>Node4</title>
<g id="a_node4"><a xlink:title=" ">
<polygon fill="#e0e0e0" stroke="#999999" points="108.5,-19 43.5,-19 43.5,0 108.5,0 108.5,-19"/>
<text text-anchor="middle" x="76" y="-7" font-family="Helvetica,sans-Serif" font-size="10.00">functional</text>
</a>
</g>
</g>
<!-- Node1&#45;&gt;Node4 -->
<g id="edge17" class="edge">
<title>Node1&#45;&gt;Node4</title>
<path fill="none" stroke="#63b8ff" d="M378.31,-171.07C291.33,-163.47 46.77,-136.75 4,-74 -10.23,-53.12 17.65,-34.7 42.76,-23.14"/>
<polygon fill="#63b8ff" stroke="#63b8ff" points="44.37,-26.26 52.15,-19.06 41.58,-19.84 44.37,-26.26"/>
</g>
<!-- Node5 -->
<g id="node5" class="node">
<title>Node5</title>
<g id="a_node5"><a xlink:href="constants_8h.html" target="_top" xlink:title="Meteorological constants useful for computations with vertical atmospheric sounding profiles.">
<polygon fill="white" stroke="#666666" points="472.5,-19 351.5,-19 351.5,0 472.5,0 472.5,-19"/>
<text text-anchor="middle" x="412" y="-7" font-family="Helvetica,sans-Serif" font-size="10.00">SHARPlib/constants.h</text>
</a>
</g>
</g>
<!-- Node1&#45;&gt;Node5 -->
<g id="edge4" class="edge">
<title>Node1&#45;&gt;Node5</title>
<path fill="none" stroke="#63b8ff" d="M421.78,-165C432.39,-157.1 446.72,-144.27 453,-129 465.5,-98.58 464.96,-85.64 453,-55 448.6,-43.73 439.86,-33.59 431.57,-25.85"/>
<polygon fill="#63b8ff" stroke="#63b8ff" points="433.77,-23.12 423.93,-19.2 429.18,-28.4 433.77,-23.12"/>
</g>
<!-- Node6 -->
<g id="node6" class="node">
<title>Node6</title>
<g id="a_node6"><a xlink:href="interp_8h.html" target="_top" xlink:title="Routines for linear interpolation of vertical atmospheric profiles.">
<polygon fill="white" stroke="#666666" points="373,-74 271,-74 271,-55 373,-55 373,-74"/>
<text text-anchor="middle" x="322" y="-62" font-family="Helvetica,sans-Serif" font-size="10.00">SHARPlib/interp.h</text>
</a>
</g>
</g>
<!-- Node1&#45;&gt;Node6 -->
<g id="edge5" class="edge">
<title>Node1&#45;&gt;Node6</title>
<path fill="none" stroke="#63b8ff" d="M401.88,-164.66C387.34,-146.61 354.04,-105.28 335.35,-82.08"/>
<polygon fill="#63b8ff" stroke="#63b8ff" points="337.97,-79.75 328.98,-74.16 332.52,-84.14 337.97,-79.75"/>
</g>
<!-- Node7 -->
<g id="node7" class="node">
<title>Node7</title>
<g id="a_node7"><a xlink:title=" ">
<polygon fill="#e0e0e0" stroke="#999999" points="333.5,-19 286.5,-19 286.5,0 333.5,0 333.5,-19"/>
<text text-anchor="middle" x="310" y="-7" font-family="Helvetica,sans-Serif" font-size="10.00">cmath</text>
</a>
</g>
</g>
<!-- Node1&#45;&gt;Node7 -->
<g id="edge16" class="edge">
<title>Node1&#45;&gt;Node7</title>
<path fill="none" stroke="#63b8ff" d="M409.21,-164.85C409.29,-143.94 406.91,-89.85 382,-55 372.05,-41.07 356.24,-30.61 341.98,-23.34"/>
<polygon fill="#63b8ff" stroke="#63b8ff" points="343.43,-20.15 332.9,-19.02 340.42,-26.47 343.43,-20.15"/>
</g>
<!-- Node8 -->
<g id="node8" class="node">
<title>Node8</title>
<g id="a_node8"><a xlink:href="layer_8h.html" target="_top" xlink:title="Data structures and functions for performing operations over atmospheric layers.">
<polygon fill="white" stroke="#666666" points="292,-129 194,-129 194,-110 292,-110 292,-129"/>
<text text-anchor="middle" x="243" y="-117" font-family="Helvetica,sans-Serif" font-size="10.00">SHARPlib/layer.h</text>
</a>
</g>
</g>
<!-- Node1&#45;&gt;Node8 -->
<g id="edge9" class="edge">
<title>Node1&#45;&gt;Node8</title>
<path fill="none" stroke="#63b8ff" d="M382.33,-164.98C354.46,-156.09 310.55,-142.07 279.48,-132.15"/>
<polygon fill="#63b8ff" stroke="#63b8ff" points="280.47,-128.79 269.88,-129.08 278.34,-135.46 280.47,-128.79"/>
</g>
<!-- Node9 -->
<g id="node9" class="node">
<title>Node9</title>
<g id="a_node9"><a xlink:title=" ">
<polygon fill="#e0e0e0" stroke="#999999" points="570.5,-129 505.5,-129 505.5,-110 570.5,-110 570.5,-129"/>
<text text-anchor="middle" x="538" y="-117" font-family="Helvetica,sans-Serif" font-size="10.00">stdexcept</text>
</a>
</g>
</g>
<!-- Node1&#45;&gt;Node9 -->
<g id="edge18" class="edge">
<title>Node1&#45;&gt;Node9</title>
<path fill="none" stroke="#63b8ff" d="M429.73,-164.98C450.76,-156.34 483.55,-142.87 507.54,-133.02"/>
<polygon fill="#63b8ff" stroke="#63b8ff" points="508.98,-136.21 516.9,-129.17 506.32,-129.73 508.98,-136.21"/>
</g>
<!-- Node10 -->
<g id="node10" class="node">
<title>Node10</title>
<g id="a_node10"><a xlink:title=" ">
<polygon fill="#e0e0e0" stroke="#999999" points="655.5,-129 588.5,-129 588.5,-110 655.5,-110 655.5,-129"/>
<text text-anchor="middle" x="622" y="-117" font-family="Helvetica,sans-Serif" font-size="10.00">fmt/core.h</text>
</a>
</g>
</g>
<!-- Node1&#45;&gt;Node10 -->
<g id="edge19" class="edge">
<title>Node1&#45;&gt;Node10</title>
<path fill="none" stroke="#63b8ff" d="M439.52,-165.91C475.97,-156.84 537.2,-141.6 578.57,-131.31"/>
<polygon fill="#63b8ff" stroke="#63b8ff" points="579.52,-134.68 588.38,-128.87 577.83,-127.88 579.52,-134.68"/>
</g>
<!-- Node3 -->
<g id="node3" class="node">
<title>Node3</title>
<g id="a_node3"><a xlink:title=" ">
<polygon fill="#e0e0e0" stroke="#999999" points="231.5,-19 178.5,-19 178.5,0 231.5,0 231.5,-19"/>
<text text-anchor="middle" x="205" y="-7" font-family="Helvetica,sans-Serif" font-size="10.00">cstddef</text>
</a>
</g>
</g>
<!-- Node2&#45;&gt;Node3 -->
<g id="edge2" class="edge">
<title>Node2&#45;&gt;Node3</title>
<path fill="none" stroke="#63b8ff" d="M96.73,-54.98C117.76,-46.34 150.55,-32.87 174.54,-23.02"/>
<polygon fill="#63b8ff" stroke="#63b8ff" points="175.98,-26.21 183.9,-19.17 173.32,-19.73 175.98,-26.21"/>
</g>
<!-- Node2&#45;&gt;Node4 -->
<g id="edge3" class="edge">
<title>Node2&#45;&gt;Node4</title>
<path fill="none" stroke="#63b8ff" d="M76,-54.75C76,-47.8 76,-37.85 76,-29.13"/>
<polygon fill="#63b8ff" stroke="#63b8ff" points="79.5,-29.09 76,-19.09 72.5,-29.09 79.5,-29.09"/>
</g>
<!-- Node6&#45;&gt;Node3 -->
<g id="edge8" class="edge">
<title>Node6&#45;&gt;Node3</title>
<path fill="none" stroke="#63b8ff" d="M303.2,-54.98C284.38,-46.46 255.18,-33.23 233.5,-23.41"/>
<polygon fill="#63b8ff" stroke="#63b8ff" points="234.69,-20.11 224.14,-19.17 231.81,-26.48 234.69,-20.11"/>
</g>
<!-- Node6&#45;&gt;Node5 -->
<g id="edge6" class="edge">
<title>Node6&#45;&gt;Node5</title>
<path fill="none" stroke="#63b8ff" d="M336.46,-54.98C350.42,-46.77 371.79,-34.18 388.25,-24.49"/>
<polygon fill="#63b8ff" stroke="#63b8ff" points="390.44,-27.26 397.28,-19.17 386.89,-21.23 390.44,-27.26"/>
</g>
<!-- Node6&#45;&gt;Node7 -->
<g id="edge7" class="edge">
<title>Node6&#45;&gt;Node7</title>
<path fill="none" stroke="#63b8ff" d="M320.02,-54.75C318.43,-47.72 316.14,-37.62 314.15,-28.84"/>
<polygon fill="#63b8ff" stroke="#63b8ff" points="317.57,-28.07 311.95,-19.09 310.74,-29.62 317.57,-28.07"/>
</g>
<!-- Node8&#45;&gt;Node2 -->
<g id="edge10" class="edge">
<title>Node8&#45;&gt;Node2</title>
<path fill="none" stroke="#63b8ff" d="M216.17,-109.98C188.13,-101.09 143.96,-87.07 112.7,-77.15"/>
<polygon fill="#63b8ff" stroke="#63b8ff" points="113.63,-73.77 103.04,-74.08 111.52,-80.44 113.63,-73.77"/>
</g>
<!-- Node8&#45;&gt;Node3 -->
<g id="edge14" class="edge">
<title>Node8&#45;&gt;Node3</title>
<path fill="none" stroke="#63b8ff" d="M239.89,-109.66C233.68,-92.01 219.63,-52.09 211.38,-28.64"/>
<polygon fill="#63b8ff" stroke="#63b8ff" points="214.67,-27.43 208.05,-19.16 208.07,-29.75 214.67,-27.43"/>
</g>
<!-- Node8&#45;&gt;Node4 -->
<g id="edge15" class="edge">
<title>Node8&#45;&gt;Node4</title>
<path fill="none" stroke="#63b8ff" d="M230.49,-109.93C212.42,-97.6 177.87,-74.2 148,-55 131.68,-44.5 113.03,-32.99 98.81,-24.31"/>
<polygon fill="#63b8ff" stroke="#63b8ff" points="100.53,-21.26 90.17,-19.05 96.89,-27.24 100.53,-21.26"/>
</g>
<!-- Node8&#45;&gt;Node5 -->
<g id="edge11" class="edge">
<title>Node8&#45;&gt;Node5</title>
<path fill="none" stroke="#63b8ff" d="M292.2,-112.68C321.23,-107.02 357.04,-95.88 382,-74 395.45,-62.22 403.33,-43.1 407.61,-28.92"/>
<polygon fill="#63b8ff" stroke="#63b8ff" points="411,-29.8 410.22,-19.23 404.24,-27.98 411,-29.8"/>
</g>
<!-- Node8&#45;&gt;Node6 -->
<g id="edge12" class="edge">
<title>Node8&#45;&gt;Node6</title>
<path fill="none" stroke="#63b8ff" d="M255.69,-109.98C267.83,-101.84 286.36,-89.41 300.75,-79.76"/>
<polygon fill="#63b8ff" stroke="#63b8ff" points="302.72,-82.65 309.08,-74.17 298.82,-76.84 302.72,-82.65"/>
</g>
<!-- Node8&#45;&gt;Node7 -->
<g id="edge13" class="edge">
<title>Node8&#45;&gt;Node7</title>
<path fill="none" stroke="#63b8ff" d="M244.14,-109.68C246.11,-96.83 251.05,-72.58 262,-55 269.06,-43.66 279.76,-33.35 289.27,-25.52"/>
<polygon fill="#63b8ff" stroke="#63b8ff" points="291.48,-28.23 297.19,-19.31 287.16,-22.72 291.48,-28.23"/>
</g>
</g>
</svg>
