<?xml version="1.0" encoding="UTF-8" standalone="no"?>
<!DOCTYPE svg PUBLIC "-//W3C//DTD SVG 1.1//EN"
 "http://www.w3.org/Graphics/SVG/1.1/DTD/svg11.dtd">
<!-- Generated by graphviz version 2.43.0 (0)
 -->
<!-- Title: sharp_get_HeightLayer_index Pages: 1 -->
<svg width="450pt" height="64pt"
 viewBox="0.00 0.00 450.00 64.00" xmlns="http://www.w3.org/2000/svg" xmlns:xlink="http://www.w3.org/1999/xlink">
<g id="graph0" class="graph" transform="scale(1 1) rotate(0) translate(4 60)">
<title>sharp_get_HeightLayer_index</title>
<!-- Node1 -->
<g id="node1" class="node">
<title>Node1</title>
<g id="a_node1"><a xlink:title=" ">
<polygon fill="#999999" stroke="#666666" points="129,-42.5 0,-42.5 0,-12.5 129,-12.5 129,-42.5"/>
<text text-anchor="start" x="8" y="-30.5" font-family="Helvetica,sans-Serif" font-size="10.00">sharp_get_HeightLayer</text>
<text text-anchor="middle" x="64.5" y="-19.5" font-family="Helvetica,sans-Serif" font-size="10.00">_index</text>
</a>
</g>
</g>
<!-- Node2 -->
<g id="node2" class="node">
<title>Node2</title>
<g id="a_node2"><a xlink:href="namespacesharp.html#ac93f477dfa774c966b5da7521bd43ee6" target="_top" xlink:title="Returns the array indices corresponding to the given layer.">
<polygon fill="white" stroke="#666666" points="293,-37 165,-37 165,-18 293,-18 293,-37"/>
<text text-anchor="middle" x="229" y="-25" font-family="Helvetica,sans-Serif" font-size="10.00">sharp::get_layer_index</text>
</a>
</g>
</g>
<!-- Node1&#45;&gt;Node2 -->
<g id="edge1" class="edge">
<title>Node1&#45;&gt;Node2</title>
<path fill="none" stroke="#63b8ff" d="M129.26,-27.5C137.6,-27.5 146.2,-27.5 154.69,-27.5"/>
<polygon fill="#63b8ff" stroke="#63b8ff" points="154.96,-31 164.96,-27.5 154.96,-24 154.96,-31"/>
</g>
<!-- Node3 -->
<g id="node3" class="node">
<title>Node3</title>
<g id="a_node3"><a xlink:href="namespacesharp.html#a1edcf8bff9a13429bcbff7c1129024b3" target="_top" xlink:title="Finds the index of the lower bound that does not satisfy element &lt; value.">
<polygon fill="white" stroke="#666666" points="441.5,-56 329.5,-56 329.5,-37 441.5,-37 441.5,-56"/>
<text text-anchor="middle" x="385.5" y="-44" font-family="Helvetica,sans-Serif" font-size="10.00">sharp::lower_bound</text>
</a>
</g>
</g>
<!-- Node2&#45;&gt;Node3 -->
<g id="edge2" class="edge">
<title>Node2&#45;&gt;Node3</title>
<path fill="none" stroke="#63b8ff" d="M293.29,-35.28C301.91,-36.34 310.78,-37.43 319.43,-38.5"/>
<polygon fill="#63b8ff" stroke="#63b8ff" points="319.12,-41.99 329.47,-39.73 319.97,-35.04 319.12,-41.99"/>
</g>
<!-- Node4 -->
<g id="node4" class="node">
<title>Node4</title>
<g id="a_node4"><a xlink:href="namespacesharp.html#a772686549a5111c1152b778731119aa6" target="_top" xlink:title="Finds the first index that satisfies value &lt; element.">
<polygon fill="white" stroke="#666666" points="442,-19 329,-19 329,0 442,0 442,-19"/>
<text text-anchor="middle" x="385.5" y="-7" font-family="Helvetica,sans-Serif" font-size="10.00">sharp::upper_bound</text>
</a>
</g>
</g>
<!-- Node2&#45;&gt;Node4 -->
<g id="edge3" class="edge">
<title>Node2&#45;&gt;Node4</title>
<path fill="none" stroke="#63b8ff" d="M293.29,-20.13C301.7,-19.15 310.34,-18.14 318.79,-17.16"/>
<polygon fill="#63b8ff" stroke="#63b8ff" points="319.46,-20.6 328.98,-15.97 318.64,-13.65 319.46,-20.6"/>
</g>
</g>
</svg>
