<?xml version="1.0" encoding="UTF-8" standalone="no"?>
<!DOCTYPE svg PUBLIC "-//W3C//DTD SVG 1.1//EN"
 "http://www.w3.org/Graphics/SVG/1.1/DTD/svg11.dtd">
<!-- Generated by graphviz version 2.43.0 (0)
 -->
<!-- Title: layer.h Pages: 1 -->
<svg width="569pt" height="192pt"
 viewBox="0.00 0.00 569.00 192.00" xmlns="http://www.w3.org/2000/svg" xmlns:xlink="http://www.w3.org/1999/xlink">
<g id="graph0" class="graph" transform="scale(1 1) rotate(0) translate(4 188)">
<title>layer.h</title>
<!-- Node1 -->
<g id="node1" class="node">
<title>Node1</title>
<g id="a_node1"><a xlink:title="Data structures and functions for performing operations over atmospheric layers.">
<polygon fill="#999999" stroke="#666666" points="272.5,-184 222.5,-184 222.5,-165 272.5,-165 272.5,-184"/>
<text text-anchor="middle" x="247.5" y="-172" font-family="Helvetica,sans-Serif" font-size="10.00">layer.h</text>
</a>
</g>
</g>
<!-- Node2 -->
<g id="node2" class="node">
<title>Node2</title>
<g id="a_node2"><a xlink:href="convective_8cpp.html" target="_top" xlink:title="Routines used to computed derived sounding parameters from vertical atmospheric profiles.">
<polygon fill="white" stroke="#666666" points="182.5,-19 92.5,-19 92.5,0 182.5,0 182.5,-19"/>
<text text-anchor="middle" x="137.5" y="-7" font-family="Helvetica,sans-Serif" font-size="10.00">convective.cpp</text>
</a>
</g>
</g>
<!-- Node1&#45;&gt;Node2 -->
<g id="edge1" class="edge">
<title>Node1&#45;&gt;Node2</title>
<path fill="none" stroke="#63b8ff" d="M212.21,-168.69C163.91,-159.88 80.06,-135.95 52.5,-74 40.45,-46.9 77.17,-28.77 106.09,-19.05"/>
<polygon fill="#63b8ff" stroke="#63b8ff" points="211.79,-172.17 222.24,-170.4 212.96,-165.27 211.79,-172.17"/>
</g>
<!-- Node3 -->
<g id="node3" class="node">
<title>Node3</title>
<g id="a_node3"><a xlink:href="convective_8h.html" target="_top" xlink:title="Routines used to computed derived sounding parameters from vertical atmospheric profiles.">
<polygon fill="white" stroke="#666666" points="334,-19 255,-19 255,0 334,0 334,-19"/>
<text text-anchor="middle" x="294.5" y="-7" font-family="Helvetica,sans-Serif" font-size="10.00">convective.h</text>
</a>
</g>
</g>
<!-- Node1&#45;&gt;Node3 -->
<g id="edge2" class="edge">
<title>Node1&#45;&gt;Node3</title>
<path fill="none" stroke="#63b8ff" d="M282.53,-169.33C332.36,-161.2 421.12,-138 452.5,-74 475.93,-26.22 388.3,-14.24 334.2,-11.33"/>
<polygon fill="#63b8ff" stroke="#63b8ff" points="281.89,-165.89 272.53,-170.84 282.94,-172.81 281.89,-165.89"/>
</g>
<!-- Node4 -->
<g id="node4" class="node">
<title>Node4</title>
<g id="a_node4"><a xlink:href="layer_8cpp.html" target="_top" xlink:title="Utilities and structures useful for grouping objects, conducting QC, and things that otherwise don&#39;t ...">
<polygon fill="white" stroke="#666666" points="561,-129 500,-129 500,-110 561,-110 561,-129"/>
<text text-anchor="middle" x="530.5" y="-117" font-family="Helvetica,sans-Serif" font-size="10.00">layer.cpp</text>
</a>
</g>
</g>
<!-- Node1&#45;&gt;Node4 -->
<g id="edge3" class="edge">
<title>Node1&#45;&gt;Node4</title>
<path fill="none" stroke="#63b8ff" d="M282.36,-167C328.74,-158.35 413.29,-142.57 485.5,-129 490.03,-128.15 494.82,-127.25 499.52,-126.36"/>
<polygon fill="#63b8ff" stroke="#63b8ff" points="281.71,-163.56 272.52,-168.84 282.99,-170.45 281.71,-163.56"/>
</g>
<!-- Node5 -->
<g id="node5" class="node">
<title>Node5</title>
<g id="a_node5"><a xlink:href="parcel_8cpp.html" target="_top" xlink:title="Routines used for parcel lifting and integration.">
<polygon fill="white" stroke="#666666" points="67,-19 0,-19 0,0 67,0 67,-19"/>
<text text-anchor="middle" x="33.5" y="-7" font-family="Helvetica,sans-Serif" font-size="10.00">parcel.cpp</text>
</a>
</g>
</g>
<!-- Node1&#45;&gt;Node5 -->
<g id="edge4" class="edge">
<title>Node1&#45;&gt;Node5</title>
<path fill="none" stroke="#63b8ff" d="M212.25,-172.55C174.65,-169.83 115.19,-160.4 75.5,-129 40.24,-101.1 34.53,-41.37 33.65,-19.1"/>
<polygon fill="#63b8ff" stroke="#63b8ff" points="212.04,-176.05 222.23,-173.16 212.46,-169.06 212.04,-176.05"/>
</g>
<!-- Node6 -->
<g id="node6" class="node">
<title>Node6</title>
<g id="a_node6"><a xlink:href="parcel_8h.html" target="_top" xlink:title="Routines used for parcel lifting and integration.">
<polygon fill="white" stroke="#666666" points="117.5,-74 61.5,-74 61.5,-55 117.5,-55 117.5,-74"/>
<text text-anchor="middle" x="89.5" y="-62" font-family="Helvetica,sans-Serif" font-size="10.00">parcel.h</text>
</a>
</g>
</g>
<!-- Node1&#45;&gt;Node6 -->
<g id="edge5" class="edge">
<title>Node1&#45;&gt;Node6</title>
<path fill="none" stroke="#63b8ff" d="M212.78,-165.46C188.96,-158.66 157.59,-147.09 134.5,-129 114.93,-113.66 100.25,-87.57 93.53,-74.1"/>
<polygon fill="#63b8ff" stroke="#63b8ff" points="211.92,-168.85 222.49,-168.08 213.75,-162.09 211.92,-168.85"/>
</g>
<!-- Node7 -->
<g id="node7" class="node">
<title>Node7</title>
<g id="a_node7"><a xlink:href="thermo_8cpp.html" target="_top" xlink:title="Thermodynamic routines that do not directly involve parcel based ascent.">
<polygon fill="white" stroke="#666666" points="283.5,-74 211.5,-74 211.5,-55 283.5,-55 283.5,-74"/>
<text text-anchor="middle" x="247.5" y="-62" font-family="Helvetica,sans-Serif" font-size="10.00">thermo.cpp</text>
</a>
</g>
</g>
<!-- Node1&#45;&gt;Node7 -->
<g id="edge9" class="edge">
<title>Node1&#45;&gt;Node7</title>
<path fill="none" stroke="#63b8ff" d="M247.5,-154.48C247.5,-130.84 247.5,-91.5 247.5,-74.16"/>
<polygon fill="#63b8ff" stroke="#63b8ff" points="244,-154.66 247.5,-164.66 251,-154.66 244,-154.66"/>
</g>
<!-- Node8 -->
<g id="node8" class="node">
<title>Node8</title>
<g id="a_node8"><a xlink:href="thermo_8h.html" target="_top" xlink:title="Routines used to compute thermodynamic attributes of vertical sounding profiles.">
<polygon fill="white" stroke="#666666" points="205,-129 144,-129 144,-110 205,-110 205,-129"/>
<text text-anchor="middle" x="174.5" y="-117" font-family="Helvetica,sans-Serif" font-size="10.00">thermo.h</text>
</a>
</g>
</g>
<!-- Node1&#45;&gt;Node8 -->
<g id="edge10" class="edge">
<title>Node1&#45;&gt;Node8</title>
<path fill="none" stroke="#63b8ff" d="M227.36,-158.88C214.22,-149.34 197.52,-137.21 186.44,-129.17"/>
<polygon fill="#63b8ff" stroke="#63b8ff" points="225.62,-161.94 235.77,-164.98 229.74,-156.28 225.62,-161.94"/>
</g>
<!-- Node9 -->
<g id="node9" class="node">
<title>Node9</title>
<g id="a_node9"><a xlink:href="winds_8cpp.html" target="_top" xlink:title="Routines used to compute kinematic attributes and indices of vertical sounding profiles.">
<polygon fill="white" stroke="#666666" points="443,-74 378,-74 378,-55 443,-55 443,-74"/>
<text text-anchor="middle" x="410.5" y="-62" font-family="Helvetica,sans-Serif" font-size="10.00">winds.cpp</text>
</a>
</g>
</g>
<!-- Node1&#45;&gt;Node9 -->
<g id="edge16" class="edge">
<title>Node1&#45;&gt;Node9</title>
<path fill="none" stroke="#63b8ff" d="M282.41,-164.46C305.49,-157.35 335.61,-145.8 358.5,-129 379.64,-113.49 397.25,-87.47 405.49,-74.06"/>
<polygon fill="#63b8ff" stroke="#63b8ff" points="281.27,-161.15 272.67,-167.33 283.25,-167.86 281.27,-161.15"/>
</g>
<!-- Node10 -->
<g id="node10" class="node">
<title>Node10</title>
<g id="a_node10"><a xlink:href="winds_8h.html" target="_top" xlink:title="Routines used to compute kinematic attributes and indices of vertical sounding profiles.">
<polygon fill="white" stroke="#666666" points="349.5,-129 295.5,-129 295.5,-110 349.5,-110 349.5,-129"/>
<text text-anchor="middle" x="322.5" y="-117" font-family="Helvetica,sans-Serif" font-size="10.00">winds.h</text>
</a>
</g>
</g>
<!-- Node1&#45;&gt;Node10 -->
<g id="edge17" class="edge">
<title>Node1&#45;&gt;Node10</title>
<path fill="none" stroke="#63b8ff" d="M267.81,-159.15C281.36,-149.57 298.74,-137.29 310.23,-129.17"/>
<polygon fill="#63b8ff" stroke="#63b8ff" points="265.7,-156.36 259.55,-164.98 269.74,-162.07 265.7,-156.36"/>
</g>
<!-- Node6&#45;&gt;Node2 -->
<g id="edge6" class="edge">
<title>Node6&#45;&gt;Node2</title>
<path fill="none" stroke="#63b8ff" d="M104.23,-47.24C112.64,-37.95 122.85,-26.68 129.72,-19.09"/>
<polygon fill="#63b8ff" stroke="#63b8ff" points="101.54,-44.99 97.43,-54.75 106.73,-49.69 101.54,-44.99"/>
</g>
<!-- Node6&#45;&gt;Node3 -->
<g id="edge7" class="edge">
<title>Node6&#45;&gt;Node3</title>
<path fill="none" stroke="#63b8ff" d="M127.36,-53.71C165.78,-43.78 224.69,-28.55 261.34,-19.07"/>
<polygon fill="#63b8ff" stroke="#63b8ff" points="126.38,-50.35 117.57,-56.24 128.13,-57.13 126.38,-50.35"/>
</g>
<!-- Node6&#45;&gt;Node5 -->
<g id="edge8" class="edge">
<title>Node6&#45;&gt;Node5</title>
<path fill="none" stroke="#63b8ff" d="M73.17,-48.04C63.24,-38.64 50.91,-26.98 42.66,-19.17"/>
<polygon fill="#63b8ff" stroke="#63b8ff" points="70.83,-50.65 80.5,-54.98 75.65,-45.57 70.83,-50.65"/>
</g>
<!-- Node8&#45;&gt;Node2 -->
<g id="edge11" class="edge">
<title>Node8&#45;&gt;Node2</title>
<path fill="none" stroke="#63b8ff" d="M168.2,-100.12C160.13,-76.56 146.46,-36.66 140.47,-19.16"/>
<polygon fill="#63b8ff" stroke="#63b8ff" points="164.92,-101.34 171.47,-109.66 171.54,-99.07 164.92,-101.34"/>
</g>
<!-- Node8&#45;&gt;Node3 -->
<g id="edge12" class="edge">
<title>Node8&#45;&gt;Node3</title>
<path fill="none" stroke="#63b8ff" d="M179,-99.73C183.14,-85.91 190.48,-67.45 202.5,-55 219.38,-37.51 244.54,-26 264.29,-19.07"/>
<polygon fill="#63b8ff" stroke="#63b8ff" points="175.56,-99.04 176.35,-109.6 182.32,-100.86 175.56,-99.04"/>
</g>
<!-- Node8&#45;&gt;Node5 -->
<g id="edge13" class="edge">
<title>Node8&#45;&gt;Node5</title>
<path fill="none" stroke="#63b8ff" d="M133.82,-113.2C107.27,-107.68 73.73,-96.52 52.5,-74 37.98,-58.59 34.52,-32.53 33.72,-19.09"/>
<polygon fill="#63b8ff" stroke="#63b8ff" points="133.5,-116.7 143.97,-115.11 134.79,-109.82 133.5,-116.7"/>
</g>
<!-- Node8&#45;&gt;Node6 -->
<g id="edge14" class="edge">
<title>Node8&#45;&gt;Node6</title>
<path fill="none" stroke="#63b8ff" d="M151.93,-104.42C136.5,-94.81 116.55,-82.37 103.41,-74.17"/>
<polygon fill="#63b8ff" stroke="#63b8ff" points="150.51,-107.66 160.84,-109.98 154.21,-101.72 150.51,-107.66"/>
</g>
<!-- Node8&#45;&gt;Node7 -->
<g id="edge15" class="edge">
<title>Node8&#45;&gt;Node7</title>
<path fill="none" stroke="#63b8ff" d="M194.64,-103.88C207.78,-94.34 224.48,-82.21 235.56,-74.17"/>
<polygon fill="#63b8ff" stroke="#63b8ff" points="192.26,-101.28 186.23,-109.98 196.38,-106.94 192.26,-101.28"/>
</g>
<!-- Node10&#45;&gt;Node2 -->
<g id="edge18" class="edge">
<title>Node10&#45;&gt;Node2</title>
<path fill="none" stroke="#63b8ff" d="M318.21,-99.97C313.98,-85.72 306.12,-66.58 292.5,-55 261.68,-28.8 216.27,-18 182.56,-13.56"/>
<polygon fill="#63b8ff" stroke="#63b8ff" points="314.84,-100.92 320.77,-109.7 321.61,-99.14 314.84,-100.92"/>
</g>
<!-- Node10&#45;&gt;Node3 -->
<g id="edge19" class="edge">
<title>Node10&#45;&gt;Node3</title>
<path fill="none" stroke="#63b8ff" d="M326.75,-99.63C328.84,-86.77 330.05,-69.5 325.5,-55 321.1,-40.99 310.55,-27.53 302.98,-19.15"/>
<polygon fill="#63b8ff" stroke="#63b8ff" points="323.28,-99.14 324.8,-109.63 330.15,-100.48 323.28,-99.14"/>
</g>
<!-- Node10&#45;&gt;Node9 -->
<g id="edge20" class="edge">
<title>Node10&#45;&gt;Node9</title>
<path fill="none" stroke="#63b8ff" d="M345.42,-104.7C361.45,-95.04 382.37,-82.44 396.1,-74.17"/>
<polygon fill="#63b8ff" stroke="#63b8ff" points="343.4,-101.83 336.64,-109.98 347.01,-107.82 343.4,-101.83"/>
</g>
</g>
</svg>
