<?xml version="1.0" encoding="UTF-8" standalone="no"?>
<!DOCTYPE svg PUBLIC "-//W3C//DTD SVG 1.1//EN"
 "http://www.w3.org/Graphics/SVG/1.1/DTD/svg11.dtd">
<!-- Generated by graphviz version 2.43.0 (0)
 -->
<!-- Title: sharp_PressureLayer_mean Pages: 1 -->
<svg width="890pt" height="138pt"
 viewBox="0.00 0.00 890.00 138.00" xmlns="http://www.w3.org/2000/svg" xmlns:xlink="http://www.w3.org/1999/xlink">
<g id="graph0" class="graph" transform="scale(1 1) rotate(0) translate(4 134)">
<title>sharp_PressureLayer_mean</title>
<!-- Node1 -->
<g id="node1" class="node">
<title>Node1</title>
<g id="a_node1"><a xlink:title=" ">
<polygon fill="#999999" stroke="#666666" points="151,-74 0,-74 0,-55 151,-55 151,-74"/>
<text text-anchor="middle" x="75.5" y="-62" font-family="Helvetica,sans-Serif" font-size="10.00">sharp_PressureLayer_mean</text>
</a>
</g>
</g>
<!-- Node2 -->
<g id="node2" class="node">
<title>Node2</title>
<g id="a_node2"><a xlink:href="namespacesharp.html#a298e2c96c389f2c5177d3626c908927e" target="_top" xlink:title="Computes the mass&#45;weighted mean value of a field over a given pressure layer.">
<polygon fill="white" stroke="#666666" points="294,-74 187,-74 187,-55 294,-55 294,-74"/>
<text text-anchor="middle" x="240.5" y="-62" font-family="Helvetica,sans-Serif" font-size="10.00">sharp::layer_mean</text>
</a>
</g>
</g>
<!-- Node1&#45;&gt;Node2 -->
<g id="edge1" class="edge">
<title>Node1&#45;&gt;Node2</title>
<path fill="none" stroke="#63b8ff" d="M151.32,-64.5C159.68,-64.5 168.13,-64.5 176.32,-64.5"/>
<polygon fill="#63b8ff" stroke="#63b8ff" points="176.53,-68 186.53,-64.5 176.53,-61 176.53,-68"/>
</g>
<!-- Node3 -->
<g id="node3" class="node">
<title>Node3</title>
<g id="a_node3"><a xlink:href="namespacesharp.html#a7acec1642f27591dc988bf9e48b4612d" target="_top" xlink:title="Returns a trapezoidal integration of the given layer.">
<polygon fill="white" stroke="#666666" points="454,-79.5 330,-79.5 330,-49.5 454,-49.5 454,-79.5"/>
<text text-anchor="start" x="338" y="-67.5" font-family="Helvetica,sans-Serif" font-size="10.00">sharp::integrate_layer</text>
<text text-anchor="middle" x="392" y="-56.5" font-family="Helvetica,sans-Serif" font-size="10.00">_trapz</text>
</a>
</g>
</g>
<!-- Node2&#45;&gt;Node3 -->
<g id="edge2" class="edge">
<title>Node2&#45;&gt;Node3</title>
<path fill="none" stroke="#63b8ff" d="M294.21,-64.5C302.49,-64.5 311.16,-64.5 319.77,-64.5"/>
<polygon fill="#63b8ff" stroke="#63b8ff" points="319.82,-68 329.82,-64.5 319.82,-61 319.82,-68"/>
</g>
<!-- Node4 -->
<g id="node4" class="node">
<title>Node4</title>
<g id="a_node4"><a xlink:href="namespacesharp.html#a3558a68454edd4679ef97335e3a9f1fb" target="_top" xlink:title="A kernel that computes the area under a curve using the trapezoidal rule.">
<polygon fill="white" stroke="#666666" points="609,-130 499,-130 499,-111 609,-111 609,-130"/>
<text text-anchor="middle" x="554" y="-118" font-family="Helvetica,sans-Serif" font-size="10.00">sharp::_integ_trapz</text>
</a>
</g>
</g>
<!-- Node3&#45;&gt;Node4 -->
<g id="edge3" class="edge">
<title>Node3&#45;&gt;Node4</title>
<path fill="none" stroke="#63b8ff" d="M429.09,-79.58C447.22,-86.92 469.61,-95.61 490,-102.5 495.66,-104.41 501.65,-106.3 507.6,-108.09"/>
<polygon fill="#63b8ff" stroke="#63b8ff" points="506.92,-111.54 517.5,-111 508.89,-104.82 506.92,-111.54"/>
</g>
<!-- Node5 -->
<g id="node5" class="node">
<title>Node5</title>
<g id="a_node5"><a xlink:href="namespacesharp.html#ac93f477dfa774c966b5da7521bd43ee6" target="_top" xlink:title="Returns the array indices corresponding to the given layer.">
<polygon fill="white" stroke="#666666" points="618,-93 490,-93 490,-74 618,-74 618,-93"/>
<text text-anchor="middle" x="554" y="-81" font-family="Helvetica,sans-Serif" font-size="10.00">sharp::get_layer_index</text>
</a>
</g>
</g>
<!-- Node3&#45;&gt;Node5 -->
<g id="edge4" class="edge">
<title>Node3&#45;&gt;Node5</title>
<path fill="none" stroke="#63b8ff" d="M454.4,-71.79C462.76,-72.78 471.41,-73.81 479.95,-74.83"/>
<polygon fill="#63b8ff" stroke="#63b8ff" points="479.56,-78.3 489.91,-76.01 480.39,-71.35 479.56,-78.3"/>
</g>
<!-- Node8 -->
<g id="node8" class="node">
<title>Node8</title>
<g id="a_node8"><a xlink:href="namespacesharp.html#af8484e9fe21c025b64ecffde614feb11" target="_top" xlink:title="Linearly interpolate a data field to a requested height level.">
<polygon fill="white" stroke="#666666" points="611,-56 497,-56 497,-37 611,-37 611,-56"/>
<text text-anchor="middle" x="554" y="-44" font-family="Helvetica,sans-Serif" font-size="10.00">sharp::interp_height</text>
</a>
</g>
</g>
<!-- Node3&#45;&gt;Node8 -->
<g id="edge7" class="edge">
<title>Node3&#45;&gt;Node8</title>
<path fill="none" stroke="#63b8ff" d="M454.4,-57.59C464.95,-56.41 475.96,-55.17 486.64,-53.97"/>
<polygon fill="#63b8ff" stroke="#63b8ff" points="487.2,-57.42 496.74,-52.83 486.42,-50.47 487.2,-57.42"/>
</g>
<!-- Node11 -->
<g id="node11" class="node">
<title>Node11</title>
<g id="a_node11"><a xlink:href="namespacesharp.html#a7ed0899941867073e5062af04fdbd3e7" target="_top" xlink:title="Linearly interpolate a data field to a requested pressure level.">
<polygon fill="white" stroke="#666666" points="616.5,-19 491.5,-19 491.5,0 616.5,0 616.5,-19"/>
<text text-anchor="middle" x="554" y="-7" font-family="Helvetica,sans-Serif" font-size="10.00">sharp::interp_pressure</text>
</a>
</g>
</g>
<!-- Node3&#45;&gt;Node11 -->
<g id="edge11" class="edge">
<title>Node3&#45;&gt;Node11</title>
<path fill="none" stroke="#63b8ff" d="M431.98,-49.4C449.61,-42.74 470.76,-34.96 490,-28.5 496.48,-26.32 503.36,-24.13 510.12,-22.04"/>
<polygon fill="#63b8ff" stroke="#63b8ff" points="511.31,-25.34 519.85,-19.07 509.27,-18.64 511.31,-25.34"/>
</g>
<!-- Node6 -->
<g id="node6" class="node">
<title>Node6</title>
<g id="a_node6"><a xlink:href="namespacesharp.html#a1edcf8bff9a13429bcbff7c1129024b3" target="_top" xlink:title="Finds the index of the lower bound that does not satisfy element &lt; value.">
<polygon fill="white" stroke="#666666" points="766.5,-93 654.5,-93 654.5,-74 766.5,-74 766.5,-93"/>
<text text-anchor="middle" x="710.5" y="-81" font-family="Helvetica,sans-Serif" font-size="10.00">sharp::lower_bound</text>
</a>
</g>
</g>
<!-- Node5&#45;&gt;Node6 -->
<g id="edge5" class="edge">
<title>Node5&#45;&gt;Node6</title>
<path fill="none" stroke="#63b8ff" d="M618.29,-83.5C626.91,-83.5 635.78,-83.5 644.43,-83.5"/>
<polygon fill="#63b8ff" stroke="#63b8ff" points="644.47,-87 654.47,-83.5 644.47,-80 644.47,-87"/>
</g>
<!-- Node7 -->
<g id="node7" class="node">
<title>Node7</title>
<g id="a_node7"><a xlink:href="namespacesharp.html#a772686549a5111c1152b778731119aa6" target="_top" xlink:title="Finds the first index that satisfies value &lt; element.">
<polygon fill="white" stroke="#666666" points="767,-56 654,-56 654,-37 767,-37 767,-56"/>
<text text-anchor="middle" x="710.5" y="-44" font-family="Helvetica,sans-Serif" font-size="10.00">sharp::upper_bound</text>
</a>
</g>
</g>
<!-- Node5&#45;&gt;Node7 -->
<g id="edge6" class="edge">
<title>Node5&#45;&gt;Node7</title>
<path fill="none" stroke="#63b8ff" d="M594.79,-73.97C614.62,-69.22 638.81,-63.43 659.85,-58.39"/>
<polygon fill="#63b8ff" stroke="#63b8ff" points="660.67,-61.79 669.58,-56.06 659.04,-54.99 660.67,-61.79"/>
</g>
<!-- Node8&#45;&gt;Node7 -->
<g id="edge10" class="edge">
<title>Node8&#45;&gt;Node7</title>
<path fill="none" stroke="#63b8ff" d="M611.22,-46.5C621.74,-46.5 632.83,-46.5 643.62,-46.5"/>
<polygon fill="#63b8ff" stroke="#63b8ff" points="643.84,-50 653.84,-46.5 643.84,-43 643.84,-50"/>
</g>
<!-- Node9 -->
<g id="node9" class="node">
<title>Node9</title>
<g id="a_node9"><a xlink:href="namespacesharp.html#a8aa123fbe3b59a7023446b0fe2186c49" target="_top" xlink:title="Linearly interpolates between a and b with distance t.">
<polygon fill="white" stroke="#666666" points="744.5,-19 676.5,-19 676.5,0 744.5,0 744.5,-19"/>
<text text-anchor="middle" x="710.5" y="-7" font-family="Helvetica,sans-Serif" font-size="10.00">sharp::lerp</text>
</a>
</g>
</g>
<!-- Node8&#45;&gt;Node9 -->
<g id="edge8" class="edge">
<title>Node8&#45;&gt;Node9</title>
<path fill="none" stroke="#63b8ff" d="M594.79,-36.97C616.73,-31.72 643.99,-25.19 666.43,-19.81"/>
<polygon fill="#63b8ff" stroke="#63b8ff" points="667.46,-23.17 676.37,-17.43 665.83,-16.36 667.46,-23.17"/>
</g>
<!-- Node10 -->
<g id="node10" class="node">
<title>Node10</title>
<g id="a_node10"><a xlink:href="namespacesharp.html#a8848423b96dfe09b90322efd2cc5bd43" target="_top" xlink:title="Linearly interpolates between a and b with distance t.">
<polygon fill="white" stroke="#666666" points="882,-19 803,-19 803,0 882,0 882,-19"/>
<text text-anchor="middle" x="842.5" y="-7" font-family="Helvetica,sans-Serif" font-size="10.00">sharp::__lerp</text>
</a>
</g>
</g>
<!-- Node9&#45;&gt;Node10 -->
<g id="edge9" class="edge">
<title>Node9&#45;&gt;Node10</title>
<path fill="none" stroke="#63b8ff" d="M744.64,-9.5C759.2,-9.5 776.6,-9.5 792.61,-9.5"/>
<polygon fill="#63b8ff" stroke="#63b8ff" points="792.88,-13 802.88,-9.5 792.88,-6 792.88,-13"/>
</g>
<!-- Node11&#45;&gt;Node7 -->
<g id="edge13" class="edge">
<title>Node11&#45;&gt;Node7</title>
<path fill="none" stroke="#63b8ff" d="M594.79,-19.03C614.62,-23.78 638.81,-29.57 659.85,-34.61"/>
<polygon fill="#63b8ff" stroke="#63b8ff" points="659.04,-38.01 669.58,-36.94 660.67,-31.21 659.04,-38.01"/>
</g>
<!-- Node11&#45;&gt;Node9 -->
<g id="edge12" class="edge">
<title>Node11&#45;&gt;Node9</title>
<path fill="none" stroke="#63b8ff" d="M616.51,-9.5C633.05,-9.5 650.6,-9.5 665.95,-9.5"/>
<polygon fill="#63b8ff" stroke="#63b8ff" points="666.18,-13 676.18,-9.5 666.18,-6 666.18,-13"/>
</g>
</g>
</svg>
