<?xml version="1.0" encoding="UTF-8" standalone="no"?>
<!DOCTYPE svg PUBLIC "-//W3C//DTD SVG 1.1//EN"
 "http://www.w3.org/Graphics/SVG/1.1/DTD/svg11.dtd">
<!-- Generated by graphviz version 2.43.0 (0)
 -->
<!-- Title: sharp_PressureLayer_to_HeightLayer Pages: 1 -->
<svg width="709pt" height="64pt"
 viewBox="0.00 0.00 709.00 64.00" xmlns="http://www.w3.org/2000/svg" xmlns:xlink="http://www.w3.org/1999/xlink">
<g id="graph0" class="graph" transform="scale(1 1) rotate(0) translate(4 60)">
<title>sharp_PressureLayer_to_HeightLayer</title>
<!-- Node1 -->
<g id="node1" class="node">
<title>Node1</title>
<g id="a_node1"><a xlink:title=" ">
<polygon fill="#999999" stroke="#666666" points="118,-42.5 0,-42.5 0,-12.5 118,-12.5 118,-42.5"/>
<text text-anchor="start" x="8" y="-30.5" font-family="Helvetica,sans-Serif" font-size="10.00">sharp_PressureLayer</text>
<text text-anchor="middle" x="59" y="-19.5" font-family="Helvetica,sans-Serif" font-size="10.00">_to_HeightLayer</text>
</a>
</g>
</g>
<!-- Node2 -->
<g id="node2" class="node">
<title>Node2</title>
<g id="a_node2"><a xlink:href="namespacesharp.html#a31da980f398c9f6a5960ddf868101a94" target="_top" xlink:title="Converts a sharp::PressureLayer to a sharp::HeightLayer.">
<polygon fill="white" stroke="#666666" points="276,-42.5 154,-42.5 154,-12.5 276,-12.5 276,-42.5"/>
<text text-anchor="start" x="162" y="-30.5" font-family="Helvetica,sans-Serif" font-size="10.00">sharp::pressure_layer</text>
<text text-anchor="middle" x="215" y="-19.5" font-family="Helvetica,sans-Serif" font-size="10.00">_to_height</text>
</a>
</g>
</g>
<!-- Node1&#45;&gt;Node2 -->
<g id="edge1" class="edge">
<title>Node1&#45;&gt;Node2</title>
<path fill="none" stroke="#63b8ff" d="M118.22,-27.5C126.61,-27.5 135.31,-27.5 143.9,-27.5"/>
<polygon fill="#63b8ff" stroke="#63b8ff" points="143.9,-31 153.9,-27.5 143.9,-24 143.9,-31"/>
</g>
<!-- Node3 -->
<g id="node3" class="node">
<title>Node3</title>
<g id="a_node3"><a xlink:href="namespacesharp.html#a7ed0899941867073e5062af04fdbd3e7" target="_top" xlink:title="Linearly interpolate a data field to a requested pressure level.">
<polygon fill="white" stroke="#666666" points="437,-37 312,-37 312,-18 437,-18 437,-37"/>
<text text-anchor="middle" x="374.5" y="-25" font-family="Helvetica,sans-Serif" font-size="10.00">sharp::interp_pressure</text>
</a>
</g>
</g>
<!-- Node2&#45;&gt;Node3 -->
<g id="edge2" class="edge">
<title>Node2&#45;&gt;Node3</title>
<path fill="none" stroke="#63b8ff" d="M276.44,-27.5C284.71,-27.5 293.26,-27.5 301.7,-27.5"/>
<polygon fill="#63b8ff" stroke="#63b8ff" points="301.92,-31 311.92,-27.5 301.92,-24 301.92,-31"/>
</g>
<!-- Node4 -->
<g id="node4" class="node">
<title>Node4</title>
<g id="a_node4"><a xlink:href="namespacesharp.html#a8aa123fbe3b59a7023446b0fe2186c49" target="_top" xlink:title="Linearly interpolates between a and b with distance t.">
<polygon fill="white" stroke="#666666" points="563.5,-56 495.5,-56 495.5,-37 563.5,-37 563.5,-56"/>
<text text-anchor="middle" x="529.5" y="-44" font-family="Helvetica,sans-Serif" font-size="10.00">sharp::lerp</text>
</a>
</g>
</g>
<!-- Node3&#45;&gt;Node4 -->
<g id="edge3" class="edge">
<title>Node3&#45;&gt;Node4</title>
<path fill="none" stroke="#63b8ff" d="M437.29,-35.17C453.46,-37.18 470.55,-39.3 485.5,-41.16"/>
<polygon fill="#63b8ff" stroke="#63b8ff" points="485.12,-44.64 495.48,-42.4 485.99,-37.69 485.12,-44.64"/>
</g>
<!-- Node6 -->
<g id="node6" class="node">
<title>Node6</title>
<g id="a_node6"><a xlink:href="namespacesharp.html#a772686549a5111c1152b778731119aa6" target="_top" xlink:title="Finds the first index that satisfies value &lt; element.">
<polygon fill="white" stroke="#666666" points="586,-19 473,-19 473,0 586,0 586,-19"/>
<text text-anchor="middle" x="529.5" y="-7" font-family="Helvetica,sans-Serif" font-size="10.00">sharp::upper_bound</text>
</a>
</g>
</g>
<!-- Node3&#45;&gt;Node6 -->
<g id="edge5" class="edge">
<title>Node3&#45;&gt;Node6</title>
<path fill="none" stroke="#63b8ff" d="M437.29,-20.23C445.66,-19.25 454.28,-18.23 462.72,-17.24"/>
<polygon fill="#63b8ff" stroke="#63b8ff" points="463.37,-20.69 472.9,-16.04 462.56,-13.73 463.37,-20.69"/>
</g>
<!-- Node5 -->
<g id="node5" class="node">
<title>Node5</title>
<g id="a_node5"><a xlink:href="namespacesharp.html#a8848423b96dfe09b90322efd2cc5bd43" target="_top" xlink:title="Linearly interpolates between a and b with distance t.">
<polygon fill="white" stroke="#666666" points="701,-56 622,-56 622,-37 701,-37 701,-56"/>
<text text-anchor="middle" x="661.5" y="-44" font-family="Helvetica,sans-Serif" font-size="10.00">sharp::__lerp</text>
</a>
</g>
</g>
<!-- Node4&#45;&gt;Node5 -->
<g id="edge4" class="edge">
<title>Node4&#45;&gt;Node5</title>
<path fill="none" stroke="#63b8ff" d="M563.64,-46.5C578.2,-46.5 595.6,-46.5 611.61,-46.5"/>
<polygon fill="#63b8ff" stroke="#63b8ff" points="611.88,-50 621.88,-46.5 611.88,-43 611.88,-50"/>
</g>
</g>
</svg>
