<?xml version="1.0" encoding="UTF-8" standalone="no"?>
<!DOCTYPE svg PUBLIC "-//W3C//DTD SVG 1.1//EN"
 "http://www.w3.org/Graphics/SVG/1.1/DTD/svg11.dtd">
<!-- Generated by graphviz version 2.43.0 (0)
 -->
<!-- Title: sharp_HeightLayer_max Pages: 1 -->
<svg width="864pt" height="101pt"
 viewBox="0.00 0.00 864.00 101.00" xmlns="http://www.w3.org/2000/svg" xmlns:xlink="http://www.w3.org/1999/xlink">
<g id="graph0" class="graph" transform="scale(1 1) rotate(0) translate(4 97)">
<title>sharp_HeightLayer_max</title>
<!-- Node1 -->
<g id="node1" class="node">
<title>Node1</title>
<g id="a_node1"><a xlink:title=" ">
<polygon fill="#999999" stroke="#666666" points="135,-56 0,-56 0,-37 135,-37 135,-56"/>
<text text-anchor="middle" x="67.5" y="-44" font-family="Helvetica,sans-Serif" font-size="10.00">sharp_HeightLayer_max</text>
</a>
</g>
</g>
<!-- Node2 -->
<g id="node2" class="node">
<title>Node2</title>
<g id="a_node2"><a xlink:href="namespacesharp.html#a6170e3f412ab95b3ba8d9a93ae55dc67" target="_top" xlink:title="Returns the maximim value in the given layer.">
<polygon fill="white" stroke="#666666" points="272,-56 171,-56 171,-37 272,-37 272,-56"/>
<text text-anchor="middle" x="221.5" y="-44" font-family="Helvetica,sans-Serif" font-size="10.00">sharp::layer_max</text>
</a>
</g>
</g>
<!-- Node1&#45;&gt;Node2 -->
<g id="edge1" class="edge">
<title>Node1&#45;&gt;Node2</title>
<path fill="none" stroke="#63b8ff" d="M135.17,-46.5C143.68,-46.5 152.34,-46.5 160.73,-46.5"/>
<polygon fill="#63b8ff" stroke="#63b8ff" points="160.79,-50 170.79,-46.5 160.79,-43 160.79,-50"/>
</g>
<!-- Node3 -->
<g id="node3" class="node">
<title>Node3</title>
<g id="a_node3"><a xlink:href="namespacesharp.html#a646b65095b84511b75f6a4a81e545e80" target="_top" xlink:title="Template for min/max value over sharp::PressureLayer or sharp::HeightLayer.">
<polygon fill="white" stroke="#666666" points="428,-56 308,-56 308,-37 428,-37 428,-56"/>
<text text-anchor="middle" x="368" y="-44" font-family="Helvetica,sans-Serif" font-size="10.00">sharp::layer_minmax</text>
</a>
</g>
</g>
<!-- Node2&#45;&gt;Node3 -->
<g id="edge2" class="edge">
<title>Node2&#45;&gt;Node3</title>
<path fill="none" stroke="#63b8ff" d="M272.23,-46.5C280.5,-46.5 289.21,-46.5 297.87,-46.5"/>
<polygon fill="#63b8ff" stroke="#63b8ff" points="297.96,-50 307.96,-46.5 297.96,-43 297.96,-50"/>
</g>
<!-- Node4 -->
<g id="node4" class="node">
<title>Node4</title>
<g id="a_node4"><a xlink:href="namespacesharp.html#ac93f477dfa774c966b5da7521bd43ee6" target="_top" xlink:title="Returns the array indices corresponding to the given layer.">
<polygon fill="white" stroke="#666666" points="592,-93 464,-93 464,-74 592,-74 592,-93"/>
<text text-anchor="middle" x="528" y="-81" font-family="Helvetica,sans-Serif" font-size="10.00">sharp::get_layer_index</text>
</a>
</g>
</g>
<!-- Node3&#45;&gt;Node4 -->
<g id="edge3" class="edge">
<title>Node3&#45;&gt;Node4</title>
<path fill="none" stroke="#63b8ff" d="M409.69,-56.03C429.97,-60.78 454.71,-66.57 476.22,-71.61"/>
<polygon fill="#63b8ff" stroke="#63b8ff" points="475.64,-75.07 486.17,-73.94 477.24,-68.25 475.64,-75.07"/>
</g>
<!-- Node7 -->
<g id="node7" class="node">
<title>Node7</title>
<g id="a_node7"><a xlink:href="namespacesharp.html#af8484e9fe21c025b64ecffde614feb11" target="_top" xlink:title="Linearly interpolate a data field to a requested height level.">
<polygon fill="white" stroke="#666666" points="585,-19 471,-19 471,0 585,0 585,-19"/>
<text text-anchor="middle" x="528" y="-7" font-family="Helvetica,sans-Serif" font-size="10.00">sharp::interp_height</text>
</a>
</g>
</g>
<!-- Node3&#45;&gt;Node7 -->
<g id="edge6" class="edge">
<title>Node3&#45;&gt;Node7</title>
<path fill="none" stroke="#63b8ff" d="M409.69,-36.97C429.97,-32.22 454.71,-26.43 476.22,-21.39"/>
<polygon fill="#63b8ff" stroke="#63b8ff" points="477.24,-24.75 486.17,-19.06 475.64,-17.93 477.24,-24.75"/>
</g>
<!-- Node10 -->
<g id="node10" class="node">
<title>Node10</title>
<g id="a_node10"><a xlink:href="namespacesharp.html#a7ed0899941867073e5062af04fdbd3e7" target="_top" xlink:title="Linearly interpolate a data field to a requested pressure level.">
<polygon fill="white" stroke="#666666" points="590.5,-56 465.5,-56 465.5,-37 590.5,-37 590.5,-56"/>
<text text-anchor="middle" x="528" y="-44" font-family="Helvetica,sans-Serif" font-size="10.00">sharp::interp_pressure</text>
</a>
</g>
</g>
<!-- Node3&#45;&gt;Node10 -->
<g id="edge10" class="edge">
<title>Node3&#45;&gt;Node10</title>
<path fill="none" stroke="#63b8ff" d="M428.28,-46.5C437.06,-46.5 446.19,-46.5 455.19,-46.5"/>
<polygon fill="#63b8ff" stroke="#63b8ff" points="455.27,-50 465.27,-46.5 455.27,-43 455.27,-50"/>
</g>
<!-- Node5 -->
<g id="node5" class="node">
<title>Node5</title>
<g id="a_node5"><a xlink:href="namespacesharp.html#a1edcf8bff9a13429bcbff7c1129024b3" target="_top" xlink:title="Finds the index of the lower bound that does not satisfy element &lt; value.">
<polygon fill="white" stroke="#666666" points="740.5,-93 628.5,-93 628.5,-74 740.5,-74 740.5,-93"/>
<text text-anchor="middle" x="684.5" y="-81" font-family="Helvetica,sans-Serif" font-size="10.00">sharp::lower_bound</text>
</a>
</g>
</g>
<!-- Node4&#45;&gt;Node5 -->
<g id="edge4" class="edge">
<title>Node4&#45;&gt;Node5</title>
<path fill="none" stroke="#63b8ff" d="M592.29,-83.5C600.91,-83.5 609.78,-83.5 618.43,-83.5"/>
<polygon fill="#63b8ff" stroke="#63b8ff" points="618.47,-87 628.47,-83.5 618.47,-80 618.47,-87"/>
</g>
<!-- Node6 -->
<g id="node6" class="node">
<title>Node6</title>
<g id="a_node6"><a xlink:href="namespacesharp.html#a772686549a5111c1152b778731119aa6" target="_top" xlink:title="Finds the first index that satisfies value &lt; element.">
<polygon fill="white" stroke="#666666" points="741,-56 628,-56 628,-37 741,-37 741,-56"/>
<text text-anchor="middle" x="684.5" y="-44" font-family="Helvetica,sans-Serif" font-size="10.00">sharp::upper_bound</text>
</a>
</g>
</g>
<!-- Node4&#45;&gt;Node6 -->
<g id="edge5" class="edge">
<title>Node4&#45;&gt;Node6</title>
<path fill="none" stroke="#63b8ff" d="M568.79,-73.97C588.62,-69.22 612.81,-63.43 633.85,-58.39"/>
<polygon fill="#63b8ff" stroke="#63b8ff" points="634.67,-61.79 643.58,-56.06 633.04,-54.99 634.67,-61.79"/>
</g>
<!-- Node7&#45;&gt;Node6 -->
<g id="edge9" class="edge">
<title>Node7&#45;&gt;Node6</title>
<path fill="none" stroke="#63b8ff" d="M568.79,-19.03C588.62,-23.78 612.81,-29.57 633.85,-34.61"/>
<polygon fill="#63b8ff" stroke="#63b8ff" points="633.04,-38.01 643.58,-36.94 634.67,-31.21 633.04,-38.01"/>
</g>
<!-- Node8 -->
<g id="node8" class="node">
<title>Node8</title>
<g id="a_node8"><a xlink:href="namespacesharp.html#a8aa123fbe3b59a7023446b0fe2186c49" target="_top" xlink:title="Linearly interpolates between a and b with distance t.">
<polygon fill="white" stroke="#666666" points="718.5,-19 650.5,-19 650.5,0 718.5,0 718.5,-19"/>
<text text-anchor="middle" x="684.5" y="-7" font-family="Helvetica,sans-Serif" font-size="10.00">sharp::lerp</text>
</a>
</g>
</g>
<!-- Node7&#45;&gt;Node8 -->
<g id="edge7" class="edge">
<title>Node7&#45;&gt;Node8</title>
<path fill="none" stroke="#63b8ff" d="M585.22,-9.5C603.36,-9.5 623.19,-9.5 640.25,-9.5"/>
<polygon fill="#63b8ff" stroke="#63b8ff" points="640.48,-13 650.48,-9.5 640.48,-6 640.48,-13"/>
</g>
<!-- Node9 -->
<g id="node9" class="node">
<title>Node9</title>
<g id="a_node9"><a xlink:href="namespacesharp.html#a8848423b96dfe09b90322efd2cc5bd43" target="_top" xlink:title="Linearly interpolates between a and b with distance t.">
<polygon fill="white" stroke="#666666" points="856,-19 777,-19 777,0 856,0 856,-19"/>
<text text-anchor="middle" x="816.5" y="-7" font-family="Helvetica,sans-Serif" font-size="10.00">sharp::__lerp</text>
</a>
</g>
</g>
<!-- Node8&#45;&gt;Node9 -->
<g id="edge8" class="edge">
<title>Node8&#45;&gt;Node9</title>
<path fill="none" stroke="#63b8ff" d="M718.64,-9.5C733.2,-9.5 750.6,-9.5 766.61,-9.5"/>
<polygon fill="#63b8ff" stroke="#63b8ff" points="766.88,-13 776.88,-9.5 766.88,-6 766.88,-13"/>
</g>
<!-- Node10&#45;&gt;Node6 -->
<g id="edge12" class="edge">
<title>Node10&#45;&gt;Node6</title>
<path fill="none" stroke="#63b8ff" d="M590.51,-46.5C599.43,-46.5 608.65,-46.5 617.66,-46.5"/>
<polygon fill="#63b8ff" stroke="#63b8ff" points="617.71,-50 627.71,-46.5 617.71,-43 617.71,-50"/>
</g>
<!-- Node10&#45;&gt;Node8 -->
<g id="edge11" class="edge">
<title>Node10&#45;&gt;Node8</title>
<path fill="none" stroke="#63b8ff" d="M568.79,-36.97C590.73,-31.72 617.99,-25.19 640.43,-19.81"/>
<polygon fill="#63b8ff" stroke="#63b8ff" points="641.46,-23.17 650.37,-17.43 639.83,-16.36 641.46,-23.17"/>
</g>
</g>
</svg>
