<?xml version="1.0" encoding="UTF-8" standalone="no"?>
<!DOCTYPE svg PUBLIC "-//W3C//DTD SVG 1.1//EN"
 "http://www.w3.org/Graphics/SVG/1.1/DTD/svg11.dtd">
<!-- Generated by graphviz version 2.43.0 (0)
 -->
<!-- Title: layer.h Pages: 1 -->
<svg width="755pt" height="247pt"
 viewBox="0.00 0.00 755.34 247.00" xmlns="http://www.w3.org/2000/svg" xmlns:xlink="http://www.w3.org/1999/xlink">
<g id="graph0" class="graph" transform="scale(1 1) rotate(0) translate(4 243)">
<title>layer.h</title>
<!-- Node1 -->
<g id="node1" class="node">
<title>Node1</title>
<g id="a_node1"><a xlink:title="Data structures and functions for performing operations over atmospheric layers.">
<polygon fill="#999999" stroke="#666666" points="381.5,-239 331.5,-239 331.5,-220 381.5,-220 381.5,-239"/>
<text text-anchor="middle" x="356.5" y="-227" font-family="Helvetica,sans-Serif" font-size="10.00">layer.h</text>
</a>
</g>
</g>
<!-- Node2 -->
<g id="node2" class="node">
<title>Node2</title>
<g id="a_node2"><a xlink:href="convective_8cpp.html" target="_top" xlink:title="Routines used to computed derived sounding parameters from vertical atmospheric profiles.">
<polygon fill="white" stroke="#666666" points="392.5,-74 302.5,-74 302.5,-55 392.5,-55 392.5,-74"/>
<text text-anchor="middle" x="347.5" y="-62" font-family="Helvetica,sans-Serif" font-size="10.00">convective.cpp</text>
</a>
</g>
</g>
<!-- Node1&#45;&gt;Node2 -->
<g id="edge1" class="edge">
<title>Node1&#45;&gt;Node2</title>
<path fill="none" stroke="#63b8ff" d="M377.39,-214.05C406.79,-191.86 454.36,-147.97 431.5,-110 420.52,-91.76 399.28,-80.6 380.9,-74.02"/>
<polygon fill="#63b8ff" stroke="#63b8ff" points="375.31,-211.23 369.3,-219.96 379.44,-216.88 375.31,-211.23"/>
</g>
<!-- Node3 -->
<g id="node3" class="node">
<title>Node3</title>
<g id="a_node3"><a xlink:href="convective_8h.html" target="_top" xlink:title="Routines used to computed derived sounding parameters from vertical atmospheric profiles.">
<polygon fill="white" stroke="#666666" points="570,-74 491,-74 491,-55 570,-55 570,-74"/>
<text text-anchor="middle" x="530.5" y="-62" font-family="Helvetica,sans-Serif" font-size="10.00">convective.h</text>
</a>
</g>
</g>
<!-- Node1&#45;&gt;Node3 -->
<g id="edge2" class="edge">
<title>Node1&#45;&gt;Node3</title>
<path fill="none" stroke="#63b8ff" d="M391.53,-225.27C479.18,-216.36 703.79,-188.05 743.5,-129 748.21,-121.99 748.83,-116.55 743.5,-110 722.06,-83.61 625.46,-72.33 570,-67.96"/>
<polygon fill="#63b8ff" stroke="#63b8ff" points="391.15,-221.79 381.54,-226.26 391.84,-228.76 391.15,-221.79"/>
</g>
<!-- Node5 -->
<g id="node5" class="node">
<title>Node5</title>
<g id="a_node5"><a xlink:href="layer_8cpp.html" target="_top" xlink:title="Utilities and structures useful for grouping objects, conducting QC, and things that otherwise don&#39;t ...">
<polygon fill="white" stroke="#666666" points="170,-184 109,-184 109,-165 170,-165 170,-184"/>
<text text-anchor="middle" x="139.5" y="-172" font-family="Helvetica,sans-Serif" font-size="10.00">layer.cpp</text>
</a>
</g>
</g>
<!-- Node1&#45;&gt;Node5 -->
<g id="edge4" class="edge">
<title>Node1&#45;&gt;Node5</title>
<path fill="none" stroke="#63b8ff" d="M321.41,-219.93C279.51,-209.7 210.1,-192.74 170.23,-183.01"/>
<polygon fill="#63b8ff" stroke="#63b8ff" points="320.64,-223.34 331.18,-222.32 322.3,-216.54 320.64,-223.34"/>
</g>
<!-- Node6 -->
<g id="node6" class="node">
<title>Node6</title>
<g id="a_node6"><a xlink:href="layer__wrap_8cpp.html" target="_top" xlink:title=" ">
<polygon fill="white" stroke="#666666" points="279,-184 188,-184 188,-165 279,-165 279,-184"/>
<text text-anchor="middle" x="233.5" y="-172" font-family="Helvetica,sans-Serif" font-size="10.00">layer_wrap.cpp</text>
</a>
</g>
</g>
<!-- Node1&#45;&gt;Node6 -->
<g id="edge5" class="edge">
<title>Node1&#45;&gt;Node6</title>
<path fill="none" stroke="#63b8ff" d="M327.25,-215.9C304.53,-206.11 273.63,-192.79 253.62,-184.17"/>
<polygon fill="#63b8ff" stroke="#63b8ff" points="326.17,-219.24 336.74,-219.98 328.94,-212.81 326.17,-219.24"/>
</g>
<!-- Node7 -->
<g id="node7" class="node">
<title>Node7</title>
<g id="a_node7"><a xlink:href="parcel_8cpp.html" target="_top" xlink:title="Routines used for parcel lifting and integration.">
<polygon fill="white" stroke="#666666" points="67,-74 0,-74 0,-55 67,-55 67,-74"/>
<text text-anchor="middle" x="33.5" y="-62" font-family="Helvetica,sans-Serif" font-size="10.00">parcel.cpp</text>
</a>
</g>
</g>
<!-- Node1&#45;&gt;Node7 -->
<g id="edge6" class="edge">
<title>Node1&#45;&gt;Node7</title>
<path fill="none" stroke="#63b8ff" d="M320.91,-225.95C257.38,-220.86 127.52,-207.82 89.5,-184 49.58,-159 37.6,-96.95 34.48,-74.11"/>
<polygon fill="#63b8ff" stroke="#63b8ff" points="321,-229.47 331.24,-226.76 321.54,-222.49 321,-229.47"/>
</g>
<!-- Node8 -->
<g id="node8" class="node">
<title>Node8</title>
<g id="a_node8"><a xlink:href="parcel_8h.html" target="_top" xlink:title="Routines used for parcel lifting and integration.">
<polygon fill="white" stroke="#666666" points="136.5,-129 80.5,-129 80.5,-110 136.5,-110 136.5,-129"/>
<text text-anchor="middle" x="108.5" y="-117" font-family="Helvetica,sans-Serif" font-size="10.00">parcel.h</text>
</a>
</g>
</g>
<!-- Node1&#45;&gt;Node8 -->
<g id="edge7" class="edge">
<title>Node1&#45;&gt;Node8</title>
<path fill="none" stroke="#63b8ff" d="M321.02,-227.76C257.28,-225.61 127.41,-217.16 99.5,-184 86.31,-168.33 96.73,-142.38 103.63,-129.02"/>
<polygon fill="#63b8ff" stroke="#63b8ff" points="321.29,-231.27 331.39,-228.08 321.5,-224.28 321.29,-231.27"/>
</g>
<!-- Node10 -->
<g id="node10" class="node">
<title>Node10</title>
<g id="a_node10"><a xlink:href="thermo_8cpp.html" target="_top" xlink:title="Thermodynamic routines that do not directly involve parcel based ascent.">
<polygon fill="white" stroke="#666666" points="422.5,-129 350.5,-129 350.5,-110 422.5,-110 422.5,-129"/>
<text text-anchor="middle" x="386.5" y="-117" font-family="Helvetica,sans-Serif" font-size="10.00">thermo.cpp</text>
</a>
</g>
</g>
<!-- Node1&#45;&gt;Node10 -->
<g id="edge12" class="edge">
<title>Node1&#45;&gt;Node10</title>
<path fill="none" stroke="#63b8ff" d="M361.69,-209.8C368.25,-186.2 379.26,-146.58 384.09,-129.16"/>
<polygon fill="#63b8ff" stroke="#63b8ff" points="358.26,-209.09 358.96,-219.66 365,-210.96 358.26,-209.09"/>
</g>
<!-- Node11 -->
<g id="node11" class="node">
<title>Node11</title>
<g id="a_node11"><a xlink:href="thermo_8h.html" target="_top" xlink:title="Routines used to compute thermodynamic attributes of vertical sounding profiles.">
<polygon fill="white" stroke="#666666" points="358,-184 297,-184 297,-165 358,-165 358,-184"/>
<text text-anchor="middle" x="327.5" y="-172" font-family="Helvetica,sans-Serif" font-size="10.00">thermo.h</text>
</a>
</g>
</g>
<!-- Node1&#45;&gt;Node11 -->
<g id="edge13" class="edge">
<title>Node1&#45;&gt;Node11</title>
<path fill="none" stroke="#63b8ff" d="M346.82,-210.82C341.9,-201.82 336.14,-191.29 332.2,-184.09"/>
<polygon fill="#63b8ff" stroke="#63b8ff" points="343.84,-212.66 351.71,-219.75 349.98,-209.3 343.84,-212.66"/>
</g>
<!-- Node13 -->
<g id="node13" class="node">
<title>Node13</title>
<g id="a_node13"><a xlink:href="winds_8cpp.html" target="_top" xlink:title="Routines used to compute kinematic attributes and indices of vertical sounding profiles.">
<polygon fill="white" stroke="#666666" points="544,-129 479,-129 479,-110 544,-110 544,-129"/>
<text text-anchor="middle" x="511.5" y="-117" font-family="Helvetica,sans-Serif" font-size="10.00">winds.cpp</text>
</a>
</g>
</g>
<!-- Node1&#45;&gt;Node13 -->
<g id="edge20" class="edge">
<title>Node1&#45;&gt;Node13</title>
<path fill="none" stroke="#63b8ff" d="M391.46,-219.4C413.94,-212.34 442.86,-200.87 464.5,-184 484.4,-168.48 499.98,-142.47 507.16,-129.06"/>
<polygon fill="#63b8ff" stroke="#63b8ff" points="390.22,-216.12 381.64,-222.34 392.23,-222.82 390.22,-216.12"/>
</g>
<!-- Node14 -->
<g id="node14" class="node">
<title>Node14</title>
<g id="a_node14"><a xlink:href="winds_8h.html" target="_top" xlink:title="Routines used to compute kinematic attributes and indices of vertical sounding profiles.">
<polygon fill="white" stroke="#666666" points="599.5,-184 545.5,-184 545.5,-165 599.5,-165 599.5,-184"/>
<text text-anchor="middle" x="572.5" y="-172" font-family="Helvetica,sans-Serif" font-size="10.00">winds.h</text>
</a>
</g>
</g>
<!-- Node1&#45;&gt;Node14 -->
<g id="edge21" class="edge">
<title>Node1&#45;&gt;Node14</title>
<path fill="none" stroke="#63b8ff" d="M391.44,-219.93C434.41,-209.38 506.43,-191.71 545.43,-182.14"/>
<polygon fill="#63b8ff" stroke="#63b8ff" points="390.58,-216.53 381.7,-222.32 392.25,-223.33 390.58,-216.53"/>
</g>
<!-- Node4 -->
<g id="node4" class="node">
<title>Node4</title>
<g id="a_node4"><a xlink:href="convective__wrap_8cpp.html" target="_top" xlink:title=" ">
<polygon fill="white" stroke="#666666" points="590,-19 471,-19 471,0 590,0 590,-19"/>
<text text-anchor="middle" x="530.5" y="-7" font-family="Helvetica,sans-Serif" font-size="10.00">convective_wrap.cpp</text>
</a>
</g>
</g>
<!-- Node3&#45;&gt;Node4 -->
<g id="edge3" class="edge">
<title>Node3&#45;&gt;Node4</title>
<path fill="none" stroke="#63b8ff" d="M530.5,-44.66C530.5,-35.93 530.5,-25.99 530.5,-19.09"/>
<polygon fill="#63b8ff" stroke="#63b8ff" points="527,-44.75 530.5,-54.75 534,-44.75 527,-44.75"/>
</g>
<!-- Node8&#45;&gt;Node2 -->
<g id="edge8" class="edge">
<title>Node8&#45;&gt;Node2</title>
<path fill="none" stroke="#63b8ff" d="M146.7,-110.03C191.19,-100.16 264.27,-83.96 308.92,-74.05"/>
<polygon fill="#63b8ff" stroke="#63b8ff" points="145.86,-106.63 136.85,-112.21 147.38,-113.46 145.86,-106.63"/>
</g>
<!-- Node8&#45;&gt;Node3 -->
<g id="edge9" class="edge">
<title>Node8&#45;&gt;Node3</title>
<path fill="none" stroke="#63b8ff" d="M146.6,-113.71C226.29,-103.71 409.86,-80.65 490.86,-70.48"/>
<polygon fill="#63b8ff" stroke="#63b8ff" points="146,-110.26 136.52,-114.98 146.87,-117.21 146,-110.26"/>
</g>
<!-- Node8&#45;&gt;Node7 -->
<g id="edge10" class="edge">
<title>Node8&#45;&gt;Node7</title>
<path fill="none" stroke="#63b8ff" d="M88.19,-104.15C74.64,-94.57 57.26,-82.29 45.77,-74.17"/>
<polygon fill="#63b8ff" stroke="#63b8ff" points="86.26,-107.07 96.45,-109.98 90.3,-101.36 86.26,-107.07"/>
</g>
<!-- Node9 -->
<g id="node9" class="node">
<title>Node9</title>
<g id="a_node9"><a xlink:href="parcel__wrap_8cpp.html" target="_top" xlink:title=" ">
<polygon fill="white" stroke="#666666" points="181.5,-74 85.5,-74 85.5,-55 181.5,-55 181.5,-74"/>
<text text-anchor="middle" x="133.5" y="-62" font-family="Helvetica,sans-Serif" font-size="10.00">parcel_wrap.cpp</text>
</a>
</g>
</g>
<!-- Node8&#45;&gt;Node9 -->
<g id="edge11" class="edge">
<title>Node8&#45;&gt;Node9</title>
<path fill="none" stroke="#63b8ff" d="M116.98,-100.53C121.19,-91.6 126.09,-81.22 129.45,-74.09"/>
<polygon fill="#63b8ff" stroke="#63b8ff" points="113.73,-99.21 112.63,-109.75 120.06,-102.2 113.73,-99.21"/>
</g>
<!-- Node11&#45;&gt;Node2 -->
<g id="edge14" class="edge">
<title>Node11&#45;&gt;Node2</title>
<path fill="none" stroke="#63b8ff" d="M286.93,-163.58C246.6,-153.31 189.84,-137.59 183.5,-129 178.49,-122.2 178.37,-116.71 183.5,-110 197.93,-91.14 259.07,-78.4 302.47,-71.54"/>
<polygon fill="#63b8ff" stroke="#63b8ff" points="286.24,-167.01 296.79,-166.06 287.95,-160.23 286.24,-167.01"/>
</g>
<!-- Node11&#45;&gt;Node3 -->
<g id="edge15" class="edge">
<title>Node11&#45;&gt;Node3</title>
<path fill="none" stroke="#63b8ff" d="M326.63,-154.67C327.04,-140.53 329.99,-121.67 341.5,-110 362.03,-89.18 441.54,-76.14 490.66,-69.9"/>
<polygon fill="#63b8ff" stroke="#63b8ff" points="323.13,-154.8 326.74,-164.77 330.13,-154.73 323.13,-154.8"/>
</g>
<!-- Node11&#45;&gt;Node7 -->
<g id="edge16" class="edge">
<title>Node11&#45;&gt;Node7</title>
<path fill="none" stroke="#63b8ff" d="M286.99,-165.1C189.26,-149.17 149.32,-182.05 71.5,-129 51.76,-115.54 40.64,-88.12 36.04,-74.13"/>
<polygon fill="#63b8ff" stroke="#63b8ff" points="286.5,-168.57 296.95,-166.86 287.71,-161.68 286.5,-168.57"/>
</g>
<!-- Node11&#45;&gt;Node8 -->
<g id="edge17" class="edge">
<title>Node11&#45;&gt;Node8</title>
<path fill="none" stroke="#63b8ff" d="M286.86,-163.66C243.21,-153.1 175,-136.59 136.82,-127.35"/>
<polygon fill="#63b8ff" stroke="#63b8ff" points="286.04,-167.07 296.59,-166.02 287.69,-160.26 286.04,-167.07"/>
</g>
<!-- Node11&#45;&gt;Node10 -->
<g id="edge18" class="edge">
<title>Node11&#45;&gt;Node10</title>
<path fill="none" stroke="#63b8ff" d="M344.7,-158.04C355.17,-148.64 368.15,-136.98 376.85,-129.17"/>
<polygon fill="#63b8ff" stroke="#63b8ff" points="342.08,-155.7 336.98,-164.98 346.76,-160.91 342.08,-155.7"/>
</g>
<!-- Node12 -->
<g id="node12" class="node">
<title>Node12</title>
<g id="a_node12"><a xlink:href="thermo__wrap_8cpp.html" target="_top" xlink:title=" ">
<polygon fill="white" stroke="#666666" points="294,-129 193,-129 193,-110 294,-110 294,-129"/>
<text text-anchor="middle" x="243.5" y="-117" font-family="Helvetica,sans-Serif" font-size="10.00">thermo_wrap.cpp</text>
</a>
</g>
</g>
<!-- Node11&#45;&gt;Node12 -->
<g id="edge19" class="edge">
<title>Node11&#45;&gt;Node12</title>
<path fill="none" stroke="#63b8ff" d="M305.19,-159.42C289.95,-149.81 270.23,-137.37 257.24,-129.17"/>
<polygon fill="#63b8ff" stroke="#63b8ff" points="303.68,-162.61 314,-164.98 307.41,-156.69 303.68,-162.61"/>
</g>
<!-- Node14&#45;&gt;Node2 -->
<g id="edge22" class="edge">
<title>Node14&#45;&gt;Node2</title>
<path fill="none" stroke="#63b8ff" d="M571.8,-154.48C570.23,-140.25 565.77,-121.34 553.5,-110 530.53,-88.76 446.34,-76.04 392.95,-69.93"/>
<polygon fill="#63b8ff" stroke="#63b8ff" points="568.32,-154.94 572.53,-164.67 575.3,-154.44 568.32,-154.94"/>
</g>
<!-- Node14&#45;&gt;Node3 -->
<g id="edge23" class="edge">
<title>Node14&#45;&gt;Node3</title>
<path fill="none" stroke="#63b8ff" d="M582.32,-155.92C588.29,-142.76 593.54,-124.58 586.5,-110 578.62,-93.67 561.51,-81.49 548.27,-74.04"/>
<polygon fill="#63b8ff" stroke="#63b8ff" points="579.19,-154.37 577.8,-164.87 585.44,-157.52 579.19,-154.37"/>
</g>
<!-- Node14&#45;&gt;Node13 -->
<g id="edge24" class="edge">
<title>Node14&#45;&gt;Node13</title>
<path fill="none" stroke="#63b8ff" d="M555.03,-158.32C544.16,-148.87 530.56,-137.06 521.48,-129.17"/>
<polygon fill="#63b8ff" stroke="#63b8ff" points="552.85,-161.07 562.7,-164.98 557.45,-155.78 552.85,-161.07"/>
</g>
<!-- Node15 -->
<g id="node15" class="node">
<title>Node15</title>
<g id="a_node15"><a xlink:href="winds__wrap_8cpp.html" target="_top" xlink:title=" ">
<polygon fill="white" stroke="#666666" points="734,-129 639,-129 639,-110 734,-110 734,-129"/>
<text text-anchor="middle" x="686.5" y="-117" font-family="Helvetica,sans-Serif" font-size="10.00">winds_wrap.cpp</text>
</a>
</g>
</g>
<!-- Node14&#45;&gt;Node15 -->
<g id="edge25" class="edge">
<title>Node14&#45;&gt;Node15</title>
<path fill="none" stroke="#63b8ff" d="M599.89,-160.77C620.92,-150.99 649.39,-137.75 667.85,-129.17"/>
<polygon fill="#63b8ff" stroke="#63b8ff" points="598.41,-157.6 590.82,-164.98 601.36,-163.94 598.41,-157.6"/>
</g>
</g>
</svg>
