<?xml version="1.0" encoding="UTF-8" standalone="no"?>
<!DOCTYPE svg PUBLIC "-//W3C//DTD SVG 1.1//EN"
 "http://www.w3.org/Graphics/SVG/1.1/DTD/svg11.dtd">
<!-- Generated by graphviz version 2.43.0 (0)
 -->
<!-- Title: sharp_HeightLayer_integrate Pages: 1 -->
<svg width="754pt" height="138pt"
 viewBox="0.00 0.00 754.00 138.00" xmlns="http://www.w3.org/2000/svg" xmlns:xlink="http://www.w3.org/1999/xlink">
<g id="graph0" class="graph" transform="scale(1 1) rotate(0) translate(4 134)">
<title>sharp_HeightLayer_integrate</title>
<!-- Node1 -->
<g id="node1" class="node">
<title>Node1</title>
<g id="a_node1"><a xlink:title=" ">
<polygon fill="#999999" stroke="#666666" points="158,-74 0,-74 0,-55 158,-55 158,-74"/>
<text text-anchor="middle" x="79" y="-62" font-family="Helvetica,sans-Serif" font-size="10.00">sharp_HeightLayer_integrate</text>
</a>
</g>
</g>
<!-- Node2 -->
<g id="node2" class="node">
<title>Node2</title>
<g id="a_node2"><a xlink:href="namespacesharp.html#a7acec1642f27591dc988bf9e48b4612d" target="_top" xlink:title="Returns a trapezoidal integration of the given layer.">
<polygon fill="white" stroke="#666666" points="318,-79.5 194,-79.5 194,-49.5 318,-49.5 318,-79.5"/>
<text text-anchor="start" x="202" y="-67.5" font-family="Helvetica,sans-Serif" font-size="10.00">sharp::integrate_layer</text>
<text text-anchor="middle" x="256" y="-56.5" font-family="Helvetica,sans-Serif" font-size="10.00">_trapz</text>
</a>
</g>
</g>
<!-- Node1&#45;&gt;Node2 -->
<g id="edge1" class="edge">
<title>Node1&#45;&gt;Node2</title>
<path fill="none" stroke="#63b8ff" d="M158.03,-64.5C166.59,-64.5 175.26,-64.5 183.73,-64.5"/>
<polygon fill="#63b8ff" stroke="#63b8ff" points="183.93,-68 193.93,-64.5 183.93,-61 183.93,-68"/>
</g>
<!-- Node3 -->
<g id="node3" class="node">
<title>Node3</title>
<g id="a_node3"><a xlink:href="namespacesharp.html#a3558a68454edd4679ef97335e3a9f1fb" target="_top" xlink:title="A kernel that computes the area under a curve using the trapezoidal rule.">
<polygon fill="white" stroke="#666666" points="473,-130 363,-130 363,-111 473,-111 473,-130"/>
<text text-anchor="middle" x="418" y="-118" font-family="Helvetica,sans-Serif" font-size="10.00">sharp::_integ_trapz</text>
</a>
</g>
</g>
<!-- Node2&#45;&gt;Node3 -->
<g id="edge2" class="edge">
<title>Node2&#45;&gt;Node3</title>
<path fill="none" stroke="#63b8ff" d="M293.09,-79.58C311.22,-86.92 333.61,-95.61 354,-102.5 359.66,-104.41 365.65,-106.3 371.6,-108.09"/>
<polygon fill="#63b8ff" stroke="#63b8ff" points="370.92,-111.54 381.5,-111 372.89,-104.82 370.92,-111.54"/>
</g>
<!-- Node4 -->
<g id="node4" class="node">
<title>Node4</title>
<g id="a_node4"><a xlink:href="namespacesharp.html#ac93f477dfa774c966b5da7521bd43ee6" target="_top" xlink:title="Returns the array indices corresponding to the given layer.">
<polygon fill="white" stroke="#666666" points="482,-93 354,-93 354,-74 482,-74 482,-93"/>
<text text-anchor="middle" x="418" y="-81" font-family="Helvetica,sans-Serif" font-size="10.00">sharp::get_layer_index</text>
</a>
</g>
</g>
<!-- Node2&#45;&gt;Node4 -->
<g id="edge3" class="edge">
<title>Node2&#45;&gt;Node4</title>
<path fill="none" stroke="#63b8ff" d="M318.4,-71.79C326.76,-72.78 335.41,-73.81 343.95,-74.83"/>
<polygon fill="#63b8ff" stroke="#63b8ff" points="343.56,-78.3 353.91,-76.01 344.39,-71.35 343.56,-78.3"/>
</g>
<!-- Node7 -->
<g id="node7" class="node">
<title>Node7</title>
<g id="a_node7"><a xlink:href="namespacesharp.html#af8484e9fe21c025b64ecffde614feb11" target="_top" xlink:title="Linearly interpolate a data field to a requested height level.">
<polygon fill="white" stroke="#666666" points="475,-56 361,-56 361,-37 475,-37 475,-56"/>
<text text-anchor="middle" x="418" y="-44" font-family="Helvetica,sans-Serif" font-size="10.00">sharp::interp_height</text>
</a>
</g>
</g>
<!-- Node2&#45;&gt;Node7 -->
<g id="edge6" class="edge">
<title>Node2&#45;&gt;Node7</title>
<path fill="none" stroke="#63b8ff" d="M318.4,-57.59C328.95,-56.41 339.96,-55.17 350.64,-53.97"/>
<polygon fill="#63b8ff" stroke="#63b8ff" points="351.2,-57.42 360.74,-52.83 350.42,-50.47 351.2,-57.42"/>
</g>
<!-- Node10 -->
<g id="node10" class="node">
<title>Node10</title>
<g id="a_node10"><a xlink:href="namespacesharp.html#a7ed0899941867073e5062af04fdbd3e7" target="_top" xlink:title="Linearly interpolate a data field to a requested pressure level.">
<polygon fill="white" stroke="#666666" points="480.5,-19 355.5,-19 355.5,0 480.5,0 480.5,-19"/>
<text text-anchor="middle" x="418" y="-7" font-family="Helvetica,sans-Serif" font-size="10.00">sharp::interp_pressure</text>
</a>
</g>
</g>
<!-- Node2&#45;&gt;Node10 -->
<g id="edge10" class="edge">
<title>Node2&#45;&gt;Node10</title>
<path fill="none" stroke="#63b8ff" d="M295.98,-49.4C313.61,-42.74 334.76,-34.96 354,-28.5 360.48,-26.32 367.36,-24.13 374.12,-22.04"/>
<polygon fill="#63b8ff" stroke="#63b8ff" points="375.31,-25.34 383.85,-19.07 373.27,-18.64 375.31,-25.34"/>
</g>
<!-- Node5 -->
<g id="node5" class="node">
<title>Node5</title>
<g id="a_node5"><a xlink:href="namespacesharp.html#a1edcf8bff9a13429bcbff7c1129024b3" target="_top" xlink:title="Finds the index of the lower bound that does not satisfy element &lt; value.">
<polygon fill="white" stroke="#666666" points="630.5,-93 518.5,-93 518.5,-74 630.5,-74 630.5,-93"/>
<text text-anchor="middle" x="574.5" y="-81" font-family="Helvetica,sans-Serif" font-size="10.00">sharp::lower_bound</text>
</a>
</g>
</g>
<!-- Node4&#45;&gt;Node5 -->
<g id="edge4" class="edge">
<title>Node4&#45;&gt;Node5</title>
<path fill="none" stroke="#63b8ff" d="M482.29,-83.5C490.91,-83.5 499.78,-83.5 508.43,-83.5"/>
<polygon fill="#63b8ff" stroke="#63b8ff" points="508.47,-87 518.47,-83.5 508.47,-80 508.47,-87"/>
</g>
<!-- Node6 -->
<g id="node6" class="node">
<title>Node6</title>
<g id="a_node6"><a xlink:href="namespacesharp.html#a772686549a5111c1152b778731119aa6" target="_top" xlink:title="Finds the first index that satisfies value &lt; element.">
<polygon fill="white" stroke="#666666" points="631,-56 518,-56 518,-37 631,-37 631,-56"/>
<text text-anchor="middle" x="574.5" y="-44" font-family="Helvetica,sans-Serif" font-size="10.00">sharp::upper_bound</text>
</a>
</g>
</g>
<!-- Node4&#45;&gt;Node6 -->
<g id="edge5" class="edge">
<title>Node4&#45;&gt;Node6</title>
<path fill="none" stroke="#63b8ff" d="M458.79,-73.97C478.62,-69.22 502.81,-63.43 523.85,-58.39"/>
<polygon fill="#63b8ff" stroke="#63b8ff" points="524.67,-61.79 533.58,-56.06 523.04,-54.99 524.67,-61.79"/>
</g>
<!-- Node7&#45;&gt;Node6 -->
<g id="edge9" class="edge">
<title>Node7&#45;&gt;Node6</title>
<path fill="none" stroke="#63b8ff" d="M475.22,-46.5C485.74,-46.5 496.83,-46.5 507.62,-46.5"/>
<polygon fill="#63b8ff" stroke="#63b8ff" points="507.84,-50 517.84,-46.5 507.84,-43 507.84,-50"/>
</g>
<!-- Node8 -->
<g id="node8" class="node">
<title>Node8</title>
<g id="a_node8"><a xlink:href="namespacesharp.html#a8aa123fbe3b59a7023446b0fe2186c49" target="_top" xlink:title="Linearly interpolates between a and b with distance t.">
<polygon fill="white" stroke="#666666" points="608.5,-19 540.5,-19 540.5,0 608.5,0 608.5,-19"/>
<text text-anchor="middle" x="574.5" y="-7" font-family="Helvetica,sans-Serif" font-size="10.00">sharp::lerp</text>
</a>
</g>
</g>
<!-- Node7&#45;&gt;Node8 -->
<g id="edge7" class="edge">
<title>Node7&#45;&gt;Node8</title>
<path fill="none" stroke="#63b8ff" d="M458.79,-36.97C480.73,-31.72 507.99,-25.19 530.43,-19.81"/>
<polygon fill="#63b8ff" stroke="#63b8ff" points="531.46,-23.17 540.37,-17.43 529.83,-16.36 531.46,-23.17"/>
</g>
<!-- Node9 -->
<g id="node9" class="node">
<title>Node9</title>
<g id="a_node9"><a xlink:href="namespacesharp.html#a8848423b96dfe09b90322efd2cc5bd43" target="_top" xlink:title="Linearly interpolates between a and b with distance t.">
<polygon fill="white" stroke="#666666" points="746,-19 667,-19 667,0 746,0 746,-19"/>
<text text-anchor="middle" x="706.5" y="-7" font-family="Helvetica,sans-Serif" font-size="10.00">sharp::__lerp</text>
</a>
</g>
</g>
<!-- Node8&#45;&gt;Node9 -->
<g id="edge8" class="edge">
<title>Node8&#45;&gt;Node9</title>
<path fill="none" stroke="#63b8ff" d="M608.64,-9.5C623.2,-9.5 640.6,-9.5 656.61,-9.5"/>
<polygon fill="#63b8ff" stroke="#63b8ff" points="656.88,-13 666.88,-9.5 656.88,-6 656.88,-13"/>
</g>
<!-- Node10&#45;&gt;Node6 -->
<g id="edge12" class="edge">
<title>Node10&#45;&gt;Node6</title>
<path fill="none" stroke="#63b8ff" d="M458.79,-19.03C478.62,-23.78 502.81,-29.57 523.85,-34.61"/>
<polygon fill="#63b8ff" stroke="#63b8ff" points="523.04,-38.01 533.58,-36.94 524.67,-31.21 523.04,-38.01"/>
</g>
<!-- Node10&#45;&gt;Node8 -->
<g id="edge11" class="edge">
<title>Node10&#45;&gt;Node8</title>
<path fill="none" stroke="#63b8ff" d="M480.51,-9.5C497.05,-9.5 514.6,-9.5 529.95,-9.5"/>
<polygon fill="#63b8ff" stroke="#63b8ff" points="530.18,-13 540.18,-9.5 530.18,-6 530.18,-13"/>
</g>
</g>
</svg>
