<?xml version="1.0" encoding="UTF-8" standalone="no"?>
<!DOCTYPE svg PUBLIC "-//W3C//DTD SVG 1.1//EN"
 "http://www.w3.org/Graphics/SVG/1.1/DTD/svg11.dtd">
<!-- Generated by graphviz version 2.43.0 (0)
 -->
<!-- Title: sharp_PressureLayer_min Pages: 1 -->
<svg width="868pt" height="101pt"
 viewBox="0.00 0.00 868.00 101.00" xmlns="http://www.w3.org/2000/svg" xmlns:xlink="http://www.w3.org/1999/xlink">
<g id="graph0" class="graph" transform="scale(1 1) rotate(0) translate(4 97)">
<title>sharp_PressureLayer_min</title>
<!-- Node1 -->
<g id="node1" class="node">
<title>Node1</title>
<g id="a_node1"><a xlink:title=" ">
<polygon fill="#999999" stroke="#666666" points="142,-56 0,-56 0,-37 142,-37 142,-56"/>
<text text-anchor="middle" x="71" y="-44" font-family="Helvetica,sans-Serif" font-size="10.00">sharp_PressureLayer_min</text>
</a>
</g>
</g>
<!-- Node2 -->
<g id="node2" class="node">
<title>Node2</title>
<g id="a_node2"><a xlink:href="namespacesharp.html#a01a9880c937f63e551893797253da4f7" target="_top" xlink:title="Returns the minimum value in the given layer.">
<polygon fill="white" stroke="#666666" points="276,-56 178,-56 178,-37 276,-37 276,-56"/>
<text text-anchor="middle" x="227" y="-44" font-family="Helvetica,sans-Serif" font-size="10.00">sharp::layer_min</text>
</a>
</g>
</g>
<!-- Node1&#45;&gt;Node2 -->
<g id="edge1" class="edge">
<title>Node1&#45;&gt;Node2</title>
<path fill="none" stroke="#63b8ff" d="M142.24,-46.5C150.81,-46.5 159.5,-46.5 167.87,-46.5"/>
<polygon fill="#63b8ff" stroke="#63b8ff" points="167.89,-50 177.89,-46.5 167.89,-43 167.89,-50"/>
</g>
<!-- Node3 -->
<g id="node3" class="node">
<title>Node3</title>
<g id="a_node3"><a xlink:href="namespacesharp.html#a646b65095b84511b75f6a4a81e545e80" target="_top" xlink:title="Template for min/max value over sharp::PressureLayer or sharp::HeightLayer.">
<polygon fill="white" stroke="#666666" points="432,-56 312,-56 312,-37 432,-37 432,-56"/>
<text text-anchor="middle" x="372" y="-44" font-family="Helvetica,sans-Serif" font-size="10.00">sharp::layer_minmax</text>
</a>
</g>
</g>
<!-- Node2&#45;&gt;Node3 -->
<g id="edge2" class="edge">
<title>Node2&#45;&gt;Node3</title>
<path fill="none" stroke="#63b8ff" d="M276.01,-46.5C284.3,-46.5 293.05,-46.5 301.76,-46.5"/>
<polygon fill="#63b8ff" stroke="#63b8ff" points="301.93,-50 311.93,-46.5 301.93,-43 301.93,-50"/>
</g>
<!-- Node4 -->
<g id="node4" class="node">
<title>Node4</title>
<g id="a_node4"><a xlink:href="namespacesharp.html#ac93f477dfa774c966b5da7521bd43ee6" target="_top" xlink:title="Returns the array indices corresponding to the given layer.">
<polygon fill="white" stroke="#666666" points="596,-93 468,-93 468,-74 596,-74 596,-93"/>
<text text-anchor="middle" x="532" y="-81" font-family="Helvetica,sans-Serif" font-size="10.00">sharp::get_layer_index</text>
</a>
</g>
</g>
<!-- Node3&#45;&gt;Node4 -->
<g id="edge3" class="edge">
<title>Node3&#45;&gt;Node4</title>
<path fill="none" stroke="#63b8ff" d="M413.69,-56.03C433.97,-60.78 458.71,-66.57 480.22,-71.61"/>
<polygon fill="#63b8ff" stroke="#63b8ff" points="479.64,-75.07 490.17,-73.94 481.24,-68.25 479.64,-75.07"/>
</g>
<!-- Node7 -->
<g id="node7" class="node">
<title>Node7</title>
<g id="a_node7"><a xlink:href="namespacesharp.html#af8484e9fe21c025b64ecffde614feb11" target="_top" xlink:title="Linearly interpolate a data field to a requested height level.">
<polygon fill="white" stroke="#666666" points="589,-19 475,-19 475,0 589,0 589,-19"/>
<text text-anchor="middle" x="532" y="-7" font-family="Helvetica,sans-Serif" font-size="10.00">sharp::interp_height</text>
</a>
</g>
</g>
<!-- Node3&#45;&gt;Node7 -->
<g id="edge6" class="edge">
<title>Node3&#45;&gt;Node7</title>
<path fill="none" stroke="#63b8ff" d="M413.69,-36.97C433.97,-32.22 458.71,-26.43 480.22,-21.39"/>
<polygon fill="#63b8ff" stroke="#63b8ff" points="481.24,-24.75 490.17,-19.06 479.64,-17.93 481.24,-24.75"/>
</g>
<!-- Node10 -->
<g id="node10" class="node">
<title>Node10</title>
<g id="a_node10"><a xlink:href="namespacesharp.html#a7ed0899941867073e5062af04fdbd3e7" target="_top" xlink:title="Linearly interpolate a data field to a requested pressure level.">
<polygon fill="white" stroke="#666666" points="594.5,-56 469.5,-56 469.5,-37 594.5,-37 594.5,-56"/>
<text text-anchor="middle" x="532" y="-44" font-family="Helvetica,sans-Serif" font-size="10.00">sharp::interp_pressure</text>
</a>
</g>
</g>
<!-- Node3&#45;&gt;Node10 -->
<g id="edge10" class="edge">
<title>Node3&#45;&gt;Node10</title>
<path fill="none" stroke="#63b8ff" d="M432.28,-46.5C441.06,-46.5 450.19,-46.5 459.19,-46.5"/>
<polygon fill="#63b8ff" stroke="#63b8ff" points="459.27,-50 469.27,-46.5 459.27,-43 459.27,-50"/>
</g>
<!-- Node5 -->
<g id="node5" class="node">
<title>Node5</title>
<g id="a_node5"><a xlink:href="namespacesharp.html#a1edcf8bff9a13429bcbff7c1129024b3" target="_top" xlink:title="Finds the index of the lower bound that does not satisfy element &lt; value.">
<polygon fill="white" stroke="#666666" points="744.5,-93 632.5,-93 632.5,-74 744.5,-74 744.5,-93"/>
<text text-anchor="middle" x="688.5" y="-81" font-family="Helvetica,sans-Serif" font-size="10.00">sharp::lower_bound</text>
</a>
</g>
</g>
<!-- Node4&#45;&gt;Node5 -->
<g id="edge4" class="edge">
<title>Node4&#45;&gt;Node5</title>
<path fill="none" stroke="#63b8ff" d="M596.29,-83.5C604.91,-83.5 613.78,-83.5 622.43,-83.5"/>
<polygon fill="#63b8ff" stroke="#63b8ff" points="622.47,-87 632.47,-83.5 622.47,-80 622.47,-87"/>
</g>
<!-- Node6 -->
<g id="node6" class="node">
<title>Node6</title>
<g id="a_node6"><a xlink:href="namespacesharp.html#a772686549a5111c1152b778731119aa6" target="_top" xlink:title="Finds the first index that satisfies value &lt; element.">
<polygon fill="white" stroke="#666666" points="745,-56 632,-56 632,-37 745,-37 745,-56"/>
<text text-anchor="middle" x="688.5" y="-44" font-family="Helvetica,sans-Serif" font-size="10.00">sharp::upper_bound</text>
</a>
</g>
</g>
<!-- Node4&#45;&gt;Node6 -->
<g id="edge5" class="edge">
<title>Node4&#45;&gt;Node6</title>
<path fill="none" stroke="#63b8ff" d="M572.79,-73.97C592.62,-69.22 616.81,-63.43 637.85,-58.39"/>
<polygon fill="#63b8ff" stroke="#63b8ff" points="638.67,-61.79 647.58,-56.06 637.04,-54.99 638.67,-61.79"/>
</g>
<!-- Node7&#45;&gt;Node6 -->
<g id="edge9" class="edge">
<title>Node7&#45;&gt;Node6</title>
<path fill="none" stroke="#63b8ff" d="M572.79,-19.03C592.62,-23.78 616.81,-29.57 637.85,-34.61"/>
<polygon fill="#63b8ff" stroke="#63b8ff" points="637.04,-38.01 647.58,-36.94 638.67,-31.21 637.04,-38.01"/>
</g>
<!-- Node8 -->
<g id="node8" class="node">
<title>Node8</title>
<g id="a_node8"><a xlink:href="namespacesharp.html#a8aa123fbe3b59a7023446b0fe2186c49" target="_top" xlink:title="Linearly interpolates between a and b with distance t.">
<polygon fill="white" stroke="#666666" points="722.5,-19 654.5,-19 654.5,0 722.5,0 722.5,-19"/>
<text text-anchor="middle" x="688.5" y="-7" font-family="Helvetica,sans-Serif" font-size="10.00">sharp::lerp</text>
</a>
</g>
</g>
<!-- Node7&#45;&gt;Node8 -->
<g id="edge7" class="edge">
<title>Node7&#45;&gt;Node8</title>
<path fill="none" stroke="#63b8ff" d="M589.22,-9.5C607.36,-9.5 627.19,-9.5 644.25,-9.5"/>
<polygon fill="#63b8ff" stroke="#63b8ff" points="644.48,-13 654.48,-9.5 644.48,-6 644.48,-13"/>
</g>
<!-- Node9 -->
<g id="node9" class="node">
<title>Node9</title>
<g id="a_node9"><a xlink:href="namespacesharp.html#a8848423b96dfe09b90322efd2cc5bd43" target="_top" xlink:title="Linearly interpolates between a and b with distance t.">
<polygon fill="white" stroke="#666666" points="860,-19 781,-19 781,0 860,0 860,-19"/>
<text text-anchor="middle" x="820.5" y="-7" font-family="Helvetica,sans-Serif" font-size="10.00">sharp::__lerp</text>
</a>
</g>
</g>
<!-- Node8&#45;&gt;Node9 -->
<g id="edge8" class="edge">
<title>Node8&#45;&gt;Node9</title>
<path fill="none" stroke="#63b8ff" d="M722.64,-9.5C737.2,-9.5 754.6,-9.5 770.61,-9.5"/>
<polygon fill="#63b8ff" stroke="#63b8ff" points="770.88,-13 780.88,-9.5 770.88,-6 770.88,-13"/>
</g>
<!-- Node10&#45;&gt;Node6 -->
<g id="edge12" class="edge">
<title>Node10&#45;&gt;Node6</title>
<path fill="none" stroke="#63b8ff" d="M594.51,-46.5C603.43,-46.5 612.65,-46.5 621.66,-46.5"/>
<polygon fill="#63b8ff" stroke="#63b8ff" points="621.71,-50 631.71,-46.5 621.71,-43 621.71,-50"/>
</g>
<!-- Node10&#45;&gt;Node8 -->
<g id="edge11" class="edge">
<title>Node10&#45;&gt;Node8</title>
<path fill="none" stroke="#63b8ff" d="M572.79,-36.97C594.73,-31.72 621.99,-25.19 644.43,-19.81"/>
<polygon fill="#63b8ff" stroke="#63b8ff" points="645.46,-23.17 654.37,-17.43 643.83,-16.36 645.46,-23.17"/>
</g>
</g>
</svg>
