<?xml version="1.0" encoding="UTF-8" standalone="no"?>
<!DOCTYPE svg PUBLIC "-//W3C//DTD SVG 1.1//EN"
 "http://www.w3.org/Graphics/SVG/1.1/DTD/svg11.dtd">
<!-- Generated by graphviz version 2.43.0 (0)
 -->
<!-- Title: sharp_PressureLayer_integrate Pages: 1 -->
<svg width="714pt" height="138pt"
 viewBox="0.00 0.00 714.00 138.00" xmlns="http://www.w3.org/2000/svg" xmlns:xlink="http://www.w3.org/1999/xlink">
<g id="graph0" class="graph" transform="scale(1 1) rotate(0) translate(4 134)">
<title>sharp_PressureLayer_integrate</title>
<!-- Node1 -->
<g id="node1" class="node">
<title>Node1</title>
<g id="a_node1"><a xlink:title=" ">
<polygon fill="#999999" stroke="#666666" points="118,-79.5 0,-79.5 0,-49.5 118,-49.5 118,-79.5"/>
<text text-anchor="start" x="8" y="-67.5" font-family="Helvetica,sans-Serif" font-size="10.00">sharp_PressureLayer</text>
<text text-anchor="middle" x="59" y="-56.5" font-family="Helvetica,sans-Serif" font-size="10.00">_integrate</text>
</a>
</g>
</g>
<!-- Node2 -->
<g id="node2" class="node">
<title>Node2</title>
<g id="a_node2"><a xlink:href="namespacesharp.html#a7acec1642f27591dc988bf9e48b4612d" target="_top" xlink:title="Returns a trapezoidal integration of the given layer.">
<polygon fill="white" stroke="#666666" points="278,-79.5 154,-79.5 154,-49.5 278,-49.5 278,-79.5"/>
<text text-anchor="start" x="162" y="-67.5" font-family="Helvetica,sans-Serif" font-size="10.00">sharp::integrate_layer</text>
<text text-anchor="middle" x="216" y="-56.5" font-family="Helvetica,sans-Serif" font-size="10.00">_trapz</text>
</a>
</g>
</g>
<!-- Node1&#45;&gt;Node2 -->
<g id="edge1" class="edge">
<title>Node1&#45;&gt;Node2</title>
<path fill="none" stroke="#63b8ff" d="M118.16,-64.5C126.55,-64.5 135.27,-64.5 143.89,-64.5"/>
<polygon fill="#63b8ff" stroke="#63b8ff" points="143.93,-68 153.93,-64.5 143.93,-61 143.93,-68"/>
</g>
<!-- Node3 -->
<g id="node3" class="node">
<title>Node3</title>
<g id="a_node3"><a xlink:href="namespacesharp.html#a3558a68454edd4679ef97335e3a9f1fb" target="_top" xlink:title="A kernel that computes the area under a curve using the trapezoidal rule.">
<polygon fill="white" stroke="#666666" points="433,-130 323,-130 323,-111 433,-111 433,-130"/>
<text text-anchor="middle" x="378" y="-118" font-family="Helvetica,sans-Serif" font-size="10.00">sharp::_integ_trapz</text>
</a>
</g>
</g>
<!-- Node2&#45;&gt;Node3 -->
<g id="edge2" class="edge">
<title>Node2&#45;&gt;Node3</title>
<path fill="none" stroke="#63b8ff" d="M253.09,-79.58C271.22,-86.92 293.61,-95.61 314,-102.5 319.66,-104.41 325.65,-106.3 331.6,-108.09"/>
<polygon fill="#63b8ff" stroke="#63b8ff" points="330.92,-111.54 341.5,-111 332.89,-104.82 330.92,-111.54"/>
</g>
<!-- Node4 -->
<g id="node4" class="node">
<title>Node4</title>
<g id="a_node4"><a xlink:href="namespacesharp.html#ac93f477dfa774c966b5da7521bd43ee6" target="_top" xlink:title="Returns the array indices corresponding to the given layer.">
<polygon fill="white" stroke="#666666" points="442,-93 314,-93 314,-74 442,-74 442,-93"/>
<text text-anchor="middle" x="378" y="-81" font-family="Helvetica,sans-Serif" font-size="10.00">sharp::get_layer_index</text>
</a>
</g>
</g>
<!-- Node2&#45;&gt;Node4 -->
<g id="edge3" class="edge">
<title>Node2&#45;&gt;Node4</title>
<path fill="none" stroke="#63b8ff" d="M278.4,-71.79C286.76,-72.78 295.41,-73.81 303.95,-74.83"/>
<polygon fill="#63b8ff" stroke="#63b8ff" points="303.56,-78.3 313.91,-76.01 304.39,-71.35 303.56,-78.3"/>
</g>
<!-- Node7 -->
<g id="node7" class="node">
<title>Node7</title>
<g id="a_node7"><a xlink:href="namespacesharp.html#af8484e9fe21c025b64ecffde614feb11" target="_top" xlink:title="Linearly interpolate a data field to a requested height level.">
<polygon fill="white" stroke="#666666" points="435,-56 321,-56 321,-37 435,-37 435,-56"/>
<text text-anchor="middle" x="378" y="-44" font-family="Helvetica,sans-Serif" font-size="10.00">sharp::interp_height</text>
</a>
</g>
</g>
<!-- Node2&#45;&gt;Node7 -->
<g id="edge6" class="edge">
<title>Node2&#45;&gt;Node7</title>
<path fill="none" stroke="#63b8ff" d="M278.4,-57.59C288.95,-56.41 299.96,-55.17 310.64,-53.97"/>
<polygon fill="#63b8ff" stroke="#63b8ff" points="311.2,-57.42 320.74,-52.83 310.42,-50.47 311.2,-57.42"/>
</g>
<!-- Node10 -->
<g id="node10" class="node">
<title>Node10</title>
<g id="a_node10"><a xlink:href="namespacesharp.html#a7ed0899941867073e5062af04fdbd3e7" target="_top" xlink:title="Linearly interpolate a data field to a requested pressure level.">
<polygon fill="white" stroke="#666666" points="440.5,-19 315.5,-19 315.5,0 440.5,0 440.5,-19"/>
<text text-anchor="middle" x="378" y="-7" font-family="Helvetica,sans-Serif" font-size="10.00">sharp::interp_pressure</text>
</a>
</g>
</g>
<!-- Node2&#45;&gt;Node10 -->
<g id="edge10" class="edge">
<title>Node2&#45;&gt;Node10</title>
<path fill="none" stroke="#63b8ff" d="M255.98,-49.4C273.61,-42.74 294.76,-34.96 314,-28.5 320.48,-26.32 327.36,-24.13 334.12,-22.04"/>
<polygon fill="#63b8ff" stroke="#63b8ff" points="335.31,-25.34 343.85,-19.07 333.27,-18.64 335.31,-25.34"/>
</g>
<!-- Node5 -->
<g id="node5" class="node">
<title>Node5</title>
<g id="a_node5"><a xlink:href="namespacesharp.html#a1edcf8bff9a13429bcbff7c1129024b3" target="_top" xlink:title="Finds the index of the lower bound that does not satisfy element &lt; value.">
<polygon fill="white" stroke="#666666" points="590.5,-93 478.5,-93 478.5,-74 590.5,-74 590.5,-93"/>
<text text-anchor="middle" x="534.5" y="-81" font-family="Helvetica,sans-Serif" font-size="10.00">sharp::lower_bound</text>
</a>
</g>
</g>
<!-- Node4&#45;&gt;Node5 -->
<g id="edge4" class="edge">
<title>Node4&#45;&gt;Node5</title>
<path fill="none" stroke="#63b8ff" d="M442.29,-83.5C450.91,-83.5 459.78,-83.5 468.43,-83.5"/>
<polygon fill="#63b8ff" stroke="#63b8ff" points="468.47,-87 478.47,-83.5 468.47,-80 468.47,-87"/>
</g>
<!-- Node6 -->
<g id="node6" class="node">
<title>Node6</title>
<g id="a_node6"><a xlink:href="namespacesharp.html#a772686549a5111c1152b778731119aa6" target="_top" xlink:title="Finds the first index that satisfies value &lt; element.">
<polygon fill="white" stroke="#666666" points="591,-56 478,-56 478,-37 591,-37 591,-56"/>
<text text-anchor="middle" x="534.5" y="-44" font-family="Helvetica,sans-Serif" font-size="10.00">sharp::upper_bound</text>
</a>
</g>
</g>
<!-- Node4&#45;&gt;Node6 -->
<g id="edge5" class="edge">
<title>Node4&#45;&gt;Node6</title>
<path fill="none" stroke="#63b8ff" d="M418.79,-73.97C438.62,-69.22 462.81,-63.43 483.85,-58.39"/>
<polygon fill="#63b8ff" stroke="#63b8ff" points="484.67,-61.79 493.58,-56.06 483.04,-54.99 484.67,-61.79"/>
</g>
<!-- Node7&#45;&gt;Node6 -->
<g id="edge9" class="edge">
<title>Node7&#45;&gt;Node6</title>
<path fill="none" stroke="#63b8ff" d="M435.22,-46.5C445.74,-46.5 456.83,-46.5 467.62,-46.5"/>
<polygon fill="#63b8ff" stroke="#63b8ff" points="467.84,-50 477.84,-46.5 467.84,-43 467.84,-50"/>
</g>
<!-- Node8 -->
<g id="node8" class="node">
<title>Node8</title>
<g id="a_node8"><a xlink:href="namespacesharp.html#a8aa123fbe3b59a7023446b0fe2186c49" target="_top" xlink:title="Linearly interpolates between a and b with distance t.">
<polygon fill="white" stroke="#666666" points="568.5,-19 500.5,-19 500.5,0 568.5,0 568.5,-19"/>
<text text-anchor="middle" x="534.5" y="-7" font-family="Helvetica,sans-Serif" font-size="10.00">sharp::lerp</text>
</a>
</g>
</g>
<!-- Node7&#45;&gt;Node8 -->
<g id="edge7" class="edge">
<title>Node7&#45;&gt;Node8</title>
<path fill="none" stroke="#63b8ff" d="M418.79,-36.97C440.73,-31.72 467.99,-25.19 490.43,-19.81"/>
<polygon fill="#63b8ff" stroke="#63b8ff" points="491.46,-23.17 500.37,-17.43 489.83,-16.36 491.46,-23.17"/>
</g>
<!-- Node9 -->
<g id="node9" class="node">
<title>Node9</title>
<g id="a_node9"><a xlink:href="namespacesharp.html#a8848423b96dfe09b90322efd2cc5bd43" target="_top" xlink:title="Linearly interpolates between a and b with distance t.">
<polygon fill="white" stroke="#666666" points="706,-19 627,-19 627,0 706,0 706,-19"/>
<text text-anchor="middle" x="666.5" y="-7" font-family="Helvetica,sans-Serif" font-size="10.00">sharp::__lerp</text>
</a>
</g>
</g>
<!-- Node8&#45;&gt;Node9 -->
<g id="edge8" class="edge">
<title>Node8&#45;&gt;Node9</title>
<path fill="none" stroke="#63b8ff" d="M568.64,-9.5C583.2,-9.5 600.6,-9.5 616.61,-9.5"/>
<polygon fill="#63b8ff" stroke="#63b8ff" points="616.88,-13 626.88,-9.5 616.88,-6 616.88,-13"/>
</g>
<!-- Node10&#45;&gt;Node6 -->
<g id="edge12" class="edge">
<title>Node10&#45;&gt;Node6</title>
<path fill="none" stroke="#63b8ff" d="M418.79,-19.03C438.62,-23.78 462.81,-29.57 483.85,-34.61"/>
<polygon fill="#63b8ff" stroke="#63b8ff" points="483.04,-38.01 493.58,-36.94 484.67,-31.21 483.04,-38.01"/>
</g>
<!-- Node10&#45;&gt;Node8 -->
<g id="edge11" class="edge">
<title>Node10&#45;&gt;Node8</title>
<path fill="none" stroke="#63b8ff" d="M440.51,-9.5C457.05,-9.5 474.6,-9.5 489.95,-9.5"/>
<polygon fill="#63b8ff" stroke="#63b8ff" points="490.18,-13 500.18,-9.5 490.18,-6 490.18,-13"/>
</g>
</g>
</svg>
