<?xml version="1.0" encoding="UTF-8" standalone="no"?>
<!DOCTYPE svg PUBLIC "-//W3C//DTD SVG 1.1//EN"
 "http://www.w3.org/Graphics/SVG/1.1/DTD/svg11.dtd">
<!-- Generated by graphviz version 2.43.0 (0)
 -->
<!-- Title: layer.h Pages: 1 -->
<svg width="621pt" height="247pt"
 viewBox="0.00 0.00 621.00 247.00" xmlns="http://www.w3.org/2000/svg" xmlns:xlink="http://www.w3.org/1999/xlink">
<g id="graph0" class="graph" transform="scale(1 1) rotate(0) translate(4 243)">
<title>layer.h</title>
<!-- Node1 -->
<g id="node1" class="node">
<title>Node1</title>
<g id="a_node1"><a xlink:title="Data structures and functions for performing operations over atmospheric layers.">
<polygon fill="#999999" stroke="#666666" points="281.5,-239 231.5,-239 231.5,-220 281.5,-220 281.5,-239"/>
<text text-anchor="middle" x="256.5" y="-227" font-family="Helvetica,sans-Serif" font-size="10.00">layer.h</text>
</a>
</g>
</g>
<!-- Node2 -->
<g id="node2" class="node">
<title>Node2</title>
<g id="a_node2"><a xlink:href="convective_8cpp.html" target="_top" xlink:title="Routines used to computed derived sounding parameters from vertical atmospheric profiles.">
<polygon fill="white" stroke="#666666" points="276.5,-19 186.5,-19 186.5,0 276.5,0 276.5,-19"/>
<text text-anchor="middle" x="231.5" y="-7" font-family="Helvetica,sans-Serif" font-size="10.00">convective.cpp</text>
</a>
</g>
</g>
<!-- Node1&#45;&gt;Node2 -->
<g id="edge1" class="edge">
<title>Node1&#45;&gt;Node2</title>
<path fill="none" stroke="#63b8ff" d="M291.53,-225.26C370.69,-216.5 552.39,-187.59 498.5,-110 448.2,-37.58 338.5,-17.77 276.51,-12.42"/>
<polygon fill="#63b8ff" stroke="#63b8ff" points="291.1,-221.78 281.52,-226.32 291.84,-228.75 291.1,-221.78"/>
</g>
<!-- Node3 -->
<g id="node3" class="node">
<title>Node3</title>
<g id="a_node3"><a xlink:href="convective_8h.html" target="_top" xlink:title="Routines used to computed derived sounding parameters from vertical atmospheric profiles.">
<polygon fill="white" stroke="#666666" points="203,-74 124,-74 124,-55 203,-55 203,-74"/>
<text text-anchor="middle" x="163.5" y="-62" font-family="Helvetica,sans-Serif" font-size="10.00">convective.h</text>
</a>
</g>
</g>
<!-- Node1&#45;&gt;Node3 -->
<g id="edge2" class="edge">
<title>Node1&#45;&gt;Node3</title>
<path fill="none" stroke="#63b8ff" d="M223.61,-215.57C209.44,-208.35 193.98,-197.96 184.5,-184 160.68,-148.91 161.43,-94.96 162.76,-74.12"/>
<polygon fill="#63b8ff" stroke="#63b8ff" points="222.13,-218.74 232.66,-219.85 225.13,-212.41 222.13,-218.74"/>
</g>
<!-- Node4 -->
<g id="node4" class="node">
<title>Node4</title>
<g id="a_node4"><a xlink:href="layer_8cpp.html" target="_top" xlink:title="Utilities and structures useful for grouping objects, conducting QC, and things that otherwise don&#39;t ...">
<polygon fill="white" stroke="#666666" points="134,-184 73,-184 73,-165 134,-165 134,-184"/>
<text text-anchor="middle" x="103.5" y="-172" font-family="Helvetica,sans-Serif" font-size="10.00">layer.cpp</text>
</a>
</g>
</g>
<!-- Node1&#45;&gt;Node4 -->
<g id="edge4" class="edge">
<title>Node1&#45;&gt;Node4</title>
<path fill="none" stroke="#63b8ff" d="M222.35,-216.67C193.82,-206.79 153.81,-192.93 128.27,-184.08"/>
<polygon fill="#63b8ff" stroke="#63b8ff" points="221.32,-220.02 231.92,-219.98 223.61,-213.4 221.32,-220.02"/>
</g>
<!-- Node5 -->
<g id="node5" class="node">
<title>Node5</title>
<g id="a_node5"><a xlink:href="parcel_8cpp.html" target="_top" xlink:title="Routines used for parcel lifting and integration.">
<polygon fill="white" stroke="#666666" points="67,-74 0,-74 0,-55 67,-55 67,-74"/>
<text text-anchor="middle" x="33.5" y="-62" font-family="Helvetica,sans-Serif" font-size="10.00">parcel.cpp</text>
</a>
</g>
</g>
<!-- Node1&#45;&gt;Node5 -->
<g id="edge5" class="edge">
<title>Node1&#45;&gt;Node5</title>
<path fill="none" stroke="#63b8ff" d="M221.15,-225.22C169.86,-219.74 78.4,-206.97 55.5,-184 25.22,-153.62 29.33,-95.91 32.17,-74.12"/>
<polygon fill="#63b8ff" stroke="#63b8ff" points="220.84,-228.71 231.15,-226.25 221.56,-221.75 220.84,-228.71"/>
</g>
<!-- Node6 -->
<g id="node6" class="node">
<title>Node6</title>
<g id="a_node6"><a xlink:href="parcel_8h.html" target="_top" xlink:title="Routines used for parcel lifting and integration.">
<polygon fill="white" stroke="#666666" points="125.5,-129 69.5,-129 69.5,-110 125.5,-110 125.5,-129"/>
<text text-anchor="middle" x="97.5" y="-117" font-family="Helvetica,sans-Serif" font-size="10.00">parcel.h</text>
</a>
</g>
</g>
<!-- Node1&#45;&gt;Node6 -->
<g id="edge6" class="edge">
<title>Node1&#45;&gt;Node6</title>
<path fill="none" stroke="#63b8ff" d="M221.21,-225.52C170.99,-220.47 82.84,-208.3 63.5,-184 49.49,-166.39 71.99,-142.15 86.58,-129.31"/>
<polygon fill="#63b8ff" stroke="#63b8ff" points="221.02,-229.02 231.31,-226.49 221.69,-222.05 221.02,-229.02"/>
</g>
<!-- Node7 -->
<g id="node7" class="node">
<title>Node7</title>
<g id="a_node7"><a xlink:href="thermo_8cpp.html" target="_top" xlink:title="Thermodynamic routines that do not directly involve parcel based ascent.">
<polygon fill="white" stroke="#666666" points="329.5,-129 257.5,-129 257.5,-110 329.5,-110 329.5,-129"/>
<text text-anchor="middle" x="293.5" y="-117" font-family="Helvetica,sans-Serif" font-size="10.00">thermo.cpp</text>
</a>
</g>
</g>
<!-- Node1&#45;&gt;Node7 -->
<g id="edge10" class="edge">
<title>Node1&#45;&gt;Node7</title>
<path fill="none" stroke="#63b8ff" d="M262.8,-210.12C270.87,-186.56 284.54,-146.66 290.53,-129.16"/>
<polygon fill="#63b8ff" stroke="#63b8ff" points="259.46,-209.07 259.53,-219.66 266.08,-211.34 259.46,-209.07"/>
</g>
<!-- Node8 -->
<g id="node8" class="node">
<title>Node8</title>
<g id="a_node8"><a xlink:href="thermo_8h.html" target="_top" xlink:title="Routines used to compute thermodynamic attributes of vertical sounding profiles.">
<polygon fill="white" stroke="#666666" points="255,-184 194,-184 194,-165 255,-165 255,-184"/>
<text text-anchor="middle" x="224.5" y="-172" font-family="Helvetica,sans-Serif" font-size="10.00">thermo.h</text>
</a>
</g>
</g>
<!-- Node1&#45;&gt;Node8 -->
<g id="edge11" class="edge">
<title>Node1&#45;&gt;Node8</title>
<path fill="none" stroke="#63b8ff" d="M246,-211.1C240.53,-202.04 234.08,-191.37 229.69,-184.09"/>
<polygon fill="#63b8ff" stroke="#63b8ff" points="243.05,-213 251.22,-219.75 249.04,-209.38 243.05,-213"/>
</g>
<!-- Node9 -->
<g id="node9" class="node">
<title>Node9</title>
<g id="a_node9"><a xlink:href="winds_8cpp.html" target="_top" xlink:title="Routines used to compute kinematic attributes and indices of vertical sounding profiles.">
<polygon fill="white" stroke="#666666" points="489,-129 424,-129 424,-110 489,-110 489,-129"/>
<text text-anchor="middle" x="456.5" y="-117" font-family="Helvetica,sans-Serif" font-size="10.00">winds.cpp</text>
</a>
</g>
</g>
<!-- Node1&#45;&gt;Node9 -->
<g id="edge17" class="edge">
<title>Node1&#45;&gt;Node9</title>
<path fill="none" stroke="#63b8ff" d="M291.84,-223.87C323.5,-218.39 370.11,-206.94 404.5,-184 426.31,-169.45 443.63,-143.01 451.65,-129.29"/>
<polygon fill="#63b8ff" stroke="#63b8ff" points="291.03,-220.45 281.72,-225.5 292.15,-227.36 291.03,-220.45"/>
</g>
<!-- Node10 -->
<g id="node10" class="node">
<title>Node10</title>
<g id="a_node10"><a xlink:href="winds_8h.html" target="_top" xlink:title="Routines used to compute kinematic attributes and indices of vertical sounding profiles.">
<polygon fill="white" stroke="#666666" points="395.5,-184 341.5,-184 341.5,-165 395.5,-165 395.5,-184"/>
<text text-anchor="middle" x="368.5" y="-172" font-family="Helvetica,sans-Serif" font-size="10.00">winds.h</text>
</a>
</g>
</g>
<!-- Node1&#45;&gt;Node10 -->
<g id="edge18" class="edge">
<title>Node1&#45;&gt;Node10</title>
<path fill="none" stroke="#63b8ff" d="M283.69,-215.63C304.32,-205.87 332.12,-192.71 350.18,-184.17"/>
<polygon fill="#63b8ff" stroke="#63b8ff" points="282.04,-212.54 274.49,-219.98 285.03,-218.87 282.04,-212.54"/>
</g>
<!-- Node11 -->
<g id="node11" class="node">
<title>Node11</title>
<g id="a_node11"><a xlink:href="winter_8h.html" target="_top" xlink:title="Winter weather parameters.">
<polygon fill="white" stroke="#666666" points="604.5,-184 548.5,-184 548.5,-165 604.5,-165 604.5,-184"/>
<text text-anchor="middle" x="576.5" y="-172" font-family="Helvetica,sans-Serif" font-size="10.00">winter.h</text>
</a>
</g>
</g>
<!-- Node1&#45;&gt;Node11 -->
<g id="edge22" class="edge">
<title>Node1&#45;&gt;Node11</title>
<path fill="none" stroke="#63b8ff" d="M291.66,-223.11C344,-215.03 445.49,-199.08 531.5,-184 536.98,-183.04 542.83,-181.97 548.44,-180.92"/>
<polygon fill="#63b8ff" stroke="#63b8ff" points="290.91,-219.69 281.56,-224.67 291.98,-226.61 290.91,-219.69"/>
</g>
<!-- Node3&#45;&gt;Node2 -->
<g id="edge3" class="edge">
<title>Node3&#45;&gt;Node2</title>
<path fill="none" stroke="#63b8ff" d="M182.62,-48.6C194.8,-39.11 210.16,-27.13 220.38,-19.17"/>
<polygon fill="#63b8ff" stroke="#63b8ff" points="180.16,-46.08 174.43,-54.98 184.46,-51.6 180.16,-46.08"/>
</g>
<!-- Node6&#45;&gt;Node2 -->
<g id="edge7" class="edge">
<title>Node6&#45;&gt;Node2</title>
<path fill="none" stroke="#63b8ff" d="M98.1,-99.6C99.5,-85.7 103.51,-67.18 114.5,-55 133,-34.52 161.94,-23.4 186.4,-17.41"/>
<polygon fill="#63b8ff" stroke="#63b8ff" points="94.58,-99.75 97.44,-109.96 101.57,-100.2 94.58,-99.75"/>
</g>
<!-- Node6&#45;&gt;Node3 -->
<g id="edge8" class="edge">
<title>Node6&#45;&gt;Node3</title>
<path fill="none" stroke="#63b8ff" d="M116.05,-103.6C127.88,-94.11 142.79,-82.13 152.7,-74.17"/>
<polygon fill="#63b8ff" stroke="#63b8ff" points="113.71,-100.99 108.1,-109.98 118.09,-106.45 113.71,-100.99"/>
</g>
<!-- Node6&#45;&gt;Node5 -->
<g id="edge9" class="edge">
<title>Node6&#45;&gt;Node5</title>
<path fill="none" stroke="#63b8ff" d="M79.51,-103.6C68.04,-94.11 53.59,-82.13 43.97,-74.17"/>
<polygon fill="#63b8ff" stroke="#63b8ff" points="77.28,-106.3 87.22,-109.98 81.75,-100.91 77.28,-106.3"/>
</g>
<!-- Node8&#45;&gt;Node2 -->
<g id="edge12" class="edge">
<title>Node8&#45;&gt;Node2</title>
<path fill="none" stroke="#63b8ff" d="M225.32,-154.37C226.84,-119.03 230.03,-44.79 231.12,-19.31"/>
<polygon fill="#63b8ff" stroke="#63b8ff" points="221.81,-154.6 224.88,-164.74 228.8,-154.9 221.81,-154.6"/>
</g>
<!-- Node8&#45;&gt;Node3 -->
<g id="edge13" class="edge">
<title>Node8&#45;&gt;Node3</title>
<path fill="none" stroke="#63b8ff" d="M214.48,-155.76C201.22,-132.28 178.36,-91.81 168.39,-74.16"/>
<polygon fill="#63b8ff" stroke="#63b8ff" points="211.54,-157.68 219.51,-164.66 217.64,-154.23 211.54,-157.68"/>
</g>
<!-- Node8&#45;&gt;Node5 -->
<g id="edge14" class="edge">
<title>Node8&#45;&gt;Node5</title>
<path fill="none" stroke="#63b8ff" d="M183.95,-166.68C141.6,-158.84 78.84,-144.98 60.5,-129 43.88,-114.52 37.2,-88.05 34.76,-74.31"/>
<polygon fill="#63b8ff" stroke="#63b8ff" points="183.5,-170.15 193.97,-168.49 184.75,-163.27 183.5,-170.15"/>
</g>
<!-- Node8&#45;&gt;Node6 -->
<g id="edge15" class="edge">
<title>Node8&#45;&gt;Node6</title>
<path fill="none" stroke="#63b8ff" d="M194.62,-161.03C171.13,-151.23 139.03,-137.83 118.28,-129.17"/>
<polygon fill="#63b8ff" stroke="#63b8ff" points="193.52,-164.36 204.1,-164.98 196.21,-157.9 193.52,-164.36"/>
</g>
<!-- Node8&#45;&gt;Node7 -->
<g id="edge16" class="edge">
<title>Node8&#45;&gt;Node7</title>
<path fill="none" stroke="#63b8ff" d="M243.54,-158.88C255.96,-149.34 271.74,-137.21 282.21,-129.17"/>
<polygon fill="#63b8ff" stroke="#63b8ff" points="241.38,-156.12 235.59,-164.98 245.65,-161.67 241.38,-156.12"/>
</g>
<!-- Node10&#45;&gt;Node2 -->
<g id="edge19" class="edge">
<title>Node10&#45;&gt;Node2</title>
<path fill="none" stroke="#63b8ff" d="M369.82,-154.3C369.87,-141.03 368.18,-123.43 360.5,-110 334.8,-65.07 279.92,-33.53 250.72,-19.2"/>
<polygon fill="#63b8ff" stroke="#63b8ff" points="366.31,-154.5 369.43,-164.62 373.3,-154.76 366.31,-154.5"/>
</g>
<!-- Node10&#45;&gt;Node3 -->
<g id="edge20" class="edge">
<title>Node10&#45;&gt;Node3</title>
<path fill="none" stroke="#63b8ff" d="M364.31,-154.86C360.13,-140.55 352.3,-121.37 338.5,-110 300.03,-78.3 241.84,-68.81 203.27,-66.17"/>
<polygon fill="#63b8ff" stroke="#63b8ff" points="360.94,-155.83 366.82,-164.64 367.72,-154.09 360.94,-155.83"/>
</g>
<!-- Node10&#45;&gt;Node9 -->
<g id="edge21" class="edge">
<title>Node10&#45;&gt;Node9</title>
<path fill="none" stroke="#63b8ff" d="M391.42,-159.7C407.45,-150.04 428.37,-137.44 442.1,-129.17"/>
<polygon fill="#63b8ff" stroke="#63b8ff" points="389.4,-156.83 382.64,-164.98 393.01,-162.82 389.4,-156.83"/>
</g>
<!-- Node12 -->
<g id="node12" class="node">
<title>Node12</title>
<g id="a_node12"><a xlink:href="winter_8cpp.html" target="_top" xlink:title="Winter weather parameters.">
<polygon fill="white" stroke="#666666" points="613,-129 546,-129 546,-110 613,-110 613,-129"/>
<text text-anchor="middle" x="579.5" y="-117" font-family="Helvetica,sans-Serif" font-size="10.00">winter.cpp</text>
</a>
</g>
</g>
<!-- Node11&#45;&gt;Node12 -->
<g id="edge23" class="edge">
<title>Node11&#45;&gt;Node12</title>
<path fill="none" stroke="#63b8ff" d="M577.57,-154.66C578.06,-145.93 578.62,-135.99 579.01,-129.09"/>
<polygon fill="#63b8ff" stroke="#63b8ff" points="574.07,-154.57 577,-164.75 581.06,-154.96 574.07,-154.57"/>
</g>
</g>
</svg>
