<?xml version="1.0" encoding="UTF-8" standalone="no"?>
<!DOCTYPE svg PUBLIC "-//W3C//DTD SVG 1.1//EN"
 "http://www.w3.org/Graphics/SVG/1.1/DTD/svg11.dtd">
<!-- Generated by graphviz version 2.43.0 (0)
 -->
<!-- Title: sharp_HeightLayer_to_PressureLayer Pages: 1 -->
<svg width="691pt" height="64pt"
 viewBox="0.00 0.00 691.00 64.00" xmlns="http://www.w3.org/2000/svg" xmlns:xlink="http://www.w3.org/1999/xlink">
<g id="graph0" class="graph" transform="scale(1 1) rotate(0) translate(4 60)">
<title>sharp_HeightLayer_to_PressureLayer</title>
<!-- Node1 -->
<g id="node1" class="node">
<title>Node1</title>
<g id="a_node1"><a xlink:title=" ">
<polygon fill="#999999" stroke="#666666" points="123,-42.5 0,-42.5 0,-12.5 123,-12.5 123,-42.5"/>
<text text-anchor="start" x="8" y="-30.5" font-family="Helvetica,sans-Serif" font-size="10.00">sharp_HeightLayer_to</text>
<text text-anchor="middle" x="61.5" y="-19.5" font-family="Helvetica,sans-Serif" font-size="10.00">_PressureLayer</text>
</a>
</g>
</g>
<!-- Node2 -->
<g id="node2" class="node">
<title>Node2</title>
<g id="a_node2"><a xlink:href="namespacesharp.html#ab77e344c7462c9615b0ddac228bc2193" target="_top" xlink:title="Converts a sharp::HeightLayer to a sharp::PressureLayer.">
<polygon fill="white" stroke="#666666" points="269,-42.5 159,-42.5 159,-12.5 269,-12.5 269,-42.5"/>
<text text-anchor="start" x="167" y="-30.5" font-family="Helvetica,sans-Serif" font-size="10.00">sharp::height_layer</text>
<text text-anchor="middle" x="214" y="-19.5" font-family="Helvetica,sans-Serif" font-size="10.00">_to_pressure</text>
</a>
</g>
</g>
<!-- Node1&#45;&gt;Node2 -->
<g id="edge1" class="edge">
<title>Node1&#45;&gt;Node2</title>
<path fill="none" stroke="#63b8ff" d="M123.28,-27.5C131.63,-27.5 140.23,-27.5 148.64,-27.5"/>
<polygon fill="#63b8ff" stroke="#63b8ff" points="148.79,-31 158.79,-27.5 148.79,-24 148.79,-31"/>
</g>
<!-- Node3 -->
<g id="node3" class="node">
<title>Node3</title>
<g id="a_node3"><a xlink:href="namespacesharp.html#af8484e9fe21c025b64ecffde614feb11" target="_top" xlink:title="Linearly interpolate a data field to a requested height level.">
<polygon fill="white" stroke="#666666" points="419,-37 305,-37 305,-18 419,-18 419,-37"/>
<text text-anchor="middle" x="362" y="-25" font-family="Helvetica,sans-Serif" font-size="10.00">sharp::interp_height</text>
</a>
</g>
</g>
<!-- Node2&#45;&gt;Node3 -->
<g id="edge2" class="edge">
<title>Node2&#45;&gt;Node3</title>
<path fill="none" stroke="#63b8ff" d="M269.37,-27.5C277.55,-27.5 286.07,-27.5 294.47,-27.5"/>
<polygon fill="#63b8ff" stroke="#63b8ff" points="294.64,-31 304.64,-27.5 294.64,-24 294.64,-31"/>
</g>
<!-- Node4 -->
<g id="node4" class="node">
<title>Node4</title>
<g id="a_node4"><a xlink:href="namespacesharp.html#a8aa123fbe3b59a7023446b0fe2186c49" target="_top" xlink:title="Linearly interpolates between a and b with distance t.">
<polygon fill="white" stroke="#666666" points="545.5,-56 477.5,-56 477.5,-37 545.5,-37 545.5,-56"/>
<text text-anchor="middle" x="511.5" y="-44" font-family="Helvetica,sans-Serif" font-size="10.00">sharp::lerp</text>
</a>
</g>
</g>
<!-- Node3&#45;&gt;Node4 -->
<g id="edge3" class="edge">
<title>Node3&#45;&gt;Node4</title>
<path fill="none" stroke="#63b8ff" d="M419.18,-34.74C435.06,-36.78 452.09,-38.98 467.09,-40.91"/>
<polygon fill="#63b8ff" stroke="#63b8ff" points="466.75,-44.39 477.11,-42.2 467.64,-37.45 466.75,-44.39"/>
</g>
<!-- Node6 -->
<g id="node6" class="node">
<title>Node6</title>
<g id="a_node6"><a xlink:href="namespacesharp.html#a772686549a5111c1152b778731119aa6" target="_top" xlink:title="Finds the first index that satisfies value &lt; element.">
<polygon fill="white" stroke="#666666" points="568,-19 455,-19 455,0 568,0 568,-19"/>
<text text-anchor="middle" x="511.5" y="-7" font-family="Helvetica,sans-Serif" font-size="10.00">sharp::upper_bound</text>
</a>
</g>
</g>
<!-- Node3&#45;&gt;Node6 -->
<g id="edge5" class="edge">
<title>Node3&#45;&gt;Node6</title>
<path fill="none" stroke="#63b8ff" d="M419.18,-20.64C427.61,-19.62 436.36,-18.55 444.96,-17.5"/>
<polygon fill="#63b8ff" stroke="#63b8ff" points="445.46,-20.96 454.96,-16.28 444.61,-14.01 445.46,-20.96"/>
</g>
<!-- Node5 -->
<g id="node5" class="node">
<title>Node5</title>
<g id="a_node5"><a xlink:href="namespacesharp.html#a8848423b96dfe09b90322efd2cc5bd43" target="_top" xlink:title="Linearly interpolates between a and b with distance t.">
<polygon fill="white" stroke="#666666" points="683,-56 604,-56 604,-37 683,-37 683,-56"/>
<text text-anchor="middle" x="643.5" y="-44" font-family="Helvetica,sans-Serif" font-size="10.00">sharp::__lerp</text>
</a>
</g>
</g>
<!-- Node4&#45;&gt;Node5 -->
<g id="edge4" class="edge">
<title>Node4&#45;&gt;Node5</title>
<path fill="none" stroke="#63b8ff" d="M545.64,-46.5C560.2,-46.5 577.6,-46.5 593.61,-46.5"/>
<polygon fill="#63b8ff" stroke="#63b8ff" points="593.88,-50 603.88,-46.5 593.88,-43 593.88,-50"/>
</g>
</g>
</svg>
