<?xml version="1.0" encoding="UTF-8" standalone="no"?>
<!DOCTYPE svg PUBLIC "-//W3C//DTD SVG 1.1//EN"
 "http://www.w3.org/Graphics/SVG/1.1/DTD/svg11.dtd">
<!-- Generated by graphviz version 2.43.0 (0)
 -->
<!-- Title: sharp_HeightLayer_min Pages: 1 -->
<svg width="858pt" height="101pt"
 viewBox="0.00 0.00 858.00 101.00" xmlns="http://www.w3.org/2000/svg" xmlns:xlink="http://www.w3.org/1999/xlink">
<g id="graph0" class="graph" transform="scale(1 1) rotate(0) translate(4 97)">
<title>sharp_HeightLayer_min</title>
<!-- Node1 -->
<g id="node1" class="node">
<title>Node1</title>
<g id="a_node1"><a xlink:title=" ">
<polygon fill="#999999" stroke="#666666" points="132,-56 0,-56 0,-37 132,-37 132,-56"/>
<text text-anchor="middle" x="66" y="-44" font-family="Helvetica,sans-Serif" font-size="10.00">sharp_HeightLayer_min</text>
</a>
</g>
</g>
<!-- Node2 -->
<g id="node2" class="node">
<title>Node2</title>
<g id="a_node2"><a xlink:href="namespacesharp.html#a01a9880c937f63e551893797253da4f7" target="_top" xlink:title="Returns the minimum value in the given layer.">
<polygon fill="white" stroke="#666666" points="266,-56 168,-56 168,-37 266,-37 266,-56"/>
<text text-anchor="middle" x="217" y="-44" font-family="Helvetica,sans-Serif" font-size="10.00">sharp::layer_min</text>
</a>
</g>
</g>
<!-- Node1&#45;&gt;Node2 -->
<g id="edge1" class="edge">
<title>Node1&#45;&gt;Node2</title>
<path fill="none" stroke="#63b8ff" d="M132.35,-46.5C140.71,-46.5 149.22,-46.5 157.46,-46.5"/>
<polygon fill="#63b8ff" stroke="#63b8ff" points="157.72,-50 167.72,-46.5 157.72,-43 157.72,-50"/>
</g>
<!-- Node3 -->
<g id="node3" class="node">
<title>Node3</title>
<g id="a_node3"><a xlink:href="namespacesharp.html#a646b65095b84511b75f6a4a81e545e80" target="_top" xlink:title="Template for min/max value over sharp::PressureLayer or sharp::HeightLayer.">
<polygon fill="white" stroke="#666666" points="422,-56 302,-56 302,-37 422,-37 422,-56"/>
<text text-anchor="middle" x="362" y="-44" font-family="Helvetica,sans-Serif" font-size="10.00">sharp::layer_minmax</text>
</a>
</g>
</g>
<!-- Node2&#45;&gt;Node3 -->
<g id="edge2" class="edge">
<title>Node2&#45;&gt;Node3</title>
<path fill="none" stroke="#63b8ff" d="M266.01,-46.5C274.3,-46.5 283.05,-46.5 291.76,-46.5"/>
<polygon fill="#63b8ff" stroke="#63b8ff" points="291.93,-50 301.93,-46.5 291.93,-43 291.93,-50"/>
</g>
<!-- Node4 -->
<g id="node4" class="node">
<title>Node4</title>
<g id="a_node4"><a xlink:href="namespacesharp.html#ac93f477dfa774c966b5da7521bd43ee6" target="_top" xlink:title="Returns the array indices corresponding to the given layer.">
<polygon fill="white" stroke="#666666" points="586,-93 458,-93 458,-74 586,-74 586,-93"/>
<text text-anchor="middle" x="522" y="-81" font-family="Helvetica,sans-Serif" font-size="10.00">sharp::get_layer_index</text>
</a>
</g>
</g>
<!-- Node3&#45;&gt;Node4 -->
<g id="edge3" class="edge">
<title>Node3&#45;&gt;Node4</title>
<path fill="none" stroke="#63b8ff" d="M403.69,-56.03C423.97,-60.78 448.71,-66.57 470.22,-71.61"/>
<polygon fill="#63b8ff" stroke="#63b8ff" points="469.64,-75.07 480.17,-73.94 471.24,-68.25 469.64,-75.07"/>
</g>
<!-- Node7 -->
<g id="node7" class="node">
<title>Node7</title>
<g id="a_node7"><a xlink:href="namespacesharp.html#ae8240f026498ad2775633a8d0dcf100d" target="_top" xlink:title="Linearly interpolate a data field to a requested height level.">
<polygon fill="white" stroke="#666666" points="579,-19 465,-19 465,0 579,0 579,-19"/>
<text text-anchor="middle" x="522" y="-7" font-family="Helvetica,sans-Serif" font-size="10.00">sharp::interp_height</text>
</a>
</g>
</g>
<!-- Node3&#45;&gt;Node7 -->
<g id="edge6" class="edge">
<title>Node3&#45;&gt;Node7</title>
<path fill="none" stroke="#63b8ff" d="M403.69,-36.97C423.97,-32.22 448.71,-26.43 470.22,-21.39"/>
<polygon fill="#63b8ff" stroke="#63b8ff" points="471.24,-24.75 480.17,-19.06 469.64,-17.93 471.24,-24.75"/>
</g>
<!-- Node10 -->
<g id="node10" class="node">
<title>Node10</title>
<g id="a_node10"><a xlink:href="namespacesharp.html#a55e4f8ee4ff8a4a30d7b3f3d92a41c75" target="_top" xlink:title="Linearly interpolate a data field to a requested pressure level.">
<polygon fill="white" stroke="#666666" points="584.5,-56 459.5,-56 459.5,-37 584.5,-37 584.5,-56"/>
<text text-anchor="middle" x="522" y="-44" font-family="Helvetica,sans-Serif" font-size="10.00">sharp::interp_pressure</text>
</a>
</g>
</g>
<!-- Node3&#45;&gt;Node10 -->
<g id="edge10" class="edge">
<title>Node3&#45;&gt;Node10</title>
<path fill="none" stroke="#63b8ff" d="M422.28,-46.5C431.06,-46.5 440.19,-46.5 449.19,-46.5"/>
<polygon fill="#63b8ff" stroke="#63b8ff" points="449.27,-50 459.27,-46.5 449.27,-43 449.27,-50"/>
</g>
<!-- Node5 -->
<g id="node5" class="node">
<title>Node5</title>
<g id="a_node5"><a xlink:href="namespacesharp.html#a1edcf8bff9a13429bcbff7c1129024b3" target="_top" xlink:title="Finds the index of the lower bound that does not satisfy element &lt; value.">
<polygon fill="white" stroke="#666666" points="734.5,-93 622.5,-93 622.5,-74 734.5,-74 734.5,-93"/>
<text text-anchor="middle" x="678.5" y="-81" font-family="Helvetica,sans-Serif" font-size="10.00">sharp::lower_bound</text>
</a>
</g>
</g>
<!-- Node4&#45;&gt;Node5 -->
<g id="edge4" class="edge">
<title>Node4&#45;&gt;Node5</title>
<path fill="none" stroke="#63b8ff" d="M586.29,-83.5C594.91,-83.5 603.78,-83.5 612.43,-83.5"/>
<polygon fill="#63b8ff" stroke="#63b8ff" points="612.47,-87 622.47,-83.5 612.47,-80 612.47,-87"/>
</g>
<!-- Node6 -->
<g id="node6" class="node">
<title>Node6</title>
<g id="a_node6"><a xlink:href="namespacesharp.html#a772686549a5111c1152b778731119aa6" target="_top" xlink:title="Finds the first index that satisfies value &lt; element.">
<polygon fill="white" stroke="#666666" points="735,-56 622,-56 622,-37 735,-37 735,-56"/>
<text text-anchor="middle" x="678.5" y="-44" font-family="Helvetica,sans-Serif" font-size="10.00">sharp::upper_bound</text>
</a>
</g>
</g>
<!-- Node4&#45;&gt;Node6 -->
<g id="edge5" class="edge">
<title>Node4&#45;&gt;Node6</title>
<path fill="none" stroke="#63b8ff" d="M562.79,-73.97C582.62,-69.22 606.81,-63.43 627.85,-58.39"/>
<polygon fill="#63b8ff" stroke="#63b8ff" points="628.67,-61.79 637.58,-56.06 627.04,-54.99 628.67,-61.79"/>
</g>
<!-- Node7&#45;&gt;Node6 -->
<g id="edge9" class="edge">
<title>Node7&#45;&gt;Node6</title>
<path fill="none" stroke="#63b8ff" d="M562.79,-19.03C582.62,-23.78 606.81,-29.57 627.85,-34.61"/>
<polygon fill="#63b8ff" stroke="#63b8ff" points="627.04,-38.01 637.58,-36.94 628.67,-31.21 627.04,-38.01"/>
</g>
<!-- Node8 -->
<g id="node8" class="node">
<title>Node8</title>
<g id="a_node8"><a xlink:href="namespacesharp.html#a0bf533560780fdb77bc3656db8d89208" target="_top" xlink:title="Linearly interpolates between a and b with distance t.">
<polygon fill="white" stroke="#666666" points="712.5,-19 644.5,-19 644.5,0 712.5,0 712.5,-19"/>
<text text-anchor="middle" x="678.5" y="-7" font-family="Helvetica,sans-Serif" font-size="10.00">sharp::lerp</text>
</a>
</g>
</g>
<!-- Node7&#45;&gt;Node8 -->
<g id="edge7" class="edge">
<title>Node7&#45;&gt;Node8</title>
<path fill="none" stroke="#63b8ff" d="M579.22,-9.5C597.36,-9.5 617.19,-9.5 634.25,-9.5"/>
<polygon fill="#63b8ff" stroke="#63b8ff" points="634.48,-13 644.48,-9.5 634.48,-6 634.48,-13"/>
</g>
<!-- Node9 -->
<g id="node9" class="node">
<title>Node9</title>
<g id="a_node9"><a xlink:href="namespacesharp.html#ac4464059524ff56c7974141bb4cc7375" target="_top" xlink:title="Linearly interpolates between a and b with distance t.">
<polygon fill="white" stroke="#666666" points="850,-19 771,-19 771,0 850,0 850,-19"/>
<text text-anchor="middle" x="810.5" y="-7" font-family="Helvetica,sans-Serif" font-size="10.00">sharp::__lerp</text>
</a>
</g>
</g>
<!-- Node8&#45;&gt;Node9 -->
<g id="edge8" class="edge">
<title>Node8&#45;&gt;Node9</title>
<path fill="none" stroke="#63b8ff" d="M712.64,-9.5C727.2,-9.5 744.6,-9.5 760.61,-9.5"/>
<polygon fill="#63b8ff" stroke="#63b8ff" points="760.88,-13 770.88,-9.5 760.88,-6 760.88,-13"/>
</g>
<!-- Node10&#45;&gt;Node6 -->
<g id="edge12" class="edge">
<title>Node10&#45;&gt;Node6</title>
<path fill="none" stroke="#63b8ff" d="M584.51,-46.5C593.43,-46.5 602.65,-46.5 611.66,-46.5"/>
<polygon fill="#63b8ff" stroke="#63b8ff" points="611.71,-50 621.71,-46.5 611.71,-43 611.71,-50"/>
</g>
<!-- Node10&#45;&gt;Node8 -->
<g id="edge11" class="edge">
<title>Node10&#45;&gt;Node8</title>
<path fill="none" stroke="#63b8ff" d="M562.79,-36.97C584.73,-31.72 611.99,-25.19 634.43,-19.81"/>
<polygon fill="#63b8ff" stroke="#63b8ff" points="635.46,-23.17 644.37,-17.43 633.83,-16.36 635.46,-23.17"/>
</g>
</g>
</svg>
