<?xml version="1.0" encoding="UTF-8" standalone="no"?>
<!DOCTYPE svg PUBLIC "-//W3C//DTD SVG 1.1//EN"
 "http://www.w3.org/Graphics/SVG/1.1/DTD/svg11.dtd">
<!-- Generated by graphviz version 2.43.0 (0)
 -->
<!-- Title: sharp_get_PressureLayer_index Pages: 1 -->
<svg width="460pt" height="64pt"
 viewBox="0.00 0.00 460.00 64.00" xmlns="http://www.w3.org/2000/svg" xmlns:xlink="http://www.w3.org/1999/xlink">
<g id="graph0" class="graph" transform="scale(1 1) rotate(0) translate(4 60)">
<title>sharp_get_PressureLayer_index</title>
<!-- Node1 -->
<g id="node1" class="node">
<title>Node1</title>
<g id="a_node1"><a xlink:title=" ">
<polygon fill="#999999" stroke="#666666" points="139,-42.5 0,-42.5 0,-12.5 139,-12.5 139,-42.5"/>
<text text-anchor="start" x="8" y="-30.5" font-family="Helvetica,sans-Serif" font-size="10.00">sharp_get_PressureLayer</text>
<text text-anchor="middle" x="69.5" y="-19.5" font-family="Helvetica,sans-Serif" font-size="10.00">_index</text>
</a>
</g>
</g>
<!-- Node2 -->
<g id="node2" class="node">
<title>Node2</title>
<g id="a_node2"><a xlink:href="namespacesharp.html#ac93f477dfa774c966b5da7521bd43ee6" target="_top" xlink:title="Returns the array indices corresponding to the given layer.">
<polygon fill="white" stroke="#666666" points="303,-37 175,-37 175,-18 303,-18 303,-37"/>
<text text-anchor="middle" x="239" y="-25" font-family="Helvetica,sans-Serif" font-size="10.00">sharp::get_layer_index</text>
</a>
</g>
</g>
<!-- Node1&#45;&gt;Node2 -->
<g id="edge1" class="edge">
<title>Node1&#45;&gt;Node2</title>
<path fill="none" stroke="#63b8ff" d="M139.11,-27.5C147.53,-27.5 156.15,-27.5 164.63,-27.5"/>
<polygon fill="#63b8ff" stroke="#63b8ff" points="164.88,-31 174.88,-27.5 164.88,-24 164.88,-31"/>
</g>
<!-- Node3 -->
<g id="node3" class="node">
<title>Node3</title>
<g id="a_node3"><a xlink:href="namespacesharp.html#a1edcf8bff9a13429bcbff7c1129024b3" target="_top" xlink:title="Finds the index of the lower bound that does not satisfy element &lt; value.">
<polygon fill="white" stroke="#666666" points="451.5,-56 339.5,-56 339.5,-37 451.5,-37 451.5,-56"/>
<text text-anchor="middle" x="395.5" y="-44" font-family="Helvetica,sans-Serif" font-size="10.00">sharp::lower_bound</text>
</a>
</g>
</g>
<!-- Node2&#45;&gt;Node3 -->
<g id="edge2" class="edge">
<title>Node2&#45;&gt;Node3</title>
<path fill="none" stroke="#63b8ff" d="M303.29,-35.28C311.91,-36.34 320.78,-37.43 329.43,-38.5"/>
<polygon fill="#63b8ff" stroke="#63b8ff" points="329.12,-41.99 339.47,-39.73 329.97,-35.04 329.12,-41.99"/>
</g>
<!-- Node4 -->
<g id="node4" class="node">
<title>Node4</title>
<g id="a_node4"><a xlink:href="namespacesharp.html#a772686549a5111c1152b778731119aa6" target="_top" xlink:title="Finds the first index that satisfies value &lt; element.">
<polygon fill="white" stroke="#666666" points="452,-19 339,-19 339,0 452,0 452,-19"/>
<text text-anchor="middle" x="395.5" y="-7" font-family="Helvetica,sans-Serif" font-size="10.00">sharp::upper_bound</text>
</a>
</g>
</g>
<!-- Node2&#45;&gt;Node4 -->
<g id="edge3" class="edge">
<title>Node2&#45;&gt;Node4</title>
<path fill="none" stroke="#63b8ff" d="M303.29,-20.13C311.7,-19.15 320.34,-18.14 328.79,-17.16"/>
<polygon fill="#63b8ff" stroke="#63b8ff" points="329.46,-20.6 338.98,-15.97 328.64,-13.65 329.46,-20.6"/>
</g>
</g>
</svg>
