<?xml version="1.0" encoding="UTF-8" standalone="no"?>
<!DOCTYPE svg PUBLIC "-//W3C//DTD SVG 1.1//EN"
 "http://www.w3.org/Graphics/SVG/1.1/DTD/svg11.dtd">
<!-- Generated by graphviz version 2.43.0 (0)
 -->
<!-- Title: sharp_HeightLayer_mean Pages: 1 -->
<svg width="880pt" height="138pt"
 viewBox="0.00 0.00 880.00 138.00" xmlns="http://www.w3.org/2000/svg" xmlns:xlink="http://www.w3.org/1999/xlink">
<g id="graph0" class="graph" transform="scale(1 1) rotate(0) translate(4 134)">
<title>sharp_HeightLayer_mean</title>
<!-- Node1 -->
<g id="node1" class="node">
<title>Node1</title>
<g id="a_node1"><a xlink:title=" ">
<polygon fill="#999999" stroke="#666666" points="141,-74 0,-74 0,-55 141,-55 141,-74"/>
<text text-anchor="middle" x="70.5" y="-62" font-family="Helvetica,sans-Serif" font-size="10.00">sharp_HeightLayer_mean</text>
</a>
</g>
</g>
<!-- Node2 -->
<g id="node2" class="node">
<title>Node2</title>
<g id="a_node2"><a xlink:href="namespacesharp.html#a298e2c96c389f2c5177d3626c908927e" target="_top" xlink:title="Computes the mass&#45;weighted mean value of a field over a given pressure layer.">
<polygon fill="white" stroke="#666666" points="284,-74 177,-74 177,-55 284,-55 284,-74"/>
<text text-anchor="middle" x="230.5" y="-62" font-family="Helvetica,sans-Serif" font-size="10.00">sharp::layer_mean</text>
</a>
</g>
</g>
<!-- Node1&#45;&gt;Node2 -->
<g id="edge1" class="edge">
<title>Node1&#45;&gt;Node2</title>
<path fill="none" stroke="#63b8ff" d="M141.26,-64.5C149.72,-64.5 158.33,-64.5 166.68,-64.5"/>
<polygon fill="#63b8ff" stroke="#63b8ff" points="166.72,-68 176.72,-64.5 166.72,-61 166.72,-68"/>
</g>
<!-- Node3 -->
<g id="node3" class="node">
<title>Node3</title>
<g id="a_node3"><a xlink:href="namespacesharp.html#a7acec1642f27591dc988bf9e48b4612d" target="_top" xlink:title="Returns a trapezoidal integration of the given layer.">
<polygon fill="white" stroke="#666666" points="444,-79.5 320,-79.5 320,-49.5 444,-49.5 444,-79.5"/>
<text text-anchor="start" x="328" y="-67.5" font-family="Helvetica,sans-Serif" font-size="10.00">sharp::integrate_layer</text>
<text text-anchor="middle" x="382" y="-56.5" font-family="Helvetica,sans-Serif" font-size="10.00">_trapz</text>
</a>
</g>
</g>
<!-- Node2&#45;&gt;Node3 -->
<g id="edge2" class="edge">
<title>Node2&#45;&gt;Node3</title>
<path fill="none" stroke="#63b8ff" d="M284.21,-64.5C292.49,-64.5 301.16,-64.5 309.77,-64.5"/>
<polygon fill="#63b8ff" stroke="#63b8ff" points="309.82,-68 319.82,-64.5 309.82,-61 309.82,-68"/>
</g>
<!-- Node4 -->
<g id="node4" class="node">
<title>Node4</title>
<g id="a_node4"><a xlink:href="namespacesharp.html#a3558a68454edd4679ef97335e3a9f1fb" target="_top" xlink:title="A kernel that computes the area under a curve using the trapezoidal rule.">
<polygon fill="white" stroke="#666666" points="599,-130 489,-130 489,-111 599,-111 599,-130"/>
<text text-anchor="middle" x="544" y="-118" font-family="Helvetica,sans-Serif" font-size="10.00">sharp::_integ_trapz</text>
</a>
</g>
</g>
<!-- Node3&#45;&gt;Node4 -->
<g id="edge3" class="edge">
<title>Node3&#45;&gt;Node4</title>
<path fill="none" stroke="#63b8ff" d="M419.09,-79.58C437.22,-86.92 459.61,-95.61 480,-102.5 485.66,-104.41 491.65,-106.3 497.6,-108.09"/>
<polygon fill="#63b8ff" stroke="#63b8ff" points="496.92,-111.54 507.5,-111 498.89,-104.82 496.92,-111.54"/>
</g>
<!-- Node5 -->
<g id="node5" class="node">
<title>Node5</title>
<g id="a_node5"><a xlink:href="namespacesharp.html#ac93f477dfa774c966b5da7521bd43ee6" target="_top" xlink:title="Returns the array indices corresponding to the given layer.">
<polygon fill="white" stroke="#666666" points="608,-93 480,-93 480,-74 608,-74 608,-93"/>
<text text-anchor="middle" x="544" y="-81" font-family="Helvetica,sans-Serif" font-size="10.00">sharp::get_layer_index</text>
</a>
</g>
</g>
<!-- Node3&#45;&gt;Node5 -->
<g id="edge4" class="edge">
<title>Node3&#45;&gt;Node5</title>
<path fill="none" stroke="#63b8ff" d="M444.4,-71.79C452.76,-72.78 461.41,-73.81 469.95,-74.83"/>
<polygon fill="#63b8ff" stroke="#63b8ff" points="469.56,-78.3 479.91,-76.01 470.39,-71.35 469.56,-78.3"/>
</g>
<!-- Node8 -->
<g id="node8" class="node">
<title>Node8</title>
<g id="a_node8"><a xlink:href="namespacesharp.html#ae8240f026498ad2775633a8d0dcf100d" target="_top" xlink:title="Linearly interpolate a data field to a requested height level.">
<polygon fill="white" stroke="#666666" points="601,-56 487,-56 487,-37 601,-37 601,-56"/>
<text text-anchor="middle" x="544" y="-44" font-family="Helvetica,sans-Serif" font-size="10.00">sharp::interp_height</text>
</a>
</g>
</g>
<!-- Node3&#45;&gt;Node8 -->
<g id="edge7" class="edge">
<title>Node3&#45;&gt;Node8</title>
<path fill="none" stroke="#63b8ff" d="M444.4,-57.59C454.95,-56.41 465.96,-55.17 476.64,-53.97"/>
<polygon fill="#63b8ff" stroke="#63b8ff" points="477.2,-57.42 486.74,-52.83 476.42,-50.47 477.2,-57.42"/>
</g>
<!-- Node11 -->
<g id="node11" class="node">
<title>Node11</title>
<g id="a_node11"><a xlink:href="namespacesharp.html#a55e4f8ee4ff8a4a30d7b3f3d92a41c75" target="_top" xlink:title="Linearly interpolate a data field to a requested pressure level.">
<polygon fill="white" stroke="#666666" points="606.5,-19 481.5,-19 481.5,0 606.5,0 606.5,-19"/>
<text text-anchor="middle" x="544" y="-7" font-family="Helvetica,sans-Serif" font-size="10.00">sharp::interp_pressure</text>
</a>
</g>
</g>
<!-- Node3&#45;&gt;Node11 -->
<g id="edge11" class="edge">
<title>Node3&#45;&gt;Node11</title>
<path fill="none" stroke="#63b8ff" d="M421.98,-49.4C439.61,-42.74 460.76,-34.96 480,-28.5 486.48,-26.32 493.36,-24.13 500.12,-22.04"/>
<polygon fill="#63b8ff" stroke="#63b8ff" points="501.31,-25.34 509.85,-19.07 499.27,-18.64 501.31,-25.34"/>
</g>
<!-- Node6 -->
<g id="node6" class="node">
<title>Node6</title>
<g id="a_node6"><a xlink:href="namespacesharp.html#a1edcf8bff9a13429bcbff7c1129024b3" target="_top" xlink:title="Finds the index of the lower bound that does not satisfy element &lt; value.">
<polygon fill="white" stroke="#666666" points="756.5,-93 644.5,-93 644.5,-74 756.5,-74 756.5,-93"/>
<text text-anchor="middle" x="700.5" y="-81" font-family="Helvetica,sans-Serif" font-size="10.00">sharp::lower_bound</text>
</a>
</g>
</g>
<!-- Node5&#45;&gt;Node6 -->
<g id="edge5" class="edge">
<title>Node5&#45;&gt;Node6</title>
<path fill="none" stroke="#63b8ff" d="M608.29,-83.5C616.91,-83.5 625.78,-83.5 634.43,-83.5"/>
<polygon fill="#63b8ff" stroke="#63b8ff" points="634.47,-87 644.47,-83.5 634.47,-80 634.47,-87"/>
</g>
<!-- Node7 -->
<g id="node7" class="node">
<title>Node7</title>
<g id="a_node7"><a xlink:href="namespacesharp.html#a772686549a5111c1152b778731119aa6" target="_top" xlink:title="Finds the first index that satisfies value &lt; element.">
<polygon fill="white" stroke="#666666" points="757,-56 644,-56 644,-37 757,-37 757,-56"/>
<text text-anchor="middle" x="700.5" y="-44" font-family="Helvetica,sans-Serif" font-size="10.00">sharp::upper_bound</text>
</a>
</g>
</g>
<!-- Node5&#45;&gt;Node7 -->
<g id="edge6" class="edge">
<title>Node5&#45;&gt;Node7</title>
<path fill="none" stroke="#63b8ff" d="M584.79,-73.97C604.62,-69.22 628.81,-63.43 649.85,-58.39"/>
<polygon fill="#63b8ff" stroke="#63b8ff" points="650.67,-61.79 659.58,-56.06 649.04,-54.99 650.67,-61.79"/>
</g>
<!-- Node8&#45;&gt;Node7 -->
<g id="edge10" class="edge">
<title>Node8&#45;&gt;Node7</title>
<path fill="none" stroke="#63b8ff" d="M601.22,-46.5C611.74,-46.5 622.83,-46.5 633.62,-46.5"/>
<polygon fill="#63b8ff" stroke="#63b8ff" points="633.84,-50 643.84,-46.5 633.84,-43 633.84,-50"/>
</g>
<!-- Node9 -->
<g id="node9" class="node">
<title>Node9</title>
<g id="a_node9"><a xlink:href="namespacesharp.html#a0bf533560780fdb77bc3656db8d89208" target="_top" xlink:title="Linearly interpolates between a and b with distance t.">
<polygon fill="white" stroke="#666666" points="734.5,-19 666.5,-19 666.5,0 734.5,0 734.5,-19"/>
<text text-anchor="middle" x="700.5" y="-7" font-family="Helvetica,sans-Serif" font-size="10.00">sharp::lerp</text>
</a>
</g>
</g>
<!-- Node8&#45;&gt;Node9 -->
<g id="edge8" class="edge">
<title>Node8&#45;&gt;Node9</title>
<path fill="none" stroke="#63b8ff" d="M584.79,-36.97C606.73,-31.72 633.99,-25.19 656.43,-19.81"/>
<polygon fill="#63b8ff" stroke="#63b8ff" points="657.46,-23.17 666.37,-17.43 655.83,-16.36 657.46,-23.17"/>
</g>
<!-- Node10 -->
<g id="node10" class="node">
<title>Node10</title>
<g id="a_node10"><a xlink:href="namespacesharp.html#ac4464059524ff56c7974141bb4cc7375" target="_top" xlink:title="Linearly interpolates between a and b with distance t.">
<polygon fill="white" stroke="#666666" points="872,-19 793,-19 793,0 872,0 872,-19"/>
<text text-anchor="middle" x="832.5" y="-7" font-family="Helvetica,sans-Serif" font-size="10.00">sharp::__lerp</text>
</a>
</g>
</g>
<!-- Node9&#45;&gt;Node10 -->
<g id="edge9" class="edge">
<title>Node9&#45;&gt;Node10</title>
<path fill="none" stroke="#63b8ff" d="M734.64,-9.5C749.2,-9.5 766.6,-9.5 782.61,-9.5"/>
<polygon fill="#63b8ff" stroke="#63b8ff" points="782.88,-13 792.88,-9.5 782.88,-6 782.88,-13"/>
</g>
<!-- Node11&#45;&gt;Node7 -->
<g id="edge13" class="edge">
<title>Node11&#45;&gt;Node7</title>
<path fill="none" stroke="#63b8ff" d="M584.79,-19.03C604.62,-23.78 628.81,-29.57 649.85,-34.61"/>
<polygon fill="#63b8ff" stroke="#63b8ff" points="649.04,-38.01 659.58,-36.94 650.67,-31.21 649.04,-38.01"/>
</g>
<!-- Node11&#45;&gt;Node9 -->
<g id="edge12" class="edge">
<title>Node11&#45;&gt;Node9</title>
<path fill="none" stroke="#63b8ff" d="M606.51,-9.5C623.05,-9.5 640.6,-9.5 655.95,-9.5"/>
<polygon fill="#63b8ff" stroke="#63b8ff" points="656.18,-13 666.18,-9.5 656.18,-6 656.18,-13"/>
</g>
</g>
</svg>
