<?xml version="1.0" encoding="UTF-8" standalone="no"?>
<!DOCTYPE svg PUBLIC "-//W3C//DTD SVG 1.1//EN"
 "http://www.w3.org/Graphics/SVG/1.1/DTD/svg11.dtd">
<!-- Generated by graphviz version 2.43.0 (0)
 -->
<!-- Title: layer_wrap.cpp Pages: 1 -->
<svg width="564pt" height="203pt"
 viewBox="0.00 0.00 564.00 203.00" xmlns="http://www.w3.org/2000/svg" xmlns:xlink="http://www.w3.org/1999/xlink">
<g id="graph0" class="graph" transform="scale(1 1) rotate(0) translate(4 199)">
<title>layer_wrap.cpp</title>
<!-- Node1 -->
<g id="node1" class="node">
<title>Node1</title>
<g id="a_node1"><a xlink:title=" ">
<polygon fill="#999999" stroke="#666666" points="257,-195 166,-195 166,-176 257,-176 257,-195"/>
<text text-anchor="middle" x="211.5" y="-183" font-family="Helvetica,sans-Serif" font-size="10.00">layer_wrap.cpp</text>
</a>
</g>
</g>
<!-- Node2 -->
<g id="node2" class="node">
<title>Node2</title>
<g id="a_node2"><a xlink:href="layer__wrap_8h.html" target="_top" xlink:title="Header defining the C wrapper interface to layer based routines.">
<polygon fill="white" stroke="#666666" points="125,-140 0,-140 0,-110 125,-110 125,-140"/>
<text text-anchor="start" x="8" y="-128" font-family="Helvetica,sans-Serif" font-size="10.00">SHARPlib/CWrap/layer</text>
<text text-anchor="middle" x="62.5" y="-117" font-family="Helvetica,sans-Serif" font-size="10.00">_wrap.h</text>
</a>
</g>
</g>
<!-- Node1&#45;&gt;Node2 -->
<g id="edge1" class="edge">
<title>Node1&#45;&gt;Node2</title>
<path fill="none" stroke="#63b8ff" d="M189.83,-175.99C168.39,-167.57 134.92,-154.43 107.67,-143.73"/>
<polygon fill="#63b8ff" stroke="#63b8ff" points="108.91,-140.46 98.32,-140.06 106.35,-146.98 108.91,-140.46"/>
</g>
<!-- Node3 -->
<g id="node3" class="node">
<title>Node3</title>
<g id="a_node3"><a xlink:href="constants_8h.html" target="_top" xlink:title="Meteorological constants useful for computations with vertical atmospheric sounding profiles.">
<polygon fill="white" stroke="#666666" points="252,-19 131,-19 131,0 252,0 252,-19"/>
<text text-anchor="middle" x="191.5" y="-7" font-family="Helvetica,sans-Serif" font-size="10.00">SHARPlib/constants.h</text>
</a>
</g>
</g>
<!-- Node1&#45;&gt;Node3 -->
<g id="edge2" class="edge">
<title>Node1&#45;&gt;Node3</title>
<path fill="none" stroke="#63b8ff" d="M210.48,-175.63C207.36,-148.52 197.92,-66.32 193.64,-29.13"/>
<polygon fill="#63b8ff" stroke="#63b8ff" points="197.11,-28.68 192.49,-19.14 190.16,-29.48 197.11,-28.68"/>
</g>
<!-- Node4 -->
<g id="node4" class="node">
<title>Node4</title>
<g id="a_node4"><a xlink:href="layer_8h.html" target="_top" xlink:title="Data structures and functions for performing operations over atmospheric layers.">
<polygon fill="white" stroke="#666666" points="318.5,-134.5 220.5,-134.5 220.5,-115.5 318.5,-115.5 318.5,-134.5"/>
<text text-anchor="middle" x="269.5" y="-122.5" font-family="Helvetica,sans-Serif" font-size="10.00">SHARPlib/layer.h</text>
</a>
</g>
</g>
<!-- Node1&#45;&gt;Node4 -->
<g id="edge3" class="edge">
<title>Node1&#45;&gt;Node4</title>
<path fill="none" stroke="#63b8ff" d="M220.06,-175.87C228.88,-166.97 242.84,-152.89 253.68,-141.95"/>
<polygon fill="#63b8ff" stroke="#63b8ff" points="256.35,-144.23 260.91,-134.67 251.38,-139.3 256.35,-144.23"/>
</g>
<!-- Node10 -->
<g id="node10" class="node">
<title>Node10</title>
<g id="a_node10"><a xlink:title=" ">
<polygon fill="#e0e0e0" stroke="#999999" points="390,-134.5 337,-134.5 337,-115.5 390,-115.5 390,-134.5"/>
<text text-anchor="middle" x="363.5" y="-122.5" font-family="Helvetica,sans-Serif" font-size="10.00">stdlib.h</text>
</a>
</g>
</g>
<!-- Node1&#45;&gt;Node10 -->
<g id="edge15" class="edge">
<title>Node1&#45;&gt;Node10</title>
<path fill="none" stroke="#63b8ff" d="M233.75,-176C257.11,-167.07 294.9,-152.59 327.5,-140 328.91,-139.46 330.35,-138.9 331.8,-138.34"/>
<polygon fill="#63b8ff" stroke="#63b8ff" points="333.36,-141.48 341.42,-134.6 330.83,-134.96 333.36,-141.48"/>
</g>
<!-- Node4&#45;&gt;Node3 -->
<g id="edge7" class="edge">
<title>Node4&#45;&gt;Node3</title>
<path fill="none" stroke="#63b8ff" d="M263.64,-115.47C250.82,-96.82 220.1,-52.11 203.18,-27.49"/>
<polygon fill="#63b8ff" stroke="#63b8ff" points="205.98,-25.39 197.43,-19.13 200.21,-29.35 205.98,-25.39"/>
</g>
<!-- Node5 -->
<g id="node5" class="node">
<title>Node5</title>
<g id="a_node5"><a xlink:href="algorithms_8h.html" target="_top" xlink:title="Various algorithms used for searching, sorting, accumulating etc.">
<polygon fill="white" stroke="#666666" points="541.5,-74 415.5,-74 415.5,-55 541.5,-55 541.5,-74"/>
<text text-anchor="middle" x="478.5" y="-62" font-family="Helvetica,sans-Serif" font-size="10.00">SHARPlib/algorithms.h</text>
</a>
</g>
</g>
<!-- Node4&#45;&gt;Node5 -->
<g id="edge4" class="edge">
<title>Node4&#45;&gt;Node5</title>
<path fill="none" stroke="#63b8ff" d="M299.89,-115.49C336.42,-105.27 397.84,-88.08 438.27,-76.76"/>
<polygon fill="#63b8ff" stroke="#63b8ff" points="439.39,-80.08 448.07,-74.02 437.5,-73.34 439.39,-80.08"/>
</g>
<!-- Node6 -->
<g id="node6" class="node">
<title>Node6</title>
<g id="a_node6"><a xlink:title=" ">
<polygon fill="#e0e0e0" stroke="#999999" points="414,-19 361,-19 361,0 414,0 414,-19"/>
<text text-anchor="middle" x="387.5" y="-7" font-family="Helvetica,sans-Serif" font-size="10.00">cstddef</text>
</a>
</g>
</g>
<!-- Node4&#45;&gt;Node6 -->
<g id="edge13" class="edge">
<title>Node4&#45;&gt;Node6</title>
<path fill="none" stroke="#63b8ff" d="M300.94,-115.4C322.81,-107.87 351.07,-94.82 368.5,-74 379,-61.45 383.7,-43.25 385.8,-29.55"/>
<polygon fill="#63b8ff" stroke="#63b8ff" points="389.31,-29.67 387.02,-19.32 382.36,-28.84 389.31,-29.67"/>
</g>
<!-- Node7 -->
<g id="node7" class="node">
<title>Node7</title>
<g id="a_node7"><a xlink:title=" ">
<polygon fill="#e0e0e0" stroke="#999999" points="556,-19 491,-19 491,0 556,0 556,-19"/>
<text text-anchor="middle" x="523.5" y="-7" font-family="Helvetica,sans-Serif" font-size="10.00">functional</text>
</a>
</g>
</g>
<!-- Node4&#45;&gt;Node7 -->
<g id="edge14" class="edge">
<title>Node4&#45;&gt;Node7</title>
<path fill="none" stroke="#63b8ff" d="M303.73,-115.44C311.82,-113.53 320.45,-111.61 328.5,-110 377.51,-100.22 518.11,-112.06 550.5,-74 562.2,-60.25 550.77,-40.68 539.38,-26.91"/>
<polygon fill="#63b8ff" stroke="#63b8ff" points="541.77,-24.33 532.51,-19.19 536.54,-28.98 541.77,-24.33"/>
</g>
<!-- Node8 -->
<g id="node8" class="node">
<title>Node8</title>
<g id="a_node8"><a xlink:href="interp_8h.html" target="_top" xlink:title="Routines for linear interpolation of vertical atmospheric profiles.">
<polygon fill="white" stroke="#666666" points="359.5,-74 257.5,-74 257.5,-55 359.5,-55 359.5,-74"/>
<text text-anchor="middle" x="308.5" y="-62" font-family="Helvetica,sans-Serif" font-size="10.00">SHARPlib/interp.h</text>
</a>
</g>
</g>
<!-- Node4&#45;&gt;Node8 -->
<g id="edge8" class="edge">
<title>Node4&#45;&gt;Node8</title>
<path fill="none" stroke="#63b8ff" d="M275.25,-115.37C280.96,-106.81 289.85,-93.47 297.01,-82.74"/>
<polygon fill="#63b8ff" stroke="#63b8ff" points="300.09,-84.43 302.72,-74.17 294.26,-80.55 300.09,-84.43"/>
</g>
<!-- Node9 -->
<g id="node9" class="node">
<title>Node9</title>
<g id="a_node9"><a xlink:title=" ">
<polygon fill="#e0e0e0" stroke="#999999" points="325,-19 278,-19 278,0 325,0 325,-19"/>
<text text-anchor="middle" x="301.5" y="-7" font-family="Helvetica,sans-Serif" font-size="10.00">cmath</text>
</a>
</g>
</g>
<!-- Node4&#45;&gt;Node9 -->
<g id="edge12" class="edge">
<title>Node4&#45;&gt;Node9</title>
<path fill="none" stroke="#63b8ff" d="M262.84,-115.21C253.55,-101.82 238.87,-75.66 248.5,-55 254.33,-42.49 265.59,-32.25 276.25,-24.76"/>
<polygon fill="#63b8ff" stroke="#63b8ff" points="278.44,-27.51 284.92,-19.13 274.62,-21.64 278.44,-27.51"/>
</g>
<!-- Node5&#45;&gt;Node6 -->
<g id="edge5" class="edge">
<title>Node5&#45;&gt;Node6</title>
<path fill="none" stroke="#63b8ff" d="M463.88,-54.98C449.64,-46.69 427.75,-33.94 411.05,-24.22"/>
<polygon fill="#63b8ff" stroke="#63b8ff" points="412.79,-21.18 402.39,-19.17 409.27,-27.23 412.79,-21.18"/>
</g>
<!-- Node5&#45;&gt;Node7 -->
<g id="edge6" class="edge">
<title>Node5&#45;&gt;Node7</title>
<path fill="none" stroke="#63b8ff" d="M485.93,-54.75C492.35,-47.18 501.81,-36.05 509.62,-26.84"/>
<polygon fill="#63b8ff" stroke="#63b8ff" points="512.4,-28.98 516.21,-19.09 507.07,-24.45 512.4,-28.98"/>
</g>
<!-- Node8&#45;&gt;Node3 -->
<g id="edge9" class="edge">
<title>Node8&#45;&gt;Node3</title>
<path fill="none" stroke="#63b8ff" d="M289.7,-54.98C270.88,-46.46 241.68,-33.23 220,-23.41"/>
<polygon fill="#63b8ff" stroke="#63b8ff" points="221.19,-20.11 210.64,-19.17 218.3,-26.48 221.19,-20.11"/>
</g>
<!-- Node8&#45;&gt;Node6 -->
<g id="edge11" class="edge">
<title>Node8&#45;&gt;Node6</title>
<path fill="none" stroke="#63b8ff" d="M321.19,-54.98C333.33,-46.84 351.86,-34.41 366.25,-24.76"/>
<polygon fill="#63b8ff" stroke="#63b8ff" points="368.22,-27.65 374.58,-19.17 364.32,-21.84 368.22,-27.65"/>
</g>
<!-- Node8&#45;&gt;Node9 -->
<g id="edge10" class="edge">
<title>Node8&#45;&gt;Node9</title>
<path fill="none" stroke="#63b8ff" d="M307.34,-54.75C306.43,-47.8 305.11,-37.85 303.96,-29.13"/>
<polygon fill="#63b8ff" stroke="#63b8ff" points="307.41,-28.54 302.63,-19.09 300.47,-29.46 307.41,-28.54"/>
</g>
</g>
</svg>
