<?xml version="1.0" encoding="UTF-8" standalone="no"?>
<!DOCTYPE svg PUBLIC "-//W3C//DTD SVG 1.1//EN"
 "http://www.w3.org/Graphics/SVG/1.1/DTD/svg11.dtd">
<!-- Generated by graphviz version 2.43.0 (0)
 -->
<!-- Title: sharp::moist_adiabat_cm1 Pages: 1 -->
<svg width="335pt" height="76pt"
 viewBox="0.00 0.00 335.00 75.50" xmlns="http://www.w3.org/2000/svg" xmlns:xlink="http://www.w3.org/1999/xlink">
<g id="graph0" class="graph" transform="scale(1 1) rotate(0) translate(4 71.5)">
<title>sharp::moist_adiabat_cm1</title>
<!-- Node1 -->
<g id="node1" class="node">
<title>Node1</title>
<g id="a_node1"><a xlink:title="Compute the temperature of a parcel lifted moist adiabatically to a new level.">
<polygon fill="#999999" stroke="#666666" points="327,-40 181,-40 181,-21 327,-21 327,-40"/>
<text text-anchor="middle" x="254" y="-28" font-family="Helvetica,sans-Serif" font-size="10.00">sharp::moist_adiabat_cm1</text>
</a>
</g>
</g>
<!-- Node2 -->
<g id="node2" class="node">
<title>Node2</title>
<g id="a_node2"><a xlink:href="structsharp_1_1lifter__cm1.html#a2eeb5b118ef40e873c09ac9b3635f7b9" target="_top" xlink:title="Overloads operator() to call sharp::moist_adiabat_cm1.">
<polygon fill="white" stroke="#666666" points="124.5,-67.5 20.5,-67.5 20.5,-37.5 124.5,-37.5 124.5,-67.5"/>
<text text-anchor="start" x="28.5" y="-55.5" font-family="Helvetica,sans-Serif" font-size="10.00">sharp::lifter_cm1::</text>
<text text-anchor="middle" x="72.5" y="-44.5" font-family="Helvetica,sans-Serif" font-size="10.00">operator()</text>
</a>
</g>
</g>
<!-- Node1&#45;&gt;Node2 -->
<g id="edge1" class="edge">
<title>Node1&#45;&gt;Node2</title>
<path fill="none" stroke="#63b8ff" d="M170.55,-40.61C154.9,-42.52 138.96,-44.48 124.64,-46.23"/>
<polygon fill="#63b8ff" stroke="#63b8ff" points="171.27,-44.04 180.77,-39.35 170.41,-37.1 171.27,-44.04"/>
</g>
<!-- Node3 -->
<g id="node3" class="node">
<title>Node3</title>
<g id="a_node3"><a xlink:href="thermo__wrap_8cpp.html#aac6beaaefcb6cf02512e6a74b6ab5be7" target="_top" xlink:title=" ">
<polygon fill="white" stroke="#666666" points="145,-19 0,-19 0,0 145,0 145,-19"/>
<text text-anchor="middle" x="72.5" y="-7" font-family="Helvetica,sans-Serif" font-size="10.00">sharp_moist_adiabat_cm1</text>
</a>
</g>
</g>
<!-- Node1&#45;&gt;Node3 -->
<g id="edge2" class="edge">
<title>Node1&#45;&gt;Node3</title>
<path fill="none" stroke="#63b8ff" d="M170.74,-20.88C162.15,-19.87 153.46,-18.85 145,-17.87"/>
<polygon fill="#63b8ff" stroke="#63b8ff" points="170.43,-24.36 180.77,-22.05 171.24,-17.41 170.43,-24.36"/>
</g>
</g>
</svg>
