<?xml version="1.0" encoding="UTF-8" standalone="no"?>
<!DOCTYPE svg PUBLIC "-//W3C//DTD SVG 1.1//EN"
 "http://www.w3.org/Graphics/SVG/1.1/DTD/svg11.dtd">
<!-- Generated by graphviz version 2.43.0 (0)
 -->
<!-- Title: sharp::specific_humidity Pages: 1 -->
<svg width="660pt" height="113pt"
 viewBox="0.00 0.00 660.00 113.00" xmlns="http://www.w3.org/2000/svg" xmlns:xlink="http://www.w3.org/1999/xlink">
<g id="graph0" class="graph" transform="scale(1 1) rotate(0) translate(4 109)">
<title>sharp::specific_humidity</title>
<!-- Node1 -->
<g id="node1" class="node">
<title>Node1</title>
<g id="a_node1"><a xlink:title="Compute specific humidity from a mixing ratio.">
<polygon fill="#999999" stroke="#666666" points="652,-62 517,-62 517,-43 652,-43 652,-62"/>
<text text-anchor="middle" x="584.5" y="-50" font-family="Helvetica,sans-Serif" font-size="10.00">sharp::specific_humidity</text>
</a>
</g>
</g>
<!-- Node2 -->
<g id="node2" class="node">
<title>Node2</title>
<g id="a_node2"><a xlink:href="namespacesharp.html#a72bbdc4cfe7895dd51981902ac9fc822" target="_top" xlink:title="Computes Entrainment CAPE using a previously lifted parcel.">
<polygon fill="white" stroke="#666666" points="311,-105 173,-105 173,-86 311,-86 311,-105"/>
<text text-anchor="middle" x="242" y="-93" font-family="Helvetica,sans-Serif" font-size="10.00">sharp::entrainment_cape</text>
</a>
</g>
</g>
<!-- Node1&#45;&gt;Node2 -->
<g id="edge1" class="edge">
<title>Node1&#45;&gt;Node2</title>
<path fill="none" stroke="#63b8ff" d="M538.54,-64.57C520.74,-68.94 500.02,-73.53 481,-76.5 424.07,-85.39 358.8,-90.22 311.03,-92.79"/>
<polygon fill="#63b8ff" stroke="#63b8ff" points="539.8,-67.86 548.65,-62.03 538.1,-61.07 539.8,-67.86"/>
</g>
<!-- Node4 -->
<g id="node4" class="node">
<title>Node4</title>
<g id="a_node4"><a xlink:href="namespacesharp.html#ab5fed65fe0cdf797961047fb9cde3295" target="_top" xlink:title="Compute moist static energy.">
<polygon fill="white" stroke="#666666" points="469,-67.5 359,-67.5 359,-37.5 469,-37.5 469,-67.5"/>
<text text-anchor="start" x="367" y="-55.5" font-family="Helvetica,sans-Serif" font-size="10.00">sharp::moist_static</text>
<text text-anchor="middle" x="414" y="-44.5" font-family="Helvetica,sans-Serif" font-size="10.00">_energy</text>
</a>
</g>
</g>
<!-- Node1&#45;&gt;Node4 -->
<g id="edge3" class="edge">
<title>Node1&#45;&gt;Node4</title>
<path fill="none" stroke="#63b8ff" d="M506.8,-52.5C494.11,-52.5 481.19,-52.5 469.2,-52.5"/>
<polygon fill="#63b8ff" stroke="#63b8ff" points="506.9,-56 516.9,-52.5 506.9,-49 506.9,-56"/>
</g>
<!-- Node6 -->
<g id="node6" class="node">
<title>Node6</title>
<g id="a_node6"><a xlink:href="thermo__wrap_8cpp.html#a57cc5deecd6d890490139407a981749e" target="_top" xlink:title=" ">
<polygon fill="white" stroke="#666666" points="481,-19 347,-19 347,0 481,0 481,-19"/>
<text text-anchor="middle" x="414" y="-7" font-family="Helvetica,sans-Serif" font-size="10.00">sharp_specific_humidity</text>
</a>
</g>
</g>
<!-- Node1&#45;&gt;Node6 -->
<g id="edge6" class="edge">
<title>Node1&#45;&gt;Node6</title>
<path fill="none" stroke="#63b8ff" d="M536.26,-40.44C509.7,-33.67 477.03,-25.33 452.29,-19.02"/>
<polygon fill="#63b8ff" stroke="#63b8ff" points="535.55,-43.88 546.1,-42.96 537.28,-37.09 535.55,-43.88"/>
</g>
<!-- Node3 -->
<g id="node3" class="node">
<title>Node3</title>
<g id="a_node3"><a xlink:href="convective__wrap_8cpp.html#ab0bfb728bbbf3a731c330b61a5c415ad" target="_top" xlink:title=" ">
<polygon fill="white" stroke="#666666" points="137,-105 0,-105 0,-86 137,-86 137,-105"/>
<text text-anchor="middle" x="68.5" y="-93" font-family="Helvetica,sans-Serif" font-size="10.00">sharp_entrainment_cape</text>
</a>
</g>
</g>
<!-- Node2&#45;&gt;Node3 -->
<g id="edge2" class="edge">
<title>Node2&#45;&gt;Node3</title>
<path fill="none" stroke="#63b8ff" d="M162.51,-95.5C154.08,-95.5 145.55,-95.5 137.26,-95.5"/>
<polygon fill="#63b8ff" stroke="#63b8ff" points="162.73,-99 172.73,-95.5 162.73,-92 162.73,-99"/>
</g>
<!-- Node4&#45;&gt;Node2 -->
<g id="edge4" class="edge">
<title>Node4&#45;&gt;Node2</title>
<path fill="none" stroke="#63b8ff" d="M349.02,-68.68C325.96,-74.52 300.71,-80.9 280.63,-85.98"/>
<polygon fill="#63b8ff" stroke="#63b8ff" points="349.91,-72.07 358.74,-66.22 348.19,-65.28 349.91,-72.07"/>
</g>
<!-- Node5 -->
<g id="node5" class="node">
<title>Node5</title>
<g id="a_node5"><a xlink:href="thermo__wrap_8cpp.html#a9c9c5dbb5d7955e51b8fd67d680850a3" target="_top" xlink:title=" ">
<polygon fill="white" stroke="#666666" points="296.5,-67.5 187.5,-67.5 187.5,-37.5 296.5,-37.5 296.5,-67.5"/>
<text text-anchor="start" x="195.5" y="-55.5" font-family="Helvetica,sans-Serif" font-size="10.00">sharp_moist_static</text>
<text text-anchor="middle" x="242" y="-44.5" font-family="Helvetica,sans-Serif" font-size="10.00">_energy</text>
</a>
</g>
</g>
<!-- Node4&#45;&gt;Node5 -->
<g id="edge5" class="edge">
<title>Node4&#45;&gt;Node5</title>
<path fill="none" stroke="#63b8ff" d="M348.32,-52.5C331.3,-52.5 313.12,-52.5 296.74,-52.5"/>
<polygon fill="#63b8ff" stroke="#63b8ff" points="348.74,-56 358.74,-52.5 348.74,-49 348.74,-56"/>
</g>
</g>
</svg>
