<?xml version="1.0" encoding="UTF-8" standalone="no"?>
<!DOCTYPE svg PUBLIC "-//W3C//DTD SVG 1.1//EN"
 "http://www.w3.org/Graphics/SVG/1.1/DTD/svg11.dtd">
<!-- Generated by graphviz version 2.43.0 (0)
 -->
<!-- Title: sharp::wetlift Pages: 1 -->
<svg width="233pt" height="76pt"
 viewBox="0.00 0.00 233.00 75.50" xmlns="http://www.w3.org/2000/svg" xmlns:xlink="http://www.w3.org/1999/xlink">
<g id="graph0" class="graph" transform="scale(1 1) rotate(0) translate(4 71.5)">
<title>sharp::wetlift</title>
<!-- Node1 -->
<g id="node1" class="node">
<title>Node1</title>
<g id="a_node1"><a xlink:title="Compute the temperature of a parcel lifted moist adiabatically to a new level.">
<polygon fill="#999999" stroke="#666666" points="225,-40 145,-40 145,-21 225,-21 225,-40"/>
<text text-anchor="middle" x="185" y="-28" font-family="Helvetica,sans-Serif" font-size="10.00">sharp::wetlift</text>
</a>
</g>
</g>
<!-- Node2 -->
<g id="node2" class="node">
<title>Node2</title>
<g id="a_node2"><a xlink:href="structsharp_1_1lifter__wobus.html#a92ffe04c0425aef07c524759d799066e" target="_top" xlink:title="Overloads operator() to call sharp::wetlift.">
<polygon fill="white" stroke="#666666" points="109,-67.5 0,-67.5 0,-37.5 109,-37.5 109,-67.5"/>
<text text-anchor="start" x="8" y="-55.5" font-family="Helvetica,sans-Serif" font-size="10.00">sharp::lifter_wobus</text>
<text text-anchor="middle" x="54.5" y="-44.5" font-family="Helvetica,sans-Serif" font-size="10.00">::operator()</text>
</a>
</g>
</g>
<!-- Node1&#45;&gt;Node2 -->
<g id="edge1" class="edge">
<title>Node1&#45;&gt;Node2</title>
<path fill="none" stroke="#63b8ff" d="M134.76,-38.93C126.39,-40.36 117.66,-41.86 109.18,-43.31"/>
<polygon fill="#63b8ff" stroke="#63b8ff" points="135.48,-42.36 144.75,-37.22 134.3,-35.46 135.48,-42.36"/>
</g>
<!-- Node3 -->
<g id="node3" class="node">
<title>Node3</title>
<g id="a_node3"><a xlink:href="thermo__wrap_8cpp.html#aa66ee47ed2c19f239f7bf3c90669bacf" target="_top" xlink:title=" ">
<polygon fill="white" stroke="#666666" points="94.5,-19 14.5,-19 14.5,0 94.5,0 94.5,-19"/>
<text text-anchor="middle" x="54.5" y="-7" font-family="Helvetica,sans-Serif" font-size="10.00">sharp_wetlift</text>
</a>
</g>
</g>
<!-- Node1&#45;&gt;Node3 -->
<g id="edge2" class="edge">
<title>Node1&#45;&gt;Node3</title>
<path fill="none" stroke="#63b8ff" d="M134.77,-22.46C121.44,-20.28 107.2,-17.95 94.51,-15.88"/>
<polygon fill="#63b8ff" stroke="#63b8ff" points="134.31,-25.93 144.75,-24.09 135.44,-19.02 134.31,-25.93"/>
</g>
</g>
</svg>
