<?xml version="1.0" encoding="UTF-8" standalone="no"?>
<!DOCTYPE svg PUBLIC "-//W3C//DTD SVG 1.1//EN"
 "http://www.w3.org/Graphics/SVG/1.1/DTD/svg11.dtd">
<!-- Generated by graphviz version 2.43.0 (0)
 -->
<!-- Title: sharp::specific_humidity Pages: 1 -->
<svg width="463pt" height="54pt"
 viewBox="0.00 0.00 463.00 53.50" xmlns="http://www.w3.org/2000/svg" xmlns:xlink="http://www.w3.org/1999/xlink">
<g id="graph0" class="graph" transform="scale(1 1) rotate(0) translate(4 49.5)">
<title>sharp::specific_humidity</title>
<!-- Node1 -->
<g id="node1" class="node">
<title>Node1</title>
<g id="a_node1"><a xlink:title="Compute specific humidity from a mixing ratio.">
<polygon fill="#999999" stroke="#666666" points="455,-45.5 320,-45.5 320,-26.5 455,-26.5 455,-45.5"/>
<text text-anchor="middle" x="387.5" y="-33.5" font-family="Helvetica,sans-Serif" font-size="10.00">sharp::specific_humidity</text>
</a>
</g>
</g>
<!-- Node2 -->
<g id="node2" class="node">
<title>Node2</title>
<g id="a_node2"><a xlink:href="namespacesharp.html#a72bbdc4cfe7895dd51981902ac9fc822" target="_top" xlink:title="Computes Entrainment CAPE using a previously lifted parcel.">
<polygon fill="white" stroke="#666666" points="138,-45.5 0,-45.5 0,-26.5 138,-26.5 138,-45.5"/>
<text text-anchor="middle" x="69" y="-33.5" font-family="Helvetica,sans-Serif" font-size="10.00">sharp::entrainment_cape</text>
</a>
</g>
</g>
<!-- Node1&#45;&gt;Node2 -->
<g id="edge1" class="edge">
<title>Node1&#45;&gt;Node2</title>
<path fill="none" stroke="#63b8ff" d="M309.67,-38.49C301.01,-38.7 292.32,-38.88 284,-39 235.12,-39.72 222.88,-39.7 174,-39 162.44,-38.83 150.16,-38.56 138.24,-38.25"/>
<polygon fill="#63b8ff" stroke="#63b8ff" points="309.88,-41.99 319.79,-38.24 309.71,-34.99 309.88,-41.99"/>
</g>
<!-- Node3 -->
<g id="node3" class="node">
<title>Node3</title>
<g id="a_node3"><a xlink:href="namespacesharp.html#ab5fed65fe0cdf797961047fb9cde3295" target="_top" xlink:title="Compute moist static energy.">
<polygon fill="white" stroke="#666666" points="284,-30 174,-30 174,0 284,0 284,-30"/>
<text text-anchor="start" x="182" y="-18" font-family="Helvetica,sans-Serif" font-size="10.00">sharp::moist_static</text>
<text text-anchor="middle" x="229" y="-7" font-family="Helvetica,sans-Serif" font-size="10.00">_energy</text>
</a>
</g>
</g>
<!-- Node1&#45;&gt;Node3 -->
<g id="edge2" class="edge">
<title>Node1&#45;&gt;Node3</title>
<path fill="none" stroke="#63b8ff" d="M309.66,-25.69C301.1,-24.54 292.52,-23.39 284.33,-22.29"/>
<polygon fill="#63b8ff" stroke="#63b8ff" points="309.3,-29.17 319.68,-27.03 310.23,-22.23 309.3,-29.17"/>
</g>
<!-- Node3&#45;&gt;Node2 -->
<g id="edge3" class="edge">
<title>Node3&#45;&gt;Node2</title>
<path fill="none" stroke="#63b8ff" d="M163.55,-23.57C155.18,-24.68 146.58,-25.82 138.15,-26.94"/>
<polygon fill="#63b8ff" stroke="#63b8ff" points="164.17,-27.01 173.63,-22.23 163.25,-20.08 164.17,-27.01"/>
</g>
</g>
</svg>
