<?xml version="1.0" encoding="UTF-8" standalone="no"?>
<!DOCTYPE svg PUBLIC "-//W3C//DTD SVG 1.1//EN"
 "http://www.w3.org/Graphics/SVG/1.1/DTD/svg11.dtd">
<!-- Generated by graphviz version 2.43.0 (0)
 -->
<!-- Title: sharp::theta Pages: 1 -->
<svg width="583pt" height="299pt"
 viewBox="0.00 0.00 583.00 299.00" xmlns="http://www.w3.org/2000/svg" xmlns:xlink="http://www.w3.org/1999/xlink">
<g id="graph0" class="graph" transform="scale(1 1) rotate(0) translate(4 295)">
<title>sharp::theta</title>
<!-- Node1 -->
<g id="node1" class="node">
<title>Node1</title>
<g id="a_node1"><a xlink:title="Compute the potential temperature.">
<polygon fill="#999999" stroke="#666666" points="575,-133.5 500,-133.5 500,-114.5 575,-114.5 575,-133.5"/>
<text text-anchor="middle" x="537.5" y="-121.5" font-family="Helvetica,sans-Serif" font-size="10.00">sharp::theta</text>
</a>
</g>
</g>
<!-- Node2 -->
<g id="node2" class="node">
<title>Node2</title>
<g id="a_node2"><a xlink:href="namespacesharp.html#ae4385866921cd7286946d9ffdd65c25e" target="_top" xlink:title="Lift a parcel dry adiabatically to its Lifted Condensation Level (LCL).">
<polygon fill="white" stroke="#666666" points="430,-193.5 352,-193.5 352,-174.5 430,-174.5 430,-193.5"/>
<text text-anchor="middle" x="391" y="-181.5" font-family="Helvetica,sans-Serif" font-size="10.00">sharp::drylift</text>
</a>
</g>
</g>
<!-- Node1&#45;&gt;Node2 -->
<g id="edge1" class="edge">
<title>Node1&#45;&gt;Node2</title>
<path fill="none" stroke="#63b8ff" d="M509.75,-138.4C496.24,-145.38 479.47,-153.62 464,-160 451.09,-165.33 436.53,-170.36 423.89,-174.42"/>
<polygon fill="#63b8ff" stroke="#63b8ff" points="511.71,-141.32 518.94,-133.58 508.46,-135.12 511.71,-141.32"/>
</g>
<!-- Node3 -->
<g id="node3" class="node">
<title>Node3</title>
<g id="a_node3"><a xlink:href="structsharp_1_1Parcel.html#a9523de2b8b4c28ca49fba3013f94cb06" target="_top" xlink:title="Lifts a sharp::Parcel to compute its virtual temperature.">
<polygon fill="white" stroke="#666666" points="271.5,-267 173.5,-267 173.5,-237 271.5,-237 271.5,-267"/>
<text text-anchor="start" x="181.5" y="-255" font-family="Helvetica,sans-Serif" font-size="10.00">sharp::Parcel::lift</text>
<text text-anchor="middle" x="222.5" y="-244" font-family="Helvetica,sans-Serif" font-size="10.00">_parcel</text>
</a>
</g>
</g>
<!-- Node1&#45;&gt;Node3 -->
<g id="edge9" class="edge">
<title>Node1&#45;&gt;Node3</title>
<path fill="none" stroke="#63b8ff" d="M525.1,-141.95C512.46,-160.28 490.34,-188.11 464,-203 403.54,-237.19 322.57,-247.7 271.72,-250.83"/>
<polygon fill="#63b8ff" stroke="#63b8ff" points="528.04,-143.84 530.67,-133.57 522.21,-139.96 528.04,-143.84"/>
</g>
<!-- Node7 -->
<g id="node7" class="node">
<title>Node7</title>
<g id="a_node7"><a xlink:href="namespacesharp.html#ab06f16aa1caac3136e863db8cd61e2e9" target="_top" xlink:title="Compute the equivalent potential temperature.">
<polygon fill="white" stroke="#666666" points="263,-126.5 182,-126.5 182,-107.5 263,-107.5 263,-126.5"/>
<text text-anchor="middle" x="222.5" y="-114.5" font-family="Helvetica,sans-Serif" font-size="10.00">sharp::thetae</text>
</a>
</g>
</g>
<!-- Node1&#45;&gt;Node7 -->
<g id="edge13" class="edge">
<title>Node1&#45;&gt;Node7</title>
<path fill="none" stroke="#63b8ff" d="M489.75,-126.22C481.19,-126.54 472.33,-126.83 464,-127 399.12,-128.34 382.8,-130.42 318,-127 300.04,-126.05 280.24,-124.1 263.43,-122.17"/>
<polygon fill="#63b8ff" stroke="#63b8ff" points="490.15,-129.71 500,-125.81 489.87,-122.71 490.15,-129.71"/>
</g>
<!-- Node9 -->
<g id="node9" class="node">
<title>Node9</title>
<g id="a_node9"><a xlink:href="structsharp_1_1Parcel.html#a1bf670e79f35a1ce8c904b7ead32ccbe" target="_top" xlink:title="Construct and return a mixed&#45;layer Parcel.">
<polygon fill="white" stroke="#666666" points="448.5,-118 333.5,-118 333.5,-88 448.5,-88 448.5,-118"/>
<text text-anchor="start" x="341.5" y="-106" font-family="Helvetica,sans-Serif" font-size="10.00">sharp::Parcel::mixed</text>
<text text-anchor="middle" x="391" y="-95" font-family="Helvetica,sans-Serif" font-size="10.00">_layer_parcel</text>
</a>
</g>
</g>
<!-- Node1&#45;&gt;Node9 -->
<g id="edge10" class="edge">
<title>Node1&#45;&gt;Node9</title>
<path fill="none" stroke="#63b8ff" d="M489.53,-117.17C476.51,-115.28 462.23,-113.21 448.72,-111.24"/>
<polygon fill="#63b8ff" stroke="#63b8ff" points="489.26,-120.67 499.66,-118.65 490.27,-113.74 489.26,-120.67"/>
</g>
<!-- Node10 -->
<g id="node10" class="node">
<title>Node10</title>
<g id="a_node10"><a xlink:href="namespacesharp.html#aa258841692c25171d3f3b2e8b1f52079" target="_top" xlink:title="Compute the temperature of a parcel lifted moist adiabatically to a new level.">
<polygon fill="white" stroke="#666666" points="464,-69.5 318,-69.5 318,-50.5 464,-50.5 464,-69.5"/>
<text text-anchor="middle" x="391" y="-57.5" font-family="Helvetica,sans-Serif" font-size="10.00">sharp::moist_adiabat_cm1</text>
</a>
</g>
</g>
<!-- Node1&#45;&gt;Node10 -->
<g id="edge11" class="edge">
<title>Node1&#45;&gt;Node10</title>
<path fill="none" stroke="#63b8ff" d="M515.38,-108.55C501.39,-98.91 482.3,-86.88 464,-79 455.33,-75.27 445.75,-72.12 436.49,-69.52"/>
<polygon fill="#63b8ff" stroke="#63b8ff" points="513.59,-111.57 523.79,-114.47 517.63,-105.84 513.59,-111.57"/>
</g>
<!-- Node12 -->
<g id="node12" class="node">
<title>Node12</title>
<g id="a_node12"><a xlink:href="namespacesharp.html#ad4014313c60a66a321e4050a2a07058e" target="_top" xlink:title="Compute the temperature of a parcel lifted moist adiabatically to a new level.">
<polygon fill="white" stroke="#666666" points="431,-29.5 351,-29.5 351,-10.5 431,-10.5 431,-29.5"/>
<text text-anchor="middle" x="391" y="-17.5" font-family="Helvetica,sans-Serif" font-size="10.00">sharp::wetlift</text>
</a>
</g>
</g>
<!-- Node1&#45;&gt;Node12 -->
<g id="edge14" class="edge">
<title>Node1&#45;&gt;Node12</title>
<path fill="none" stroke="#63b8ff" d="M525.25,-105.88C512.6,-86.99 490.35,-57.83 464,-41 454.12,-34.69 442.29,-30.22 431.1,-27.08"/>
<polygon fill="#63b8ff" stroke="#63b8ff" points="522.43,-107.98 530.81,-114.47 528.31,-104.17 522.43,-107.98"/>
</g>
<!-- Node2&#45;&gt;Node3 -->
<g id="edge2" class="edge">
<title>Node2&#45;&gt;Node3</title>
<path fill="none" stroke="#63b8ff" d="M357.18,-197.4C329.31,-208.79 289.33,-225.11 260.36,-236.94"/>
<polygon fill="#63b8ff" stroke="#63b8ff" points="358.56,-200.62 366.5,-193.6 355.92,-194.14 358.56,-200.62"/>
</g>
<!-- Node6 -->
<g id="node6" class="node">
<title>Node6</title>
<g id="a_node6"><a xlink:href="namespacesharp.html#a5e3156aa7f5bafbd908184c7f51927ee" target="_top" xlink:title="Compute the wetbulb potential temperature.">
<polygon fill="white" stroke="#666666" points="282,-218.5 163,-218.5 163,-199.5 282,-199.5 282,-218.5"/>
<text text-anchor="middle" x="222.5" y="-206.5" font-family="Helvetica,sans-Serif" font-size="10.00">sharp::theta_wetbulb</text>
</a>
</g>
</g>
<!-- Node2&#45;&gt;Node6 -->
<g id="edge5" class="edge">
<title>Node2&#45;&gt;Node6</title>
<path fill="none" stroke="#63b8ff" d="M341.77,-191.24C323.12,-194.04 301.61,-197.27 282.09,-200.2"/>
<polygon fill="#63b8ff" stroke="#63b8ff" points="342.43,-194.68 351.8,-189.74 341.39,-187.76 342.43,-194.68"/>
</g>
<!-- Node2&#45;&gt;Node7 -->
<g id="edge6" class="edge">
<title>Node2&#45;&gt;Node7</title>
<path fill="none" stroke="#63b8ff" d="M349.31,-171.27C339.02,-167.82 328.04,-163.94 318,-160 291.49,-149.59 261.71,-135.65 242.79,-126.5"/>
<polygon fill="#63b8ff" stroke="#63b8ff" points="348.32,-174.63 358.91,-174.43 350.51,-167.98 348.32,-174.63"/>
</g>
<!-- Node8 -->
<g id="node8" class="node">
<title>Node8</title>
<g id="a_node8"><a xlink:href="namespacesharp.html#accda9c75278f1a32978bbfd662492822" target="_top" xlink:title="Compute the wetbulb temperature.">
<polygon fill="white" stroke="#666666" points="267,-181.5 178,-181.5 178,-162.5 267,-162.5 267,-181.5"/>
<text text-anchor="middle" x="222.5" y="-169.5" font-family="Helvetica,sans-Serif" font-size="10.00">sharp::wetbulb</text>
</a>
</g>
</g>
<!-- Node2&#45;&gt;Node8 -->
<g id="edge8" class="edge">
<title>Node2&#45;&gt;Node8</title>
<path fill="none" stroke="#63b8ff" d="M341.67,-180.52C318.12,-178.82 290,-176.79 267.1,-175.14"/>
<polygon fill="#63b8ff" stroke="#63b8ff" points="341.58,-184.02 351.8,-181.25 342.08,-177.04 341.58,-184.02"/>
</g>
<!-- Node4 -->
<g id="node4" class="node">
<title>Node4</title>
<g id="a_node4"><a xlink:href="namespacesharp.html#a2e6b7cd4a3594a8f2c2050b0e4784cce" target="_top" xlink:title="Computes the Effective Inflow Layer for a given atmospheric sounding.">
<polygon fill="white" stroke="#666666" points="127,-291 0,-291 0,-261 127,-261 127,-291"/>
<text text-anchor="start" x="8" y="-279" font-family="Helvetica,sans-Serif" font-size="10.00">sharp::effective_inflow</text>
<text text-anchor="middle" x="63.5" y="-268" font-family="Helvetica,sans-Serif" font-size="10.00">_layer</text>
</a>
</g>
</g>
<!-- Node3&#45;&gt;Node4 -->
<g id="edge3" class="edge">
<title>Node3&#45;&gt;Node4</title>
<path fill="none" stroke="#63b8ff" d="M163.03,-260.94C151.35,-262.72 139.02,-264.61 127.2,-266.42"/>
<polygon fill="#63b8ff" stroke="#63b8ff" points="163.76,-264.37 173.11,-259.4 162.7,-257.45 163.76,-264.37"/>
</g>
<!-- Node5 -->
<g id="node5" class="node">
<title>Node5</title>
<g id="a_node5"><a xlink:href="structsharp_1_1Parcel.html#aa258d27992d22d8b80cb221e6e2a6c19" target="_top" xlink:title="Construct and return a most&#45;unstable Parcel.">
<polygon fill="white" stroke="#666666" points="118.5,-243 8.5,-243 8.5,-213 118.5,-213 118.5,-243"/>
<text text-anchor="start" x="16.5" y="-231" font-family="Helvetica,sans-Serif" font-size="10.00">sharp::Parcel::most</text>
<text text-anchor="middle" x="63.5" y="-220" font-family="Helvetica,sans-Serif" font-size="10.00">_unstable_parcel</text>
</a>
</g>
</g>
<!-- Node3&#45;&gt;Node5 -->
<g id="edge4" class="edge">
<title>Node3&#45;&gt;Node5</title>
<path fill="none" stroke="#63b8ff" d="M163.22,-243.09C148.66,-240.87 133.11,-238.49 118.75,-236.29"/>
<polygon fill="#63b8ff" stroke="#63b8ff" points="162.7,-246.55 173.11,-244.6 163.76,-239.63 162.7,-246.55"/>
</g>
<!-- Node7&#45;&gt;Node7 -->
<g id="edge7" class="edge">
<title>Node7&#45;&gt;Node7</title>
<path fill="none" stroke="#63b8ff" d="M251.99,-135.32C250.76,-140.51 240.93,-144.5 222.5,-144.5 194.42,-144.5 186.3,-135.23 198.15,-126.58"/>
<polygon fill="#63b8ff" stroke="#63b8ff" points="254.94,-133.43 246.85,-126.58 248.91,-136.98 254.94,-133.43"/>
</g>
<!-- Node11 -->
<g id="node11" class="node">
<title>Node11</title>
<g id="a_node11"><a xlink:href="structsharp_1_1lifter__cm1.html#a2eeb5b118ef40e873c09ac9b3635f7b9" target="_top" xlink:title="Overloads operator() to call sharp::moist_adiabat_cm1.">
<polygon fill="white" stroke="#666666" points="274.5,-78 170.5,-78 170.5,-48 274.5,-48 274.5,-78"/>
<text text-anchor="start" x="178.5" y="-66" font-family="Helvetica,sans-Serif" font-size="10.00">sharp::lifter_cm1::</text>
<text text-anchor="middle" x="222.5" y="-55" font-family="Helvetica,sans-Serif" font-size="10.00">operator()</text>
</a>
</g>
</g>
<!-- Node10&#45;&gt;Node11 -->
<g id="edge12" class="edge">
<title>Node10&#45;&gt;Node11</title>
<path fill="none" stroke="#63b8ff" d="M307.63,-61.48C296.37,-61.69 285.09,-61.89 274.61,-62.08"/>
<polygon fill="#63b8ff" stroke="#63b8ff" points="308,-64.98 317.94,-61.3 307.88,-57.98 308,-64.98"/>
</g>
<!-- Node13 -->
<g id="node13" class="node">
<title>Node13</title>
<g id="a_node13"><a xlink:href="structsharp_1_1lifter__wobus.html#a92ffe04c0425aef07c524759d799066e" target="_top" xlink:title="Overloads operator() to call sharp::wetlift.">
<polygon fill="white" stroke="#666666" points="277,-30 168,-30 168,0 277,0 277,-30"/>
<text text-anchor="start" x="176" y="-18" font-family="Helvetica,sans-Serif" font-size="10.00">sharp::lifter_wobus</text>
<text text-anchor="middle" x="222.5" y="-7" font-family="Helvetica,sans-Serif" font-size="10.00">::operator()</text>
</a>
</g>
</g>
<!-- Node12&#45;&gt;Node13 -->
<g id="edge15" class="edge">
<title>Node12&#45;&gt;Node13</title>
<path fill="none" stroke="#63b8ff" d="M340.81,-18.52C320.78,-17.92 297.57,-17.22 277.1,-16.61"/>
<polygon fill="#63b8ff" stroke="#63b8ff" points="340.86,-22.03 350.96,-18.83 341.07,-15.03 340.86,-22.03"/>
</g>
</g>
</svg>
