<?xml version="1.0" encoding="UTF-8" standalone="no"?>
<!DOCTYPE svg PUBLIC "-//W3C//DTD SVG 1.1//EN"
 "http://www.w3.org/Graphics/SVG/1.1/DTD/svg11.dtd">
<!-- Generated by graphviz version 2.43.0 (0)
 -->
<!-- Title: sharp::vector_angle Pages: 1 -->
<svg width="442pt" height="76pt"
 viewBox="0.00 0.00 442.00 75.50" xmlns="http://www.w3.org/2000/svg" xmlns:xlink="http://www.w3.org/1999/xlink">
<g id="graph0" class="graph" transform="scale(1 1) rotate(0) translate(4 71.5)">
<title>sharp::vector_angle</title>
<!-- Node1 -->
<g id="node1" class="node">
<title>Node1</title>
<g id="a_node1"><a xlink:title="Computes the direction (degrees from North) a vector points to.">
<polygon fill="#999999" stroke="#666666" points="434,-40 321,-40 321,-21 434,-21 434,-40"/>
<text text-anchor="middle" x="377.5" y="-28" font-family="Helvetica,sans-Serif" font-size="10.00">sharp::vector_angle</text>
</a>
</g>
</g>
<!-- Node2 -->
<g id="node2" class="node">
<title>Node2</title>
<g id="a_node2"><a xlink:href="namespacesharp.html#adc84f46d1ec5872b1777857983bdb4be" target="_top" xlink:title="Conveniance function to compute wind speed and direction from components.">
<polygon fill="white" stroke="#666666" points="285,-67.5 160,-67.5 160,-37.5 285,-37.5 285,-67.5"/>
<text text-anchor="start" x="168" y="-55.5" font-family="Helvetica,sans-Serif" font-size="10.00">sharp::components_to</text>
<text text-anchor="middle" x="222.5" y="-44.5" font-family="Helvetica,sans-Serif" font-size="10.00">_vector</text>
</a>
</g>
</g>
<!-- Node1&#45;&gt;Node2 -->
<g id="edge1" class="edge">
<title>Node1&#45;&gt;Node2</title>
<path fill="none" stroke="#63b8ff" d="M310.89,-39.93C302.32,-41.17 293.57,-42.42 285.08,-43.65"/>
<polygon fill="#63b8ff" stroke="#63b8ff" points="311.43,-43.39 320.83,-38.5 310.43,-36.46 311.43,-43.39"/>
</g>
<!-- Node4 -->
<g id="node4" class="node">
<title>Node4</title>
<g id="a_node4"><a xlink:href="winds__wrap_8cpp.html#a478d6357c54b82d439b182c838da33eb" target="_top" xlink:title=" ">
<polygon fill="white" stroke="#666666" points="278.5,-19 166.5,-19 166.5,0 278.5,0 278.5,-19"/>
<text text-anchor="middle" x="222.5" y="-7" font-family="Helvetica,sans-Serif" font-size="10.00">sharp_vector_angle</text>
</a>
</g>
</g>
<!-- Node1&#45;&gt;Node4 -->
<g id="edge3" class="edge">
<title>Node1&#45;&gt;Node4</title>
<path fill="none" stroke="#63b8ff" d="M310.69,-21.47C300,-20 289.02,-18.49 278.62,-17.06"/>
<polygon fill="#63b8ff" stroke="#63b8ff" points="310.45,-24.97 320.83,-22.86 311.4,-18.03 310.45,-24.97"/>
</g>
<!-- Node3 -->
<g id="node3" class="node">
<title>Node3</title>
<g id="a_node3"><a xlink:href="winds__wrap_8cpp.html#a231e607727d73e68fe9ec62d7d3c45f1" target="_top" xlink:title=" ">
<polygon fill="white" stroke="#666666" points="124,-67.5 0,-67.5 0,-37.5 124,-37.5 124,-67.5"/>
<text text-anchor="start" x="8" y="-55.5" font-family="Helvetica,sans-Serif" font-size="10.00">sharp_components_to</text>
<text text-anchor="middle" x="62" y="-44.5" font-family="Helvetica,sans-Serif" font-size="10.00">_vector</text>
</a>
</g>
</g>
<!-- Node2&#45;&gt;Node3 -->
<g id="edge2" class="edge">
<title>Node2&#45;&gt;Node3</title>
<path fill="none" stroke="#63b8ff" d="M149.76,-52.5C141.17,-52.5 132.46,-52.5 124.04,-52.5"/>
<polygon fill="#63b8ff" stroke="#63b8ff" points="149.77,-56 159.77,-52.5 149.77,-49 149.77,-56"/>
</g>
</g>
</svg>
