<?xml version="1.0" encoding="UTF-8" standalone="no"?>
<!DOCTYPE svg PUBLIC "-//W3C//DTD SVG 1.1//EN"
 "http://www.w3.org/Graphics/SVG/1.1/DTD/svg11.dtd">
<!-- Generated by graphviz version 2.43.0 (0)
 -->
<!-- Title: sharp::storm_motion_bunkers Pages: 1 -->
<svg width="883pt" height="199pt"
 viewBox="0.00 0.00 883.00 199.00" xmlns="http://www.w3.org/2000/svg" xmlns:xlink="http://www.w3.org/1999/xlink">
<g id="graph0" class="graph" transform="scale(1 1) rotate(0) translate(4 195)">
<title>sharp::storm_motion_bunkers</title>
<!-- Node1 -->
<g id="node1" class="node">
<title>Node1</title>
<g id="a_node1"><a xlink:title="Estimates supercell storm motion by using the Bunkers et al. 2014 method.">
<polygon fill="#999999" stroke="#666666" points="118,-73 0,-73 0,-43 118,-43 118,-73"/>
<text text-anchor="start" x="8" y="-61" font-family="Helvetica,sans-Serif" font-size="10.00">sharp::storm_motion</text>
<text text-anchor="middle" x="59" y="-50" font-family="Helvetica,sans-Serif" font-size="10.00">_bunkers</text>
</a>
</g>
</g>
<!-- Node2 -->
<g id="node2" class="node">
<title>Node2</title>
<g id="a_node2"><a xlink:href="namespacesharp.html#a7ed0899941867073e5062af04fdbd3e7" target="_top" xlink:title="Linearly interpolate a data field to a requested pressure level.">
<polygon fill="white" stroke="#666666" points="611,-86.5 486,-86.5 486,-67.5 611,-67.5 611,-86.5"/>
<text text-anchor="middle" x="548.5" y="-74.5" font-family="Helvetica,sans-Serif" font-size="10.00">sharp::interp_pressure</text>
</a>
</g>
</g>
<!-- Node1&#45;&gt;Node2 -->
<g id="edge1" class="edge">
<title>Node1&#45;&gt;Node2</title>
<path fill="none" stroke="#63b8ff" d="M118.32,-60.27C207.78,-63.76 378.68,-70.42 475.65,-74.2"/>
<polygon fill="#63b8ff" stroke="#63b8ff" points="475.53,-77.7 485.66,-74.59 475.8,-70.7 475.53,-77.7"/>
</g>
<!-- Node6 -->
<g id="node6" class="node">
<title>Node6</title>
<g id="a_node6"><a xlink:href="namespacesharp.html#a31da980f398c9f6a5960ddf868101a94" target="_top" xlink:title="Converts a sharp::PressureLayer to a sharp::HeightLayer.">
<polygon fill="white" stroke="#666666" points="276,-30 154,-30 154,0 276,0 276,-30"/>
<text text-anchor="start" x="162" y="-18" font-family="Helvetica,sans-Serif" font-size="10.00">sharp::pressure_layer</text>
<text text-anchor="middle" x="215" y="-7" font-family="Helvetica,sans-Serif" font-size="10.00">_to_height</text>
</a>
</g>
</g>
<!-- Node1&#45;&gt;Node6 -->
<g id="edge5" class="edge">
<title>Node1&#45;&gt;Node6</title>
<path fill="none" stroke="#63b8ff" d="M113.86,-42.96C125.7,-39.65 138.35,-36.12 150.53,-32.72"/>
<polygon fill="#63b8ff" stroke="#63b8ff" points="151.48,-36.09 160.17,-30.03 149.6,-29.35 151.48,-36.09"/>
</g>
<!-- Node7 -->
<g id="node7" class="node">
<title>Node7</title>
<g id="a_node7"><a xlink:href="namespacesharp.html#a74a735636c932467b4d2ced544e0cb51" target="_top" xlink:title="Estimates supercell storm motion using the Bunkers et al. 2000 method.">
<polygon fill="white" stroke="#666666" points="274,-132 156,-132 156,-102 274,-102 274,-132"/>
<text text-anchor="start" x="164" y="-120" font-family="Helvetica,sans-Serif" font-size="10.00">sharp::storm_motion</text>
<text text-anchor="middle" x="215" y="-109" font-family="Helvetica,sans-Serif" font-size="10.00">_bunkers</text>
</a>
</g>
</g>
<!-- Node1&#45;&gt;Node7 -->
<g id="edge7" class="edge">
<title>Node1&#45;&gt;Node7</title>
<path fill="none" stroke="#63b8ff" d="M99.26,-73.04C119.35,-80.74 144,-90.18 165.29,-98.34"/>
<polygon fill="#63b8ff" stroke="#63b8ff" points="164.22,-101.68 174.81,-101.99 166.73,-95.14 164.22,-101.68"/>
</g>
<!-- Node3 -->
<g id="node3" class="node">
<title>Node3</title>
<g id="a_node3"><a xlink:href="namespacesharp.html#a8aa123fbe3b59a7023446b0fe2186c49" target="_top" xlink:title="Linearly interpolates between a and b with distance t.">
<polygon fill="white" stroke="#666666" points="737.5,-123.5 669.5,-123.5 669.5,-104.5 737.5,-104.5 737.5,-123.5"/>
<text text-anchor="middle" x="703.5" y="-111.5" font-family="Helvetica,sans-Serif" font-size="10.00">sharp::lerp</text>
</a>
</g>
</g>
<!-- Node2&#45;&gt;Node3 -->
<g id="edge2" class="edge">
<title>Node2&#45;&gt;Node3</title>
<path fill="none" stroke="#63b8ff" d="M588.9,-86.53C610.55,-91.76 637.44,-98.27 659.62,-103.63"/>
<polygon fill="#63b8ff" stroke="#63b8ff" points="658.9,-107.06 669.44,-106.01 660.54,-100.25 658.9,-107.06"/>
</g>
<!-- Node5 -->
<g id="node5" class="node">
<title>Node5</title>
<g id="a_node5"><a xlink:href="namespacesharp.html#a772686549a5111c1152b778731119aa6" target="_top" xlink:title="Finds the first index that satisfies value &lt; element.">
<polygon fill="white" stroke="#666666" points="760,-86.5 647,-86.5 647,-67.5 760,-67.5 760,-86.5"/>
<text text-anchor="middle" x="703.5" y="-74.5" font-family="Helvetica,sans-Serif" font-size="10.00">sharp::upper_bound</text>
</a>
</g>
</g>
<!-- Node2&#45;&gt;Node5 -->
<g id="edge4" class="edge">
<title>Node2&#45;&gt;Node5</title>
<path fill="none" stroke="#63b8ff" d="M611.29,-77C619.66,-77 628.28,-77 636.72,-77"/>
<polygon fill="#63b8ff" stroke="#63b8ff" points="636.9,-80.5 646.9,-77 636.9,-73.5 636.9,-80.5"/>
</g>
<!-- Node4 -->
<g id="node4" class="node">
<title>Node4</title>
<g id="a_node4"><a xlink:href="namespacesharp.html#a8848423b96dfe09b90322efd2cc5bd43" target="_top" xlink:title="Linearly interpolates between a and b with distance t.">
<polygon fill="white" stroke="#666666" points="875,-123.5 796,-123.5 796,-104.5 875,-104.5 875,-123.5"/>
<text text-anchor="middle" x="835.5" y="-111.5" font-family="Helvetica,sans-Serif" font-size="10.00">sharp::__lerp</text>
</a>
</g>
</g>
<!-- Node3&#45;&gt;Node4 -->
<g id="edge3" class="edge">
<title>Node3&#45;&gt;Node4</title>
<path fill="none" stroke="#63b8ff" d="M737.64,-114C752.2,-114 769.6,-114 785.61,-114"/>
<polygon fill="#63b8ff" stroke="#63b8ff" points="785.88,-117.5 795.88,-114 785.88,-110.5 785.88,-117.5"/>
</g>
<!-- Node6&#45;&gt;Node2 -->
<g id="edge6" class="edge">
<title>Node6&#45;&gt;Node2</title>
<path fill="none" stroke="#63b8ff" d="M276.21,-19.08C323.82,-23.12 391.74,-30.68 450,-44 471.85,-49 495.7,-57.02 514.34,-63.91"/>
<polygon fill="#63b8ff" stroke="#63b8ff" points="513.26,-67.24 523.85,-67.48 515.72,-60.69 513.26,-67.24"/>
</g>
<!-- Node8 -->
<g id="node8" class="node">
<title>Node8</title>
<g id="a_node8"><a xlink:href="namespacesharp.html#ab77e344c7462c9615b0ddac228bc2193" target="_top" xlink:title="Converts a sharp::HeightLayer to a sharp::PressureLayer.">
<polygon fill="white" stroke="#666666" points="436,-191 326,-191 326,-161 436,-161 436,-191"/>
<text text-anchor="start" x="334" y="-179" font-family="Helvetica,sans-Serif" font-size="10.00">sharp::height_layer</text>
<text text-anchor="middle" x="381" y="-168" font-family="Helvetica,sans-Serif" font-size="10.00">_to_pressure</text>
</a>
</g>
</g>
<!-- Node7&#45;&gt;Node8 -->
<g id="edge8" class="edge">
<title>Node7&#45;&gt;Node8</title>
<path fill="none" stroke="#63b8ff" d="M257.08,-132.08C274.06,-138.29 293.97,-145.53 312,-152 317.08,-153.82 322.38,-155.71 327.68,-157.6"/>
<polygon fill="#63b8ff" stroke="#63b8ff" points="326.58,-160.92 337.17,-160.96 328.92,-154.32 326.58,-160.92"/>
</g>
<!-- Node10 -->
<g id="node10" class="node">
<title>Node10</title>
<g id="a_node10"><a xlink:href="namespacesharp.html#a3c8b9022103d067f30281d68fa81cbda" target="_top" xlink:title="Compute the mean wind over the given sharp::PressureLayer.">
<polygon fill="white" stroke="#666666" points="434,-105.5 328,-105.5 328,-86.5 434,-86.5 434,-105.5"/>
<text text-anchor="middle" x="381" y="-93.5" font-family="Helvetica,sans-Serif" font-size="10.00">sharp::mean_wind</text>
</a>
</g>
</g>
<!-- Node7&#45;&gt;Node10 -->
<g id="edge12" class="edge">
<title>Node7&#45;&gt;Node10</title>
<path fill="none" stroke="#63b8ff" d="M274.28,-109.54C288.36,-107.73 303.45,-105.8 317.71,-103.98"/>
<polygon fill="#63b8ff" stroke="#63b8ff" points="318.43,-107.41 327.91,-102.67 317.55,-100.47 318.43,-107.41"/>
</g>
<!-- Node11 -->
<g id="node11" class="node">
<title>Node11</title>
<g id="a_node11"><a xlink:href="namespacesharp.html#af887f27accb1a1d656a35abec65cab5f" target="_top" xlink:title="Computes the magnitude of a vector given its components.">
<polygon fill="white" stroke="#666666" points="450,-142.5 312,-142.5 312,-123.5 450,-123.5 450,-142.5"/>
<text text-anchor="middle" x="381" y="-130.5" font-family="Helvetica,sans-Serif" font-size="10.00">sharp::vector_magnitude</text>
</a>
</g>
</g>
<!-- Node7&#45;&gt;Node11 -->
<g id="edge14" class="edge">
<title>Node7&#45;&gt;Node11</title>
<path fill="none" stroke="#63b8ff" d="M274.28,-122.69C283.21,-123.56 292.54,-124.47 301.81,-125.37"/>
<polygon fill="#63b8ff" stroke="#63b8ff" points="301.53,-128.86 311.82,-126.35 302.21,-121.89 301.53,-128.86"/>
</g>
<!-- Node9 -->
<g id="node9" class="node">
<title>Node9</title>
<g id="a_node9"><a xlink:href="namespacesharp.html#af8484e9fe21c025b64ecffde614feb11" target="_top" xlink:title="Linearly interpolate a data field to a requested height level.">
<polygon fill="white" stroke="#666666" points="605.5,-123.5 491.5,-123.5 491.5,-104.5 605.5,-104.5 605.5,-123.5"/>
<text text-anchor="middle" x="548.5" y="-111.5" font-family="Helvetica,sans-Serif" font-size="10.00">sharp::interp_height</text>
</a>
</g>
</g>
<!-- Node8&#45;&gt;Node9 -->
<g id="edge9" class="edge">
<title>Node8&#45;&gt;Node9</title>
<path fill="none" stroke="#63b8ff" d="M425.24,-160.97C433.48,-158.04 442.02,-154.96 450,-152 471.47,-144.03 495.43,-134.7 514.22,-127.28"/>
<polygon fill="#63b8ff" stroke="#63b8ff" points="515.53,-130.52 523.54,-123.59 512.96,-124.01 515.53,-130.52"/>
</g>
<!-- Node9&#45;&gt;Node3 -->
<g id="edge10" class="edge">
<title>Node9&#45;&gt;Node3</title>
<path fill="none" stroke="#63b8ff" d="M605.6,-114C623.09,-114 642.12,-114 658.64,-114"/>
<polygon fill="#63b8ff" stroke="#63b8ff" points="659.1,-117.5 669.1,-114 659.1,-110.5 659.1,-117.5"/>
</g>
<!-- Node9&#45;&gt;Node5 -->
<g id="edge11" class="edge">
<title>Node9&#45;&gt;Node5</title>
<path fill="none" stroke="#63b8ff" d="M588.9,-104.47C608.46,-99.74 632.28,-93.98 653.05,-88.96"/>
<polygon fill="#63b8ff" stroke="#63b8ff" points="654.07,-92.31 662.97,-86.56 652.42,-85.51 654.07,-92.31"/>
</g>
<!-- Node10&#45;&gt;Node2 -->
<g id="edge13" class="edge">
<title>Node10&#45;&gt;Node2</title>
<path fill="none" stroke="#63b8ff" d="M434.37,-89.99C447.55,-88.47 461.93,-86.82 475.88,-85.22"/>
<polygon fill="#63b8ff" stroke="#63b8ff" points="476.4,-88.69 485.93,-84.07 475.6,-81.73 476.4,-88.69"/>
</g>
</g>
</svg>
