<?xml version="1.0" encoding="UTF-8" standalone="no"?>
<!DOCTYPE svg PUBLIC "-//W3C//DTD SVG 1.1//EN"
 "http://www.w3.org/Graphics/SVG/1.1/DTD/svg11.dtd">
<!-- Generated by graphviz version 2.43.0 (0)
 -->
<!-- Title: sharp::vector_magnitude Pages: 1 -->
<svg width="666pt" height="220pt"
 viewBox="0.00 0.00 666.00 220.00" xmlns="http://www.w3.org/2000/svg" xmlns:xlink="http://www.w3.org/1999/xlink">
<g id="graph0" class="graph" transform="scale(1 1) rotate(0) translate(4 216)">
<title>sharp::vector_magnitude</title>
<!-- Node1 -->
<g id="node1" class="node">
<title>Node1</title>
<g id="a_node1"><a xlink:title="Computes the magnitude of a vector given its components.">
<polygon fill="#999999" stroke="#666666" points="658,-144.5 520,-144.5 520,-125.5 658,-125.5 658,-144.5"/>
<text text-anchor="middle" x="589" y="-132.5" font-family="Helvetica,sans-Serif" font-size="10.00">sharp::vector_magnitude</text>
</a>
</g>
</g>
<!-- Node2 -->
<g id="node2" class="node">
<title>Node2</title>
<g id="a_node2"><a xlink:href="namespacesharp.html#adc84f46d1ec5872b1777857983bdb4be" target="_top" xlink:title="Conveniance function to compute wind speed and direction from components.">
<polygon fill="white" stroke="#666666" points="478,-212 353,-212 353,-182 478,-182 478,-212"/>
<text text-anchor="start" x="361" y="-200" font-family="Helvetica,sans-Serif" font-size="10.00">sharp::components_to</text>
<text text-anchor="middle" x="415.5" y="-189" font-family="Helvetica,sans-Serif" font-size="10.00">_vector</text>
</a>
</g>
</g>
<!-- Node1&#45;&gt;Node2 -->
<g id="edge1" class="edge">
<title>Node1&#45;&gt;Node2</title>
<path fill="none" stroke="#63b8ff" d="M552.01,-148.01C524.66,-157.9 486.99,-171.52 458.31,-181.88"/>
<polygon fill="#63b8ff" stroke="#63b8ff" points="553.36,-151.24 561.58,-144.55 550.98,-144.66 553.36,-151.24"/>
</g>
<!-- Node4 -->
<g id="node4" class="node">
<title>Node4</title>
<g id="a_node4"><a xlink:href="namespacesharp.html#a72bbdc4cfe7895dd51981902ac9fc822" target="_top" xlink:title="Computes Entrainment CAPE using a previously lifted parcel.">
<polygon fill="white" stroke="#666666" points="311,-163.5 173,-163.5 173,-144.5 311,-144.5 311,-163.5"/>
<text text-anchor="middle" x="242" y="-151.5" font-family="Helvetica,sans-Serif" font-size="10.00">sharp::entrainment_cape</text>
</a>
</g>
</g>
<!-- Node1&#45;&gt;Node4 -->
<g id="edge3" class="edge">
<title>Node1&#45;&gt;Node4</title>
<path fill="none" stroke="#63b8ff" d="M509.68,-139.31C449.82,-142.61 368.15,-147.11 311.02,-150.25"/>
<polygon fill="#63b8ff" stroke="#63b8ff" points="510.05,-142.8 519.84,-138.75 509.66,-135.81 510.05,-142.8"/>
</g>
<!-- Node6 -->
<g id="node6" class="node">
<title>Node6</title>
<g id="a_node6"><a xlink:href="winds__wrap_8cpp.html#aeb2c523b18446c5d9c1bc6a15cb98a7b" target="_top" xlink:title=" ">
<polygon fill="white" stroke="#666666" points="484,-125.5 347,-125.5 347,-106.5 484,-106.5 484,-125.5"/>
<text text-anchor="middle" x="415.5" y="-113.5" font-family="Helvetica,sans-Serif" font-size="10.00">sharp_vector_magnitude</text>
</a>
</g>
</g>
<!-- Node1&#45;&gt;Node6 -->
<g id="edge5" class="edge">
<title>Node1&#45;&gt;Node6</title>
<path fill="none" stroke="#63b8ff" d="M509.51,-126.3C501.08,-125.37 492.55,-124.43 484.26,-123.51"/>
<polygon fill="#63b8ff" stroke="#63b8ff" points="509.4,-129.81 519.73,-127.44 510.17,-122.86 509.4,-129.81"/>
</g>
<!-- Node7 -->
<g id="node7" class="node">
<title>Node7</title>
<g id="a_node7"><a xlink:href="namespacesharp.html#a74a735636c932467b4d2ced544e0cb51" target="_top" xlink:title="Estimates supercell storm motion using the Bunkers et al. 2000 method.">
<polygon fill="white" stroke="#666666" points="474.5,-88 356.5,-88 356.5,-58 474.5,-58 474.5,-88"/>
<text text-anchor="start" x="364.5" y="-76" font-family="Helvetica,sans-Serif" font-size="10.00">sharp::storm_motion</text>
<text text-anchor="middle" x="415.5" y="-65" font-family="Helvetica,sans-Serif" font-size="10.00">_bunkers</text>
</a>
</g>
</g>
<!-- Node1&#45;&gt;Node7 -->
<g id="edge6" class="edge">
<title>Node1&#45;&gt;Node7</title>
<path fill="none" stroke="#63b8ff" d="M552.29,-121.87C532.24,-114.51 506.74,-105.2 484,-97 475.93,-94.09 467.3,-91 459.01,-88.05"/>
<polygon fill="#63b8ff" stroke="#63b8ff" points="551.36,-125.25 561.95,-125.41 553.77,-118.68 551.36,-125.25"/>
</g>
<!-- Node3 -->
<g id="node3" class="node">
<title>Node3</title>
<g id="a_node3"><a xlink:href="winds__wrap_8cpp.html#a231e607727d73e68fe9ec62d7d3c45f1" target="_top" xlink:title=" ">
<polygon fill="white" stroke="#666666" points="304,-212 180,-212 180,-182 304,-182 304,-212"/>
<text text-anchor="start" x="188" y="-200" font-family="Helvetica,sans-Serif" font-size="10.00">sharp_components_to</text>
<text text-anchor="middle" x="242" y="-189" font-family="Helvetica,sans-Serif" font-size="10.00">_vector</text>
</a>
</g>
</g>
<!-- Node2&#45;&gt;Node3 -->
<g id="edge2" class="edge">
<title>Node2&#45;&gt;Node3</title>
<path fill="none" stroke="#63b8ff" d="M342.49,-197C329.77,-197 316.64,-197 304.25,-197"/>
<polygon fill="#63b8ff" stroke="#63b8ff" points="342.58,-200.5 352.58,-197 342.58,-193.5 342.58,-200.5"/>
</g>
<!-- Node5 -->
<g id="node5" class="node">
<title>Node5</title>
<g id="a_node5"><a xlink:href="convective__wrap_8cpp.html#ab0bfb728bbbf3a731c330b61a5c415ad" target="_top" xlink:title=" ">
<polygon fill="white" stroke="#666666" points="137,-163.5 0,-163.5 0,-144.5 137,-144.5 137,-163.5"/>
<text text-anchor="middle" x="68.5" y="-151.5" font-family="Helvetica,sans-Serif" font-size="10.00">sharp_entrainment_cape</text>
</a>
</g>
</g>
<!-- Node4&#45;&gt;Node5 -->
<g id="edge4" class="edge">
<title>Node4&#45;&gt;Node5</title>
<path fill="none" stroke="#63b8ff" d="M162.51,-154C154.08,-154 145.55,-154 137.26,-154"/>
<polygon fill="#63b8ff" stroke="#63b8ff" points="162.73,-157.5 172.73,-154 162.73,-150.5 162.73,-157.5"/>
</g>
<!-- Node7&#45;&gt;Node4 -->
<g id="edge7" class="edge">
<title>Node7&#45;&gt;Node4</title>
<path fill="none" stroke="#63b8ff" d="M354.64,-92.5C352,-93.91 349.44,-95.41 347,-97 327.5,-109.69 330.92,-122.99 311,-135 304.6,-138.86 297.38,-141.96 290.11,-144.44"/>
<polygon fill="#63b8ff" stroke="#63b8ff" points="356.38,-95.54 363.84,-88.02 353.32,-89.25 356.38,-95.54"/>
</g>
<!-- Node8 -->
<g id="node8" class="node">
<title>Node8</title>
<g id="a_node8"><a xlink:href="convective__wrap_8cpp.html#aa0e261971f41c6f95514e9ab584cc91e" target="_top" xlink:title=" ">
<polygon fill="white" stroke="#666666" points="300.5,-126 183.5,-126 183.5,-96 300.5,-96 300.5,-126"/>
<text text-anchor="start" x="191.5" y="-114" font-family="Helvetica,sans-Serif" font-size="10.00">sharp_storm_motion</text>
<text text-anchor="middle" x="242" y="-103" font-family="Helvetica,sans-Serif" font-size="10.00">_bunkers</text>
</a>
</g>
</g>
<!-- Node7&#45;&gt;Node8 -->
<g id="edge8" class="edge">
<title>Node7&#45;&gt;Node8</title>
<path fill="none" stroke="#63b8ff" d="M346.59,-88.05C331.41,-91.41 315.44,-94.95 300.71,-98.21"/>
<polygon fill="#63b8ff" stroke="#63b8ff" points="347.43,-91.45 356.44,-85.87 345.92,-84.61 347.43,-91.45"/>
</g>
<!-- Node9 -->
<g id="node9" class="node">
<title>Node9</title>
<g id="a_node9"><a xlink:href="convective__wrap_8cpp.html#a9c1783d5b0cde5deea749c0f4e0ee310" target="_top" xlink:title=" ">
<polygon fill="white" stroke="#666666" points="300.5,-78 183.5,-78 183.5,-48 300.5,-48 300.5,-78"/>
<text text-anchor="start" x="191.5" y="-66" font-family="Helvetica,sans-Serif" font-size="10.00">sharp_storm_motion</text>
<text text-anchor="middle" x="242" y="-55" font-family="Helvetica,sans-Serif" font-size="10.00">_bunkers_np</text>
</a>
</g>
</g>
<!-- Node7&#45;&gt;Node9 -->
<g id="edge9" class="edge">
<title>Node7&#45;&gt;Node9</title>
<path fill="none" stroke="#63b8ff" d="M346.16,-69.02C331.1,-68.14 315.3,-67.22 300.71,-66.37"/>
<polygon fill="#63b8ff" stroke="#63b8ff" points="346.25,-72.53 356.44,-69.61 346.66,-65.54 346.25,-72.53"/>
</g>
<!-- Node10 -->
<g id="node10" class="node">
<title>Node10</title>
<g id="a_node10"><a xlink:href="namespacesharp.html#ab31d383a3231f8fef873e5a16c0db856" target="_top" xlink:title="Estimates supercell storm motion by using the Bunkers et al. 2014 method.">
<polygon fill="white" stroke="#666666" points="301,-30 183,-30 183,0 301,0 301,-30"/>
<text text-anchor="start" x="191" y="-18" font-family="Helvetica,sans-Serif" font-size="10.00">sharp::storm_motion</text>
<text text-anchor="middle" x="242" y="-7" font-family="Helvetica,sans-Serif" font-size="10.00">_bunkers</text>
</a>
</g>
</g>
<!-- Node7&#45;&gt;Node10 -->
<g id="edge10" class="edge">
<title>Node7&#45;&gt;Node10</title>
<path fill="none" stroke="#63b8ff" d="M360.4,-54.7C336.89,-46.75 309.69,-37.55 287.39,-30.01"/>
<polygon fill="#63b8ff" stroke="#63b8ff" points="359.29,-58.02 369.89,-57.91 361.54,-51.39 359.29,-58.02"/>
</g>
</g>
</svg>
