<?xml version="1.0" encoding="UTF-8" standalone="no"?>
<!DOCTYPE svg PUBLIC "-//W3C//DTD SVG 1.1//EN"
 "http://www.w3.org/Graphics/SVG/1.1/DTD/svg11.dtd">
<!-- Generated by graphviz version 2.43.0 (0)
 -->
<!-- Title: sharp::saturated_lift Pages: 1 -->
<svg width="416pt" height="85pt"
 viewBox="0.00 0.00 416.00 85.00" xmlns="http://www.w3.org/2000/svg" xmlns:xlink="http://www.w3.org/1999/xlink">
<g id="graph0" class="graph" transform="scale(1 1) rotate(0) translate(4 81)">
<title>sharp::saturated_lift</title>
<!-- Node1 -->
<g id="node1" class="node">
<title>Node1</title>
<g id="a_node1"><a xlink:title="Compute the temperature along a moist adiabat (wet&#45;bulb potential temperature) at a given pressure.">
<polygon fill="#999999" stroke="#666666" points="408,-58 294,-58 294,-39 408,-39 408,-58"/>
<text text-anchor="middle" x="351" y="-46" font-family="Helvetica,sans-Serif" font-size="10.00">sharp::saturated_lift</text>
</a>
</g>
</g>
<!-- Node2 -->
<g id="node2" class="node">
<title>Node2</title>
<g id="a_node2"><a xlink:href="thermo__wrap_8cpp.html#a9f2ca1ce5fd50b35722fd2a5f8330f47" target="_top" xlink:title=" ">
<polygon fill="white" stroke="#666666" points="258,-77 145,-77 145,-58 258,-58 258,-77"/>
<text text-anchor="middle" x="201.5" y="-65" font-family="Helvetica,sans-Serif" font-size="10.00">sharp_saturated_lift</text>
</a>
</g>
</g>
<!-- Node1&#45;&gt;Node2 -->
<g id="edge1" class="edge">
<title>Node1&#45;&gt;Node2</title>
<path fill="none" stroke="#63b8ff" d="M283.8,-57.03C275.2,-58.14 266.45,-59.26 258.04,-60.35"/>
<polygon fill="#63b8ff" stroke="#63b8ff" points="284.34,-60.49 293.82,-55.74 283.45,-53.54 284.34,-60.49"/>
</g>
<!-- Node3 -->
<g id="node3" class="node">
<title>Node3</title>
<g id="a_node3"><a xlink:href="namespacesharp.html#ad4014313c60a66a321e4050a2a07058e" target="_top" xlink:title="Compute the temperature of a parcel lifted moist adiabatically to a new level.">
<polygon fill="white" stroke="#666666" points="241.5,-40 161.5,-40 161.5,-21 241.5,-21 241.5,-40"/>
<text text-anchor="middle" x="201.5" y="-28" font-family="Helvetica,sans-Serif" font-size="10.00">sharp::wetlift</text>
</a>
</g>
</g>
<!-- Node1&#45;&gt;Node3 -->
<g id="edge2" class="edge">
<title>Node1&#45;&gt;Node3</title>
<path fill="none" stroke="#63b8ff" d="M283.48,-40.38C269.15,-38.63 254.46,-36.84 241.59,-35.27"/>
<polygon fill="#63b8ff" stroke="#63b8ff" points="283.47,-43.91 293.82,-41.64 284.31,-36.96 283.47,-43.91"/>
</g>
<!-- Node4 -->
<g id="node4" class="node">
<title>Node4</title>
<g id="a_node4"><a xlink:href="structsharp_1_1lifter__wobus.html#a92ffe04c0425aef07c524759d799066e" target="_top" xlink:title="Overloads operator() to call sharp::wetlift.">
<polygon fill="white" stroke="#666666" points="109,-67.5 0,-67.5 0,-37.5 109,-37.5 109,-67.5"/>
<text text-anchor="start" x="8" y="-55.5" font-family="Helvetica,sans-Serif" font-size="10.00">sharp::lifter_wobus</text>
<text text-anchor="middle" x="54.5" y="-44.5" font-family="Helvetica,sans-Serif" font-size="10.00">::operator()</text>
</a>
</g>
</g>
<!-- Node3&#45;&gt;Node4 -->
<g id="edge3" class="edge">
<title>Node3&#45;&gt;Node4</title>
<path fill="none" stroke="#63b8ff" d="M151.19,-37.98C137.67,-40.03 122.95,-42.27 109.2,-44.35"/>
<polygon fill="#63b8ff" stroke="#63b8ff" points="151.9,-41.41 161.26,-36.45 150.85,-34.49 151.9,-41.41"/>
</g>
<!-- Node5 -->
<g id="node5" class="node">
<title>Node5</title>
<g id="a_node5"><a xlink:href="thermo__wrap_8cpp.html#aa66ee47ed2c19f239f7bf3c90669bacf" target="_top" xlink:title=" ">
<polygon fill="white" stroke="#666666" points="94.5,-19 14.5,-19 14.5,0 94.5,0 94.5,-19"/>
<text text-anchor="middle" x="54.5" y="-7" font-family="Helvetica,sans-Serif" font-size="10.00">sharp_wetlift</text>
</a>
</g>
</g>
<!-- Node3&#45;&gt;Node5 -->
<g id="edge4" class="edge">
<title>Node3&#45;&gt;Node5</title>
<path fill="none" stroke="#63b8ff" d="M151.25,-23.37C132.74,-20.69 111.97,-17.68 94.52,-15.15"/>
<polygon fill="#63b8ff" stroke="#63b8ff" points="150.86,-26.85 161.26,-24.82 151.87,-19.92 150.86,-26.85"/>
</g>
</g>
</svg>
