<?xml version="1.0" encoding="UTF-8" standalone="no"?>
<!DOCTYPE svg PUBLIC "-//W3C//DTD SVG 1.1//EN"
 "http://www.w3.org/Graphics/SVG/1.1/DTD/svg11.dtd">
<!-- Generated by graphviz version 2.43.0 (0)
 -->
<!-- Title: sharp::thetae Pages: 1 -->
<svg width="413pt" height="176pt"
 viewBox="0.00 0.00 413.00 176.00" xmlns="http://www.w3.org/2000/svg" xmlns:xlink="http://www.w3.org/1999/xlink">
<g id="graph0" class="graph" transform="scale(1 1) rotate(0) translate(4 172)">
<title>sharp::thetae</title>
<!-- Node1 -->
<g id="node1" class="node">
<title>Node1</title>
<g id="a_node1"><a xlink:title="Compute the equivalent potential temperature.">
<polygon fill="#999999" stroke="#666666" points="81,-75 0,-75 0,-56 81,-56 81,-75"/>
<text text-anchor="middle" x="40.5" y="-63" font-family="Helvetica,sans-Serif" font-size="10.00">sharp::thetae</text>
</a>
</g>
</g>
<!-- Node1&#45;&gt;Node1 -->
<g id="edge7" class="edge">
<title>Node1&#45;&gt;Node1</title>
<path fill="none" stroke="#63b8ff" d="M19.23,-75.08C8.88,-83.73 15.97,-93 40.5,-93 56.21,-93 64.77,-89.2 66.17,-84.19"/>
<polygon fill="#63b8ff" stroke="#63b8ff" points="69.27,-82.56 61.77,-75.08 62.97,-85.61 69.27,-82.56"/>
</g>
<!-- Node2 -->
<g id="node2" class="node">
<title>Node2</title>
<g id="a_node2"><a xlink:href="namespacesharp.html#ae4385866921cd7286946d9ffdd65c25e" target="_top" xlink:title="Lift a parcel dry adiabatically to its Lifted Condensation Level (LCL).">
<polygon fill="white" stroke="#666666" points="218.5,-132 140.5,-132 140.5,-113 218.5,-113 218.5,-132"/>
<text text-anchor="middle" x="179.5" y="-120" font-family="Helvetica,sans-Serif" font-size="10.00">sharp::drylift</text>
</a>
</g>
</g>
<!-- Node1&#45;&gt;Node2 -->
<g id="edge1" class="edge">
<title>Node1&#45;&gt;Node2</title>
<path fill="none" stroke="#63b8ff" d="M62.88,-75.12C77.95,-81.83 98.62,-90.9 117,-98.5 125.62,-102.06 134.97,-105.79 143.72,-109.21"/>
<polygon fill="#63b8ff" stroke="#63b8ff" points="142.69,-112.56 153.27,-112.92 145.22,-106.03 142.69,-112.56"/>
</g>
<!-- Node4 -->
<g id="node4" class="node">
<title>Node4</title>
<g id="a_node4"><a xlink:href="namespacesharp.html#acfd0143ab72871c4aabc95c1140ee8fb" target="_top" xlink:title="Compute the potential temperature.">
<polygon fill="white" stroke="#666666" points="379,-94 304,-94 304,-75 379,-75 379,-94"/>
<text text-anchor="middle" x="341.5" y="-82" font-family="Helvetica,sans-Serif" font-size="10.00">sharp::theta</text>
</a>
</g>
</g>
<!-- Node1&#45;&gt;Node4 -->
<g id="edge6" class="edge">
<title>Node1&#45;&gt;Node4</title>
<path fill="none" stroke="#63b8ff" d="M81.2,-68.02C136.2,-71.52 235.38,-77.82 293.85,-81.54"/>
<polygon fill="#63b8ff" stroke="#63b8ff" points="293.72,-85.03 303.92,-82.18 294.16,-78.05 293.72,-85.03"/>
</g>
<!-- Node6 -->
<g id="node6" class="node">
<title>Node6</title>
<g id="a_node6"><a xlink:href="namespacesharp.html#ac38870166f07ac30aadbc46b81340cc4" target="_top" xlink:title="Compute the water vapor mixing ratio from specific humidity.">
<polygon fill="white" stroke="#666666" points="225,-56 134,-56 134,-37 225,-37 225,-56"/>
<text text-anchor="middle" x="179.5" y="-44" font-family="Helvetica,sans-Serif" font-size="10.00">sharp::mixratio</text>
</a>
</g>
</g>
<!-- Node1&#45;&gt;Node6 -->
<g id="edge5" class="edge">
<title>Node1&#45;&gt;Node6</title>
<path fill="none" stroke="#63b8ff" d="M81.13,-60C94.35,-58.17 109.34,-56.09 123.52,-54.13"/>
<polygon fill="#63b8ff" stroke="#63b8ff" points="124.24,-57.56 133.66,-52.72 123.28,-50.63 124.24,-57.56"/>
</g>
<!-- Node7 -->
<g id="node7" class="node">
<title>Node7</title>
<g id="a_node7"><a xlink:href="namespacesharp.html#ae237f32df23021613fdbd9cc6679cadb" target="_top" xlink:title="Compute the vapor pressure over liquid water.">
<polygon fill="white" stroke="#666666" points="242,-19 117,-19 117,0 242,0 242,-19"/>
<text text-anchor="middle" x="179.5" y="-7" font-family="Helvetica,sans-Serif" font-size="10.00">sharp::vapor_pressure</text>
</a>
</g>
</g>
<!-- Node1&#45;&gt;Node7 -->
<g id="edge8" class="edge">
<title>Node1&#45;&gt;Node7</title>
<path fill="none" stroke="#63b8ff" d="M58.19,-55.99C73.22,-47.7 96.11,-35.73 117,-27.5 121.79,-25.61 126.86,-23.82 131.96,-22.14"/>
<polygon fill="#63b8ff" stroke="#63b8ff" points="133.21,-25.42 141.71,-19.08 131.12,-18.74 133.21,-25.42"/>
</g>
<!-- Node3 -->
<g id="node3" class="node">
<title>Node3</title>
<g id="a_node3"><a xlink:href="namespacesharp.html#a6f435bc49cb516376e1dc595e837e98b" target="_top" xlink:title="Compute the temperature of the LCL.">
<polygon fill="white" stroke="#666666" points="405,-168 278,-168 278,-149 405,-149 405,-168"/>
<text text-anchor="middle" x="341.5" y="-156" font-family="Helvetica,sans-Serif" font-size="10.00">sharp::lcl_temperature</text>
</a>
</g>
</g>
<!-- Node2&#45;&gt;Node3 -->
<g id="edge2" class="edge">
<title>Node2&#45;&gt;Node3</title>
<path fill="none" stroke="#63b8ff" d="M218.82,-131.12C239.68,-135.82 265.78,-141.69 288.46,-146.79"/>
<polygon fill="#63b8ff" stroke="#63b8ff" points="287.75,-150.22 298.27,-149 289.28,-143.39 287.75,-150.22"/>
</g>
<!-- Node2&#45;&gt;Node4 -->
<g id="edge3" class="edge">
<title>Node2&#45;&gt;Node4</title>
<path fill="none" stroke="#63b8ff" d="M218.82,-113.4C241.39,-108.04 270.1,-101.22 293.97,-95.55"/>
<polygon fill="#63b8ff" stroke="#63b8ff" points="294.94,-98.92 303.86,-93.2 293.33,-92.11 294.94,-98.92"/>
</g>
<!-- Node5 -->
<g id="node5" class="node">
<title>Node5</title>
<g id="a_node5"><a xlink:href="namespacesharp.html#ab50b565bcba73d207dc1433dee5b03c9" target="_top" xlink:title="Comute the pressure level given potential temperature and temperature.">
<polygon fill="white" stroke="#666666" points="393.5,-131 289.5,-131 289.5,-112 393.5,-112 393.5,-131"/>
<text text-anchor="middle" x="341.5" y="-119" font-family="Helvetica,sans-Serif" font-size="10.00">sharp::theta_level</text>
</a>
</g>
</g>
<!-- Node2&#45;&gt;Node5 -->
<g id="edge4" class="edge">
<title>Node2&#45;&gt;Node5</title>
<path fill="none" stroke="#63b8ff" d="M218.82,-122.26C236.94,-122.15 259,-122.01 279.34,-121.88"/>
<polygon fill="#63b8ff" stroke="#63b8ff" points="279.5,-125.38 289.48,-121.82 279.46,-118.38 279.5,-125.38"/>
</g>
</g>
</svg>
