<?xml version="1.0" encoding="UTF-8" standalone="no"?>
<!DOCTYPE svg PUBLIC "-//W3C//DTD SVG 1.1//EN"
 "http://www.w3.org/Graphics/SVG/1.1/DTD/svg11.dtd">
<!-- Generated by graphviz version 2.43.0 (0)
 -->
<!-- Title: sharp::theta Pages: 1 -->
<svg width="771pt" height="405pt"
 viewBox="0.00 0.00 771.00 405.00" xmlns="http://www.w3.org/2000/svg" xmlns:xlink="http://www.w3.org/1999/xlink">
<g id="graph0" class="graph" transform="scale(1 1) rotate(0) translate(4 401)">
<title>sharp::theta</title>
<!-- Node1 -->
<g id="node1" class="node">
<title>Node1</title>
<g id="a_node1"><a xlink:title="Compute the potential temperature.">
<polygon fill="#999999" stroke="#666666" points="763,-190.5 688,-190.5 688,-171.5 763,-171.5 763,-190.5"/>
<text text-anchor="middle" x="725.5" y="-178.5" font-family="Helvetica,sans-Serif" font-size="10.00">sharp::theta</text>
</a>
</g>
</g>
<!-- Node2 -->
<g id="node2" class="node">
<title>Node2</title>
<g id="a_node2"><a xlink:href="namespacesharp.html#ae4385866921cd7286946d9ffdd65c25e" target="_top" xlink:title="Lift a parcel dry adiabatically to its Lifted Condensation Level (LCL).">
<polygon fill="white" stroke="#666666" points="618,-276.5 540,-276.5 540,-257.5 618,-257.5 618,-276.5"/>
<text text-anchor="middle" x="579" y="-264.5" font-family="Helvetica,sans-Serif" font-size="10.00">sharp::drylift</text>
</a>
</g>
</g>
<!-- Node1&#45;&gt;Node2 -->
<g id="edge1" class="edge">
<title>Node1&#45;&gt;Node2</title>
<path fill="none" stroke="#63b8ff" d="M706.89,-197.18C692.81,-209.53 672.16,-226.34 652,-238 638.47,-245.83 622.42,-252.52 608.91,-257.49"/>
<polygon fill="#63b8ff" stroke="#63b8ff" points="709.25,-199.78 714.37,-190.5 704.58,-194.55 709.25,-199.78"/>
</g>
<!-- Node3 -->
<g id="node3" class="node">
<title>Node3</title>
<g id="a_node3"><a xlink:href="structsharp_1_1Parcel.html#a9523de2b8b4c28ca49fba3013f94cb06" target="_top" xlink:title="Lifts a sharp::Parcel to compute its virtual temperature.">
<polygon fill="white" stroke="#666666" points="446.5,-368 348.5,-368 348.5,-338 446.5,-338 446.5,-368"/>
<text text-anchor="start" x="356.5" y="-356" font-family="Helvetica,sans-Serif" font-size="10.00">sharp::Parcel::lift</text>
<text text-anchor="middle" x="397.5" y="-345" font-family="Helvetica,sans-Serif" font-size="10.00">_parcel</text>
</a>
</g>
</g>
<!-- Node1&#45;&gt;Node3 -->
<g id="edge14" class="edge">
<title>Node1&#45;&gt;Node3</title>
<path fill="none" stroke="#63b8ff" d="M716.53,-199.86C705.53,-223.6 683.42,-263.92 652,-286 589.8,-329.7 500.87,-344.9 446.56,-350.18"/>
<polygon fill="#63b8ff" stroke="#63b8ff" points="719.82,-201.09 720.68,-190.53 713.42,-198.25 719.82,-201.09"/>
</g>
<!-- Node10 -->
<g id="node10" class="node">
<title>Node10</title>
<g id="a_node10"><a xlink:href="namespacesharp.html#ab06f16aa1caac3136e863db8cd61e2e9" target="_top" xlink:title="Compute the equivalent potential temperature.">
<polygon fill="white" stroke="#666666" points="438,-190.5 357,-190.5 357,-171.5 438,-171.5 438,-190.5"/>
<text text-anchor="middle" x="397.5" y="-178.5" font-family="Helvetica,sans-Serif" font-size="10.00">sharp::thetae</text>
</a>
</g>
</g>
<!-- Node1&#45;&gt;Node10 -->
<g id="edge20" class="edge">
<title>Node1&#45;&gt;Node10</title>
<path fill="none" stroke="#63b8ff" d="M692.34,-194.1C679.95,-198.49 665.53,-202.82 652,-205 587.94,-215.33 570.5,-212.11 506,-205 481.1,-202.25 453.53,-196.03 432.55,-190.61"/>
<polygon fill="#63b8ff" stroke="#63b8ff" points="693.62,-197.35 701.79,-190.6 691.2,-190.79 693.62,-197.35"/>
</g>
<!-- Node14 -->
<g id="node14" class="node">
<title>Node14</title>
<g id="a_node14"><a xlink:href="structsharp_1_1Parcel.html#a1bf670e79f35a1ce8c904b7ead32ccbe" target="_top" xlink:title="Construct and return a mixed&#45;layer Parcel.">
<polygon fill="white" stroke="#666666" points="636.5,-196 521.5,-196 521.5,-166 636.5,-166 636.5,-196"/>
<text text-anchor="start" x="529.5" y="-184" font-family="Helvetica,sans-Serif" font-size="10.00">sharp::Parcel::mixed</text>
<text text-anchor="middle" x="579" y="-173" font-family="Helvetica,sans-Serif" font-size="10.00">_layer_parcel</text>
</a>
</g>
</g>
<!-- Node1&#45;&gt;Node14 -->
<g id="edge15" class="edge">
<title>Node1&#45;&gt;Node14</title>
<path fill="none" stroke="#63b8ff" d="M677.53,-181C664.51,-181 650.23,-181 636.72,-181"/>
<polygon fill="#63b8ff" stroke="#63b8ff" points="677.66,-184.5 687.66,-181 677.66,-177.5 677.66,-184.5"/>
</g>
<!-- Node15 -->
<g id="node15" class="node">
<title>Node15</title>
<g id="a_node15"><a xlink:href="namespacesharp.html#aa258841692c25171d3f3b2e8b1f52079" target="_top" xlink:title="Compute the temperature of a parcel lifted moist adiabatically to a new level.">
<polygon fill="white" stroke="#666666" points="652,-147.5 506,-147.5 506,-128.5 652,-128.5 652,-147.5"/>
<text text-anchor="middle" x="579" y="-135.5" font-family="Helvetica,sans-Serif" font-size="10.00">sharp::moist_adiabat_cm1</text>
</a>
</g>
</g>
<!-- Node1&#45;&gt;Node15 -->
<g id="edge16" class="edge">
<title>Node1&#45;&gt;Node15</title>
<path fill="none" stroke="#63b8ff" d="M687.48,-168.26C676.14,-164.49 663.6,-160.45 652,-157 640.97,-153.72 628.91,-150.43 617.86,-147.52"/>
<polygon fill="#63b8ff" stroke="#63b8ff" points="686.49,-171.62 697.08,-171.48 688.72,-164.98 686.49,-171.62"/>
</g>
<!-- Node18 -->
<g id="node18" class="node">
<title>Node18</title>
<g id="a_node18"><a xlink:href="thermo__wrap_8cpp.html#a2060b4dede3b850478f20bbff8380eb0" target="_top" xlink:title=" ">
<polygon fill="white" stroke="#666666" points="616,-110.5 542,-110.5 542,-91.5 616,-91.5 616,-110.5"/>
<text text-anchor="middle" x="579" y="-98.5" font-family="Helvetica,sans-Serif" font-size="10.00">sharp_theta</text>
</a>
</g>
</g>
<!-- Node1&#45;&gt;Node18 -->
<g id="edge19" class="edge">
<title>Node1&#45;&gt;Node18</title>
<path fill="none" stroke="#63b8ff" d="M708.99,-163.9C695.31,-149.84 674.15,-130.42 652,-119 641.01,-113.33 628.13,-109.38 616.34,-106.66"/>
<polygon fill="#63b8ff" stroke="#63b8ff" points="706.72,-166.6 716.13,-171.46 711.81,-161.79 706.72,-166.6"/>
</g>
<!-- Node19 -->
<g id="node19" class="node">
<title>Node19</title>
<g id="a_node19"><a xlink:href="namespacesharp.html#ad4014313c60a66a321e4050a2a07058e" target="_top" xlink:title="Compute the temperature of a parcel lifted moist adiabatically to a new level.">
<polygon fill="white" stroke="#666666" points="619,-67.5 539,-67.5 539,-48.5 619,-48.5 619,-67.5"/>
<text text-anchor="middle" x="579" y="-55.5" font-family="Helvetica,sans-Serif" font-size="10.00">sharp::wetlift</text>
</a>
</g>
</g>
<!-- Node1&#45;&gt;Node19 -->
<g id="edge21" class="edge">
<title>Node1&#45;&gt;Node19</title>
<path fill="none" stroke="#63b8ff" d="M715.35,-162.2C703.62,-139.98 681.25,-103.34 652,-82 642.31,-74.93 630.42,-69.86 619.1,-66.25"/>
<polygon fill="#63b8ff" stroke="#63b8ff" points="712.32,-163.97 719.98,-171.29 718.56,-160.79 712.32,-163.97"/>
</g>
<!-- Node2&#45;&gt;Node3 -->
<g id="edge2" class="edge">
<title>Node2&#45;&gt;Node3</title>
<path fill="none" stroke="#63b8ff" d="M554.77,-282.13C533.36,-295.64 500.4,-315.33 470,-329 462.6,-332.33 454.58,-335.45 446.69,-338.28"/>
<polygon fill="#63b8ff" stroke="#63b8ff" points="556.92,-284.91 563.46,-276.59 553.15,-279.01 556.92,-284.91"/>
</g>
<!-- Node7 -->
<g id="node7" class="node">
<title>Node7</title>
<g id="a_node7"><a xlink:href="thermo__wrap_8cpp.html#a977ee5735b66a0a0b9d74f3325a0041e" target="_top" xlink:title=" ">
<polygon fill="white" stroke="#666666" points="436,-319.5 359,-319.5 359,-300.5 436,-300.5 436,-319.5"/>
<text text-anchor="middle" x="397.5" y="-307.5" font-family="Helvetica,sans-Serif" font-size="10.00">sharp_drylift</text>
</a>
</g>
</g>
<!-- Node2&#45;&gt;Node7 -->
<g id="edge6" class="edge">
<title>Node2&#45;&gt;Node7</title>
<path fill="none" stroke="#63b8ff" d="M529.89,-278.53C500.5,-285.57 463.46,-294.44 436.2,-300.97"/>
<polygon fill="#63b8ff" stroke="#63b8ff" points="531.02,-281.85 539.93,-276.12 529.39,-275.05 531.02,-281.85"/>
</g>
<!-- Node8 -->
<g id="node8" class="node">
<title>Node8</title>
<g id="a_node8"><a xlink:href="namespacesharp.html#a5e3156aa7f5bafbd908184c7f51927ee" target="_top" xlink:title="Compute the wetbulb potential temperature.">
<polygon fill="white" stroke="#666666" points="457,-282.5 338,-282.5 338,-263.5 457,-263.5 457,-282.5"/>
<text text-anchor="middle" x="397.5" y="-270.5" font-family="Helvetica,sans-Serif" font-size="10.00">sharp::theta_wetbulb</text>
</a>
</g>
</g>
<!-- Node2&#45;&gt;Node8 -->
<g id="edge7" class="edge">
<title>Node2&#45;&gt;Node8</title>
<path fill="none" stroke="#63b8ff" d="M529.66,-268.62C507.29,-269.36 480.52,-270.26 457.01,-271.04"/>
<polygon fill="#63b8ff" stroke="#63b8ff" points="530.06,-272.1 539.93,-268.27 529.82,-265.11 530.06,-272.1"/>
</g>
<!-- Node2&#45;&gt;Node10 -->
<g id="edge9" class="edge">
<title>Node2&#45;&gt;Node10</title>
<path fill="none" stroke="#63b8ff" d="M542.5,-253.72C530.75,-249.05 517.69,-243.57 506,-238 489.48,-230.12 486.13,-226.65 470,-218 452.26,-208.49 431.86,-197.97 417.4,-190.59"/>
<polygon fill="#63b8ff" stroke="#63b8ff" points="541.42,-257.05 552.01,-257.43 543.96,-250.53 541.42,-257.05"/>
</g>
<!-- Node12 -->
<g id="node12" class="node">
<title>Node12</title>
<g id="a_node12"><a xlink:href="namespacesharp.html#accda9c75278f1a32978bbfd662492822" target="_top" xlink:title="Compute the wetbulb temperature.">
<polygon fill="white" stroke="#666666" points="442,-245.5 353,-245.5 353,-226.5 442,-226.5 442,-245.5"/>
<text text-anchor="middle" x="397.5" y="-233.5" font-family="Helvetica,sans-Serif" font-size="10.00">sharp::wetbulb</text>
</a>
</g>
</g>
<!-- Node2&#45;&gt;Node12 -->
<g id="edge12" class="edge">
<title>Node2&#45;&gt;Node12</title>
<path fill="none" stroke="#63b8ff" d="M529.83,-258.68C502.55,-253.97 468.7,-248.12 442.2,-243.55"/>
<polygon fill="#63b8ff" stroke="#63b8ff" points="529.48,-262.17 539.93,-260.43 530.67,-255.27 529.48,-262.17"/>
</g>
<!-- Node4 -->
<g id="node4" class="node">
<title>Node4</title>
<g id="a_node4"><a xlink:href="namespacesharp.html#a2e6b7cd4a3594a8f2c2050b0e4784cce" target="_top" xlink:title="Computes the Effective Inflow Layer for a given atmospheric sounding.">
<polygon fill="white" stroke="#666666" points="289,-349 162,-349 162,-319 289,-319 289,-349"/>
<text text-anchor="start" x="170" y="-337" font-family="Helvetica,sans-Serif" font-size="10.00">sharp::effective_inflow</text>
<text text-anchor="middle" x="225.5" y="-326" font-family="Helvetica,sans-Serif" font-size="10.00">_layer</text>
</a>
</g>
</g>
<!-- Node3&#45;&gt;Node4 -->
<g id="edge3" class="edge">
<title>Node3&#45;&gt;Node4</title>
<path fill="none" stroke="#63b8ff" d="M338.1,-346.47C322.32,-344.71 305.19,-342.79 289.19,-341.01"/>
<polygon fill="#63b8ff" stroke="#63b8ff" points="337.91,-349.97 348.24,-347.61 338.69,-343.02 337.91,-349.97"/>
</g>
<!-- Node6 -->
<g id="node6" class="node">
<title>Node6</title>
<g id="a_node6"><a xlink:href="structsharp_1_1Parcel.html#aa258d27992d22d8b80cb221e6e2a6c19" target="_top" xlink:title="Construct and return a most&#45;unstable Parcel.">
<polygon fill="white" stroke="#666666" points="280.5,-397 170.5,-397 170.5,-367 280.5,-367 280.5,-397"/>
<text text-anchor="start" x="178.5" y="-385" font-family="Helvetica,sans-Serif" font-size="10.00">sharp::Parcel::most</text>
<text text-anchor="middle" x="225.5" y="-374" font-family="Helvetica,sans-Serif" font-size="10.00">_unstable_parcel</text>
</a>
</g>
</g>
<!-- Node3&#45;&gt;Node6 -->
<g id="edge5" class="edge">
<title>Node3&#45;&gt;Node6</title>
<path fill="none" stroke="#63b8ff" d="M338.36,-362.92C319.64,-366.11 298.98,-369.64 280.56,-372.78"/>
<polygon fill="#63b8ff" stroke="#63b8ff" points="338.97,-366.36 348.24,-361.23 337.79,-359.46 338.97,-366.36"/>
</g>
<!-- Node5 -->
<g id="node5" class="node">
<title>Node5</title>
<g id="a_node5"><a xlink:href="convective__wrap_8cpp.html#af214bab6c6ba14dc06fe7df4f6abcdf8" target="_top" xlink:title=" ">
<polygon fill="white" stroke="#666666" points="126,-349 0,-349 0,-319 126,-319 126,-349"/>
<text text-anchor="start" x="8" y="-337" font-family="Helvetica,sans-Serif" font-size="10.00">sharp_effective_inflow</text>
<text text-anchor="middle" x="63" y="-326" font-family="Helvetica,sans-Serif" font-size="10.00">_layer</text>
</a>
</g>
</g>
<!-- Node4&#45;&gt;Node5 -->
<g id="edge4" class="edge">
<title>Node4&#45;&gt;Node5</title>
<path fill="none" stroke="#63b8ff" d="M151.93,-334C143.3,-334 134.55,-334 126.08,-334"/>
<polygon fill="#63b8ff" stroke="#63b8ff" points="151.99,-337.5 161.99,-334 151.99,-330.5 151.99,-337.5"/>
</g>
<!-- Node9 -->
<g id="node9" class="node">
<title>Node9</title>
<g id="a_node9"><a xlink:href="thermo__wrap_8cpp.html#adfde578d6548e8bbf3d24159d2e6f0bc" target="_top" xlink:title=" ">
<polygon fill="white" stroke="#666666" points="285,-282.5 166,-282.5 166,-263.5 285,-263.5 285,-282.5"/>
<text text-anchor="middle" x="225.5" y="-270.5" font-family="Helvetica,sans-Serif" font-size="10.00">sharp_theta_wetbulb</text>
</a>
</g>
</g>
<!-- Node8&#45;&gt;Node9 -->
<g id="edge8" class="edge">
<title>Node8&#45;&gt;Node9</title>
<path fill="none" stroke="#63b8ff" d="M327.82,-273C313.66,-273 298.87,-273 285.11,-273"/>
<polygon fill="#63b8ff" stroke="#63b8ff" points="328,-276.5 338,-273 328,-269.5 328,-276.5"/>
</g>
<!-- Node10&#45;&gt;Node10 -->
<g id="edge11" class="edge">
<title>Node10&#45;&gt;Node10</title>
<path fill="none" stroke="#63b8ff" d="M429.69,-198.95C428.77,-204.32 418.04,-208.5 397.5,-208.5 366.93,-208.5 358.09,-199.23 370.99,-190.58"/>
<polygon fill="#63b8ff" stroke="#63b8ff" points="432.52,-196.89 424.01,-190.58 426.73,-200.82 432.52,-196.89"/>
</g>
<!-- Node11 -->
<g id="node11" class="node">
<title>Node11</title>
<g id="a_node11"><a xlink:href="thermo__wrap_8cpp.html#a6fa159149e40e0b462647cd423be313f" target="_top" xlink:title=" ">
<polygon fill="white" stroke="#666666" points="265.5,-190.5 185.5,-190.5 185.5,-171.5 265.5,-171.5 265.5,-190.5"/>
<text text-anchor="middle" x="225.5" y="-178.5" font-family="Helvetica,sans-Serif" font-size="10.00">sharp_thetae</text>
</a>
</g>
</g>
<!-- Node10&#45;&gt;Node11 -->
<g id="edge10" class="edge">
<title>Node10&#45;&gt;Node11</title>
<path fill="none" stroke="#63b8ff" d="M346.3,-181C320.49,-181 289.51,-181 265.52,-181"/>
<polygon fill="#63b8ff" stroke="#63b8ff" points="346.64,-184.5 356.64,-181 346.64,-177.5 346.64,-184.5"/>
</g>
<!-- Node13 -->
<g id="node13" class="node">
<title>Node13</title>
<g id="a_node13"><a xlink:href="thermo__wrap_8cpp.html#a3d62d7747127fc25886aed2e9db56cae" target="_top" xlink:title=" ">
<polygon fill="white" stroke="#666666" points="269.5,-245.5 181.5,-245.5 181.5,-226.5 269.5,-226.5 269.5,-245.5"/>
<text text-anchor="middle" x="225.5" y="-233.5" font-family="Helvetica,sans-Serif" font-size="10.00">sharp_wetbulb</text>
</a>
</g>
</g>
<!-- Node12&#45;&gt;Node13 -->
<g id="edge13" class="edge">
<title>Node12&#45;&gt;Node13</title>
<path fill="none" stroke="#63b8ff" d="M342.53,-236C318.97,-236 291.71,-236 269.54,-236"/>
<polygon fill="#63b8ff" stroke="#63b8ff" points="342.72,-239.5 352.72,-236 342.72,-232.5 342.72,-239.5"/>
</g>
<!-- Node16 -->
<g id="node16" class="node">
<title>Node16</title>
<g id="a_node16"><a xlink:href="structsharp_1_1lifter__cm1.html#a2eeb5b118ef40e873c09ac9b3635f7b9" target="_top" xlink:title="Overloads operator() to call sharp::moist_adiabat_cm1.">
<polygon fill="white" stroke="#666666" points="449.5,-116 345.5,-116 345.5,-86 449.5,-86 449.5,-116"/>
<text text-anchor="start" x="353.5" y="-104" font-family="Helvetica,sans-Serif" font-size="10.00">sharp::lifter_cm1::</text>
<text text-anchor="middle" x="397.5" y="-93" font-family="Helvetica,sans-Serif" font-size="10.00">operator()</text>
</a>
</g>
</g>
<!-- Node15&#45;&gt;Node16 -->
<g id="edge17" class="edge">
<title>Node15&#45;&gt;Node16</title>
<path fill="none" stroke="#63b8ff" d="M521.78,-126.41C498.69,-121.65 472.15,-116.18 449.63,-111.54"/>
<polygon fill="#63b8ff" stroke="#63b8ff" points="521.27,-129.88 531.77,-128.47 522.69,-123.02 521.27,-129.88"/>
</g>
<!-- Node17 -->
<g id="node17" class="node">
<title>Node17</title>
<g id="a_node17"><a xlink:href="thermo__wrap_8cpp.html#aac6beaaefcb6cf02512e6a74b6ab5be7" target="_top" xlink:title=" ">
<polygon fill="white" stroke="#666666" points="470,-153.5 325,-153.5 325,-134.5 470,-134.5 470,-153.5"/>
<text text-anchor="middle" x="397.5" y="-141.5" font-family="Helvetica,sans-Serif" font-size="10.00">sharp_moist_adiabat_cm1</text>
</a>
</g>
</g>
<!-- Node15&#45;&gt;Node17 -->
<g id="edge18" class="edge">
<title>Node15&#45;&gt;Node17</title>
<path fill="none" stroke="#63b8ff" d="M495.74,-140.75C487.15,-141.04 478.46,-141.33 470,-141.61"/>
<polygon fill="#63b8ff" stroke="#63b8ff" points="495.89,-144.25 505.77,-140.41 495.66,-137.25 495.89,-144.25"/>
</g>
<!-- Node20 -->
<g id="node20" class="node">
<title>Node20</title>
<g id="a_node20"><a xlink:href="structsharp_1_1lifter__wobus.html#a92ffe04c0425aef07c524759d799066e" target="_top" xlink:title="Overloads operator() to call sharp::wetlift.">
<polygon fill="white" stroke="#666666" points="452,-30 343,-30 343,0 452,0 452,-30"/>
<text text-anchor="start" x="351" y="-18" font-family="Helvetica,sans-Serif" font-size="10.00">sharp::lifter_wobus</text>
<text text-anchor="middle" x="397.5" y="-7" font-family="Helvetica,sans-Serif" font-size="10.00">::operator()</text>
</a>
</g>
</g>
<!-- Node19&#45;&gt;Node20 -->
<g id="edge22" class="edge">
<title>Node19&#45;&gt;Node20</title>
<path fill="none" stroke="#63b8ff" d="M528.74,-46.2C504.97,-40.51 476.41,-33.66 452.1,-27.84"/>
<polygon fill="#63b8ff" stroke="#63b8ff" points="528.07,-49.64 538.61,-48.56 529.7,-42.83 528.07,-49.64"/>
</g>
<!-- Node21 -->
<g id="node21" class="node">
<title>Node21</title>
<g id="a_node21"><a xlink:href="thermo__wrap_8cpp.html#aa66ee47ed2c19f239f7bf3c90669bacf" target="_top" xlink:title=" ">
<polygon fill="white" stroke="#666666" points="437.5,-67.5 357.5,-67.5 357.5,-48.5 437.5,-48.5 437.5,-67.5"/>
<text text-anchor="middle" x="397.5" y="-55.5" font-family="Helvetica,sans-Serif" font-size="10.00">sharp_wetlift</text>
</a>
</g>
</g>
<!-- Node19&#45;&gt;Node21 -->
<g id="edge23" class="edge">
<title>Node19&#45;&gt;Node21</title>
<path fill="none" stroke="#63b8ff" d="M528.42,-58C499.85,-58 464.43,-58 437.8,-58"/>
<polygon fill="#63b8ff" stroke="#63b8ff" points="528.61,-61.5 538.61,-58 528.61,-54.5 528.61,-61.5"/>
</g>
</g>
</svg>
