<?xml version="1.0" encoding="UTF-8" standalone="no"?>
<!DOCTYPE svg PUBLIC "-//W3C//DTD SVG 1.1//EN"
 "http://www.w3.org/Graphics/SVG/1.1/DTD/svg11.dtd">
<!-- Generated by graphviz version 2.43.0 (0)
 -->
<!-- Title: sharp::height_layer_to_pressure Pages: 1 -->
<svg width="624pt" height="196pt"
 viewBox="0.00 0.00 624.00 195.50" xmlns="http://www.w3.org/2000/svg" xmlns:xlink="http://www.w3.org/1999/xlink">
<g id="graph0" class="graph" transform="scale(1 1) rotate(0) translate(4 191.5)">
<title>sharp::height_layer_to_pressure</title>
<!-- Node1 -->
<g id="node1" class="node">
<title>Node1</title>
<g id="a_node1"><a xlink:title="Converts a sharp::HeightLayer to a sharp::PressureLayer.">
<polygon fill="#999999" stroke="#666666" points="616,-150 506,-150 506,-120 616,-120 616,-150"/>
<text text-anchor="start" x="514" y="-138" font-family="Helvetica,sans-Serif" font-size="10.00">sharp::height_layer</text>
<text text-anchor="middle" x="561" y="-127" font-family="Helvetica,sans-Serif" font-size="10.00">_to_pressure</text>
</a>
</g>
</g>
<!-- Node2 -->
<g id="node2" class="node">
<title>Node2</title>
<g id="a_node2"><a xlink:href="namespacesharp.html#aa0726266b4777806bae4e8054e01684c" target="_top" xlink:title="Computes the mass&#45;weighted mean value of a field over a given height layer.">
<polygon fill="white" stroke="#666666" points="462,-187.5 355,-187.5 355,-168.5 462,-168.5 462,-187.5"/>
<text text-anchor="middle" x="408.5" y="-175.5" font-family="Helvetica,sans-Serif" font-size="10.00">sharp::layer_mean</text>
</a>
</g>
</g>
<!-- Node1&#45;&gt;Node2 -->
<g id="edge1" class="edge">
<title>Node1&#45;&gt;Node2</title>
<path fill="none" stroke="#63b8ff" d="M497.7,-152.8C478.98,-158.15 459.15,-163.81 443.05,-168.41"/>
<polygon fill="#63b8ff" stroke="#63b8ff" points="498.71,-156.15 507.36,-150.04 496.79,-149.42 498.71,-156.15"/>
</g>
<!-- Node3 -->
<g id="node3" class="node">
<title>Node3</title>
<g id="a_node3"><a xlink:href="layer__wrap_8cpp.html#a0e34d4e0b8a26f17698d3151d128fb5d" target="_top" xlink:title=" ">
<polygon fill="white" stroke="#666666" points="470,-150 347,-150 347,-120 470,-120 470,-150"/>
<text text-anchor="start" x="355" y="-138" font-family="Helvetica,sans-Serif" font-size="10.00">sharp_HeightLayer_to</text>
<text text-anchor="middle" x="408.5" y="-127" font-family="Helvetica,sans-Serif" font-size="10.00">_PressureLayer</text>
</a>
</g>
</g>
<!-- Node1&#45;&gt;Node3 -->
<g id="edge2" class="edge">
<title>Node1&#45;&gt;Node3</title>
<path fill="none" stroke="#63b8ff" d="M495.51,-135C487.09,-135 478.49,-135 470.13,-135"/>
<polygon fill="#63b8ff" stroke="#63b8ff" points="495.67,-138.5 505.67,-135 495.67,-131.5 495.67,-138.5"/>
</g>
<!-- Node4 -->
<g id="node4" class="node">
<title>Node4</title>
<g id="a_node4"><a xlink:href="namespacesharp.html#a74a735636c932467b4d2ced544e0cb51" target="_top" xlink:title="Estimates supercell storm motion using the Bunkers et al. 2000 method.">
<polygon fill="white" stroke="#666666" points="467.5,-102 349.5,-102 349.5,-72 467.5,-72 467.5,-102"/>
<text text-anchor="start" x="357.5" y="-90" font-family="Helvetica,sans-Serif" font-size="10.00">sharp::storm_motion</text>
<text text-anchor="middle" x="408.5" y="-79" font-family="Helvetica,sans-Serif" font-size="10.00">_bunkers</text>
</a>
</g>
</g>
<!-- Node1&#45;&gt;Node4 -->
<g id="edge3" class="edge">
<title>Node1&#45;&gt;Node4</title>
<path fill="none" stroke="#63b8ff" d="M502.92,-116.79C487.61,-111.91 471.23,-106.69 456.54,-102"/>
<polygon fill="#63b8ff" stroke="#63b8ff" points="502.2,-120.24 512.79,-119.94 504.33,-113.57 502.2,-120.24"/>
</g>
<!-- Node5 -->
<g id="node5" class="node">
<title>Node5</title>
<g id="a_node5"><a xlink:href="namespacesharp.html#a72bbdc4cfe7895dd51981902ac9fc822" target="_top" xlink:title="Computes Entrainment CAPE using a previously lifted parcel.">
<polygon fill="white" stroke="#666666" points="311,-163.5 173,-163.5 173,-144.5 311,-144.5 311,-163.5"/>
<text text-anchor="middle" x="242" y="-151.5" font-family="Helvetica,sans-Serif" font-size="10.00">sharp::entrainment_cape</text>
</a>
</g>
</g>
<!-- Node4&#45;&gt;Node5 -->
<g id="edge4" class="edge">
<title>Node4&#45;&gt;Node5</title>
<path fill="none" stroke="#63b8ff" d="M356.62,-106.27C353.33,-107.8 350.1,-109.38 347,-111 329.97,-119.93 328.48,-126.98 311,-135 302.87,-138.73 293.84,-141.88 285.1,-144.48"/>
<polygon fill="#63b8ff" stroke="#63b8ff" points="358.25,-109.38 365.97,-102.13 355.41,-102.98 358.25,-109.38"/>
</g>
<!-- Node7 -->
<g id="node7" class="node">
<title>Node7</title>
<g id="a_node7"><a xlink:href="convective__wrap_8cpp.html#aa0e261971f41c6f95514e9ab584cc91e" target="_top" xlink:title=" ">
<polygon fill="white" stroke="#666666" points="300.5,-126 183.5,-126 183.5,-96 300.5,-96 300.5,-126"/>
<text text-anchor="start" x="191.5" y="-114" font-family="Helvetica,sans-Serif" font-size="10.00">sharp_storm_motion</text>
<text text-anchor="middle" x="242" y="-103" font-family="Helvetica,sans-Serif" font-size="10.00">_bunkers</text>
</a>
</g>
</g>
<!-- Node4&#45;&gt;Node7 -->
<g id="edge6" class="edge">
<title>Node4&#45;&gt;Node7</title>
<path fill="none" stroke="#63b8ff" d="M338.96,-97C326.24,-98.86 313.07,-100.78 300.72,-102.58"/>
<polygon fill="#63b8ff" stroke="#63b8ff" points="339.65,-100.44 349.04,-95.53 338.64,-93.51 339.65,-100.44"/>
</g>
<!-- Node8 -->
<g id="node8" class="node">
<title>Node8</title>
<g id="a_node8"><a xlink:href="convective__wrap_8cpp.html#a9c1783d5b0cde5deea749c0f4e0ee310" target="_top" xlink:title=" ">
<polygon fill="white" stroke="#666666" points="300.5,-78 183.5,-78 183.5,-48 300.5,-48 300.5,-78"/>
<text text-anchor="start" x="191.5" y="-66" font-family="Helvetica,sans-Serif" font-size="10.00">sharp_storm_motion</text>
<text text-anchor="middle" x="242" y="-55" font-family="Helvetica,sans-Serif" font-size="10.00">_bunkers_np</text>
</a>
</g>
</g>
<!-- Node4&#45;&gt;Node8 -->
<g id="edge7" class="edge">
<title>Node4&#45;&gt;Node8</title>
<path fill="none" stroke="#63b8ff" d="M338.96,-77C326.24,-75.14 313.07,-73.22 300.72,-71.42"/>
<polygon fill="#63b8ff" stroke="#63b8ff" points="338.64,-80.49 349.04,-78.47 339.65,-73.56 338.64,-80.49"/>
</g>
<!-- Node9 -->
<g id="node9" class="node">
<title>Node9</title>
<g id="a_node9"><a xlink:href="namespacesharp.html#ab31d383a3231f8fef873e5a16c0db856" target="_top" xlink:title="Estimates supercell storm motion by using the Bunkers et al. 2014 method.">
<polygon fill="white" stroke="#666666" points="301,-30 183,-30 183,0 301,0 301,-30"/>
<text text-anchor="start" x="191" y="-18" font-family="Helvetica,sans-Serif" font-size="10.00">sharp::storm_motion</text>
<text text-anchor="middle" x="242" y="-7" font-family="Helvetica,sans-Serif" font-size="10.00">_bunkers</text>
</a>
</g>
</g>
<!-- Node4&#45;&gt;Node9 -->
<g id="edge8" class="edge">
<title>Node4&#45;&gt;Node9</title>
<path fill="none" stroke="#63b8ff" d="M370.33,-67.18C352.61,-58.08 330.96,-47.45 311,-39 303.74,-35.93 295.93,-32.91 288.29,-30.11"/>
<polygon fill="#63b8ff" stroke="#63b8ff" points="368.73,-70.29 379.22,-71.79 371.95,-64.08 368.73,-70.29"/>
</g>
<!-- Node6 -->
<g id="node6" class="node">
<title>Node6</title>
<g id="a_node6"><a xlink:href="convective__wrap_8cpp.html#ab0bfb728bbbf3a731c330b61a5c415ad" target="_top" xlink:title=" ">
<polygon fill="white" stroke="#666666" points="137,-163.5 0,-163.5 0,-144.5 137,-144.5 137,-163.5"/>
<text text-anchor="middle" x="68.5" y="-151.5" font-family="Helvetica,sans-Serif" font-size="10.00">sharp_entrainment_cape</text>
</a>
</g>
</g>
<!-- Node5&#45;&gt;Node6 -->
<g id="edge5" class="edge">
<title>Node5&#45;&gt;Node6</title>
<path fill="none" stroke="#63b8ff" d="M162.51,-154C154.08,-154 145.55,-154 137.26,-154"/>
<polygon fill="#63b8ff" stroke="#63b8ff" points="162.73,-157.5 172.73,-154 162.73,-150.5 162.73,-157.5"/>
</g>
</g>
</svg>
