<?xml version="1.0" encoding="UTF-8" standalone="no"?>
<!DOCTYPE svg PUBLIC "-//W3C//DTD SVG 1.1//EN"
 "http://www.w3.org/Graphics/SVG/1.1/DTD/svg11.dtd">
<!-- Generated by graphviz version 2.43.0 (0)
 -->
<!-- Title: sharp::theta_level Pages: 1 -->
<svg width="732pt" height="234pt"
 viewBox="0.00 0.00 732.00 233.50" xmlns="http://www.w3.org/2000/svg" xmlns:xlink="http://www.w3.org/1999/xlink">
<g id="graph0" class="graph" transform="scale(1 1) rotate(0) translate(4 229.5)">
<title>sharp::theta_level</title>
<!-- Node1 -->
<g id="node1" class="node">
<title>Node1</title>
<g id="a_node1"><a xlink:title="Comute the pressure level given potential temperature and temperature.">
<polygon fill="#999999" stroke="#666666" points="724,-92 620,-92 620,-73 724,-73 724,-92"/>
<text text-anchor="middle" x="672" y="-80" font-family="Helvetica,sans-Serif" font-size="10.00">sharp::theta_level</text>
</a>
</g>
</g>
<!-- Node2 -->
<g id="node2" class="node">
<title>Node2</title>
<g id="a_node2"><a xlink:href="namespacesharp.html#ae4385866921cd7286946d9ffdd65c25e" target="_top" xlink:title="Lift a parcel dry adiabatically to its Lifted Condensation Level (LCL).">
<polygon fill="white" stroke="#666666" points="571,-111 493,-111 493,-92 571,-92 571,-111"/>
<text text-anchor="middle" x="532" y="-99" font-family="Helvetica,sans-Serif" font-size="10.00">sharp::drylift</text>
</a>
</g>
</g>
<!-- Node1&#45;&gt;Node2 -->
<g id="edge1" class="edge">
<title>Node1&#45;&gt;Node2</title>
<path fill="none" stroke="#63b8ff" d="M609.67,-90.94C596.53,-92.75 583.01,-94.61 571.06,-96.26"/>
<polygon fill="#63b8ff" stroke="#63b8ff" points="610.18,-94.41 619.61,-89.57 609.23,-87.47 610.18,-94.41"/>
</g>
<!-- Node14 -->
<g id="node14" class="node">
<title>Node14</title>
<g id="a_node14"><a xlink:href="thermo__wrap_8cpp.html#a55093f841a1789ae9d59e964df469b4d" target="_top" xlink:title=" ">
<polygon fill="white" stroke="#666666" points="584,-74 480,-74 480,-55 584,-55 584,-74"/>
<text text-anchor="middle" x="532" y="-62" font-family="Helvetica,sans-Serif" font-size="10.00">sharp_theta_level</text>
</a>
</g>
</g>
<!-- Node1&#45;&gt;Node14 -->
<g id="edge14" class="edge">
<title>Node1&#45;&gt;Node14</title>
<path fill="none" stroke="#63b8ff" d="M609.5,-74.48C601.13,-73.39 592.6,-72.27 584.43,-71.21"/>
<polygon fill="#63b8ff" stroke="#63b8ff" points="609.25,-77.97 619.61,-75.8 610.15,-71.03 609.25,-77.97"/>
</g>
<!-- Node3 -->
<g id="node3" class="node">
<title>Node3</title>
<g id="a_node3"><a xlink:href="structsharp_1_1Parcel.html#a9523de2b8b4c28ca49fba3013f94cb06" target="_top" xlink:title="Lifts a sharp::Parcel to compute its virtual temperature.">
<polygon fill="white" stroke="#666666" points="433.5,-196.5 335.5,-196.5 335.5,-166.5 433.5,-166.5 433.5,-196.5"/>
<text text-anchor="start" x="343.5" y="-184.5" font-family="Helvetica,sans-Serif" font-size="10.00">sharp::Parcel::lift</text>
<text text-anchor="middle" x="384.5" y="-173.5" font-family="Helvetica,sans-Serif" font-size="10.00">_parcel</text>
</a>
</g>
</g>
<!-- Node2&#45;&gt;Node3 -->
<g id="edge2" class="edge">
<title>Node2&#45;&gt;Node3</title>
<path fill="none" stroke="#63b8ff" d="M509.66,-116.8C492.44,-128.76 467.33,-145.34 444,-157.5 437.96,-160.65 431.42,-163.68 424.97,-166.46"/>
<polygon fill="#63b8ff" stroke="#63b8ff" points="511.72,-119.63 517.89,-111.02 507.7,-113.9 511.72,-119.63"/>
</g>
<!-- Node7 -->
<g id="node7" class="node">
<title>Node7</title>
<g id="a_node7"><a xlink:href="thermo__wrap_8cpp.html#a977ee5735b66a0a0b9d74f3325a0041e" target="_top" xlink:title=" ">
<polygon fill="white" stroke="#666666" points="423,-148 346,-148 346,-129 423,-129 423,-148"/>
<text text-anchor="middle" x="384.5" y="-136" font-family="Helvetica,sans-Serif" font-size="10.00">sharp_drylift</text>
</a>
</g>
</g>
<!-- Node2&#45;&gt;Node7 -->
<g id="edge6" class="edge">
<title>Node2&#45;&gt;Node7</title>
<path fill="none" stroke="#63b8ff" d="M483.84,-113.49C464.16,-118.5 441.63,-124.23 423.1,-128.94"/>
<polygon fill="#63b8ff" stroke="#63b8ff" points="484.7,-116.89 493.53,-111.03 482.98,-110.1 484.7,-116.89"/>
</g>
<!-- Node8 -->
<g id="node8" class="node">
<title>Node8</title>
<g id="a_node8"><a xlink:href="namespacesharp.html#a5e3156aa7f5bafbd908184c7f51927ee" target="_top" xlink:title="Compute the wetbulb potential temperature.">
<polygon fill="white" stroke="#666666" points="444,-111 325,-111 325,-92 444,-92 444,-111"/>
<text text-anchor="middle" x="384.5" y="-99" font-family="Helvetica,sans-Serif" font-size="10.00">sharp::theta_wetbulb</text>
</a>
</g>
</g>
<!-- Node2&#45;&gt;Node8 -->
<g id="edge7" class="edge">
<title>Node2&#45;&gt;Node8</title>
<path fill="none" stroke="#63b8ff" d="M482.67,-101.5C470.3,-101.5 456.86,-101.5 444.04,-101.5"/>
<polygon fill="#63b8ff" stroke="#63b8ff" points="482.77,-105 492.77,-101.5 482.77,-98 482.77,-105"/>
</g>
<!-- Node10 -->
<g id="node10" class="node">
<title>Node10</title>
<g id="a_node10"><a xlink:href="namespacesharp.html#ab06f16aa1caac3136e863db8cd61e2e9" target="_top" xlink:title="Compute the equivalent potential temperature.">
<polygon fill="white" stroke="#666666" points="425,-56 344,-56 344,-37 425,-37 425,-56"/>
<text text-anchor="middle" x="384.5" y="-44" font-family="Helvetica,sans-Serif" font-size="10.00">sharp::thetae</text>
</a>
</g>
</g>
<!-- Node2&#45;&gt;Node10 -->
<g id="edge9" class="edge">
<title>Node2&#45;&gt;Node10</title>
<path fill="none" stroke="#63b8ff" d="M495.91,-88.46C490.57,-86.47 485.14,-84.44 480,-82.5 456.34,-73.59 429.4,-63.31 410.35,-56.02"/>
<polygon fill="#63b8ff" stroke="#63b8ff" points="494.71,-91.75 505.3,-91.97 497.16,-85.2 494.71,-91.75"/>
</g>
<!-- Node12 -->
<g id="node12" class="node">
<title>Node12</title>
<g id="a_node12"><a xlink:href="namespacesharp.html#accda9c75278f1a32978bbfd662492822" target="_top" xlink:title="Compute the wetbulb temperature.">
<polygon fill="white" stroke="#666666" points="429,-19 340,-19 340,0 429,0 429,-19"/>
<text text-anchor="middle" x="384.5" y="-7" font-family="Helvetica,sans-Serif" font-size="10.00">sharp::wetbulb</text>
</a>
</g>
</g>
<!-- Node2&#45;&gt;Node12 -->
<g id="edge12" class="edge">
<title>Node2&#45;&gt;Node12</title>
<path fill="none" stroke="#63b8ff" d="M487.23,-87.43C484.69,-85.93 482.25,-84.3 480,-82.5 457.17,-64.27 467.35,-45.06 444,-27.5 439.5,-24.11 434.35,-21.36 429.03,-19.12"/>
<polygon fill="#63b8ff" stroke="#63b8ff" points="485.7,-90.57 496.21,-91.95 488.86,-84.32 485.7,-90.57"/>
</g>
<!-- Node4 -->
<g id="node4" class="node">
<title>Node4</title>
<g id="a_node4"><a xlink:href="namespacesharp.html#a2e6b7cd4a3594a8f2c2050b0e4784cce" target="_top" xlink:title="Computes the Effective Inflow Layer for a given atmospheric sounding.">
<polygon fill="white" stroke="#666666" points="289,-225.5 162,-225.5 162,-195.5 289,-195.5 289,-225.5"/>
<text text-anchor="start" x="170" y="-213.5" font-family="Helvetica,sans-Serif" font-size="10.00">sharp::effective_inflow</text>
<text text-anchor="middle" x="225.5" y="-202.5" font-family="Helvetica,sans-Serif" font-size="10.00">_layer</text>
</a>
</g>
</g>
<!-- Node3&#45;&gt;Node4 -->
<g id="edge3" class="edge">
<title>Node3&#45;&gt;Node4</title>
<path fill="none" stroke="#63b8ff" d="M325.03,-192.3C313.35,-194.46 301.02,-196.73 289.2,-198.92"/>
<polygon fill="#63b8ff" stroke="#63b8ff" points="325.92,-195.7 335.11,-190.44 324.64,-188.81 325.92,-195.7"/>
</g>
<!-- Node6 -->
<g id="node6" class="node">
<title>Node6</title>
<g id="a_node6"><a xlink:href="structsharp_1_1Parcel.html#aa258d27992d22d8b80cb221e6e2a6c19" target="_top" xlink:title="Construct and return a most&#45;unstable Parcel.">
<polygon fill="white" stroke="#666666" points="280.5,-177.5 170.5,-177.5 170.5,-147.5 280.5,-147.5 280.5,-177.5"/>
<text text-anchor="start" x="178.5" y="-165.5" font-family="Helvetica,sans-Serif" font-size="10.00">sharp::Parcel::most</text>
<text text-anchor="middle" x="225.5" y="-154.5" font-family="Helvetica,sans-Serif" font-size="10.00">_unstable_parcel</text>
</a>
</g>
</g>
<!-- Node3&#45;&gt;Node6 -->
<g id="edge5" class="edge">
<title>Node3&#45;&gt;Node6</title>
<path fill="none" stroke="#63b8ff" d="M324.8,-174.4C310.36,-172.65 294.97,-170.79 280.75,-169.07"/>
<polygon fill="#63b8ff" stroke="#63b8ff" points="324.77,-177.92 335.11,-175.64 325.61,-170.97 324.77,-177.92"/>
</g>
<!-- Node5 -->
<g id="node5" class="node">
<title>Node5</title>
<g id="a_node5"><a xlink:href="convective__wrap_8cpp.html#af214bab6c6ba14dc06fe7df4f6abcdf8" target="_top" xlink:title=" ">
<polygon fill="white" stroke="#666666" points="126,-225.5 0,-225.5 0,-195.5 126,-195.5 126,-225.5"/>
<text text-anchor="start" x="8" y="-213.5" font-family="Helvetica,sans-Serif" font-size="10.00">sharp_effective_inflow</text>
<text text-anchor="middle" x="63" y="-202.5" font-family="Helvetica,sans-Serif" font-size="10.00">_layer</text>
</a>
</g>
</g>
<!-- Node4&#45;&gt;Node5 -->
<g id="edge4" class="edge">
<title>Node4&#45;&gt;Node5</title>
<path fill="none" stroke="#63b8ff" d="M151.93,-210.5C143.3,-210.5 134.55,-210.5 126.08,-210.5"/>
<polygon fill="#63b8ff" stroke="#63b8ff" points="151.99,-214 161.99,-210.5 151.99,-207 151.99,-214"/>
</g>
<!-- Node9 -->
<g id="node9" class="node">
<title>Node9</title>
<g id="a_node9"><a xlink:href="thermo__wrap_8cpp.html#adfde578d6548e8bbf3d24159d2e6f0bc" target="_top" xlink:title=" ">
<polygon fill="white" stroke="#666666" points="285,-111 166,-111 166,-92 285,-92 285,-111"/>
<text text-anchor="middle" x="225.5" y="-99" font-family="Helvetica,sans-Serif" font-size="10.00">sharp_theta_wetbulb</text>
</a>
</g>
</g>
<!-- Node8&#45;&gt;Node9 -->
<g id="edge8" class="edge">
<title>Node8&#45;&gt;Node9</title>
<path fill="none" stroke="#63b8ff" d="M314.51,-101.5C304.74,-101.5 294.77,-101.5 285.22,-101.5"/>
<polygon fill="#63b8ff" stroke="#63b8ff" points="314.59,-105 324.59,-101.5 314.59,-98 314.59,-105"/>
</g>
<!-- Node10&#45;&gt;Node10 -->
<g id="edge11" class="edge">
<title>Node10&#45;&gt;Node10</title>
<path fill="none" stroke="#63b8ff" d="M411.66,-65.19C410.18,-70.2 401.12,-74 384.5,-74 358.55,-74 351.05,-64.73 362,-56.08"/>
<polygon fill="#63b8ff" stroke="#63b8ff" points="414.67,-63.39 407,-56.08 408.44,-66.58 414.67,-63.39"/>
</g>
<!-- Node11 -->
<g id="node11" class="node">
<title>Node11</title>
<g id="a_node11"><a xlink:href="thermo__wrap_8cpp.html#a6fa159149e40e0b462647cd423be313f" target="_top" xlink:title=" ">
<polygon fill="white" stroke="#666666" points="265.5,-56 185.5,-56 185.5,-37 265.5,-37 265.5,-56"/>
<text text-anchor="middle" x="225.5" y="-44" font-family="Helvetica,sans-Serif" font-size="10.00">sharp_thetae</text>
</a>
</g>
</g>
<!-- Node10&#45;&gt;Node11 -->
<g id="edge10" class="edge">
<title>Node10&#45;&gt;Node11</title>
<path fill="none" stroke="#63b8ff" d="M333.72,-46.5C311.69,-46.5 286.18,-46.5 265.56,-46.5"/>
<polygon fill="#63b8ff" stroke="#63b8ff" points="333.88,-50 343.88,-46.5 333.88,-43 333.88,-50"/>
</g>
<!-- Node13 -->
<g id="node13" class="node">
<title>Node13</title>
<g id="a_node13"><a xlink:href="thermo__wrap_8cpp.html#a3d62d7747127fc25886aed2e9db56cae" target="_top" xlink:title=" ">
<polygon fill="white" stroke="#666666" points="269.5,-19 181.5,-19 181.5,0 269.5,0 269.5,-19"/>
<text text-anchor="middle" x="225.5" y="-7" font-family="Helvetica,sans-Serif" font-size="10.00">sharp_wetbulb</text>
</a>
</g>
</g>
<!-- Node12&#45;&gt;Node13 -->
<g id="edge13" class="edge">
<title>Node12&#45;&gt;Node13</title>
<path fill="none" stroke="#63b8ff" d="M329.76,-9.5C310.17,-9.5 288.29,-9.5 269.73,-9.5"/>
<polygon fill="#63b8ff" stroke="#63b8ff" points="329.77,-13 339.77,-9.5 329.77,-6 329.77,-13"/>
</g>
</g>
</svg>
