<?xml version="1.0" encoding="UTF-8" standalone="no"?>
<!DOCTYPE svg PUBLIC "-//W3C//DTD SVG 1.1//EN"
 "http://www.w3.org/Graphics/SVG/1.1/DTD/svg11.dtd">
<!-- Generated by graphviz version 2.43.0 (0)
 -->
<!-- Title: sharp::_solve_cm1 Pages: 1 -->
<svg width="441pt" height="64pt"
 viewBox="0.00 0.00 441.00 64.00" xmlns="http://www.w3.org/2000/svg" xmlns:xlink="http://www.w3.org/1999/xlink">
<g id="graph0" class="graph" transform="scale(1 1) rotate(0) translate(4 60)">
<title>sharp::_solve_cm1</title>
<!-- Node1 -->
<g id="node1" class="node">
<title>Node1</title>
<g id="a_node1"><a xlink:title=" ">
<polygon fill="#999999" stroke="#666666" points="107,-37 0,-37 0,-18 107,-18 107,-37"/>
<text text-anchor="middle" x="53.5" y="-25" font-family="Helvetica,sans-Serif" font-size="10.00">sharp::_solve_cm1</text>
</a>
</g>
</g>
<!-- Node2 -->
<g id="node2" class="node">
<title>Node2</title>
<g id="a_node2"><a xlink:href="namespacesharp.html#ac38870166f07ac30aadbc46b81340cc4" target="_top" xlink:title="Compute the water vapor mixing ratio from specific humidity.">
<polygon fill="white" stroke="#666666" points="243.5,-56 152.5,-56 152.5,-37 243.5,-37 243.5,-56"/>
<text text-anchor="middle" x="198" y="-44" font-family="Helvetica,sans-Serif" font-size="10.00">sharp::mixratio</text>
</a>
</g>
</g>
<!-- Node1&#45;&gt;Node2 -->
<g id="edge1" class="edge">
<title>Node1&#45;&gt;Node2</title>
<path fill="none" stroke="#63b8ff" d="M107.16,-34.52C118.45,-36.03 130.41,-37.62 141.79,-39.14"/>
<polygon fill="#63b8ff" stroke="#63b8ff" points="141.67,-42.65 152.05,-40.51 142.6,-35.72 141.67,-42.65"/>
</g>
<!-- Node3 -->
<g id="node3" class="node">
<title>Node3</title>
<g id="a_node3"><a xlink:href="namespacesharp.html#a0ebcad18ef9939ff56f23d49c35dd04c" target="_top" xlink:title="Compute the ice water mixing ratio.">
<polygon fill="white" stroke="#666666" points="253,-19 143,-19 143,0 253,0 253,-19"/>
<text text-anchor="middle" x="198" y="-7" font-family="Helvetica,sans-Serif" font-size="10.00">sharp::mixratio_ice</text>
</a>
</g>
</g>
<!-- Node1&#45;&gt;Node3 -->
<g id="edge2" class="edge">
<title>Node1&#45;&gt;Node3</title>
<path fill="none" stroke="#63b8ff" d="M107.16,-20.85C115.48,-19.8 124.16,-18.7 132.71,-17.62"/>
<polygon fill="#63b8ff" stroke="#63b8ff" points="133.17,-21.09 142.65,-16.37 132.29,-14.15 133.17,-21.09"/>
</g>
<!-- Node4 -->
<g id="node4" class="node">
<title>Node4</title>
<g id="a_node4"><a xlink:href="namespacesharp.html#ad9be01979b547fe6827968eafcf72929" target="_top" xlink:title="Compute the vapor pressure over ice.">
<polygon fill="white" stroke="#666666" points="433,-19 289,-19 289,0 433,0 433,-19"/>
<text text-anchor="middle" x="361" y="-7" font-family="Helvetica,sans-Serif" font-size="10.00">sharp::vapor_pressure_ice</text>
</a>
</g>
</g>
<!-- Node3&#45;&gt;Node4 -->
<g id="edge3" class="edge">
<title>Node3&#45;&gt;Node4</title>
<path fill="none" stroke="#63b8ff" d="M253.06,-9.5C261.33,-9.5 270.02,-9.5 278.73,-9.5"/>
<polygon fill="#63b8ff" stroke="#63b8ff" points="278.93,-13 288.93,-9.5 278.93,-6 278.93,-13"/>
</g>
</g>
</svg>
