<?xml version="1.0" encoding="UTF-8" standalone="no"?>
<!DOCTYPE svg PUBLIC "-//W3C//DTD SVG 1.1//EN"
 "http://www.w3.org/Graphics/SVG/1.1/DTD/svg11.dtd">
<!-- Generated by graphviz version 2.43.0 (0)
 -->
<!-- Title: sharp::layer_minmax Pages: 1 -->
<svg width="446pt" height="138pt"
 viewBox="0.00 0.00 446.00 138.00" xmlns="http://www.w3.org/2000/svg" xmlns:xlink="http://www.w3.org/1999/xlink">
<g id="graph0" class="graph" transform="scale(1 1) rotate(0) translate(4 134)">
<title>sharp::layer_minmax</title>
<!-- Node1 -->
<g id="node1" class="node">
<title>Node1</title>
<g id="a_node1"><a xlink:title="Template for min/max value over sharp::PressureLayer or sharp::HeightLayer.">
<polygon fill="#999999" stroke="#666666" points="438,-74 318,-74 318,-55 438,-55 438,-74"/>
<text text-anchor="middle" x="378" y="-62" font-family="Helvetica,sans-Serif" font-size="10.00">sharp::layer_minmax</text>
</a>
</g>
</g>
<!-- Node2 -->
<g id="node2" class="node">
<title>Node2</title>
<g id="a_node2"><a xlink:href="namespacesharp.html#a6170e3f412ab95b3ba8d9a93ae55dc67" target="_top" xlink:title="Returns the maximim value in the given layer.">
<polygon fill="white" stroke="#666666" points="282,-93 181,-93 181,-74 282,-74 282,-93"/>
<text text-anchor="middle" x="231.5" y="-81" font-family="Helvetica,sans-Serif" font-size="10.00">sharp::layer_max</text>
</a>
</g>
</g>
<!-- Node1&#45;&gt;Node2 -->
<g id="edge1" class="edge">
<title>Node1&#45;&gt;Node2</title>
<path fill="none" stroke="#63b8ff" d="M307.73,-73.61C299.09,-74.74 290.4,-75.89 282.15,-76.97"/>
<polygon fill="#63b8ff" stroke="#63b8ff" points="308.35,-77.06 317.81,-72.28 307.44,-70.12 308.35,-77.06"/>
</g>
<!-- Node5 -->
<g id="node5" class="node">
<title>Node5</title>
<g id="a_node5"><a xlink:href="namespacesharp.html#a01a9880c937f63e551893797253da4f7" target="_top" xlink:title="Returns the minimum value in the given layer.">
<polygon fill="white" stroke="#666666" points="280.5,-56 182.5,-56 182.5,-37 280.5,-37 280.5,-56"/>
<text text-anchor="middle" x="231.5" y="-44" font-family="Helvetica,sans-Serif" font-size="10.00">sharp::layer_min</text>
</a>
</g>
</g>
<!-- Node1&#45;&gt;Node5 -->
<g id="edge4" class="edge">
<title>Node1&#45;&gt;Node5</title>
<path fill="none" stroke="#63b8ff" d="M307.62,-55.86C298.55,-54.73 289.41,-53.59 280.79,-52.52"/>
<polygon fill="#63b8ff" stroke="#63b8ff" points="307.45,-59.36 317.81,-57.13 308.32,-52.42 307.45,-59.36"/>
</g>
<!-- Node3 -->
<g id="node3" class="node">
<title>Node3</title>
<g id="a_node3"><a xlink:href="layer__wrap_8cpp.html#aff049d2f08d0ca532b51ee39dfeff547" target="_top" xlink:title=" ">
<polygon fill="white" stroke="#666666" points="140,-130 5,-130 5,-111 140,-111 140,-130"/>
<text text-anchor="middle" x="72.5" y="-118" font-family="Helvetica,sans-Serif" font-size="10.00">sharp_HeightLayer_max</text>
</a>
</g>
</g>
<!-- Node2&#45;&gt;Node3 -->
<g id="edge2" class="edge">
<title>Node2&#45;&gt;Node3</title>
<path fill="none" stroke="#63b8ff" d="M180.19,-95.36C158.82,-100.39 134.24,-106.18 114.07,-110.94"/>
<polygon fill="#63b8ff" stroke="#63b8ff" points="181.14,-98.73 190.07,-93.03 179.53,-91.92 181.14,-98.73"/>
</g>
<!-- Node4 -->
<g id="node4" class="node">
<title>Node4</title>
<g id="a_node4"><a xlink:href="layer__wrap_8cpp.html#af26d1ab7a5b701ce5e076ff2a0ef3955" target="_top" xlink:title=" ">
<polygon fill="white" stroke="#666666" points="145,-93 0,-93 0,-74 145,-74 145,-93"/>
<text text-anchor="middle" x="72.5" y="-81" font-family="Helvetica,sans-Serif" font-size="10.00">sharp_PressureLayer_max</text>
</a>
</g>
</g>
<!-- Node2&#45;&gt;Node4 -->
<g id="edge3" class="edge">
<title>Node2&#45;&gt;Node4</title>
<path fill="none" stroke="#63b8ff" d="M170.8,-83.5C162.44,-83.5 153.78,-83.5 145.22,-83.5"/>
<polygon fill="#63b8ff" stroke="#63b8ff" points="170.82,-87 180.82,-83.5 170.82,-80 170.82,-87"/>
</g>
<!-- Node6 -->
<g id="node6" class="node">
<title>Node6</title>
<g id="a_node6"><a xlink:href="layer__wrap_8cpp.html#a1b669cfe5d14a85dc16aa2ec7b19f914" target="_top" xlink:title=" ">
<polygon fill="white" stroke="#666666" points="138.5,-56 6.5,-56 6.5,-37 138.5,-37 138.5,-56"/>
<text text-anchor="middle" x="72.5" y="-44" font-family="Helvetica,sans-Serif" font-size="10.00">sharp_HeightLayer_min</text>
</a>
</g>
</g>
<!-- Node5&#45;&gt;Node6 -->
<g id="edge5" class="edge">
<title>Node5&#45;&gt;Node6</title>
<path fill="none" stroke="#63b8ff" d="M171.94,-46.5C161.12,-46.5 149.77,-46.5 138.77,-46.5"/>
<polygon fill="#63b8ff" stroke="#63b8ff" points="172.11,-50 182.11,-46.5 172.11,-43 172.11,-50"/>
</g>
<!-- Node7 -->
<g id="node7" class="node">
<title>Node7</title>
<g id="a_node7"><a xlink:href="layer__wrap_8cpp.html#aa9e2591b56d47f5caa08217690927b49" target="_top" xlink:title=" ">
<polygon fill="white" stroke="#666666" points="143.5,-19 1.5,-19 1.5,0 143.5,0 143.5,-19"/>
<text text-anchor="middle" x="72.5" y="-7" font-family="Helvetica,sans-Serif" font-size="10.00">sharp_PressureLayer_min</text>
</a>
</g>
</g>
<!-- Node5&#45;&gt;Node7 -->
<g id="edge6" class="edge">
<title>Node5&#45;&gt;Node7</title>
<path fill="none" stroke="#63b8ff" d="M180.19,-34.64C158.82,-29.61 134.24,-23.82 114.07,-19.06"/>
<polygon fill="#63b8ff" stroke="#63b8ff" points="179.53,-38.08 190.07,-36.97 181.14,-31.27 179.53,-38.08"/>
</g>
</g>
</svg>
