<?xml version="1.0" encoding="UTF-8" standalone="no"?>
<!DOCTYPE svg PUBLIC "-//W3C//DTD SVG 1.1//EN"
 "http://www.w3.org/Graphics/SVG/1.1/DTD/svg11.dtd">
<!-- Generated by graphviz version 2.43.0 (0)
 -->
<!-- Title: sharp::mixratio Pages: 1 -->
<svg width="612pt" height="270pt"
 viewBox="0.00 0.00 612.00 269.50" xmlns="http://www.w3.org/2000/svg" xmlns:xlink="http://www.w3.org/1999/xlink">
<g id="graph0" class="graph" transform="scale(1 1) rotate(0) translate(4 265.5)">
<title>sharp::mixratio</title>
<!-- Node1 -->
<g id="node1" class="node">
<title>Node1</title>
<g id="a_node1"><a xlink:title="Compute the water vapor mixing ratio from specific humidity.">
<polygon fill="#999999" stroke="#666666" points="604,-152 513,-152 513,-133 604,-133 604,-152"/>
<text text-anchor="middle" x="558.5" y="-140" font-family="Helvetica,sans-Serif" font-size="10.00">sharp::mixratio</text>
</a>
</g>
</g>
<!-- Node2 -->
<g id="node2" class="node">
<title>Node2</title>
<g id="a_node2"><a xlink:href="namespacesharp.html#a7494c22424745a8847092b64195fb9ae" target="_top" xlink:title=" ">
<polygon fill="white" stroke="#666666" points="453,-256 346,-256 346,-237 453,-237 453,-256"/>
<text text-anchor="middle" x="399.5" y="-244" font-family="Helvetica,sans-Serif" font-size="10.00">sharp::_solve_cm1</text>
</a>
</g>
</g>
<!-- Node1&#45;&gt;Node2 -->
<g id="edge1" class="edge">
<title>Node1&#45;&gt;Node2</title>
<path fill="none" stroke="#63b8ff" d="M545.48,-160.7C531.43,-180.47 506.34,-211.52 477,-228.5 469.68,-232.74 461.42,-235.98 453.1,-238.46"/>
<polygon fill="#63b8ff" stroke="#63b8ff" points="548.51,-162.47 551.29,-152.25 542.74,-158.5 548.51,-162.47"/>
</g>
<!-- Node5 -->
<g id="node5" class="node">
<title>Node5</title>
<g id="a_node5"><a xlink:href="namespacesharp.html#a72bbdc4cfe7895dd51981902ac9fc822" target="_top" xlink:title="Computes Entrainment CAPE using a previously lifted parcel.">
<polygon fill="white" stroke="#666666" points="468.5,-219 330.5,-219 330.5,-200 468.5,-200 468.5,-219"/>
<text text-anchor="middle" x="399.5" y="-207" font-family="Helvetica,sans-Serif" font-size="10.00">sharp::entrainment_cape</text>
</a>
</g>
</g>
<!-- Node1&#45;&gt;Node5 -->
<g id="edge4" class="edge">
<title>Node1&#45;&gt;Node5</title>
<path fill="none" stroke="#63b8ff" d="M535.73,-157.88C520.04,-168.36 498,-181.85 477,-190.5 467.89,-194.25 457.85,-197.4 448.13,-199.98"/>
<polygon fill="#63b8ff" stroke="#63b8ff" points="537.9,-160.64 544.19,-152.12 533.95,-154.86 537.9,-160.64"/>
</g>
<!-- Node6 -->
<g id="node6" class="node">
<title>Node6</title>
<g id="a_node6"><a xlink:href="structsharp_1_1Parcel.html#a9523de2b8b4c28ca49fba3013f94cb06" target="_top" xlink:title="Lifts a sharp::Parcel to compute its virtual temperature.">
<polygon fill="white" stroke="#666666" points="448.5,-181.5 350.5,-181.5 350.5,-151.5 448.5,-151.5 448.5,-181.5"/>
<text text-anchor="start" x="358.5" y="-169.5" font-family="Helvetica,sans-Serif" font-size="10.00">sharp::Parcel::lift</text>
<text text-anchor="middle" x="399.5" y="-158.5" font-family="Helvetica,sans-Serif" font-size="10.00">_parcel</text>
</a>
</g>
</g>
<!-- Node1&#45;&gt;Node6 -->
<g id="edge5" class="edge">
<title>Node1&#45;&gt;Node6</title>
<path fill="none" stroke="#63b8ff" d="M502.8,-150.86C485.21,-153.55 465.85,-156.51 448.76,-159.12"/>
<polygon fill="#63b8ff" stroke="#63b8ff" points="503.57,-154.28 512.93,-149.31 502.52,-147.36 503.57,-154.28"/>
</g>
<!-- Node9 -->
<g id="node9" class="node">
<title>Node9</title>
<g id="a_node9"><a xlink:href="structsharp_1_1lifter__wobus.html#a82be5bdfdff54890488bbc1461b5b05e" target="_top" xlink:title="Computes the virtual temperature of the parcel.">
<polygon fill="white" stroke="#666666" points="477,-133.5 322,-133.5 322,-103.5 477,-103.5 477,-133.5"/>
<text text-anchor="start" x="330" y="-121.5" font-family="Helvetica,sans-Serif" font-size="10.00">sharp::lifter_wobus</text>
<text text-anchor="middle" x="399.5" y="-110.5" font-family="Helvetica,sans-Serif" font-size="10.00">::parcel_virtual_temperature</text>
</a>
</g>
</g>
<!-- Node1&#45;&gt;Node9 -->
<g id="edge8" class="edge">
<title>Node1&#45;&gt;Node9</title>
<path fill="none" stroke="#63b8ff" d="M503.01,-134.17C494.68,-132.9 485.96,-131.56 477.27,-130.24"/>
<polygon fill="#63b8ff" stroke="#63b8ff" points="502.52,-137.64 512.93,-135.69 503.57,-130.72 502.52,-137.64"/>
</g>
<!-- Node10 -->
<g id="node10" class="node">
<title>Node10</title>
<g id="a_node10"><a xlink:href="structsharp_1_1lifter__cm1.html#a4750e359411eefdfb6d4970052637750" target="_top" xlink:title="perform the necessary setup for parcel ascent.">
<polygon fill="white" stroke="#666666" points="451.5,-85.5 347.5,-85.5 347.5,-55.5 451.5,-55.5 451.5,-85.5"/>
<text text-anchor="start" x="355.5" y="-73.5" font-family="Helvetica,sans-Serif" font-size="10.00">sharp::lifter_cm1::</text>
<text text-anchor="middle" x="399.5" y="-62.5" font-family="Helvetica,sans-Serif" font-size="10.00">setup</text>
</a>
</g>
</g>
<!-- Node1&#45;&gt;Node10 -->
<g id="edge9" class="edge">
<title>Node1&#45;&gt;Node10</title>
<path fill="none" stroke="#63b8ff" d="M535.28,-127.32C519.53,-117.05 497.61,-103.72 477,-94.5 469,-90.92 460.3,-87.64 451.73,-84.75"/>
<polygon fill="#63b8ff" stroke="#63b8ff" points="533.52,-130.36 543.79,-132.97 537.39,-124.52 533.52,-130.36"/>
</g>
<!-- Node11 -->
<g id="node11" class="node">
<title>Node11</title>
<g id="a_node11"><a xlink:href="namespacesharp.html#ab06f16aa1caac3136e863db8cd61e2e9" target="_top" xlink:title="Compute the equivalent potential temperature.">
<polygon fill="white" stroke="#666666" points="440,-19 359,-19 359,0 440,0 440,-19"/>
<text text-anchor="middle" x="399.5" y="-7" font-family="Helvetica,sans-Serif" font-size="10.00">sharp::thetae</text>
</a>
</g>
</g>
<!-- Node1&#45;&gt;Node11 -->
<g id="edge10" class="edge">
<title>Node1&#45;&gt;Node11</title>
<path fill="none" stroke="#63b8ff" d="M545.78,-124.32C531.56,-103.38 505.87,-68.99 477,-46.5 461.87,-34.71 442.38,-25.36 426.86,-19"/>
<polygon fill="#63b8ff" stroke="#63b8ff" points="543.03,-126.5 551.48,-132.9 548.86,-122.63 543.03,-126.5"/>
</g>
<!-- Node3 -->
<g id="node3" class="node">
<title>Node3</title>
<g id="a_node3"><a xlink:href="namespacesharp.html#aa258841692c25171d3f3b2e8b1f52079" target="_top" xlink:title="Compute the temperature of a parcel lifted moist adiabatically to a new level.">
<polygon fill="white" stroke="#666666" points="286,-256 140,-256 140,-237 286,-237 286,-256"/>
<text text-anchor="middle" x="213" y="-244" font-family="Helvetica,sans-Serif" font-size="10.00">sharp::moist_adiabat_cm1</text>
</a>
</g>
</g>
<!-- Node2&#45;&gt;Node3 -->
<g id="edge2" class="edge">
<title>Node2&#45;&gt;Node3</title>
<path fill="none" stroke="#63b8ff" d="M335.41,-246.5C319.55,-246.5 302.4,-246.5 286.13,-246.5"/>
<polygon fill="#63b8ff" stroke="#63b8ff" points="335.63,-250 345.63,-246.5 335.63,-243 335.63,-250"/>
</g>
<!-- Node4 -->
<g id="node4" class="node">
<title>Node4</title>
<g id="a_node4"><a xlink:href="structsharp_1_1lifter__cm1.html#a2eeb5b118ef40e873c09ac9b3635f7b9" target="_top" xlink:title="Overloads operator() to call sharp::moist_adiabat_cm1.">
<polygon fill="white" stroke="#666666" points="104,-261.5 0,-261.5 0,-231.5 104,-231.5 104,-261.5"/>
<text text-anchor="start" x="8" y="-249.5" font-family="Helvetica,sans-Serif" font-size="10.00">sharp::lifter_cm1::</text>
<text text-anchor="middle" x="52" y="-238.5" font-family="Helvetica,sans-Serif" font-size="10.00">operator()</text>
</a>
</g>
</g>
<!-- Node3&#45;&gt;Node4 -->
<g id="edge3" class="edge">
<title>Node3&#45;&gt;Node4</title>
<path fill="none" stroke="#63b8ff" d="M129.79,-246.5C121.14,-246.5 112.53,-246.5 104.38,-246.5"/>
<polygon fill="#63b8ff" stroke="#63b8ff" points="129.94,-250 139.94,-246.5 129.94,-243 129.94,-250"/>
</g>
<!-- Node7 -->
<g id="node7" class="node">
<title>Node7</title>
<g id="a_node7"><a xlink:href="namespacesharp.html#a2e6b7cd4a3594a8f2c2050b0e4784cce" target="_top" xlink:title="Computes the Effective Inflow Layer for a given atmospheric sounding.">
<polygon fill="white" stroke="#666666" points="276.5,-199.5 149.5,-199.5 149.5,-169.5 276.5,-169.5 276.5,-199.5"/>
<text text-anchor="start" x="157.5" y="-187.5" font-family="Helvetica,sans-Serif" font-size="10.00">sharp::effective_inflow</text>
<text text-anchor="middle" x="213" y="-176.5" font-family="Helvetica,sans-Serif" font-size="10.00">_layer</text>
</a>
</g>
</g>
<!-- Node6&#45;&gt;Node7 -->
<g id="edge6" class="edge">
<title>Node6&#45;&gt;Node7</title>
<path fill="none" stroke="#63b8ff" d="M340.04,-172.2C319.89,-174.17 297.23,-176.38 276.74,-178.38"/>
<polygon fill="#63b8ff" stroke="#63b8ff" points="340.41,-175.68 350.02,-171.23 339.73,-168.72 340.41,-175.68"/>
</g>
<!-- Node8 -->
<g id="node8" class="node">
<title>Node8</title>
<g id="a_node8"><a xlink:href="structsharp_1_1Parcel.html#aa258d27992d22d8b80cb221e6e2a6c19" target="_top" xlink:title="Construct and return a most&#45;unstable Parcel.">
<polygon fill="white" stroke="#666666" points="268,-151.5 158,-151.5 158,-121.5 268,-121.5 268,-151.5"/>
<text text-anchor="start" x="166" y="-139.5" font-family="Helvetica,sans-Serif" font-size="10.00">sharp::Parcel::most</text>
<text text-anchor="middle" x="213" y="-128.5" font-family="Helvetica,sans-Serif" font-size="10.00">_unstable_parcel</text>
</a>
</g>
</g>
<!-- Node6&#45;&gt;Node8 -->
<g id="edge7" class="edge">
<title>Node6&#45;&gt;Node8</title>
<path fill="none" stroke="#63b8ff" d="M340.02,-156.99C316.95,-153.24 290.61,-148.96 268,-145.28"/>
<polygon fill="#63b8ff" stroke="#63b8ff" points="339.59,-160.47 350.02,-158.62 340.72,-153.56 339.59,-160.47"/>
</g>
<!-- Node11&#45;&gt;Node11 -->
<g id="edge11" class="edge">
<title>Node11&#45;&gt;Node11</title>
<path fill="none" stroke="#63b8ff" d="M428.99,-27.82C427.76,-33.01 417.93,-37 399.5,-37 371.42,-37 363.3,-27.73 375.15,-19.08"/>
<polygon fill="#63b8ff" stroke="#63b8ff" points="431.94,-25.93 423.85,-19.08 425.91,-29.48 431.94,-25.93"/>
</g>
</g>
</svg>
