<?xml version="1.0" encoding="UTF-8" standalone="no"?>
<!DOCTYPE svg PUBLIC "-//W3C//DTD SVG 1.1//EN"
 "http://www.w3.org/Graphics/SVG/1.1/DTD/svg11.dtd">
<!-- Generated by graphviz version 2.43.0 (0)
 -->
<!-- Title: sharp::lower_bound Pages: 1 -->
<svg width="1013pt" height="540pt"
 viewBox="0.00 0.00 1013.00 540.25" xmlns="http://www.w3.org/2000/svg" xmlns:xlink="http://www.w3.org/1999/xlink">
<g id="graph0" class="graph" transform="scale(1 1) rotate(0) translate(4 536.25)">
<title>sharp::lower_bound</title>
<!-- Node1 -->
<g id="node1" class="node">
<title>Node1</title>
<g id="a_node1"><a xlink:title="Finds the index of the lower bound that does not satisfy element &lt; value.">
<polygon fill="#999999" stroke="#666666" points="1005,-264 893,-264 893,-245 1005,-245 1005,-264"/>
<text text-anchor="middle" x="949" y="-252" font-family="Helvetica,sans-Serif" font-size="10.00">sharp::lower_bound</text>
</a>
</g>
</g>
<!-- Node2 -->
<g id="node2" class="node">
<title>Node2</title>
<g id="a_node2"><a xlink:href="namespacesharp.html#ac93f477dfa774c966b5da7521bd43ee6" target="_top" xlink:title="Returns the array indices corresponding to the given layer.">
<polygon fill="white" stroke="#666666" points="857,-264 729,-264 729,-245 857,-245 857,-264"/>
<text text-anchor="middle" x="793" y="-252" font-family="Helvetica,sans-Serif" font-size="10.00">sharp::get_layer_index</text>
</a>
</g>
</g>
<!-- Node1&#45;&gt;Node2 -->
<g id="edge1" class="edge">
<title>Node1&#45;&gt;Node2</title>
<path fill="none" stroke="#63b8ff" d="M882.66,-254.5C874.21,-254.5 865.57,-254.5 857.16,-254.5"/>
<polygon fill="#63b8ff" stroke="#63b8ff" points="882.84,-258 892.84,-254.5 882.84,-251 882.84,-258"/>
</g>
<!-- Node3 -->
<g id="node3" class="node">
<title>Node3</title>
<g id="a_node3"><a xlink:href="namespacesharp.html#a72bbdc4cfe7895dd51981902ac9fc822" target="_top" xlink:title="Computes Entrainment CAPE using a previously lifted parcel.">
<polygon fill="white" stroke="#666666" points="317.5,-530 179.5,-530 179.5,-511 317.5,-511 317.5,-530"/>
<text text-anchor="middle" x="248.5" y="-518" font-family="Helvetica,sans-Serif" font-size="10.00">sharp::entrainment_cape</text>
</a>
</g>
</g>
<!-- Node2&#45;&gt;Node3 -->
<g id="edge2" class="edge">
<title>Node2&#45;&gt;Node3</title>
<path fill="none" stroke="#63b8ff" d="M786.61,-274.05C775.26,-311.97 745.49,-396.2 693,-446.5 583.03,-551.89 512.24,-532.32 360,-527.5 346.26,-527.07 331.58,-526.33 317.55,-525.49"/>
<polygon fill="#63b8ff" stroke="#63b8ff" points="790.03,-274.83 789.44,-264.25 783.3,-272.89 790.03,-274.83"/>
</g>
<!-- Node5 -->
<g id="node5" class="node">
<title>Node5</title>
<g id="a_node5"><a xlink:href="structsharp_1_1Parcel.html#a8a311e09b1d46a829212da94cf181537" target="_top" xlink:title="Find the LFC and EL that bounds the layer with the maximum CAPE.">
<polygon fill="white" stroke="#666666" points="675,-372.5 572,-372.5 572,-342.5 675,-342.5 675,-372.5"/>
<text text-anchor="start" x="580" y="-360.5" font-family="Helvetica,sans-Serif" font-size="10.00">sharp::Parcel::find</text>
<text text-anchor="middle" x="623.5" y="-349.5" font-family="Helvetica,sans-Serif" font-size="10.00">_lfc_el</text>
</a>
</g>
</g>
<!-- Node2&#45;&gt;Node5 -->
<g id="edge4" class="edge">
<title>Node2&#45;&gt;Node5</title>
<path fill="none" stroke="#63b8ff" d="M772.94,-270.56C753.63,-286.34 722.47,-310.46 693,-327.5 683.56,-332.96 672.94,-338.06 662.93,-342.46"/>
<polygon fill="#63b8ff" stroke="#63b8ff" points="775.22,-273.22 780.69,-264.15 770.76,-267.82 775.22,-273.22"/>
</g>
<!-- Node9 -->
<g id="node9" class="node">
<title>Node9</title>
<g id="a_node9"><a xlink:href="structsharp_1_1Parcel.html#aa258d27992d22d8b80cb221e6e2a6c19" target="_top" xlink:title="Construct and return a most&#45;unstable Parcel.">
<polygon fill="white" stroke="#666666" points="303.5,-304.5 193.5,-304.5 193.5,-274.5 303.5,-274.5 303.5,-304.5"/>
<text text-anchor="start" x="201.5" y="-292.5" font-family="Helvetica,sans-Serif" font-size="10.00">sharp::Parcel::most</text>
<text text-anchor="middle" x="248.5" y="-281.5" font-family="Helvetica,sans-Serif" font-size="10.00">_unstable_parcel</text>
</a>
</g>
</g>
<!-- Node2&#45;&gt;Node9 -->
<g id="edge35" class="edge">
<title>Node2&#45;&gt;Node9</title>
<path fill="none" stroke="#63b8ff" d="M718.92,-259.22C608.45,-266.34 401.48,-279.7 303.53,-286.01"/>
<polygon fill="#63b8ff" stroke="#63b8ff" points="719.22,-262.7 728.97,-258.57 718.77,-255.72 719.22,-262.7"/>
</g>
<!-- Node10 -->
<g id="node10" class="node">
<title>Node10</title>
<g id="a_node10"><a xlink:href="namespacesharp.html#ac2f381378ac4ec13ad83d2ec92b2abcc" target="_top" xlink:title="Finds the array indices corresponding to the given sharp::PressureLayer.">
<polygon fill="white" stroke="#666666" points="687.5,-245 559.5,-245 559.5,-226 687.5,-226 687.5,-245"/>
<text text-anchor="middle" x="623.5" y="-233" font-family="Helvetica,sans-Serif" font-size="10.00">sharp::get_layer_index</text>
</a>
</g>
</g>
<!-- Node2&#45;&gt;Node10 -->
<g id="edge9" class="edge">
<title>Node2&#45;&gt;Node10</title>
<path fill="none" stroke="#63b8ff" d="M718.48,-246.16C708.2,-244.99 697.71,-243.8 687.64,-242.66"/>
<polygon fill="#63b8ff" stroke="#63b8ff" points="718.34,-249.67 728.68,-247.32 719.13,-242.71 718.34,-249.67"/>
</g>
<!-- Node11 -->
<g id="node11" class="node">
<title>Node11</title>
<g id="a_node11"><a xlink:href="namespacesharp.html#a80858337a63be77bafadbb343d6e4931" target="_top" xlink:title="Computes the Storm Relative Helicity (SRH) over a given layer.">
<polygon fill="white" stroke="#666666" points="666.5,-208 580.5,-208 580.5,-189 666.5,-189 666.5,-208"/>
<text text-anchor="middle" x="623.5" y="-196" font-family="Helvetica,sans-Serif" font-size="10.00">sharp::helicity</text>
</a>
</g>
</g>
<!-- Node2&#45;&gt;Node11 -->
<g id="edge10" class="edge">
<title>Node2&#45;&gt;Node11</title>
<path fill="none" stroke="#63b8ff" d="M758.75,-241.25C739.66,-233.85 715.14,-224.69 693,-217.5 682.79,-214.18 671.61,-210.93 661.29,-208.07"/>
<polygon fill="#63b8ff" stroke="#63b8ff" points="757.61,-244.56 768.2,-244.94 760.16,-238.04 757.61,-244.56"/>
</g>
<!-- Node16 -->
<g id="node16" class="node">
<title>Node16</title>
<g id="a_node16"><a xlink:href="namespacesharp.html#a7acec1642f27591dc988bf9e48b4612d" target="_top" xlink:title="Returns a trapezoidal integration of the given layer.">
<polygon fill="white" stroke="#666666" points="685.5,-437.5 561.5,-437.5 561.5,-407.5 685.5,-407.5 685.5,-437.5"/>
<text text-anchor="start" x="569.5" y="-425.5" font-family="Helvetica,sans-Serif" font-size="10.00">sharp::integrate_layer</text>
<text text-anchor="middle" x="623.5" y="-414.5" font-family="Helvetica,sans-Serif" font-size="10.00">_trapz</text>
</a>
</g>
</g>
<!-- Node2&#45;&gt;Node16 -->
<g id="edge15" class="edge">
<title>Node2&#45;&gt;Node16</title>
<path fill="none" stroke="#63b8ff" d="M780.95,-272.66C764.29,-298.97 730.68,-348.19 693,-381.5 681.68,-391.51 667.58,-400.43 655.12,-407.37"/>
<polygon fill="#63b8ff" stroke="#63b8ff" points="783.98,-274.41 786.29,-264.08 778.03,-270.72 783.98,-274.41"/>
</g>
<!-- Node23 -->
<g id="node23" class="node">
<title>Node23</title>
<g id="a_node23"><a xlink:href="namespacesharp.html#a646b65095b84511b75f6a4a81e545e80" target="_top" xlink:title="Template for min/max value over sharp::PressureLayer or sharp::HeightLayer.">
<polygon fill="white" stroke="#666666" points="683.5,-171 563.5,-171 563.5,-152 683.5,-152 683.5,-171"/>
<text text-anchor="middle" x="623.5" y="-159" font-family="Helvetica,sans-Serif" font-size="10.00">sharp::layer_minmax</text>
</a>
</g>
</g>
<!-- Node2&#45;&gt;Node23 -->
<g id="edge25" class="edge">
<title>Node2&#45;&gt;Node23</title>
<path fill="none" stroke="#63b8ff" d="M774.39,-238.1C755.57,-221.39 724.21,-195.82 693,-180.5 685.36,-176.75 676.86,-173.64 668.52,-171.1"/>
<polygon fill="#63b8ff" stroke="#63b8ff" points="772.11,-240.76 781.88,-244.87 776.81,-235.57 772.11,-240.76"/>
</g>
<!-- Node30 -->
<g id="node30" class="node">
<title>Node30</title>
<g id="a_node30"><a xlink:href="structsharp_1_1Parcel.html#a9523de2b8b4c28ca49fba3013f94cb06" target="_top" xlink:title="Lifts a sharp::Parcel to compute its virtual temperature.">
<polygon fill="white" stroke="#666666" points="488,-331.5 390,-331.5 390,-301.5 488,-301.5 488,-331.5"/>
<text text-anchor="start" x="398" y="-319.5" font-family="Helvetica,sans-Serif" font-size="10.00">sharp::Parcel::lift</text>
<text text-anchor="middle" x="439" y="-308.5" font-family="Helvetica,sans-Serif" font-size="10.00">_parcel</text>
</a>
</g>
</g>
<!-- Node2&#45;&gt;Node30 -->
<g id="edge32" class="edge">
<title>Node2&#45;&gt;Node30</title>
<path fill="none" stroke="#63b8ff" d="M758.6,-267.56C739.63,-274.49 715.29,-282.56 693,-287.5 622.64,-303.08 539.31,-310.58 488.05,-313.97"/>
<polygon fill="#63b8ff" stroke="#63b8ff" points="759.83,-270.84 767.99,-264.07 757.39,-264.28 759.83,-270.84"/>
</g>
<!-- Node31 -->
<g id="node31" class="node">
<title>Node31</title>
<g id="a_node31"><a xlink:href="layer__wrap_8cpp.html#acf8af4f5e6a076c89e360b63fe2eef35" target="_top" xlink:title=" ">
<polygon fill="white" stroke="#666666" points="688,-133.5 559,-133.5 559,-103.5 688,-103.5 688,-133.5"/>
<text text-anchor="start" x="567" y="-121.5" font-family="Helvetica,sans-Serif" font-size="10.00">sharp_get_HeightLayer</text>
<text text-anchor="middle" x="623.5" y="-110.5" font-family="Helvetica,sans-Serif" font-size="10.00">_index</text>
</a>
</g>
</g>
<!-- Node2&#45;&gt;Node31 -->
<g id="edge36" class="edge">
<title>Node2&#45;&gt;Node31</title>
<path fill="none" stroke="#63b8ff" d="M780.19,-236.42C763.47,-212.14 730.7,-169.09 693,-143.5 687.45,-139.73 681.26,-136.45 674.93,-133.62"/>
<polygon fill="#63b8ff" stroke="#63b8ff" points="777.3,-238.39 785.79,-244.73 783.1,-234.48 777.3,-238.39"/>
</g>
<!-- Node32 -->
<g id="node32" class="node">
<title>Node32</title>
<g id="a_node32"><a xlink:href="layer__wrap_8cpp.html#a49613289ae250448f602b6a4332a8ac4" target="_top" xlink:title=" ">
<polygon fill="white" stroke="#666666" points="693,-85.5 554,-85.5 554,-55.5 693,-55.5 693,-85.5"/>
<text text-anchor="start" x="562" y="-73.5" font-family="Helvetica,sans-Serif" font-size="10.00">sharp_get_PressureLayer</text>
<text text-anchor="middle" x="623.5" y="-62.5" font-family="Helvetica,sans-Serif" font-size="10.00">_index</text>
</a>
</g>
</g>
<!-- Node2&#45;&gt;Node32 -->
<g id="edge37" class="edge">
<title>Node2&#45;&gt;Node32</title>
<path fill="none" stroke="#63b8ff" d="M785.01,-235.09C772.02,-201.65 741.02,-133.08 693,-94.5 688.78,-91.11 684.04,-88.18 679.08,-85.65"/>
<polygon fill="#63b8ff" stroke="#63b8ff" points="781.8,-236.5 788.6,-244.63 788.35,-234.03 781.8,-236.5"/>
</g>
<!-- Node4 -->
<g id="node4" class="node">
<title>Node4</title>
<g id="a_node4"><a xlink:href="convective__wrap_8cpp.html#ab0bfb728bbbf3a731c330b61a5c415ad" target="_top" xlink:title=" ">
<polygon fill="white" stroke="#666666" points="137,-530 0,-530 0,-511 137,-511 137,-530"/>
<text text-anchor="middle" x="68.5" y="-518" font-family="Helvetica,sans-Serif" font-size="10.00">sharp_entrainment_cape</text>
</a>
</g>
</g>
<!-- Node3&#45;&gt;Node4 -->
<g id="edge3" class="edge">
<title>Node3&#45;&gt;Node4</title>
<path fill="none" stroke="#63b8ff" d="M169.28,-520.5C158.6,-520.5 147.7,-520.5 137.22,-520.5"/>
<polygon fill="#63b8ff" stroke="#63b8ff" points="169.44,-524 179.44,-520.5 169.44,-517 169.44,-524"/>
</g>
<!-- Node6 -->
<g id="node6" class="node">
<title>Node6</title>
<g id="a_node6"><a xlink:href="structsharp_1_1Parcel.html#a0560bd193b2d2d6bc6b08baa7463fba4" target="_top" xlink:title="Compute CAPE and CINH for a previously lifted sharp::Parcel.">
<polygon fill="white" stroke="#666666" points="506,-369 372,-369 372,-350 506,-350 506,-369"/>
<text text-anchor="middle" x="439" y="-357" font-family="Helvetica,sans-Serif" font-size="10.00">sharp::Parcel::cape_cinh</text>
</a>
</g>
</g>
<!-- Node5&#45;&gt;Node6 -->
<g id="edge5" class="edge">
<title>Node5&#45;&gt;Node6</title>
<path fill="none" stroke="#63b8ff" d="M561.45,-358.17C543.73,-358.36 524.3,-358.58 506.27,-358.77"/>
<polygon fill="#63b8ff" stroke="#63b8ff" points="561.7,-361.67 571.66,-358.06 561.63,-354.67 561.7,-361.67"/>
</g>
<!-- Node7 -->
<g id="node7" class="node">
<title>Node7</title>
<g id="a_node7"><a xlink:href="namespacesharp.html#a2e6b7cd4a3594a8f2c2050b0e4784cce" target="_top" xlink:title="Computes the Effective Inflow Layer for a given atmospheric sounding.">
<polygon fill="white" stroke="#666666" points="312,-352.5 185,-352.5 185,-322.5 312,-322.5 312,-352.5"/>
<text text-anchor="start" x="193" y="-340.5" font-family="Helvetica,sans-Serif" font-size="10.00">sharp::effective_inflow</text>
<text text-anchor="middle" x="248.5" y="-329.5" font-family="Helvetica,sans-Serif" font-size="10.00">_layer</text>
</a>
</g>
</g>
<!-- Node6&#45;&gt;Node7 -->
<g id="edge6" class="edge">
<title>Node6&#45;&gt;Node7</title>
<path fill="none" stroke="#63b8ff" d="M361.66,-350.59C345.18,-348.67 327.94,-346.65 312.05,-344.8"/>
<polygon fill="#63b8ff" stroke="#63b8ff" points="361.47,-354.09 371.81,-351.77 362.28,-347.14 361.47,-354.09"/>
</g>
<!-- Node6&#45;&gt;Node9 -->
<g id="edge8" class="edge">
<title>Node6&#45;&gt;Node9</title>
<path fill="none" stroke="#63b8ff" d="M375.88,-346.83C370.41,-344.98 365.04,-342.88 360,-340.5 341.92,-331.96 341.76,-322.69 324,-313.5 317.6,-310.19 310.66,-307.22 303.68,-304.6"/>
<polygon fill="#63b8ff" stroke="#63b8ff" points="375.21,-350.29 385.8,-349.9 377.28,-343.6 375.21,-350.29"/>
</g>
<!-- Node8 -->
<g id="node8" class="node">
<title>Node8</title>
<g id="a_node8"><a xlink:href="convective__wrap_8cpp.html#af214bab6c6ba14dc06fe7df4f6abcdf8" target="_top" xlink:title=" ">
<polygon fill="white" stroke="#666666" points="131.5,-352.5 5.5,-352.5 5.5,-322.5 131.5,-322.5 131.5,-352.5"/>
<text text-anchor="start" x="13.5" y="-340.5" font-family="Helvetica,sans-Serif" font-size="10.00">sharp_effective_inflow</text>
<text text-anchor="middle" x="68.5" y="-329.5" font-family="Helvetica,sans-Serif" font-size="10.00">_layer</text>
</a>
</g>
</g>
<!-- Node7&#45;&gt;Node8 -->
<g id="edge7" class="edge">
<title>Node7&#45;&gt;Node8</title>
<path fill="none" stroke="#63b8ff" d="M174.69,-337.5C160.38,-337.5 145.48,-337.5 131.56,-337.5"/>
<polygon fill="#63b8ff" stroke="#63b8ff" points="174.99,-341 184.99,-337.5 174.99,-334 174.99,-341"/>
</g>
<!-- Node12 -->
<g id="node12" class="node">
<title>Node12</title>
<g id="a_node12"><a xlink:href="namespacesharp.html#ab89a7e3555a52f0fd9f4086d5aba7037" target="_top" xlink:title=" ">
<polygon fill="white" stroke="#666666" points="501.5,-159.5 376.5,-159.5 376.5,-129.5 501.5,-129.5 501.5,-159.5"/>
<text text-anchor="start" x="384.5" y="-147.5" font-family="Helvetica,sans-Serif" font-size="10.00">sharp::energy_helicity</text>
<text text-anchor="middle" x="439" y="-136.5" font-family="Helvetica,sans-Serif" font-size="10.00">_index</text>
</a>
</g>
</g>
<!-- Node11&#45;&gt;Node12 -->
<g id="edge11" class="edge">
<title>Node11&#45;&gt;Node12</title>
<path fill="none" stroke="#63b8ff" d="M574.4,-186.28C567.53,-184.41 560.57,-182.46 554,-180.5 537.84,-175.69 534.06,-173.65 518,-168.5 508.83,-165.56 499.02,-162.49 489.57,-159.56"/>
<polygon fill="#63b8ff" stroke="#63b8ff" points="573.77,-189.74 584.33,-188.94 575.58,-182.97 573.77,-189.74"/>
</g>
<!-- Node14 -->
<g id="node14" class="node">
<title>Node14</title>
<g id="a_node14"><a xlink:href="winds__wrap_8cpp.html#a2275eb46450351ce583c7aef971a0507" target="_top" xlink:title=" ">
<polygon fill="white" stroke="#666666" points="513.5,-245 364.5,-245 364.5,-226 513.5,-226 513.5,-245"/>
<text text-anchor="middle" x="439" y="-233" font-family="Helvetica,sans-Serif" font-size="10.00">sharp_HeightLayer_helicity</text>
</a>
</g>
</g>
<!-- Node11&#45;&gt;Node14 -->
<g id="edge13" class="edge">
<title>Node11&#45;&gt;Node14</title>
<path fill="none" stroke="#63b8ff" d="M570.03,-209.14C543.8,-214.45 512.33,-220.84 486.91,-225.99"/>
<polygon fill="#63b8ff" stroke="#63b8ff" points="571.07,-212.5 580.17,-207.08 569.68,-205.64 571.07,-212.5"/>
</g>
<!-- Node15 -->
<g id="node15" class="node">
<title>Node15</title>
<g id="a_node15"><a xlink:href="winds__wrap_8cpp.html#a111ef482a9bae9f405ccb271e0816769" target="_top" xlink:title=" ">
<polygon fill="white" stroke="#666666" points="498,-207.5 380,-207.5 380,-177.5 498,-177.5 498,-207.5"/>
<text text-anchor="start" x="388" y="-195.5" font-family="Helvetica,sans-Serif" font-size="10.00">sharp_PressureLayer</text>
<text text-anchor="middle" x="439" y="-184.5" font-family="Helvetica,sans-Serif" font-size="10.00">_helicity</text>
</a>
</g>
</g>
<!-- Node11&#45;&gt;Node15 -->
<g id="edge14" class="edge">
<title>Node11&#45;&gt;Node15</title>
<path fill="none" stroke="#63b8ff" d="M570.16,-196.78C547.71,-196.04 521.41,-195.18 498.34,-194.42"/>
<polygon fill="#63b8ff" stroke="#63b8ff" points="570.06,-200.28 580.17,-197.11 570.29,-193.28 570.06,-200.28"/>
</g>
<!-- Node13 -->
<g id="node13" class="node">
<title>Node13</title>
<g id="a_node13"><a xlink:href="convective__wrap_8cpp.html#a8fa4a371ff32e44fd39e0703eab33a74" target="_top" xlink:title=" ">
<polygon fill="white" stroke="#666666" points="310.5,-178.5 186.5,-178.5 186.5,-148.5 310.5,-148.5 310.5,-178.5"/>
<text text-anchor="start" x="194.5" y="-166.5" font-family="Helvetica,sans-Serif" font-size="10.00">sharp_energy_helicity</text>
<text text-anchor="middle" x="248.5" y="-155.5" font-family="Helvetica,sans-Serif" font-size="10.00">_index</text>
</a>
</g>
</g>
<!-- Node12&#45;&gt;Node13 -->
<g id="edge12" class="edge">
<title>Node12&#45;&gt;Node13</title>
<path fill="none" stroke="#63b8ff" d="M366.25,-151.73C347.95,-153.58 328.44,-155.54 310.72,-157.33"/>
<polygon fill="#63b8ff" stroke="#63b8ff" points="366.68,-155.21 376.28,-150.72 365.98,-148.24 366.68,-155.21"/>
</g>
<!-- Node16&#45;&gt;Node3 -->
<g id="edge17" class="edge">
<title>Node16&#45;&gt;Node3</title>
<path fill="none" stroke="#63b8ff" d="M601.08,-444.74C581.43,-463.54 550.52,-489.3 518,-501.5 453.14,-525.84 373.35,-528.36 317.69,-526.17"/>
<polygon fill="#63b8ff" stroke="#63b8ff" points="603.6,-447.17 608.29,-437.67 598.7,-442.17 603.6,-447.17"/>
</g>
<!-- Node16&#45;&gt;Node6 -->
<g id="edge16" class="edge">
<title>Node16&#45;&gt;Node6</title>
<path fill="none" stroke="#63b8ff" d="M581.27,-403.35C562.27,-394.99 539.27,-385.52 518,-378.5 507.28,-374.96 495.53,-371.76 484.49,-369.04"/>
<polygon fill="#63b8ff" stroke="#63b8ff" points="579.97,-406.6 590.53,-407.47 582.82,-400.2 579.97,-406.6"/>
</g>
<!-- Node17 -->
<g id="node17" class="node">
<title>Node17</title>
<g id="a_node17"><a xlink:href="namespacesharp.html#a298e2c96c389f2c5177d3626c908927e" target="_top" xlink:title="Computes the mass&#45;weighted mean value of a field over a given pressure layer.">
<polygon fill="white" stroke="#666666" points="492.5,-406 385.5,-406 385.5,-387 492.5,-387 492.5,-406"/>
<text text-anchor="middle" x="439" y="-394" font-family="Helvetica,sans-Serif" font-size="10.00">sharp::layer_mean</text>
</a>
</g>
</g>
<!-- Node16&#45;&gt;Node17 -->
<g id="edge18" class="edge">
<title>Node16&#45;&gt;Node17</title>
<path fill="none" stroke="#63b8ff" d="M551.4,-412.37C531.86,-409.59 511.02,-406.62 492.72,-404.01"/>
<polygon fill="#63b8ff" stroke="#63b8ff" points="551.08,-415.86 561.48,-413.81 552.07,-408.93 551.08,-415.86"/>
</g>
<!-- Node21 -->
<g id="node21" class="node">
<title>Node21</title>
<g id="a_node21"><a xlink:href="layer__wrap_8cpp.html#aedfe40469a1e381572599fb09d5f0406" target="_top" xlink:title=" ">
<polygon fill="white" stroke="#666666" points="518,-492 360,-492 360,-473 518,-473 518,-492"/>
<text text-anchor="middle" x="439" y="-480" font-family="Helvetica,sans-Serif" font-size="10.00">sharp_HeightLayer_integrate</text>
</a>
</g>
</g>
<!-- Node16&#45;&gt;Node21 -->
<g id="edge23" class="edge">
<title>Node16&#45;&gt;Node21</title>
<path fill="none" stroke="#63b8ff" d="M578.3,-441.37C559.86,-448.84 538.1,-457.14 518,-463.5 506.97,-466.99 494.89,-470.21 483.61,-472.98"/>
<polygon fill="#63b8ff" stroke="#63b8ff" points="579.69,-444.58 587.61,-437.55 577.03,-438.11 579.69,-444.58"/>
</g>
<!-- Node22 -->
<g id="node22" class="node">
<title>Node22</title>
<g id="a_node22"><a xlink:href="layer__wrap_8cpp.html#a162c242638de7fc2a22b915d14c587db" target="_top" xlink:title=" ">
<polygon fill="white" stroke="#666666" points="498,-454.5 380,-454.5 380,-424.5 498,-424.5 498,-454.5"/>
<text text-anchor="start" x="388" y="-442.5" font-family="Helvetica,sans-Serif" font-size="10.00">sharp_PressureLayer</text>
<text text-anchor="middle" x="439" y="-431.5" font-family="Helvetica,sans-Serif" font-size="10.00">_integrate</text>
</a>
</g>
</g>
<!-- Node16&#45;&gt;Node22 -->
<g id="edge24" class="edge">
<title>Node16&#45;&gt;Node22</title>
<path fill="none" stroke="#63b8ff" d="M551.27,-429.14C533.69,-430.77 515.06,-432.51 498.18,-434.08"/>
<polygon fill="#63b8ff" stroke="#63b8ff" points="551.84,-432.6 561.48,-428.18 551.19,-425.63 551.84,-432.6"/>
</g>
<!-- Node17&#45;&gt;Node3 -->
<g id="edge19" class="edge">
<title>Node17&#45;&gt;Node3</title>
<path fill="none" stroke="#63b8ff" d="M375.61,-406.38C370.01,-408.8 364.7,-411.8 360,-415.5 332.52,-437.15 349.18,-461.21 324,-485.5 312.07,-497.01 295.66,-505.28 281.27,-510.87"/>
<polygon fill="#63b8ff" stroke="#63b8ff" points="377.06,-409.58 385.23,-402.83 374.63,-403.01 377.06,-409.58"/>
</g>
<!-- Node18 -->
<g id="node18" class="node">
<title>Node18</title>
<g id="a_node18"><a xlink:href="structsharp_1_1Parcel.html#a1bf670e79f35a1ce8c904b7ead32ccbe" target="_top" xlink:title="Construct and return a mixed&#45;layer Parcel.">
<polygon fill="white" stroke="#666666" points="306,-438.5 191,-438.5 191,-408.5 306,-408.5 306,-438.5"/>
<text text-anchor="start" x="199" y="-426.5" font-family="Helvetica,sans-Serif" font-size="10.00">sharp::Parcel::mixed</text>
<text text-anchor="middle" x="248.5" y="-415.5" font-family="Helvetica,sans-Serif" font-size="10.00">_layer_parcel</text>
</a>
</g>
</g>
<!-- Node17&#45;&gt;Node18 -->
<g id="edge20" class="edge">
<title>Node17&#45;&gt;Node18</title>
<path fill="none" stroke="#63b8ff" d="M375.41,-405.47C353,-408.68 327.88,-412.27 306.01,-415.41"/>
<polygon fill="#63b8ff" stroke="#63b8ff" points="376.09,-408.9 385.49,-404.02 375.1,-401.97 376.09,-408.9"/>
</g>
<!-- Node19 -->
<g id="node19" class="node">
<title>Node19</title>
<g id="a_node19"><a xlink:href="layer__wrap_8cpp.html#aed1a796336a18c40e0bf51019b76e09a" target="_top" xlink:title=" ">
<polygon fill="white" stroke="#666666" points="319,-390 178,-390 178,-371 319,-371 319,-390"/>
<text text-anchor="middle" x="248.5" y="-378" font-family="Helvetica,sans-Serif" font-size="10.00">sharp_HeightLayer_mean</text>
</a>
</g>
</g>
<!-- Node17&#45;&gt;Node19 -->
<g id="edge21" class="edge">
<title>Node17&#45;&gt;Node19</title>
<path fill="none" stroke="#63b8ff" d="M375.42,-391.19C357.44,-389.66 337.73,-387.99 319.35,-386.43"/>
<polygon fill="#63b8ff" stroke="#63b8ff" points="375.23,-394.68 385.49,-392.04 375.82,-387.71 375.23,-394.68"/>
</g>
<!-- Node20 -->
<g id="node20" class="node">
<title>Node20</title>
<g id="a_node20"><a xlink:href="layer__wrap_8cpp.html#acb9a81d9a712786d81c427d428eefd0a" target="_top" xlink:title=" ">
<polygon fill="white" stroke="#666666" points="324,-476 173,-476 173,-457 324,-457 324,-476"/>
<text text-anchor="middle" x="248.5" y="-464" font-family="Helvetica,sans-Serif" font-size="10.00">sharp_PressureLayer_mean</text>
</a>
</g>
</g>
<!-- Node17&#45;&gt;Node20 -->
<g id="edge22" class="edge">
<title>Node17&#45;&gt;Node20</title>
<path fill="none" stroke="#63b8ff" d="M375.41,-408.82C370.07,-410.74 364.86,-412.95 360,-415.5 341.04,-425.44 342.91,-437.46 324,-447.5 316.69,-451.38 308.55,-454.5 300.41,-456.99"/>
<polygon fill="#63b8ff" stroke="#63b8ff" points="376.68,-412.08 385.11,-405.66 374.52,-405.43 376.68,-412.08"/>
</g>
<!-- Node24 -->
<g id="node24" class="node">
<title>Node24</title>
<g id="a_node24"><a xlink:href="namespacesharp.html#a6170e3f412ab95b3ba8d9a93ae55dc67" target="_top" xlink:title="Returns the maximim value in the given layer.">
<polygon fill="white" stroke="#666666" points="489.5,-111 388.5,-111 388.5,-92 489.5,-92 489.5,-111"/>
<text text-anchor="middle" x="439" y="-99" font-family="Helvetica,sans-Serif" font-size="10.00">sharp::layer_max</text>
</a>
</g>
</g>
<!-- Node23&#45;&gt;Node24 -->
<g id="edge26" class="edge">
<title>Node23&#45;&gt;Node24</title>
<path fill="none" stroke="#63b8ff" d="M571.1,-148.93C565.25,-147.01 559.44,-144.86 554,-142.5 536.8,-135.03 535.32,-127.69 518,-120.5 508.99,-116.76 499.08,-113.64 489.42,-111.09"/>
<polygon fill="#63b8ff" stroke="#63b8ff" points="570.34,-152.36 580.93,-151.96 572.4,-145.67 570.34,-152.36"/>
</g>
<!-- Node27 -->
<g id="node27" class="node">
<title>Node27</title>
<g id="a_node27"><a xlink:href="namespacesharp.html#a01a9880c937f63e551893797253da4f7" target="_top" xlink:title="Returns the minimum value in the given layer.">
<polygon fill="white" stroke="#666666" points="488,-56 390,-56 390,-37 488,-37 488,-56"/>
<text text-anchor="middle" x="439" y="-44" font-family="Helvetica,sans-Serif" font-size="10.00">sharp::layer_min</text>
</a>
</g>
</g>
<!-- Node23&#45;&gt;Node27 -->
<g id="edge29" class="edge">
<title>Node23&#45;&gt;Node27</title>
<path fill="none" stroke="#63b8ff" d="M561.91,-147.58C559.14,-146.06 556.48,-144.37 554,-142.5 529.49,-123.99 540.83,-104.05 518,-83.5 504.3,-71.17 485.76,-62.14 470.19,-56.1"/>
<polygon fill="#63b8ff" stroke="#63b8ff" points="560.55,-150.81 571.09,-151.9 563.53,-144.48 560.55,-150.81"/>
</g>
<!-- Node25 -->
<g id="node25" class="node">
<title>Node25</title>
<g id="a_node25"><a xlink:href="layer__wrap_8cpp.html#aff049d2f08d0ca532b51ee39dfeff547" target="_top" xlink:title=" ">
<polygon fill="white" stroke="#666666" points="316,-130 181,-130 181,-111 316,-111 316,-130"/>
<text text-anchor="middle" x="248.5" y="-118" font-family="Helvetica,sans-Serif" font-size="10.00">sharp_HeightLayer_max</text>
</a>
</g>
</g>
<!-- Node24&#45;&gt;Node25 -->
<g id="edge27" class="edge">
<title>Node24&#45;&gt;Node25</title>
<path fill="none" stroke="#63b8ff" d="M378.35,-107.51C358.54,-109.51 336.36,-111.74 316.06,-113.79"/>
<polygon fill="#63b8ff" stroke="#63b8ff" points="378.88,-110.98 388.47,-106.49 378.17,-104.01 378.88,-110.98"/>
</g>
<!-- Node26 -->
<g id="node26" class="node">
<title>Node26</title>
<g id="a_node26"><a xlink:href="layer__wrap_8cpp.html#af26d1ab7a5b701ce5e076ff2a0ef3955" target="_top" xlink:title=" ">
<polygon fill="white" stroke="#666666" points="321,-93 176,-93 176,-74 321,-74 321,-93"/>
<text text-anchor="middle" x="248.5" y="-81" font-family="Helvetica,sans-Serif" font-size="10.00">sharp_PressureLayer_max</text>
</a>
</g>
</g>
<!-- Node24&#45;&gt;Node26 -->
<g id="edge28" class="edge">
<title>Node24&#45;&gt;Node26</title>
<path fill="none" stroke="#63b8ff" d="M378.31,-95.8C360.11,-94.06 339.92,-92.13 321.03,-90.33"/>
<polygon fill="#63b8ff" stroke="#63b8ff" points="378.19,-99.3 388.47,-96.77 378.85,-92.34 378.19,-99.3"/>
</g>
<!-- Node28 -->
<g id="node28" class="node">
<title>Node28</title>
<g id="a_node28"><a xlink:href="layer__wrap_8cpp.html#a1b669cfe5d14a85dc16aa2ec7b19f914" target="_top" xlink:title=" ">
<polygon fill="white" stroke="#666666" points="314.5,-56 182.5,-56 182.5,-37 314.5,-37 314.5,-56"/>
<text text-anchor="middle" x="248.5" y="-44" font-family="Helvetica,sans-Serif" font-size="10.00">sharp_HeightLayer_min</text>
</a>
</g>
</g>
<!-- Node27&#45;&gt;Node28 -->
<g id="edge30" class="edge">
<title>Node27&#45;&gt;Node28</title>
<path fill="none" stroke="#63b8ff" d="M379.73,-46.5C359.08,-46.5 335.72,-46.5 314.54,-46.5"/>
<polygon fill="#63b8ff" stroke="#63b8ff" points="379.95,-50 389.95,-46.5 379.95,-43 379.95,-50"/>
</g>
<!-- Node29 -->
<g id="node29" class="node">
<title>Node29</title>
<g id="a_node29"><a xlink:href="layer__wrap_8cpp.html#aa9e2591b56d47f5caa08217690927b49" target="_top" xlink:title=" ">
<polygon fill="white" stroke="#666666" points="319.5,-19 177.5,-19 177.5,0 319.5,0 319.5,-19"/>
<text text-anchor="middle" x="248.5" y="-7" font-family="Helvetica,sans-Serif" font-size="10.00">sharp_PressureLayer_min</text>
</a>
</g>
</g>
<!-- Node27&#45;&gt;Node29 -->
<g id="edge31" class="edge">
<title>Node27&#45;&gt;Node29</title>
<path fill="none" stroke="#63b8ff" d="M380.12,-35.14C353.87,-29.99 323.16,-23.96 298.12,-19.04"/>
<polygon fill="#63b8ff" stroke="#63b8ff" points="379.46,-38.58 389.95,-37.07 380.81,-31.71 379.46,-38.58"/>
</g>
<!-- Node30&#45;&gt;Node7 -->
<g id="edge33" class="edge">
<title>Node30&#45;&gt;Node7</title>
<path fill="none" stroke="#63b8ff" d="M379.97,-322.96C358.46,-325.36 333.97,-328.09 312.07,-330.53"/>
<polygon fill="#63b8ff" stroke="#63b8ff" points="380.39,-326.44 389.95,-321.85 379.62,-319.48 380.39,-326.44"/>
</g>
<!-- Node30&#45;&gt;Node9 -->
<g id="edge34" class="edge">
<title>Node30&#45;&gt;Node9</title>
<path fill="none" stroke="#63b8ff" d="M379.81,-308.17C355.58,-304.69 327.6,-300.69 303.79,-297.28"/>
<polygon fill="#63b8ff" stroke="#63b8ff" points="379.55,-311.66 389.95,-309.62 380.54,-304.73 379.55,-311.66"/>
</g>
</g>
</svg>
