<?xml version="1.0" encoding="UTF-8" standalone="no"?>
<!DOCTYPE svg PUBLIC "-//W3C//DTD SVG 1.1//EN"
 "http://www.w3.org/Graphics/SVG/1.1/DTD/svg11.dtd">
<!-- Generated by graphviz version 2.43.0 (0)
 -->
<!-- Title: sharp::upper_bound Pages: 1 -->
<svg width="793pt" height="779pt"
 viewBox="0.00 0.00 793.00 779.00" xmlns="http://www.w3.org/2000/svg" xmlns:xlink="http://www.w3.org/1999/xlink">
<g id="graph0" class="graph" transform="scale(1 1) rotate(0) translate(4 775)">
<title>sharp::upper_bound</title>
<!-- Node1 -->
<g id="node1" class="node">
<title>Node1</title>
<g id="a_node1"><a xlink:title="Finds the first index that satisfies value &lt; element.">
<polygon fill="#999999" stroke="#666666" points="785,-356.57 672,-356.57 672,-337.57 785,-337.57 785,-356.57"/>
<text text-anchor="middle" x="728.5" y="-344.57" font-family="Helvetica,sans-Serif" font-size="10.00">sharp::upper_bound</text>
</a>
</g>
</g>
<!-- Node2 -->
<g id="node2" class="node">
<title>Node2</title>
<g id="a_node2"><a xlink:href="namespacesharp.html#ac93f477dfa774c966b5da7521bd43ee6" target="_top" xlink:title="Returns the array indices corresponding to the given layer.">
<polygon fill="white" stroke="#666666" points="636,-633.57 508,-633.57 508,-614.57 636,-614.57 636,-633.57"/>
<text text-anchor="middle" x="572" y="-621.57" font-family="Helvetica,sans-Serif" font-size="10.00">sharp::get_layer_index</text>
</a>
</g>
</g>
<!-- Node1&#45;&gt;Node2 -->
<g id="edge1" class="edge">
<title>Node1&#45;&gt;Node2</title>
<path fill="none" stroke="#63b8ff" d="M717.3,-365.37C687.46,-418.86 601.05,-573.79 578.46,-614.29"/>
<polygon fill="#63b8ff" stroke="#63b8ff" points="720.37,-367.05 722.18,-356.61 714.25,-363.64 720.37,-367.05"/>
</g>
<!-- Node19 -->
<g id="node19" class="node">
<title>Node19</title>
<g id="a_node19"><a xlink:href="namespacesharp.html#ae8240f026498ad2775633a8d0dcf100d" target="_top" xlink:title="Linearly interpolate a data field to a requested height level.">
<polygon fill="white" stroke="#666666" points="629,-356.57 515,-356.57 515,-337.57 629,-337.57 629,-356.57"/>
<text text-anchor="middle" x="572" y="-344.57" font-family="Helvetica,sans-Serif" font-size="10.00">sharp::interp_height</text>
</a>
</g>
</g>
<!-- Node1&#45;&gt;Node19 -->
<g id="edge24" class="edge">
<title>Node1&#45;&gt;Node19</title>
<path fill="none" stroke="#63b8ff" d="M661.53,-347.07C650.77,-347.07 639.71,-347.07 629.22,-347.07"/>
<polygon fill="#63b8ff" stroke="#63b8ff" points="661.72,-350.57 671.72,-347.07 661.72,-343.57 661.72,-350.57"/>
</g>
<!-- Node28 -->
<g id="node28" class="node">
<title>Node28</title>
<g id="a_node28"><a xlink:href="namespacesharp.html#a55e4f8ee4ff8a4a30d7b3f3d92a41c75" target="_top" xlink:title="Linearly interpolate a data field to a requested pressure level.">
<polygon fill="white" stroke="#666666" points="634.5,-276.57 509.5,-276.57 509.5,-257.57 634.5,-257.57 634.5,-276.57"/>
<text text-anchor="middle" x="572" y="-264.57" font-family="Helvetica,sans-Serif" font-size="10.00">sharp::interp_pressure</text>
</a>
</g>
</g>
<!-- Node1&#45;&gt;Node28 -->
<g id="edge39" class="edge">
<title>Node1&#45;&gt;Node28</title>
<path fill="none" stroke="#63b8ff" d="M699.82,-332.74C668.59,-316.57 618.65,-290.71 591.7,-276.76"/>
<polygon fill="#63b8ff" stroke="#63b8ff" points="698.37,-335.93 708.86,-337.42 701.59,-329.72 698.37,-335.93"/>
</g>
<!-- Node3 -->
<g id="node3" class="node">
<title>Node3</title>
<g id="a_node3"><a xlink:href="namespacesharp.html#a72bbdc4cfe7895dd51981902ac9fc822" target="_top" xlink:title="Computes Entrainment CAPE using a previously lifted parcel.">
<polygon fill="white" stroke="#666666" points="138,-315.57 0,-315.57 0,-296.57 138,-296.57 138,-315.57"/>
<text text-anchor="middle" x="69" y="-303.57" font-family="Helvetica,sans-Serif" font-size="10.00">sharp::entrainment_cape</text>
</a>
</g>
</g>
<!-- Node2&#45;&gt;Node3 -->
<g id="edge2" class="edge">
<title>Node2&#45;&gt;Node3</title>
<path fill="none" stroke="#63b8ff" d="M517.66,-635.72C421.89,-655.31 225.92,-688.88 174,-648.07 120.77,-606.24 157.22,-564.98 138,-500.07 116.72,-428.21 84.59,-343.7 73.74,-315.65"/>
<polygon fill="#63b8ff" stroke="#63b8ff" points="518.64,-639.1 527.72,-633.64 517.22,-632.24 518.64,-639.1"/>
</g>
<!-- Node4 -->
<g id="node4" class="node">
<title>Node4</title>
<g id="a_node4"><a xlink:href="structsharp_1_1Parcel.html#a8a311e09b1d46a829212da94cf181537" target="_top" xlink:title="Find the LFC and EL that bounds the layer with the maximum CAPE.">
<polygon fill="white" stroke="#666666" points="459.5,-596.07 356.5,-596.07 356.5,-566.07 459.5,-566.07 459.5,-596.07"/>
<text text-anchor="start" x="364.5" y="-584.07" font-family="Helvetica,sans-Serif" font-size="10.00">sharp::Parcel::find</text>
<text text-anchor="middle" x="408" y="-573.07" font-family="Helvetica,sans-Serif" font-size="10.00">_lfc_el</text>
</a>
</g>
</g>
<!-- Node2&#45;&gt;Node4 -->
<g id="edge3" class="edge">
<title>Node2&#45;&gt;Node4</title>
<path fill="none" stroke="#63b8ff" d="M525.33,-611.95C504.85,-606.51 480.62,-600.08 459.6,-594.5"/>
<polygon fill="#63b8ff" stroke="#63b8ff" points="524.48,-615.35 535.05,-614.53 526.28,-608.58 524.48,-615.35"/>
</g>
<!-- Node7 -->
<g id="node7" class="node">
<title>Node7</title>
<g id="a_node7"><a xlink:href="structsharp_1_1Parcel.html#aa258d27992d22d8b80cb221e6e2a6c19" target="_top" xlink:title="Construct and return a most&#45;unstable Parcel.">
<polygon fill="white" stroke="#666666" points="124,-736.07 14,-736.07 14,-706.07 124,-706.07 124,-736.07"/>
<text text-anchor="start" x="22" y="-724.07" font-family="Helvetica,sans-Serif" font-size="10.00">sharp::Parcel::most</text>
<text text-anchor="middle" x="69" y="-713.07" font-family="Helvetica,sans-Serif" font-size="10.00">_unstable_parcel</text>
</a>
</g>
</g>
<!-- Node2&#45;&gt;Node7 -->
<g id="edge23" class="edge">
<title>Node2&#45;&gt;Node7</title>
<path fill="none" stroke="#63b8ff" d="M561.84,-642.65C547.18,-670.02 515.61,-720.2 472,-741.07 352.72,-798.17 190.1,-759.92 113.41,-736.09"/>
<polygon fill="#63b8ff" stroke="#63b8ff" points="564.99,-644.18 566.47,-633.69 558.77,-640.97 564.99,-644.18"/>
</g>
<!-- Node8 -->
<g id="node8" class="node">
<title>Node8</title>
<g id="a_node8"><a xlink:href="namespacesharp.html#ac2f381378ac4ec13ad83d2ec92b2abcc" target="_top" xlink:title="Finds the array indices corresponding to the given sharp::PressureLayer.">
<polygon fill="white" stroke="#666666" points="472,-709.57 344,-709.57 344,-690.57 472,-690.57 472,-709.57"/>
<text text-anchor="middle" x="408" y="-697.57" font-family="Helvetica,sans-Serif" font-size="10.00">sharp::get_layer_index</text>
</a>
</g>
</g>
<!-- Node2&#45;&gt;Node8 -->
<g id="edge7" class="edge">
<title>Node2&#45;&gt;Node8</title>
<path fill="none" stroke="#63b8ff" d="M545.17,-638.73C525.43,-649.66 497.4,-664.61 472,-676.07 460.48,-681.27 447.46,-686.35 436.27,-690.5"/>
<polygon fill="#63b8ff" stroke="#63b8ff" points="547.11,-641.65 554.14,-633.72 543.7,-635.54 547.11,-641.65"/>
</g>
<!-- Node9 -->
<g id="node9" class="node">
<title>Node9</title>
<g id="a_node9"><a xlink:href="namespacesharp.html#a80858337a63be77bafadbb343d6e4931" target="_top" xlink:title="Computes the Storm Relative Helicity (SRH) over a given layer.">
<polygon fill="white" stroke="#666666" points="451,-633.57 365,-633.57 365,-614.57 451,-614.57 451,-633.57"/>
<text text-anchor="middle" x="408" y="-621.57" font-family="Helvetica,sans-Serif" font-size="10.00">sharp::helicity</text>
</a>
</g>
</g>
<!-- Node2&#45;&gt;Node9 -->
<g id="edge8" class="edge">
<title>Node2&#45;&gt;Node9</title>
<path fill="none" stroke="#63b8ff" d="M497.55,-624.07C481.66,-624.07 465.38,-624.07 451.19,-624.07"/>
<polygon fill="#63b8ff" stroke="#63b8ff" points="497.9,-627.57 507.9,-624.07 497.9,-620.57 497.9,-627.57"/>
</g>
<!-- Node11 -->
<g id="node11" class="node">
<title>Node11</title>
<g id="a_node11"><a xlink:href="namespacesharp.html#a7acec1642f27591dc988bf9e48b4612d" target="_top" xlink:title="Returns a trapezoidal integration of the given layer.">
<polygon fill="white" stroke="#666666" points="470,-477.07 346,-477.07 346,-447.07 470,-447.07 470,-477.07"/>
<text text-anchor="start" x="354" y="-465.07" font-family="Helvetica,sans-Serif" font-size="10.00">sharp::integrate_layer</text>
<text text-anchor="middle" x="408" y="-454.07" font-family="Helvetica,sans-Serif" font-size="10.00">_trapz</text>
</a>
</g>
</g>
<!-- Node2&#45;&gt;Node11 -->
<g id="edge10" class="edge">
<title>Node2&#45;&gt;Node11</title>
<path fill="none" stroke="#63b8ff" d="M554.11,-607.18C522.36,-575.43 454.27,-507.34 424.02,-477.09"/>
<polygon fill="#63b8ff" stroke="#63b8ff" points="551.81,-609.83 561.35,-614.42 556.76,-604.88 551.81,-609.83"/>
</g>
<!-- Node15 -->
<g id="node15" class="node">
<title>Node15</title>
<g id="a_node15"><a xlink:href="namespacesharp.html#a646b65095b84511b75f6a4a81e545e80" target="_top" xlink:title="Template for min/max value over sharp::PressureLayer or sharp::HeightLayer.">
<polygon fill="white" stroke="#666666" points="468,-375.57 348,-375.57 348,-356.57 468,-356.57 468,-375.57"/>
<text text-anchor="middle" x="408" y="-363.57" font-family="Helvetica,sans-Serif" font-size="10.00">sharp::layer_minmax</text>
</a>
</g>
</g>
<!-- Node2&#45;&gt;Node15 -->
<g id="edge17" class="edge">
<title>Node2&#45;&gt;Node15</title>
<path fill="none" stroke="#63b8ff" d="M562.6,-604.94C547,-570.27 511.54,-495.37 472,-438.07 455.4,-414.01 431.85,-389 418.75,-375.72"/>
<polygon fill="#63b8ff" stroke="#63b8ff" points="559.52,-606.63 566.79,-614.34 565.92,-603.78 559.52,-606.63"/>
</g>
<!-- Node18 -->
<g id="node18" class="node">
<title>Node18</title>
<g id="a_node18"><a xlink:href="structsharp_1_1Parcel.html#a9523de2b8b4c28ca49fba3013f94cb06" target="_top" xlink:title="Lifts a sharp::Parcel to compute its virtual temperature.">
<polygon fill="white" stroke="#666666" points="290,-736.07 192,-736.07 192,-706.07 290,-706.07 290,-736.07"/>
<text text-anchor="start" x="200" y="-724.07" font-family="Helvetica,sans-Serif" font-size="10.00">sharp::Parcel::lift</text>
<text text-anchor="middle" x="241" y="-713.07" font-family="Helvetica,sans-Serif" font-size="10.00">_parcel</text>
</a>
</g>
</g>
<!-- Node2&#45;&gt;Node18 -->
<g id="edge20" class="edge">
<title>Node2&#45;&gt;Node18</title>
<path fill="none" stroke="#63b8ff" d="M558.86,-642.25C542.34,-665.16 510.39,-703.44 472,-719.07 413.01,-743.1 338.25,-737.96 290.26,-730.67"/>
<polygon fill="#63b8ff" stroke="#63b8ff" points="561.93,-643.96 564.78,-633.75 556.19,-639.95 561.93,-643.96"/>
</g>
<!-- Node5 -->
<g id="node5" class="node">
<title>Node5</title>
<g id="a_node5"><a xlink:href="structsharp_1_1Parcel.html#a0560bd193b2d2d6bc6b08baa7463fba4" target="_top" xlink:title="Compute CAPE and CINH for a previously lifted sharp::Parcel.">
<polygon fill="white" stroke="#666666" points="308,-590.57 174,-590.57 174,-571.57 308,-571.57 308,-590.57"/>
<text text-anchor="middle" x="241" y="-578.57" font-family="Helvetica,sans-Serif" font-size="10.00">sharp::Parcel::cape_cinh</text>
</a>
</g>
</g>
<!-- Node4&#45;&gt;Node5 -->
<g id="edge4" class="edge">
<title>Node4&#45;&gt;Node5</title>
<path fill="none" stroke="#63b8ff" d="M345.99,-581.07C333.68,-581.07 320.67,-581.07 308.19,-581.07"/>
<polygon fill="#63b8ff" stroke="#63b8ff" points="346.15,-584.57 356.15,-581.07 346.15,-577.57 346.15,-584.57"/>
</g>
<!-- Node6 -->
<g id="node6" class="node">
<title>Node6</title>
<g id="a_node6"><a xlink:href="namespacesharp.html#a2e6b7cd4a3594a8f2c2050b0e4784cce" target="_top" xlink:title="Computes the Effective Inflow Layer for a given atmospheric sounding.">
<polygon fill="white" stroke="#666666" points="132.5,-642.07 5.5,-642.07 5.5,-612.07 132.5,-612.07 132.5,-642.07"/>
<text text-anchor="start" x="13.5" y="-630.07" font-family="Helvetica,sans-Serif" font-size="10.00">sharp::effective_inflow</text>
<text text-anchor="middle" x="69" y="-619.07" font-family="Helvetica,sans-Serif" font-size="10.00">_layer</text>
</a>
</g>
</g>
<!-- Node5&#45;&gt;Node6 -->
<g id="edge5" class="edge">
<title>Node5&#45;&gt;Node6</title>
<path fill="none" stroke="#63b8ff" d="M195.02,-593.25C173.72,-599.01 148.09,-605.94 125.59,-612.03"/>
<polygon fill="#63b8ff" stroke="#63b8ff" points="196.04,-596.59 204.78,-590.6 194.21,-589.84 196.04,-596.59"/>
</g>
<!-- Node5&#45;&gt;Node7 -->
<g id="edge6" class="edge">
<title>Node5&#45;&gt;Node7</title>
<path fill="none" stroke="#63b8ff" d="M182.67,-594.84C179.64,-596.4 176.72,-598.14 174,-600.07 151.39,-616.15 155.72,-629.72 138,-651.07 121.44,-671.02 100.39,-692.13 86.13,-705.88"/>
<polygon fill="#63b8ff" stroke="#63b8ff" points="184.34,-597.92 192.06,-590.66 181.5,-591.53 184.34,-597.92"/>
</g>
<!-- Node10 -->
<g id="node10" class="node">
<title>Node10</title>
<g id="a_node10"><a xlink:href="namespacesharp.html#ab89a7e3555a52f0fd9f4086d5aba7037" target="_top" xlink:title=" ">
<polygon fill="white" stroke="#666666" points="303.5,-639.07 178.5,-639.07 178.5,-609.07 303.5,-609.07 303.5,-639.07"/>
<text text-anchor="start" x="186.5" y="-627.07" font-family="Helvetica,sans-Serif" font-size="10.00">sharp::energy_helicity</text>
<text text-anchor="middle" x="241" y="-616.07" font-family="Helvetica,sans-Serif" font-size="10.00">_index</text>
</a>
</g>
</g>
<!-- Node9&#45;&gt;Node10 -->
<g id="edge9" class="edge">
<title>Node9&#45;&gt;Node10</title>
<path fill="none" stroke="#63b8ff" d="M354.58,-624.07C338.37,-624.07 320.38,-624.07 303.61,-624.07"/>
<polygon fill="#63b8ff" stroke="#63b8ff" points="354.94,-627.57 364.94,-624.07 354.94,-620.57 354.94,-627.57"/>
</g>
<!-- Node11&#45;&gt;Node3 -->
<g id="edge12" class="edge">
<title>Node11&#45;&gt;Node3</title>
<path fill="none" stroke="#63b8ff" d="M336.01,-444.97C272.9,-429.48 188.45,-407.92 174,-400.07 132.29,-377.42 93.78,-334.74 77.8,-315.68"/>
<polygon fill="#63b8ff" stroke="#63b8ff" points="335.39,-448.43 345.94,-447.41 337.06,-441.63 335.39,-448.43"/>
</g>
<!-- Node11&#45;&gt;Node5 -->
<g id="edge11" class="edge">
<title>Node11&#45;&gt;Node5</title>
<path fill="none" stroke="#63b8ff" d="M377.94,-483.03C341.97,-508.98 282.2,-552.08 255.55,-571.3"/>
<polygon fill="#63b8ff" stroke="#63b8ff" points="380.04,-485.83 386.1,-477.14 375.94,-480.16 380.04,-485.83"/>
</g>
<!-- Node12 -->
<g id="node12" class="node">
<title>Node12</title>
<g id="a_node12"><a xlink:href="namespacesharp.html#a298e2c96c389f2c5177d3626c908927e" target="_top" xlink:title="Computes the mass&#45;weighted mean value of a field over a given pressure layer.">
<polygon fill="white" stroke="#666666" points="294.5,-514.57 187.5,-514.57 187.5,-495.57 294.5,-495.57 294.5,-514.57"/>
<text text-anchor="middle" x="241" y="-502.57" font-family="Helvetica,sans-Serif" font-size="10.00">sharp::layer_mean</text>
</a>
</g>
</g>
<!-- Node11&#45;&gt;Node12 -->
<g id="edge13" class="edge">
<title>Node11&#45;&gt;Node12</title>
<path fill="none" stroke="#63b8ff" d="M339.54,-479.65C318.77,-485.07 296.68,-490.82 278.79,-495.49"/>
<polygon fill="#63b8ff" stroke="#63b8ff" points="340.5,-483.02 349.29,-477.11 338.73,-476.25 340.5,-483.02"/>
</g>
<!-- Node14 -->
<g id="node14" class="node">
<title>Node14</title>
<g id="a_node14"><a xlink:href="namespacesharp.html#af910931fdd9e0fe7d63ba7446743e354" target="_top" xlink:title="Computes the precipitable water vapor content over a layer.">
<polygon fill="white" stroke="#666666" points="294.5,-477.07 187.5,-477.07 187.5,-447.07 294.5,-447.07 294.5,-477.07"/>
<text text-anchor="start" x="195.5" y="-465.07" font-family="Helvetica,sans-Serif" font-size="10.00">sharp::precipitable</text>
<text text-anchor="middle" x="241" y="-454.07" font-family="Helvetica,sans-Serif" font-size="10.00">_water</text>
</a>
</g>
</g>
<!-- Node11&#45;&gt;Node14 -->
<g id="edge16" class="edge">
<title>Node11&#45;&gt;Node14</title>
<path fill="none" stroke="#63b8ff" d="M335.21,-462.07C321.55,-462.07 307.49,-462.07 294.56,-462.07"/>
<polygon fill="#63b8ff" stroke="#63b8ff" points="335.56,-465.57 345.56,-462.07 335.56,-458.57 335.56,-465.57"/>
</g>
<!-- Node12&#45;&gt;Node3 -->
<g id="edge14" class="edge">
<title>Node12&#45;&gt;Node3</title>
<path fill="none" stroke="#63b8ff" d="M181.45,-491.04C178.84,-489.55 176.33,-487.9 174,-486.07 113.44,-438.72 81.66,-345.56 72.69,-315.59"/>
<polygon fill="#63b8ff" stroke="#63b8ff" points="180.18,-494.31 190.71,-495.52 183.23,-488.01 180.18,-494.31"/>
</g>
<!-- Node13 -->
<g id="node13" class="node">
<title>Node13</title>
<g id="a_node13"><a xlink:href="structsharp_1_1Parcel.html#a1bf670e79f35a1ce8c904b7ead32ccbe" target="_top" xlink:title="Construct and return a mixed&#45;layer Parcel.">
<polygon fill="white" stroke="#666666" points="126.5,-539.07 11.5,-539.07 11.5,-509.07 126.5,-509.07 126.5,-539.07"/>
<text text-anchor="start" x="19.5" y="-527.07" font-family="Helvetica,sans-Serif" font-size="10.00">sharp::Parcel::mixed</text>
<text text-anchor="middle" x="69" y="-516.07" font-family="Helvetica,sans-Serif" font-size="10.00">_layer_parcel</text>
</a>
</g>
</g>
<!-- Node12&#45;&gt;Node13 -->
<g id="edge15" class="edge">
<title>Node12&#45;&gt;Node13</title>
<path fill="none" stroke="#63b8ff" d="M177.04,-512.11C160.53,-513.96 142.82,-515.93 126.66,-517.74"/>
<polygon fill="#63b8ff" stroke="#63b8ff" points="177.59,-515.57 187.14,-510.98 176.82,-508.61 177.59,-515.57"/>
</g>
<!-- Node16 -->
<g id="node16" class="node">
<title>Node16</title>
<g id="a_node16"><a xlink:href="namespacesharp.html#a6170e3f412ab95b3ba8d9a93ae55dc67" target="_top" xlink:title="Returns the maximim value in the given layer.">
<polygon fill="white" stroke="#666666" points="291.5,-390.57 190.5,-390.57 190.5,-371.57 291.5,-371.57 291.5,-390.57"/>
<text text-anchor="middle" x="241" y="-378.57" font-family="Helvetica,sans-Serif" font-size="10.00">sharp::layer_max</text>
</a>
</g>
</g>
<!-- Node15&#45;&gt;Node16 -->
<g id="edge18" class="edge">
<title>Node15&#45;&gt;Node16</title>
<path fill="none" stroke="#63b8ff" d="M337.84,-372.36C322.35,-373.77 306.22,-375.23 291.71,-376.55"/>
<polygon fill="#63b8ff" stroke="#63b8ff" points="338.26,-375.84 347.9,-371.45 337.62,-368.87 338.26,-375.84"/>
</g>
<!-- Node17 -->
<g id="node17" class="node">
<title>Node17</title>
<g id="a_node17"><a xlink:href="namespacesharp.html#a01a9880c937f63e551893797253da4f7" target="_top" xlink:title="Returns the minimum value in the given layer.">
<polygon fill="white" stroke="#666666" points="290,-353.57 192,-353.57 192,-334.57 290,-334.57 290,-353.57"/>
<text text-anchor="middle" x="241" y="-341.57" font-family="Helvetica,sans-Serif" font-size="10.00">sharp::layer_min</text>
</a>
</g>
</g>
<!-- Node15&#45;&gt;Node17 -->
<g id="edge19" class="edge">
<title>Node15&#45;&gt;Node17</title>
<path fill="none" stroke="#63b8ff" d="M337.53,-356.81C321.57,-354.68 304.94,-352.46 290.12,-350.49"/>
<polygon fill="#63b8ff" stroke="#63b8ff" points="337.52,-360.34 347.9,-358.19 338.45,-353.4 337.52,-360.34"/>
</g>
<!-- Node18&#45;&gt;Node6 -->
<g id="edge21" class="edge">
<title>Node18&#45;&gt;Node6</title>
<path fill="none" stroke="#63b8ff" d="M203.67,-700.99C171.78,-683.35 126.09,-658.09 97.25,-642.14"/>
<polygon fill="#63b8ff" stroke="#63b8ff" points="202.24,-704.19 212.69,-705.97 205.63,-698.07 202.24,-704.19"/>
</g>
<!-- Node18&#45;&gt;Node7 -->
<g id="edge22" class="edge">
<title>Node18&#45;&gt;Node7</title>
<path fill="none" stroke="#63b8ff" d="M181.6,-721.07C162.95,-721.07 142.39,-721.07 124.06,-721.07"/>
<polygon fill="#63b8ff" stroke="#63b8ff" points="181.74,-724.57 191.74,-721.07 181.74,-717.57 181.74,-724.57"/>
</g>
<!-- Node19&#45;&gt;Node3 -->
<g id="edge25" class="edge">
<title>Node19&#45;&gt;Node3</title>
<path fill="none" stroke="#63b8ff" d="M504.91,-341.66C409.71,-333.87 234.87,-319.56 138.4,-311.67"/>
<polygon fill="#63b8ff" stroke="#63b8ff" points="504.74,-345.16 514.99,-342.49 505.31,-338.18 504.74,-345.16"/>
</g>
<!-- Node19&#45;&gt;Node9 -->
<g id="edge31" class="edge">
<title>Node19&#45;&gt;Node9</title>
<path fill="none" stroke="#63b8ff" d="M569.25,-366.67C563.93,-414.58 543.59,-538.56 472,-605.07 466.14,-610.52 458.78,-614.4 451.17,-617.18"/>
<polygon fill="#63b8ff" stroke="#63b8ff" points="572.74,-366.98 570.26,-356.68 565.78,-366.28 572.74,-366.98"/>
</g>
<!-- Node19&#45;&gt;Node11 -->
<g id="edge32" class="edge">
<title>Node19&#45;&gt;Node11</title>
<path fill="none" stroke="#63b8ff" d="M549.01,-362.68C517.78,-384.85 460.94,-425.2 430.16,-447.05"/>
<polygon fill="#63b8ff" stroke="#63b8ff" points="551.34,-365.32 557.47,-356.68 547.29,-359.61 551.34,-365.32"/>
</g>
<!-- Node19&#45;&gt;Node13 -->
<g id="edge37" class="edge">
<title>Node19&#45;&gt;Node13</title>
<path fill="none" stroke="#63b8ff" d="M562.93,-366.1C549.02,-396.47 517.59,-455.56 472,-486.07 366.84,-556.45 210.13,-546.48 126.83,-534.47"/>
<polygon fill="#63b8ff" stroke="#63b8ff" points="566.26,-367.21 567.11,-356.65 559.86,-364.38 566.26,-367.21"/>
</g>
<!-- Node19&#45;&gt;Node15 -->
<g id="edge36" class="edge">
<title>Node19&#45;&gt;Node15</title>
<path fill="none" stroke="#63b8ff" d="M504.74,-354.84C492.62,-356.27 480.04,-357.74 468.14,-359.14"/>
<polygon fill="#63b8ff" stroke="#63b8ff" points="505.27,-358.31 514.79,-353.66 504.46,-351.35 505.27,-358.31"/>
</g>
<!-- Node20 -->
<g id="node20" class="node">
<title>Node20</title>
<g id="a_node20"><a xlink:href="namespacesharp.html#ab77e344c7462c9615b0ddac228bc2193" target="_top" xlink:title="Converts a sharp::HeightLayer to a sharp::PressureLayer.">
<polygon fill="white" stroke="#666666" points="463,-262.07 353,-262.07 353,-232.07 463,-232.07 463,-262.07"/>
<text text-anchor="start" x="361" y="-250.07" font-family="Helvetica,sans-Serif" font-size="10.00">sharp::height_layer</text>
<text text-anchor="middle" x="408" y="-239.07" font-family="Helvetica,sans-Serif" font-size="10.00">_to_pressure</text>
</a>
</g>
</g>
<!-- Node19&#45;&gt;Node20 -->
<g id="edge26" class="edge">
<title>Node19&#45;&gt;Node20</title>
<path fill="none" stroke="#63b8ff" d="M553.16,-330.79C534.16,-314.08 502.65,-288.19 472,-271.07 466.18,-267.82 459.82,-264.83 453.46,-262.14"/>
<polygon fill="#63b8ff" stroke="#63b8ff" points="550.94,-333.5 560.73,-337.54 555.6,-328.27 550.94,-333.5"/>
</g>
<!-- Node24 -->
<g id="node24" class="node">
<title>Node24</title>
<g id="a_node24"><a xlink:href="namespacesharp.html#a43a01274768ee388a983046651a230d3" target="_top" xlink:title="compute the lapse rate over the given sharp::HeightLayer (AGL)">
<polygon fill="white" stroke="#666666" points="458.5,-299.57 357.5,-299.57 357.5,-280.57 458.5,-280.57 458.5,-299.57"/>
<text text-anchor="middle" x="408" y="-287.57" font-family="Helvetica,sans-Serif" font-size="10.00">sharp::lapse_rate</text>
</a>
</g>
</g>
<!-- Node19&#45;&gt;Node24 -->
<g id="edge33" class="edge">
<title>Node19&#45;&gt;Node24</title>
<path fill="none" stroke="#63b8ff" d="M534.26,-334.14C504.45,-323.66 463.1,-309.11 436.2,-299.64"/>
<polygon fill="#63b8ff" stroke="#63b8ff" points="533.29,-337.51 543.88,-337.53 535.61,-330.91 533.29,-337.51"/>
</g>
<!-- Node27 -->
<g id="node27" class="node">
<title>Node27</title>
<g id="a_node27"><a xlink:href="namespacesharp.html#a099a4575acc27d6e10f9dfb69bc315a1" target="_top" xlink:title="Compue the wind shear for a given layer.">
<polygon fill="white" stroke="#666666" points="460.5,-213.57 355.5,-213.57 355.5,-194.57 460.5,-194.57 460.5,-213.57"/>
<text text-anchor="middle" x="408" y="-201.57" font-family="Helvetica,sans-Serif" font-size="10.00">sharp::wind_shear</text>
</a>
</g>
</g>
<!-- Node19&#45;&gt;Node27 -->
<g id="edge38" class="edge">
<title>Node19&#45;&gt;Node27</title>
<path fill="none" stroke="#63b8ff" d="M551.72,-331C538.47,-319.36 520.99,-302.8 508,-286.07 488.22,-260.6 497.23,-243.16 472,-223.07 467.08,-219.16 461.37,-216.05 455.43,-213.58"/>
<polygon fill="#63b8ff" stroke="#63b8ff" points="549.48,-333.69 559.35,-337.57 554.05,-328.39 549.48,-333.69"/>
</g>
<!-- Node21 -->
<g id="node21" class="node">
<title>Node21</title>
<g id="a_node21"><a xlink:href="namespacesharp.html#aa0726266b4777806bae4e8054e01684c" target="_top" xlink:title="Computes the mass&#45;weighted mean value of a field over a given height layer.">
<polygon fill="white" stroke="#666666" points="294.5,-203.57 187.5,-203.57 187.5,-184.57 294.5,-184.57 294.5,-203.57"/>
<text text-anchor="middle" x="241" y="-191.57" font-family="Helvetica,sans-Serif" font-size="10.00">sharp::layer_mean</text>
</a>
</g>
</g>
<!-- Node20&#45;&gt;Node21 -->
<g id="edge27" class="edge">
<title>Node20&#45;&gt;Node21</title>
<path fill="none" stroke="#63b8ff" d="M356.84,-228.53C341.27,-223 323.99,-217.07 308,-212.07 298.59,-209.13 288.35,-206.2 278.8,-203.59"/>
<polygon fill="#63b8ff" stroke="#63b8ff" points="355.69,-231.84 366.28,-231.92 358.05,-225.25 355.69,-231.84"/>
</g>
<!-- Node22 -->
<g id="node22" class="node">
<title>Node22</title>
<g id="a_node22"><a xlink:href="namespacesharp.html#a74a735636c932467b4d2ced544e0cb51" target="_top" xlink:title="Estimates supercell storm motion using the Bunkers et al. 2000 method.">
<polygon fill="white" stroke="#666666" points="300,-90.07 182,-90.07 182,-60.07 300,-60.07 300,-90.07"/>
<text text-anchor="start" x="190" y="-78.07" font-family="Helvetica,sans-Serif" font-size="10.00">sharp::storm_motion</text>
<text text-anchor="middle" x="241" y="-67.07" font-family="Helvetica,sans-Serif" font-size="10.00">_bunkers</text>
</a>
</g>
</g>
<!-- Node20&#45;&gt;Node22 -->
<g id="edge28" class="edge">
<title>Node20&#45;&gt;Node22</title>
<path fill="none" stroke="#63b8ff" d="M351.12,-227.09C348.64,-225.53 346.25,-223.86 344,-222.07 331.65,-212.27 274.75,-125.58 251.72,-90.11"/>
<polygon fill="#63b8ff" stroke="#63b8ff" points="349.44,-230.16 359.87,-232 352.86,-224.05 349.44,-230.16"/>
</g>
<!-- Node22&#45;&gt;Node3 -->
<g id="edge29" class="edge">
<title>Node22&#45;&gt;Node3</title>
<path fill="none" stroke="#63b8ff" d="M185.66,-95.13C181.48,-97.79 177.52,-100.76 174,-104.07 112.51,-161.9 81.15,-264.2 72.51,-296.21"/>
<polygon fill="#63b8ff" stroke="#63b8ff" points="187.54,-98.09 194.5,-90.11 184.08,-92.01 187.54,-98.09"/>
</g>
<!-- Node23 -->
<g id="node23" class="node">
<title>Node23</title>
<g id="a_node23"><a xlink:href="namespacesharp.html#a31d937d833aa80555a0a78890c370f42" target="_top" xlink:title="Estimates supercell storm motion by using the Bunkers et al. 2014 method.">
<polygon fill="white" stroke="#666666" points="128,-47.07 10,-47.07 10,-17.07 128,-17.07 128,-47.07"/>
<text text-anchor="start" x="18" y="-35.07" font-family="Helvetica,sans-Serif" font-size="10.00">sharp::storm_motion</text>
<text text-anchor="middle" x="69" y="-24.07" font-family="Helvetica,sans-Serif" font-size="10.00">_bunkers</text>
</a>
</g>
</g>
<!-- Node22&#45;&gt;Node23 -->
<g id="edge30" class="edge">
<title>Node22&#45;&gt;Node23</title>
<path fill="none" stroke="#63b8ff" d="M172.02,-57.88C157.46,-54.2 142.2,-50.34 128.06,-46.76"/>
<polygon fill="#63b8ff" stroke="#63b8ff" points="171.42,-61.34 181.97,-60.4 173.13,-54.55 171.42,-61.34"/>
</g>
<!-- Node25 -->
<g id="node25" class="node">
<title>Node25</title>
<g id="a_node25"><a xlink:href="namespacesharp.html#aa4e86da659bfca2eae1f0baddb84a303" target="_top" xlink:title="compute the lapse rate over the given sharp::PressureLayer">
<polygon fill="white" stroke="#666666" points="291.5,-240.57 190.5,-240.57 190.5,-221.57 291.5,-221.57 291.5,-240.57"/>
<text text-anchor="middle" x="241" y="-228.57" font-family="Helvetica,sans-Serif" font-size="10.00">sharp::lapse_rate</text>
</a>
</g>
</g>
<!-- Node24&#45;&gt;Node25 -->
<g id="edge34" class="edge">
<title>Node24&#45;&gt;Node25</title>
<path fill="none" stroke="#63b8ff" d="M359.98,-277.35C354.52,-275.44 349.08,-273.35 344,-271.07 326.88,-263.41 325.22,-256.5 308,-249.07 300.48,-245.83 292.21,-243.02 284.16,-240.66"/>
<polygon fill="#63b8ff" stroke="#63b8ff" points="359.19,-280.77 369.78,-280.57 361.37,-274.12 359.19,-280.77"/>
</g>
<!-- Node26 -->
<g id="node26" class="node">
<title>Node26</title>
<g id="a_node26"><a xlink:href="namespacesharp.html#abd0d1a28608e145c455ace03e787e33b" target="_top" xlink:title="Find the maximum lapse rate within a specified layer/depth (AGL).">
<polygon fill="white" stroke="#666666" points="305,-277.57 177,-277.57 177,-258.57 305,-258.57 305,-277.57"/>
<text text-anchor="middle" x="241" y="-265.57" font-family="Helvetica,sans-Serif" font-size="10.00">sharp::lapse_rate_max</text>
</a>
</g>
</g>
<!-- Node24&#45;&gt;Node26 -->
<g id="edge35" class="edge">
<title>Node24&#45;&gt;Node26</title>
<path fill="none" stroke="#63b8ff" d="M347.26,-282.11C333.6,-280.29 319.05,-278.35 305.25,-276.51"/>
<polygon fill="#63b8ff" stroke="#63b8ff" points="347.12,-285.62 357.49,-283.47 348.04,-278.68 347.12,-285.62"/>
</g>
<!-- Node28&#45;&gt;Node3 -->
<g id="edge40" class="edge">
<title>Node28&#45;&gt;Node3</title>
<path fill="none" stroke="#63b8ff" d="M563.27,-248.08C549.84,-217.99 519.07,-160.39 472,-137.07 443.62,-123.01 180.39,-142.38 174,-146.07 113.46,-181.03 82.07,-267.06 72.9,-296.22"/>
<polygon fill="#63b8ff" stroke="#63b8ff" points="560.14,-249.66 567.29,-257.47 566.57,-246.9 560.14,-249.66"/>
</g>
<!-- Node28&#45;&gt;Node4 -->
<g id="edge41" class="edge">
<title>Node28&#45;&gt;Node4</title>
<path fill="none" stroke="#63b8ff" d="M549.35,-283C535.48,-294.34 518.23,-310.77 508,-329.07 473.09,-391.57 500.24,-420.29 472,-486.07 458.89,-516.62 435.85,-547.99 421.57,-565.94"/>
<polygon fill="#63b8ff" stroke="#63b8ff" points="551.76,-285.56 557.46,-276.63 547.43,-280.06 551.76,-285.56"/>
</g>
<!-- Node28&#45;&gt;Node9 -->
<g id="edge42" class="edge">
<title>Node28&#45;&gt;Node9</title>
<path fill="none" stroke="#63b8ff" d="M548.52,-282.9C534.45,-294.1 517.28,-310.41 508,-329.07 452.91,-439.83 552.05,-510.76 472,-605.07 466.6,-611.43 459.16,-615.71 451.28,-618.57"/>
<polygon fill="#63b8ff" stroke="#63b8ff" points="550.94,-285.45 556.78,-276.61 546.7,-279.88 550.94,-285.45"/>
</g>
<!-- Node28&#45;&gt;Node11 -->
<g id="edge43" class="edge">
<title>Node28&#45;&gt;Node11</title>
<path fill="none" stroke="#63b8ff" d="M552.02,-283.68C538.9,-295.63 521.46,-312.5 508,-329.07 489.34,-352.04 489.4,-361.14 472,-385.07 455.85,-407.29 435.46,-431.61 422.33,-446.85"/>
<polygon fill="#63b8ff" stroke="#63b8ff" points="554.44,-286.21 559.55,-276.92 549.77,-281 554.44,-286.21"/>
</g>
<!-- Node28&#45;&gt;Node15 -->
<g id="edge44" class="edge">
<title>Node28&#45;&gt;Node15</title>
<path fill="none" stroke="#63b8ff" d="M546.38,-282.12C512.62,-302.75 452.91,-339.24 424.65,-356.51"/>
<polygon fill="#63b8ff" stroke="#63b8ff" points="548.46,-284.95 555.17,-276.75 544.81,-278.97 548.46,-284.95"/>
</g>
<!-- Node28&#45;&gt;Node23 -->
<g id="edge52" class="edge">
<title>Node28&#45;&gt;Node23</title>
<path fill="none" stroke="#63b8ff" d="M567.55,-247.37C559.17,-205.64 533.72,-108.08 472,-58.07 373.51,21.73 212.97,1.56 127.62,-17.02"/>
<polygon fill="#63b8ff" stroke="#63b8ff" points="564.14,-248.18 569.44,-257.36 571.02,-246.88 564.14,-248.18"/>
</g>
<!-- Node28&#45;&gt;Node27 -->
<g id="edge53" class="edge">
<title>Node28&#45;&gt;Node27</title>
<path fill="none" stroke="#63b8ff" d="M542.32,-253.18C522.76,-243.99 496.13,-232.04 472,-223.07 462.9,-219.69 452.89,-216.46 443.59,-213.66"/>
<polygon fill="#63b8ff" stroke="#63b8ff" points="541.04,-256.45 551.58,-257.57 544.04,-250.12 541.04,-256.45"/>
</g>
<!-- Node29 -->
<g id="node29" class="node">
<title>Node29</title>
<g id="a_node29"><a xlink:href="namespacesharp.html#a3c8b9022103d067f30281d68fa81cbda" target="_top" xlink:title="Compute the mean wind over the given sharp::PressureLayer.">
<polygon fill="white" stroke="#666666" points="461,-86.57 355,-86.57 355,-67.57 461,-67.57 461,-86.57"/>
<text text-anchor="middle" x="408" y="-74.57" font-family="Helvetica,sans-Serif" font-size="10.00">sharp::mean_wind</text>
</a>
</g>
</g>
<!-- Node28&#45;&gt;Node29 -->
<g id="edge45" class="edge">
<title>Node28&#45;&gt;Node29</title>
<path fill="none" stroke="#63b8ff" d="M563.83,-247.63C550.56,-214.09 519.15,-145.01 472,-104.07 463.28,-96.51 452.13,-90.8 441.63,-86.62"/>
<polygon fill="#63b8ff" stroke="#63b8ff" points="560.65,-249.11 567.5,-257.19 567.18,-246.6 560.65,-249.11"/>
</g>
<!-- Node30 -->
<g id="node30" class="node">
<title>Node30</title>
<g id="a_node30"><a xlink:href="namespacesharp.html#a31da980f398c9f6a5960ddf868101a94" target="_top" xlink:title="Converts a sharp::PressureLayer to a sharp::HeightLayer.">
<polygon fill="white" stroke="#666666" points="469,-176.07 347,-176.07 347,-146.07 469,-146.07 469,-176.07"/>
<text text-anchor="start" x="355" y="-164.07" font-family="Helvetica,sans-Serif" font-size="10.00">sharp::pressure_layer</text>
<text text-anchor="middle" x="408" y="-153.07" font-family="Helvetica,sans-Serif" font-size="10.00">_to_height</text>
</a>
</g>
</g>
<!-- Node28&#45;&gt;Node30 -->
<g id="edge47" class="edge">
<title>Node28&#45;&gt;Node30</title>
<path fill="none" stroke="#63b8ff" d="M554.55,-250.51C535.89,-232.45 503.88,-203.66 472,-185.07 466.34,-181.77 460.14,-178.77 453.91,-176.09"/>
<polygon fill="#63b8ff" stroke="#63b8ff" points="552.11,-253.02 561.69,-257.53 557.01,-248.02 552.11,-253.02"/>
</g>
<!-- Node29&#45;&gt;Node22 -->
<g id="edge46" class="edge">
<title>Node29&#45;&gt;Node22</title>
<path fill="none" stroke="#63b8ff" d="M344.4,-76.31C329.89,-76.14 314.49,-75.95 300.17,-75.78"/>
<polygon fill="#63b8ff" stroke="#63b8ff" points="344.75,-79.82 354.79,-76.44 344.84,-72.82 344.75,-79.82"/>
</g>
<!-- Node30&#45;&gt;Node3 -->
<g id="edge49" class="edge">
<title>Node30&#45;&gt;Node3</title>
<path fill="none" stroke="#63b8ff" d="M336.9,-150.88C288.46,-147.17 224,-149.05 174,-175.07 120.68,-202.83 85.59,-271.35 74.11,-296.56"/>
<polygon fill="#63b8ff" stroke="#63b8ff" points="336.72,-154.38 346.98,-151.76 337.32,-147.41 336.72,-154.38"/>
</g>
<!-- Node30&#45;&gt;Node5 -->
<g id="edge48" class="edge">
<title>Node30&#45;&gt;Node5</title>
<path fill="none" stroke="#63b8ff" d="M345.81,-182.89C345.18,-183.6 344.58,-184.32 344,-185.07 251.55,-305.11 378.25,-389.83 308,-524.07 296.98,-545.13 274.65,-561.8 259.03,-571.54"/>
<polygon fill="#63b8ff" stroke="#63b8ff" points="348.21,-185.44 353.37,-176.18 343.57,-180.2 348.21,-185.44"/>
</g>
<!-- Node30&#45;&gt;Node23 -->
<g id="edge51" class="edge">
<title>Node30&#45;&gt;Node23</title>
<path fill="none" stroke="#63b8ff" d="M384.71,-138.58C372.45,-126 357.12,-109.91 344,-95.07 327.26,-76.14 330.38,-62.79 308,-51.07 252.18,-21.85 178.74,-20.63 128.29,-24.46"/>
<polygon fill="#63b8ff" stroke="#63b8ff" points="382.4,-141.22 391.89,-145.92 387.4,-136.32 382.4,-141.22"/>
</g>
<!-- Node30&#45;&gt;Node25 -->
<g id="edge50" class="edge">
<title>Node30&#45;&gt;Node25</title>
<path fill="none" stroke="#63b8ff" d="M353.38,-180.29C350.16,-181.82 347.01,-183.41 344,-185.07 326.48,-194.73 325.9,-203.16 308,-212.07 300.42,-215.85 291.97,-218.99 283.71,-221.56"/>
<polygon fill="#63b8ff" stroke="#63b8ff" points="354.86,-183.47 362.57,-176.2 352.01,-177.07 354.86,-183.47"/>
</g>
</g>
</svg>
