<?xml version="1.0" encoding="UTF-8" standalone="no"?>
<!DOCTYPE svg PUBLIC "-//W3C//DTD SVG 1.1//EN"
 "http://www.w3.org/Graphics/SVG/1.1/DTD/svg11.dtd">
<!-- Generated by graphviz version 2.43.0 (0)
 -->
<!-- Title: sharp::lapse_rate Pages: 1 -->
<svg width="309pt" height="150pt"
 viewBox="0.00 0.00 309.00 149.50" xmlns="http://www.w3.org/2000/svg" xmlns:xlink="http://www.w3.org/1999/xlink">
<g id="graph0" class="graph" transform="scale(1 1) rotate(0) translate(4 145.5)">
<title>sharp::lapse_rate</title>
<!-- Node1 -->
<g id="node1" class="node">
<title>Node1</title>
<g id="a_node1"><a xlink:title="compute the lapse rate over the given sharp::HeightLayer (AGL)">
<polygon fill="#999999" stroke="#666666" points="301,-85.5 200,-85.5 200,-66.5 301,-66.5 301,-85.5"/>
<text text-anchor="middle" x="250.5" y="-73.5" font-family="Helvetica,sans-Serif" font-size="10.00">sharp::lapse_rate</text>
</a>
</g>
</g>
<!-- Node2 -->
<g id="node2" class="node">
<title>Node2</title>
<g id="a_node2"><a xlink:href="namespacesharp.html#aa4e86da659bfca2eae1f0baddb84a303" target="_top" xlink:title="compute the lapse rate over the given sharp::PressureLayer">
<polygon fill="white" stroke="#666666" points="132.5,-141.5 31.5,-141.5 31.5,-122.5 132.5,-122.5 132.5,-141.5"/>
<text text-anchor="middle" x="82" y="-129.5" font-family="Helvetica,sans-Serif" font-size="10.00">sharp::lapse_rate</text>
</a>
</g>
</g>
<!-- Node1&#45;&gt;Node2 -->
<g id="edge1" class="edge">
<title>Node1&#45;&gt;Node2</title>
<path fill="none" stroke="#63b8ff" d="M221.84,-89.98C205.37,-97.88 183.86,-107.45 164,-114 154.01,-117.29 143.13,-120.17 132.69,-122.6"/>
<polygon fill="#63b8ff" stroke="#63b8ff" points="223.46,-93.09 230.91,-85.56 220.39,-86.8 223.46,-93.09"/>
</g>
<!-- Node3 -->
<g id="node3" class="node">
<title>Node3</title>
<g id="a_node3"><a xlink:href="namespacesharp.html#abd0d1a28608e145c455ace03e787e33b" target="_top" xlink:title="Find the maximum lapse rate within a specified layer/depth (AGL).">
<polygon fill="white" stroke="#666666" points="146,-104.5 18,-104.5 18,-85.5 146,-85.5 146,-104.5"/>
<text text-anchor="middle" x="82" y="-92.5" font-family="Helvetica,sans-Serif" font-size="10.00">sharp::lapse_rate_max</text>
</a>
</g>
</g>
<!-- Node1&#45;&gt;Node3 -->
<g id="edge2" class="edge">
<title>Node1&#45;&gt;Node3</title>
<path fill="none" stroke="#63b8ff" d="M189.88,-82.8C175.71,-84.42 160.55,-86.15 146.23,-87.78"/>
<polygon fill="#63b8ff" stroke="#63b8ff" points="190.46,-86.26 200,-81.65 189.66,-79.31 190.46,-86.26"/>
</g>
<!-- Node4 -->
<g id="node4" class="node">
<title>Node4</title>
<g id="a_node4"><a xlink:href="thermo__wrap_8cpp.html#a56e4699ce7fd1603ff1957e72c07d367" target="_top" xlink:title=" ">
<polygon fill="white" stroke="#666666" points="164,-67.5 0,-67.5 0,-48.5 164,-48.5 164,-67.5"/>
<text text-anchor="middle" x="82" y="-55.5" font-family="Helvetica,sans-Serif" font-size="10.00">sharp_HeightLayer_lapse_rate</text>
</a>
</g>
</g>
<!-- Node1&#45;&gt;Node4 -->
<g id="edge3" class="edge">
<title>Node1&#45;&gt;Node4</title>
<path fill="none" stroke="#63b8ff" d="M189.96,-69.56C181.57,-68.66 172.83,-67.71 164.12,-66.77"/>
<polygon fill="#63b8ff" stroke="#63b8ff" points="189.68,-73.05 200,-70.65 190.43,-66.09 189.68,-73.05"/>
</g>
<!-- Node5 -->
<g id="node5" class="node">
<title>Node5</title>
<g id="a_node5"><a xlink:href="thermo__wrap_8cpp.html#aa9e6b801be3431516421ca34cab2ba95" target="_top" xlink:title=" ">
<polygon fill="white" stroke="#666666" points="141,-30 23,-30 23,0 141,0 141,-30"/>
<text text-anchor="start" x="31" y="-18" font-family="Helvetica,sans-Serif" font-size="10.00">sharp_PressureLayer</text>
<text text-anchor="middle" x="82" y="-7" font-family="Helvetica,sans-Serif" font-size="10.00">_lapse_rate</text>
</a>
</g>
</g>
<!-- Node1&#45;&gt;Node5 -->
<g id="edge4" class="edge">
<title>Node1&#45;&gt;Node5</title>
<path fill="none" stroke="#63b8ff" d="M218.82,-62.21C202.66,-55.17 182.42,-46.7 164,-40 154.6,-36.58 144.47,-33.21 134.68,-30.11"/>
<polygon fill="#63b8ff" stroke="#63b8ff" points="217.74,-65.56 228.3,-66.38 220.55,-59.15 217.74,-65.56"/>
</g>
</g>
</svg>
