<?xml version="1.0" encoding="UTF-8" standalone="no"?>
<!DOCTYPE svg PUBLIC "-//W3C//DTD SVG 1.1//EN"
 "http://www.w3.org/Graphics/SVG/1.1/DTD/svg11.dtd">
<!-- Generated by graphviz version 2.43.0 (0)
 -->
<!-- Title: sharp::dendritic_layer Pages: 1 -->
<svg width="524pt" height="27pt"
 viewBox="0.00 0.00 524.00 27.00" xmlns="http://www.w3.org/2000/svg" xmlns:xlink="http://www.w3.org/1999/xlink">
<g id="graph0" class="graph" transform="scale(1 1) rotate(0) translate(4 23)">
<title>sharp::dendritic_layer</title>
<!-- Node1 -->
<g id="node1" class="node">
<title>Node1</title>
<g id="a_node1"><a xlink:title="Get the layer encompassing the lowest dendritic growth zone (&#45;12 to &#45;17 C)">
<polygon fill="#999999" stroke="#666666" points="122,-19 0,-19 0,0 122,0 122,-19"/>
<text text-anchor="middle" x="61" y="-7" font-family="Helvetica,sans-Serif" font-size="10.00">sharp::dendritic_layer</text>
</a>
</g>
</g>
<!-- Node2 -->
<g id="node2" class="node">
<title>Node2</title>
<g id="a_node2"><a xlink:href="namespacesharp.html#a5a3a584cc97815f2911b7a6c53c9c778" target="_top" xlink:title="Find the pressure level of first occurrence of a given value.">
<polygon fill="white" stroke="#666666" points="297,-19 158,-19 158,0 297,0 297,-19"/>
<text text-anchor="middle" x="227.5" y="-7" font-family="Helvetica,sans-Serif" font-size="10.00">sharp::find_first_pressure</text>
</a>
</g>
</g>
<!-- Node1&#45;&gt;Node2 -->
<g id="edge1" class="edge">
<title>Node1&#45;&gt;Node2</title>
<path fill="none" stroke="#63b8ff" d="M122.32,-9.5C130.62,-9.5 139.25,-9.5 147.82,-9.5"/>
<polygon fill="#63b8ff" stroke="#63b8ff" points="147.84,-13 157.84,-9.5 147.84,-6 147.84,-13"/>
</g>
<!-- Node3 -->
<g id="node3" class="node">
<title>Node3</title>
<g id="a_node3"><a xlink:href="namespacesharp.html#a0bf533560780fdb77bc3656db8d89208" target="_top" xlink:title="Linearly interpolates between a and b with distance t.">
<polygon fill="white" stroke="#666666" points="401,-19 333,-19 333,0 401,0 401,-19"/>
<text text-anchor="middle" x="367" y="-7" font-family="Helvetica,sans-Serif" font-size="10.00">sharp::lerp</text>
</a>
</g>
</g>
<!-- Node2&#45;&gt;Node3 -->
<g id="edge2" class="edge">
<title>Node2&#45;&gt;Node3</title>
<path fill="none" stroke="#63b8ff" d="M297.25,-9.5C305.84,-9.5 314.43,-9.5 322.48,-9.5"/>
<polygon fill="#63b8ff" stroke="#63b8ff" points="322.72,-13 332.72,-9.5 322.72,-6 322.72,-13"/>
</g>
<!-- Node4 -->
<g id="node4" class="node">
<title>Node4</title>
<g id="a_node4"><a xlink:href="namespacesharp.html#ac4464059524ff56c7974141bb4cc7375" target="_top" xlink:title="Linearly interpolates between a and b with distance t.">
<polygon fill="white" stroke="#666666" points="516,-19 437,-19 437,0 516,0 516,-19"/>
<text text-anchor="middle" x="476.5" y="-7" font-family="Helvetica,sans-Serif" font-size="10.00">sharp::__lerp</text>
</a>
</g>
</g>
<!-- Node3&#45;&gt;Node4 -->
<g id="edge3" class="edge">
<title>Node3&#45;&gt;Node4</title>
<path fill="none" stroke="#63b8ff" d="M401.13,-9.5C409.2,-9.5 418,-9.5 426.63,-9.5"/>
<polygon fill="#63b8ff" stroke="#63b8ff" points="426.63,-13 436.63,-9.5 426.63,-6 426.63,-13"/>
</g>
</g>
</svg>
