<?xml version="1.0" encoding="UTF-8" standalone="no"?>
<!DOCTYPE svg PUBLIC "-//W3C//DTD SVG 1.1//EN"
 "http://www.w3.org/Graphics/SVG/1.1/DTD/svg11.dtd">
<!-- Generated by graphviz version 2.43.0 (0)
 -->
<!-- Title: sharp::drylift Pages: 1 -->
<svg width="404pt" height="192pt"
 viewBox="0.00 0.00 404.00 191.50" xmlns="http://www.w3.org/2000/svg" xmlns:xlink="http://www.w3.org/1999/xlink">
<g id="graph0" class="graph" transform="scale(1 1) rotate(0) translate(4 187.5)">
<title>sharp::drylift</title>
<!-- Node1 -->
<g id="node1" class="node">
<title>Node1</title>
<g id="a_node1"><a xlink:title="Lift a parcel dry adiabatically to its Lifted Condensation Level (LCL).">
<polygon fill="#999999" stroke="#666666" points="396,-83 318,-83 318,-64 396,-64 396,-83"/>
<text text-anchor="middle" x="357" y="-71" font-family="Helvetica,sans-Serif" font-size="10.00">sharp::drylift</text>
</a>
</g>
</g>
<!-- Node2 -->
<g id="node2" class="node">
<title>Node2</title>
<g id="a_node2"><a xlink:href="structsharp_1_1Parcel.html#a9523de2b8b4c28ca49fba3013f94cb06" target="_top" xlink:title="Lifts a sharp::Parcel to compute its virtual temperature.">
<polygon fill="white" stroke="#666666" points="271.5,-159.5 173.5,-159.5 173.5,-129.5 271.5,-129.5 271.5,-159.5"/>
<text text-anchor="start" x="181.5" y="-147.5" font-family="Helvetica,sans-Serif" font-size="10.00">sharp::Parcel::lift</text>
<text text-anchor="middle" x="222.5" y="-136.5" font-family="Helvetica,sans-Serif" font-size="10.00">_parcel</text>
</a>
</g>
</g>
<!-- Node1&#45;&gt;Node2 -->
<g id="edge1" class="edge">
<title>Node1&#45;&gt;Node2</title>
<path fill="none" stroke="#63b8ff" d="M333.22,-88.92C318.85,-98.32 299.72,-110.27 282,-119.5 275.34,-122.97 268.09,-126.36 261.03,-129.47"/>
<polygon fill="#63b8ff" stroke="#63b8ff" points="335.51,-91.6 341.92,-83.16 331.65,-85.76 335.51,-91.6"/>
</g>
<!-- Node5 -->
<g id="node5" class="node">
<title>Node5</title>
<g id="a_node5"><a xlink:href="namespacesharp.html#a5e3156aa7f5bafbd908184c7f51927ee" target="_top" xlink:title="Compute the wetbulb potential temperature.">
<polygon fill="white" stroke="#666666" points="282,-111 163,-111 163,-92 282,-92 282,-111"/>
<text text-anchor="middle" x="222.5" y="-99" font-family="Helvetica,sans-Serif" font-size="10.00">sharp::theta_wetbulb</text>
</a>
</g>
</g>
<!-- Node1&#45;&gt;Node5 -->
<g id="edge4" class="edge">
<title>Node1&#45;&gt;Node5</title>
<path fill="none" stroke="#63b8ff" d="M307.72,-83.7C295,-86.39 281.32,-89.28 268.76,-91.93"/>
<polygon fill="#63b8ff" stroke="#63b8ff" points="308.62,-87.09 317.68,-81.6 307.17,-80.24 308.62,-87.09"/>
</g>
<!-- Node6 -->
<g id="node6" class="node">
<title>Node6</title>
<g id="a_node6"><a xlink:href="namespacesharp.html#ab06f16aa1caac3136e863db8cd61e2e9" target="_top" xlink:title="Compute the equivalent potential temperature.">
<polygon fill="white" stroke="#666666" points="263,-56 182,-56 182,-37 263,-37 263,-56"/>
<text text-anchor="middle" x="222.5" y="-44" font-family="Helvetica,sans-Serif" font-size="10.00">sharp::thetae</text>
</a>
</g>
</g>
<!-- Node1&#45;&gt;Node6 -->
<g id="edge5" class="edge">
<title>Node1&#45;&gt;Node6</title>
<path fill="none" stroke="#63b8ff" d="M307.76,-63.67C293.09,-60.68 277.15,-57.43 263.12,-54.57"/>
<polygon fill="#63b8ff" stroke="#63b8ff" points="307.18,-67.12 317.68,-65.69 308.58,-60.26 307.18,-67.12"/>
</g>
<!-- Node7 -->
<g id="node7" class="node">
<title>Node7</title>
<g id="a_node7"><a xlink:href="namespacesharp.html#accda9c75278f1a32978bbfd662492822" target="_top" xlink:title="Compute the wetbulb temperature.">
<polygon fill="white" stroke="#666666" points="267,-19 178,-19 178,0 267,0 267,-19"/>
<text text-anchor="middle" x="222.5" y="-7" font-family="Helvetica,sans-Serif" font-size="10.00">sharp::wetbulb</text>
</a>
</g>
</g>
<!-- Node1&#45;&gt;Node7 -->
<g id="edge7" class="edge">
<title>Node1&#45;&gt;Node7</title>
<path fill="none" stroke="#63b8ff" d="M334.34,-57.96C320.01,-48.21 300.52,-35.93 282,-27.5 274.94,-24.29 267.15,-21.44 259.62,-19.02"/>
<polygon fill="#63b8ff" stroke="#63b8ff" points="332.74,-61.1 342.95,-63.93 336.73,-55.35 332.74,-61.1"/>
</g>
<!-- Node3 -->
<g id="node3" class="node">
<title>Node3</title>
<g id="a_node3"><a xlink:href="namespacesharp.html#a2e6b7cd4a3594a8f2c2050b0e4784cce" target="_top" xlink:title="Computes the Effective Inflow Layer for a given atmospheric sounding.">
<polygon fill="white" stroke="#666666" points="127,-183.5 0,-183.5 0,-153.5 127,-153.5 127,-183.5"/>
<text text-anchor="start" x="8" y="-171.5" font-family="Helvetica,sans-Serif" font-size="10.00">sharp::effective_inflow</text>
<text text-anchor="middle" x="63.5" y="-160.5" font-family="Helvetica,sans-Serif" font-size="10.00">_layer</text>
</a>
</g>
</g>
<!-- Node2&#45;&gt;Node3 -->
<g id="edge2" class="edge">
<title>Node2&#45;&gt;Node3</title>
<path fill="none" stroke="#63b8ff" d="M163.03,-153.44C151.35,-155.22 139.02,-157.11 127.2,-158.92"/>
<polygon fill="#63b8ff" stroke="#63b8ff" points="163.76,-156.87 173.11,-151.9 162.7,-149.95 163.76,-156.87"/>
</g>
<!-- Node4 -->
<g id="node4" class="node">
<title>Node4</title>
<g id="a_node4"><a xlink:href="structsharp_1_1Parcel.html#aa258d27992d22d8b80cb221e6e2a6c19" target="_top" xlink:title="Construct and return a most&#45;unstable Parcel.">
<polygon fill="white" stroke="#666666" points="118.5,-135.5 8.5,-135.5 8.5,-105.5 118.5,-105.5 118.5,-135.5"/>
<text text-anchor="start" x="16.5" y="-123.5" font-family="Helvetica,sans-Serif" font-size="10.00">sharp::Parcel::most</text>
<text text-anchor="middle" x="63.5" y="-112.5" font-family="Helvetica,sans-Serif" font-size="10.00">_unstable_parcel</text>
</a>
</g>
</g>
<!-- Node2&#45;&gt;Node4 -->
<g id="edge3" class="edge">
<title>Node2&#45;&gt;Node4</title>
<path fill="none" stroke="#63b8ff" d="M163.22,-135.59C148.66,-133.37 133.11,-130.99 118.75,-128.79"/>
<polygon fill="#63b8ff" stroke="#63b8ff" points="162.7,-139.05 173.11,-137.1 163.76,-132.13 162.7,-139.05"/>
</g>
<!-- Node6&#45;&gt;Node6 -->
<g id="edge6" class="edge">
<title>Node6&#45;&gt;Node6</title>
<path fill="none" stroke="#63b8ff" d="M247.43,-65.19C246.07,-70.2 237.76,-74 222.5,-74 198.68,-74 191.8,-64.73 201.85,-56.08"/>
<polygon fill="#63b8ff" stroke="#63b8ff" points="250.57,-63.65 243.15,-56.08 244.23,-66.62 250.57,-63.65"/>
</g>
</g>
</svg>
