<?xml version="1.0" encoding="UTF-8" standalone="no"?>
<!DOCTYPE svg PUBLIC "-//W3C//DTD SVG 1.1//EN"
 "http://www.w3.org/Graphics/SVG/1.1/DTD/svg11.dtd">
<!-- Generated by graphviz version 2.43.0 (0)
 -->
<!-- Title: sharp::integrate_layer_trapz Pages: 1 -->
<svg width="560pt" height="138pt"
 viewBox="0.00 0.00 560.00 138.00" xmlns="http://www.w3.org/2000/svg" xmlns:xlink="http://www.w3.org/1999/xlink">
<g id="graph0" class="graph" transform="scale(1 1) rotate(0) translate(4 134)">
<title>sharp::integrate_layer_trapz</title>
<!-- Node1 -->
<g id="node1" class="node">
<title>Node1</title>
<g id="a_node1"><a xlink:title="Returns a trapezoidal integration of the given layer.">
<polygon fill="#999999" stroke="#666666" points="124,-79.5 0,-79.5 0,-49.5 124,-49.5 124,-79.5"/>
<text text-anchor="start" x="8" y="-67.5" font-family="Helvetica,sans-Serif" font-size="10.00">sharp::integrate_layer</text>
<text text-anchor="middle" x="62" y="-56.5" font-family="Helvetica,sans-Serif" font-size="10.00">_trapz</text>
</a>
</g>
</g>
<!-- Node2 -->
<g id="node2" class="node">
<title>Node2</title>
<g id="a_node2"><a xlink:href="namespacesharp.html#a3558a68454edd4679ef97335e3a9f1fb" target="_top" xlink:title="A kernel that computes the area under a curve using the trapezoidal rule.">
<polygon fill="white" stroke="#666666" points="279,-130 169,-130 169,-111 279,-111 279,-130"/>
<text text-anchor="middle" x="224" y="-118" font-family="Helvetica,sans-Serif" font-size="10.00">sharp::_integ_trapz</text>
</a>
</g>
</g>
<!-- Node1&#45;&gt;Node2 -->
<g id="edge1" class="edge">
<title>Node1&#45;&gt;Node2</title>
<path fill="none" stroke="#63b8ff" d="M99.09,-79.58C117.22,-86.92 139.61,-95.61 160,-102.5 165.66,-104.41 171.65,-106.3 177.6,-108.09"/>
<polygon fill="#63b8ff" stroke="#63b8ff" points="176.92,-111.54 187.5,-111 178.89,-104.82 176.92,-111.54"/>
</g>
<!-- Node3 -->
<g id="node3" class="node">
<title>Node3</title>
<g id="a_node3"><a xlink:href="namespacesharp.html#ac93f477dfa774c966b5da7521bd43ee6" target="_top" xlink:title="Returns the array indices corresponding to the given layer.">
<polygon fill="white" stroke="#666666" points="288,-93 160,-93 160,-74 288,-74 288,-93"/>
<text text-anchor="middle" x="224" y="-81" font-family="Helvetica,sans-Serif" font-size="10.00">sharp::get_layer_index</text>
</a>
</g>
</g>
<!-- Node1&#45;&gt;Node3 -->
<g id="edge2" class="edge">
<title>Node1&#45;&gt;Node3</title>
<path fill="none" stroke="#63b8ff" d="M124.4,-71.79C132.76,-72.78 141.41,-73.81 149.95,-74.83"/>
<polygon fill="#63b8ff" stroke="#63b8ff" points="149.56,-78.3 159.91,-76.01 150.39,-71.35 149.56,-78.3"/>
</g>
<!-- Node6 -->
<g id="node6" class="node">
<title>Node6</title>
<g id="a_node6"><a xlink:href="namespacesharp.html#af8484e9fe21c025b64ecffde614feb11" target="_top" xlink:title="Linearly interpolate a data field to a requested height level.">
<polygon fill="white" stroke="#666666" points="281,-56 167,-56 167,-37 281,-37 281,-56"/>
<text text-anchor="middle" x="224" y="-44" font-family="Helvetica,sans-Serif" font-size="10.00">sharp::interp_height</text>
</a>
</g>
</g>
<!-- Node1&#45;&gt;Node6 -->
<g id="edge5" class="edge">
<title>Node1&#45;&gt;Node6</title>
<path fill="none" stroke="#63b8ff" d="M124.4,-57.59C134.95,-56.41 145.96,-55.17 156.64,-53.97"/>
<polygon fill="#63b8ff" stroke="#63b8ff" points="157.2,-57.42 166.74,-52.83 156.42,-50.47 157.2,-57.42"/>
</g>
<!-- Node9 -->
<g id="node9" class="node">
<title>Node9</title>
<g id="a_node9"><a xlink:href="namespacesharp.html#a7ed0899941867073e5062af04fdbd3e7" target="_top" xlink:title="Linearly interpolate a data field to a requested pressure level.">
<polygon fill="white" stroke="#666666" points="286.5,-19 161.5,-19 161.5,0 286.5,0 286.5,-19"/>
<text text-anchor="middle" x="224" y="-7" font-family="Helvetica,sans-Serif" font-size="10.00">sharp::interp_pressure</text>
</a>
</g>
</g>
<!-- Node1&#45;&gt;Node9 -->
<g id="edge9" class="edge">
<title>Node1&#45;&gt;Node9</title>
<path fill="none" stroke="#63b8ff" d="M101.98,-49.4C119.61,-42.74 140.76,-34.96 160,-28.5 166.48,-26.32 173.36,-24.13 180.12,-22.04"/>
<polygon fill="#63b8ff" stroke="#63b8ff" points="181.31,-25.34 189.85,-19.07 179.27,-18.64 181.31,-25.34"/>
</g>
<!-- Node4 -->
<g id="node4" class="node">
<title>Node4</title>
<g id="a_node4"><a xlink:href="namespacesharp.html#a1edcf8bff9a13429bcbff7c1129024b3" target="_top" xlink:title="Finds the index of the lower bound that does not satisfy element &lt; value.">
<polygon fill="white" stroke="#666666" points="436.5,-93 324.5,-93 324.5,-74 436.5,-74 436.5,-93"/>
<text text-anchor="middle" x="380.5" y="-81" font-family="Helvetica,sans-Serif" font-size="10.00">sharp::lower_bound</text>
</a>
</g>
</g>
<!-- Node3&#45;&gt;Node4 -->
<g id="edge3" class="edge">
<title>Node3&#45;&gt;Node4</title>
<path fill="none" stroke="#63b8ff" d="M288.29,-83.5C296.91,-83.5 305.78,-83.5 314.43,-83.5"/>
<polygon fill="#63b8ff" stroke="#63b8ff" points="314.47,-87 324.47,-83.5 314.47,-80 314.47,-87"/>
</g>
<!-- Node5 -->
<g id="node5" class="node">
<title>Node5</title>
<g id="a_node5"><a xlink:href="namespacesharp.html#a772686549a5111c1152b778731119aa6" target="_top" xlink:title="Finds the first index that satisfies value &lt; element.">
<polygon fill="white" stroke="#666666" points="437,-56 324,-56 324,-37 437,-37 437,-56"/>
<text text-anchor="middle" x="380.5" y="-44" font-family="Helvetica,sans-Serif" font-size="10.00">sharp::upper_bound</text>
</a>
</g>
</g>
<!-- Node3&#45;&gt;Node5 -->
<g id="edge4" class="edge">
<title>Node3&#45;&gt;Node5</title>
<path fill="none" stroke="#63b8ff" d="M264.79,-73.97C284.62,-69.22 308.81,-63.43 329.85,-58.39"/>
<polygon fill="#63b8ff" stroke="#63b8ff" points="330.67,-61.79 339.58,-56.06 329.04,-54.99 330.67,-61.79"/>
</g>
<!-- Node6&#45;&gt;Node5 -->
<g id="edge8" class="edge">
<title>Node6&#45;&gt;Node5</title>
<path fill="none" stroke="#63b8ff" d="M281.22,-46.5C291.74,-46.5 302.83,-46.5 313.62,-46.5"/>
<polygon fill="#63b8ff" stroke="#63b8ff" points="313.84,-50 323.84,-46.5 313.84,-43 313.84,-50"/>
</g>
<!-- Node7 -->
<g id="node7" class="node">
<title>Node7</title>
<g id="a_node7"><a xlink:href="namespacesharp.html#a8aa123fbe3b59a7023446b0fe2186c49" target="_top" xlink:title="Linearly interpolates between a and b with distance t.">
<polygon fill="white" stroke="#666666" points="414.5,-19 346.5,-19 346.5,0 414.5,0 414.5,-19"/>
<text text-anchor="middle" x="380.5" y="-7" font-family="Helvetica,sans-Serif" font-size="10.00">sharp::lerp</text>
</a>
</g>
</g>
<!-- Node6&#45;&gt;Node7 -->
<g id="edge6" class="edge">
<title>Node6&#45;&gt;Node7</title>
<path fill="none" stroke="#63b8ff" d="M264.79,-36.97C286.73,-31.72 313.99,-25.19 336.43,-19.81"/>
<polygon fill="#63b8ff" stroke="#63b8ff" points="337.46,-23.17 346.37,-17.43 335.83,-16.36 337.46,-23.17"/>
</g>
<!-- Node8 -->
<g id="node8" class="node">
<title>Node8</title>
<g id="a_node8"><a xlink:href="namespacesharp.html#a8848423b96dfe09b90322efd2cc5bd43" target="_top" xlink:title="Linearly interpolates between a and b with distance t.">
<polygon fill="white" stroke="#666666" points="552,-19 473,-19 473,0 552,0 552,-19"/>
<text text-anchor="middle" x="512.5" y="-7" font-family="Helvetica,sans-Serif" font-size="10.00">sharp::__lerp</text>
</a>
</g>
</g>
<!-- Node7&#45;&gt;Node8 -->
<g id="edge7" class="edge">
<title>Node7&#45;&gt;Node8</title>
<path fill="none" stroke="#63b8ff" d="M414.64,-9.5C429.2,-9.5 446.6,-9.5 462.61,-9.5"/>
<polygon fill="#63b8ff" stroke="#63b8ff" points="462.88,-13 472.88,-9.5 462.88,-6 462.88,-13"/>
</g>
<!-- Node9&#45;&gt;Node5 -->
<g id="edge11" class="edge">
<title>Node9&#45;&gt;Node5</title>
<path fill="none" stroke="#63b8ff" d="M264.79,-19.03C284.62,-23.78 308.81,-29.57 329.85,-34.61"/>
<polygon fill="#63b8ff" stroke="#63b8ff" points="329.04,-38.01 339.58,-36.94 330.67,-31.21 329.04,-38.01"/>
</g>
<!-- Node9&#45;&gt;Node7 -->
<g id="edge10" class="edge">
<title>Node9&#45;&gt;Node7</title>
<path fill="none" stroke="#63b8ff" d="M286.51,-9.5C303.05,-9.5 320.6,-9.5 335.95,-9.5"/>
<polygon fill="#63b8ff" stroke="#63b8ff" points="336.18,-13 346.18,-9.5 336.18,-6 336.18,-13"/>
</g>
</g>
</svg>
