<?xml version="1.0" encoding="UTF-8" standalone="no"?>
<!DOCTYPE svg PUBLIC "-//W3C//DTD SVG 1.1//EN"
 "http://www.w3.org/Graphics/SVG/1.1/DTD/svg11.dtd">
<!-- Generated by graphviz version 2.43.0 (0)
 -->
<!-- Title: sharp::vector_magnitude Pages: 1 -->
<svg width="481pt" height="124pt"
 viewBox="0.00 0.00 481.00 124.00" xmlns="http://www.w3.org/2000/svg" xmlns:xlink="http://www.w3.org/1999/xlink">
<g id="graph0" class="graph" transform="scale(1 1) rotate(0) translate(4 120)">
<title>sharp::vector_magnitude</title>
<!-- Node1 -->
<g id="node1" class="node">
<title>Node1</title>
<g id="a_node1"><a xlink:title="Computes the magnitude of a vector given its components.">
<polygon fill="#999999" stroke="#666666" points="473,-67.5 335,-67.5 335,-48.5 473,-48.5 473,-67.5"/>
<text text-anchor="middle" x="404" y="-55.5" font-family="Helvetica,sans-Serif" font-size="10.00">sharp::vector_magnitude</text>
</a>
</g>
</g>
<!-- Node2 -->
<g id="node2" class="node">
<title>Node2</title>
<g id="a_node2"><a xlink:href="namespacesharp.html#adc84f46d1ec5872b1777857983bdb4be" target="_top" xlink:title="Conveniance function to compute wind speed and direction from components.">
<polygon fill="white" stroke="#666666" points="299,-116 174,-116 174,-86 299,-86 299,-116"/>
<text text-anchor="start" x="182" y="-104" font-family="Helvetica,sans-Serif" font-size="10.00">sharp::components_to</text>
<text text-anchor="middle" x="236.5" y="-93" font-family="Helvetica,sans-Serif" font-size="10.00">_vector</text>
</a>
</g>
</g>
<!-- Node1&#45;&gt;Node2 -->
<g id="edge1" class="edge">
<title>Node1&#45;&gt;Node2</title>
<path fill="none" stroke="#63b8ff" d="M356.37,-70.12C337.39,-75.05 315.25,-80.8 295.26,-85.99"/>
<polygon fill="#63b8ff" stroke="#63b8ff" points="357.47,-73.45 366.27,-67.54 355.71,-66.67 357.47,-73.45"/>
</g>
<!-- Node3 -->
<g id="node3" class="node">
<title>Node3</title>
<g id="a_node3"><a xlink:href="namespacesharp.html#a72bbdc4cfe7895dd51981902ac9fc822" target="_top" xlink:title="Computes Entrainment CAPE using a previously lifted parcel.">
<polygon fill="white" stroke="#666666" points="138,-67.5 0,-67.5 0,-48.5 138,-48.5 138,-67.5"/>
<text text-anchor="middle" x="69" y="-55.5" font-family="Helvetica,sans-Serif" font-size="10.00">sharp::entrainment_cape</text>
</a>
</g>
</g>
<!-- Node1&#45;&gt;Node3 -->
<g id="edge2" class="edge">
<title>Node1&#45;&gt;Node3</title>
<path fill="none" stroke="#63b8ff" d="M324.47,-58C267.84,-58 192.17,-58 138.1,-58"/>
<polygon fill="#63b8ff" stroke="#63b8ff" points="324.81,-61.5 334.81,-58 324.81,-54.5 324.81,-61.5"/>
</g>
<!-- Node4 -->
<g id="node4" class="node">
<title>Node4</title>
<g id="a_node4"><a xlink:href="namespacesharp.html#a74a735636c932467b4d2ced544e0cb51" target="_top" xlink:title="Estimates supercell storm motion using the Bunkers et al. 2000 method.">
<polygon fill="white" stroke="#666666" points="295.5,-30 177.5,-30 177.5,0 295.5,0 295.5,-30"/>
<text text-anchor="start" x="185.5" y="-18" font-family="Helvetica,sans-Serif" font-size="10.00">sharp::storm_motion</text>
<text text-anchor="middle" x="236.5" y="-7" font-family="Helvetica,sans-Serif" font-size="10.00">_bunkers</text>
</a>
</g>
</g>
<!-- Node1&#45;&gt;Node4 -->
<g id="edge3" class="edge">
<title>Node1&#45;&gt;Node4</title>
<path fill="none" stroke="#63b8ff" d="M356.37,-45.88C337.39,-40.95 315.25,-35.2 295.26,-30.01"/>
<polygon fill="#63b8ff" stroke="#63b8ff" points="355.71,-49.33 366.27,-48.46 357.47,-42.55 355.71,-49.33"/>
</g>
<!-- Node4&#45;&gt;Node3 -->
<g id="edge4" class="edge">
<title>Node4&#45;&gt;Node3</title>
<path fill="none" stroke="#63b8ff" d="M167.84,-32.58C147,-37.99 124.85,-43.75 106.9,-48.41"/>
<polygon fill="#63b8ff" stroke="#63b8ff" points="168.82,-35.94 177.62,-30.04 167.06,-29.17 168.82,-35.94"/>
</g>
<!-- Node5 -->
<g id="node5" class="node">
<title>Node5</title>
<g id="a_node5"><a xlink:href="namespacesharp.html#ab31d383a3231f8fef873e5a16c0db856" target="_top" xlink:title="Estimates supercell storm motion by using the Bunkers et al. 2014 method.">
<polygon fill="white" stroke="#666666" points="128,-30 10,-30 10,0 128,0 128,-30"/>
<text text-anchor="start" x="18" y="-18" font-family="Helvetica,sans-Serif" font-size="10.00">sharp::storm_motion</text>
<text text-anchor="middle" x="69" y="-7" font-family="Helvetica,sans-Serif" font-size="10.00">_bunkers</text>
</a>
</g>
</g>
<!-- Node4&#45;&gt;Node5 -->
<g id="edge5" class="edge">
<title>Node4&#45;&gt;Node5</title>
<path fill="none" stroke="#63b8ff" d="M166.93,-15C154.03,-15 140.65,-15 128.1,-15"/>
<polygon fill="#63b8ff" stroke="#63b8ff" points="167.15,-18.5 177.15,-15 167.15,-11.5 167.15,-18.5"/>
</g>
</g>
</svg>
