<?xml version="1.0" encoding="UTF-8" standalone="no"?>
<!DOCTYPE svg PUBLIC "-//W3C//DTD SVG 1.1//EN"
 "http://www.w3.org/Graphics/SVG/1.1/DTD/svg11.dtd">
<!-- Generated by graphviz version 2.43.0 (0)
 -->
<!-- Title: sharp::layer_mean Pages: 1 -->
<svg width="703pt" height="138pt"
 viewBox="0.00 0.00 703.00 138.00" xmlns="http://www.w3.org/2000/svg" xmlns:xlink="http://www.w3.org/1999/xlink">
<g id="graph0" class="graph" transform="scale(1 1) rotate(0) translate(4 134)">
<title>sharp::layer_mean</title>
<!-- Node1 -->
<g id="node1" class="node">
<title>Node1</title>
<g id="a_node1"><a xlink:title="Computes the mass&#45;weighted mean value of a field over a given pressure layer.">
<polygon fill="#999999" stroke="#666666" points="107,-74 0,-74 0,-55 107,-55 107,-74"/>
<text text-anchor="middle" x="53.5" y="-62" font-family="Helvetica,sans-Serif" font-size="10.00">sharp::layer_mean</text>
</a>
</g>
</g>
<!-- Node2 -->
<g id="node2" class="node">
<title>Node2</title>
<g id="a_node2"><a xlink:href="namespacesharp.html#a7acec1642f27591dc988bf9e48b4612d" target="_top" xlink:title="Returns a trapezoidal integration of the given layer.">
<polygon fill="white" stroke="#666666" points="267,-79.5 143,-79.5 143,-49.5 267,-49.5 267,-79.5"/>
<text text-anchor="start" x="151" y="-67.5" font-family="Helvetica,sans-Serif" font-size="10.00">sharp::integrate_layer</text>
<text text-anchor="middle" x="205" y="-56.5" font-family="Helvetica,sans-Serif" font-size="10.00">_trapz</text>
</a>
</g>
</g>
<!-- Node1&#45;&gt;Node2 -->
<g id="edge1" class="edge">
<title>Node1&#45;&gt;Node2</title>
<path fill="none" stroke="#63b8ff" d="M107.21,-64.5C115.49,-64.5 124.16,-64.5 132.77,-64.5"/>
<polygon fill="#63b8ff" stroke="#63b8ff" points="132.82,-68 142.82,-64.5 132.82,-61 132.82,-68"/>
</g>
<!-- Node3 -->
<g id="node3" class="node">
<title>Node3</title>
<g id="a_node3"><a xlink:href="namespacesharp.html#a3558a68454edd4679ef97335e3a9f1fb" target="_top" xlink:title="A kernel that computes the area under a curve using the trapezoidal rule.">
<polygon fill="white" stroke="#666666" points="422,-130 312,-130 312,-111 422,-111 422,-130"/>
<text text-anchor="middle" x="367" y="-118" font-family="Helvetica,sans-Serif" font-size="10.00">sharp::_integ_trapz</text>
</a>
</g>
</g>
<!-- Node2&#45;&gt;Node3 -->
<g id="edge2" class="edge">
<title>Node2&#45;&gt;Node3</title>
<path fill="none" stroke="#63b8ff" d="M242.09,-79.58C260.22,-86.92 282.61,-95.61 303,-102.5 308.66,-104.41 314.65,-106.3 320.6,-108.09"/>
<polygon fill="#63b8ff" stroke="#63b8ff" points="319.92,-111.54 330.5,-111 321.89,-104.82 319.92,-111.54"/>
</g>
<!-- Node4 -->
<g id="node4" class="node">
<title>Node4</title>
<g id="a_node4"><a xlink:href="namespacesharp.html#ac93f477dfa774c966b5da7521bd43ee6" target="_top" xlink:title="Returns the array indices corresponding to the given layer.">
<polygon fill="white" stroke="#666666" points="431,-93 303,-93 303,-74 431,-74 431,-93"/>
<text text-anchor="middle" x="367" y="-81" font-family="Helvetica,sans-Serif" font-size="10.00">sharp::get_layer_index</text>
</a>
</g>
</g>
<!-- Node2&#45;&gt;Node4 -->
<g id="edge3" class="edge">
<title>Node2&#45;&gt;Node4</title>
<path fill="none" stroke="#63b8ff" d="M267.4,-71.79C275.76,-72.78 284.41,-73.81 292.95,-74.83"/>
<polygon fill="#63b8ff" stroke="#63b8ff" points="292.56,-78.3 302.91,-76.01 293.39,-71.35 292.56,-78.3"/>
</g>
<!-- Node7 -->
<g id="node7" class="node">
<title>Node7</title>
<g id="a_node7"><a xlink:href="namespacesharp.html#af8484e9fe21c025b64ecffde614feb11" target="_top" xlink:title="Linearly interpolate a data field to a requested height level.">
<polygon fill="white" stroke="#666666" points="424,-56 310,-56 310,-37 424,-37 424,-56"/>
<text text-anchor="middle" x="367" y="-44" font-family="Helvetica,sans-Serif" font-size="10.00">sharp::interp_height</text>
</a>
</g>
</g>
<!-- Node2&#45;&gt;Node7 -->
<g id="edge6" class="edge">
<title>Node2&#45;&gt;Node7</title>
<path fill="none" stroke="#63b8ff" d="M267.4,-57.59C277.95,-56.41 288.96,-55.17 299.64,-53.97"/>
<polygon fill="#63b8ff" stroke="#63b8ff" points="300.2,-57.42 309.74,-52.83 299.42,-50.47 300.2,-57.42"/>
</g>
<!-- Node10 -->
<g id="node10" class="node">
<title>Node10</title>
<g id="a_node10"><a xlink:href="namespacesharp.html#a7ed0899941867073e5062af04fdbd3e7" target="_top" xlink:title="Linearly interpolate a data field to a requested pressure level.">
<polygon fill="white" stroke="#666666" points="429.5,-19 304.5,-19 304.5,0 429.5,0 429.5,-19"/>
<text text-anchor="middle" x="367" y="-7" font-family="Helvetica,sans-Serif" font-size="10.00">sharp::interp_pressure</text>
</a>
</g>
</g>
<!-- Node2&#45;&gt;Node10 -->
<g id="edge10" class="edge">
<title>Node2&#45;&gt;Node10</title>
<path fill="none" stroke="#63b8ff" d="M244.98,-49.4C262.61,-42.74 283.76,-34.96 303,-28.5 309.48,-26.32 316.36,-24.13 323.12,-22.04"/>
<polygon fill="#63b8ff" stroke="#63b8ff" points="324.31,-25.34 332.85,-19.07 322.27,-18.64 324.31,-25.34"/>
</g>
<!-- Node5 -->
<g id="node5" class="node">
<title>Node5</title>
<g id="a_node5"><a xlink:href="namespacesharp.html#a1edcf8bff9a13429bcbff7c1129024b3" target="_top" xlink:title="Finds the index of the lower bound that does not satisfy element &lt; value.">
<polygon fill="white" stroke="#666666" points="579.5,-93 467.5,-93 467.5,-74 579.5,-74 579.5,-93"/>
<text text-anchor="middle" x="523.5" y="-81" font-family="Helvetica,sans-Serif" font-size="10.00">sharp::lower_bound</text>
</a>
</g>
</g>
<!-- Node4&#45;&gt;Node5 -->
<g id="edge4" class="edge">
<title>Node4&#45;&gt;Node5</title>
<path fill="none" stroke="#63b8ff" d="M431.29,-83.5C439.91,-83.5 448.78,-83.5 457.43,-83.5"/>
<polygon fill="#63b8ff" stroke="#63b8ff" points="457.47,-87 467.47,-83.5 457.47,-80 457.47,-87"/>
</g>
<!-- Node6 -->
<g id="node6" class="node">
<title>Node6</title>
<g id="a_node6"><a xlink:href="namespacesharp.html#a772686549a5111c1152b778731119aa6" target="_top" xlink:title="Finds the first index that satisfies value &lt; element.">
<polygon fill="white" stroke="#666666" points="580,-56 467,-56 467,-37 580,-37 580,-56"/>
<text text-anchor="middle" x="523.5" y="-44" font-family="Helvetica,sans-Serif" font-size="10.00">sharp::upper_bound</text>
</a>
</g>
</g>
<!-- Node4&#45;&gt;Node6 -->
<g id="edge5" class="edge">
<title>Node4&#45;&gt;Node6</title>
<path fill="none" stroke="#63b8ff" d="M407.79,-73.97C427.62,-69.22 451.81,-63.43 472.85,-58.39"/>
<polygon fill="#63b8ff" stroke="#63b8ff" points="473.67,-61.79 482.58,-56.06 472.04,-54.99 473.67,-61.79"/>
</g>
<!-- Node7&#45;&gt;Node6 -->
<g id="edge9" class="edge">
<title>Node7&#45;&gt;Node6</title>
<path fill="none" stroke="#63b8ff" d="M424.22,-46.5C434.74,-46.5 445.83,-46.5 456.62,-46.5"/>
<polygon fill="#63b8ff" stroke="#63b8ff" points="456.84,-50 466.84,-46.5 456.84,-43 456.84,-50"/>
</g>
<!-- Node8 -->
<g id="node8" class="node">
<title>Node8</title>
<g id="a_node8"><a xlink:href="namespacesharp.html#a8aa123fbe3b59a7023446b0fe2186c49" target="_top" xlink:title="Linearly interpolates between a and b with distance t.">
<polygon fill="white" stroke="#666666" points="557.5,-19 489.5,-19 489.5,0 557.5,0 557.5,-19"/>
<text text-anchor="middle" x="523.5" y="-7" font-family="Helvetica,sans-Serif" font-size="10.00">sharp::lerp</text>
</a>
</g>
</g>
<!-- Node7&#45;&gt;Node8 -->
<g id="edge7" class="edge">
<title>Node7&#45;&gt;Node8</title>
<path fill="none" stroke="#63b8ff" d="M407.79,-36.97C429.73,-31.72 456.99,-25.19 479.43,-19.81"/>
<polygon fill="#63b8ff" stroke="#63b8ff" points="480.46,-23.17 489.37,-17.43 478.83,-16.36 480.46,-23.17"/>
</g>
<!-- Node9 -->
<g id="node9" class="node">
<title>Node9</title>
<g id="a_node9"><a xlink:href="namespacesharp.html#a8848423b96dfe09b90322efd2cc5bd43" target="_top" xlink:title="Linearly interpolates between a and b with distance t.">
<polygon fill="white" stroke="#666666" points="695,-19 616,-19 616,0 695,0 695,-19"/>
<text text-anchor="middle" x="655.5" y="-7" font-family="Helvetica,sans-Serif" font-size="10.00">sharp::__lerp</text>
</a>
</g>
</g>
<!-- Node8&#45;&gt;Node9 -->
<g id="edge8" class="edge">
<title>Node8&#45;&gt;Node9</title>
<path fill="none" stroke="#63b8ff" d="M557.64,-9.5C572.2,-9.5 589.6,-9.5 605.61,-9.5"/>
<polygon fill="#63b8ff" stroke="#63b8ff" points="605.88,-13 615.88,-9.5 605.88,-6 605.88,-13"/>
</g>
<!-- Node10&#45;&gt;Node6 -->
<g id="edge12" class="edge">
<title>Node10&#45;&gt;Node6</title>
<path fill="none" stroke="#63b8ff" d="M407.79,-19.03C427.62,-23.78 451.81,-29.57 472.85,-34.61"/>
<polygon fill="#63b8ff" stroke="#63b8ff" points="472.04,-38.01 482.58,-36.94 473.67,-31.21 472.04,-38.01"/>
</g>
<!-- Node10&#45;&gt;Node8 -->
<g id="edge11" class="edge">
<title>Node10&#45;&gt;Node8</title>
<path fill="none" stroke="#63b8ff" d="M429.51,-9.5C446.05,-9.5 463.6,-9.5 478.95,-9.5"/>
<polygon fill="#63b8ff" stroke="#63b8ff" points="479.18,-13 489.18,-9.5 479.18,-6 479.18,-13"/>
</g>
</g>
</svg>
