<?xml version="1.0" encoding="UTF-8" standalone="no"?>
<!DOCTYPE svg PUBLIC "-//W3C//DTD SVG 1.1//EN"
 "http://www.w3.org/Graphics/SVG/1.1/DTD/svg11.dtd">
<!-- Generated by graphviz version 2.43.0 (0)
 -->
<!-- Title: sharp::__lerp Pages: 1 -->
<svg width="1073pt" height="1132pt"
 viewBox="0.00 0.00 1073.00 1131.50" xmlns="http://www.w3.org/2000/svg" xmlns:xlink="http://www.w3.org/1999/xlink">
<g id="graph0" class="graph" transform="scale(1 1) rotate(0) translate(4 1127.5)">
<title>sharp::__lerp</title>
<!-- Node1 -->
<g id="node1" class="node">
<title>Node1</title>
<g id="a_node1"><a xlink:title="Linearly interpolates between a and b with distance t.">
<polygon fill="#999999" stroke="#666666" points="1065,-490 986,-490 986,-471 1065,-471 1065,-490"/>
<text text-anchor="middle" x="1025.5" y="-478" font-family="Helvetica,sans-Serif" font-size="10.00">sharp::__lerp</text>
</a>
</g>
</g>
<!-- Node2 -->
<g id="node2" class="node">
<title>Node2</title>
<g id="a_node2"><a xlink:href="namespacesharp.html#a0bf533560780fdb77bc3656db8d89208" target="_top" xlink:title="Linearly interpolates between a and b with distance t.">
<polygon fill="white" stroke="#666666" points="950,-490 882,-490 882,-471 950,-471 950,-490"/>
<text text-anchor="middle" x="916" y="-478" font-family="Helvetica,sans-Serif" font-size="10.00">sharp::lerp</text>
</a>
</g>
</g>
<!-- Node1&#45;&gt;Node2 -->
<g id="edge1" class="edge">
<title>Node1&#45;&gt;Node2</title>
<path fill="none" stroke="#63b8ff" d="M975.94,-480.5C967.25,-480.5 958.39,-480.5 950.26,-480.5"/>
<polygon fill="#63b8ff" stroke="#63b8ff" points="975.99,-484 985.99,-480.5 975.99,-477 975.99,-484"/>
</g>
<!-- Node3 -->
<g id="node3" class="node">
<title>Node3</title>
<g id="a_node3"><a xlink:href="namespacesharp.html#ae8240f026498ad2775633a8d0dcf100d" target="_top" xlink:title="Linearly interpolate a data field to a requested height level.">
<polygon fill="white" stroke="#666666" points="840.5,-326 726.5,-326 726.5,-307 840.5,-307 840.5,-326"/>
<text text-anchor="middle" x="783.5" y="-314" font-family="Helvetica,sans-Serif" font-size="10.00">sharp::interp_height</text>
</a>
</g>
</g>
<!-- Node2&#45;&gt;Node3 -->
<g id="edge2" class="edge">
<title>Node2&#45;&gt;Node3</title>
<path fill="none" stroke="#63b8ff" d="M900.98,-462.88C873.48,-428.32 813.27,-352.65 792.07,-326.01"/>
<polygon fill="#63b8ff" stroke="#63b8ff" points="898.26,-465.09 907.23,-470.73 903.74,-460.73 898.26,-465.09"/>
</g>
<!-- Node45 -->
<g id="node44" class="node">
<title>Node45</title>
<g id="a_node44"><a xlink:href="namespacesharp.html#a55e4f8ee4ff8a4a30d7b3f3d92a41c75" target="_top" xlink:title="Linearly interpolate a data field to a requested pressure level.">
<polygon fill="white" stroke="#666666" points="846,-743 721,-743 721,-724 846,-724 846,-743"/>
<text text-anchor="middle" x="783.5" y="-731" font-family="Helvetica,sans-Serif" font-size="10.00">sharp::interp_pressure</text>
</a>
</g>
</g>
<!-- Node2&#45;&gt;Node45 -->
<g id="edge47" class="edge">
<title>Node2&#45;&gt;Node45</title>
<path fill="none" stroke="#63b8ff" d="M905.35,-499.21C879.4,-549.51 808.81,-686.37 789.46,-723.88"/>
<polygon fill="#63b8ff" stroke="#63b8ff" points="908.57,-500.6 910.04,-490.11 902.35,-497.39 908.57,-500.6"/>
</g>
<!-- Node4 -->
<g id="node4" class="node">
<title>Node4</title>
<g id="a_node4"><a xlink:href="namespacesharp.html#a72bbdc4cfe7895dd51981902ac9fc822" target="_top" xlink:title="Computes Entrainment CAPE using a previously lifted parcel.">
<polygon fill="white" stroke="#666666" points="317.5,-628 179.5,-628 179.5,-609 317.5,-609 317.5,-628"/>
<text text-anchor="middle" x="248.5" y="-616" font-family="Helvetica,sans-Serif" font-size="10.00">sharp::entrainment_cape</text>
</a>
</g>
</g>
<!-- Node3&#45;&gt;Node4 -->
<g id="edge3" class="edge">
<title>Node3&#45;&gt;Node4</title>
<path fill="none" stroke="#63b8ff" d="M763.84,-333.06C723.23,-368.23 622.55,-450.7 524,-494.5 455.54,-524.93 427.64,-501.28 360,-533.5 318.05,-553.49 276.87,-591.31 258.9,-608.97"/>
<polygon fill="#63b8ff" stroke="#63b8ff" points="766.34,-335.52 771.57,-326.31 761.74,-330.25 766.34,-335.52"/>
</g>
<!-- Node6 -->
<g id="node6" class="node">
<title>Node6</title>
<g id="a_node6"><a xlink:href="namespacesharp.html#ab77e344c7462c9615b0ddac228bc2193" target="_top" xlink:title="Converts a sharp::HeightLayer to a sharp::PressureLayer.">
<polygon fill="white" stroke="#666666" points="677.5,-190.5 567.5,-190.5 567.5,-160.5 677.5,-160.5 677.5,-190.5"/>
<text text-anchor="start" x="575.5" y="-178.5" font-family="Helvetica,sans-Serif" font-size="10.00">sharp::height_layer</text>
<text text-anchor="middle" x="622.5" y="-167.5" font-family="Helvetica,sans-Serif" font-size="10.00">_to_pressure</text>
</a>
</g>
</g>
<!-- Node3&#45;&gt;Node6 -->
<g id="edge5" class="edge">
<title>Node3&#45;&gt;Node6</title>
<path fill="none" stroke="#63b8ff" d="M771.23,-298.15C754.97,-273.04 722.73,-227.95 685,-200.5 679.87,-196.77 674.11,-193.49 668.22,-190.64"/>
<polygon fill="#63b8ff" stroke="#63b8ff" points="768.35,-300.14 776.65,-306.72 774.26,-296.4 768.35,-300.14"/>
</g>
<!-- Node13 -->
<g id="node13" class="node">
<title>Node13</title>
<g id="a_node13"><a xlink:href="namespacesharp.html#a80858337a63be77bafadbb343d6e4931" target="_top" xlink:title="Computes the Storm Relative Helicity (SRH) over a given layer.">
<polygon fill="white" stroke="#666666" points="665.5,-743 579.5,-743 579.5,-724 665.5,-724 665.5,-743"/>
<text text-anchor="middle" x="622.5" y="-731" font-family="Helvetica,sans-Serif" font-size="10.00">sharp::helicity</text>
</a>
</g>
</g>
<!-- Node3&#45;&gt;Node13 -->
<g id="edge13" class="edge">
<title>Node3&#45;&gt;Node13</title>
<path fill="none" stroke="#63b8ff" d="M779.55,-336.38C770.97,-390.25 742.93,-542.54 685,-655.5 670.99,-682.81 646.73,-709.85 633.25,-723.8"/>
<polygon fill="#63b8ff" stroke="#63b8ff" points="783.06,-336.58 781.12,-326.17 776.14,-335.52 783.06,-336.58"/>
</g>
<!-- Node18 -->
<g id="node18" class="node">
<title>Node18</title>
<g id="a_node18"><a xlink:href="namespacesharp.html#a7acec1642f27591dc988bf9e48b4612d" target="_top" xlink:title="Returns a trapezoidal integration of the given layer.">
<polygon fill="white" stroke="#666666" points="684.5,-646.5 560.5,-646.5 560.5,-616.5 684.5,-616.5 684.5,-646.5"/>
<text text-anchor="start" x="568.5" y="-634.5" font-family="Helvetica,sans-Serif" font-size="10.00">sharp::integrate_layer</text>
<text text-anchor="middle" x="622.5" y="-623.5" font-family="Helvetica,sans-Serif" font-size="10.00">_trapz</text>
</a>
</g>
</g>
<!-- Node3&#45;&gt;Node18 -->
<g id="edge18" class="edge">
<title>Node3&#45;&gt;Node18</title>
<path fill="none" stroke="#63b8ff" d="M777.96,-336.26C767.1,-380.8 736.62,-491.36 685,-570.5 673.42,-588.26 655.94,-604.96 642.57,-616.38"/>
<polygon fill="#63b8ff" stroke="#63b8ff" points="781.39,-336.95 780.3,-326.41 774.58,-335.33 781.39,-336.95"/>
</g>
<!-- Node24 -->
<g id="node23" class="node">
<title>Node24</title>
<g id="a_node23"><a xlink:href="structsharp_1_1Parcel.html#a1bf670e79f35a1ce8c904b7ead32ccbe" target="_top" xlink:title="Construct and return a mixed&#45;layer Parcel.">
<polygon fill="white" stroke="#666666" points="306,-356.5 191,-356.5 191,-326.5 306,-326.5 306,-356.5"/>
<text text-anchor="start" x="199" y="-344.5" font-family="Helvetica,sans-Serif" font-size="10.00">sharp::Parcel::mixed</text>
<text text-anchor="middle" x="248.5" y="-333.5" font-family="Helvetica,sans-Serif" font-size="10.00">_layer_parcel</text>
</a>
</g>
</g>
<!-- Node3&#45;&gt;Node24 -->
<g id="edge42" class="edge">
<title>Node3&#45;&gt;Node24</title>
<path fill="none" stroke="#63b8ff" d="M716.06,-310.26C632.55,-303.7 485.01,-296.37 360,-312.5 338.66,-315.25 315.56,-320.88 296.02,-326.45"/>
<polygon fill="#63b8ff" stroke="#63b8ff" points="715.92,-313.76 726.17,-311.07 716.48,-306.78 715.92,-313.76"/>
</g>
<!-- Node29 -->
<g id="node28" class="node">
<title>Node29</title>
<g id="a_node28"><a xlink:href="namespacesharp.html#a43a01274768ee388a983046651a230d3" target="_top" xlink:title="compute the lapse rate over the given sharp::HeightLayer (AGL)">
<polygon fill="white" stroke="#666666" points="673,-99 572,-99 572,-80 673,-80 673,-99"/>
<text text-anchor="middle" x="622.5" y="-87" font-family="Helvetica,sans-Serif" font-size="10.00">sharp::lapse_rate</text>
</a>
</g>
</g>
<!-- Node3&#45;&gt;Node29 -->
<g id="edge30" class="edge">
<title>Node3&#45;&gt;Node29</title>
<path fill="none" stroke="#63b8ff" d="M773.3,-297.63C757.44,-265.94 722.98,-200.69 685,-151.5 669.43,-131.34 647.81,-110.94 634.79,-99.3"/>
<polygon fill="#63b8ff" stroke="#63b8ff" points="770.21,-299.26 777.78,-306.67 776.48,-296.16 770.21,-299.26"/>
</g>
<!-- Node34 -->
<g id="node33" class="node">
<title>Node34</title>
<g id="a_node33"><a xlink:href="namespacesharp.html#a646b65095b84511b75f6a4a81e545e80" target="_top" xlink:title="Template for min/max value over sharp::PressureLayer or sharp::HeightLayer.">
<polygon fill="white" stroke="#666666" points="682.5,-265 562.5,-265 562.5,-246 682.5,-246 682.5,-265"/>
<text text-anchor="middle" x="622.5" y="-253" font-family="Helvetica,sans-Serif" font-size="10.00">sharp::layer_minmax</text>
</a>
</g>
</g>
<!-- Node3&#45;&gt;Node34 -->
<g id="edge35" class="edge">
<title>Node3&#45;&gt;Node34</title>
<path fill="none" stroke="#63b8ff" d="M748.01,-303.27C718,-291.75 675.22,-275.34 648.43,-265.06"/>
<polygon fill="#63b8ff" stroke="#63b8ff" points="747.07,-306.65 757.66,-306.97 749.57,-300.12 747.07,-306.65"/>
</g>
<!-- Node41 -->
<g id="node40" class="node">
<title>Node41</title>
<g id="a_node40"><a xlink:href="interp__wrap_8cpp.html#a8f8ceea33348c31a1f0763a3896b8128" target="_top" xlink:title=" ">
<polygon fill="white" stroke="#666666" points="679,-228 566,-228 566,-209 679,-209 679,-228"/>
<text text-anchor="middle" x="622.5" y="-216" font-family="Helvetica,sans-Serif" font-size="10.00">sharp_interp_height</text>
</a>
</g>
</g>
<!-- Node3&#45;&gt;Node41 -->
<g id="edge43" class="edge">
<title>Node3&#45;&gt;Node41</title>
<path fill="none" stroke="#63b8ff" d="M765.66,-299.43C747.3,-281.69 716.33,-254.23 685,-237.5 678,-233.76 670.15,-230.64 662.47,-228.07"/>
<polygon fill="#63b8ff" stroke="#63b8ff" points="763.59,-302.3 773.16,-306.82 768.5,-297.31 763.59,-302.3"/>
</g>
<!-- Node42 -->
<g id="node41" class="node">
<title>Node42</title>
<g id="a_node41"><a xlink:href="namespacesharp.html#a099a4575acc27d6e10f9dfb69bc315a1" target="_top" xlink:title="Compue the wind shear for a given layer.">
<polygon fill="white" stroke="#666666" points="675,-371 570,-371 570,-352 675,-352 675,-371"/>
<text text-anchor="middle" x="622.5" y="-359" font-family="Helvetica,sans-Serif" font-size="10.00">sharp::wind_shear</text>
</a>
</g>
</g>
<!-- Node3&#45;&gt;Node42 -->
<g id="edge44" class="edge">
<title>Node3&#45;&gt;Node42</title>
<path fill="none" stroke="#63b8ff" d="M738.89,-328.84C713.12,-336.14 680.98,-345.23 657.17,-351.97"/>
<polygon fill="#63b8ff" stroke="#63b8ff" points="740.11,-332.13 748.78,-326.04 738.2,-325.4 740.11,-332.13"/>
</g>
<!-- Node5 -->
<g id="node5" class="node">
<title>Node5</title>
<g id="a_node5"><a xlink:href="convective__wrap_8cpp.html#ab0bfb728bbbf3a731c330b61a5c415ad" target="_top" xlink:title=" ">
<polygon fill="white" stroke="#666666" points="137,-628 0,-628 0,-609 137,-609 137,-628"/>
<text text-anchor="middle" x="68.5" y="-616" font-family="Helvetica,sans-Serif" font-size="10.00">sharp_entrainment_cape</text>
</a>
</g>
</g>
<!-- Node4&#45;&gt;Node5 -->
<g id="edge4" class="edge">
<title>Node4&#45;&gt;Node5</title>
<path fill="none" stroke="#63b8ff" d="M169.28,-618.5C158.6,-618.5 147.7,-618.5 137.22,-618.5"/>
<polygon fill="#63b8ff" stroke="#63b8ff" points="169.44,-622 179.44,-618.5 169.44,-615 169.44,-622"/>
</g>
<!-- Node7 -->
<g id="node7" class="node">
<title>Node7</title>
<g id="a_node7"><a xlink:href="namespacesharp.html#aa0726266b4777806bae4e8054e01684c" target="_top" xlink:title="Computes the mass&#45;weighted mean value of a field over a given height layer.">
<polygon fill="white" stroke="#666666" points="495.5,-142 388.5,-142 388.5,-123 495.5,-123 495.5,-142"/>
<text text-anchor="middle" x="442" y="-130" font-family="Helvetica,sans-Serif" font-size="10.00">sharp::layer_mean</text>
</a>
</g>
</g>
<!-- Node6&#45;&gt;Node7 -->
<g id="edge6" class="edge">
<title>Node6&#45;&gt;Node7</title>
<path fill="none" stroke="#63b8ff" d="M557.64,-159.67C546.44,-156.93 534.88,-154.12 524,-151.5 511.08,-148.39 496.98,-145.07 484.23,-142.08"/>
<polygon fill="#63b8ff" stroke="#63b8ff" points="556.83,-163.08 567.38,-162.07 558.5,-156.28 556.83,-163.08"/>
</g>
<!-- Node8 -->
<g id="node8" class="node">
<title>Node8</title>
<g id="a_node8"><a xlink:href="layer__wrap_8cpp.html#a0e34d4e0b8a26f17698d3151d128fb5d" target="_top" xlink:title=" ">
<polygon fill="white" stroke="#666666" points="503.5,-190.5 380.5,-190.5 380.5,-160.5 503.5,-160.5 503.5,-190.5"/>
<text text-anchor="start" x="388.5" y="-178.5" font-family="Helvetica,sans-Serif" font-size="10.00">sharp_HeightLayer_to</text>
<text text-anchor="middle" x="442" y="-167.5" font-family="Helvetica,sans-Serif" font-size="10.00">_PressureLayer</text>
</a>
</g>
</g>
<!-- Node6&#45;&gt;Node8 -->
<g id="edge7" class="edge">
<title>Node6&#45;&gt;Node8</title>
<path fill="none" stroke="#63b8ff" d="M557.35,-175.5C539.88,-175.5 521,-175.5 503.72,-175.5"/>
<polygon fill="#63b8ff" stroke="#63b8ff" points="557.46,-179 567.46,-175.5 557.46,-172 557.46,-179"/>
</g>
<!-- Node9 -->
<g id="node9" class="node">
<title>Node9</title>
<g id="a_node9"><a xlink:href="namespacesharp.html#a74a735636c932467b4d2ced544e0cb51" target="_top" xlink:title="Estimates supercell storm motion using the Bunkers et al. 2000 method.">
<polygon fill="white" stroke="#666666" points="501,-485.5 383,-485.5 383,-455.5 501,-455.5 501,-485.5"/>
<text text-anchor="start" x="391" y="-473.5" font-family="Helvetica,sans-Serif" font-size="10.00">sharp::storm_motion</text>
<text text-anchor="middle" x="442" y="-462.5" font-family="Helvetica,sans-Serif" font-size="10.00">_bunkers</text>
</a>
</g>
</g>
<!-- Node6&#45;&gt;Node9 -->
<g id="edge8" class="edge">
<title>Node6&#45;&gt;Node9</title>
<path fill="none" stroke="#63b8ff" d="M563.06,-197.02C561.98,-198.12 560.96,-199.28 560,-200.5 491.82,-287.45 596.36,-362.99 524,-446.5 517.95,-453.48 509.97,-458.48 501.38,-462.05"/>
<polygon fill="#63b8ff" stroke="#63b8ff" points="565.47,-199.57 570.97,-190.52 561.02,-194.16 565.47,-199.57"/>
</g>
<!-- Node9&#45;&gt;Node4 -->
<g id="edge9" class="edge">
<title>Node9&#45;&gt;Node4</title>
<path fill="none" stroke="#63b8ff" d="M376.89,-489.76C370.96,-492.62 365.23,-495.86 360,-499.5 339.55,-513.75 340.74,-524.03 324,-542.5 301.67,-567.14 273.91,-594.71 259.39,-608.9"/>
<polygon fill="#63b8ff" stroke="#63b8ff" points="378.6,-492.83 386.31,-485.57 375.76,-486.43 378.6,-492.83"/>
</g>
<!-- Node10 -->
<g id="node10" class="node">
<title>Node10</title>
<g id="a_node10"><a xlink:href="convective__wrap_8cpp.html#aa0e261971f41c6f95514e9ab584cc91e" target="_top" xlink:title=" ">
<polygon fill="white" stroke="#666666" points="307,-485.5 190,-485.5 190,-455.5 307,-455.5 307,-485.5"/>
<text text-anchor="start" x="198" y="-473.5" font-family="Helvetica,sans-Serif" font-size="10.00">sharp_storm_motion</text>
<text text-anchor="middle" x="248.5" y="-462.5" font-family="Helvetica,sans-Serif" font-size="10.00">_bunkers</text>
</a>
</g>
</g>
<!-- Node9&#45;&gt;Node10 -->
<g id="edge10" class="edge">
<title>Node9&#45;&gt;Node10</title>
<path fill="none" stroke="#63b8ff" d="M372.73,-470.5C351.27,-470.5 327.78,-470.5 307.13,-470.5"/>
<polygon fill="#63b8ff" stroke="#63b8ff" points="372.76,-474 382.76,-470.5 372.76,-467 372.76,-474"/>
</g>
<!-- Node11 -->
<g id="node11" class="node">
<title>Node11</title>
<g id="a_node11"><a xlink:href="convective__wrap_8cpp.html#a9c1783d5b0cde5deea749c0f4e0ee310" target="_top" xlink:title=" ">
<polygon fill="white" stroke="#666666" points="307,-533.5 190,-533.5 190,-503.5 307,-503.5 307,-533.5"/>
<text text-anchor="start" x="198" y="-521.5" font-family="Helvetica,sans-Serif" font-size="10.00">sharp_storm_motion</text>
<text text-anchor="middle" x="248.5" y="-510.5" font-family="Helvetica,sans-Serif" font-size="10.00">_bunkers_np</text>
</a>
</g>
</g>
<!-- Node9&#45;&gt;Node11 -->
<g id="edge11" class="edge">
<title>Node9&#45;&gt;Node11</title>
<path fill="none" stroke="#63b8ff" d="M373.03,-487.54C351.48,-492.94 327.88,-498.85 307.13,-504.05"/>
<polygon fill="#63b8ff" stroke="#63b8ff" points="373.91,-490.92 382.76,-485.1 372.21,-484.13 373.91,-490.92"/>
</g>
<!-- Node12 -->
<g id="node12" class="node">
<title>Node12</title>
<g id="a_node12"><a xlink:href="namespacesharp.html#ab31d383a3231f8fef873e5a16c0db856" target="_top" xlink:title="Estimates supercell storm motion by using the Bunkers et al. 2014 method.">
<polygon fill="white" stroke="#666666" points="307.5,-939.5 189.5,-939.5 189.5,-909.5 307.5,-909.5 307.5,-939.5"/>
<text text-anchor="start" x="197.5" y="-927.5" font-family="Helvetica,sans-Serif" font-size="10.00">sharp::storm_motion</text>
<text text-anchor="middle" x="248.5" y="-916.5" font-family="Helvetica,sans-Serif" font-size="10.00">_bunkers</text>
</a>
</g>
</g>
<!-- Node9&#45;&gt;Node12 -->
<g id="edge12" class="edge">
<title>Node9&#45;&gt;Node12</title>
<path fill="none" stroke="#63b8ff" d="M402.54,-490.99C386.66,-501.51 369.72,-515.86 360,-533.5 320.44,-605.27 375.43,-836.7 324,-900.5 319.57,-906 313.86,-910.26 307.58,-913.55"/>
<polygon fill="#63b8ff" stroke="#63b8ff" points="404.6,-493.83 411.2,-485.54 400.87,-487.9 404.6,-493.83"/>
</g>
<!-- Node14 -->
<g id="node14" class="node">
<title>Node14</title>
<g id="a_node14"><a xlink:href="namespacesharp.html#ab89a7e3555a52f0fd9f4086d5aba7037" target="_top" xlink:title=" ">
<polygon fill="white" stroke="#666666" points="504.5,-894.5 379.5,-894.5 379.5,-864.5 504.5,-864.5 504.5,-894.5"/>
<text text-anchor="start" x="387.5" y="-882.5" font-family="Helvetica,sans-Serif" font-size="10.00">sharp::energy_helicity</text>
<text text-anchor="middle" x="442" y="-871.5" font-family="Helvetica,sans-Serif" font-size="10.00">_index</text>
</a>
</g>
</g>
<!-- Node13&#45;&gt;Node14 -->
<g id="edge14" class="edge">
<title>Node13&#45;&gt;Node14</title>
<path fill="none" stroke="#63b8ff" d="M611.53,-752.17C596.25,-779.01 564.49,-828.25 524,-855.5 518.04,-859.51 511.39,-862.87 504.54,-865.67"/>
<polygon fill="#63b8ff" stroke="#63b8ff" points="614.78,-753.52 616.57,-743.07 608.66,-750.12 614.78,-753.52"/>
</g>
<!-- Node16 -->
<g id="node16" class="node">
<title>Node16</title>
<g id="a_node16"><a xlink:href="winds__wrap_8cpp.html#a2275eb46450351ce583c7aef971a0507" target="_top" xlink:title=" ">
<polygon fill="white" stroke="#666666" points="516.5,-722 367.5,-722 367.5,-703 516.5,-703 516.5,-722"/>
<text text-anchor="middle" x="442" y="-710" font-family="Helvetica,sans-Serif" font-size="10.00">sharp_HeightLayer_helicity</text>
</a>
</g>
</g>
<!-- Node13&#45;&gt;Node16 -->
<g id="edge16" class="edge">
<title>Node13&#45;&gt;Node16</title>
<path fill="none" stroke="#63b8ff" d="M569.26,-727.35C552.84,-725.42 534.39,-723.25 516.77,-721.18"/>
<polygon fill="#63b8ff" stroke="#63b8ff" points="568.86,-730.83 579.2,-728.52 569.68,-723.88 568.86,-730.83"/>
</g>
<!-- Node17 -->
<g id="node17" class="node">
<title>Node17</title>
<g id="a_node17"><a xlink:href="winds__wrap_8cpp.html#a111ef482a9bae9f405ccb271e0816769" target="_top" xlink:title=" ">
<polygon fill="white" stroke="#666666" points="501,-770.5 383,-770.5 383,-740.5 501,-740.5 501,-770.5"/>
<text text-anchor="start" x="391" y="-758.5" font-family="Helvetica,sans-Serif" font-size="10.00">sharp_PressureLayer</text>
<text text-anchor="middle" x="442" y="-747.5" font-family="Helvetica,sans-Serif" font-size="10.00">_helicity</text>
</a>
</g>
</g>
<!-- Node13&#45;&gt;Node17 -->
<g id="edge17" class="edge">
<title>Node13&#45;&gt;Node17</title>
<path fill="none" stroke="#63b8ff" d="M569.04,-739.97C547.74,-742.59 523.06,-745.63 501.2,-748.33"/>
<polygon fill="#63b8ff" stroke="#63b8ff" points="569.7,-743.41 579.2,-738.71 568.84,-736.46 569.7,-743.41"/>
</g>
<!-- Node15 -->
<g id="node15" class="node">
<title>Node15</title>
<g id="a_node15"><a xlink:href="convective__wrap_8cpp.html#a8fa4a371ff32e44fd39e0703eab33a74" target="_top" xlink:title=" ">
<polygon fill="white" stroke="#666666" points="310.5,-891.5 186.5,-891.5 186.5,-861.5 310.5,-861.5 310.5,-891.5"/>
<text text-anchor="start" x="194.5" y="-879.5" font-family="Helvetica,sans-Serif" font-size="10.00">sharp_energy_helicity</text>
<text text-anchor="middle" x="248.5" y="-868.5" font-family="Helvetica,sans-Serif" font-size="10.00">_index</text>
</a>
</g>
</g>
<!-- Node14&#45;&gt;Node15 -->
<g id="edge15" class="edge">
<title>Node14&#45;&gt;Node15</title>
<path fill="none" stroke="#63b8ff" d="M369.14,-878.37C349.91,-878.07 329.3,-877.75 310.7,-877.46"/>
<polygon fill="#63b8ff" stroke="#63b8ff" points="369.3,-881.88 379.35,-878.53 369.41,-874.88 369.3,-881.88"/>
</g>
<!-- Node18&#45;&gt;Node4 -->
<g id="edge22" class="edge">
<title>Node18&#45;&gt;Node4</title>
<path fill="none" stroke="#63b8ff" d="M560.41,-648.92C548.44,-651.66 535.9,-654.06 524,-655.5 451.64,-664.27 431.94,-667.22 360,-655.5 328.05,-650.29 292.87,-637.14 270.98,-628.01"/>
<polygon fill="#63b8ff" stroke="#63b8ff" points="561.4,-652.28 570.32,-646.56 559.78,-645.47 561.4,-652.28"/>
</g>
<!-- Node19 -->
<g id="node19" class="node">
<title>Node19</title>
<g id="a_node19"><a xlink:href="structsharp_1_1Parcel.html#a0560bd193b2d2d6bc6b08baa7463fba4" target="_top" xlink:title="Compute CAPE and CINH for a previously lifted sharp::Parcel.">
<polygon fill="white" stroke="#666666" points="509,-1094 375,-1094 375,-1075 509,-1075 509,-1094"/>
<text text-anchor="middle" x="442" y="-1082" font-family="Helvetica,sans-Serif" font-size="10.00">sharp::Parcel::cape_cinh</text>
</a>
</g>
</g>
<!-- Node18&#45;&gt;Node19 -->
<g id="edge19" class="edge">
<title>Node18&#45;&gt;Node19</title>
<path fill="none" stroke="#63b8ff" d="M599.62,-654.39C585.83,-670.25 568.98,-692.57 560,-715.5 509.08,-845.47 595.32,-907.51 524,-1027.5 510.73,-1049.82 484.94,-1065.64 466.01,-1074.86"/>
<polygon fill="#63b8ff" stroke="#63b8ff" points="602.43,-656.5 606.49,-646.72 597.21,-651.83 602.43,-656.5"/>
</g>
<!-- Node23 -->
<g id="node22" class="node">
<title>Node23</title>
<g id="a_node22"><a xlink:href="namespacesharp.html#a298e2c96c389f2c5177d3626c908927e" target="_top" xlink:title="Computes the mass&#45;weighted mean value of a field over a given pressure layer.">
<polygon fill="white" stroke="#666666" points="495.5,-437 388.5,-437 388.5,-418 495.5,-418 495.5,-437"/>
<text text-anchor="middle" x="442" y="-425" font-family="Helvetica,sans-Serif" font-size="10.00">sharp::layer_mean</text>
</a>
</g>
</g>
<!-- Node18&#45;&gt;Node23 -->
<g id="edge23" class="edge">
<title>Node18&#45;&gt;Node23</title>
<path fill="none" stroke="#63b8ff" d="M594.07,-609.86C582.1,-599.15 568.82,-585.35 560,-570.5 530.69,-521.16 565.62,-486.01 524,-446.5 516.25,-439.14 506.21,-434.45 495.85,-431.5"/>
<polygon fill="#63b8ff" stroke="#63b8ff" points="591.83,-612.54 601.68,-616.43 596.4,-607.24 591.83,-612.54"/>
</g>
<!-- Node27 -->
<g id="node26" class="node">
<title>Node27</title>
<g id="a_node26"><a xlink:href="layer__wrap_8cpp.html#aedfe40469a1e381572599fb09d5f0406" target="_top" xlink:title=" ">
<polygon fill="white" stroke="#666666" points="521,-598 363,-598 363,-579 521,-579 521,-598"/>
<text text-anchor="middle" x="442" y="-586" font-family="Helvetica,sans-Serif" font-size="10.00">sharp_HeightLayer_integrate</text>
</a>
</g>
</g>
<!-- Node18&#45;&gt;Node27 -->
<g id="edge28" class="edge">
<title>Node18&#45;&gt;Node27</title>
<path fill="none" stroke="#63b8ff" d="M551.11,-614.07C541.99,-611.85 532.78,-609.61 524,-607.5 511.08,-604.39 496.98,-601.07 484.23,-598.08"/>
<polygon fill="#63b8ff" stroke="#63b8ff" points="550.39,-617.5 560.93,-616.48 552.05,-610.7 550.39,-617.5"/>
</g>
<!-- Node28 -->
<g id="node27" class="node">
<title>Node28</title>
<g id="a_node27"><a xlink:href="layer__wrap_8cpp.html#a162c242638de7fc2a22b915d14c587db" target="_top" xlink:title=" ">
<polygon fill="white" stroke="#666666" points="501,-646.5 383,-646.5 383,-616.5 501,-616.5 501,-646.5"/>
<text text-anchor="start" x="391" y="-634.5" font-family="Helvetica,sans-Serif" font-size="10.00">sharp_PressureLayer</text>
<text text-anchor="middle" x="442" y="-623.5" font-family="Helvetica,sans-Serif" font-size="10.00">_integrate</text>
</a>
</g>
</g>
<!-- Node18&#45;&gt;Node28 -->
<g id="edge29" class="edge">
<title>Node18&#45;&gt;Node28</title>
<path fill="none" stroke="#63b8ff" d="M549.64,-631.5C533.55,-631.5 516.68,-631.5 501.23,-631.5"/>
<polygon fill="#63b8ff" stroke="#63b8ff" points="550.07,-635 560.07,-631.5 550.07,-628 550.07,-635"/>
</g>
<!-- Node20 -->
<g id="node20" class="node">
<title>Node20</title>
<g id="a_node20"><a xlink:href="namespacesharp.html#a2e6b7cd4a3594a8f2c2050b0e4784cce" target="_top" xlink:title="Computes the Effective Inflow Layer for a given atmospheric sounding.">
<polygon fill="#fff0f0" stroke="red" points="312,-1123.5 185,-1123.5 185,-1093.5 312,-1093.5 312,-1123.5"/>
<text text-anchor="start" x="193" y="-1111.5" font-family="Helvetica,sans-Serif" font-size="10.00">sharp::effective_inflow</text>
<text text-anchor="middle" x="248.5" y="-1100.5" font-family="Helvetica,sans-Serif" font-size="10.00">_layer</text>
</a>
</g>
</g>
<!-- Node19&#45;&gt;Node20 -->
<g id="edge20" class="edge">
<title>Node19&#45;&gt;Node20</title>
<path fill="none" stroke="#63b8ff" d="M364.68,-1094.06C347.25,-1096.25 328.91,-1098.55 312.13,-1100.65"/>
<polygon fill="#63b8ff" stroke="#63b8ff" points="365.34,-1097.51 374.83,-1092.79 364.47,-1090.56 365.34,-1097.51"/>
</g>
<!-- Node22 -->
<g id="node21" class="node">
<title>Node22</title>
<g id="a_node21"><a xlink:href="structsharp_1_1Parcel.html#aa258d27992d22d8b80cb221e6e2a6c19" target="_top" xlink:title="Construct and return a most&#45;unstable Parcel.">
<polygon fill="white" stroke="#666666" points="303.5,-1075.5 193.5,-1075.5 193.5,-1045.5 303.5,-1045.5 303.5,-1075.5"/>
<text text-anchor="start" x="201.5" y="-1063.5" font-family="Helvetica,sans-Serif" font-size="10.00">sharp::Parcel::most</text>
<text text-anchor="middle" x="248.5" y="-1052.5" font-family="Helvetica,sans-Serif" font-size="10.00">_unstable_parcel</text>
</a>
</g>
</g>
<!-- Node19&#45;&gt;Node22 -->
<g id="edge21" class="edge">
<title>Node19&#45;&gt;Node22</title>
<path fill="none" stroke="#63b8ff" d="M364.89,-1074.96C344.4,-1072.39 322.65,-1069.67 303.63,-1067.28"/>
<polygon fill="#63b8ff" stroke="#63b8ff" points="364.47,-1078.44 374.83,-1076.21 365.34,-1071.49 364.47,-1078.44"/>
</g>
<!-- Node23&#45;&gt;Node4 -->
<g id="edge24" class="edge">
<title>Node23&#45;&gt;Node4</title>
<path fill="none" stroke="#63b8ff" d="M378.68,-435.31C371.87,-438.07 365.44,-441.71 360,-446.5 325.78,-476.59 348.48,-504.07 324,-542.5 306.53,-569.93 277.87,-595.56 261.66,-608.91"/>
<polygon fill="#63b8ff" stroke="#63b8ff" points="379.82,-438.62 388.14,-432.07 377.55,-432 379.82,-438.62"/>
</g>
<!-- Node23&#45;&gt;Node24 -->
<g id="edge25" class="edge">
<title>Node23&#45;&gt;Node24</title>
<path fill="none" stroke="#63b8ff" d="M378.78,-416.7C372.24,-414.46 365.85,-411.76 360,-408.5 340.23,-397.5 342.8,-385.09 324,-372.5 314.8,-366.34 304.19,-361.04 293.91,-356.64"/>
<polygon fill="#63b8ff" stroke="#63b8ff" points="377.83,-420.07 388.42,-419.66 379.89,-413.38 377.83,-420.07"/>
</g>
<!-- Node25 -->
<g id="node24" class="node">
<title>Node25</title>
<g id="a_node24"><a xlink:href="layer__wrap_8cpp.html#aed1a796336a18c40e0bf51019b76e09a" target="_top" xlink:title=" ">
<polygon fill="white" stroke="#666666" points="319,-437 178,-437 178,-418 319,-418 319,-437"/>
<text text-anchor="middle" x="248.5" y="-425" font-family="Helvetica,sans-Serif" font-size="10.00">sharp_HeightLayer_mean</text>
</a>
</g>
</g>
<!-- Node23&#45;&gt;Node25 -->
<g id="edge26" class="edge">
<title>Node23&#45;&gt;Node25</title>
<path fill="none" stroke="#63b8ff" d="M378.16,-427.5C359.29,-427.5 338.48,-427.5 319.2,-427.5"/>
<polygon fill="#63b8ff" stroke="#63b8ff" points="378.42,-431 388.42,-427.5 378.42,-424 378.42,-431"/>
</g>
<!-- Node26 -->
<g id="node25" class="node">
<title>Node26</title>
<g id="a_node25"><a xlink:href="layer__wrap_8cpp.html#acb9a81d9a712786d81c427d428eefd0a" target="_top" xlink:title=" ">
<polygon fill="white" stroke="#666666" points="324,-400 173,-400 173,-381 324,-381 324,-400"/>
<text text-anchor="middle" x="248.5" y="-388" font-family="Helvetica,sans-Serif" font-size="10.00">sharp_PressureLayer_mean</text>
</a>
</g>
</g>
<!-- Node23&#45;&gt;Node26 -->
<g id="edge27" class="edge">
<title>Node23&#45;&gt;Node26</title>
<path fill="none" stroke="#63b8ff" d="M381.75,-416.05C355.2,-410.92 324.26,-404.94 298.98,-400.06"/>
<polygon fill="#63b8ff" stroke="#63b8ff" points="381.2,-419.51 391.68,-417.97 382.53,-412.64 381.2,-419.51"/>
</g>
<!-- Node30 -->
<g id="node29" class="node">
<title>Node30</title>
<g id="a_node29"><a xlink:href="namespacesharp.html#aa4e86da659bfca2eae1f0baddb84a303" target="_top" xlink:title="compute the lapse rate over the given sharp::PressureLayer">
<polygon fill="white" stroke="#666666" points="492.5,-846 391.5,-846 391.5,-827 492.5,-827 492.5,-846"/>
<text text-anchor="middle" x="442" y="-834" font-family="Helvetica,sans-Serif" font-size="10.00">sharp::lapse_rate</text>
</a>
</g>
</g>
<!-- Node29&#45;&gt;Node30 -->
<g id="edge31" class="edge">
<title>Node29&#45;&gt;Node30</title>
<path fill="none" stroke="#63b8ff" d="M598.85,-105.43C584.98,-116.59 568.33,-132.81 560,-151.5 503.09,-279.18 591.93,-657.33 524,-779.5 511.47,-802.04 485.81,-817.74 466.71,-826.87"/>
<polygon fill="#63b8ff" stroke="#63b8ff" points="601.22,-108.03 607.03,-99.17 596.96,-102.47 601.22,-108.03"/>
</g>
<!-- Node31 -->
<g id="node30" class="node">
<title>Node31</title>
<g id="a_node30"><a xlink:href="namespacesharp.html#abd0d1a28608e145c455ace03e787e33b" target="_top" xlink:title="Find the maximum lapse rate within a specified layer/depth (AGL).">
<polygon fill="white" stroke="#666666" points="506,-56 378,-56 378,-37 506,-37 506,-56"/>
<text text-anchor="middle" x="442" y="-44" font-family="Helvetica,sans-Serif" font-size="10.00">sharp::lapse_rate_max</text>
</a>
</g>
</g>
<!-- Node29&#45;&gt;Node31 -->
<g id="edge32" class="edge">
<title>Node29&#45;&gt;Node31</title>
<path fill="none" stroke="#63b8ff" d="M573.09,-77.47C557.43,-73.61 539.99,-69.34 524,-65.5 511.08,-62.39 496.98,-59.07 484.23,-56.08"/>
<polygon fill="#63b8ff" stroke="#63b8ff" points="572.54,-80.94 583.09,-79.94 574.22,-74.15 572.54,-80.94"/>
</g>
<!-- Node32 -->
<g id="node31" class="node">
<title>Node32</title>
<g id="a_node31"><a xlink:href="thermo__wrap_8cpp.html#a56e4699ce7fd1603ff1957e72c07d367" target="_top" xlink:title=" ">
<polygon fill="white" stroke="#666666" points="524,-19 360,-19 360,0 524,0 524,-19"/>
<text text-anchor="middle" x="442" y="-7" font-family="Helvetica,sans-Serif" font-size="10.00">sharp_HeightLayer_lapse_rate</text>
</a>
</g>
</g>
<!-- Node29&#45;&gt;Node32 -->
<g id="edge33" class="edge">
<title>Node29&#45;&gt;Node32</title>
<path fill="none" stroke="#63b8ff" d="M601.19,-73.59C582.23,-59.49 552.64,-39.36 524,-27.5 515.88,-24.14 507.03,-21.36 498.26,-19.07"/>
<polygon fill="#63b8ff" stroke="#63b8ff" points="599.26,-76.52 609.35,-79.77 603.49,-70.94 599.26,-76.52"/>
</g>
<!-- Node33 -->
<g id="node32" class="node">
<title>Node33</title>
<g id="a_node32"><a xlink:href="thermo__wrap_8cpp.html#aa9e6b801be3431516421ca34cab2ba95" target="_top" xlink:title=" ">
<polygon fill="white" stroke="#666666" points="501,-104.5 383,-104.5 383,-74.5 501,-74.5 501,-104.5"/>
<text text-anchor="start" x="391" y="-92.5" font-family="Helvetica,sans-Serif" font-size="10.00">sharp_PressureLayer</text>
<text text-anchor="middle" x="442" y="-81.5" font-family="Helvetica,sans-Serif" font-size="10.00">_lapse_rate</text>
</a>
</g>
</g>
<!-- Node29&#45;&gt;Node33 -->
<g id="edge34" class="edge">
<title>Node29&#45;&gt;Node33</title>
<path fill="none" stroke="#63b8ff" d="M561.53,-89.5C542.11,-89.5 520.6,-89.5 501.3,-89.5"/>
<polygon fill="#63b8ff" stroke="#63b8ff" points="561.78,-93 571.78,-89.5 561.78,-86 561.78,-93"/>
</g>
<!-- Node35 -->
<g id="node34" class="node">
<title>Node35</title>
<g id="a_node34"><a xlink:href="namespacesharp.html#a6170e3f412ab95b3ba8d9a93ae55dc67" target="_top" xlink:title="Returns the maximim value in the given layer.">
<polygon fill="white" stroke="#666666" points="492.5,-228 391.5,-228 391.5,-209 492.5,-209 492.5,-228"/>
<text text-anchor="middle" x="442" y="-216" font-family="Helvetica,sans-Serif" font-size="10.00">sharp::layer_max</text>
</a>
</g>
</g>
<!-- Node34&#45;&gt;Node35 -->
<g id="edge36" class="edge">
<title>Node34&#45;&gt;Node35</title>
<path fill="none" stroke="#63b8ff" d="M565.61,-243.92C541.02,-238.82 512.48,-232.9 489.12,-228.06"/>
<polygon fill="#63b8ff" stroke="#63b8ff" points="565.03,-247.37 575.53,-245.97 566.45,-240.51 565.03,-247.37"/>
</g>
<!-- Node38 -->
<g id="node37" class="node">
<title>Node38</title>
<g id="a_node37"><a xlink:href="namespacesharp.html#a01a9880c937f63e551893797253da4f7" target="_top" xlink:title="Returns the minimum value in the given layer.">
<polygon fill="white" stroke="#666666" points="491,-265 393,-265 393,-246 491,-246 491,-265"/>
<text text-anchor="middle" x="442" y="-253" font-family="Helvetica,sans-Serif" font-size="10.00">sharp::layer_min</text>
</a>
</g>
</g>
<!-- Node34&#45;&gt;Node38 -->
<g id="edge39" class="edge">
<title>Node34&#45;&gt;Node38</title>
<path fill="none" stroke="#63b8ff" d="M551.91,-255.5C531.61,-255.5 509.87,-255.5 491.2,-255.5"/>
<polygon fill="#63b8ff" stroke="#63b8ff" points="552.06,-259 562.06,-255.5 552.06,-252 552.06,-259"/>
</g>
<!-- Node36 -->
<g id="node35" class="node">
<title>Node36</title>
<g id="a_node35"><a xlink:href="layer__wrap_8cpp.html#aff049d2f08d0ca532b51ee39dfeff547" target="_top" xlink:title=" ">
<polygon fill="white" stroke="#666666" points="316,-228 181,-228 181,-209 316,-209 316,-228"/>
<text text-anchor="middle" x="248.5" y="-216" font-family="Helvetica,sans-Serif" font-size="10.00">sharp_HeightLayer_max</text>
</a>
</g>
</g>
<!-- Node35&#45;&gt;Node36 -->
<g id="edge37" class="edge">
<title>Node35&#45;&gt;Node36</title>
<path fill="none" stroke="#63b8ff" d="M380.97,-218.5C360.34,-218.5 337.13,-218.5 316.01,-218.5"/>
<polygon fill="#63b8ff" stroke="#63b8ff" points="381.19,-222 391.19,-218.5 381.19,-215 381.19,-222"/>
</g>
<!-- Node37 -->
<g id="node36" class="node">
<title>Node37</title>
<g id="a_node36"><a xlink:href="layer__wrap_8cpp.html#af26d1ab7a5b701ce5e076ff2a0ef3955" target="_top" xlink:title=" ">
<polygon fill="white" stroke="#666666" points="321,-191 176,-191 176,-172 321,-172 321,-191"/>
<text text-anchor="middle" x="248.5" y="-179" font-family="Helvetica,sans-Serif" font-size="10.00">sharp_PressureLayer_max</text>
</a>
</g>
</g>
<!-- Node35&#45;&gt;Node37 -->
<g id="edge38" class="edge">
<title>Node35&#45;&gt;Node37</title>
<path fill="none" stroke="#63b8ff" d="M381.75,-207.05C355.2,-201.92 324.26,-195.94 298.98,-191.06"/>
<polygon fill="#63b8ff" stroke="#63b8ff" points="381.2,-210.51 391.68,-208.97 382.53,-203.64 381.2,-210.51"/>
</g>
<!-- Node39 -->
<g id="node38" class="node">
<title>Node39</title>
<g id="a_node38"><a xlink:href="layer__wrap_8cpp.html#a1b669cfe5d14a85dc16aa2ec7b19f914" target="_top" xlink:title=" ">
<polygon fill="white" stroke="#666666" points="314.5,-302 182.5,-302 182.5,-283 314.5,-283 314.5,-302"/>
<text text-anchor="middle" x="248.5" y="-290" font-family="Helvetica,sans-Serif" font-size="10.00">sharp_HeightLayer_min</text>
</a>
</g>
</g>
<!-- Node38&#45;&gt;Node39 -->
<g id="edge40" class="edge">
<title>Node38&#45;&gt;Node39</title>
<path fill="none" stroke="#63b8ff" d="M382.65,-266.77C355.85,-271.95 324.41,-278.03 298.81,-282.97"/>
<polygon fill="#63b8ff" stroke="#63b8ff" points="383.52,-270.17 392.68,-264.84 382.19,-263.3 383.52,-270.17"/>
</g>
<!-- Node40 -->
<g id="node39" class="node">
<title>Node40</title>
<g id="a_node39"><a xlink:href="layer__wrap_8cpp.html#aa9e2591b56d47f5caa08217690927b49" target="_top" xlink:title=" ">
<polygon fill="white" stroke="#666666" points="319.5,-265 177.5,-265 177.5,-246 319.5,-246 319.5,-265"/>
<text text-anchor="middle" x="248.5" y="-253" font-family="Helvetica,sans-Serif" font-size="10.00">sharp_PressureLayer_min</text>
</a>
</g>
</g>
<!-- Node38&#45;&gt;Node40 -->
<g id="edge41" class="edge">
<title>Node38&#45;&gt;Node40</title>
<path fill="none" stroke="#63b8ff" d="M382.53,-255.5C362.64,-255.5 340.21,-255.5 319.52,-255.5"/>
<polygon fill="#63b8ff" stroke="#63b8ff" points="382.68,-259 392.68,-255.5 382.68,-252 382.68,-259"/>
</g>
<!-- Node43 -->
<g id="node42" class="node">
<title>Node43</title>
<g id="a_node42"><a xlink:href="winds__wrap_8cpp.html#a1c0e9a86e60d26bf1e2d1cedff36c601" target="_top" xlink:title=" ">
<polygon fill="white" stroke="#666666" points="510.5,-351.5 373.5,-351.5 373.5,-321.5 510.5,-321.5 510.5,-351.5"/>
<text text-anchor="start" x="381.5" y="-339.5" font-family="Helvetica,sans-Serif" font-size="10.00">sharp_HeightLayer_wind</text>
<text text-anchor="middle" x="442" y="-328.5" font-family="Helvetica,sans-Serif" font-size="10.00">_shear</text>
</a>
</g>
</g>
<!-- Node42&#45;&gt;Node43 -->
<g id="edge45" class="edge">
<title>Node42&#45;&gt;Node43</title>
<path fill="none" stroke="#63b8ff" d="M559.71,-352.85C543.92,-350.63 526.87,-348.25 510.8,-346"/>
<polygon fill="#63b8ff" stroke="#63b8ff" points="559.48,-356.35 569.87,-354.27 560.45,-349.42 559.48,-356.35"/>
</g>
<!-- Node44 -->
<g id="node43" class="node">
<title>Node44</title>
<g id="a_node43"><a xlink:href="winds__wrap_8cpp.html#a3eac778ad96a01cf68ea55e502520a9c" target="_top" xlink:title=" ">
<polygon fill="white" stroke="#666666" points="501,-399.5 383,-399.5 383,-369.5 501,-369.5 501,-399.5"/>
<text text-anchor="start" x="391" y="-387.5" font-family="Helvetica,sans-Serif" font-size="10.00">sharp_PressureLayer</text>
<text text-anchor="middle" x="442" y="-376.5" font-family="Helvetica,sans-Serif" font-size="10.00">_wind_shear</text>
</a>
</g>
</g>
<!-- Node42&#45;&gt;Node44 -->
<g id="edge46" class="edge">
<title>Node42&#45;&gt;Node44</title>
<path fill="none" stroke="#63b8ff" d="M559.81,-369.45C540.77,-371.9 519.88,-374.59 501.1,-377.01"/>
<polygon fill="#63b8ff" stroke="#63b8ff" points="560.4,-372.9 569.87,-368.15 559.51,-365.96 560.4,-372.9"/>
</g>
<!-- Node45&#45;&gt;Node4 -->
<g id="edge48" class="edge">
<title>Node45&#45;&gt;Node4</title>
<path fill="none" stroke="#63b8ff" d="M753.17,-747.37C681.34,-779.17 492.81,-849.43 360,-779.5 296.41,-746.02 262.36,-657.58 252.53,-628.17"/>
<polygon fill="#63b8ff" stroke="#63b8ff" points="754.84,-750.46 762.51,-743.15 751.96,-744.08 754.84,-750.46"/>
</g>
<!-- Node45&#45;&gt;Node12 -->
<g id="edge64" class="edge">
<title>Node45&#45;&gt;Node12</title>
<path fill="none" stroke="#63b8ff" d="M764.77,-750.13C725.27,-786 625.45,-870.07 524,-903.5 452.16,-927.17 364.25,-929.6 307.58,-928.01"/>
<polygon fill="#63b8ff" stroke="#63b8ff" points="767.27,-752.59 772.27,-743.25 762.54,-747.44 767.27,-752.59"/>
</g>
<!-- Node45&#45;&gt;Node13 -->
<g id="edge51" class="edge">
<title>Node45&#45;&gt;Node13</title>
<path fill="none" stroke="#63b8ff" d="M710.16,-733.5C695,-733.5 679.49,-733.5 665.86,-733.5"/>
<polygon fill="#63b8ff" stroke="#63b8ff" points="710.57,-737 720.57,-733.5 710.57,-730 710.57,-737"/>
</g>
<!-- Node45&#45;&gt;Node18 -->
<g id="edge52" class="edge">
<title>Node45&#45;&gt;Node18</title>
<path fill="none" stroke="#63b8ff" d="M758.94,-718.39C728.84,-699.07 677.03,-665.84 646.97,-646.55"/>
<polygon fill="#63b8ff" stroke="#63b8ff" points="757.23,-721.45 767.54,-723.9 761.01,-715.56 757.23,-721.45"/>
</g>
<!-- Node45&#45;&gt;Node34 -->
<g id="edge53" class="edge">
<title>Node45&#45;&gt;Node34</title>
<path fill="none" stroke="#63b8ff" d="M780.12,-713.56C772.56,-654.66 745.9,-477.17 685,-343.5 670.78,-312.29 645.23,-280.48 631.98,-265.06"/>
<polygon fill="#63b8ff" stroke="#63b8ff" points="776.68,-714.22 781.39,-723.72 783.63,-713.36 776.68,-714.22"/>
</g>
<!-- Node45&#45;&gt;Node42 -->
<g id="edge65" class="edge">
<title>Node45&#45;&gt;Node42</title>
<path fill="none" stroke="#63b8ff" d="M774.39,-714.52C745.56,-647.07 648.63,-420.3 627.56,-371.01"/>
<polygon fill="#63b8ff" stroke="#63b8ff" points="771.26,-716.11 778.41,-723.93 777.7,-713.36 771.26,-716.11"/>
</g>
<!-- Node46 -->
<g id="node45" class="node">
<title>Node46</title>
<g id="a_node45"><a xlink:href="structsharp_1_1Parcel.html#a8a311e09b1d46a829212da94cf181537" target="_top" xlink:title="Find the LFC and EL that bounds the layer with the maximum CAPE.">
<polygon fill="white" stroke="#666666" points="674,-1082.5 571,-1082.5 571,-1052.5 674,-1052.5 674,-1082.5"/>
<text text-anchor="start" x="579" y="-1070.5" font-family="Helvetica,sans-Serif" font-size="10.00">sharp::Parcel::find</text>
<text text-anchor="middle" x="622.5" y="-1059.5" font-family="Helvetica,sans-Serif" font-size="10.00">_lfc_el</text>
</a>
</g>
</g>
<!-- Node45&#45;&gt;Node46 -->
<g id="edge49" class="edge">
<title>Node45&#45;&gt;Node46</title>
<path fill="none" stroke="#63b8ff" d="M780.45,-753.44C774.36,-804.16 752.35,-940.21 685,-1027.5 677.14,-1037.68 665.91,-1046.06 655.19,-1052.47"/>
<polygon fill="#63b8ff" stroke="#63b8ff" points="783.97,-753.54 781.6,-743.21 777.01,-752.75 783.97,-753.54"/>
</g>
<!-- Node47 -->
<g id="node46" class="node">
<title>Node47</title>
<g id="a_node46"><a xlink:href="namespacesharp.html#a3c8b9022103d067f30281d68fa81cbda" target="_top" xlink:title="Compute the mean wind over the given sharp::PressureLayer.">
<polygon fill="white" stroke="#666666" points="675.5,-561 569.5,-561 569.5,-542 675.5,-542 675.5,-561"/>
<text text-anchor="middle" x="622.5" y="-549" font-family="Helvetica,sans-Serif" font-size="10.00">sharp::mean_wind</text>
</a>
</g>
</g>
<!-- Node45&#45;&gt;Node47 -->
<g id="edge54" class="edge">
<title>Node45&#45;&gt;Node47</title>
<path fill="none" stroke="#63b8ff" d="M770.2,-715.67C752.53,-690.53 718.42,-643.7 685,-607.5 668.94,-590.1 648.22,-572.01 635.4,-561.26"/>
<polygon fill="#63b8ff" stroke="#63b8ff" points="767.34,-717.68 775.93,-723.89 773.08,-713.68 767.34,-717.68"/>
</g>
<!-- Node49 -->
<g id="node48" class="node">
<title>Node49</title>
<g id="a_node48"><a xlink:href="namespacesharp.html#a31da980f398c9f6a5960ddf868101a94" target="_top" xlink:title="Converts a sharp::PressureLayer to a sharp::HeightLayer.">
<polygon fill="white" stroke="#666666" points="683.5,-1018.5 561.5,-1018.5 561.5,-988.5 683.5,-988.5 683.5,-1018.5"/>
<text text-anchor="start" x="569.5" y="-1006.5" font-family="Helvetica,sans-Serif" font-size="10.00">sharp::pressure_layer</text>
<text text-anchor="middle" x="622.5" y="-995.5" font-family="Helvetica,sans-Serif" font-size="10.00">_to_height</text>
</a>
</g>
</g>
<!-- Node45&#45;&gt;Node49 -->
<g id="edge57" class="edge">
<title>Node45&#45;&gt;Node49</title>
<path fill="none" stroke="#63b8ff" d="M780.04,-753.4C773.33,-799.42 750.6,-914.25 685,-979.5 681.59,-982.89 677.64,-985.82 673.42,-988.34"/>
<polygon fill="#63b8ff" stroke="#63b8ff" points="783.51,-753.86 781.39,-743.48 776.57,-752.92 783.51,-753.86"/>
</g>
<!-- Node51 -->
<g id="node50" class="node">
<title>Node51</title>
<g id="a_node50"><a xlink:href="interp__wrap_8cpp.html#aa5d2319f0bc3f96d2bd4d29c52385950" target="_top" xlink:title=" ">
<polygon fill="white" stroke="#666666" points="685,-970 560,-970 560,-951 685,-951 685,-970"/>
<text text-anchor="middle" x="622.5" y="-958" font-family="Helvetica,sans-Serif" font-size="10.00">sharp_interp_pressure</text>
</a>
</g>
</g>
<!-- Node45&#45;&gt;Node51 -->
<g id="edge63" class="edge">
<title>Node45&#45;&gt;Node51</title>
<path fill="none" stroke="#63b8ff" d="M778.28,-752.82C768.64,-792.6 741.35,-884.26 685,-936.5 678.28,-942.73 669.75,-947.41 661.2,-950.91"/>
<polygon fill="#63b8ff" stroke="#63b8ff" points="781.7,-753.59 780.54,-743.06 774.88,-752.01 781.7,-753.59"/>
</g>
<!-- Node46&#45;&gt;Node19 -->
<g id="edge50" class="edge">
<title>Node46&#45;&gt;Node19</title>
<path fill="none" stroke="#63b8ff" d="M560.7,-1073.29C544.11,-1074.87 526.04,-1076.59 509.16,-1078.2"/>
<polygon fill="#63b8ff" stroke="#63b8ff" points="561.2,-1076.76 570.83,-1072.33 560.54,-1069.79 561.2,-1076.76"/>
</g>
<!-- Node47&#45;&gt;Node9 -->
<g id="edge56" class="edge">
<title>Node47&#45;&gt;Node9</title>
<path fill="none" stroke="#63b8ff" d="M591.04,-537.68C559.15,-523.21 509.21,-500.54 476.29,-485.61"/>
<polygon fill="#63b8ff" stroke="#63b8ff" points="589.77,-540.95 600.32,-541.89 592.66,-534.57 589.77,-540.95"/>
</g>
<!-- Node48 -->
<g id="node47" class="node">
<title>Node48</title>
<g id="a_node47"><a xlink:href="winds__wrap_8cpp.html#a9995026cf811a9d4ec86b568b3201e63" target="_top" xlink:title=" ">
<polygon fill="white" stroke="#666666" points="494.5,-561 389.5,-561 389.5,-542 494.5,-542 494.5,-561"/>
<text text-anchor="middle" x="442" y="-549" font-family="Helvetica,sans-Serif" font-size="10.00">sharp_mean_wind</text>
</a>
</g>
</g>
<!-- Node47&#45;&gt;Node48 -->
<g id="edge55" class="edge">
<title>Node47&#45;&gt;Node48</title>
<path fill="none" stroke="#63b8ff" d="M559.22,-551.5C538.1,-551.5 514.75,-551.5 494.56,-551.5"/>
<polygon fill="#63b8ff" stroke="#63b8ff" points="559.39,-555 569.39,-551.5 559.39,-548 559.39,-555"/>
</g>
<!-- Node49&#45;&gt;Node4 -->
<g id="edge59" class="edge">
<title>Node49&#45;&gt;Node4</title>
<path fill="none" stroke="#63b8ff" d="M557.67,-985.61C489.87,-965.5 388.57,-931.93 360,-903.5 317.69,-861.38 264.39,-673.14 252.11,-628.17"/>
<polygon fill="#63b8ff" stroke="#63b8ff" points="556.84,-989.01 567.42,-988.48 558.82,-982.3 556.84,-989.01"/>
</g>
<!-- Node49&#45;&gt;Node12 -->
<g id="edge62" class="edge">
<title>Node49&#45;&gt;Node12</title>
<path fill="none" stroke="#63b8ff" d="M570.28,-1021.52C516.11,-1037.58 429.09,-1054.71 360,-1027.5 314.86,-1009.72 277.25,-963.85 259.87,-939.77"/>
<polygon fill="#63b8ff" stroke="#63b8ff" points="571.46,-1024.82 580,-1018.55 569.42,-1018.13 571.46,-1024.82"/>
</g>
<!-- Node49&#45;&gt;Node19 -->
<g id="edge58" class="edge">
<title>Node49&#45;&gt;Node19</title>
<path fill="none" stroke="#63b8ff" d="M590.42,-1024.27C571.75,-1036.08 547.2,-1050.46 524,-1060.5 510.81,-1066.21 495.85,-1071.07 482.4,-1074.88"/>
<polygon fill="#63b8ff" stroke="#63b8ff" points="592.55,-1027.06 599.08,-1018.71 588.77,-1021.17 592.55,-1027.06"/>
</g>
<!-- Node49&#45;&gt;Node30 -->
<g id="edge60" class="edge">
<title>Node49&#45;&gt;Node30</title>
<path fill="none" stroke="#63b8ff" d="M562.8,-982.31C561.83,-981.41 560.89,-980.48 560,-979.5 521.28,-937.15 565.62,-895.01 524,-855.5 515.51,-847.45 504.29,-842.59 492.91,-839.71"/>
<polygon fill="#63b8ff" stroke="#63b8ff" points="560.86,-985.23 570.94,-988.49 565.09,-979.65 560.86,-985.23"/>
</g>
<!-- Node50 -->
<g id="node49" class="node">
<title>Node50</title>
<g id="a_node49"><a xlink:href="layer__wrap_8cpp.html#ad026c34f615f290fcd838421ed3dd192" target="_top" xlink:title=" ">
<polygon fill="white" stroke="#666666" points="501,-1018.5 383,-1018.5 383,-988.5 501,-988.5 501,-1018.5"/>
<text text-anchor="start" x="391" y="-1006.5" font-family="Helvetica,sans-Serif" font-size="10.00">sharp_PressureLayer</text>
<text text-anchor="middle" x="442" y="-995.5" font-family="Helvetica,sans-Serif" font-size="10.00">_to_HeightLayer</text>
</a>
</g>
</g>
<!-- Node49&#45;&gt;Node50 -->
<g id="edge61" class="edge">
<title>Node49&#45;&gt;Node50</title>
<path fill="none" stroke="#63b8ff" d="M550.95,-1003.5C534.48,-1003.5 517.12,-1003.5 501.25,-1003.5"/>
<polygon fill="#63b8ff" stroke="#63b8ff" points="551.07,-1007 561.07,-1003.5 551.07,-1000 551.07,-1007"/>
</g>
</g>
</svg>
