<?xml version="1.0" encoding="UTF-8" standalone="no"?>
<!DOCTYPE svg PUBLIC "-//W3C//DTD SVG 1.1//EN"
 "http://www.w3.org/Graphics/SVG/1.1/DTD/svg11.dtd">
<!-- Generated by graphviz version 2.43.0 (0)
 -->
<!-- Title: sharp::vapor_pressure_ice Pages: 1 -->
<svg width="840pt" height="110pt"
 viewBox="0.00 0.00 840.00 109.50" xmlns="http://www.w3.org/2000/svg" xmlns:xlink="http://www.w3.org/1999/xlink">
<g id="graph0" class="graph" transform="scale(1 1) rotate(0) translate(4 105.5)">
<title>sharp::vapor_pressure_ice</title>
<!-- Node1 -->
<g id="node1" class="node">
<title>Node1</title>
<g id="a_node1"><a xlink:title="Compute the vapor pressure over ice.">
<polygon fill="#999999" stroke="#666666" points="832,-37 688,-37 688,-18 832,-18 832,-37"/>
<text text-anchor="middle" x="760" y="-25" font-family="Helvetica,sans-Serif" font-size="10.00">sharp::vapor_pressure_ice</text>
</a>
</g>
</g>
<!-- Node2 -->
<g id="node2" class="node">
<title>Node2</title>
<g id="a_node2"><a xlink:href="namespacesharp.html#a0ebcad18ef9939ff56f23d49c35dd04c" target="_top" xlink:title="Compute the ice water mixing ratio.">
<polygon fill="white" stroke="#666666" points="635.5,-56 525.5,-56 525.5,-37 635.5,-37 635.5,-56"/>
<text text-anchor="middle" x="580.5" y="-44" font-family="Helvetica,sans-Serif" font-size="10.00">sharp::mixratio_ice</text>
</a>
</g>
</g>
<!-- Node1&#45;&gt;Node2 -->
<g id="edge1" class="edge">
<title>Node1&#45;&gt;Node2</title>
<path fill="none" stroke="#63b8ff" d="M677.57,-36.22C663.39,-37.73 648.96,-39.28 635.74,-40.69"/>
<polygon fill="#63b8ff" stroke="#63b8ff" points="678.26,-39.66 687.83,-35.12 677.51,-32.7 678.26,-39.66"/>
</g>
<!-- Node8 -->
<g id="node8" class="node">
<title>Node8</title>
<g id="a_node8"><a xlink:href="thermo__wrap_8cpp.html#ac0d2e63a39f8d0501390e1ae61d38338" target="_top" xlink:title=" ">
<polygon fill="white" stroke="#666666" points="652,-19 509,-19 509,0 652,0 652,-19"/>
<text text-anchor="middle" x="580.5" y="-7" font-family="Helvetica,sans-Serif" font-size="10.00">sharp_vapor_pressure_ice</text>
</a>
</g>
</g>
<!-- Node1&#45;&gt;Node8 -->
<g id="edge7" class="edge">
<title>Node1&#45;&gt;Node8</title>
<path fill="none" stroke="#63b8ff" d="M677.82,-19.27C669.23,-18.4 660.56,-17.52 652.11,-16.66"/>
<polygon fill="#63b8ff" stroke="#63b8ff" points="677.52,-22.76 687.83,-20.28 678.23,-15.79 677.52,-22.76"/>
</g>
<!-- Node3 -->
<g id="node3" class="node">
<title>Node3</title>
<g id="a_node3"><a xlink:href="namespacesharp.html#a7494c22424745a8847092b64195fb9ae" target="_top" xlink:title=" ">
<polygon fill="white" stroke="#666666" points="471.5,-74 364.5,-74 364.5,-55 471.5,-55 471.5,-74"/>
<text text-anchor="middle" x="418" y="-62" font-family="Helvetica,sans-Serif" font-size="10.00">sharp::_solve_cm1</text>
</a>
</g>
</g>
<!-- Node2&#45;&gt;Node3 -->
<g id="edge2" class="edge">
<title>Node2&#45;&gt;Node3</title>
<path fill="none" stroke="#63b8ff" d="M514.86,-53.75C500.51,-55.36 485.46,-57.05 471.65,-58.6"/>
<polygon fill="#63b8ff" stroke="#63b8ff" points="515.61,-57.19 525.16,-52.59 514.83,-50.23 515.61,-57.19"/>
</g>
<!-- Node7 -->
<g id="node7" class="node">
<title>Node7</title>
<g id="a_node7"><a xlink:href="thermo__wrap_8cpp.html#ab30e4198dc286932d722c0c5841cdfc6" target="_top" xlink:title=" ">
<polygon fill="white" stroke="#666666" points="473,-37 363,-37 363,-18 473,-18 473,-37"/>
<text text-anchor="middle" x="418" y="-25" font-family="Helvetica,sans-Serif" font-size="10.00">sharp_mixratio_ice</text>
</a>
</g>
</g>
<!-- Node2&#45;&gt;Node7 -->
<g id="edge6" class="edge">
<title>Node2&#45;&gt;Node7</title>
<path fill="none" stroke="#63b8ff" d="M515.13,-38.88C501.17,-37.23 486.53,-35.49 473.01,-33.89"/>
<polygon fill="#63b8ff" stroke="#63b8ff" points="514.82,-42.37 525.16,-40.07 515.64,-35.42 514.82,-42.37"/>
</g>
<!-- Node4 -->
<g id="node4" class="node">
<title>Node4</title>
<g id="a_node4"><a xlink:href="namespacesharp.html#aa258841692c25171d3f3b2e8b1f52079" target="_top" xlink:title="Compute the temperature of a parcel lifted moist adiabatically to a new level.">
<polygon fill="white" stroke="#666666" points="327,-74 181,-74 181,-55 327,-55 327,-74"/>
<text text-anchor="middle" x="254" y="-62" font-family="Helvetica,sans-Serif" font-size="10.00">sharp::moist_adiabat_cm1</text>
</a>
</g>
</g>
<!-- Node3&#45;&gt;Node4 -->
<g id="edge3" class="edge">
<title>Node3&#45;&gt;Node4</title>
<path fill="none" stroke="#63b8ff" d="M354.15,-64.5C345.28,-64.5 336.09,-64.5 327.06,-64.5"/>
<polygon fill="#63b8ff" stroke="#63b8ff" points="354.4,-68 364.4,-64.5 354.4,-61 354.4,-68"/>
</g>
<!-- Node5 -->
<g id="node5" class="node">
<title>Node5</title>
<g id="a_node5"><a xlink:href="structsharp_1_1lifter__cm1.html#a2eeb5b118ef40e873c09ac9b3635f7b9" target="_top" xlink:title="Overloads operator() to call sharp::moist_adiabat_cm1.">
<polygon fill="white" stroke="#666666" points="124.5,-101.5 20.5,-101.5 20.5,-71.5 124.5,-71.5 124.5,-101.5"/>
<text text-anchor="start" x="28.5" y="-89.5" font-family="Helvetica,sans-Serif" font-size="10.00">sharp::lifter_cm1::</text>
<text text-anchor="middle" x="72.5" y="-78.5" font-family="Helvetica,sans-Serif" font-size="10.00">operator()</text>
</a>
</g>
</g>
<!-- Node4&#45;&gt;Node5 -->
<g id="edge4" class="edge">
<title>Node4&#45;&gt;Node5</title>
<path fill="none" stroke="#63b8ff" d="M170.55,-74.61C154.9,-76.52 138.96,-78.48 124.64,-80.23"/>
<polygon fill="#63b8ff" stroke="#63b8ff" points="171.27,-78.04 180.77,-73.35 170.41,-71.1 171.27,-78.04"/>
</g>
<!-- Node6 -->
<g id="node6" class="node">
<title>Node6</title>
<g id="a_node6"><a xlink:href="thermo__wrap_8cpp.html#aac6beaaefcb6cf02512e6a74b6ab5be7" target="_top" xlink:title=" ">
<polygon fill="white" stroke="#666666" points="145,-53 0,-53 0,-34 145,-34 145,-53"/>
<text text-anchor="middle" x="72.5" y="-41" font-family="Helvetica,sans-Serif" font-size="10.00">sharp_moist_adiabat_cm1</text>
</a>
</g>
</g>
<!-- Node4&#45;&gt;Node6 -->
<g id="edge5" class="edge">
<title>Node4&#45;&gt;Node6</title>
<path fill="none" stroke="#63b8ff" d="M170.74,-54.88C162.15,-53.87 153.46,-52.85 145,-51.87"/>
<polygon fill="#63b8ff" stroke="#63b8ff" points="170.43,-58.36 180.77,-56.05 171.24,-51.41 170.43,-58.36"/>
</g>
</g>
</svg>
