<?xml version="1.0" encoding="UTF-8" standalone="no"?>
<!DOCTYPE svg PUBLIC "-//W3C//DTD SVG 1.1//EN"
 "http://www.w3.org/Graphics/SVG/1.1/DTD/svg11.dtd">
<!-- Generated by graphviz version 2.43.0 (0)
 -->
<!-- Title: sharp::layer_mean Pages: 1 -->
<svg width="475pt" height="150pt"
 viewBox="0.00 0.00 475.00 150.00" xmlns="http://www.w3.org/2000/svg" xmlns:xlink="http://www.w3.org/1999/xlink">
<g id="graph0" class="graph" transform="scale(1 1) rotate(0) translate(4 146)">
<title>sharp::layer_mean</title>
<!-- Node1 -->
<g id="node1" class="node">
<title>Node1</title>
<g id="a_node1"><a xlink:title="Computes the mass&#45;weighted mean value of a field over a given pressure layer.">
<polygon fill="#999999" stroke="#666666" points="467,-77 360,-77 360,-58 467,-58 467,-77"/>
<text text-anchor="middle" x="413.5" y="-65" font-family="Helvetica,sans-Serif" font-size="10.00">sharp::layer_mean</text>
</a>
</g>
</g>
<!-- Node2 -->
<g id="node2" class="node">
<title>Node2</title>
<g id="a_node2"><a xlink:href="namespacesharp.html#a72bbdc4cfe7895dd51981902ac9fc822" target="_top" xlink:title="Computes Entrainment CAPE using a previously lifted parcel.">
<polygon fill="white" stroke="#666666" points="317.5,-142 179.5,-142 179.5,-123 317.5,-123 317.5,-142"/>
<text text-anchor="middle" x="248.5" y="-130" font-family="Helvetica,sans-Serif" font-size="10.00">sharp::entrainment_cape</text>
</a>
</g>
</g>
<!-- Node1&#45;&gt;Node2 -->
<g id="edge1" class="edge">
<title>Node1&#45;&gt;Node2</title>
<path fill="none" stroke="#63b8ff" d="M387.8,-82.3C370.43,-92.21 346.39,-104.96 324,-113.5 314.4,-117.16 303.83,-120.34 293.75,-123"/>
<polygon fill="#63b8ff" stroke="#63b8ff" points="389.81,-85.18 396.71,-77.13 386.3,-79.12 389.81,-85.18"/>
</g>
<!-- Node4 -->
<g id="node4" class="node">
<title>Node4</title>
<g id="a_node4"><a xlink:href="structsharp_1_1Parcel.html#a1bf670e79f35a1ce8c904b7ead32ccbe" target="_top" xlink:title="Construct and return a mixed&#45;layer Parcel.">
<polygon fill="white" stroke="#666666" points="306,-104.5 191,-104.5 191,-74.5 306,-74.5 306,-104.5"/>
<text text-anchor="start" x="199" y="-92.5" font-family="Helvetica,sans-Serif" font-size="10.00">sharp::Parcel::mixed</text>
<text text-anchor="middle" x="248.5" y="-81.5" font-family="Helvetica,sans-Serif" font-size="10.00">_layer_parcel</text>
</a>
</g>
</g>
<!-- Node1&#45;&gt;Node4 -->
<g id="edge3" class="edge">
<title>Node1&#45;&gt;Node4</title>
<path fill="none" stroke="#63b8ff" d="M349.36,-76.02C335.11,-77.95 320.06,-79.98 306.09,-81.86"/>
<polygon fill="#63b8ff" stroke="#63b8ff" points="350.14,-79.45 359.58,-74.64 349.2,-72.51 350.14,-79.45"/>
</g>
<!-- Node5 -->
<g id="node5" class="node">
<title>Node5</title>
<g id="a_node5"><a xlink:href="layer__wrap_8cpp.html#aed1a796336a18c40e0bf51019b76e09a" target="_top" xlink:title=" ">
<polygon fill="white" stroke="#666666" points="319,-56 178,-56 178,-37 319,-37 319,-56"/>
<text text-anchor="middle" x="248.5" y="-44" font-family="Helvetica,sans-Serif" font-size="10.00">sharp_HeightLayer_mean</text>
</a>
</g>
</g>
<!-- Node1&#45;&gt;Node5 -->
<g id="edge4" class="edge">
<title>Node1&#45;&gt;Node5</title>
<path fill="none" stroke="#63b8ff" d="M349.39,-59.37C339.46,-58.09 329.14,-56.76 319.07,-55.46"/>
<polygon fill="#63b8ff" stroke="#63b8ff" points="349.21,-62.88 359.58,-60.68 350.11,-55.93 349.21,-62.88"/>
</g>
<!-- Node6 -->
<g id="node6" class="node">
<title>Node6</title>
<g id="a_node6"><a xlink:href="layer__wrap_8cpp.html#acb9a81d9a712786d81c427d428eefd0a" target="_top" xlink:title=" ">
<polygon fill="white" stroke="#666666" points="324,-19 173,-19 173,0 324,0 324,-19"/>
<text text-anchor="middle" x="248.5" y="-7" font-family="Helvetica,sans-Serif" font-size="10.00">sharp_PressureLayer_mean</text>
</a>
</g>
</g>
<!-- Node1&#45;&gt;Node6 -->
<g id="edge5" class="edge">
<title>Node1&#45;&gt;Node6</title>
<path fill="none" stroke="#63b8ff" d="M383.78,-53.4C366.69,-45.37 344.43,-35.55 324,-28.5 313.78,-24.97 302.57,-21.77 292.02,-19.05"/>
<polygon fill="#63b8ff" stroke="#63b8ff" points="382.65,-56.74 393.19,-57.88 385.66,-50.42 382.65,-56.74"/>
</g>
<!-- Node3 -->
<g id="node3" class="node">
<title>Node3</title>
<g id="a_node3"><a xlink:href="convective__wrap_8cpp.html#ab0bfb728bbbf3a731c330b61a5c415ad" target="_top" xlink:title=" ">
<polygon fill="white" stroke="#666666" points="137,-142 0,-142 0,-123 137,-123 137,-142"/>
<text text-anchor="middle" x="68.5" y="-130" font-family="Helvetica,sans-Serif" font-size="10.00">sharp_entrainment_cape</text>
</a>
</g>
</g>
<!-- Node2&#45;&gt;Node3 -->
<g id="edge2" class="edge">
<title>Node2&#45;&gt;Node3</title>
<path fill="none" stroke="#63b8ff" d="M169.28,-132.5C158.6,-132.5 147.7,-132.5 137.22,-132.5"/>
<polygon fill="#63b8ff" stroke="#63b8ff" points="169.44,-136 179.44,-132.5 169.44,-129 169.44,-136"/>
</g>
</g>
</svg>
