<?xml version="1.0" encoding="UTF-8" standalone="no"?>
<!DOCTYPE svg PUBLIC "-//W3C//DTD SVG 1.1//EN"
 "http://www.w3.org/Graphics/SVG/1.1/DTD/svg11.dtd">
<!-- Generated by graphviz version 2.43.0 (0)
 -->
<!-- Title: sharp::virtual_temperature Pages: 1 -->
<svg width="509pt" height="158pt"
 viewBox="0.00 0.00 509.00 158.00" xmlns="http://www.w3.org/2000/svg" xmlns:xlink="http://www.w3.org/1999/xlink">
<g id="graph0" class="graph" transform="scale(1 1) rotate(0) translate(4 154)">
<title>sharp::virtual_temperature</title>
<!-- Node1 -->
<g id="node1" class="node">
<title>Node1</title>
<g id="a_node1"><a xlink:title="Compute the full virtual temperature.">
<polygon fill="#999999" stroke="#666666" points="501,-72.5 354,-72.5 354,-53.5 501,-53.5 501,-72.5"/>
<text text-anchor="middle" x="427.5" y="-60.5" font-family="Helvetica,sans-Serif" font-size="10.00">sharp::virtual_temperature</text>
</a>
</g>
</g>
<!-- Node2 -->
<g id="node2" class="node">
<title>Node2</title>
<g id="a_node2"><a xlink:href="structsharp_1_1Parcel.html#a9523de2b8b4c28ca49fba3013f94cb06" target="_top" xlink:title="Lifts a sharp::Parcel to compute its virtual temperature.">
<polygon fill="white" stroke="#666666" points="289.5,-126 191.5,-126 191.5,-96 289.5,-96 289.5,-126"/>
<text text-anchor="start" x="199.5" y="-114" font-family="Helvetica,sans-Serif" font-size="10.00">sharp::Parcel::lift</text>
<text text-anchor="middle" x="240.5" y="-103" font-family="Helvetica,sans-Serif" font-size="10.00">_parcel</text>
</a>
</g>
</g>
<!-- Node1&#45;&gt;Node2 -->
<g id="edge1" class="edge">
<title>Node1&#45;&gt;Node2</title>
<path fill="none" stroke="#63b8ff" d="M379.72,-75.14C352.19,-82.28 317.44,-91.3 289.67,-98.5"/>
<polygon fill="#63b8ff" stroke="#63b8ff" points="380.71,-78.5 389.51,-72.6 378.95,-71.72 380.71,-78.5"/>
</g>
<!-- Node5 -->
<g id="node5" class="node">
<title>Node5</title>
<g id="a_node5"><a xlink:href="structsharp_1_1lifter__wobus.html#a82be5bdfdff54890488bbc1461b5b05e" target="_top" xlink:title="Computes the virtual temperature of the parcel.">
<polygon fill="white" stroke="#666666" points="318,-78 163,-78 163,-48 318,-48 318,-78"/>
<text text-anchor="start" x="171" y="-66" font-family="Helvetica,sans-Serif" font-size="10.00">sharp::lifter_wobus</text>
<text text-anchor="middle" x="240.5" y="-55" font-family="Helvetica,sans-Serif" font-size="10.00">::parcel_virtual_temperature</text>
</a>
</g>
</g>
<!-- Node1&#45;&gt;Node5 -->
<g id="edge4" class="edge">
<title>Node1&#45;&gt;Node5</title>
<path fill="none" stroke="#63b8ff" d="M343.64,-63C335.15,-63 326.56,-63 318.14,-63"/>
<polygon fill="#63b8ff" stroke="#63b8ff" points="343.91,-66.5 353.91,-63 343.91,-59.5 343.91,-66.5"/>
</g>
<!-- Node6 -->
<g id="node6" class="node">
<title>Node6</title>
<g id="a_node6"><a xlink:href="structsharp_1_1lifter__cm1.html#a2fc203010e232bd969ac0b09f15c4329" target="_top" xlink:title="Computes the virtual temperature of the parcel.">
<polygon fill="white" stroke="#666666" points="315,-30 166,-30 166,0 315,0 315,-30"/>
<text text-anchor="start" x="174" y="-18" font-family="Helvetica,sans-Serif" font-size="10.00">sharp::lifter_cm1::</text>
<text text-anchor="middle" x="240.5" y="-7" font-family="Helvetica,sans-Serif" font-size="10.00">parcel_virtual_temperature</text>
</a>
</g>
</g>
<!-- Node1&#45;&gt;Node6 -->
<g id="edge5" class="edge">
<title>Node1&#45;&gt;Node6</title>
<path fill="none" stroke="#63b8ff" d="M379.79,-50.88C355.43,-44.56 325.4,-36.77 299.56,-30.06"/>
<polygon fill="#63b8ff" stroke="#63b8ff" points="378.95,-54.28 389.51,-53.4 380.71,-47.5 378.95,-54.28"/>
</g>
<!-- Node3 -->
<g id="node3" class="node">
<title>Node3</title>
<g id="a_node3"><a xlink:href="namespacesharp.html#a2e6b7cd4a3594a8f2c2050b0e4784cce" target="_top" xlink:title="Computes the Effective Inflow Layer for a given atmospheric sounding.">
<polygon fill="white" stroke="#666666" points="127,-150 0,-150 0,-120 127,-120 127,-150"/>
<text text-anchor="start" x="8" y="-138" font-family="Helvetica,sans-Serif" font-size="10.00">sharp::effective_inflow</text>
<text text-anchor="middle" x="63.5" y="-127" font-family="Helvetica,sans-Serif" font-size="10.00">_layer</text>
</a>
</g>
</g>
<!-- Node2&#45;&gt;Node3 -->
<g id="edge2" class="edge">
<title>Node2&#45;&gt;Node3</title>
<path fill="none" stroke="#63b8ff" d="M181.21,-118.99C163.83,-121.38 144.71,-124 127.07,-126.42"/>
<polygon fill="#63b8ff" stroke="#63b8ff" points="181.79,-122.45 191.22,-117.62 180.83,-115.51 181.79,-122.45"/>
</g>
<!-- Node4 -->
<g id="node4" class="node">
<title>Node4</title>
<g id="a_node4"><a xlink:href="structsharp_1_1Parcel.html#aa258d27992d22d8b80cb221e6e2a6c19" target="_top" xlink:title="Construct and return a most&#45;unstable Parcel.">
<polygon fill="white" stroke="#666666" points="118.5,-102 8.5,-102 8.5,-72 118.5,-72 118.5,-102"/>
<text text-anchor="start" x="16.5" y="-90" font-family="Helvetica,sans-Serif" font-size="10.00">sharp::Parcel::most</text>
<text text-anchor="middle" x="63.5" y="-79" font-family="Helvetica,sans-Serif" font-size="10.00">_unstable_parcel</text>
</a>
</g>
</g>
<!-- Node2&#45;&gt;Node4 -->
<g id="edge3" class="edge">
<title>Node2&#45;&gt;Node4</title>
<path fill="none" stroke="#63b8ff" d="M181.23,-103.01C161.08,-100.25 138.6,-97.16 118.79,-94.45"/>
<polygon fill="#63b8ff" stroke="#63b8ff" points="180.83,-106.49 191.22,-104.38 181.79,-99.55 180.83,-106.49"/>
</g>
</g>
</svg>
