<?xml version="1.0" encoding="UTF-8" standalone="no"?>
<!DOCTYPE svg PUBLIC "-//W3C//DTD SVG 1.1//EN"
 "http://www.w3.org/Graphics/SVG/1.1/DTD/svg11.dtd">
<!-- Generated by graphviz version 2.43.0 (0)
 -->
<!-- Title: sharp::drylift Pages: 1 -->
<svg width="566pt" height="234pt"
 viewBox="0.00 0.00 566.00 233.50" xmlns="http://www.w3.org/2000/svg" xmlns:xlink="http://www.w3.org/1999/xlink">
<g id="graph0" class="graph" transform="scale(1 1) rotate(0) translate(4 229.5)">
<title>sharp::drylift</title>
<!-- Node1 -->
<g id="node1" class="node">
<title>Node1</title>
<g id="a_node1"><a xlink:title="Lift a parcel dry adiabatically to its Lifted Condensation Level (LCL).">
<polygon fill="#999999" stroke="#666666" points="558,-111 480,-111 480,-92 558,-92 558,-111"/>
<text text-anchor="middle" x="519" y="-99" font-family="Helvetica,sans-Serif" font-size="10.00">sharp::drylift</text>
</a>
</g>
</g>
<!-- Node2 -->
<g id="node2" class="node">
<title>Node2</title>
<g id="a_node2"><a xlink:href="structsharp_1_1Parcel.html#a9523de2b8b4c28ca49fba3013f94cb06" target="_top" xlink:title="Lifts a sharp::Parcel to compute its virtual temperature.">
<polygon fill="white" stroke="#666666" points="433.5,-196.5 335.5,-196.5 335.5,-166.5 433.5,-166.5 433.5,-196.5"/>
<text text-anchor="start" x="343.5" y="-184.5" font-family="Helvetica,sans-Serif" font-size="10.00">sharp::Parcel::lift</text>
<text text-anchor="middle" x="384.5" y="-173.5" font-family="Helvetica,sans-Serif" font-size="10.00">_parcel</text>
</a>
</g>
</g>
<!-- Node1&#45;&gt;Node2 -->
<g id="edge1" class="edge">
<title>Node1&#45;&gt;Node2</title>
<path fill="none" stroke="#63b8ff" d="M499.41,-117.73C484.98,-129.77 464.12,-146.02 444,-157.5 438.37,-160.71 432.23,-163.72 426.12,-166.44"/>
<polygon fill="#63b8ff" stroke="#63b8ff" points="501.74,-120.34 507.1,-111.19 497.21,-115 501.74,-120.34"/>
</g>
<!-- Node6 -->
<g id="node6" class="node">
<title>Node6</title>
<g id="a_node6"><a xlink:href="thermo__wrap_8cpp.html#a977ee5735b66a0a0b9d74f3325a0041e" target="_top" xlink:title=" ">
<polygon fill="white" stroke="#666666" points="423,-148 346,-148 346,-129 423,-129 423,-148"/>
<text text-anchor="middle" x="384.5" y="-136" font-family="Helvetica,sans-Serif" font-size="10.00">sharp_drylift</text>
</a>
</g>
</g>
<!-- Node1&#45;&gt;Node6 -->
<g id="edge5" class="edge">
<title>Node1&#45;&gt;Node6</title>
<path fill="none" stroke="#63b8ff" d="M473.86,-113.83C456.31,-118.73 436.42,-124.28 419.97,-128.88"/>
<polygon fill="#63b8ff" stroke="#63b8ff" points="475.19,-117.09 483.88,-111.03 473.31,-110.35 475.19,-117.09"/>
</g>
<!-- Node7 -->
<g id="node7" class="node">
<title>Node7</title>
<g id="a_node7"><a xlink:href="namespacesharp.html#a5e3156aa7f5bafbd908184c7f51927ee" target="_top" xlink:title="Compute the wetbulb potential temperature.">
<polygon fill="white" stroke="#666666" points="444,-111 325,-111 325,-92 444,-92 444,-111"/>
<text text-anchor="middle" x="384.5" y="-99" font-family="Helvetica,sans-Serif" font-size="10.00">sharp::theta_wetbulb</text>
</a>
</g>
</g>
<!-- Node1&#45;&gt;Node7 -->
<g id="edge6" class="edge">
<title>Node1&#45;&gt;Node7</title>
<path fill="none" stroke="#63b8ff" d="M469.58,-101.5C461.42,-101.5 452.86,-101.5 444.46,-101.5"/>
<polygon fill="#63b8ff" stroke="#63b8ff" points="469.68,-105 479.68,-101.5 469.68,-98 469.68,-105"/>
</g>
<!-- Node9 -->
<g id="node9" class="node">
<title>Node9</title>
<g id="a_node9"><a xlink:href="namespacesharp.html#ab06f16aa1caac3136e863db8cd61e2e9" target="_top" xlink:title="Compute the equivalent potential temperature.">
<polygon fill="white" stroke="#666666" points="425,-56 344,-56 344,-37 425,-37 425,-56"/>
<text text-anchor="middle" x="384.5" y="-44" font-family="Helvetica,sans-Serif" font-size="10.00">sharp::thetae</text>
</a>
</g>
</g>
<!-- Node1&#45;&gt;Node9 -->
<g id="edge8" class="edge">
<title>Node1&#45;&gt;Node9</title>
<path fill="none" stroke="#63b8ff" d="M485.59,-88.05C461.8,-78.17 430.06,-65 408.76,-56.16"/>
<polygon fill="#63b8ff" stroke="#63b8ff" points="484.34,-91.32 494.92,-91.92 487.03,-84.85 484.34,-91.32"/>
</g>
<!-- Node11 -->
<g id="node11" class="node">
<title>Node11</title>
<g id="a_node11"><a xlink:href="namespacesharp.html#accda9c75278f1a32978bbfd662492822" target="_top" xlink:title="Compute the wetbulb temperature.">
<polygon fill="white" stroke="#666666" points="429,-19 340,-19 340,0 429,0 429,-19"/>
<text text-anchor="middle" x="384.5" y="-7" font-family="Helvetica,sans-Serif" font-size="10.00">sharp::wetbulb</text>
</a>
</g>
</g>
<!-- Node1&#45;&gt;Node11 -->
<g id="edge11" class="edge">
<title>Node1&#45;&gt;Node11</title>
<path fill="none" stroke="#63b8ff" d="M504.68,-83.9C491.13,-67.15 468.65,-42.34 444,-27.5 438.45,-24.16 432.22,-21.38 425.95,-19.1"/>
<polygon fill="#63b8ff" stroke="#63b8ff" points="501.99,-86.14 510.92,-91.84 507.49,-81.81 501.99,-86.14"/>
</g>
<!-- Node3 -->
<g id="node3" class="node">
<title>Node3</title>
<g id="a_node3"><a xlink:href="namespacesharp.html#a2e6b7cd4a3594a8f2c2050b0e4784cce" target="_top" xlink:title="Computes the Effective Inflow Layer for a given atmospheric sounding.">
<polygon fill="white" stroke="#666666" points="289,-225.5 162,-225.5 162,-195.5 289,-195.5 289,-225.5"/>
<text text-anchor="start" x="170" y="-213.5" font-family="Helvetica,sans-Serif" font-size="10.00">sharp::effective_inflow</text>
<text text-anchor="middle" x="225.5" y="-202.5" font-family="Helvetica,sans-Serif" font-size="10.00">_layer</text>
</a>
</g>
</g>
<!-- Node2&#45;&gt;Node3 -->
<g id="edge2" class="edge">
<title>Node2&#45;&gt;Node3</title>
<path fill="none" stroke="#63b8ff" d="M325.03,-192.3C313.35,-194.46 301.02,-196.73 289.2,-198.92"/>
<polygon fill="#63b8ff" stroke="#63b8ff" points="325.92,-195.7 335.11,-190.44 324.64,-188.81 325.92,-195.7"/>
</g>
<!-- Node5 -->
<g id="node5" class="node">
<title>Node5</title>
<g id="a_node5"><a xlink:href="structsharp_1_1Parcel.html#aa258d27992d22d8b80cb221e6e2a6c19" target="_top" xlink:title="Construct and return a most&#45;unstable Parcel.">
<polygon fill="white" stroke="#666666" points="280.5,-177.5 170.5,-177.5 170.5,-147.5 280.5,-147.5 280.5,-177.5"/>
<text text-anchor="start" x="178.5" y="-165.5" font-family="Helvetica,sans-Serif" font-size="10.00">sharp::Parcel::most</text>
<text text-anchor="middle" x="225.5" y="-154.5" font-family="Helvetica,sans-Serif" font-size="10.00">_unstable_parcel</text>
</a>
</g>
</g>
<!-- Node2&#45;&gt;Node5 -->
<g id="edge4" class="edge">
<title>Node2&#45;&gt;Node5</title>
<path fill="none" stroke="#63b8ff" d="M324.8,-174.4C310.36,-172.65 294.97,-170.79 280.75,-169.07"/>
<polygon fill="#63b8ff" stroke="#63b8ff" points="324.77,-177.92 335.11,-175.64 325.61,-170.97 324.77,-177.92"/>
</g>
<!-- Node4 -->
<g id="node4" class="node">
<title>Node4</title>
<g id="a_node4"><a xlink:href="convective__wrap_8cpp.html#af214bab6c6ba14dc06fe7df4f6abcdf8" target="_top" xlink:title=" ">
<polygon fill="white" stroke="#666666" points="126,-225.5 0,-225.5 0,-195.5 126,-195.5 126,-225.5"/>
<text text-anchor="start" x="8" y="-213.5" font-family="Helvetica,sans-Serif" font-size="10.00">sharp_effective_inflow</text>
<text text-anchor="middle" x="63" y="-202.5" font-family="Helvetica,sans-Serif" font-size="10.00">_layer</text>
</a>
</g>
</g>
<!-- Node3&#45;&gt;Node4 -->
<g id="edge3" class="edge">
<title>Node3&#45;&gt;Node4</title>
<path fill="none" stroke="#63b8ff" d="M151.93,-210.5C143.3,-210.5 134.55,-210.5 126.08,-210.5"/>
<polygon fill="#63b8ff" stroke="#63b8ff" points="151.99,-214 161.99,-210.5 151.99,-207 151.99,-214"/>
</g>
<!-- Node8 -->
<g id="node8" class="node">
<title>Node8</title>
<g id="a_node8"><a xlink:href="thermo__wrap_8cpp.html#adfde578d6548e8bbf3d24159d2e6f0bc" target="_top" xlink:title=" ">
<polygon fill="white" stroke="#666666" points="285,-111 166,-111 166,-92 285,-92 285,-111"/>
<text text-anchor="middle" x="225.5" y="-99" font-family="Helvetica,sans-Serif" font-size="10.00">sharp_theta_wetbulb</text>
</a>
</g>
</g>
<!-- Node7&#45;&gt;Node8 -->
<g id="edge7" class="edge">
<title>Node7&#45;&gt;Node8</title>
<path fill="none" stroke="#63b8ff" d="M314.51,-101.5C304.74,-101.5 294.77,-101.5 285.22,-101.5"/>
<polygon fill="#63b8ff" stroke="#63b8ff" points="314.59,-105 324.59,-101.5 314.59,-98 314.59,-105"/>
</g>
<!-- Node9&#45;&gt;Node9 -->
<g id="edge10" class="edge">
<title>Node9&#45;&gt;Node9</title>
<path fill="none" stroke="#63b8ff" d="M409.43,-65.19C408.07,-70.2 399.76,-74 384.5,-74 360.68,-74 353.8,-64.73 363.85,-56.08"/>
<polygon fill="#63b8ff" stroke="#63b8ff" points="412.57,-63.65 405.15,-56.08 406.23,-66.62 412.57,-63.65"/>
</g>
<!-- Node10 -->
<g id="node10" class="node">
<title>Node10</title>
<g id="a_node10"><a xlink:href="thermo__wrap_8cpp.html#a6fa159149e40e0b462647cd423be313f" target="_top" xlink:title=" ">
<polygon fill="white" stroke="#666666" points="265.5,-56 185.5,-56 185.5,-37 265.5,-37 265.5,-56"/>
<text text-anchor="middle" x="225.5" y="-44" font-family="Helvetica,sans-Serif" font-size="10.00">sharp_thetae</text>
</a>
</g>
</g>
<!-- Node9&#45;&gt;Node10 -->
<g id="edge9" class="edge">
<title>Node9&#45;&gt;Node10</title>
<path fill="none" stroke="#63b8ff" d="M333.72,-46.5C311.69,-46.5 286.18,-46.5 265.56,-46.5"/>
<polygon fill="#63b8ff" stroke="#63b8ff" points="333.88,-50 343.88,-46.5 333.88,-43 333.88,-50"/>
</g>
<!-- Node12 -->
<g id="node12" class="node">
<title>Node12</title>
<g id="a_node12"><a xlink:href="thermo__wrap_8cpp.html#a3d62d7747127fc25886aed2e9db56cae" target="_top" xlink:title=" ">
<polygon fill="white" stroke="#666666" points="269.5,-19 181.5,-19 181.5,0 269.5,0 269.5,-19"/>
<text text-anchor="middle" x="225.5" y="-7" font-family="Helvetica,sans-Serif" font-size="10.00">sharp_wetbulb</text>
</a>
</g>
</g>
<!-- Node11&#45;&gt;Node12 -->
<g id="edge12" class="edge">
<title>Node11&#45;&gt;Node12</title>
<path fill="none" stroke="#63b8ff" d="M329.76,-9.5C310.17,-9.5 288.29,-9.5 269.73,-9.5"/>
<polygon fill="#63b8ff" stroke="#63b8ff" points="329.77,-13 339.77,-9.5 329.77,-6 329.77,-13"/>
</g>
</g>
</svg>
