<?xml version="1.0" encoding="UTF-8" standalone="no"?>
<!DOCTYPE svg PUBLIC "-//W3C//DTD SVG 1.1//EN"
 "http://www.w3.org/Graphics/SVG/1.1/DTD/svg11.dtd">
<!-- Generated by graphviz version 2.43.0 (0)
 -->
<!-- Title: sharp::mixratio_ice Pages: 1 -->
<svg width="627pt" height="92pt"
 viewBox="0.00 0.00 627.00 91.50" xmlns="http://www.w3.org/2000/svg" xmlns:xlink="http://www.w3.org/1999/xlink">
<g id="graph0" class="graph" transform="scale(1 1) rotate(0) translate(4 87.5)">
<title>sharp::mixratio_ice</title>
<!-- Node1 -->
<g id="node1" class="node">
<title>Node1</title>
<g id="a_node1"><a xlink:title="Compute the ice water mixing ratio.">
<polygon fill="#999999" stroke="#666666" points="619,-37 509,-37 509,-18 619,-18 619,-37"/>
<text text-anchor="middle" x="564" y="-25" font-family="Helvetica,sans-Serif" font-size="10.00">sharp::mixratio_ice</text>
</a>
</g>
</g>
<!-- Node2 -->
<g id="node2" class="node">
<title>Node2</title>
<g id="a_node2"><a xlink:href="namespacesharp.html#a7494c22424745a8847092b64195fb9ae" target="_top" xlink:title=" ">
<polygon fill="white" stroke="#666666" points="471.5,-56 364.5,-56 364.5,-37 471.5,-37 471.5,-56"/>
<text text-anchor="middle" x="418" y="-44" font-family="Helvetica,sans-Serif" font-size="10.00">sharp::_solve_cm1</text>
</a>
</g>
</g>
<!-- Node1&#45;&gt;Node2 -->
<g id="edge1" class="edge">
<title>Node1&#45;&gt;Node2</title>
<path fill="none" stroke="#63b8ff" d="M498.89,-35.96C489.87,-37.15 480.68,-38.36 471.9,-39.52"/>
<polygon fill="#63b8ff" stroke="#63b8ff" points="499.51,-39.41 508.97,-34.63 498.6,-32.47 499.51,-39.41"/>
</g>
<!-- Node6 -->
<g id="node6" class="node">
<title>Node6</title>
<g id="a_node6"><a xlink:href="thermo__wrap_8cpp.html#ab30e4198dc286932d722c0c5841cdfc6" target="_top" xlink:title=" ">
<polygon fill="white" stroke="#666666" points="473,-19 363,-19 363,0 473,0 473,-19"/>
<text text-anchor="middle" x="418" y="-7" font-family="Helvetica,sans-Serif" font-size="10.00">sharp_mixratio_ice</text>
</a>
</g>
</g>
<!-- Node1&#45;&gt;Node6 -->
<g id="edge5" class="edge">
<title>Node1&#45;&gt;Node6</title>
<path fill="none" stroke="#63b8ff" d="M499.01,-19.5C490.44,-18.43 481.72,-17.34 473.33,-16.29"/>
<polygon fill="#63b8ff" stroke="#63b8ff" points="498.61,-22.98 508.97,-20.75 499.48,-16.03 498.61,-22.98"/>
</g>
<!-- Node3 -->
<g id="node3" class="node">
<title>Node3</title>
<g id="a_node3"><a xlink:href="namespacesharp.html#aa258841692c25171d3f3b2e8b1f52079" target="_top" xlink:title="Compute the temperature of a parcel lifted moist adiabatically to a new level.">
<polygon fill="white" stroke="#666666" points="327,-56 181,-56 181,-37 327,-37 327,-56"/>
<text text-anchor="middle" x="254" y="-44" font-family="Helvetica,sans-Serif" font-size="10.00">sharp::moist_adiabat_cm1</text>
</a>
</g>
</g>
<!-- Node2&#45;&gt;Node3 -->
<g id="edge2" class="edge">
<title>Node2&#45;&gt;Node3</title>
<path fill="none" stroke="#63b8ff" d="M354.15,-46.5C345.28,-46.5 336.09,-46.5 327.06,-46.5"/>
<polygon fill="#63b8ff" stroke="#63b8ff" points="354.4,-50 364.4,-46.5 354.4,-43 354.4,-50"/>
</g>
<!-- Node4 -->
<g id="node4" class="node">
<title>Node4</title>
<g id="a_node4"><a xlink:href="structsharp_1_1lifter__cm1.html#a2eeb5b118ef40e873c09ac9b3635f7b9" target="_top" xlink:title="Overloads operator() to call sharp::moist_adiabat_cm1.">
<polygon fill="white" stroke="#666666" points="124.5,-83.5 20.5,-83.5 20.5,-53.5 124.5,-53.5 124.5,-83.5"/>
<text text-anchor="start" x="28.5" y="-71.5" font-family="Helvetica,sans-Serif" font-size="10.00">sharp::lifter_cm1::</text>
<text text-anchor="middle" x="72.5" y="-60.5" font-family="Helvetica,sans-Serif" font-size="10.00">operator()</text>
</a>
</g>
</g>
<!-- Node3&#45;&gt;Node4 -->
<g id="edge3" class="edge">
<title>Node3&#45;&gt;Node4</title>
<path fill="none" stroke="#63b8ff" d="M170.55,-56.61C154.9,-58.52 138.96,-60.48 124.64,-62.23"/>
<polygon fill="#63b8ff" stroke="#63b8ff" points="171.27,-60.04 180.77,-55.35 170.41,-53.1 171.27,-60.04"/>
</g>
<!-- Node5 -->
<g id="node5" class="node">
<title>Node5</title>
<g id="a_node5"><a xlink:href="thermo__wrap_8cpp.html#aac6beaaefcb6cf02512e6a74b6ab5be7" target="_top" xlink:title=" ">
<polygon fill="white" stroke="#666666" points="145,-35 0,-35 0,-16 145,-16 145,-35"/>
<text text-anchor="middle" x="72.5" y="-23" font-family="Helvetica,sans-Serif" font-size="10.00">sharp_moist_adiabat_cm1</text>
</a>
</g>
</g>
<!-- Node3&#45;&gt;Node5 -->
<g id="edge4" class="edge">
<title>Node3&#45;&gt;Node5</title>
<path fill="none" stroke="#63b8ff" d="M170.74,-36.88C162.15,-35.87 153.46,-34.85 145,-33.87"/>
<polygon fill="#63b8ff" stroke="#63b8ff" points="170.43,-40.36 180.77,-38.05 171.24,-33.41 170.43,-40.36"/>
</g>
</g>
</svg>
