<?xml version="1.0" encoding="UTF-8" standalone="no"?>
<!DOCTYPE svg PUBLIC "-//W3C//DTD SVG 1.1//EN"
 "http://www.w3.org/Graphics/SVG/1.1/DTD/svg11.dtd">
<!-- Generated by graphviz version 2.43.0 (0)
 -->
<!-- Title: sharp::buoyancy Pages: 1 -->
<svg width="268pt" height="124pt"
 viewBox="0.00 0.00 268.00 123.50" xmlns="http://www.w3.org/2000/svg" xmlns:xlink="http://www.w3.org/1999/xlink">
<g id="graph0" class="graph" transform="scale(1 1) rotate(0) translate(4 119.5)">
<title>sharp::buoyancy</title>
<!-- Node1 -->
<g id="node1" class="node">
<title>Node1</title>
<g id="a_node1"><a xlink:title="compute buoyancy given parcel and environment temperatures">
<polygon fill="#999999" stroke="#666666" points="260,-72.5 163,-72.5 163,-53.5 260,-53.5 260,-72.5"/>
<text text-anchor="middle" x="211.5" y="-60.5" font-family="Helvetica,sans-Serif" font-size="10.00">sharp::buoyancy</text>
</a>
</g>
</g>
<!-- Node2 -->
<g id="node2" class="node">
<title>Node2</title>
<g id="a_node2"><a xlink:href="namespacesharp.html#a02c8d90f07b87e0051b2d117da66d11c" target="_top" xlink:title="Compute buoyancy given arrays of parcel &amp; environment temperatures.">
<polygon fill="white" stroke="#666666" points="112,-115.5 15,-115.5 15,-96.5 112,-96.5 112,-115.5"/>
<text text-anchor="middle" x="63.5" y="-103.5" font-family="Helvetica,sans-Serif" font-size="10.00">sharp::buoyancy</text>
</a>
</g>
</g>
<!-- Node1&#45;&gt;Node2 -->
<g id="edge1" class="edge">
<title>Node1&#45;&gt;Node2</title>
<path fill="none" stroke="#63b8ff" d="M168.34,-75.42C145.56,-82.13 117.87,-90.28 96.81,-96.48"/>
<polygon fill="#63b8ff" stroke="#63b8ff" points="169.49,-78.73 178.1,-72.54 167.52,-72.01 169.49,-78.73"/>
</g>
<!-- Node3 -->
<g id="node3" class="node">
<title>Node3</title>
<g id="a_node3"><a xlink:href="namespacesharp.html#a2e6b7cd4a3594a8f2c2050b0e4784cce" target="_top" xlink:title="Computes the Effective Inflow Layer for a given atmospheric sounding.">
<polygon fill="white" stroke="#666666" points="127,-78 0,-78 0,-48 127,-48 127,-78"/>
<text text-anchor="start" x="8" y="-66" font-family="Helvetica,sans-Serif" font-size="10.00">sharp::effective_inflow</text>
<text text-anchor="middle" x="63.5" y="-55" font-family="Helvetica,sans-Serif" font-size="10.00">_layer</text>
</a>
</g>
</g>
<!-- Node1&#45;&gt;Node3 -->
<g id="edge2" class="edge">
<title>Node1&#45;&gt;Node3</title>
<path fill="none" stroke="#63b8ff" d="M152.61,-63C144.21,-63 135.52,-63 127.03,-63"/>
<polygon fill="#63b8ff" stroke="#63b8ff" points="152.69,-66.5 162.69,-63 152.69,-59.5 152.69,-66.5"/>
</g>
<!-- Node4 -->
<g id="node4" class="node">
<title>Node4</title>
<g id="a_node4"><a xlink:href="structsharp_1_1Parcel.html#aa258d27992d22d8b80cb221e6e2a6c19" target="_top" xlink:title="Construct and return a most&#45;unstable Parcel.">
<polygon fill="white" stroke="#666666" points="118.5,-30 8.5,-30 8.5,0 118.5,0 118.5,-30"/>
<text text-anchor="start" x="16.5" y="-18" font-family="Helvetica,sans-Serif" font-size="10.00">sharp::Parcel::most</text>
<text text-anchor="middle" x="63.5" y="-7" font-family="Helvetica,sans-Serif" font-size="10.00">_unstable_parcel</text>
</a>
</g>
</g>
<!-- Node1&#45;&gt;Node4 -->
<g id="edge3" class="edge">
<title>Node1&#45;&gt;Node4</title>
<path fill="none" stroke="#63b8ff" d="M171.57,-50.2C152.73,-44.01 129.99,-36.53 110.32,-30.06"/>
<polygon fill="#63b8ff" stroke="#63b8ff" points="170.71,-53.6 181.31,-53.4 172.9,-46.95 170.71,-53.6"/>
</g>
</g>
</svg>
