<?xml version="1.0" encoding="UTF-8" standalone="no"?>
<!DOCTYPE svg PUBLIC "-//W3C//DTD SVG 1.1//EN"
 "http://www.w3.org/Graphics/SVG/1.1/DTD/svg11.dtd">
<!-- Generated by graphviz version 2.43.0 (0)
 -->
<!-- Title: sharp::wetlift Pages: 1 -->
<svg width="348pt" height="103pt"
 viewBox="0.00 0.00 348.00 103.00" xmlns="http://www.w3.org/2000/svg" xmlns:xlink="http://www.w3.org/1999/xlink">
<g id="graph0" class="graph" transform="scale(1 1) rotate(0) translate(4 99)">
<title>sharp::wetlift</title>
<!-- Node1 -->
<g id="node1" class="node">
<title>Node1</title>
<g id="a_node1"><a xlink:title="Compute the temperature of a parcel lifted moist adiabatically to a new level.">
<polygon fill="#999999" stroke="#666666" points="80,-57 0,-57 0,-38 80,-38 80,-57"/>
<text text-anchor="middle" x="40" y="-45" font-family="Helvetica,sans-Serif" font-size="10.00">sharp::wetlift</text>
</a>
</g>
</g>
<!-- Node2 -->
<g id="node2" class="node">
<title>Node2</title>
<g id="a_node2"><a xlink:href="namespacesharp.html#a78762bd2862b739e6ae331c45cb90202" target="_top" xlink:title="Compute the temperature along a moist adiabat (wet&#45;bulb potential temperature) at a given pressure.">
<polygon fill="white" stroke="#666666" points="230,-95 116,-95 116,-76 230,-76 230,-95"/>
<text text-anchor="middle" x="173" y="-83" font-family="Helvetica,sans-Serif" font-size="10.00">sharp::saturated_lift</text>
</a>
</g>
</g>
<!-- Node1&#45;&gt;Node2 -->
<g id="edge1" class="edge">
<title>Node1&#45;&gt;Node2</title>
<path fill="none" stroke="#63b8ff" d="M74.06,-57.09C90.81,-61.95 111.36,-67.91 129.3,-73.11"/>
<polygon fill="#63b8ff" stroke="#63b8ff" points="128.37,-76.49 138.95,-75.91 130.32,-69.77 128.37,-76.49"/>
</g>
<!-- Node3 -->
<g id="node3" class="node">
<title>Node3</title>
<g id="a_node3"><a xlink:href="namespacesharp.html#a52c7e44244cfacdbe530356f295ff114" target="_top" xlink:title="Computes the difference between the wet&#45;bulb potential temperatures for saturated and dry air given t...">
<polygon fill="white" stroke="#666666" points="340,-76 266,-76 266,-57 340,-57 340,-76"/>
<text text-anchor="middle" x="303" y="-64" font-family="Helvetica,sans-Serif" font-size="10.00">sharp::wobf</text>
</a>
</g>
</g>
<!-- Node1&#45;&gt;Node3 -->
<g id="edge4" class="edge">
<title>Node1&#45;&gt;Node3</title>
<path fill="none" stroke="#63b8ff" d="M80.07,-50.34C126.94,-53.76 205.42,-59.47 255.4,-63.11"/>
<polygon fill="#63b8ff" stroke="#63b8ff" points="255.38,-66.62 265.61,-63.85 255.89,-59.63 255.38,-66.62"/>
</g>
<!-- Node4 -->
<g id="node4" class="node">
<title>Node4</title>
<g id="a_node4"><a xlink:href="namespacesharp.html#ac3f1b3b63f158e6c88e94dd9daa2a71c" target="_top" xlink:title="Compute the potential temperature.">
<polygon fill="white" stroke="#666666" points="210.5,-19 135.5,-19 135.5,0 210.5,0 210.5,-19"/>
<text text-anchor="middle" x="173" y="-7" font-family="Helvetica,sans-Serif" font-size="10.00">sharp::theta</text>
</a>
</g>
</g>
<!-- Node1&#45;&gt;Node4 -->
<g id="edge3" class="edge">
<title>Node1&#45;&gt;Node4</title>
<path fill="none" stroke="#63b8ff" d="M74.06,-37.91C90.81,-33.05 111.36,-27.09 129.3,-21.89"/>
<polygon fill="#63b8ff" stroke="#63b8ff" points="130.32,-25.23 138.95,-19.09 128.37,-18.51 130.32,-25.23"/>
</g>
<!-- Node2&#45;&gt;Node3 -->
<g id="edge2" class="edge">
<title>Node2&#45;&gt;Node3</title>
<path fill="none" stroke="#63b8ff" d="M230.14,-77.17C238.74,-75.89 247.53,-74.59 255.87,-73.35"/>
<polygon fill="#63b8ff" stroke="#63b8ff" points="256.42,-76.8 265.79,-71.87 255.39,-69.88 256.42,-76.8"/>
</g>
</g>
</svg>
