<?xml version="1.0" encoding="UTF-8" standalone="no"?>
<!DOCTYPE svg PUBLIC "-//W3C//DTD SVG 1.1//EN"
 "http://www.w3.org/Graphics/SVG/1.1/DTD/svg11.dtd">
<!-- Generated by graphviz version 2.43.0 (0)
 -->
<!-- Title: sharp::entrainment_cape Pages: 1 -->
<svg width="923pt" height="493pt"
 viewBox="0.00 0.00 923.00 493.00" xmlns="http://www.w3.org/2000/svg" xmlns:xlink="http://www.w3.org/1999/xlink">
<g id="graph0" class="graph" transform="scale(1 1) rotate(0) translate(4 489)">
<title>sharp::entrainment_cape</title>
<!-- Node1 -->
<g id="node1" class="node">
<title>Node1</title>
<g id="a_node1"><a xlink:title="Computes Entrainment CAPE using a previously lifted parcel.">
<polygon fill="#999999" stroke="#666666" points="138,-259.5 0,-259.5 0,-240.5 138,-240.5 138,-259.5"/>
<text text-anchor="middle" x="69" y="-247.5" font-family="Helvetica,sans-Serif" font-size="10.00">sharp::entrainment_cape</text>
</a>
</g>
</g>
<!-- Node2 -->
<g id="node2" class="node">
<title>Node2</title>
<g id="a_node2"><a xlink:href="namespacesharp.html#a0cc6e590243b248f4fb44d9b0e1a6400" target="_top" xlink:title=" ">
<polygon fill="white" stroke="#666666" points="313,-485 174,-485 174,-455 313,-455 313,-485"/>
<text text-anchor="start" x="182" y="-473" font-family="Helvetica,sans-Serif" font-size="10.00">sharp::buoyancy_dilution</text>
<text text-anchor="middle" x="243.5" y="-462" font-family="Helvetica,sans-Serif" font-size="10.00">_potential</text>
</a>
</g>
</g>
<!-- Node1&#45;&gt;Node2 -->
<g id="edge1" class="edge">
<title>Node1&#45;&gt;Node2</title>
<path fill="none" stroke="#63b8ff" d="M72.77,-259.78C81.99,-290.63 114.41,-386.99 174,-441 177.64,-444.3 181.7,-447.25 185.99,-449.9"/>
<polygon fill="#63b8ff" stroke="#63b8ff" points="184.59,-453.12 195.04,-454.9 187.98,-447 184.59,-453.12"/>
</g>
<!-- Node3 -->
<g id="node3" class="node">
<title>Node3</title>
<g id="a_node3"><a xlink:href="namespacesharp.html#ac93f477dfa774c966b5da7521bd43ee6" target="_top" xlink:title="Returns the array indices corresponding to the given layer.">
<polygon fill="white" stroke="#666666" points="651,-426.5 523,-426.5 523,-407.5 651,-407.5 651,-426.5"/>
<text text-anchor="middle" x="587" y="-414.5" font-family="Helvetica,sans-Serif" font-size="10.00">sharp::get_layer_index</text>
</a>
</g>
</g>
<!-- Node1&#45;&gt;Node3 -->
<g id="edge2" class="edge">
<title>Node1&#45;&gt;Node3</title>
<path fill="none" stroke="#63b8ff" d="M73.49,-259.74C83.84,-287.03 117.24,-364.24 174,-396 288.6,-460.12 450.39,-443.17 532.98,-428.38"/>
<polygon fill="#63b8ff" stroke="#63b8ff" points="533.7,-431.81 542.89,-426.55 532.42,-424.92 533.7,-431.81"/>
</g>
<!-- Node6 -->
<g id="node6" class="node">
<title>Node6</title>
<g id="a_node6"><a xlink:href="namespacesharp.html#a8ab599fbfe2b3793d7af8399c17d1327" target="_top" xlink:title="Returns a trapezoidal integration of the given layer.">
<polygon fill="white" stroke="#666666" points="480,-399 356,-399 356,-369 480,-369 480,-399"/>
<text text-anchor="start" x="364" y="-387" font-family="Helvetica,sans-Serif" font-size="10.00">sharp::integrate_layer</text>
<text text-anchor="middle" x="418" y="-376" font-family="Helvetica,sans-Serif" font-size="10.00">_trapz</text>
</a>
</g>
</g>
<!-- Node1&#45;&gt;Node6 -->
<g id="edge5" class="edge">
<title>Node1&#45;&gt;Node6</title>
<path fill="none" stroke="#63b8ff" d="M74.88,-259.77C87.46,-283.71 123.53,-345.18 174,-370 227.21,-396.17 295.11,-397.86 345.59,-394.04"/>
<polygon fill="#63b8ff" stroke="#63b8ff" points="346.1,-397.51 355.77,-393.18 345.51,-390.53 346.1,-397.51"/>
</g>
<!-- Node8 -->
<g id="node8" class="node">
<title>Node8</title>
<g id="a_node8"><a xlink:href="namespacesharp.html#ae8240f026498ad2775633a8d0dcf100d" target="_top" xlink:title="Linearly interpolate a data field to a requested height level.">
<polygon fill="white" stroke="#666666" points="644,-349.5 530,-349.5 530,-330.5 644,-330.5 644,-349.5"/>
<text text-anchor="middle" x="587" y="-337.5" font-family="Helvetica,sans-Serif" font-size="10.00">sharp::interp_height</text>
</a>
</g>
</g>
<!-- Node1&#45;&gt;Node8 -->
<g id="edge15" class="edge">
<title>Node1&#45;&gt;Node8</title>
<path fill="none" stroke="#63b8ff" d="M92.79,-259.51C113.64,-267.93 145.48,-280.07 174,-288 292.9,-321.05 437.01,-333.15 519.44,-337.54"/>
<polygon fill="#63b8ff" stroke="#63b8ff" points="519.51,-341.05 529.68,-338.06 519.87,-334.06 519.51,-341.05"/>
</g>
<!-- Node11 -->
<g id="node11" class="node">
<title>Node11</title>
<g id="a_node11"><a xlink:href="namespacesharp.html#a55e4f8ee4ff8a4a30d7b3f3d92a41c75" target="_top" xlink:title="Linearly interpolate a data field to a requested pressure level.">
<polygon fill="white" stroke="#666666" points="649.5,-308.5 524.5,-308.5 524.5,-289.5 649.5,-289.5 649.5,-308.5"/>
<text text-anchor="middle" x="587" y="-296.5" font-family="Helvetica,sans-Serif" font-size="10.00">sharp::interp_pressure</text>
</a>
</g>
</g>
<!-- Node1&#45;&gt;Node11 -->
<g id="edge16" class="edge">
<title>Node1&#45;&gt;Node11</title>
<path fill="none" stroke="#63b8ff" d="M79.93,-240.38C97.36,-224.12 135.31,-191.46 174,-176 303.59,-124.22 363.91,-85.25 487,-151 538.67,-178.6 568.09,-246.43 579.89,-279.81"/>
<polygon fill="#63b8ff" stroke="#63b8ff" points="576.59,-280.99 583.11,-289.34 583.22,-278.75 576.59,-280.99"/>
</g>
<!-- Node12 -->
<g id="node12" class="node">
<title>Node12</title>
<g id="a_node12"><a xlink:href="namespacesharp.html#a298e2c96c389f2c5177d3626c908927e" target="_top" xlink:title="Computes the mass&#45;weighted mean value of a field over a given pressure layer.">
<polygon fill="white" stroke="#666666" points="297,-360.5 190,-360.5 190,-341.5 297,-341.5 297,-360.5"/>
<text text-anchor="middle" x="243.5" y="-348.5" font-family="Helvetica,sans-Serif" font-size="10.00">sharp::layer_mean</text>
</a>
</g>
</g>
<!-- Node1&#45;&gt;Node12 -->
<g id="edge17" class="edge">
<title>Node1&#45;&gt;Node12</title>
<path fill="none" stroke="#63b8ff" d="M80.79,-259.74C98.91,-275.65 137.07,-307.44 174,-327 181.93,-331.2 190.75,-334.92 199.34,-338.1"/>
<polygon fill="#63b8ff" stroke="#63b8ff" points="198.31,-341.45 208.9,-341.46 200.63,-334.84 198.31,-341.45"/>
</g>
<!-- Node13 -->
<g id="node13" class="node">
<title>Node13</title>
<g id="a_node13"><a xlink:href="namespacesharp.html#ac38870166f07ac30aadbc46b81340cc4" target="_top" xlink:title="Compute the water vapor mixing ratio from specific humidity.">
<polygon fill="white" stroke="#666666" points="289,-105.5 198,-105.5 198,-86.5 289,-86.5 289,-105.5"/>
<text text-anchor="middle" x="243.5" y="-93.5" font-family="Helvetica,sans-Serif" font-size="10.00">sharp::mixratio</text>
</a>
</g>
</g>
<!-- Node1&#45;&gt;Node13 -->
<g id="edge19" class="edge">
<title>Node1&#45;&gt;Node13</title>
<path fill="none" stroke="#63b8ff" d="M75.18,-240.31C88.42,-216.4 125.89,-154.09 174,-120 180.01,-115.74 186.84,-112.18 193.81,-109.21"/>
<polygon fill="#63b8ff" stroke="#63b8ff" points="195.27,-112.4 203.34,-105.53 192.75,-105.87 195.27,-112.4"/>
</g>
<!-- Node14 -->
<g id="node14" class="node">
<title>Node14</title>
<g id="a_node14"><a xlink:href="namespacesharp.html#ab5fed65fe0cdf797961047fb9cde3295" target="_top" xlink:title="Compute moist static energy.">
<polygon fill="white" stroke="#666666" points="298.5,-30 188.5,-30 188.5,0 298.5,0 298.5,-30"/>
<text text-anchor="start" x="196.5" y="-18" font-family="Helvetica,sans-Serif" font-size="10.00">sharp::moist_static</text>
<text text-anchor="middle" x="243.5" y="-7" font-family="Helvetica,sans-Serif" font-size="10.00">_energy</text>
</a>
</g>
</g>
<!-- Node1&#45;&gt;Node14 -->
<g id="edge20" class="edge">
<title>Node1&#45;&gt;Node14</title>
<path fill="none" stroke="#63b8ff" d="M72.31,-240.37C80.49,-208.14 111.09,-102.83 174,-44 177.53,-40.7 181.49,-37.75 185.68,-35.11"/>
<polygon fill="#63b8ff" stroke="#63b8ff" points="187.54,-38.08 194.54,-30.12 184.11,-31.98 187.54,-38.08"/>
</g>
<!-- Node15 -->
<g id="node15" class="node">
<title>Node15</title>
<g id="a_node15"><a xlink:href="namespacesharp.html#a792a4a2a9f9243a82fb44cb77c2ee561" target="_top" xlink:title="Compute specific humidity from a mixing ratio.">
<polygon fill="white" stroke="#666666" points="485.5,-46.5 350.5,-46.5 350.5,-27.5 485.5,-27.5 485.5,-46.5"/>
<text text-anchor="middle" x="418" y="-34.5" font-family="Helvetica,sans-Serif" font-size="10.00">sharp::specific_humidity</text>
</a>
</g>
</g>
<!-- Node1&#45;&gt;Node15 -->
<g id="edge24" class="edge">
<title>Node1&#45;&gt;Node15</title>
<path fill="none" stroke="#63b8ff" d="M72.71,-240.12C81.55,-209.98 112.53,-118.72 174,-77 200.56,-58.97 279.55,-48.33 340.33,-42.62"/>
<polygon fill="#63b8ff" stroke="#63b8ff" points="340.66,-46.1 350.3,-41.71 340.03,-39.13 340.66,-46.1"/>
</g>
<!-- Node16 -->
<g id="node16" class="node">
<title>Node16</title>
<g id="a_node16"><a xlink:href="namespacesharp.html#a31da980f398c9f6a5960ddf868101a94" target="_top" xlink:title="Converts a sharp::PressureLayer to a sharp::HeightLayer.">
<polygon fill="white" stroke="#666666" points="479,-313 357,-313 357,-283 479,-283 479,-313"/>
<text text-anchor="start" x="365" y="-301" font-family="Helvetica,sans-Serif" font-size="10.00">sharp::pressure_layer</text>
<text text-anchor="middle" x="418" y="-290" font-family="Helvetica,sans-Serif" font-size="10.00">_to_height</text>
</a>
</g>
</g>
<!-- Node1&#45;&gt;Node16 -->
<g id="edge22" class="edge">
<title>Node1&#45;&gt;Node16</title>
<path fill="none" stroke="#63b8ff" d="M138.14,-259.43C198.44,-267.77 286.06,-279.89 346.93,-288.31"/>
<polygon fill="#63b8ff" stroke="#63b8ff" points="346.45,-291.77 356.84,-289.68 347.41,-284.84 346.45,-291.77"/>
</g>
<!-- Node17 -->
<g id="node17" class="node">
<title>Node17</title>
<g id="a_node17"><a xlink:href="namespacesharp.html#a74a735636c932467b4d2ced544e0cb51" target="_top" xlink:title="Estimates supercell storm motion using the Bunkers et al. 2000 method.">
<polygon fill="white" stroke="#666666" points="302.5,-244 184.5,-244 184.5,-214 302.5,-214 302.5,-244"/>
<text text-anchor="start" x="192.5" y="-232" font-family="Helvetica,sans-Serif" font-size="10.00">sharp::storm_motion</text>
<text text-anchor="middle" x="243.5" y="-221" font-family="Helvetica,sans-Serif" font-size="10.00">_bunkers</text>
</a>
</g>
</g>
<!-- Node1&#45;&gt;Node17 -->
<g id="edge25" class="edge">
<title>Node1&#45;&gt;Node17</title>
<path fill="none" stroke="#63b8ff" d="M138.18,-241.7C149.98,-240.26 162.25,-238.77 174.06,-237.33"/>
<polygon fill="#63b8ff" stroke="#63b8ff" points="174.78,-240.77 184.29,-236.09 173.94,-233.82 174.78,-240.77"/>
</g>
<!-- Node20 -->
<g id="node20" class="node">
<title>Node20</title>
<g id="a_node20"><a xlink:href="namespacesharp.html#af887f27accb1a1d656a35abec65cab5f" target="_top" xlink:title="Computes the magnitude of a vector given its components.">
<polygon fill="white" stroke="#666666" points="487,-179.5 349,-179.5 349,-160.5 487,-160.5 487,-179.5"/>
<text text-anchor="middle" x="418" y="-167.5" font-family="Helvetica,sans-Serif" font-size="10.00">sharp::vector_magnitude</text>
</a>
</g>
</g>
<!-- Node1&#45;&gt;Node20 -->
<g id="edge31" class="edge">
<title>Node1&#45;&gt;Node20</title>
<path fill="none" stroke="#63b8ff" d="M88.24,-240.33C108.59,-229.98 142.77,-213.84 174,-205 227.99,-189.73 290.71,-180.91 338.9,-175.94"/>
<polygon fill="#63b8ff" stroke="#63b8ff" points="339.35,-179.41 348.96,-174.94 338.66,-172.45 339.35,-179.41"/>
</g>
<!-- Node4 -->
<g id="node4" class="node">
<title>Node4</title>
<g id="a_node4"><a xlink:href="namespacesharp.html#a1edcf8bff9a13429bcbff7c1129024b3" target="_top" xlink:title="Finds the index of the lower bound that does not satisfy element &lt; value.">
<polygon fill="white" stroke="#666666" points="799.5,-426.5 687.5,-426.5 687.5,-407.5 799.5,-407.5 799.5,-426.5"/>
<text text-anchor="middle" x="743.5" y="-414.5" font-family="Helvetica,sans-Serif" font-size="10.00">sharp::lower_bound</text>
</a>
</g>
</g>
<!-- Node3&#45;&gt;Node4 -->
<g id="edge3" class="edge">
<title>Node3&#45;&gt;Node4</title>
<path fill="none" stroke="#63b8ff" d="M651.29,-417C659.91,-417 668.78,-417 677.43,-417"/>
<polygon fill="#63b8ff" stroke="#63b8ff" points="677.47,-420.5 687.47,-417 677.47,-413.5 677.47,-420.5"/>
</g>
<!-- Node5 -->
<g id="node5" class="node">
<title>Node5</title>
<g id="a_node5"><a xlink:href="namespacesharp.html#a772686549a5111c1152b778731119aa6" target="_top" xlink:title="Finds the first index that satisfies value &lt; element.">
<polygon fill="white" stroke="#666666" points="800,-349.5 687,-349.5 687,-330.5 800,-330.5 800,-349.5"/>
<text text-anchor="middle" x="743.5" y="-337.5" font-family="Helvetica,sans-Serif" font-size="10.00">sharp::upper_bound</text>
</a>
</g>
</g>
<!-- Node3&#45;&gt;Node5 -->
<g id="edge4" class="edge">
<title>Node3&#45;&gt;Node5</title>
<path fill="none" stroke="#63b8ff" d="M628.29,-407.4C635.98,-405.04 643.85,-402.24 651,-399 676.8,-387.31 703.75,-369.08 721.67,-355.98"/>
<polygon fill="#63b8ff" stroke="#63b8ff" points="724.23,-358.44 730.16,-349.66 720.04,-352.83 724.23,-358.44"/>
</g>
<!-- Node6&#45;&gt;Node3 -->
<g id="edge7" class="edge">
<title>Node6&#45;&gt;Node3</title>
<path fill="none" stroke="#63b8ff" d="M480.24,-396.1C495.81,-399.18 512.51,-402.48 527.92,-405.52"/>
<polygon fill="#63b8ff" stroke="#63b8ff" points="527.35,-408.98 537.84,-407.48 528.71,-402.11 527.35,-408.98"/>
</g>
<!-- Node7 -->
<g id="node7" class="node">
<title>Node7</title>
<g id="a_node7"><a xlink:href="namespacesharp.html#a3558a68454edd4679ef97335e3a9f1fb" target="_top" xlink:title="A kernel that computes the area under a curve using the trapezoidal rule.">
<polygon fill="white" stroke="#666666" points="642,-389.5 532,-389.5 532,-370.5 642,-370.5 642,-389.5"/>
<text text-anchor="middle" x="587" y="-377.5" font-family="Helvetica,sans-Serif" font-size="10.00">sharp::_integ_trapz</text>
</a>
</g>
</g>
<!-- Node6&#45;&gt;Node7 -->
<g id="edge6" class="edge">
<title>Node6&#45;&gt;Node7</title>
<path fill="none" stroke="#63b8ff" d="M480.24,-382.53C493.74,-382.21 508.08,-381.87 521.69,-381.54"/>
<polygon fill="#63b8ff" stroke="#63b8ff" points="522.03,-385.03 531.94,-381.29 521.86,-378.04 522.03,-385.03"/>
</g>
<!-- Node6&#45;&gt;Node8 -->
<g id="edge8" class="edge">
<title>Node6&#45;&gt;Node8</title>
<path fill="none" stroke="#63b8ff" d="M476,-368.98C496.86,-363.49 520.17,-357.34 539.95,-352.13"/>
<polygon fill="#63b8ff" stroke="#63b8ff" points="540.87,-355.51 549.65,-349.58 539.08,-348.74 540.87,-355.51"/>
</g>
<!-- Node6&#45;&gt;Node11 -->
<g id="edge12" class="edge">
<title>Node6&#45;&gt;Node11</title>
<path fill="none" stroke="#63b8ff" d="M441.45,-368.94C462.07,-355.51 493.76,-335.9 523,-322 530.55,-318.41 538.82,-315.02 546.82,-312.01"/>
<polygon fill="#63b8ff" stroke="#63b8ff" points="548.17,-315.24 556.36,-308.53 545.77,-308.67 548.17,-315.24"/>
</g>
<!-- Node8&#45;&gt;Node5 -->
<g id="edge11" class="edge">
<title>Node8&#45;&gt;Node5</title>
<path fill="none" stroke="#63b8ff" d="M644.22,-340C654.74,-340 665.83,-340 676.62,-340"/>
<polygon fill="#63b8ff" stroke="#63b8ff" points="676.84,-343.5 686.84,-340 676.84,-336.5 676.84,-343.5"/>
</g>
<!-- Node9 -->
<g id="node9" class="node">
<title>Node9</title>
<g id="a_node9"><a xlink:href="namespacesharp.html#a0bf533560780fdb77bc3656db8d89208" target="_top" xlink:title="Linearly interpolates between a and b with distance t.">
<polygon fill="white" stroke="#666666" points="777.5,-311.5 709.5,-311.5 709.5,-292.5 777.5,-292.5 777.5,-311.5"/>
<text text-anchor="middle" x="743.5" y="-299.5" font-family="Helvetica,sans-Serif" font-size="10.00">sharp::lerp</text>
</a>
</g>
</g>
<!-- Node8&#45;&gt;Node9 -->
<g id="edge9" class="edge">
<title>Node8&#45;&gt;Node9</title>
<path fill="none" stroke="#63b8ff" d="M626.99,-330.41C649.1,-324.97 676.81,-318.16 699.55,-312.56"/>
<polygon fill="#63b8ff" stroke="#63b8ff" points="700.41,-315.96 709.28,-310.17 698.74,-309.16 700.41,-315.96"/>
</g>
<!-- Node10 -->
<g id="node10" class="node">
<title>Node10</title>
<g id="a_node10"><a xlink:href="namespacesharp.html#ac4464059524ff56c7974141bb4cc7375" target="_top" xlink:title="Linearly interpolates between a and b with distance t.">
<polygon fill="white" stroke="#666666" points="915,-311.5 836,-311.5 836,-292.5 915,-292.5 915,-311.5"/>
<text text-anchor="middle" x="875.5" y="-299.5" font-family="Helvetica,sans-Serif" font-size="10.00">sharp::__lerp</text>
</a>
</g>
</g>
<!-- Node9&#45;&gt;Node10 -->
<g id="edge10" class="edge">
<title>Node9&#45;&gt;Node10</title>
<path fill="none" stroke="#63b8ff" d="M777.64,-302C792.2,-302 809.6,-302 825.61,-302"/>
<polygon fill="#63b8ff" stroke="#63b8ff" points="825.88,-305.5 835.88,-302 825.88,-298.5 825.88,-305.5"/>
</g>
<!-- Node11&#45;&gt;Node5 -->
<g id="edge14" class="edge">
<title>Node11&#45;&gt;Node5</title>
<path fill="none" stroke="#63b8ff" d="M623.83,-308.51C645.6,-314.28 673.58,-321.71 696.91,-327.9"/>
<polygon fill="#63b8ff" stroke="#63b8ff" points="696.03,-331.29 706.59,-330.47 697.83,-324.52 696.03,-331.29"/>
</g>
<!-- Node11&#45;&gt;Node9 -->
<g id="edge13" class="edge">
<title>Node11&#45;&gt;Node9</title>
<path fill="none" stroke="#63b8ff" d="M649.51,-300.19C666.05,-300.52 683.6,-300.86 698.95,-301.15"/>
<polygon fill="#63b8ff" stroke="#63b8ff" points="699.12,-304.66 709.18,-301.35 699.25,-297.66 699.12,-304.66"/>
</g>
<!-- Node12&#45;&gt;Node6 -->
<g id="edge18" class="edge">
<title>Node12&#45;&gt;Node6</title>
<path fill="none" stroke="#63b8ff" d="M294.39,-360.54C310.45,-363.62 328.56,-367.08 345.83,-370.39"/>
<polygon fill="#63b8ff" stroke="#63b8ff" points="345.41,-373.87 355.89,-372.31 346.72,-366.99 345.41,-373.87"/>
</g>
<!-- Node14&#45;&gt;Node15 -->
<g id="edge21" class="edge">
<title>Node14&#45;&gt;Node15</title>
<path fill="none" stroke="#63b8ff" d="M298.61,-21.9C311.81,-23.58 326.18,-25.42 340.21,-27.21"/>
<polygon fill="#63b8ff" stroke="#63b8ff" points="339.98,-30.71 350.34,-28.5 340.87,-23.76 339.98,-30.71"/>
</g>
<!-- Node16&#45;&gt;Node11 -->
<g id="edge23" class="edge">
<title>Node16&#45;&gt;Node11</title>
<path fill="none" stroke="#63b8ff" d="M479.29,-298.36C490.64,-298.43 502.6,-298.5 514.26,-298.57"/>
<polygon fill="#63b8ff" stroke="#63b8ff" points="514.37,-302.07 524.39,-298.63 514.41,-295.07 514.37,-302.07"/>
</g>
<!-- Node18 -->
<g id="node18" class="node">
<title>Node18</title>
<g id="a_node18"><a xlink:href="namespacesharp.html#ab77e344c7462c9615b0ddac228bc2193" target="_top" xlink:title="Converts a sharp::HeightLayer to a sharp::PressureLayer.">
<polygon fill="white" stroke="#666666" points="473,-265 363,-265 363,-235 473,-235 473,-265"/>
<text text-anchor="start" x="371" y="-253" font-family="Helvetica,sans-Serif" font-size="10.00">sharp::height_layer</text>
<text text-anchor="middle" x="418" y="-242" font-family="Helvetica,sans-Serif" font-size="10.00">_to_pressure</text>
</a>
</g>
</g>
<!-- Node17&#45;&gt;Node18 -->
<g id="edge26" class="edge">
<title>Node17&#45;&gt;Node18</title>
<path fill="none" stroke="#63b8ff" d="M302.9,-236.11C318.93,-238.06 336.39,-240.19 352.73,-242.18"/>
<polygon fill="#63b8ff" stroke="#63b8ff" points="352.38,-245.66 362.73,-243.39 353.23,-238.71 352.38,-245.66"/>
</g>
<!-- Node19 -->
<g id="node19" class="node">
<title>Node19</title>
<g id="a_node19"><a xlink:href="namespacesharp.html#a3c8b9022103d067f30281d68fa81cbda" target="_top" xlink:title="Compute the mean wind over the given sharp::PressureLayer.">
<polygon fill="white" stroke="#666666" points="471,-216.5 365,-216.5 365,-197.5 471,-197.5 471,-216.5"/>
<text text-anchor="middle" x="418" y="-204.5" font-family="Helvetica,sans-Serif" font-size="10.00">sharp::mean_wind</text>
</a>
</g>
</g>
<!-- Node17&#45;&gt;Node19 -->
<g id="edge28" class="edge">
<title>Node17&#45;&gt;Node19</title>
<path fill="none" stroke="#63b8ff" d="M302.9,-221.55C319.49,-219.44 337.63,-217.12 354.46,-214.98"/>
<polygon fill="#63b8ff" stroke="#63b8ff" points="355.26,-218.4 364.74,-213.67 354.38,-211.46 355.26,-218.4"/>
</g>
<!-- Node17&#45;&gt;Node20 -->
<g id="edge30" class="edge">
<title>Node17&#45;&gt;Node20</title>
<path fill="none" stroke="#63b8ff" d="M279.92,-213.93C299.98,-205.69 325.66,-195.64 349,-188 355.09,-186.01 361.55,-184.07 367.96,-182.26"/>
<polygon fill="#63b8ff" stroke="#63b8ff" points="369.22,-185.54 377.94,-179.52 367.37,-178.79 369.22,-185.54"/>
</g>
<!-- Node18&#45;&gt;Node8 -->
<g id="edge27" class="edge">
<title>Node18&#45;&gt;Node8</title>
<path fill="none" stroke="#63b8ff" d="M471.34,-265.11C476.85,-267.67 482.18,-270.62 487,-274 507.68,-288.52 502.3,-303.51 523,-318 527.63,-321.24 532.78,-324.04 538.08,-326.46"/>
<polygon fill="#63b8ff" stroke="#63b8ff" points="537.14,-329.85 547.72,-330.4 539.79,-323.37 537.14,-329.85"/>
</g>
<!-- Node19&#45;&gt;Node11 -->
<g id="edge29" class="edge">
<title>Node19&#45;&gt;Node11</title>
<path fill="none" stroke="#63b8ff" d="M462.32,-216.56C470.71,-219.11 479.29,-222.24 487,-226 517.93,-241.09 549.15,-266.11 568.04,-282.58"/>
<polygon fill="#63b8ff" stroke="#63b8ff" points="565.77,-285.24 575.57,-289.27 570.42,-280.01 565.77,-285.24"/>
</g>
</g>
</svg>
