<?xml version="1.0" encoding="UTF-8" standalone="no"?>
<!DOCTYPE svg PUBLIC "-//W3C//DTD SVG 1.1//EN"
 "http://www.w3.org/Graphics/SVG/1.1/DTD/svg11.dtd">
<!-- Generated by graphviz version 2.43.0 (0)
 -->
<!-- Title: sharp::get_layer_index Pages: 1 -->
<svg width="285pt" height="64pt"
 viewBox="0.00 0.00 285.00 64.00" xmlns="http://www.w3.org/2000/svg" xmlns:xlink="http://www.w3.org/1999/xlink">
<g id="graph0" class="graph" transform="scale(1 1) rotate(0) translate(4 60)">
<title>sharp::get_layer_index</title>
<!-- Node1 -->
<g id="node1" class="node">
<title>Node1</title>
<g id="a_node1"><a xlink:title="Returns the array indices corresponding to the given layer.">
<polygon fill="#999999" stroke="#666666" points="128,-37 0,-37 0,-18 128,-18 128,-37"/>
<text text-anchor="middle" x="64" y="-25" font-family="Helvetica,sans-Serif" font-size="10.00">sharp::get_layer_index</text>
</a>
</g>
</g>
<!-- Node2 -->
<g id="node2" class="node">
<title>Node2</title>
<g id="a_node2"><a xlink:href="namespacesharp.html#a1edcf8bff9a13429bcbff7c1129024b3" target="_top" xlink:title="Finds the index of the lower bound that does not satisfy element &lt; value.">
<polygon fill="white" stroke="#666666" points="276.5,-56 164.5,-56 164.5,-37 276.5,-37 276.5,-56"/>
<text text-anchor="middle" x="220.5" y="-44" font-family="Helvetica,sans-Serif" font-size="10.00">sharp::lower_bound</text>
</a>
</g>
</g>
<!-- Node1&#45;&gt;Node2 -->
<g id="edge1" class="edge">
<title>Node1&#45;&gt;Node2</title>
<path fill="none" stroke="#63b8ff" d="M128.29,-35.28C136.91,-36.34 145.78,-37.43 154.43,-38.5"/>
<polygon fill="#63b8ff" stroke="#63b8ff" points="154.12,-41.99 164.47,-39.73 154.97,-35.04 154.12,-41.99"/>
</g>
<!-- Node3 -->
<g id="node3" class="node">
<title>Node3</title>
<g id="a_node3"><a xlink:href="namespacesharp.html#a772686549a5111c1152b778731119aa6" target="_top" xlink:title="Finds the first index that satisfies value &lt; element.">
<polygon fill="white" stroke="#666666" points="277,-19 164,-19 164,0 277,0 277,-19"/>
<text text-anchor="middle" x="220.5" y="-7" font-family="Helvetica,sans-Serif" font-size="10.00">sharp::upper_bound</text>
</a>
</g>
</g>
<!-- Node1&#45;&gt;Node3 -->
<g id="edge2" class="edge">
<title>Node1&#45;&gt;Node3</title>
<path fill="none" stroke="#63b8ff" d="M128.29,-20.13C136.7,-19.15 145.34,-18.14 153.79,-17.16"/>
<polygon fill="#63b8ff" stroke="#63b8ff" points="154.46,-20.6 163.98,-15.97 153.64,-13.65 154.46,-20.6"/>
</g>
</g>
</svg>
