<?xml version="1.0" encoding="UTF-8" standalone="no"?>
<!DOCTYPE svg PUBLIC "-//W3C//DTD SVG 1.1//EN"
 "http://www.w3.org/Graphics/SVG/1.1/DTD/svg11.dtd">
<!-- Generated by graphviz version 2.43.0 (0)
 -->
<!-- Title: sharp::interp_height Pages: 1 -->
<svg width="386pt" height="64pt"
 viewBox="0.00 0.00 386.00 64.00" xmlns="http://www.w3.org/2000/svg" xmlns:xlink="http://www.w3.org/1999/xlink">
<g id="graph0" class="graph" transform="scale(1 1) rotate(0) translate(4 60)">
<title>sharp::interp_height</title>
<!-- Node1 -->
<g id="node1" class="node">
<title>Node1</title>
<g id="a_node1"><a xlink:title="Linearly interpolate a data field to a requested height level.">
<polygon fill="#999999" stroke="#666666" points="114,-37 0,-37 0,-18 114,-18 114,-37"/>
<text text-anchor="middle" x="57" y="-25" font-family="Helvetica,sans-Serif" font-size="10.00">sharp::interp_height</text>
</a>
</g>
</g>
<!-- Node2 -->
<g id="node2" class="node">
<title>Node2</title>
<g id="a_node2"><a xlink:href="namespacesharp.html#a0bf533560780fdb77bc3656db8d89208" target="_top" xlink:title="Linearly interpolates between a and b with distance t.">
<polygon fill="white" stroke="#666666" points="240.5,-56 172.5,-56 172.5,-37 240.5,-37 240.5,-56"/>
<text text-anchor="middle" x="206.5" y="-44" font-family="Helvetica,sans-Serif" font-size="10.00">sharp::lerp</text>
</a>
</g>
</g>
<!-- Node1&#45;&gt;Node2 -->
<g id="edge1" class="edge">
<title>Node1&#45;&gt;Node2</title>
<path fill="none" stroke="#63b8ff" d="M114.18,-34.74C130.06,-36.78 147.09,-38.98 162.09,-40.91"/>
<polygon fill="#63b8ff" stroke="#63b8ff" points="161.75,-44.39 172.11,-42.2 162.64,-37.45 161.75,-44.39"/>
</g>
<!-- Node4 -->
<g id="node4" class="node">
<title>Node4</title>
<g id="a_node4"><a xlink:href="namespacesharp.html#a772686549a5111c1152b778731119aa6" target="_top" xlink:title="Finds the first index that satisfies value &lt; element.">
<polygon fill="white" stroke="#666666" points="263,-19 150,-19 150,0 263,0 263,-19"/>
<text text-anchor="middle" x="206.5" y="-7" font-family="Helvetica,sans-Serif" font-size="10.00">sharp::upper_bound</text>
</a>
</g>
</g>
<!-- Node1&#45;&gt;Node4 -->
<g id="edge3" class="edge">
<title>Node1&#45;&gt;Node4</title>
<path fill="none" stroke="#63b8ff" d="M114.18,-20.64C122.61,-19.62 131.36,-18.55 139.96,-17.5"/>
<polygon fill="#63b8ff" stroke="#63b8ff" points="140.46,-20.96 149.96,-16.28 139.61,-14.01 140.46,-20.96"/>
</g>
<!-- Node3 -->
<g id="node3" class="node">
<title>Node3</title>
<g id="a_node3"><a xlink:href="namespacesharp.html#ac4464059524ff56c7974141bb4cc7375" target="_top" xlink:title="Linearly interpolates between a and b with distance t.">
<polygon fill="white" stroke="#666666" points="378,-56 299,-56 299,-37 378,-37 378,-56"/>
<text text-anchor="middle" x="338.5" y="-44" font-family="Helvetica,sans-Serif" font-size="10.00">sharp::__lerp</text>
</a>
</g>
</g>
<!-- Node2&#45;&gt;Node3 -->
<g id="edge2" class="edge">
<title>Node2&#45;&gt;Node3</title>
<path fill="none" stroke="#63b8ff" d="M240.64,-46.5C255.2,-46.5 272.6,-46.5 288.61,-46.5"/>
<polygon fill="#63b8ff" stroke="#63b8ff" points="288.88,-50 298.88,-46.5 288.88,-43 288.88,-50"/>
</g>
</g>
</svg>
