<?xml version="1.0" encoding="UTF-8" standalone="no"?>
<!DOCTYPE svg PUBLIC "-//W3C//DTD SVG 1.1//EN"
 "http://www.w3.org/Graphics/SVG/1.1/DTD/svg11.dtd">
<!-- Generated by graphviz version 2.43.0 (0)
 -->
<!-- Title: sharp::layer_min Pages: 1 -->
<svg width="690pt" height="101pt"
 viewBox="0.00 0.00 690.00 101.00" xmlns="http://www.w3.org/2000/svg" xmlns:xlink="http://www.w3.org/1999/xlink">
<g id="graph0" class="graph" transform="scale(1 1) rotate(0) translate(4 97)">
<title>sharp::layer_min</title>
<!-- Node1 -->
<g id="node1" class="node">
<title>Node1</title>
<g id="a_node1"><a xlink:title="Returns the minimum value in the given layer.">
<polygon fill="#999999" stroke="#666666" points="98,-56 0,-56 0,-37 98,-37 98,-56"/>
<text text-anchor="middle" x="49" y="-44" font-family="Helvetica,sans-Serif" font-size="10.00">sharp::layer_min</text>
</a>
</g>
</g>
<!-- Node2 -->
<g id="node2" class="node">
<title>Node2</title>
<g id="a_node2"><a xlink:href="namespacesharp.html#a646b65095b84511b75f6a4a81e545e80" target="_top" xlink:title="Template for min/max value over sharp::PressureLayer or sharp::HeightLayer.">
<polygon fill="white" stroke="#666666" points="254,-56 134,-56 134,-37 254,-37 254,-56"/>
<text text-anchor="middle" x="194" y="-44" font-family="Helvetica,sans-Serif" font-size="10.00">sharp::layer_minmax</text>
</a>
</g>
</g>
<!-- Node1&#45;&gt;Node2 -->
<g id="edge1" class="edge">
<title>Node1&#45;&gt;Node2</title>
<path fill="none" stroke="#63b8ff" d="M98.01,-46.5C106.3,-46.5 115.05,-46.5 123.76,-46.5"/>
<polygon fill="#63b8ff" stroke="#63b8ff" points="123.93,-50 133.93,-46.5 123.93,-43 123.93,-50"/>
</g>
<!-- Node3 -->
<g id="node3" class="node">
<title>Node3</title>
<g id="a_node3"><a xlink:href="namespacesharp.html#ac93f477dfa774c966b5da7521bd43ee6" target="_top" xlink:title="Returns the array indices corresponding to the given layer.">
<polygon fill="white" stroke="#666666" points="418,-93 290,-93 290,-74 418,-74 418,-93"/>
<text text-anchor="middle" x="354" y="-81" font-family="Helvetica,sans-Serif" font-size="10.00">sharp::get_layer_index</text>
</a>
</g>
</g>
<!-- Node2&#45;&gt;Node3 -->
<g id="edge2" class="edge">
<title>Node2&#45;&gt;Node3</title>
<path fill="none" stroke="#63b8ff" d="M235.69,-56.03C255.97,-60.78 280.71,-66.57 302.22,-71.61"/>
<polygon fill="#63b8ff" stroke="#63b8ff" points="301.64,-75.07 312.17,-73.94 303.24,-68.25 301.64,-75.07"/>
</g>
<!-- Node6 -->
<g id="node6" class="node">
<title>Node6</title>
<g id="a_node6"><a xlink:href="namespacesharp.html#af8484e9fe21c025b64ecffde614feb11" target="_top" xlink:title="Linearly interpolate a data field to a requested height level.">
<polygon fill="white" stroke="#666666" points="411,-19 297,-19 297,0 411,0 411,-19"/>
<text text-anchor="middle" x="354" y="-7" font-family="Helvetica,sans-Serif" font-size="10.00">sharp::interp_height</text>
</a>
</g>
</g>
<!-- Node2&#45;&gt;Node6 -->
<g id="edge5" class="edge">
<title>Node2&#45;&gt;Node6</title>
<path fill="none" stroke="#63b8ff" d="M235.69,-36.97C255.97,-32.22 280.71,-26.43 302.22,-21.39"/>
<polygon fill="#63b8ff" stroke="#63b8ff" points="303.24,-24.75 312.17,-19.06 301.64,-17.93 303.24,-24.75"/>
</g>
<!-- Node9 -->
<g id="node9" class="node">
<title>Node9</title>
<g id="a_node9"><a xlink:href="namespacesharp.html#a7ed0899941867073e5062af04fdbd3e7" target="_top" xlink:title="Linearly interpolate a data field to a requested pressure level.">
<polygon fill="white" stroke="#666666" points="416.5,-56 291.5,-56 291.5,-37 416.5,-37 416.5,-56"/>
<text text-anchor="middle" x="354" y="-44" font-family="Helvetica,sans-Serif" font-size="10.00">sharp::interp_pressure</text>
</a>
</g>
</g>
<!-- Node2&#45;&gt;Node9 -->
<g id="edge9" class="edge">
<title>Node2&#45;&gt;Node9</title>
<path fill="none" stroke="#63b8ff" d="M254.28,-46.5C263.06,-46.5 272.19,-46.5 281.19,-46.5"/>
<polygon fill="#63b8ff" stroke="#63b8ff" points="281.27,-50 291.27,-46.5 281.27,-43 281.27,-50"/>
</g>
<!-- Node4 -->
<g id="node4" class="node">
<title>Node4</title>
<g id="a_node4"><a xlink:href="namespacesharp.html#a1edcf8bff9a13429bcbff7c1129024b3" target="_top" xlink:title="Finds the index of the lower bound that does not satisfy element &lt; value.">
<polygon fill="white" stroke="#666666" points="566.5,-93 454.5,-93 454.5,-74 566.5,-74 566.5,-93"/>
<text text-anchor="middle" x="510.5" y="-81" font-family="Helvetica,sans-Serif" font-size="10.00">sharp::lower_bound</text>
</a>
</g>
</g>
<!-- Node3&#45;&gt;Node4 -->
<g id="edge3" class="edge">
<title>Node3&#45;&gt;Node4</title>
<path fill="none" stroke="#63b8ff" d="M418.29,-83.5C426.91,-83.5 435.78,-83.5 444.43,-83.5"/>
<polygon fill="#63b8ff" stroke="#63b8ff" points="444.47,-87 454.47,-83.5 444.47,-80 444.47,-87"/>
</g>
<!-- Node5 -->
<g id="node5" class="node">
<title>Node5</title>
<g id="a_node5"><a xlink:href="namespacesharp.html#a772686549a5111c1152b778731119aa6" target="_top" xlink:title="Finds the first index that satisfies value &lt; element.">
<polygon fill="white" stroke="#666666" points="567,-56 454,-56 454,-37 567,-37 567,-56"/>
<text text-anchor="middle" x="510.5" y="-44" font-family="Helvetica,sans-Serif" font-size="10.00">sharp::upper_bound</text>
</a>
</g>
</g>
<!-- Node3&#45;&gt;Node5 -->
<g id="edge4" class="edge">
<title>Node3&#45;&gt;Node5</title>
<path fill="none" stroke="#63b8ff" d="M394.79,-73.97C414.62,-69.22 438.81,-63.43 459.85,-58.39"/>
<polygon fill="#63b8ff" stroke="#63b8ff" points="460.67,-61.79 469.58,-56.06 459.04,-54.99 460.67,-61.79"/>
</g>
<!-- Node6&#45;&gt;Node5 -->
<g id="edge8" class="edge">
<title>Node6&#45;&gt;Node5</title>
<path fill="none" stroke="#63b8ff" d="M394.79,-19.03C414.62,-23.78 438.81,-29.57 459.85,-34.61"/>
<polygon fill="#63b8ff" stroke="#63b8ff" points="459.04,-38.01 469.58,-36.94 460.67,-31.21 459.04,-38.01"/>
</g>
<!-- Node7 -->
<g id="node7" class="node">
<title>Node7</title>
<g id="a_node7"><a xlink:href="namespacesharp.html#a8aa123fbe3b59a7023446b0fe2186c49" target="_top" xlink:title="Linearly interpolates between a and b with distance t.">
<polygon fill="white" stroke="#666666" points="544.5,-19 476.5,-19 476.5,0 544.5,0 544.5,-19"/>
<text text-anchor="middle" x="510.5" y="-7" font-family="Helvetica,sans-Serif" font-size="10.00">sharp::lerp</text>
</a>
</g>
</g>
<!-- Node6&#45;&gt;Node7 -->
<g id="edge6" class="edge">
<title>Node6&#45;&gt;Node7</title>
<path fill="none" stroke="#63b8ff" d="M411.22,-9.5C429.36,-9.5 449.19,-9.5 466.25,-9.5"/>
<polygon fill="#63b8ff" stroke="#63b8ff" points="466.48,-13 476.48,-9.5 466.48,-6 466.48,-13"/>
</g>
<!-- Node8 -->
<g id="node8" class="node">
<title>Node8</title>
<g id="a_node8"><a xlink:href="namespacesharp.html#a8848423b96dfe09b90322efd2cc5bd43" target="_top" xlink:title="Linearly interpolates between a and b with distance t.">
<polygon fill="white" stroke="#666666" points="682,-19 603,-19 603,0 682,0 682,-19"/>
<text text-anchor="middle" x="642.5" y="-7" font-family="Helvetica,sans-Serif" font-size="10.00">sharp::__lerp</text>
</a>
</g>
</g>
<!-- Node7&#45;&gt;Node8 -->
<g id="edge7" class="edge">
<title>Node7&#45;&gt;Node8</title>
<path fill="none" stroke="#63b8ff" d="M544.64,-9.5C559.2,-9.5 576.6,-9.5 592.61,-9.5"/>
<polygon fill="#63b8ff" stroke="#63b8ff" points="592.88,-13 602.88,-9.5 592.88,-6 592.88,-13"/>
</g>
<!-- Node9&#45;&gt;Node5 -->
<g id="edge11" class="edge">
<title>Node9&#45;&gt;Node5</title>
<path fill="none" stroke="#63b8ff" d="M416.51,-46.5C425.43,-46.5 434.65,-46.5 443.66,-46.5"/>
<polygon fill="#63b8ff" stroke="#63b8ff" points="443.71,-50 453.71,-46.5 443.71,-43 443.71,-50"/>
</g>
<!-- Node9&#45;&gt;Node7 -->
<g id="edge10" class="edge">
<title>Node9&#45;&gt;Node7</title>
<path fill="none" stroke="#63b8ff" d="M394.79,-36.97C416.73,-31.72 443.99,-25.19 466.43,-19.81"/>
<polygon fill="#63b8ff" stroke="#63b8ff" points="467.46,-23.17 476.37,-17.43 465.83,-16.36 467.46,-23.17"/>
</g>
</g>
</svg>
