<?xml version="1.0" encoding="UTF-8" standalone="no"?>
<!DOCTYPE svg PUBLIC "-//W3C//DTD SVG 1.1//EN"
 "http://www.w3.org/Graphics/SVG/1.1/DTD/svg11.dtd">
<!-- Generated by graphviz version 2.43.0 (0)
 -->
<!-- Title: sharp::interp_height Pages: 1 -->
<svg width="626pt" height="510pt"
 viewBox="0.00 0.00 626.00 509.50" xmlns="http://www.w3.org/2000/svg" xmlns:xlink="http://www.w3.org/1999/xlink">
<g id="graph0" class="graph" transform="scale(1 1) rotate(0) translate(4 505.5)">
<title>sharp::interp_height</title>
<!-- Node1 -->
<g id="node1" class="node">
<title>Node1</title>
<g id="a_node1"><a xlink:title="Linearly interpolate a data field to a requested height level.">
<polygon fill="#999999" stroke="#666666" points="618,-226 504,-226 504,-207 618,-207 618,-226"/>
<text text-anchor="middle" x="561" y="-214" font-family="Helvetica,sans-Serif" font-size="10.00">sharp::interp_height</text>
</a>
</g>
</g>
<!-- Node2 -->
<g id="node2" class="node">
<title>Node2</title>
<g id="a_node2"><a xlink:href="namespacesharp.html#a72bbdc4cfe7895dd51981902ac9fc822" target="_top" xlink:title="Computes Entrainment CAPE using a previously lifted parcel.">
<polygon fill="white" stroke="#666666" points="138,-289 0,-289 0,-270 138,-270 138,-289"/>
<text text-anchor="middle" x="69" y="-277" font-family="Helvetica,sans-Serif" font-size="10.00">sharp::entrainment_cape</text>
</a>
</g>
</g>
<!-- Node1&#45;&gt;Node2 -->
<g id="edge1" class="edge">
<title>Node1&#45;&gt;Node2</title>
<path fill="none" stroke="#63b8ff" d="M551.24,-235.3C537.46,-262.82 508.08,-313.77 468,-341.5 407.25,-383.53 381.18,-376.41 308,-386.5 249,-394.64 228.86,-409.68 174,-386.5 125.8,-366.13 88.91,-311.29 75.5,-289.06"/>
<polygon fill="#63b8ff" stroke="#63b8ff" points="554.54,-236.53 555.75,-226.01 548.24,-233.48 554.54,-236.53"/>
</g>
<!-- Node3 -->
<g id="node3" class="node">
<title>Node3</title>
<g id="a_node3"><a xlink:href="namespacesharp.html#ab77e344c7462c9615b0ddac228bc2193" target="_top" xlink:title="Converts a sharp::HeightLayer to a sharp::PressureLayer.">
<polygon fill="white" stroke="#666666" points="461,-463.5 351,-463.5 351,-433.5 461,-433.5 461,-463.5"/>
<text text-anchor="start" x="359" y="-451.5" font-family="Helvetica,sans-Serif" font-size="10.00">sharp::height_layer</text>
<text text-anchor="middle" x="406" y="-440.5" font-family="Helvetica,sans-Serif" font-size="10.00">_to_pressure</text>
</a>
</g>
</g>
<!-- Node1&#45;&gt;Node3 -->
<g id="edge2" class="edge">
<title>Node1&#45;&gt;Node3</title>
<path fill="none" stroke="#63b8ff" d="M555.85,-236.3C546.62,-275.88 520.92,-365.61 468,-419.5 462.58,-425.02 455.9,-429.62 448.97,-433.41"/>
<polygon fill="#63b8ff" stroke="#63b8ff" points="559.31,-236.85 558.07,-226.33 552.48,-235.33 559.31,-236.85"/>
</g>
<!-- Node7 -->
<g id="node7" class="node">
<title>Node7</title>
<g id="a_node7"><a xlink:href="namespacesharp.html#a80858337a63be77bafadbb343d6e4931" target="_top" xlink:title="Computes the Storm Relative Helicity (SRH) over a given layer.">
<polygon fill="white" stroke="#666666" points="449,-332 363,-332 363,-313 449,-313 449,-332"/>
<text text-anchor="middle" x="406" y="-320" font-family="Helvetica,sans-Serif" font-size="10.00">sharp::helicity</text>
</a>
</g>
</g>
<!-- Node1&#45;&gt;Node7 -->
<g id="edge7" class="edge">
<title>Node1&#45;&gt;Node7</title>
<path fill="none" stroke="#63b8ff" d="M537.89,-231.82C505.97,-253.93 447.88,-294.18 421.15,-312.7"/>
<polygon fill="#63b8ff" stroke="#63b8ff" points="539.93,-234.67 546.15,-226.09 535.94,-228.91 539.93,-234.67"/>
</g>
<!-- Node9 -->
<g id="node9" class="node">
<title>Node9</title>
<g id="a_node9"><a xlink:href="namespacesharp.html#a7acec1642f27591dc988bf9e48b4612d" target="_top" xlink:title="Returns a trapezoidal integration of the given layer.">
<polygon fill="white" stroke="#666666" points="468,-253.5 344,-253.5 344,-223.5 468,-223.5 468,-253.5"/>
<text text-anchor="start" x="352" y="-241.5" font-family="Helvetica,sans-Serif" font-size="10.00">sharp::integrate_layer</text>
<text text-anchor="middle" x="406" y="-230.5" font-family="Helvetica,sans-Serif" font-size="10.00">_trapz</text>
</a>
</g>
</g>
<!-- Node1&#45;&gt;Node9 -->
<g id="edge9" class="edge">
<title>Node1&#45;&gt;Node9</title>
<path fill="none" stroke="#63b8ff" d="M493.98,-225.99C485.43,-227.22 476.71,-228.48 468.25,-229.69"/>
<polygon fill="#63b8ff" stroke="#63b8ff" points="494.5,-229.45 503.9,-224.57 493.5,-222.53 494.5,-229.45"/>
</g>
<!-- Node14 -->
<g id="node14" class="node">
<title>Node14</title>
<g id="a_node14"><a xlink:href="structsharp_1_1Parcel.html#a1bf670e79f35a1ce8c904b7ead32ccbe" target="_top" xlink:title="Construct and return a mixed&#45;layer Parcel.">
<polygon fill="white" stroke="#666666" points="126.5,-240.5 11.5,-240.5 11.5,-210.5 126.5,-210.5 126.5,-240.5"/>
<text text-anchor="start" x="19.5" y="-228.5" font-family="Helvetica,sans-Serif" font-size="10.00">sharp::Parcel::mixed</text>
<text text-anchor="middle" x="69" y="-217.5" font-family="Helvetica,sans-Serif" font-size="10.00">_layer_parcel</text>
</a>
</g>
</g>
<!-- Node1&#45;&gt;Node14 -->
<g id="edge24" class="edge">
<title>Node1&#45;&gt;Node14</title>
<path fill="none" stroke="#63b8ff" d="M493.67,-214.18C416.73,-211.98 286.09,-209.79 174,-215.5 158.6,-216.28 141.96,-217.65 126.61,-219.12"/>
<polygon fill="#63b8ff" stroke="#63b8ff" points="493.6,-217.68 503.7,-214.47 493.81,-210.68 493.6,-217.68"/>
</g>
<!-- Node16 -->
<g id="node16" class="node">
<title>Node16</title>
<g id="a_node16"><a xlink:href="namespacesharp.html#a43a01274768ee388a983046651a230d3" target="_top" xlink:title="compute the lapse rate over the given sharp::HeightLayer (AGL)">
<polygon fill="white" stroke="#666666" points="456.5,-130 355.5,-130 355.5,-111 456.5,-111 456.5,-130"/>
<text text-anchor="middle" x="406" y="-118" font-family="Helvetica,sans-Serif" font-size="10.00">sharp::lapse_rate</text>
</a>
</g>
</g>
<!-- Node1&#45;&gt;Node16 -->
<g id="edge18" class="edge">
<title>Node1&#45;&gt;Node16</title>
<path fill="none" stroke="#63b8ff" d="M536.08,-201.49C504.22,-181.5 448.82,-146.74 422.17,-130.02"/>
<polygon fill="#63b8ff" stroke="#63b8ff" points="534.44,-204.59 544.77,-206.94 538.16,-198.66 534.44,-204.59"/>
</g>
<!-- Node19 -->
<g id="node19" class="node">
<title>Node19</title>
<g id="a_node19"><a xlink:href="namespacesharp.html#a646b65095b84511b75f6a4a81e545e80" target="_top" xlink:title="Template for min/max value over sharp::PressureLayer or sharp::HeightLayer.">
<polygon fill="white" stroke="#666666" points="466,-75 346,-75 346,-56 466,-56 466,-75"/>
<text text-anchor="middle" x="406" y="-63" font-family="Helvetica,sans-Serif" font-size="10.00">sharp::layer_minmax</text>
</a>
</g>
</g>
<!-- Node1&#45;&gt;Node19 -->
<g id="edge21" class="edge">
<title>Node1&#45;&gt;Node19</title>
<path fill="none" stroke="#63b8ff" d="M548.2,-198.2C532.12,-174.21 501.47,-131.76 468,-102.5 455.41,-91.49 439.14,-81.81 426.56,-75.11"/>
<polygon fill="#63b8ff" stroke="#63b8ff" points="545.38,-200.28 553.81,-206.7 551.23,-196.43 545.38,-200.28"/>
</g>
<!-- Node22 -->
<g id="node22" class="node">
<title>Node22</title>
<g id="a_node22"><a xlink:href="namespacesharp.html#a099a4575acc27d6e10f9dfb69bc315a1" target="_top" xlink:title="Compue the wind shear for a given layer.">
<polygon fill="white" stroke="#666666" points="458.5,-38 353.5,-38 353.5,-19 458.5,-19 458.5,-38"/>
<text text-anchor="middle" x="406" y="-26" font-family="Helvetica,sans-Serif" font-size="10.00">sharp::wind_shear</text>
</a>
</g>
</g>
<!-- Node1&#45;&gt;Node22 -->
<g id="edge25" class="edge">
<title>Node1&#45;&gt;Node22</title>
<path fill="none" stroke="#63b8ff" d="M554.66,-196.84C544.09,-161.66 517.17,-87.84 468,-47.5 463.28,-43.63 457.78,-40.55 452.04,-38.09"/>
<polygon fill="#63b8ff" stroke="#63b8ff" points="551.4,-198.17 557.52,-206.81 558.13,-196.24 551.4,-198.17"/>
</g>
<!-- Node4 -->
<g id="node4" class="node">
<title>Node4</title>
<g id="a_node4"><a xlink:href="namespacesharp.html#aa0726266b4777806bae4e8054e01684c" target="_top" xlink:title="Computes the mass&#45;weighted mean value of a field over a given height layer.">
<polygon fill="white" stroke="#666666" points="294.5,-453 187.5,-453 187.5,-434 294.5,-434 294.5,-453"/>
<text text-anchor="middle" x="241" y="-441" font-family="Helvetica,sans-Serif" font-size="10.00">sharp::layer_mean</text>
</a>
</g>
</g>
<!-- Node3&#45;&gt;Node4 -->
<g id="edge3" class="edge">
<title>Node3&#45;&gt;Node4</title>
<path fill="none" stroke="#63b8ff" d="M340.38,-446.52C325.21,-446.05 309.23,-445.56 294.66,-445.12"/>
<polygon fill="#63b8ff" stroke="#63b8ff" points="340.62,-450.03 350.72,-446.84 340.84,-443.03 340.62,-450.03"/>
</g>
<!-- Node5 -->
<g id="node5" class="node">
<title>Node5</title>
<g id="a_node5"><a xlink:href="namespacesharp.html#a74a735636c932467b4d2ced544e0cb51" target="_top" xlink:title="Estimates supercell storm motion using the Bunkers et al. 2000 method.">
<polygon fill="white" stroke="#666666" points="300,-501.5 182,-501.5 182,-471.5 300,-471.5 300,-501.5"/>
<text text-anchor="start" x="190" y="-489.5" font-family="Helvetica,sans-Serif" font-size="10.00">sharp::storm_motion</text>
<text text-anchor="middle" x="241" y="-478.5" font-family="Helvetica,sans-Serif" font-size="10.00">_bunkers</text>
</a>
</g>
</g>
<!-- Node3&#45;&gt;Node5 -->
<g id="edge4" class="edge">
<title>Node3&#45;&gt;Node5</title>
<path fill="none" stroke="#63b8ff" d="M340.67,-463.5C327.33,-466.61 313.35,-469.87 300.24,-472.92"/>
<polygon fill="#63b8ff" stroke="#63b8ff" points="341.78,-466.83 350.72,-461.15 340.19,-460.02 341.78,-466.83"/>
</g>
<!-- Node5&#45;&gt;Node2 -->
<g id="edge5" class="edge">
<title>Node5&#45;&gt;Node2</title>
<path fill="none" stroke="#63b8ff" d="M178.71,-466.12C177.08,-464.97 175.5,-463.77 174,-462.5 114.54,-412.27 82.03,-318.94 72.78,-289"/>
<polygon fill="#63b8ff" stroke="#63b8ff" points="176.92,-469.12 187.28,-471.33 180.56,-463.14 176.92,-469.12"/>
</g>
<!-- Node6 -->
<g id="node6" class="node">
<title>Node6</title>
<g id="a_node6"><a xlink:href="namespacesharp.html#ab31d383a3231f8fef873e5a16c0db856" target="_top" xlink:title="Estimates supercell storm motion by using the Bunkers et al. 2014 method.">
<polygon fill="white" stroke="#666666" points="128,-501.5 10,-501.5 10,-471.5 128,-471.5 128,-501.5"/>
<text text-anchor="start" x="18" y="-489.5" font-family="Helvetica,sans-Serif" font-size="10.00">sharp::storm_motion</text>
<text text-anchor="middle" x="69" y="-478.5" font-family="Helvetica,sans-Serif" font-size="10.00">_bunkers</text>
</a>
</g>
</g>
<!-- Node5&#45;&gt;Node6 -->
<g id="edge6" class="edge">
<title>Node5&#45;&gt;Node6</title>
<path fill="none" stroke="#63b8ff" d="M171.6,-486.5C157.17,-486.5 142.07,-486.5 128.06,-486.5"/>
<polygon fill="#63b8ff" stroke="#63b8ff" points="171.97,-490 181.97,-486.5 171.97,-483 171.97,-490"/>
</g>
<!-- Node8 -->
<g id="node8" class="node">
<title>Node8</title>
<g id="a_node8"><a xlink:href="namespacesharp.html#ab89a7e3555a52f0fd9f4086d5aba7037" target="_top" xlink:title=" ">
<polygon fill="white" stroke="#666666" points="303.5,-377.5 178.5,-377.5 178.5,-347.5 303.5,-347.5 303.5,-377.5"/>
<text text-anchor="start" x="186.5" y="-365.5" font-family="Helvetica,sans-Serif" font-size="10.00">sharp::energy_helicity</text>
<text text-anchor="middle" x="241" y="-354.5" font-family="Helvetica,sans-Serif" font-size="10.00">_index</text>
</a>
</g>
</g>
<!-- Node7&#45;&gt;Node8 -->
<g id="edge8" class="edge">
<title>Node7&#45;&gt;Node8</title>
<path fill="none" stroke="#63b8ff" d="M355.96,-334.54C339.4,-338.6 320.71,-343.19 303.32,-347.45"/>
<polygon fill="#63b8ff" stroke="#63b8ff" points="357.08,-337.86 365.96,-332.08 355.41,-331.07 357.08,-337.86"/>
</g>
<!-- Node9&#45;&gt;Node2 -->
<g id="edge13" class="edge">
<title>Node9&#45;&gt;Node2</title>
<path fill="none" stroke="#63b8ff" d="M333.83,-249.02C325.14,-250.24 316.37,-251.42 308,-252.5 250.77,-259.87 185.67,-267.19 138.03,-272.34"/>
<polygon fill="#63b8ff" stroke="#63b8ff" points="334.57,-252.46 343.98,-247.6 333.59,-245.52 334.57,-252.46"/>
</g>
<!-- Node10 -->
<g id="node10" class="node">
<title>Node10</title>
<g id="a_node10"><a xlink:href="structsharp_1_1Parcel.html#a0560bd193b2d2d6bc6b08baa7463fba4" target="_top" xlink:title="Compute CAPE and CINH for a previously lifted sharp::Parcel.">
<polygon fill="white" stroke="#666666" points="308,-167 174,-167 174,-148 308,-148 308,-167"/>
<text text-anchor="middle" x="241" y="-155" font-family="Helvetica,sans-Serif" font-size="10.00">sharp::Parcel::cape_cinh</text>
</a>
</g>
</g>
<!-- Node9&#45;&gt;Node10 -->
<g id="edge10" class="edge">
<title>Node9&#45;&gt;Node10</title>
<path fill="none" stroke="#63b8ff" d="M365.36,-218.8C332.4,-202.42 286.91,-179.82 261.38,-167.13"/>
<polygon fill="#63b8ff" stroke="#63b8ff" points="364.21,-222.14 374.72,-223.45 367.33,-215.87 364.21,-222.14"/>
</g>
<!-- Node13 -->
<g id="node13" class="node">
<title>Node13</title>
<g id="a_node13"><a xlink:href="namespacesharp.html#a298e2c96c389f2c5177d3626c908927e" target="_top" xlink:title="Computes the mass&#45;weighted mean value of a field over a given pressure layer.">
<polygon fill="white" stroke="#666666" points="294.5,-243 187.5,-243 187.5,-224 294.5,-224 294.5,-243"/>
<text text-anchor="middle" x="241" y="-231" font-family="Helvetica,sans-Serif" font-size="10.00">sharp::layer_mean</text>
</a>
</g>
</g>
<!-- Node9&#45;&gt;Node13 -->
<g id="edge14" class="edge">
<title>Node9&#45;&gt;Node13</title>
<path fill="none" stroke="#63b8ff" d="M333.48,-236.31C320.44,-235.91 307.05,-235.5 294.68,-235.12"/>
<polygon fill="#63b8ff" stroke="#63b8ff" points="333.74,-239.82 343.84,-236.62 333.95,-232.82 333.74,-239.82"/>
</g>
<!-- Node15 -->
<g id="node15" class="node">
<title>Node15</title>
<g id="a_node15"><a xlink:href="namespacesharp.html#af910931fdd9e0fe7d63ba7446743e354" target="_top" xlink:title="Computes the precipitable water vapor content over a layer.">
<polygon fill="white" stroke="#666666" points="294.5,-329.5 187.5,-329.5 187.5,-299.5 294.5,-299.5 294.5,-329.5"/>
<text text-anchor="start" x="195.5" y="-317.5" font-family="Helvetica,sans-Serif" font-size="10.00">sharp::precipitable</text>
<text text-anchor="middle" x="241" y="-306.5" font-family="Helvetica,sans-Serif" font-size="10.00">_water</text>
</a>
</g>
</g>
<!-- Node9&#45;&gt;Node15 -->
<g id="edge17" class="edge">
<title>Node9&#45;&gt;Node15</title>
<path fill="none" stroke="#63b8ff" d="M365.22,-258.19C347.74,-266.73 326.92,-276.76 308,-285.5 298,-290.12 287.08,-294.99 277.05,-299.39"/>
<polygon fill="#63b8ff" stroke="#63b8ff" points="367.12,-261.15 374.56,-253.61 364.04,-254.87 367.12,-261.15"/>
</g>
<!-- Node11 -->
<g id="node11" class="node">
<title>Node11</title>
<g id="a_node11"><a xlink:href="namespacesharp.html#a2e6b7cd4a3594a8f2c2050b0e4784cce" target="_top" xlink:title="Computes the Effective Inflow Layer for a given atmospheric sounding.">
<polygon fill="white" stroke="#666666" points="132.5,-134.5 5.5,-134.5 5.5,-104.5 132.5,-104.5 132.5,-134.5"/>
<text text-anchor="start" x="13.5" y="-122.5" font-family="Helvetica,sans-Serif" font-size="10.00">sharp::effective_inflow</text>
<text text-anchor="middle" x="69" y="-111.5" font-family="Helvetica,sans-Serif" font-size="10.00">_layer</text>
</a>
</g>
</g>
<!-- Node10&#45;&gt;Node11 -->
<g id="edge11" class="edge">
<title>Node10&#45;&gt;Node11</title>
<path fill="none" stroke="#63b8ff" d="M187.22,-145.7C170,-141.85 150.69,-137.54 132.8,-133.54"/>
<polygon fill="#63b8ff" stroke="#63b8ff" points="186.58,-149.15 197.1,-147.91 188.11,-142.31 186.58,-149.15"/>
</g>
<!-- Node12 -->
<g id="node12" class="node">
<title>Node12</title>
<g id="a_node12"><a xlink:href="structsharp_1_1Parcel.html#aa258d27992d22d8b80cb221e6e2a6c19" target="_top" xlink:title="Construct and return a most&#45;unstable Parcel.">
<polygon fill="white" stroke="#666666" points="124,-182.5 14,-182.5 14,-152.5 124,-152.5 124,-182.5"/>
<text text-anchor="start" x="22" y="-170.5" font-family="Helvetica,sans-Serif" font-size="10.00">sharp::Parcel::most</text>
<text text-anchor="middle" x="69" y="-159.5" font-family="Helvetica,sans-Serif" font-size="10.00">_unstable_parcel</text>
</a>
</g>
</g>
<!-- Node10&#45;&gt;Node12 -->
<g id="edge12" class="edge">
<title>Node10&#45;&gt;Node12</title>
<path fill="none" stroke="#63b8ff" d="M163.69,-161.99C150.38,-162.77 136.79,-163.57 124.23,-164.31"/>
<polygon fill="#63b8ff" stroke="#63b8ff" points="164.01,-165.48 173.79,-161.39 163.6,-158.49 164.01,-165.48"/>
</g>
<!-- Node13&#45;&gt;Node2 -->
<g id="edge15" class="edge">
<title>Node13&#45;&gt;Node2</title>
<path fill="none" stroke="#63b8ff" d="M194.8,-245.73C166.72,-253.33 131.15,-262.95 105.18,-269.98"/>
<polygon fill="#63b8ff" stroke="#63b8ff" points="196.04,-249.02 204.78,-243.03 194.21,-242.26 196.04,-249.02"/>
</g>
<!-- Node13&#45;&gt;Node14 -->
<g id="edge16" class="edge">
<title>Node13&#45;&gt;Node14</title>
<path fill="none" stroke="#63b8ff" d="M177.04,-230.54C160.53,-229.76 142.82,-228.93 126.66,-228.17"/>
<polygon fill="#63b8ff" stroke="#63b8ff" points="176.99,-234.04 187.14,-231.01 177.32,-227.05 176.99,-234.04"/>
</g>
<!-- Node17 -->
<g id="node17" class="node">
<title>Node17</title>
<g id="a_node17"><a xlink:href="namespacesharp.html#aa4e86da659bfca2eae1f0baddb84a303" target="_top" xlink:title="compute the lapse rate over the given sharp::PressureLayer">
<polygon fill="white" stroke="#666666" points="291.5,-93 190.5,-93 190.5,-74 291.5,-74 291.5,-93"/>
<text text-anchor="middle" x="241" y="-81" font-family="Helvetica,sans-Serif" font-size="10.00">sharp::lapse_rate</text>
</a>
</g>
</g>
<!-- Node16&#45;&gt;Node17 -->
<g id="edge19" class="edge">
<title>Node16&#45;&gt;Node17</title>
<path fill="none" stroke="#63b8ff" d="M353.07,-108.71C330.81,-103.66 305.16,-97.84 284.12,-93.06"/>
<polygon fill="#63b8ff" stroke="#63b8ff" points="352.5,-112.17 363.02,-110.97 354.05,-105.34 352.5,-112.17"/>
</g>
<!-- Node18 -->
<g id="node18" class="node">
<title>Node18</title>
<g id="a_node18"><a xlink:href="namespacesharp.html#abd0d1a28608e145c455ace03e787e33b" target="_top" xlink:title="Find the maximum lapse rate within a specified layer/depth (AGL).">
<polygon fill="white" stroke="#666666" points="305,-130 177,-130 177,-111 305,-111 305,-130"/>
<text text-anchor="middle" x="241" y="-118" font-family="Helvetica,sans-Serif" font-size="10.00">sharp::lapse_rate_max</text>
</a>
</g>
</g>
<!-- Node16&#45;&gt;Node18 -->
<g id="edge20" class="edge">
<title>Node16&#45;&gt;Node18</title>
<path fill="none" stroke="#63b8ff" d="M344.97,-120.5C331.96,-120.5 318.17,-120.5 305.05,-120.5"/>
<polygon fill="#63b8ff" stroke="#63b8ff" points="345.21,-124 355.21,-120.5 345.21,-117 345.21,-124"/>
</g>
<!-- Node20 -->
<g id="node20" class="node">
<title>Node20</title>
<g id="a_node20"><a xlink:href="namespacesharp.html#a6170e3f412ab95b3ba8d9a93ae55dc67" target="_top" xlink:title="Returns the maximim value in the given layer.">
<polygon fill="white" stroke="#666666" points="291.5,-19 190.5,-19 190.5,0 291.5,0 291.5,-19"/>
<text text-anchor="middle" x="241" y="-7" font-family="Helvetica,sans-Serif" font-size="10.00">sharp::layer_max</text>
</a>
</g>
</g>
<!-- Node19&#45;&gt;Node20 -->
<g id="edge22" class="edge">
<title>Node19&#45;&gt;Node20</title>
<path fill="none" stroke="#63b8ff" d="M358.6,-52.87C353.62,-51.2 348.67,-49.4 344,-47.5 327.24,-40.68 324.78,-35.26 308,-28.5 299.15,-24.94 289.39,-21.74 280.15,-19.04"/>
<polygon fill="#63b8ff" stroke="#63b8ff" points="357.55,-56.2 368.14,-55.91 359.68,-49.54 357.55,-56.2"/>
</g>
<!-- Node21 -->
<g id="node21" class="node">
<title>Node21</title>
<g id="a_node21"><a xlink:href="namespacesharp.html#a01a9880c937f63e551893797253da4f7" target="_top" xlink:title="Returns the minimum value in the given layer.">
<polygon fill="white" stroke="#666666" points="290,-56 192,-56 192,-37 290,-37 290,-56"/>
<text text-anchor="middle" x="241" y="-44" font-family="Helvetica,sans-Serif" font-size="10.00">sharp::layer_min</text>
</a>
</g>
</g>
<!-- Node19&#45;&gt;Node21 -->
<g id="edge23" class="edge">
<title>Node19&#45;&gt;Node21</title>
<path fill="none" stroke="#63b8ff" d="M335.7,-57.42C320.32,-55.63 304.35,-53.77 290.05,-52.1"/>
<polygon fill="#63b8ff" stroke="#63b8ff" points="335.35,-60.91 345.69,-58.59 336.16,-53.95 335.35,-60.91"/>
</g>
</g>
</svg>
