<?xml version="1.0" encoding="UTF-8" standalone="no"?>
<!DOCTYPE svg PUBLIC "-//W3C//DTD SVG 1.1//EN"
 "http://www.w3.org/Graphics/SVG/1.1/DTD/svg11.dtd">
<!-- Generated by graphviz version 2.43.0 (0)
 -->
<!-- Title: sharp::interp_pressure Pages: 1 -->
<svg width="637pt" height="470pt"
 viewBox="0.00 0.00 637.00 469.50" xmlns="http://www.w3.org/2000/svg" xmlns:xlink="http://www.w3.org/1999/xlink">
<g id="graph0" class="graph" transform="scale(1 1) rotate(0) translate(4 465.5)">
<title>sharp::interp_pressure</title>
<!-- Node1 -->
<g id="node1" class="node">
<title>Node1</title>
<g id="a_node1"><a xlink:title="Linearly interpolate a data field to a requested pressure level.">
<polygon fill="#999999" stroke="#666666" points="629,-185 504,-185 504,-166 629,-166 629,-185"/>
<text text-anchor="middle" x="566.5" y="-173" font-family="Helvetica,sans-Serif" font-size="10.00">sharp::interp_pressure</text>
</a>
</g>
</g>
<!-- Node2 -->
<g id="node2" class="node">
<title>Node2</title>
<g id="a_node2"><a xlink:href="namespacesharp.html#a72bbdc4cfe7895dd51981902ac9fc822" target="_top" xlink:title="Computes Entrainment CAPE using a previously lifted parcel.">
<polygon fill="white" stroke="#666666" points="138,-385 0,-385 0,-366 138,-366 138,-385"/>
<text text-anchor="middle" x="69" y="-373" font-family="Helvetica,sans-Serif" font-size="10.00">sharp::entrainment_cape</text>
</a>
</g>
</g>
<!-- Node1&#45;&gt;Node2 -->
<g id="edge1" class="edge">
<title>Node1&#45;&gt;Node2</title>
<path fill="none" stroke="#63b8ff" d="M560.42,-194.82C549.9,-230.56 522.08,-306.41 468,-340.5 414.82,-374.02 237.44,-377.62 138.38,-376.86"/>
<polygon fill="#63b8ff" stroke="#63b8ff" points="563.81,-195.69 563.14,-185.11 557.07,-193.8 563.81,-195.69"/>
</g>
<!-- Node3 -->
<g id="node3" class="node">
<title>Node3</title>
<g id="a_node3"><a xlink:href="structsharp_1_1Parcel.html#a8a311e09b1d46a829212da94cf181537" target="_top" xlink:title="Find the LFC and EL that bounds the layer with the maximum CAPE.">
<polygon fill="white" stroke="#666666" points="457.5,-331.5 354.5,-331.5 354.5,-301.5 457.5,-301.5 457.5,-331.5"/>
<text text-anchor="start" x="362.5" y="-319.5" font-family="Helvetica,sans-Serif" font-size="10.00">sharp::Parcel::find</text>
<text text-anchor="middle" x="406" y="-308.5" font-family="Helvetica,sans-Serif" font-size="10.00">_lfc_el</text>
</a>
</g>
</g>
<!-- Node1&#45;&gt;Node3 -->
<g id="edge2" class="edge">
<title>Node1&#45;&gt;Node3</title>
<path fill="none" stroke="#63b8ff" d="M551.98,-192.93C534.28,-215.04 501.53,-253.51 468,-280.5 458.33,-288.29 446.79,-295.53 436.37,-301.45"/>
<polygon fill="#63b8ff" stroke="#63b8ff" points="554.75,-195.08 558.2,-185.06 549.26,-190.74 554.75,-195.08"/>
</g>
<!-- Node7 -->
<g id="node7" class="node">
<title>Node7</title>
<g id="a_node7"><a xlink:href="namespacesharp.html#a80858337a63be77bafadbb343d6e4931" target="_top" xlink:title="Computes the Storm Relative Helicity (SRH) over a given layer.">
<polygon fill="white" stroke="#666666" points="449,-102 363,-102 363,-83 449,-83 449,-102"/>
<text text-anchor="middle" x="406" y="-90" font-family="Helvetica,sans-Serif" font-size="10.00">sharp::helicity</text>
</a>
</g>
</g>
<!-- Node1&#45;&gt;Node7 -->
<g id="edge6" class="edge">
<title>Node1&#45;&gt;Node7</title>
<path fill="none" stroke="#63b8ff" d="M541.78,-160.49C522.32,-148.46 493.86,-131.5 468,-118.5 456.17,-112.55 442.66,-106.7 431.37,-102.06"/>
<polygon fill="#63b8ff" stroke="#63b8ff" points="539.96,-163.49 550.3,-165.8 543.66,-157.55 539.96,-163.49"/>
</g>
<!-- Node9 -->
<g id="node9" class="node">
<title>Node9</title>
<g id="a_node9"><a xlink:href="namespacesharp.html#a7acec1642f27591dc988bf9e48b4612d" target="_top" xlink:title="Returns a trapezoidal integration of the given layer.">
<polygon fill="white" stroke="#666666" points="468,-428.5 344,-428.5 344,-398.5 468,-398.5 468,-428.5"/>
<text text-anchor="start" x="352" y="-416.5" font-family="Helvetica,sans-Serif" font-size="10.00">sharp::integrate_layer</text>
<text text-anchor="middle" x="406" y="-405.5" font-family="Helvetica,sans-Serif" font-size="10.00">_trapz</text>
</a>
</g>
</g>
<!-- Node1&#45;&gt;Node9 -->
<g id="edge8" class="edge">
<title>Node1&#45;&gt;Node9</title>
<path fill="none" stroke="#63b8ff" d="M561.13,-195.06C551.22,-235.39 523.44,-328.66 468,-384.5 462.55,-389.99 455.85,-394.58 448.92,-398.37"/>
<polygon fill="#63b8ff" stroke="#63b8ff" points="564.58,-195.7 563.47,-185.16 557.77,-194.1 564.58,-195.7"/>
</g>
<!-- Node12 -->
<g id="node12" class="node">
<title>Node12</title>
<g id="a_node12"><a xlink:href="namespacesharp.html#a646b65095b84511b75f6a4a81e545e80" target="_top" xlink:title="Template for min/max value over sharp::PressureLayer or sharp::HeightLayer.">
<polygon fill="white" stroke="#666666" points="466,-60 346,-60 346,-41 466,-41 466,-60"/>
<text text-anchor="middle" x="406" y="-48" font-family="Helvetica,sans-Serif" font-size="10.00">sharp::layer_minmax</text>
</a>
</g>
</g>
<!-- Node1&#45;&gt;Node12 -->
<g id="edge14" class="edge">
<title>Node1&#45;&gt;Node12</title>
<path fill="none" stroke="#63b8ff" d="M552.24,-157.64C534.99,-135.49 502.91,-97.82 468,-74.5 459.1,-68.56 448.52,-63.74 438.68,-60.03"/>
<polygon fill="#63b8ff" stroke="#63b8ff" points="549.64,-160 558.49,-165.83 555.2,-155.76 549.64,-160"/>
</g>
<!-- Node15 -->
<g id="node15" class="node">
<title>Node15</title>
<g id="a_node15"><a xlink:href="namespacesharp.html#a3c8b9022103d067f30281d68fa81cbda" target="_top" xlink:title="Compute the mean wind over the given sharp::PressureLayer.">
<polygon fill="white" stroke="#666666" points="459,-185 353,-185 353,-166 459,-166 459,-185"/>
<text text-anchor="middle" x="406" y="-173" font-family="Helvetica,sans-Serif" font-size="10.00">sharp::mean_wind</text>
</a>
</g>
</g>
<!-- Node1&#45;&gt;Node15 -->
<g id="edge17" class="edge">
<title>Node1&#45;&gt;Node15</title>
<path fill="none" stroke="#63b8ff" d="M493.62,-175.5C481.97,-175.5 470.12,-175.5 459.07,-175.5"/>
<polygon fill="#63b8ff" stroke="#63b8ff" points="493.77,-179 503.77,-175.5 493.77,-172 493.77,-179"/>
</g>
<!-- Node17 -->
<g id="node17" class="node">
<title>Node17</title>
<g id="a_node17"><a xlink:href="namespacesharp.html#ab31d383a3231f8fef873e5a16c0db856" target="_top" xlink:title="Estimates supercell storm motion by using the Bunkers et al. 2014 method.">
<polygon fill="white" stroke="#666666" points="128,-190.5 10,-190.5 10,-160.5 128,-160.5 128,-190.5"/>
<text text-anchor="start" x="18" y="-178.5" font-family="Helvetica,sans-Serif" font-size="10.00">sharp::storm_motion</text>
<text text-anchor="middle" x="69" y="-167.5" font-family="Helvetica,sans-Serif" font-size="10.00">_bunkers</text>
</a>
</g>
</g>
<!-- Node1&#45;&gt;Node17 -->
<g id="edge26" class="edge">
<title>Node1&#45;&gt;Node17</title>
<path fill="none" stroke="#63b8ff" d="M511.5,-164.09C497.4,-161.51 482.18,-159.07 468,-157.5 338.1,-143.15 303.85,-136.71 174,-151.5 157.8,-153.35 140.45,-156.76 124.65,-160.44"/>
<polygon fill="#63b8ff" stroke="#63b8ff" points="511.06,-167.57 521.53,-165.98 512.36,-160.69 511.06,-167.57"/>
</g>
<!-- Node18 -->
<g id="node18" class="node">
<title>Node18</title>
<g id="a_node18"><a xlink:href="namespacesharp.html#a31da980f398c9f6a5960ddf868101a94" target="_top" xlink:title="Converts a sharp::PressureLayer to a sharp::HeightLayer.">
<polygon fill="white" stroke="#666666" points="467,-271.5 345,-271.5 345,-241.5 467,-241.5 467,-271.5"/>
<text text-anchor="start" x="353" y="-259.5" font-family="Helvetica,sans-Serif" font-size="10.00">sharp::pressure_layer</text>
<text text-anchor="middle" x="406" y="-248.5" font-family="Helvetica,sans-Serif" font-size="10.00">_to_height</text>
</a>
</g>
</g>
<!-- Node1&#45;&gt;Node18 -->
<g id="edge21" class="edge">
<title>Node1&#45;&gt;Node18</title>
<path fill="none" stroke="#63b8ff" d="M537.72,-189.7C509.37,-204.18 465.54,-226.58 436.56,-241.39"/>
<polygon fill="#63b8ff" stroke="#63b8ff" points="539.38,-192.78 546.7,-185.11 536.2,-186.54 539.38,-192.78"/>
</g>
<!-- Node20 -->
<g id="node20" class="node">
<title>Node20</title>
<g id="a_node20"><a xlink:href="namespacesharp.html#a099a4575acc27d6e10f9dfb69bc315a1" target="_top" xlink:title="Compue the wind shear for a given layer.">
<polygon fill="white" stroke="#666666" points="458.5,-23 353.5,-23 353.5,-4 458.5,-4 458.5,-23"/>
<text text-anchor="middle" x="406" y="-11" font-family="Helvetica,sans-Serif" font-size="10.00">sharp::wind_shear</text>
</a>
</g>
</g>
<!-- Node1&#45;&gt;Node20 -->
<g id="edge27" class="edge">
<title>Node1&#45;&gt;Node20</title>
<path fill="none" stroke="#63b8ff" d="M557.51,-156.32C543.76,-125.63 512.72,-65.6 468,-32.5 462.74,-28.61 456.66,-25.5 450.43,-23.02"/>
<polygon fill="#63b8ff" stroke="#63b8ff" points="554.46,-158.07 561.65,-165.86 560.88,-155.29 554.46,-158.07"/>
</g>
<!-- Node4 -->
<g id="node4" class="node">
<title>Node4</title>
<g id="a_node4"><a xlink:href="structsharp_1_1Parcel.html#a0560bd193b2d2d6bc6b08baa7463fba4" target="_top" xlink:title="Compute CAPE and CINH for a previously lifted sharp::Parcel.">
<polygon fill="white" stroke="#666666" points="308,-342 174,-342 174,-323 308,-323 308,-342"/>
<text text-anchor="middle" x="241" y="-330" font-family="Helvetica,sans-Serif" font-size="10.00">sharp::Parcel::cape_cinh</text>
</a>
</g>
</g>
<!-- Node3&#45;&gt;Node4 -->
<g id="edge3" class="edge">
<title>Node3&#45;&gt;Node4</title>
<path fill="none" stroke="#63b8ff" d="M344.2,-322.47C332.47,-323.62 320.14,-324.83 308.25,-326"/>
<polygon fill="#63b8ff" stroke="#63b8ff" points="344.71,-325.94 354.32,-321.47 344.03,-318.97 344.71,-325.94"/>
</g>
<!-- Node5 -->
<g id="node5" class="node">
<title>Node5</title>
<g id="a_node5"><a xlink:href="namespacesharp.html#a2e6b7cd4a3594a8f2c2050b0e4784cce" target="_top" xlink:title="Computes the Effective Inflow Layer for a given atmospheric sounding.">
<polygon fill="white" stroke="#666666" points="132.5,-299.5 5.5,-299.5 5.5,-269.5 132.5,-269.5 132.5,-299.5"/>
<text text-anchor="start" x="13.5" y="-287.5" font-family="Helvetica,sans-Serif" font-size="10.00">sharp::effective_inflow</text>
<text text-anchor="middle" x="69" y="-276.5" font-family="Helvetica,sans-Serif" font-size="10.00">_layer</text>
</a>
</g>
</g>
<!-- Node4&#45;&gt;Node5 -->
<g id="edge4" class="edge">
<title>Node4&#45;&gt;Node5</title>
<path fill="none" stroke="#63b8ff" d="M196.18,-320.13C173.95,-313.85 146.78,-306.18 123.35,-299.56"/>
<polygon fill="#63b8ff" stroke="#63b8ff" points="195.43,-323.55 206.01,-322.9 197.33,-316.82 195.43,-323.55"/>
</g>
<!-- Node6 -->
<g id="node6" class="node">
<title>Node6</title>
<g id="a_node6"><a xlink:href="structsharp_1_1Parcel.html#aa258d27992d22d8b80cb221e6e2a6c19" target="_top" xlink:title="Construct and return a most&#45;unstable Parcel.">
<polygon fill="white" stroke="#666666" points="124,-347.5 14,-347.5 14,-317.5 124,-317.5 124,-347.5"/>
<text text-anchor="start" x="22" y="-335.5" font-family="Helvetica,sans-Serif" font-size="10.00">sharp::Parcel::most</text>
<text text-anchor="middle" x="69" y="-324.5" font-family="Helvetica,sans-Serif" font-size="10.00">_unstable_parcel</text>
</a>
</g>
</g>
<!-- Node4&#45;&gt;Node6 -->
<g id="edge5" class="edge">
<title>Node4&#45;&gt;Node6</title>
<path fill="none" stroke="#63b8ff" d="M163.69,-332.5C150.38,-332.5 136.79,-332.5 124.23,-332.5"/>
<polygon fill="#63b8ff" stroke="#63b8ff" points="163.79,-336 173.79,-332.5 163.79,-329 163.79,-336"/>
</g>
<!-- Node8 -->
<g id="node8" class="node">
<title>Node8</title>
<g id="a_node8"><a xlink:href="namespacesharp.html#ab89a7e3555a52f0fd9f4086d5aba7037" target="_top" xlink:title=" ">
<polygon fill="white" stroke="#666666" points="303.5,-104.5 178.5,-104.5 178.5,-74.5 303.5,-74.5 303.5,-104.5"/>
<text text-anchor="start" x="186.5" y="-92.5" font-family="Helvetica,sans-Serif" font-size="10.00">sharp::energy_helicity</text>
<text text-anchor="middle" x="241" y="-81.5" font-family="Helvetica,sans-Serif" font-size="10.00">_index</text>
</a>
</g>
</g>
<!-- Node7&#45;&gt;Node8 -->
<g id="edge7" class="edge">
<title>Node7&#45;&gt;Node8</title>
<path fill="none" stroke="#63b8ff" d="M352.59,-91.54C336.96,-91.25 319.69,-90.93 303.53,-90.63"/>
<polygon fill="#63b8ff" stroke="#63b8ff" points="352.54,-95.03 362.6,-91.72 352.67,-88.04 352.54,-95.03"/>
</g>
<!-- Node9&#45;&gt;Node2 -->
<g id="edge10" class="edge">
<title>Node9&#45;&gt;Node2</title>
<path fill="none" stroke="#63b8ff" d="M333.8,-405.42C276.01,-398.87 195.07,-389.69 138.13,-383.23"/>
<polygon fill="#63b8ff" stroke="#63b8ff" points="333.61,-408.92 343.95,-406.57 334.4,-401.97 333.61,-408.92"/>
</g>
<!-- Node9&#45;&gt;Node4 -->
<g id="edge9" class="edge">
<title>Node9&#45;&gt;Node4</title>
<path fill="none" stroke="#63b8ff" d="M365.36,-393.8C332.4,-377.42 286.91,-354.82 261.38,-342.13"/>
<polygon fill="#63b8ff" stroke="#63b8ff" points="364.21,-397.14 374.72,-398.45 367.33,-390.87 364.21,-397.14"/>
</g>
<!-- Node10 -->
<g id="node10" class="node">
<title>Node10</title>
<g id="a_node10"><a xlink:href="namespacesharp.html#a298e2c96c389f2c5177d3626c908927e" target="_top" xlink:title="Computes the mass&#45;weighted mean value of a field over a given pressure layer.">
<polygon fill="white" stroke="#666666" points="294.5,-456 187.5,-456 187.5,-437 294.5,-437 294.5,-456"/>
<text text-anchor="middle" x="241" y="-444" font-family="Helvetica,sans-Serif" font-size="10.00">sharp::layer_mean</text>
</a>
</g>
</g>
<!-- Node9&#45;&gt;Node10 -->
<g id="edge11" class="edge">
<title>Node9&#45;&gt;Node10</title>
<path fill="none" stroke="#63b8ff" d="M333.94,-427.89C318.72,-430.97 303.01,-434.15 288.98,-436.99"/>
<polygon fill="#63b8ff" stroke="#63b8ff" points="334.73,-431.3 343.84,-425.88 333.35,-424.44 334.73,-431.3"/>
</g>
<!-- Node10&#45;&gt;Node2 -->
<g id="edge12" class="edge">
<title>Node10&#45;&gt;Node2</title>
<path fill="none" stroke="#63b8ff" d="M202.69,-433.49C193.27,-430.05 183.22,-426.25 174,-422.5 144.45,-410.47 110.94,-394.98 90.13,-385.14"/>
<polygon fill="#63b8ff" stroke="#63b8ff" points="201.61,-436.82 212.21,-436.92 203.98,-430.24 201.61,-436.82"/>
</g>
<!-- Node11 -->
<g id="node11" class="node">
<title>Node11</title>
<g id="a_node11"><a xlink:href="structsharp_1_1Parcel.html#a1bf670e79f35a1ce8c904b7ead32ccbe" target="_top" xlink:title="Construct and return a mixed&#45;layer Parcel.">
<polygon fill="white" stroke="#666666" points="126.5,-461.5 11.5,-461.5 11.5,-431.5 126.5,-431.5 126.5,-461.5"/>
<text text-anchor="start" x="19.5" y="-449.5" font-family="Helvetica,sans-Serif" font-size="10.00">sharp::Parcel::mixed</text>
<text text-anchor="middle" x="69" y="-438.5" font-family="Helvetica,sans-Serif" font-size="10.00">_layer_parcel</text>
</a>
</g>
</g>
<!-- Node10&#45;&gt;Node11 -->
<g id="edge13" class="edge">
<title>Node10&#45;&gt;Node11</title>
<path fill="none" stroke="#63b8ff" d="M177.04,-446.5C160.53,-446.5 142.82,-446.5 126.66,-446.5"/>
<polygon fill="#63b8ff" stroke="#63b8ff" points="177.14,-450 187.14,-446.5 177.14,-443 177.14,-450"/>
</g>
<!-- Node13 -->
<g id="node13" class="node">
<title>Node13</title>
<g id="a_node13"><a xlink:href="namespacesharp.html#a6170e3f412ab95b3ba8d9a93ae55dc67" target="_top" xlink:title="Returns the maximim value in the given layer.">
<polygon fill="white" stroke="#666666" points="291.5,-56 190.5,-56 190.5,-37 291.5,-37 291.5,-56"/>
<text text-anchor="middle" x="241" y="-44" font-family="Helvetica,sans-Serif" font-size="10.00">sharp::layer_max</text>
</a>
</g>
</g>
<!-- Node12&#45;&gt;Node13 -->
<g id="edge15" class="edge">
<title>Node12&#45;&gt;Node13</title>
<path fill="none" stroke="#63b8ff" d="M335.57,-48.8C320.79,-48.43 305.47,-48.06 291.61,-47.72"/>
<polygon fill="#63b8ff" stroke="#63b8ff" points="335.61,-52.3 345.69,-49.04 335.78,-45.3 335.61,-52.3"/>
</g>
<!-- Node14 -->
<g id="node14" class="node">
<title>Node14</title>
<g id="a_node14"><a xlink:href="namespacesharp.html#a01a9880c937f63e551893797253da4f7" target="_top" xlink:title="Returns the minimum value in the given layer.">
<polygon fill="white" stroke="#666666" points="290,-19 192,-19 192,0 290,0 290,-19"/>
<text text-anchor="middle" x="241" y="-7" font-family="Helvetica,sans-Serif" font-size="10.00">sharp::layer_min</text>
</a>
</g>
</g>
<!-- Node12&#45;&gt;Node14 -->
<g id="edge16" class="edge">
<title>Node12&#45;&gt;Node14</title>
<path fill="none" stroke="#63b8ff" d="M357.32,-38.51C332.65,-32.3 302.96,-24.83 279.88,-19.03"/>
<polygon fill="#63b8ff" stroke="#63b8ff" points="356.64,-41.95 367.19,-40.99 358.35,-35.16 356.64,-41.95"/>
</g>
<!-- Node16 -->
<g id="node16" class="node">
<title>Node16</title>
<g id="a_node16"><a xlink:href="namespacesharp.html#a74a735636c932467b4d2ced544e0cb51" target="_top" xlink:title="Estimates supercell storm motion using the Bunkers et al. 2000 method.">
<polygon fill="white" stroke="#666666" points="300,-190.5 182,-190.5 182,-160.5 300,-160.5 300,-190.5"/>
<text text-anchor="start" x="190" y="-178.5" font-family="Helvetica,sans-Serif" font-size="10.00">sharp::storm_motion</text>
<text text-anchor="middle" x="241" y="-167.5" font-family="Helvetica,sans-Serif" font-size="10.00">_bunkers</text>
</a>
</g>
</g>
<!-- Node15&#45;&gt;Node16 -->
<g id="edge18" class="edge">
<title>Node15&#45;&gt;Node16</title>
<path fill="none" stroke="#63b8ff" d="M342.9,-175.5C328.82,-175.5 313.93,-175.5 300.03,-175.5"/>
<polygon fill="#63b8ff" stroke="#63b8ff" points="342.98,-179 352.98,-175.5 342.98,-172 342.98,-179"/>
</g>
<!-- Node16&#45;&gt;Node2 -->
<g id="edge19" class="edge">
<title>Node16&#45;&gt;Node2</title>
<path fill="none" stroke="#63b8ff" d="M211.28,-197.16C198.29,-208.27 183.71,-222.75 174,-238.5 145.23,-285.18 177.23,-318.19 138,-356.5 134.05,-360.35 129.39,-363.44 124.39,-365.91"/>
<polygon fill="#63b8ff" stroke="#63b8ff" points="213.62,-199.77 219.11,-190.71 209.16,-194.37 213.62,-199.77"/>
</g>
<!-- Node16&#45;&gt;Node17 -->
<g id="edge20" class="edge">
<title>Node16&#45;&gt;Node17</title>
<path fill="none" stroke="#63b8ff" d="M171.6,-175.5C157.17,-175.5 142.07,-175.5 128.06,-175.5"/>
<polygon fill="#63b8ff" stroke="#63b8ff" points="171.97,-179 181.97,-175.5 171.97,-172 171.97,-179"/>
</g>
<!-- Node18&#45;&gt;Node2 -->
<g id="edge23" class="edge">
<title>Node18&#45;&gt;Node2</title>
<path fill="none" stroke="#63b8ff" d="M334.95,-271.83C272.17,-285.94 187.85,-305.93 174,-314.5 153.09,-327.44 158.73,-343.29 138,-356.5 131.9,-360.39 125,-363.49 117.99,-365.97"/>
<polygon fill="#63b8ff" stroke="#63b8ff" points="335.84,-275.22 344.83,-269.62 334.31,-268.39 335.84,-275.22"/>
</g>
<!-- Node18&#45;&gt;Node4 -->
<g id="edge22" class="edge">
<title>Node18&#45;&gt;Node4</title>
<path fill="none" stroke="#63b8ff" d="M370.1,-276.78C351.9,-286.95 329.09,-299.07 308,-308.5 296.09,-313.82 282.61,-318.89 270.94,-322.98"/>
<polygon fill="#63b8ff" stroke="#63b8ff" points="372.17,-279.63 379.16,-271.66 368.73,-273.53 372.17,-279.63"/>
</g>
<!-- Node18&#45;&gt;Node17 -->
<g id="edge25" class="edge">
<title>Node18&#45;&gt;Node17</title>
<path fill="none" stroke="#63b8ff" d="M334.74,-239.51C273.43,-224.69 185.53,-203.43 128.11,-189.55"/>
<polygon fill="#63b8ff" stroke="#63b8ff" points="334.18,-242.98 344.72,-241.93 335.82,-236.17 334.18,-242.98"/>
</g>
<!-- Node19 -->
<g id="node19" class="node">
<title>Node19</title>
<g id="a_node19"><a xlink:href="namespacesharp.html#aa4e86da659bfca2eae1f0baddb84a303" target="_top" xlink:title="compute the lapse rate over the given sharp::PressureLayer">
<polygon fill="white" stroke="#666666" points="291.5,-266 190.5,-266 190.5,-247 291.5,-247 291.5,-266"/>
<text text-anchor="middle" x="241" y="-254" font-family="Helvetica,sans-Serif" font-size="10.00">sharp::lapse_rate</text>
</a>
</g>
</g>
<!-- Node18&#45;&gt;Node19 -->
<g id="edge24" class="edge">
<title>Node18&#45;&gt;Node19</title>
<path fill="none" stroke="#63b8ff" d="M334.38,-256.5C319.96,-256.5 305.08,-256.5 291.59,-256.5"/>
<polygon fill="#63b8ff" stroke="#63b8ff" points="334.77,-260 344.77,-256.5 334.77,-253 334.77,-260"/>
</g>
</g>
</svg>
