<?xml version="1.0" encoding="UTF-8" standalone="no"?>
<!DOCTYPE svg PUBLIC "-//W3C//DTD SVG 1.1//EN"
 "http://www.w3.org/Graphics/SVG/1.1/DTD/svg11.dtd">
<!-- Generated by graphviz version 2.43.0 (0)
 -->
<!-- Title: sharp::helicity Pages: 1 -->
<svg width="439pt" height="124pt"
 viewBox="0.00 0.00 439.00 124.00" xmlns="http://www.w3.org/2000/svg" xmlns:xlink="http://www.w3.org/1999/xlink">
<g id="graph0" class="graph" transform="scale(1 1) rotate(0) translate(4 120)">
<title>sharp::helicity</title>
<!-- Node1 -->
<g id="node1" class="node">
<title>Node1</title>
<g id="a_node1"><a xlink:title="Computes the Storm Relative Helicity (SRH) over a given layer.">
<polygon fill="#999999" stroke="#666666" points="431,-67.5 345,-67.5 345,-48.5 431,-48.5 431,-67.5"/>
<text text-anchor="middle" x="388" y="-55.5" font-family="Helvetica,sans-Serif" font-size="10.00">sharp::helicity</text>
</a>
</g>
</g>
<!-- Node2 -->
<g id="node2" class="node">
<title>Node2</title>
<g id="a_node2"><a xlink:href="namespacesharp.html#ab89a7e3555a52f0fd9f4086d5aba7037" target="_top" xlink:title=" ">
<polygon fill="white" stroke="#666666" points="297,-116 172,-116 172,-86 297,-86 297,-116"/>
<text text-anchor="start" x="180" y="-104" font-family="Helvetica,sans-Serif" font-size="10.00">sharp::energy_helicity</text>
<text text-anchor="middle" x="234.5" y="-93" font-family="Helvetica,sans-Serif" font-size="10.00">_index</text>
</a>
</g>
</g>
<!-- Node1&#45;&gt;Node2 -->
<g id="edge1" class="edge">
<title>Node1&#45;&gt;Node2</title>
<path fill="none" stroke="#63b8ff" d="M343.59,-70.32C326.38,-75.21 306.42,-80.87 288.37,-85.99"/>
<polygon fill="#63b8ff" stroke="#63b8ff" points="344.71,-73.64 353.38,-67.54 342.8,-66.91 344.71,-73.64"/>
</g>
<!-- Node4 -->
<g id="node4" class="node">
<title>Node4</title>
<g id="a_node4"><a xlink:href="winds__wrap_8cpp.html#a2275eb46450351ce583c7aef971a0507" target="_top" xlink:title=" ">
<polygon fill="white" stroke="#666666" points="309,-67.5 160,-67.5 160,-48.5 309,-48.5 309,-67.5"/>
<text text-anchor="middle" x="234.5" y="-55.5" font-family="Helvetica,sans-Serif" font-size="10.00">sharp_HeightLayer_helicity</text>
</a>
</g>
</g>
<!-- Node1&#45;&gt;Node4 -->
<g id="edge3" class="edge">
<title>Node1&#45;&gt;Node4</title>
<path fill="none" stroke="#63b8ff" d="M334.61,-58C326.37,-58 317.71,-58 309.1,-58"/>
<polygon fill="#63b8ff" stroke="#63b8ff" points="334.8,-61.5 344.8,-58 334.8,-54.5 334.8,-61.5"/>
</g>
<!-- Node5 -->
<g id="node5" class="node">
<title>Node5</title>
<g id="a_node5"><a xlink:href="winds__wrap_8cpp.html#a111ef482a9bae9f405ccb271e0816769" target="_top" xlink:title=" ">
<polygon fill="white" stroke="#666666" points="293.5,-30 175.5,-30 175.5,0 293.5,0 293.5,-30"/>
<text text-anchor="start" x="183.5" y="-18" font-family="Helvetica,sans-Serif" font-size="10.00">sharp_PressureLayer</text>
<text text-anchor="middle" x="234.5" y="-7" font-family="Helvetica,sans-Serif" font-size="10.00">_helicity</text>
</a>
</g>
</g>
<!-- Node1&#45;&gt;Node5 -->
<g id="edge4" class="edge">
<title>Node1&#45;&gt;Node5</title>
<path fill="none" stroke="#63b8ff" d="M343.59,-45.68C326.38,-40.79 306.42,-35.13 288.37,-30.01"/>
<polygon fill="#63b8ff" stroke="#63b8ff" points="342.8,-49.09 353.38,-48.46 344.71,-42.36 342.8,-49.09"/>
</g>
<!-- Node3 -->
<g id="node3" class="node">
<title>Node3</title>
<g id="a_node3"><a xlink:href="convective__wrap_8cpp.html#a8fa4a371ff32e44fd39e0703eab33a74" target="_top" xlink:title=" ">
<polygon fill="white" stroke="#666666" points="124,-116 0,-116 0,-86 124,-86 124,-116"/>
<text text-anchor="start" x="8" y="-104" font-family="Helvetica,sans-Serif" font-size="10.00">sharp_energy_helicity</text>
<text text-anchor="middle" x="62" y="-93" font-family="Helvetica,sans-Serif" font-size="10.00">_index</text>
</a>
</g>
</g>
<!-- Node2&#45;&gt;Node3 -->
<g id="edge2" class="edge">
<title>Node2&#45;&gt;Node3</title>
<path fill="none" stroke="#63b8ff" d="M161.6,-101C149.15,-101 136.31,-101 124.18,-101"/>
<polygon fill="#63b8ff" stroke="#63b8ff" points="161.95,-104.5 171.95,-101 161.95,-97.5 161.95,-104.5"/>
</g>
</g>
</svg>
