<?xml version="1.0" encoding="UTF-8" standalone="no"?>
<!DOCTYPE svg PUBLIC "-//W3C//DTD SVG 1.1//EN"
 "http://www.w3.org/Graphics/SVG/1.1/DTD/svg11.dtd">
<!-- Generated by graphviz version 2.43.0 (0)
 -->
<!-- Title: sharp::interp_pressure Pages: 1 -->
<svg width="848pt" height="854pt"
 viewBox="0.00 0.00 848.00 853.50" xmlns="http://www.w3.org/2000/svg" xmlns:xlink="http://www.w3.org/1999/xlink">
<g id="graph0" class="graph" transform="scale(1 1) rotate(0) translate(4 849.5)">
<title>sharp::interp_pressure</title>
<!-- Node1 -->
<g id="node1" class="node">
<title>Node1</title>
<g id="a_node1"><a xlink:title="Linearly interpolate a data field to a requested pressure level.">
<polygon fill="#999999" stroke="#666666" points="840,-364.5 715,-364.5 715,-345.5 840,-345.5 840,-364.5"/>
<text text-anchor="middle" x="777.5" y="-352.5" font-family="Helvetica,sans-Serif" font-size="10.00">sharp::interp_pressure</text>
</a>
</g>
</g>
<!-- Node2 -->
<g id="node2" class="node">
<title>Node2</title>
<g id="a_node2"><a xlink:href="namespacesharp.html#a72bbdc4cfe7895dd51981902ac9fc822" target="_top" xlink:title="Computes Entrainment CAPE using a previously lifted parcel.">
<polygon fill="white" stroke="#666666" points="317.5,-647.5 179.5,-647.5 179.5,-628.5 317.5,-628.5 317.5,-647.5"/>
<text text-anchor="middle" x="248.5" y="-635.5" font-family="Helvetica,sans-Serif" font-size="10.00">sharp::entrainment_cape</text>
</a>
</g>
</g>
<!-- Node1&#45;&gt;Node2 -->
<g id="edge1" class="edge">
<title>Node1&#45;&gt;Node2</title>
<path fill="none" stroke="#63b8ff" d="M770.56,-374.47C758.6,-410.81 728.47,-489.67 679,-538 581.52,-633.23 411.95,-644.38 317.67,-642.33"/>
<polygon fill="#63b8ff" stroke="#63b8ff" points="773.99,-375.22 773.69,-364.63 767.32,-373.1 773.99,-375.22"/>
</g>
<!-- Node4 -->
<g id="node4" class="node">
<title>Node4</title>
<g id="a_node4"><a xlink:href="structsharp_1_1Parcel.html#a8a311e09b1d46a829212da94cf181537" target="_top" xlink:title="Find the LFC and EL that bounds the layer with the maximum CAPE.">
<polygon fill="white" stroke="#666666" points="668,-475 565,-475 565,-445 668,-445 668,-475"/>
<text text-anchor="start" x="573" y="-463" font-family="Helvetica,sans-Serif" font-size="10.00">sharp::Parcel::find</text>
<text text-anchor="middle" x="616.5" y="-452" font-family="Helvetica,sans-Serif" font-size="10.00">_lfc_el</text>
</a>
</g>
</g>
<!-- Node1&#45;&gt;Node4 -->
<g id="edge3" class="edge">
<title>Node1&#45;&gt;Node4</title>
<path fill="none" stroke="#63b8ff" d="M756.95,-371.14C737.73,-386.63 707.25,-410.24 679,-428 669.52,-433.96 658.82,-439.81 649.02,-444.85"/>
<polygon fill="#63b8ff" stroke="#63b8ff" points="759.39,-373.66 764.94,-364.64 754.97,-368.23 759.39,-373.66"/>
</g>
<!-- Node9 -->
<g id="node9" class="node">
<title>Node9</title>
<g id="a_node9"><a xlink:href="namespacesharp.html#a80858337a63be77bafadbb343d6e4931" target="_top" xlink:title="Computes the Storm Relative Helicity (SRH) over a given layer.">
<polygon fill="white" stroke="#666666" points="659.5,-260.5 573.5,-260.5 573.5,-241.5 659.5,-241.5 659.5,-260.5"/>
<text text-anchor="middle" x="616.5" y="-248.5" font-family="Helvetica,sans-Serif" font-size="10.00">sharp::helicity</text>
</a>
</g>
</g>
<!-- Node1&#45;&gt;Node9 -->
<g id="edge8" class="edge">
<title>Node1&#45;&gt;Node9</title>
<path fill="none" stroke="#63b8ff" d="M753.21,-339.76C719.94,-318.01 659.8,-278.67 632.14,-260.57"/>
<polygon fill="#63b8ff" stroke="#63b8ff" points="751.54,-342.86 761.83,-345.4 755.37,-337 751.54,-342.86"/>
</g>
<!-- Node14 -->
<g id="node14" class="node">
<title>Node14</title>
<g id="a_node14"><a xlink:href="namespacesharp.html#a7acec1642f27591dc988bf9e48b4612d" target="_top" xlink:title="Returns a trapezoidal integration of the given layer.">
<polygon fill="white" stroke="#666666" points="678.5,-715 554.5,-715 554.5,-685 678.5,-685 678.5,-715"/>
<text text-anchor="start" x="562.5" y="-703" font-family="Helvetica,sans-Serif" font-size="10.00">sharp::integrate_layer</text>
<text text-anchor="middle" x="616.5" y="-692" font-family="Helvetica,sans-Serif" font-size="10.00">_trapz</text>
</a>
</g>
</g>
<!-- Node1&#45;&gt;Node14 -->
<g id="edge13" class="edge">
<title>Node1&#45;&gt;Node14</title>
<path fill="none" stroke="#63b8ff" d="M774.05,-374.81C767.02,-425.24 742.98,-560.97 679,-652 669.73,-665.19 655.79,-676.49 643.52,-684.8"/>
<polygon fill="#63b8ff" stroke="#63b8ff" points="777.56,-375.01 775.4,-364.63 770.62,-374.09 777.56,-375.01"/>
</g>
<!-- Node21 -->
<g id="node21" class="node">
<title>Node21</title>
<g id="a_node21"><a xlink:href="namespacesharp.html#a646b65095b84511b75f6a4a81e545e80" target="_top" xlink:title="Template for min/max value over sharp::PressureLayer or sharp::HeightLayer.">
<polygon fill="white" stroke="#666666" points="676.5,-177.5 556.5,-177.5 556.5,-158.5 676.5,-158.5 676.5,-177.5"/>
<text text-anchor="middle" x="616.5" y="-165.5" font-family="Helvetica,sans-Serif" font-size="10.00">sharp::layer_minmax</text>
</a>
</g>
</g>
<!-- Node1&#45;&gt;Node21 -->
<g id="edge23" class="edge">
<title>Node1&#45;&gt;Node21</title>
<path fill="none" stroke="#63b8ff" d="M762.93,-337.07C744.49,-312.95 710.25,-268.91 679,-233 661.46,-212.84 639.73,-190.43 627.35,-177.89"/>
<polygon fill="#63b8ff" stroke="#63b8ff" points="760.34,-339.45 769.18,-345.29 765.91,-335.21 760.34,-339.45"/>
</g>
<!-- Node28 -->
<g id="node28" class="node">
<title>Node28</title>
<g id="a_node28"><a xlink:href="namespacesharp.html#a3c8b9022103d067f30281d68fa81cbda" target="_top" xlink:title="Compute the mean wind over the given sharp::PressureLayer.">
<polygon fill="white" stroke="#666666" points="669.5,-528.5 563.5,-528.5 563.5,-509.5 669.5,-509.5 669.5,-528.5"/>
<text text-anchor="middle" x="616.5" y="-516.5" font-family="Helvetica,sans-Serif" font-size="10.00">sharp::mean_wind</text>
</a>
</g>
</g>
<!-- Node1&#45;&gt;Node28 -->
<g id="edge30" class="edge">
<title>Node1&#45;&gt;Node28</title>
<path fill="none" stroke="#63b8ff" d="M765.84,-373.58C749.72,-400.48 716.95,-450.68 679,-484 667.09,-494.46 651.57,-503.26 639.1,-509.42"/>
<polygon fill="#63b8ff" stroke="#63b8ff" points="768.95,-375.2 771,-364.8 762.92,-371.65 768.95,-375.2"/>
</g>
<!-- Node33 -->
<g id="node33" class="node">
<title>Node33</title>
<g id="a_node33"><a xlink:href="namespacesharp.html#ab31d383a3231f8fef873e5a16c0db856" target="_top" xlink:title="Estimates supercell storm motion by using the Bunkers et al. 2014 method.">
<polygon fill="white" stroke="#666666" points="307.5,-368 189.5,-368 189.5,-338 307.5,-338 307.5,-368"/>
<text text-anchor="start" x="197.5" y="-356" font-family="Helvetica,sans-Serif" font-size="10.00">sharp::storm_motion</text>
<text text-anchor="middle" x="248.5" y="-345" font-family="Helvetica,sans-Serif" font-size="10.00">_bunkers</text>
</a>
</g>
</g>
<!-- Node1&#45;&gt;Node33 -->
<g id="edge44" class="edge">
<title>Node1&#45;&gt;Node33</title>
<path fill="none" stroke="#63b8ff" d="M704.67,-353.02C621.66,-351 480.95,-348.36 360,-350 343.02,-350.23 324.57,-350.66 307.7,-351.12"/>
<polygon fill="#63b8ff" stroke="#63b8ff" points="704.67,-356.52 714.75,-353.27 704.84,-349.53 704.67,-356.52"/>
</g>
<!-- Node34 -->
<g id="node34" class="node">
<title>Node34</title>
<g id="a_node34"><a xlink:href="namespacesharp.html#a31da980f398c9f6a5960ddf868101a94" target="_top" xlink:title="Converts a sharp::PressureLayer to a sharp::HeightLayer.">
<polygon fill="white" stroke="#666666" points="677.5,-419 555.5,-419 555.5,-389 677.5,-389 677.5,-419"/>
<text text-anchor="start" x="563.5" y="-407" font-family="Helvetica,sans-Serif" font-size="10.00">sharp::pressure_layer</text>
<text text-anchor="middle" x="616.5" y="-396" font-family="Helvetica,sans-Serif" font-size="10.00">_to_height</text>
</a>
</g>
</g>
<!-- Node1&#45;&gt;Node34 -->
<g id="edge37" class="edge">
<title>Node1&#45;&gt;Node34</title>
<path fill="none" stroke="#63b8ff" d="M735.8,-367.54C714.61,-374.07 688.56,-382.1 666.29,-388.96"/>
<polygon fill="#63b8ff" stroke="#63b8ff" points="736.94,-370.85 745.47,-364.56 734.88,-364.16 736.94,-370.85"/>
</g>
<!-- Node37 -->
<g id="node37" class="node">
<title>Node37</title>
<g id="a_node37"><a xlink:href="interp__wrap_8cpp.html#aa5d2319f0bc3f96d2bd4d29c52385950" target="_top" xlink:title=" ">
<polygon fill="white" stroke="#666666" points="679,-140.5 554,-140.5 554,-121.5 679,-121.5 679,-140.5"/>
<text text-anchor="middle" x="616.5" y="-128.5" font-family="Helvetica,sans-Serif" font-size="10.00">sharp_interp_pressure</text>
</a>
</g>
</g>
<!-- Node1&#45;&gt;Node37 -->
<g id="edge43" class="edge">
<title>Node1&#45;&gt;Node37</title>
<path fill="none" stroke="#63b8ff" d="M772.64,-335.15C763.67,-294.36 737.57,-200.68 679,-150 674.52,-146.12 669.26,-143.04 663.73,-140.58"/>
<polygon fill="#63b8ff" stroke="#63b8ff" points="769.26,-336.1 774.73,-345.18 776.12,-334.67 769.26,-336.1"/>
</g>
<!-- Node38 -->
<g id="node38" class="node">
<title>Node38</title>
<g id="a_node38"><a xlink:href="namespacesharp.html#a099a4575acc27d6e10f9dfb69bc315a1" target="_top" xlink:title="Compue the wind shear for a given layer.">
<polygon fill="white" stroke="#666666" points="669,-72.5 564,-72.5 564,-53.5 669,-53.5 669,-72.5"/>
<text text-anchor="middle" x="616.5" y="-60.5" font-family="Helvetica,sans-Serif" font-size="10.00">sharp::wind_shear</text>
</a>
</g>
</g>
<!-- Node1&#45;&gt;Node38 -->
<g id="edge45" class="edge">
<title>Node1&#45;&gt;Node38</title>
<path fill="none" stroke="#63b8ff" d="M772.21,-335.55C761.93,-292.2 732.68,-185.76 679,-113 666.5,-96.06 646.98,-81.51 633.29,-72.54"/>
<polygon fill="#63b8ff" stroke="#63b8ff" points="768.81,-336.41 774.46,-345.37 775.64,-334.84 768.81,-336.41"/>
</g>
<!-- Node3 -->
<g id="node3" class="node">
<title>Node3</title>
<g id="a_node3"><a xlink:href="convective__wrap_8cpp.html#ab0bfb728bbbf3a731c330b61a5c415ad" target="_top" xlink:title=" ">
<polygon fill="white" stroke="#666666" points="137,-647.5 0,-647.5 0,-628.5 137,-628.5 137,-647.5"/>
<text text-anchor="middle" x="68.5" y="-635.5" font-family="Helvetica,sans-Serif" font-size="10.00">sharp_entrainment_cape</text>
</a>
</g>
</g>
<!-- Node2&#45;&gt;Node3 -->
<g id="edge2" class="edge">
<title>Node2&#45;&gt;Node3</title>
<path fill="none" stroke="#63b8ff" d="M169.28,-638C158.6,-638 147.7,-638 137.22,-638"/>
<polygon fill="#63b8ff" stroke="#63b8ff" points="169.44,-641.5 179.44,-638 169.44,-634.5 169.44,-641.5"/>
</g>
<!-- Node5 -->
<g id="node5" class="node">
<title>Node5</title>
<g id="a_node5"><a xlink:href="structsharp_1_1Parcel.html#a0560bd193b2d2d6bc6b08baa7463fba4" target="_top" xlink:title="Compute CAPE and CINH for a previously lifted sharp::Parcel.">
<polygon fill="white" stroke="#666666" points="506,-485.5 372,-485.5 372,-466.5 506,-466.5 506,-485.5"/>
<text text-anchor="middle" x="439" y="-473.5" font-family="Helvetica,sans-Serif" font-size="10.00">sharp::Parcel::cape_cinh</text>
</a>
</g>
</g>
<!-- Node4&#45;&gt;Node5 -->
<g id="edge4" class="edge">
<title>Node4&#45;&gt;Node5</title>
<path fill="none" stroke="#63b8ff" d="M554.63,-465.55C538.93,-466.98 521.96,-468.53 506.02,-469.98"/>
<polygon fill="#63b8ff" stroke="#63b8ff" points="555.1,-469.02 564.74,-464.63 554.46,-462.05 555.1,-469.02"/>
</g>
<!-- Node6 -->
<g id="node6" class="node">
<title>Node6</title>
<g id="a_node6"><a xlink:href="namespacesharp.html#a2e6b7cd4a3594a8f2c2050b0e4784cce" target="_top" xlink:title="Computes the Effective Inflow Layer for a given atmospheric sounding.">
<polygon fill="white" stroke="#666666" points="312,-489 185,-489 185,-459 312,-459 312,-489"/>
<text text-anchor="start" x="193" y="-477" font-family="Helvetica,sans-Serif" font-size="10.00">sharp::effective_inflow</text>
<text text-anchor="middle" x="248.5" y="-466" font-family="Helvetica,sans-Serif" font-size="10.00">_layer</text>
</a>
</g>
</g>
<!-- Node5&#45;&gt;Node6 -->
<g id="edge5" class="edge">
<title>Node5&#45;&gt;Node6</title>
<path fill="none" stroke="#63b8ff" d="M361.66,-475.19C345.18,-475.02 327.94,-474.83 312.05,-474.66"/>
<polygon fill="#63b8ff" stroke="#63b8ff" points="361.77,-478.69 371.81,-475.3 361.84,-471.69 361.77,-478.69"/>
</g>
<!-- Node8 -->
<g id="node8" class="node">
<title>Node8</title>
<g id="a_node8"><a xlink:href="structsharp_1_1Parcel.html#aa258d27992d22d8b80cb221e6e2a6c19" target="_top" xlink:title="Construct and return a most&#45;unstable Parcel.">
<polygon fill="white" stroke="#666666" points="303.5,-441 193.5,-441 193.5,-411 303.5,-411 303.5,-441"/>
<text text-anchor="start" x="201.5" y="-429" font-family="Helvetica,sans-Serif" font-size="10.00">sharp::Parcel::most</text>
<text text-anchor="middle" x="248.5" y="-418" font-family="Helvetica,sans-Serif" font-size="10.00">_unstable_parcel</text>
</a>
</g>
</g>
<!-- Node5&#45;&gt;Node8 -->
<g id="edge7" class="edge">
<title>Node5&#45;&gt;Node8</title>
<path fill="none" stroke="#63b8ff" d="M384.62,-464.09C376.36,-462.13 367.94,-460.06 360,-458 339.99,-452.8 318.1,-446.57 299.12,-441"/>
<polygon fill="#63b8ff" stroke="#63b8ff" points="384.04,-467.55 394.58,-466.43 385.64,-460.74 384.04,-467.55"/>
</g>
<!-- Node7 -->
<g id="node7" class="node">
<title>Node7</title>
<g id="a_node7"><a xlink:href="convective__wrap_8cpp.html#af214bab6c6ba14dc06fe7df4f6abcdf8" target="_top" xlink:title=" ">
<polygon fill="white" stroke="#666666" points="131.5,-489 5.5,-489 5.5,-459 131.5,-459 131.5,-489"/>
<text text-anchor="start" x="13.5" y="-477" font-family="Helvetica,sans-Serif" font-size="10.00">sharp_effective_inflow</text>
<text text-anchor="middle" x="68.5" y="-466" font-family="Helvetica,sans-Serif" font-size="10.00">_layer</text>
</a>
</g>
</g>
<!-- Node6&#45;&gt;Node7 -->
<g id="edge6" class="edge">
<title>Node6&#45;&gt;Node7</title>
<path fill="none" stroke="#63b8ff" d="M174.69,-474C160.38,-474 145.48,-474 131.56,-474"/>
<polygon fill="#63b8ff" stroke="#63b8ff" points="174.99,-477.5 184.99,-474 174.99,-470.5 174.99,-477.5"/>
</g>
<!-- Node10 -->
<g id="node10" class="node">
<title>Node10</title>
<g id="a_node10"><a xlink:href="namespacesharp.html#ab89a7e3555a52f0fd9f4086d5aba7037" target="_top" xlink:title=" ">
<polygon fill="white" stroke="#666666" points="501.5,-287 376.5,-287 376.5,-257 501.5,-257 501.5,-287"/>
<text text-anchor="start" x="384.5" y="-275" font-family="Helvetica,sans-Serif" font-size="10.00">sharp::energy_helicity</text>
<text text-anchor="middle" x="439" y="-264" font-family="Helvetica,sans-Serif" font-size="10.00">_index</text>
</a>
</g>
</g>
<!-- Node9&#45;&gt;Node10 -->
<g id="edge9" class="edge">
<title>Node9&#45;&gt;Node10</title>
<path fill="none" stroke="#63b8ff" d="M563.31,-257.24C543.93,-259.56 521.77,-262.22 501.62,-264.63"/>
<polygon fill="#63b8ff" stroke="#63b8ff" points="563.95,-260.69 573.46,-256.03 563.12,-253.74 563.95,-260.69"/>
</g>
<!-- Node12 -->
<g id="node12" class="node">
<title>Node12</title>
<g id="a_node12"><a xlink:href="winds__wrap_8cpp.html#a2275eb46450351ce583c7aef971a0507" target="_top" xlink:title=" ">
<polygon fill="white" stroke="#666666" points="513.5,-238.5 364.5,-238.5 364.5,-219.5 513.5,-219.5 513.5,-238.5"/>
<text text-anchor="middle" x="439" y="-226.5" font-family="Helvetica,sans-Serif" font-size="10.00">sharp_HeightLayer_helicity</text>
</a>
</g>
</g>
<!-- Node9&#45;&gt;Node12 -->
<g id="edge11" class="edge">
<title>Node9&#45;&gt;Node12</title>
<path fill="none" stroke="#63b8ff" d="M563.47,-244.48C547.83,-242.52 530.35,-240.33 513.59,-238.22"/>
<polygon fill="#63b8ff" stroke="#63b8ff" points="563.11,-247.96 573.46,-245.73 563.98,-241.01 563.11,-247.96"/>
</g>
<!-- Node13 -->
<g id="node13" class="node">
<title>Node13</title>
<g id="a_node13"><a xlink:href="winds__wrap_8cpp.html#a111ef482a9bae9f405ccb271e0816769" target="_top" xlink:title=" ">
<polygon fill="white" stroke="#666666" points="498,-201 380,-201 380,-171 498,-171 498,-201"/>
<text text-anchor="start" x="388" y="-189" font-family="Helvetica,sans-Serif" font-size="10.00">sharp_PressureLayer</text>
<text text-anchor="middle" x="439" y="-178" font-family="Helvetica,sans-Serif" font-size="10.00">_helicity</text>
</a>
</g>
</g>
<!-- Node9&#45;&gt;Node13 -->
<g id="edge12" class="edge">
<title>Node9&#45;&gt;Node13</title>
<path fill="none" stroke="#63b8ff" d="M584.26,-237.45C565.25,-229.38 540.39,-219.17 518,-211 508.65,-207.59 498.58,-204.17 488.88,-201.01"/>
<polygon fill="#63b8ff" stroke="#63b8ff" points="583.05,-240.74 593.62,-241.44 585.8,-234.3 583.05,-240.74"/>
</g>
<!-- Node11 -->
<g id="node11" class="node">
<title>Node11</title>
<g id="a_node11"><a xlink:href="convective__wrap_8cpp.html#a8fa4a371ff32e44fd39e0703eab33a74" target="_top" xlink:title=" ">
<polygon fill="white" stroke="#666666" points="310.5,-287 186.5,-287 186.5,-257 310.5,-257 310.5,-287"/>
<text text-anchor="start" x="194.5" y="-275" font-family="Helvetica,sans-Serif" font-size="10.00">sharp_energy_helicity</text>
<text text-anchor="middle" x="248.5" y="-264" font-family="Helvetica,sans-Serif" font-size="10.00">_index</text>
</a>
</g>
</g>
<!-- Node10&#45;&gt;Node11 -->
<g id="edge10" class="edge">
<title>Node10&#45;&gt;Node11</title>
<path fill="none" stroke="#63b8ff" d="M366.25,-272C347.95,-272 328.44,-272 310.72,-272"/>
<polygon fill="#63b8ff" stroke="#63b8ff" points="366.28,-275.5 376.28,-272 366.28,-268.5 366.28,-275.5"/>
</g>
<!-- Node14&#45;&gt;Node2 -->
<g id="edge15" class="edge">
<title>Node14&#45;&gt;Node2</title>
<path fill="none" stroke="#63b8ff" d="M544.22,-687.93C474.56,-676.12 369.89,-658.39 305.85,-647.54"/>
<polygon fill="#63b8ff" stroke="#63b8ff" points="543.8,-691.4 554.24,-689.62 544.96,-684.5 543.8,-691.4"/>
</g>
<!-- Node14&#45;&gt;Node5 -->
<g id="edge14" class="edge">
<title>Node14&#45;&gt;Node5</title>
<path fill="none" stroke="#63b8ff" d="M606.77,-675.2C589.02,-626.14 547.9,-519.32 518,-495 513.24,-491.13 507.82,-488.03 502.09,-485.55"/>
<polygon fill="#63b8ff" stroke="#63b8ff" points="603.52,-676.51 610.19,-684.74 610.11,-674.15 603.52,-676.51"/>
</g>
<!-- Node15 -->
<g id="node15" class="node">
<title>Node15</title>
<g id="a_node15"><a xlink:href="namespacesharp.html#a298e2c96c389f2c5177d3626c908927e" target="_top" xlink:title="Computes the mass&#45;weighted mean value of a field over a given pressure layer.">
<polygon fill="white" stroke="#666666" points="492.5,-808.5 385.5,-808.5 385.5,-789.5 492.5,-789.5 492.5,-808.5"/>
<text text-anchor="middle" x="439" y="-796.5" font-family="Helvetica,sans-Serif" font-size="10.00">sharp::layer_mean</text>
</a>
</g>
</g>
<!-- Node14&#45;&gt;Node15 -->
<g id="edge16" class="edge">
<title>Node14&#45;&gt;Node15</title>
<path fill="none" stroke="#63b8ff" d="M594.59,-722.44C576.16,-740.89 547.68,-766.3 518,-781 510.15,-784.89 501.45,-787.95 492.78,-790.36"/>
<polygon fill="#63b8ff" stroke="#63b8ff" points="597.36,-724.61 601.85,-715.01 592.36,-719.72 597.36,-724.61"/>
</g>
<!-- Node19 -->
<g id="node19" class="node">
<title>Node19</title>
<g id="a_node19"><a xlink:href="layer__wrap_8cpp.html#aedfe40469a1e381572599fb09d5f0406" target="_top" xlink:title=" ">
<polygon fill="white" stroke="#666666" points="518,-771.5 360,-771.5 360,-752.5 518,-752.5 518,-771.5"/>
<text text-anchor="middle" x="439" y="-759.5" font-family="Helvetica,sans-Serif" font-size="10.00">sharp_HeightLayer_integrate</text>
</a>
</g>
</g>
<!-- Node14&#45;&gt;Node19 -->
<g id="edge21" class="edge">
<title>Node14&#45;&gt;Node19</title>
<path fill="none" stroke="#63b8ff" d="M575.59,-719.51C558.18,-727.52 537.36,-736.43 518,-743 507.44,-746.58 495.86,-749.78 484.94,-752.49"/>
<polygon fill="#63b8ff" stroke="#63b8ff" points="577.3,-722.57 584.88,-715.17 574.34,-716.23 577.3,-722.57"/>
</g>
<!-- Node20 -->
<g id="node20" class="node">
<title>Node20</title>
<g id="a_node20"><a xlink:href="layer__wrap_8cpp.html#a162c242638de7fc2a22b915d14c587db" target="_top" xlink:title=" ">
<polygon fill="white" stroke="#666666" points="498,-734 380,-734 380,-704 498,-704 498,-734"/>
<text text-anchor="start" x="388" y="-722" font-family="Helvetica,sans-Serif" font-size="10.00">sharp_PressureLayer</text>
<text text-anchor="middle" x="439" y="-711" font-family="Helvetica,sans-Serif" font-size="10.00">_integrate</text>
</a>
</g>
</g>
<!-- Node14&#45;&gt;Node20 -->
<g id="edge22" class="edge">
<title>Node14&#45;&gt;Node20</title>
<path fill="none" stroke="#63b8ff" d="M544.17,-707.72C528.86,-709.38 512.85,-711.11 498.1,-712.71"/>
<polygon fill="#63b8ff" stroke="#63b8ff" points="544.55,-711.2 554.12,-706.65 543.8,-704.24 544.55,-711.2"/>
</g>
<!-- Node15&#45;&gt;Node2 -->
<g id="edge17" class="edge">
<title>Node15&#45;&gt;Node2</title>
<path fill="none" stroke="#63b8ff" d="M375.28,-788.81C369.9,-786.68 364.72,-784.1 360,-781 337.43,-766.15 340.4,-753.48 324,-732 300.12,-700.71 270.89,-664.39 257.23,-647.52"/>
<polygon fill="#63b8ff" stroke="#63b8ff" points="374.54,-792.25 385.13,-792.18 376.81,-785.63 374.54,-792.25"/>
</g>
<!-- Node16 -->
<g id="node16" class="node">
<title>Node16</title>
<g id="a_node16"><a xlink:href="structsharp_1_1Parcel.html#a1bf670e79f35a1ce8c904b7ead32ccbe" target="_top" xlink:title="Construct and return a mixed&#45;layer Parcel.">
<polygon fill="white" stroke="#666666" points="306,-771 191,-771 191,-741 306,-741 306,-771"/>
<text text-anchor="start" x="199" y="-759" font-family="Helvetica,sans-Serif" font-size="10.00">sharp::Parcel::mixed</text>
<text text-anchor="middle" x="248.5" y="-748" font-family="Helvetica,sans-Serif" font-size="10.00">_layer_parcel</text>
</a>
</g>
</g>
<!-- Node15&#45;&gt;Node16 -->
<g id="edge18" class="edge">
<title>Node15&#45;&gt;Node16</title>
<path fill="none" stroke="#63b8ff" d="M386.22,-787.19C361.42,-781.53 331.65,-774.74 306.23,-768.94"/>
<polygon fill="#63b8ff" stroke="#63b8ff" points="385.64,-790.65 396.17,-789.46 387.19,-783.82 385.64,-790.65"/>
</g>
<!-- Node17 -->
<g id="node17" class="node">
<title>Node17</title>
<g id="a_node17"><a xlink:href="layer__wrap_8cpp.html#aed1a796336a18c40e0bf51019b76e09a" target="_top" xlink:title=" ">
<polygon fill="white" stroke="#666666" points="319,-845.5 178,-845.5 178,-826.5 319,-826.5 319,-845.5"/>
<text text-anchor="middle" x="248.5" y="-833.5" font-family="Helvetica,sans-Serif" font-size="10.00">sharp_HeightLayer_mean</text>
</a>
</g>
</g>
<!-- Node15&#45;&gt;Node17 -->
<g id="edge19" class="edge">
<title>Node15&#45;&gt;Node17</title>
<path fill="none" stroke="#63b8ff" d="M379.33,-810.52C353.28,-815.63 322.98,-821.58 298.21,-826.44"/>
<polygon fill="#63b8ff" stroke="#63b8ff" points="380.32,-813.89 389.46,-808.53 378.97,-807.02 380.32,-813.89"/>
</g>
<!-- Node18 -->
<g id="node18" class="node">
<title>Node18</title>
<g id="a_node18"><a xlink:href="layer__wrap_8cpp.html#acb9a81d9a712786d81c427d428eefd0a" target="_top" xlink:title=" ">
<polygon fill="white" stroke="#666666" points="324,-808.5 173,-808.5 173,-789.5 324,-789.5 324,-808.5"/>
<text text-anchor="middle" x="248.5" y="-796.5" font-family="Helvetica,sans-Serif" font-size="10.00">sharp_PressureLayer_mean</text>
</a>
</g>
</g>
<!-- Node15&#45;&gt;Node18 -->
<g id="edge20" class="edge">
<title>Node15&#45;&gt;Node18</title>
<path fill="none" stroke="#63b8ff" d="M375.49,-799C359.09,-799 341.24,-799 324.27,-799"/>
<polygon fill="#63b8ff" stroke="#63b8ff" points="375.49,-802.5 385.49,-799 375.49,-795.5 375.49,-802.5"/>
</g>
<!-- Node22 -->
<g id="node22" class="node">
<title>Node22</title>
<g id="a_node22"><a xlink:href="namespacesharp.html#a6170e3f412ab95b3ba8d9a93ae55dc67" target="_top" xlink:title="Returns the maximim value in the given layer.">
<polygon fill="white" stroke="#666666" points="489.5,-152.5 388.5,-152.5 388.5,-133.5 489.5,-133.5 489.5,-152.5"/>
<text text-anchor="middle" x="439" y="-140.5" font-family="Helvetica,sans-Serif" font-size="10.00">sharp::layer_max</text>
</a>
</g>
</g>
<!-- Node21&#45;&gt;Node22 -->
<g id="edge24" class="edge">
<title>Node21&#45;&gt;Node22</title>
<path fill="none" stroke="#63b8ff" d="M546.06,-158.11C527.23,-155.43 507.22,-152.58 489.71,-150.08"/>
<polygon fill="#63b8ff" stroke="#63b8ff" points="545.69,-161.59 556.08,-159.54 546.68,-154.66 545.69,-161.59"/>
</g>
<!-- Node25 -->
<g id="node25" class="node">
<title>Node25</title>
<g id="a_node25"><a xlink:href="namespacesharp.html#a01a9880c937f63e551893797253da4f7" target="_top" xlink:title="Returns the minimum value in the given layer.">
<polygon fill="white" stroke="#666666" points="488,-115.5 390,-115.5 390,-96.5 488,-96.5 488,-115.5"/>
<text text-anchor="middle" x="439" y="-103.5" font-family="Helvetica,sans-Serif" font-size="10.00">sharp::layer_min</text>
</a>
</g>
</g>
<!-- Node21&#45;&gt;Node25 -->
<g id="edge27" class="edge">
<title>Node21&#45;&gt;Node25</title>
<path fill="none" stroke="#63b8ff" d="M566.04,-155.07C561.9,-153.52 557.84,-151.84 554,-150 536.42,-141.6 535.76,-133 518,-125 508.72,-120.82 498.39,-117.48 488.37,-114.84"/>
<polygon fill="#63b8ff" stroke="#63b8ff" points="565.16,-158.47 575.76,-158.41 567.44,-151.85 565.16,-158.47"/>
</g>
<!-- Node23 -->
<g id="node23" class="node">
<title>Node23</title>
<g id="a_node23"><a xlink:href="layer__wrap_8cpp.html#aff049d2f08d0ca532b51ee39dfeff547" target="_top" xlink:title=" ">
<polygon fill="white" stroke="#666666" points="316,-189.5 181,-189.5 181,-170.5 316,-170.5 316,-189.5"/>
<text text-anchor="middle" x="248.5" y="-177.5" font-family="Helvetica,sans-Serif" font-size="10.00">sharp_HeightLayer_max</text>
</a>
</g>
</g>
<!-- Node22&#45;&gt;Node23 -->
<g id="edge25" class="edge">
<title>Node22&#45;&gt;Node23</title>
<path fill="none" stroke="#63b8ff" d="M379.33,-154.52C353.28,-159.63 322.98,-165.58 298.21,-170.44"/>
<polygon fill="#63b8ff" stroke="#63b8ff" points="380.32,-157.89 389.46,-152.53 378.97,-151.02 380.32,-157.89"/>
</g>
<!-- Node24 -->
<g id="node24" class="node">
<title>Node24</title>
<g id="a_node24"><a xlink:href="layer__wrap_8cpp.html#af26d1ab7a5b701ce5e076ff2a0ef3955" target="_top" xlink:title=" ">
<polygon fill="white" stroke="#666666" points="321,-152.5 176,-152.5 176,-133.5 321,-133.5 321,-152.5"/>
<text text-anchor="middle" x="248.5" y="-140.5" font-family="Helvetica,sans-Serif" font-size="10.00">sharp_PressureLayer_max</text>
</a>
</g>
</g>
<!-- Node22&#45;&gt;Node24 -->
<g id="edge26" class="edge">
<title>Node22&#45;&gt;Node24</title>
<path fill="none" stroke="#63b8ff" d="M378.31,-143C360.11,-143 339.92,-143 321.03,-143"/>
<polygon fill="#63b8ff" stroke="#63b8ff" points="378.47,-146.5 388.47,-143 378.47,-139.5 378.47,-146.5"/>
</g>
<!-- Node26 -->
<g id="node26" class="node">
<title>Node26</title>
<g id="a_node26"><a xlink:href="layer__wrap_8cpp.html#a1b669cfe5d14a85dc16aa2ec7b19f914" target="_top" xlink:title=" ">
<polygon fill="white" stroke="#666666" points="314.5,-115.5 182.5,-115.5 182.5,-96.5 314.5,-96.5 314.5,-115.5"/>
<text text-anchor="middle" x="248.5" y="-103.5" font-family="Helvetica,sans-Serif" font-size="10.00">sharp_HeightLayer_min</text>
</a>
</g>
</g>
<!-- Node25&#45;&gt;Node26 -->
<g id="edge28" class="edge">
<title>Node25&#45;&gt;Node26</title>
<path fill="none" stroke="#63b8ff" d="M379.73,-106C359.08,-106 335.72,-106 314.54,-106"/>
<polygon fill="#63b8ff" stroke="#63b8ff" points="379.95,-109.5 389.95,-106 379.95,-102.5 379.95,-109.5"/>
</g>
<!-- Node27 -->
<g id="node27" class="node">
<title>Node27</title>
<g id="a_node27"><a xlink:href="layer__wrap_8cpp.html#aa9e2591b56d47f5caa08217690927b49" target="_top" xlink:title=" ">
<polygon fill="white" stroke="#666666" points="319.5,-78.5 177.5,-78.5 177.5,-59.5 319.5,-59.5 319.5,-78.5"/>
<text text-anchor="middle" x="248.5" y="-66.5" font-family="Helvetica,sans-Serif" font-size="10.00">sharp_PressureLayer_min</text>
</a>
</g>
</g>
<!-- Node25&#45;&gt;Node27 -->
<g id="edge29" class="edge">
<title>Node25&#45;&gt;Node27</title>
<path fill="none" stroke="#63b8ff" d="M380.12,-94.64C353.87,-89.49 323.16,-83.46 298.12,-78.54"/>
<polygon fill="#63b8ff" stroke="#63b8ff" points="379.46,-98.08 389.95,-96.57 380.81,-91.21 379.46,-98.08"/>
</g>
<!-- Node29 -->
<g id="node29" class="node">
<title>Node29</title>
<g id="a_node29"><a xlink:href="winds__wrap_8cpp.html#a9995026cf811a9d4ec86b568b3201e63" target="_top" xlink:title=" ">
<polygon fill="white" stroke="#666666" points="491.5,-609.5 386.5,-609.5 386.5,-590.5 491.5,-590.5 491.5,-609.5"/>
<text text-anchor="middle" x="439" y="-597.5" font-family="Helvetica,sans-Serif" font-size="10.00">sharp_mean_wind</text>
</a>
</g>
</g>
<!-- Node28&#45;&gt;Node29 -->
<g id="edge31" class="edge">
<title>Node28&#45;&gt;Node29</title>
<path fill="none" stroke="#63b8ff" d="M593.13,-534.09C573.86,-546.59 544.97,-564.16 518,-576 505.03,-581.7 490.29,-586.6 477.14,-590.47"/>
<polygon fill="#63b8ff" stroke="#63b8ff" points="595.08,-536.99 601.51,-528.58 591.23,-531.15 595.08,-536.99"/>
</g>
<!-- Node30 -->
<g id="node30" class="node">
<title>Node30</title>
<g id="a_node30"><a xlink:href="namespacesharp.html#a74a735636c932467b4d2ced544e0cb51" target="_top" xlink:title="Estimates supercell storm motion using the Bunkers et al. 2000 method.">
<polygon fill="white" stroke="#666666" points="498,-534 380,-534 380,-504 498,-504 498,-534"/>
<text text-anchor="start" x="388" y="-522" font-family="Helvetica,sans-Serif" font-size="10.00">sharp::storm_motion</text>
<text text-anchor="middle" x="439" y="-511" font-family="Helvetica,sans-Serif" font-size="10.00">_bunkers</text>
</a>
</g>
</g>
<!-- Node28&#45;&gt;Node30 -->
<g id="edge32" class="edge">
<title>Node28&#45;&gt;Node30</title>
<path fill="none" stroke="#63b8ff" d="M553.25,-519C535.3,-519 515.8,-519 498.12,-519"/>
<polygon fill="#63b8ff" stroke="#63b8ff" points="553.32,-522.5 563.32,-519 553.32,-515.5 553.32,-522.5"/>
</g>
<!-- Node30&#45;&gt;Node2 -->
<g id="edge33" class="edge">
<title>Node30&#45;&gt;Node2</title>
<path fill="none" stroke="#63b8ff" d="M375.73,-538.48C370.2,-541.29 364.86,-544.45 360,-548 339.04,-563.32 343.52,-576.88 324,-594 307.63,-608.36 285.9,-620.57 270.14,-628.46"/>
<polygon fill="#63b8ff" stroke="#63b8ff" points="377.6,-541.47 385.19,-534.08 374.65,-535.12 377.6,-541.47"/>
</g>
<!-- Node31 -->
<g id="node31" class="node">
<title>Node31</title>
<g id="a_node31"><a xlink:href="convective__wrap_8cpp.html#aa0e261971f41c6f95514e9ab584cc91e" target="_top" xlink:title=" ">
<polygon fill="white" stroke="#666666" points="307,-585 190,-585 190,-555 307,-555 307,-585"/>
<text text-anchor="start" x="198" y="-573" font-family="Helvetica,sans-Serif" font-size="10.00">sharp_storm_motion</text>
<text text-anchor="middle" x="248.5" y="-562" font-family="Helvetica,sans-Serif" font-size="10.00">_bunkers</text>
</a>
</g>
</g>
<!-- Node30&#45;&gt;Node31 -->
<g id="edge34" class="edge">
<title>Node30&#45;&gt;Node31</title>
<path fill="none" stroke="#63b8ff" d="M372.52,-536.71C350.5,-542.67 326.15,-549.26 304.97,-554.99"/>
<polygon fill="#63b8ff" stroke="#63b8ff" points="373.72,-540.02 382.46,-534.03 371.9,-533.26 373.72,-540.02"/>
</g>
<!-- Node32 -->
<g id="node32" class="node">
<title>Node32</title>
<g id="a_node32"><a xlink:href="convective__wrap_8cpp.html#a9c1783d5b0cde5deea749c0f4e0ee310" target="_top" xlink:title=" ">
<polygon fill="white" stroke="#666666" points="307,-537 190,-537 190,-507 307,-507 307,-537"/>
<text text-anchor="start" x="198" y="-525" font-family="Helvetica,sans-Serif" font-size="10.00">sharp_storm_motion</text>
<text text-anchor="middle" x="248.5" y="-514" font-family="Helvetica,sans-Serif" font-size="10.00">_bunkers_np</text>
</a>
</g>
</g>
<!-- Node30&#45;&gt;Node32 -->
<g id="edge35" class="edge">
<title>Node30&#45;&gt;Node32</title>
<path fill="none" stroke="#63b8ff" d="M369.67,-520.09C349.15,-520.41 326.84,-520.77 307.08,-521.08"/>
<polygon fill="#63b8ff" stroke="#63b8ff" points="369.96,-523.58 379.91,-519.92 369.85,-516.58 369.96,-523.58"/>
</g>
<!-- Node30&#45;&gt;Node33 -->
<g id="edge36" class="edge">
<title>Node30&#45;&gt;Node33</title>
<path fill="none" stroke="#63b8ff" d="M370.9,-503.08C366.98,-500.75 363.3,-498.07 360,-495 327.57,-464.79 351.84,-436.49 324,-402 312.62,-387.91 296.08,-376.46 281.48,-368.19"/>
<polygon fill="#63b8ff" stroke="#63b8ff" points="369.31,-506.2 379.8,-507.67 372.51,-499.98 369.31,-506.2"/>
</g>
<!-- Node34&#45;&gt;Node2 -->
<g id="edge39" class="edge">
<title>Node34&#45;&gt;Node2</title>
<path fill="none" stroke="#63b8ff" d="M566.77,-424.59C562.05,-427.92 557.67,-431.71 554,-436 521.38,-474.12 554.91,-509.02 518,-543 464.79,-591.99 427.81,-556.82 360,-582 324.92,-595.03 286.48,-616.22 265.45,-628.45"/>
<polygon fill="#63b8ff" stroke="#63b8ff" points="568.94,-427.37 575.54,-419.08 565.21,-421.44 568.94,-427.37"/>
</g>
<!-- Node34&#45;&gt;Node5 -->
<g id="edge38" class="edge">
<title>Node34&#45;&gt;Node5</title>
<path fill="none" stroke="#63b8ff" d="M576.31,-423.88C568.85,-427.81 561.15,-431.96 554,-436 537.67,-445.22 535.36,-450.91 518,-458 509.77,-461.36 500.77,-464.17 491.92,-466.49"/>
<polygon fill="#63b8ff" stroke="#63b8ff" points="578.31,-426.78 585.56,-419.05 575.08,-420.57 578.31,-426.78"/>
</g>
<!-- Node34&#45;&gt;Node33 -->
<g id="edge42" class="edge">
<title>Node34&#45;&gt;Node33</title>
<path fill="none" stroke="#63b8ff" d="M567.73,-385.72C552.09,-380.44 534.5,-375.24 518,-372 446.47,-357.95 362.41,-353.97 307.66,-353"/>
<polygon fill="#63b8ff" stroke="#63b8ff" points="566.58,-389.03 577.18,-389 568.88,-382.41 566.58,-389.03"/>
</g>
<!-- Node35 -->
<g id="node35" class="node">
<title>Node35</title>
<g id="a_node35"><a xlink:href="namespacesharp.html#aa4e86da659bfca2eae1f0baddb84a303" target="_top" xlink:title="compute the lapse rate over the given sharp::PressureLayer">
<polygon fill="white" stroke="#666666" points="489.5,-448.5 388.5,-448.5 388.5,-429.5 489.5,-429.5 489.5,-448.5"/>
<text text-anchor="middle" x="439" y="-436.5" font-family="Helvetica,sans-Serif" font-size="10.00">sharp::lapse_rate</text>
</a>
</g>
</g>
<!-- Node34&#45;&gt;Node35 -->
<g id="edge40" class="edge">
<title>Node34&#45;&gt;Node35</title>
<path fill="none" stroke="#63b8ff" d="M545.15,-418.03C525.88,-421.87 505.45,-425.95 487.76,-429.47"/>
<polygon fill="#63b8ff" stroke="#63b8ff" points="545.98,-421.43 555.1,-416.05 544.61,-414.57 545.98,-421.43"/>
</g>
<!-- Node36 -->
<g id="node36" class="node">
<title>Node36</title>
<g id="a_node36"><a xlink:href="layer__wrap_8cpp.html#ad026c34f615f290fcd838421ed3dd192" target="_top" xlink:title=" ">
<polygon fill="white" stroke="#666666" points="498,-411 380,-411 380,-381 498,-381 498,-411"/>
<text text-anchor="start" x="388" y="-399" font-family="Helvetica,sans-Serif" font-size="10.00">sharp_PressureLayer</text>
<text text-anchor="middle" x="439" y="-388" font-family="Helvetica,sans-Serif" font-size="10.00">_to_HeightLayer</text>
</a>
</g>
</g>
<!-- Node34&#45;&gt;Node36 -->
<g id="edge41" class="edge">
<title>Node34&#45;&gt;Node36</title>
<path fill="none" stroke="#63b8ff" d="M545.01,-400.79C529.45,-400.08 513.14,-399.33 498.14,-398.65"/>
<polygon fill="#63b8ff" stroke="#63b8ff" points="544.95,-404.29 555.1,-401.25 545.27,-397.3 544.95,-404.29"/>
</g>
<!-- Node39 -->
<g id="node39" class="node">
<title>Node39</title>
<g id="a_node39"><a xlink:href="winds__wrap_8cpp.html#a1c0e9a86e60d26bf1e2d1cedff36c601" target="_top" xlink:title=" ">
<polygon fill="white" stroke="#666666" points="507.5,-78 370.5,-78 370.5,-48 507.5,-48 507.5,-78"/>
<text text-anchor="start" x="378.5" y="-66" font-family="Helvetica,sans-Serif" font-size="10.00">sharp_HeightLayer_wind</text>
<text text-anchor="middle" x="439" y="-55" font-family="Helvetica,sans-Serif" font-size="10.00">_shear</text>
</a>
</g>
</g>
<!-- Node38&#45;&gt;Node39 -->
<g id="edge46" class="edge">
<title>Node38&#45;&gt;Node39</title>
<path fill="none" stroke="#63b8ff" d="M553.67,-63C538.77,-63 522.77,-63 507.62,-63"/>
<polygon fill="#63b8ff" stroke="#63b8ff" points="553.79,-66.5 563.79,-63 553.79,-59.5 553.79,-66.5"/>
</g>
<!-- Node40 -->
<g id="node40" class="node">
<title>Node40</title>
<g id="a_node40"><a xlink:href="winds__wrap_8cpp.html#a3eac778ad96a01cf68ea55e502520a9c" target="_top" xlink:title=" ">
<polygon fill="white" stroke="#666666" points="498,-30 380,-30 380,0 498,0 498,-30"/>
<text text-anchor="start" x="388" y="-18" font-family="Helvetica,sans-Serif" font-size="10.00">sharp_PressureLayer</text>
<text text-anchor="middle" x="439" y="-7" font-family="Helvetica,sans-Serif" font-size="10.00">_wind_shear</text>
</a>
</g>
</g>
<!-- Node38&#45;&gt;Node40 -->
<g id="edge47" class="edge">
<title>Node38&#45;&gt;Node40</title>
<path fill="none" stroke="#63b8ff" d="M570.57,-50.71C547.57,-44.42 519.37,-36.71 495.07,-30.06"/>
<polygon fill="#63b8ff" stroke="#63b8ff" points="569.84,-54.14 580.41,-53.4 571.68,-47.39 569.84,-54.14"/>
</g>
</g>
</svg>
