<?xml version="1.0" encoding="UTF-8" standalone="no"?>
<!DOCTYPE svg PUBLIC "-//W3C//DTD SVG 1.1//EN"
 "http://www.w3.org/Graphics/SVG/1.1/DTD/svg11.dtd">
<!-- Generated by graphviz version 2.43.0 (0)
 -->
<!-- Title: sharp::storm_motion_bunkers Pages: 1 -->
<svg width="725pt" height="113pt"
 viewBox="0.00 0.00 725.00 112.50" xmlns="http://www.w3.org/2000/svg" xmlns:xlink="http://www.w3.org/1999/xlink">
<g id="graph0" class="graph" transform="scale(1 1) rotate(0) translate(4 108.5)">
<title>sharp::storm_motion_bunkers</title>
<!-- Node1 -->
<g id="node1" class="node">
<title>Node1</title>
<g id="a_node1"><a xlink:title="Estimates supercell storm motion using the Bunkers et al. 2000 method.">
<polygon fill="#999999" stroke="#666666" points="118,-61.5 0,-61.5 0,-31.5 118,-31.5 118,-61.5"/>
<text text-anchor="start" x="8" y="-49.5" font-family="Helvetica,sans-Serif" font-size="10.00">sharp::storm_motion</text>
<text text-anchor="middle" x="59" y="-38.5" font-family="Helvetica,sans-Serif" font-size="10.00">_bunkers</text>
</a>
</g>
</g>
<!-- Node2 -->
<g id="node2" class="node">
<title>Node2</title>
<g id="a_node2"><a xlink:href="namespacesharp.html#ab77e344c7462c9615b0ddac228bc2193" target="_top" xlink:title="Converts a sharp::HeightLayer to a sharp::PressureLayer.">
<polygon fill="white" stroke="#666666" points="278,-104.5 168,-104.5 168,-74.5 278,-74.5 278,-104.5"/>
<text text-anchor="start" x="176" y="-92.5" font-family="Helvetica,sans-Serif" font-size="10.00">sharp::height_layer</text>
<text text-anchor="middle" x="223" y="-81.5" font-family="Helvetica,sans-Serif" font-size="10.00">_to_pressure</text>
</a>
</g>
</g>
<!-- Node1&#45;&gt;Node2 -->
<g id="edge1" class="edge">
<title>Node1&#45;&gt;Node2</title>
<path fill="none" stroke="#63b8ff" d="M116.66,-61.54C130.02,-65.09 144.36,-68.89 158.02,-72.52"/>
<polygon fill="#63b8ff" stroke="#63b8ff" points="157.26,-75.94 167.82,-75.12 159.06,-69.17 157.26,-75.94"/>
</g>
<!-- Node7 -->
<g id="node7" class="node">
<title>Node7</title>
<g id="a_node7"><a xlink:href="namespacesharp.html#a3c8b9022103d067f30281d68fa81cbda" target="_top" xlink:title="Compute the mean wind over the given sharp::PressureLayer.">
<polygon fill="white" stroke="#666666" points="276,-56 170,-56 170,-37 276,-37 276,-56"/>
<text text-anchor="middle" x="223" y="-44" font-family="Helvetica,sans-Serif" font-size="10.00">sharp::mean_wind</text>
</a>
</g>
</g>
<!-- Node1&#45;&gt;Node7 -->
<g id="edge6" class="edge">
<title>Node1&#45;&gt;Node7</title>
<path fill="none" stroke="#63b8ff" d="M118.03,-46.5C131.48,-46.5 145.86,-46.5 159.5,-46.5"/>
<polygon fill="#63b8ff" stroke="#63b8ff" points="159.76,-50 169.76,-46.5 159.76,-43 159.76,-50"/>
</g>
<!-- Node9 -->
<g id="node9" class="node">
<title>Node9</title>
<g id="a_node9"><a xlink:href="namespacesharp.html#af887f27accb1a1d656a35abec65cab5f" target="_top" xlink:title="Computes the magnitude of a vector given its components.">
<polygon fill="white" stroke="#666666" points="292,-19 154,-19 154,0 292,0 292,-19"/>
<text text-anchor="middle" x="223" y="-7" font-family="Helvetica,sans-Serif" font-size="10.00">sharp::vector_magnitude</text>
</a>
</g>
</g>
<!-- Node1&#45;&gt;Node9 -->
<g id="edge10" class="edge">
<title>Node1&#45;&gt;Node9</title>
<path fill="none" stroke="#63b8ff" d="M118.03,-33.25C135.1,-29.35 153.65,-25.11 170.29,-21.31"/>
<polygon fill="#63b8ff" stroke="#63b8ff" points="171.41,-24.65 180.38,-19.01 169.85,-17.82 171.41,-24.65"/>
</g>
<!-- Node3 -->
<g id="node3" class="node">
<title>Node3</title>
<g id="a_node3"><a xlink:href="namespacesharp.html#af8484e9fe21c025b64ecffde614feb11" target="_top" xlink:title="Linearly interpolate a data field to a requested height level.">
<polygon fill="white" stroke="#666666" points="447.5,-96 333.5,-96 333.5,-77 447.5,-77 447.5,-96"/>
<text text-anchor="middle" x="390.5" y="-84" font-family="Helvetica,sans-Serif" font-size="10.00">sharp::interp_height</text>
</a>
</g>
</g>
<!-- Node2&#45;&gt;Node3 -->
<g id="edge2" class="edge">
<title>Node2&#45;&gt;Node3</title>
<path fill="none" stroke="#63b8ff" d="M278.19,-88.52C292.59,-88.26 308.31,-87.97 323.27,-87.7"/>
<polygon fill="#63b8ff" stroke="#63b8ff" points="323.55,-91.2 333.48,-87.52 323.42,-84.2 323.55,-91.2"/>
</g>
<!-- Node4 -->
<g id="node4" class="node">
<title>Node4</title>
<g id="a_node4"><a xlink:href="namespacesharp.html#a8aa123fbe3b59a7023446b0fe2186c49" target="_top" xlink:title="Linearly interpolates between a and b with distance t.">
<polygon fill="white" stroke="#666666" points="579.5,-96 511.5,-96 511.5,-77 579.5,-77 579.5,-96"/>
<text text-anchor="middle" x="545.5" y="-84" font-family="Helvetica,sans-Serif" font-size="10.00">sharp::lerp</text>
</a>
</g>
</g>
<!-- Node3&#45;&gt;Node4 -->
<g id="edge3" class="edge">
<title>Node3&#45;&gt;Node4</title>
<path fill="none" stroke="#63b8ff" d="M447.6,-86.5C465.09,-86.5 484.12,-86.5 500.64,-86.5"/>
<polygon fill="#63b8ff" stroke="#63b8ff" points="501.1,-90 511.1,-86.5 501.1,-83 501.1,-90"/>
</g>
<!-- Node6 -->
<g id="node6" class="node">
<title>Node6</title>
<g id="a_node6"><a xlink:href="namespacesharp.html#a772686549a5111c1152b778731119aa6" target="_top" xlink:title="Finds the first index that satisfies value &lt; element.">
<polygon fill="white" stroke="#666666" points="602,-59 489,-59 489,-40 602,-40 602,-59"/>
<text text-anchor="middle" x="545.5" y="-47" font-family="Helvetica,sans-Serif" font-size="10.00">sharp::upper_bound</text>
</a>
</g>
</g>
<!-- Node3&#45;&gt;Node6 -->
<g id="edge5" class="edge">
<title>Node3&#45;&gt;Node6</title>
<path fill="none" stroke="#63b8ff" d="M430.9,-76.97C450.46,-72.24 474.28,-66.48 495.05,-61.46"/>
<polygon fill="#63b8ff" stroke="#63b8ff" points="496.07,-64.81 504.97,-59.06 494.42,-58.01 496.07,-64.81"/>
</g>
<!-- Node5 -->
<g id="node5" class="node">
<title>Node5</title>
<g id="a_node5"><a xlink:href="namespacesharp.html#a8848423b96dfe09b90322efd2cc5bd43" target="_top" xlink:title="Linearly interpolates between a and b with distance t.">
<polygon fill="white" stroke="#666666" points="717,-96 638,-96 638,-77 717,-77 717,-96"/>
<text text-anchor="middle" x="677.5" y="-84" font-family="Helvetica,sans-Serif" font-size="10.00">sharp::__lerp</text>
</a>
</g>
</g>
<!-- Node4&#45;&gt;Node5 -->
<g id="edge4" class="edge">
<title>Node4&#45;&gt;Node5</title>
<path fill="none" stroke="#63b8ff" d="M579.64,-86.5C594.2,-86.5 611.6,-86.5 627.61,-86.5"/>
<polygon fill="#63b8ff" stroke="#63b8ff" points="627.88,-90 637.88,-86.5 627.88,-83 627.88,-90"/>
</g>
<!-- Node8 -->
<g id="node8" class="node">
<title>Node8</title>
<g id="a_node8"><a xlink:href="namespacesharp.html#a7ed0899941867073e5062af04fdbd3e7" target="_top" xlink:title="Linearly interpolate a data field to a requested pressure level.">
<polygon fill="white" stroke="#666666" points="453,-59 328,-59 328,-40 453,-40 453,-59"/>
<text text-anchor="middle" x="390.5" y="-47" font-family="Helvetica,sans-Serif" font-size="10.00">sharp::interp_pressure</text>
</a>
</g>
</g>
<!-- Node7&#45;&gt;Node8 -->
<g id="edge7" class="edge">
<title>Node7&#45;&gt;Node8</title>
<path fill="none" stroke="#63b8ff" d="M276.37,-47.45C289.55,-47.69 303.93,-47.95 317.88,-48.2"/>
<polygon fill="#63b8ff" stroke="#63b8ff" points="317.87,-51.7 327.93,-48.38 318,-44.7 317.87,-51.7"/>
</g>
<!-- Node8&#45;&gt;Node4 -->
<g id="edge8" class="edge">
<title>Node8&#45;&gt;Node4</title>
<path fill="none" stroke="#63b8ff" d="M430.9,-59.03C452.55,-64.26 479.44,-70.77 501.62,-76.13"/>
<polygon fill="#63b8ff" stroke="#63b8ff" points="500.9,-79.56 511.44,-78.51 502.54,-72.75 500.9,-79.56"/>
</g>
<!-- Node8&#45;&gt;Node6 -->
<g id="edge9" class="edge">
<title>Node8&#45;&gt;Node6</title>
<path fill="none" stroke="#63b8ff" d="M453.29,-49.5C461.66,-49.5 470.28,-49.5 478.72,-49.5"/>
<polygon fill="#63b8ff" stroke="#63b8ff" points="478.9,-53 488.9,-49.5 478.9,-46 478.9,-53"/>
</g>
</g>
</svg>
