<?xml version="1.0" encoding="UTF-8" standalone="no"?>
<!DOCTYPE svg PUBLIC "-//W3C//DTD SVG 1.1//EN"
 "http://www.w3.org/Graphics/SVG/1.1/DTD/svg11.dtd">
<!-- Generated by graphviz version 2.43.0 (0)
 -->
<!-- Title: sharp::vapor_pressure Pages: 1 -->
<svg width="409pt" height="119pt"
 viewBox="0.00 0.00 409.00 119.00" xmlns="http://www.w3.org/2000/svg" xmlns:xlink="http://www.w3.org/1999/xlink">
<g id="graph0" class="graph" transform="scale(1 1) rotate(0) translate(4 115)">
<title>sharp::vapor_pressure</title>
<!-- Node1 -->
<g id="node1" class="node">
<title>Node1</title>
<g id="a_node1"><a xlink:title="Compute the vapor pressure over liquid water.">
<polygon fill="#999999" stroke="#666666" points="401,-74 276,-74 276,-55 401,-55 401,-74"/>
<text text-anchor="middle" x="338.5" y="-62" font-family="Helvetica,sans-Serif" font-size="10.00">sharp::vapor_pressure</text>
</a>
</g>
</g>
<!-- Node2 -->
<g id="node2" class="node">
<title>Node2</title>
<g id="a_node2"><a xlink:href="namespacesharp.html#ab93abdbe899941fa0ba26ca9fd5fd843" target="_top" xlink:title="Compute the water vapor mixing ratio.">
<polygon fill="white" stroke="#666666" points="223.5,-111 132.5,-111 132.5,-92 223.5,-92 223.5,-111"/>
<text text-anchor="middle" x="178" y="-99" font-family="Helvetica,sans-Serif" font-size="10.00">sharp::mixratio</text>
</a>
</g>
</g>
<!-- Node1&#45;&gt;Node2 -->
<g id="edge1" class="edge">
<title>Node1&#45;&gt;Node2</title>
<path fill="none" stroke="#63b8ff" d="M286.71,-76.36C265.14,-81.39 240.32,-87.18 219.95,-91.94"/>
<polygon fill="#63b8ff" stroke="#63b8ff" points="287.74,-79.71 296.68,-74.03 286.15,-72.89 287.74,-79.71"/>
</g>
<!-- Node3 -->
<g id="node3" class="node">
<title>Node3</title>
<g id="a_node3"><a xlink:href="thermo__wrap_8cpp.html#abbd416cbe5887bd7073a36cc2ac382c5" target="_top" xlink:title=" ">
<polygon fill="white" stroke="#666666" points="240,-74 116,-74 116,-55 240,-55 240,-74"/>
<text text-anchor="middle" x="178" y="-62" font-family="Helvetica,sans-Serif" font-size="10.00">sharp_vapor_pressure</text>
</a>
</g>
</g>
<!-- Node1&#45;&gt;Node3 -->
<g id="edge2" class="edge">
<title>Node1&#45;&gt;Node3</title>
<path fill="none" stroke="#63b8ff" d="M265.76,-64.5C257.17,-64.5 248.46,-64.5 240.04,-64.5"/>
<polygon fill="#63b8ff" stroke="#63b8ff" points="265.77,-68 275.77,-64.5 265.77,-61 265.77,-68"/>
</g>
<!-- Node4 -->
<g id="node4" class="node">
<title>Node4</title>
<g id="a_node4"><a xlink:href="namespacesharp.html#ab06f16aa1caac3136e863db8cd61e2e9" target="_top" xlink:title="Compute the equivalent potential temperature.">
<polygon fill="white" stroke="#666666" points="218.5,-19 137.5,-19 137.5,0 218.5,0 218.5,-19"/>
<text text-anchor="middle" x="178" y="-7" font-family="Helvetica,sans-Serif" font-size="10.00">sharp::thetae</text>
</a>
</g>
</g>
<!-- Node1&#45;&gt;Node4 -->
<g id="edge3" class="edge">
<title>Node1&#45;&gt;Node4</title>
<path fill="none" stroke="#63b8ff" d="M300.21,-51.56C271.51,-41.6 232.48,-28.06 206.56,-19.06"/>
<polygon fill="#63b8ff" stroke="#63b8ff" points="299.3,-54.95 309.89,-54.92 301.59,-48.33 299.3,-54.95"/>
</g>
<!-- Node4&#45;&gt;Node4 -->
<g id="edge5" class="edge">
<title>Node4&#45;&gt;Node4</title>
<path fill="none" stroke="#63b8ff" d="M203.67,-28.19C202.27,-33.2 193.71,-37 178,-37 153.47,-37 146.38,-27.73 156.73,-19.08"/>
<polygon fill="#63b8ff" stroke="#63b8ff" points="206.77,-26.56 199.27,-19.08 200.47,-29.61 206.77,-26.56"/>
</g>
<!-- Node5 -->
<g id="node5" class="node">
<title>Node5</title>
<g id="a_node5"><a xlink:href="thermo__wrap_8cpp.html#a6fa159149e40e0b462647cd423be313f" target="_top" xlink:title=" ">
<polygon fill="white" stroke="#666666" points="80,-19 0,-19 0,0 80,0 80,-19"/>
<text text-anchor="middle" x="40" y="-7" font-family="Helvetica,sans-Serif" font-size="10.00">sharp_thetae</text>
</a>
</g>
</g>
<!-- Node4&#45;&gt;Node5 -->
<g id="edge4" class="edge">
<title>Node4&#45;&gt;Node5</title>
<path fill="none" stroke="#63b8ff" d="M126.86,-9.5C111.41,-9.5 94.63,-9.5 80.05,-9.5"/>
<polygon fill="#63b8ff" stroke="#63b8ff" points="127.3,-13 137.3,-9.5 127.3,-6 127.3,-13"/>
</g>
</g>
</svg>
