<?xml version="1.0" encoding="UTF-8" standalone="no"?>
<!DOCTYPE svg PUBLIC "-//W3C//DTD SVG 1.1//EN"
 "http://www.w3.org/Graphics/SVG/1.1/DTD/svg11.dtd">
<!-- Generated by graphviz version 2.43.0 (0)
 -->
<!-- Title: sharp::lcl_temperature Pages: 1 -->
<svg width="777pt" height="234pt"
 viewBox="0.00 0.00 777.00 233.50" xmlns="http://www.w3.org/2000/svg" xmlns:xlink="http://www.w3.org/1999/xlink">
<g id="graph0" class="graph" transform="scale(1 1) rotate(0) translate(4 229.5)">
<title>sharp::lcl_temperature</title>
<!-- Node1 -->
<g id="node1" class="node">
<title>Node1</title>
<g id="a_node1"><a xlink:title="Compute the temperature of the LCL.">
<polygon fill="#999999" stroke="#666666" points="769,-92 642,-92 642,-73 769,-73 769,-92"/>
<text text-anchor="middle" x="705.5" y="-80" font-family="Helvetica,sans-Serif" font-size="10.00">sharp::lcl_temperature</text>
</a>
</g>
</g>
<!-- Node2 -->
<g id="node2" class="node">
<title>Node2</title>
<g id="a_node2"><a xlink:href="namespacesharp.html#ae4385866921cd7286946d9ffdd65c25e" target="_top" xlink:title="Lift a parcel dry adiabatically to its Lifted Condensation Level (LCL).">
<polygon fill="white" stroke="#666666" points="582,-111 504,-111 504,-92 582,-92 582,-111"/>
<text text-anchor="middle" x="543" y="-99" font-family="Helvetica,sans-Serif" font-size="10.00">sharp::drylift</text>
</a>
</g>
</g>
<!-- Node1&#45;&gt;Node2 -->
<g id="edge1" class="edge">
<title>Node1&#45;&gt;Node2</title>
<path fill="none" stroke="#63b8ff" d="M631.92,-91.09C614.69,-93.13 596.98,-95.23 582.01,-97"/>
<polygon fill="#63b8ff" stroke="#63b8ff" points="632.47,-94.55 641.99,-89.9 631.64,-87.6 632.47,-94.55"/>
</g>
<!-- Node14 -->
<g id="node14" class="node">
<title>Node14</title>
<g id="a_node14"><a xlink:href="thermo__wrap_8cpp.html#a29f0ebbfa05234df9f1e41b75c02688f" target="_top" xlink:title=" ">
<polygon fill="white" stroke="#666666" points="606,-74 480,-74 480,-55 606,-55 606,-74"/>
<text text-anchor="middle" x="543" y="-62" font-family="Helvetica,sans-Serif" font-size="10.00">sharp_lcl_temperature</text>
</a>
</g>
</g>
<!-- Node1&#45;&gt;Node14 -->
<g id="edge14" class="edge">
<title>Node1&#45;&gt;Node14</title>
<path fill="none" stroke="#63b8ff" d="M631.93,-74.36C623.3,-73.39 614.55,-72.41 606.08,-71.46"/>
<polygon fill="#63b8ff" stroke="#63b8ff" points="631.66,-77.85 641.99,-75.49 632.44,-70.9 631.66,-77.85"/>
</g>
<!-- Node3 -->
<g id="node3" class="node">
<title>Node3</title>
<g id="a_node3"><a xlink:href="structsharp_1_1Parcel.html#a9523de2b8b4c28ca49fba3013f94cb06" target="_top" xlink:title="Lifts a sharp::Parcel to compute its virtual temperature.">
<polygon fill="white" stroke="#666666" points="433.5,-196.5 335.5,-196.5 335.5,-166.5 433.5,-166.5 433.5,-196.5"/>
<text text-anchor="start" x="343.5" y="-184.5" font-family="Helvetica,sans-Serif" font-size="10.00">sharp::Parcel::lift</text>
<text text-anchor="middle" x="384.5" y="-173.5" font-family="Helvetica,sans-Serif" font-size="10.00">_parcel</text>
</a>
</g>
</g>
<!-- Node2&#45;&gt;Node3 -->
<g id="edge2" class="edge">
<title>Node2&#45;&gt;Node3</title>
<path fill="none" stroke="#63b8ff" d="M518.16,-116.29C498.6,-128.13 469.99,-144.81 444,-157.5 437.69,-160.58 430.87,-163.62 424.21,-166.45"/>
<polygon fill="#63b8ff" stroke="#63b8ff" points="520.01,-119.26 526.72,-111.06 516.36,-113.28 520.01,-119.26"/>
</g>
<!-- Node7 -->
<g id="node7" class="node">
<title>Node7</title>
<g id="a_node7"><a xlink:href="thermo__wrap_8cpp.html#a977ee5735b66a0a0b9d74f3325a0041e" target="_top" xlink:title=" ">
<polygon fill="white" stroke="#666666" points="423,-148 346,-148 346,-129 423,-129 423,-148"/>
<text text-anchor="middle" x="384.5" y="-136" font-family="Helvetica,sans-Serif" font-size="10.00">sharp_drylift</text>
</a>
</g>
</g>
<!-- Node2&#45;&gt;Node7 -->
<g id="edge6" class="edge">
<title>Node2&#45;&gt;Node7</title>
<path fill="none" stroke="#63b8ff" d="M493.91,-112.87C471.15,-118.25 444.37,-124.58 423.12,-129.61"/>
<polygon fill="#63b8ff" stroke="#63b8ff" points="494.79,-116.26 503.72,-110.55 493.18,-109.45 494.79,-116.26"/>
</g>
<!-- Node8 -->
<g id="node8" class="node">
<title>Node8</title>
<g id="a_node8"><a xlink:href="namespacesharp.html#a5e3156aa7f5bafbd908184c7f51927ee" target="_top" xlink:title="Compute the wetbulb potential temperature.">
<polygon fill="white" stroke="#666666" points="444,-111 325,-111 325,-92 444,-92 444,-111"/>
<text text-anchor="middle" x="384.5" y="-99" font-family="Helvetica,sans-Serif" font-size="10.00">sharp::theta_wetbulb</text>
</a>
</g>
</g>
<!-- Node2&#45;&gt;Node8 -->
<g id="edge7" class="edge">
<title>Node2&#45;&gt;Node8</title>
<path fill="none" stroke="#63b8ff" d="M493.27,-101.5C477.71,-101.5 460.32,-101.5 444.13,-101.5"/>
<polygon fill="#63b8ff" stroke="#63b8ff" points="493.72,-105 503.72,-101.5 493.72,-98 493.72,-105"/>
</g>
<!-- Node10 -->
<g id="node10" class="node">
<title>Node10</title>
<g id="a_node10"><a xlink:href="namespacesharp.html#ab06f16aa1caac3136e863db8cd61e2e9" target="_top" xlink:title="Compute the equivalent potential temperature.">
<polygon fill="white" stroke="#666666" points="425,-56 344,-56 344,-37 425,-37 425,-56"/>
<text text-anchor="middle" x="384.5" y="-44" font-family="Helvetica,sans-Serif" font-size="10.00">sharp::thetae</text>
</a>
</g>
</g>
<!-- Node2&#45;&gt;Node10 -->
<g id="edge9" class="edge">
<title>Node2&#45;&gt;Node10</title>
<path fill="none" stroke="#63b8ff" d="M499.79,-88.98C493.14,-86.89 486.37,-84.69 480,-82.5 455.76,-74.18 428.43,-63.64 409.42,-56.12"/>
<polygon fill="#63b8ff" stroke="#63b8ff" points="498.78,-92.33 509.37,-91.95 500.85,-85.64 498.78,-92.33"/>
</g>
<!-- Node12 -->
<g id="node12" class="node">
<title>Node12</title>
<g id="a_node12"><a xlink:href="namespacesharp.html#accda9c75278f1a32978bbfd662492822" target="_top" xlink:title="Compute the wetbulb temperature.">
<polygon fill="white" stroke="#666666" points="429,-19 340,-19 340,0 429,0 429,-19"/>
<text text-anchor="middle" x="384.5" y="-7" font-family="Helvetica,sans-Serif" font-size="10.00">sharp::wetbulb</text>
</a>
</g>
</g>
<!-- Node2&#45;&gt;Node12 -->
<g id="edge12" class="edge">
<title>Node2&#45;&gt;Node12</title>
<path fill="none" stroke="#63b8ff" d="M494.52,-90.79C489.35,-88.53 484.39,-85.8 480,-82.5 456.64,-64.95 467.35,-45.06 444,-27.5 439.5,-24.11 434.35,-21.36 429.03,-19.12"/>
<polygon fill="#63b8ff" stroke="#63b8ff" points="493.35,-94.09 503.94,-94.37 495.84,-87.54 493.35,-94.09"/>
</g>
<!-- Node4 -->
<g id="node4" class="node">
<title>Node4</title>
<g id="a_node4"><a xlink:href="namespacesharp.html#a2e6b7cd4a3594a8f2c2050b0e4784cce" target="_top" xlink:title="Computes the Effective Inflow Layer for a given atmospheric sounding.">
<polygon fill="white" stroke="#666666" points="289,-225.5 162,-225.5 162,-195.5 289,-195.5 289,-225.5"/>
<text text-anchor="start" x="170" y="-213.5" font-family="Helvetica,sans-Serif" font-size="10.00">sharp::effective_inflow</text>
<text text-anchor="middle" x="225.5" y="-202.5" font-family="Helvetica,sans-Serif" font-size="10.00">_layer</text>
</a>
</g>
</g>
<!-- Node3&#45;&gt;Node4 -->
<g id="edge3" class="edge">
<title>Node3&#45;&gt;Node4</title>
<path fill="none" stroke="#63b8ff" d="M325.03,-192.3C313.35,-194.46 301.02,-196.73 289.2,-198.92"/>
<polygon fill="#63b8ff" stroke="#63b8ff" points="325.92,-195.7 335.11,-190.44 324.64,-188.81 325.92,-195.7"/>
</g>
<!-- Node6 -->
<g id="node6" class="node">
<title>Node6</title>
<g id="a_node6"><a xlink:href="structsharp_1_1Parcel.html#aa258d27992d22d8b80cb221e6e2a6c19" target="_top" xlink:title="Construct and return a most&#45;unstable Parcel.">
<polygon fill="white" stroke="#666666" points="280.5,-177.5 170.5,-177.5 170.5,-147.5 280.5,-147.5 280.5,-177.5"/>
<text text-anchor="start" x="178.5" y="-165.5" font-family="Helvetica,sans-Serif" font-size="10.00">sharp::Parcel::most</text>
<text text-anchor="middle" x="225.5" y="-154.5" font-family="Helvetica,sans-Serif" font-size="10.00">_unstable_parcel</text>
</a>
</g>
</g>
<!-- Node3&#45;&gt;Node6 -->
<g id="edge5" class="edge">
<title>Node3&#45;&gt;Node6</title>
<path fill="none" stroke="#63b8ff" d="M324.8,-174.4C310.36,-172.65 294.97,-170.79 280.75,-169.07"/>
<polygon fill="#63b8ff" stroke="#63b8ff" points="324.77,-177.92 335.11,-175.64 325.61,-170.97 324.77,-177.92"/>
</g>
<!-- Node5 -->
<g id="node5" class="node">
<title>Node5</title>
<g id="a_node5"><a xlink:href="convective__wrap_8cpp.html#af214bab6c6ba14dc06fe7df4f6abcdf8" target="_top" xlink:title=" ">
<polygon fill="white" stroke="#666666" points="126,-225.5 0,-225.5 0,-195.5 126,-195.5 126,-225.5"/>
<text text-anchor="start" x="8" y="-213.5" font-family="Helvetica,sans-Serif" font-size="10.00">sharp_effective_inflow</text>
<text text-anchor="middle" x="63" y="-202.5" font-family="Helvetica,sans-Serif" font-size="10.00">_layer</text>
</a>
</g>
</g>
<!-- Node4&#45;&gt;Node5 -->
<g id="edge4" class="edge">
<title>Node4&#45;&gt;Node5</title>
<path fill="none" stroke="#63b8ff" d="M151.93,-210.5C143.3,-210.5 134.55,-210.5 126.08,-210.5"/>
<polygon fill="#63b8ff" stroke="#63b8ff" points="151.99,-214 161.99,-210.5 151.99,-207 151.99,-214"/>
</g>
<!-- Node9 -->
<g id="node9" class="node">
<title>Node9</title>
<g id="a_node9"><a xlink:href="thermo__wrap_8cpp.html#adfde578d6548e8bbf3d24159d2e6f0bc" target="_top" xlink:title=" ">
<polygon fill="white" stroke="#666666" points="285,-111 166,-111 166,-92 285,-92 285,-111"/>
<text text-anchor="middle" x="225.5" y="-99" font-family="Helvetica,sans-Serif" font-size="10.00">sharp_theta_wetbulb</text>
</a>
</g>
</g>
<!-- Node8&#45;&gt;Node9 -->
<g id="edge8" class="edge">
<title>Node8&#45;&gt;Node9</title>
<path fill="none" stroke="#63b8ff" d="M314.51,-101.5C304.74,-101.5 294.77,-101.5 285.22,-101.5"/>
<polygon fill="#63b8ff" stroke="#63b8ff" points="314.59,-105 324.59,-101.5 314.59,-98 314.59,-105"/>
</g>
<!-- Node10&#45;&gt;Node10 -->
<g id="edge11" class="edge">
<title>Node10&#45;&gt;Node10</title>
<path fill="none" stroke="#63b8ff" d="M413.99,-64.82C412.76,-70.01 402.93,-74 384.5,-74 356.42,-74 348.3,-64.73 360.15,-56.08"/>
<polygon fill="#63b8ff" stroke="#63b8ff" points="416.94,-62.93 408.85,-56.08 410.91,-66.48 416.94,-62.93"/>
</g>
<!-- Node11 -->
<g id="node11" class="node">
<title>Node11</title>
<g id="a_node11"><a xlink:href="thermo__wrap_8cpp.html#a6fa159149e40e0b462647cd423be313f" target="_top" xlink:title=" ">
<polygon fill="white" stroke="#666666" points="265.5,-56 185.5,-56 185.5,-37 265.5,-37 265.5,-56"/>
<text text-anchor="middle" x="225.5" y="-44" font-family="Helvetica,sans-Serif" font-size="10.00">sharp_thetae</text>
</a>
</g>
</g>
<!-- Node10&#45;&gt;Node11 -->
<g id="edge10" class="edge">
<title>Node10&#45;&gt;Node11</title>
<path fill="none" stroke="#63b8ff" d="M333.72,-46.5C311.69,-46.5 286.18,-46.5 265.56,-46.5"/>
<polygon fill="#63b8ff" stroke="#63b8ff" points="333.88,-50 343.88,-46.5 333.88,-43 333.88,-50"/>
</g>
<!-- Node13 -->
<g id="node13" class="node">
<title>Node13</title>
<g id="a_node13"><a xlink:href="thermo__wrap_8cpp.html#a3d62d7747127fc25886aed2e9db56cae" target="_top" xlink:title=" ">
<polygon fill="white" stroke="#666666" points="269.5,-19 181.5,-19 181.5,0 269.5,0 269.5,-19"/>
<text text-anchor="middle" x="225.5" y="-7" font-family="Helvetica,sans-Serif" font-size="10.00">sharp_wetbulb</text>
</a>
</g>
</g>
<!-- Node12&#45;&gt;Node13 -->
<g id="edge13" class="edge">
<title>Node12&#45;&gt;Node13</title>
<path fill="none" stroke="#63b8ff" d="M329.76,-9.5C310.17,-9.5 288.29,-9.5 269.73,-9.5"/>
<polygon fill="#63b8ff" stroke="#63b8ff" points="329.77,-13 339.77,-9.5 329.77,-6 329.77,-13"/>
</g>
</g>
</svg>
