<?xml version="1.0" encoding="UTF-8" standalone="no"?>
<!DOCTYPE svg PUBLIC "-//W3C//DTD SVG 1.1//EN"
 "http://www.w3.org/Graphics/SVG/1.1/DTD/svg11.dtd">
<!-- Generated by graphviz version 2.43.0 (0)
 -->
<!-- Title: sharp::upper_bound Pages: 1 -->
<svg width="793pt" height="733pt"
 viewBox="0.00 0.00 793.00 733.27" xmlns="http://www.w3.org/2000/svg" xmlns:xlink="http://www.w3.org/1999/xlink">
<g id="graph0" class="graph" transform="scale(1 1) rotate(0) translate(4 729.27)">
<title>sharp::upper_bound</title>
<!-- Node1 -->
<g id="node1" class="node">
<title>Node1</title>
<g id="a_node1"><a xlink:title="Finds the first index that satisfies value &lt; element.">
<polygon fill="#999999" stroke="#666666" points="785,-404.97 672,-404.97 672,-385.97 785,-385.97 785,-404.97"/>
<text text-anchor="middle" x="728.5" y="-392.97" font-family="Helvetica,sans-Serif" font-size="10.00">sharp::upper_bound</text>
</a>
</g>
</g>
<!-- Node2 -->
<g id="node2" class="node">
<title>Node2</title>
<g id="a_node2"><a xlink:href="namespacesharp.html#ac93f477dfa774c966b5da7521bd43ee6" target="_top" xlink:title="Returns the array indices corresponding to the given layer.">
<polygon fill="white" stroke="#666666" points="636,-565.97 508,-565.97 508,-546.97 636,-546.97 636,-565.97"/>
<text text-anchor="middle" x="572" y="-553.97" font-family="Helvetica,sans-Serif" font-size="10.00">sharp::get_layer_index</text>
</a>
</g>
</g>
<!-- Node1&#45;&gt;Node2 -->
<g id="edge1" class="edge">
<title>Node1&#45;&gt;Node2</title>
<path fill="none" stroke="#63b8ff" d="M711.35,-412.29C679.16,-445.84 607.91,-520.09 582.35,-546.73"/>
<polygon fill="#63b8ff" stroke="#63b8ff" points="713.9,-414.7 718.3,-405.06 708.85,-409.85 713.9,-414.7"/>
</g>
<!-- Node18 -->
<g id="node18" class="node">
<title>Node18</title>
<g id="a_node18"><a xlink:href="namespacesharp.html#ae8240f026498ad2775633a8d0dcf100d" target="_top" xlink:title="Linearly interpolate a data field to a requested height level.">
<polygon fill="white" stroke="#666666" points="629,-190.97 515,-190.97 515,-171.97 629,-171.97 629,-190.97"/>
<text text-anchor="middle" x="572" y="-178.97" font-family="Helvetica,sans-Serif" font-size="10.00">sharp::interp_height</text>
</a>
</g>
</g>
<!-- Node1&#45;&gt;Node18 -->
<g id="edge23" class="edge">
<title>Node1&#45;&gt;Node18</title>
<path fill="none" stroke="#63b8ff" d="M714.53,-377.51C683.2,-334.11 604.17,-224.65 580.08,-191.28"/>
<polygon fill="#63b8ff" stroke="#63b8ff" points="711.77,-379.66 720.46,-385.72 717.44,-375.56 711.77,-379.66"/>
</g>
<!-- Node27 -->
<g id="node27" class="node">
<title>Node27</title>
<g id="a_node27"><a xlink:href="namespacesharp.html#a55e4f8ee4ff8a4a30d7b3f3d92a41c75" target="_top" xlink:title="Linearly interpolate a data field to a requested pressure level.">
<polygon fill="white" stroke="#666666" points="634.5,-404.97 509.5,-404.97 509.5,-385.97 634.5,-385.97 634.5,-404.97"/>
<text text-anchor="middle" x="572" y="-392.97" font-family="Helvetica,sans-Serif" font-size="10.00">sharp::interp_pressure</text>
</a>
</g>
</g>
<!-- Node1&#45;&gt;Node27 -->
<g id="edge38" class="edge">
<title>Node1&#45;&gt;Node27</title>
<path fill="none" stroke="#63b8ff" d="M661.43,-395.47C652.57,-395.47 643.5,-395.47 634.71,-395.47"/>
<polygon fill="#63b8ff" stroke="#63b8ff" points="661.72,-398.97 671.72,-395.47 661.72,-391.97 661.72,-398.97"/>
</g>
<!-- Node3 -->
<g id="node3" class="node">
<title>Node3</title>
<g id="a_node3"><a xlink:href="namespacesharp.html#a72bbdc4cfe7895dd51981902ac9fc822" target="_top" xlink:title="Computes Entrainment CAPE using a previously lifted parcel.">
<polygon fill="white" stroke="#666666" points="138,-371.97 0,-371.97 0,-352.97 138,-352.97 138,-371.97"/>
<text text-anchor="middle" x="69" y="-359.97" font-family="Helvetica,sans-Serif" font-size="10.00">sharp::entrainment_cape</text>
</a>
</g>
</g>
<!-- Node2&#45;&gt;Node3 -->
<g id="edge2" class="edge">
<title>Node2&#45;&gt;Node3</title>
<path fill="none" stroke="#63b8ff" d="M532.27,-569.02C444.25,-596.52 232.23,-656.61 174,-617.47 173.82,-617.35 92.91,-418.7 73.94,-372.15"/>
<polygon fill="#63b8ff" stroke="#63b8ff" points="533.4,-572.33 541.88,-565.99 531.29,-565.66 533.4,-572.33"/>
</g>
<!-- Node4 -->
<g id="node4" class="node">
<title>Node4</title>
<g id="a_node4"><a xlink:href="structsharp_1_1Parcel.html#a8a311e09b1d46a829212da94cf181537" target="_top" xlink:title="Find the LFC and EL that bounds the layer with the maximum CAPE.">
<polygon fill="white" stroke="#666666" points="459.5,-571.47 356.5,-571.47 356.5,-541.47 459.5,-541.47 459.5,-571.47"/>
<text text-anchor="start" x="364.5" y="-559.47" font-family="Helvetica,sans-Serif" font-size="10.00">sharp::Parcel::find</text>
<text text-anchor="middle" x="408" y="-548.47" font-family="Helvetica,sans-Serif" font-size="10.00">_lfc_el</text>
</a>
</g>
</g>
<!-- Node2&#45;&gt;Node4 -->
<g id="edge3" class="edge">
<title>Node2&#45;&gt;Node4</title>
<path fill="none" stroke="#63b8ff" d="M497.68,-556.47C484.83,-556.47 471.72,-556.47 459.65,-556.47"/>
<polygon fill="#63b8ff" stroke="#63b8ff" points="497.9,-559.97 507.9,-556.47 497.9,-552.97 497.9,-559.97"/>
</g>
<!-- Node7 -->
<g id="node7" class="node">
<title>Node7</title>
<g id="a_node7"><a xlink:href="structsharp_1_1Parcel.html#aa258d27992d22d8b80cb221e6e2a6c19" target="_top" xlink:title="Construct and return a most&#45;unstable Parcel.">
<polygon fill="white" stroke="#666666" points="124,-694.47 14,-694.47 14,-664.47 124,-664.47 124,-694.47"/>
<text text-anchor="start" x="22" y="-682.47" font-family="Helvetica,sans-Serif" font-size="10.00">sharp::Parcel::most</text>
<text text-anchor="middle" x="69" y="-671.47" font-family="Helvetica,sans-Serif" font-size="10.00">_unstable_parcel</text>
</a>
</g>
</g>
<!-- Node2&#45;&gt;Node7 -->
<g id="edge22" class="edge">
<title>Node2&#45;&gt;Node7</title>
<path fill="none" stroke="#63b8ff" d="M562.89,-575.69C549.12,-605.65 518.09,-662.73 472,-688.47 357.26,-752.54 193.89,-717.51 115.46,-694.49"/>
<polygon fill="#63b8ff" stroke="#63b8ff" points="566.2,-576.88 567.04,-566.32 559.79,-574.04 566.2,-576.88"/>
</g>
<!-- Node8 -->
<g id="node8" class="node">
<title>Node8</title>
<g id="a_node8"><a xlink:href="namespacesharp.html#ac2f381378ac4ec13ad83d2ec92b2abcc" target="_top" xlink:title="Finds the array indices corresponding to the given sharp::PressureLayer.">
<polygon fill="white" stroke="#666666" points="472,-652.97 344,-652.97 344,-633.97 472,-633.97 472,-652.97"/>
<text text-anchor="middle" x="408" y="-640.97" font-family="Helvetica,sans-Serif" font-size="10.00">sharp::get_layer_index</text>
</a>
</g>
</g>
<!-- Node2&#45;&gt;Node8 -->
<g id="edge7" class="edge">
<title>Node2&#45;&gt;Node8</title>
<path fill="none" stroke="#63b8ff" d="M549.53,-571.93C529.97,-585.58 499.95,-605.44 472,-619.47 461.12,-624.93 448.68,-629.92 437.75,-633.91"/>
<polygon fill="#63b8ff" stroke="#63b8ff" points="551.59,-574.77 557.74,-566.14 547.55,-569.05 551.59,-574.77"/>
</g>
<!-- Node9 -->
<g id="node9" class="node">
<title>Node9</title>
<g id="a_node9"><a xlink:href="namespacesharp.html#a80858337a63be77bafadbb343d6e4931" target="_top" xlink:title="Computes the Storm Relative Helicity (SRH) over a given layer.">
<polygon fill="white" stroke="#666666" points="451,-522.97 365,-522.97 365,-503.97 451,-503.97 451,-522.97"/>
<text text-anchor="middle" x="408" y="-510.97" font-family="Helvetica,sans-Serif" font-size="10.00">sharp::helicity</text>
</a>
</g>
</g>
<!-- Node2&#45;&gt;Node9 -->
<g id="edge8" class="edge">
<title>Node2&#45;&gt;Node9</title>
<path fill="none" stroke="#63b8ff" d="M525.24,-544.32C499.77,-537.56 468.53,-529.27 444.85,-522.98"/>
<polygon fill="#63b8ff" stroke="#63b8ff" points="524.48,-547.74 535.05,-546.93 526.28,-540.98 524.48,-547.74"/>
</g>
<!-- Node11 -->
<g id="node11" class="node">
<title>Node11</title>
<g id="a_node11"><a xlink:href="namespacesharp.html#a7acec1642f27591dc988bf9e48b4612d" target="_top" xlink:title="Returns a trapezoidal integration of the given layer.">
<polygon fill="white" stroke="#666666" points="470,-410.47 346,-410.47 346,-380.47 470,-380.47 470,-410.47"/>
<text text-anchor="start" x="354" y="-398.47" font-family="Helvetica,sans-Serif" font-size="10.00">sharp::integrate_layer</text>
<text text-anchor="middle" x="408" y="-387.47" font-family="Helvetica,sans-Serif" font-size="10.00">_trapz</text>
</a>
</g>
</g>
<!-- Node2&#45;&gt;Node11 -->
<g id="edge10" class="edge">
<title>Node2&#45;&gt;Node11</title>
<path fill="none" stroke="#63b8ff" d="M554.13,-539.7C522.48,-508.24 454.64,-440.83 424.26,-410.64"/>
<polygon fill="#63b8ff" stroke="#63b8ff" points="551.79,-542.31 561.35,-546.88 556.73,-537.35 551.79,-542.31"/>
</g>
<!-- Node14 -->
<g id="node14" class="node">
<title>Node14</title>
<g id="a_node14"><a xlink:href="namespacesharp.html#a646b65095b84511b75f6a4a81e545e80" target="_top" xlink:title="Template for min/max value over sharp::PressureLayer or sharp::HeightLayer.">
<polygon fill="white" stroke="#666666" points="468,-485.97 348,-485.97 348,-466.97 468,-466.97 468,-485.97"/>
<text text-anchor="middle" x="408" y="-473.97" font-family="Helvetica,sans-Serif" font-size="10.00">sharp::layer_minmax</text>
</a>
</g>
</g>
<!-- Node2&#45;&gt;Node14 -->
<g id="edge16" class="edge">
<title>Node2&#45;&gt;Node14</title>
<path fill="none" stroke="#63b8ff" d="M549.42,-540.89C529.95,-527.4 500.13,-508.12 472,-495.47 463.98,-491.86 455.08,-488.7 446.56,-486.05"/>
<polygon fill="#63b8ff" stroke="#63b8ff" points="547.65,-543.92 557.85,-546.81 551.68,-538.2 547.65,-543.92"/>
</g>
<!-- Node17 -->
<g id="node17" class="node">
<title>Node17</title>
<g id="a_node17"><a xlink:href="structsharp_1_1Parcel.html#a9523de2b8b4c28ca49fba3013f94cb06" target="_top" xlink:title="Lifts a sharp::Parcel to compute its virtual temperature.">
<polygon fill="white" stroke="#666666" points="290,-694.47 192,-694.47 192,-664.47 290,-664.47 290,-694.47"/>
<text text-anchor="start" x="200" y="-682.47" font-family="Helvetica,sans-Serif" font-size="10.00">sharp::Parcel::lift</text>
<text text-anchor="middle" x="241" y="-671.47" font-family="Helvetica,sans-Serif" font-size="10.00">_parcel</text>
</a>
</g>
</g>
<!-- Node2&#45;&gt;Node17 -->
<g id="edge19" class="edge">
<title>Node2&#45;&gt;Node17</title>
<path fill="none" stroke="#63b8ff" d="M560.14,-574.83C544.3,-599.7 512.3,-643.17 472,-662.47 414.22,-690.14 338.82,-689.86 290.4,-685.76"/>
<polygon fill="#63b8ff" stroke="#63b8ff" points="563.31,-576.37 565.58,-566.02 557.35,-572.69 563.31,-576.37"/>
</g>
<!-- Node5 -->
<g id="node5" class="node">
<title>Node5</title>
<g id="a_node5"><a xlink:href="structsharp_1_1Parcel.html#a0560bd193b2d2d6bc6b08baa7463fba4" target="_top" xlink:title="Compute CAPE and CINH for a previously lifted sharp::Parcel.">
<polygon fill="white" stroke="#666666" points="308,-485.97 174,-485.97 174,-466.97 308,-466.97 308,-485.97"/>
<text text-anchor="middle" x="241" y="-473.97" font-family="Helvetica,sans-Serif" font-size="10.00">sharp::Parcel::cape_cinh</text>
</a>
</g>
</g>
<!-- Node4&#45;&gt;Node5 -->
<g id="edge4" class="edge">
<title>Node4&#45;&gt;Node5</title>
<path fill="none" stroke="#63b8ff" d="M351.46,-536.93C348.89,-535.52 346.38,-534.04 344,-532.47 324.83,-519.87 327.68,-507.26 308,-495.47 301.56,-491.61 294.29,-488.5 286.99,-486"/>
<polygon fill="#63b8ff" stroke="#63b8ff" points="349.92,-540.07 360.43,-541.41 353.05,-533.81 349.92,-540.07"/>
</g>
<!-- Node6 -->
<g id="node6" class="node">
<title>Node6</title>
<g id="a_node6"><a xlink:href="namespacesharp.html#a2e6b7cd4a3594a8f2c2050b0e4784cce" target="_top" xlink:title="Computes the Effective Inflow Layer for a given atmospheric sounding.">
<polygon fill="white" stroke="#666666" points="132.5,-568.47 5.5,-568.47 5.5,-538.47 132.5,-538.47 132.5,-568.47"/>
<text text-anchor="start" x="13.5" y="-556.47" font-family="Helvetica,sans-Serif" font-size="10.00">sharp::effective_inflow</text>
<text text-anchor="middle" x="69" y="-545.47" font-family="Helvetica,sans-Serif" font-size="10.00">_layer</text>
</a>
</g>
</g>
<!-- Node5&#45;&gt;Node6 -->
<g id="edge5" class="edge">
<title>Node5&#45;&gt;Node6</title>
<path fill="none" stroke="#63b8ff" d="M191.25,-489.13C185.37,-491.06 179.5,-493.18 174,-495.47 145.18,-507.47 114.18,-525.49 93.59,-538.26"/>
<polygon fill="#63b8ff" stroke="#63b8ff" points="192.59,-492.38 201.1,-486.07 190.51,-485.69 192.59,-492.38"/>
</g>
<!-- Node5&#45;&gt;Node7 -->
<g id="edge6" class="edge">
<title>Node5&#45;&gt;Node7</title>
<path fill="none" stroke="#63b8ff" d="M179.69,-491.15C177.69,-492.47 175.79,-493.91 174,-495.47 144.04,-521.67 157.11,-542.55 138,-577.47 120.32,-609.77 95.48,-644.99 81.23,-664.44"/>
<polygon fill="#63b8ff" stroke="#63b8ff" points="181.85,-493.96 188.95,-486.1 178.5,-487.82 181.85,-493.96"/>
</g>
<!-- Node10 -->
<g id="node10" class="node">
<title>Node10</title>
<g id="a_node10"><a xlink:href="namespacesharp.html#ab89a7e3555a52f0fd9f4086d5aba7037" target="_top" xlink:title=" ">
<polygon fill="white" stroke="#666666" points="303.5,-608.47 178.5,-608.47 178.5,-578.47 303.5,-578.47 303.5,-608.47"/>
<text text-anchor="start" x="186.5" y="-596.47" font-family="Helvetica,sans-Serif" font-size="10.00">sharp::energy_helicity</text>
<text text-anchor="middle" x="241" y="-585.47" font-family="Helvetica,sans-Serif" font-size="10.00">_index</text>
</a>
</g>
</g>
<!-- Node9&#45;&gt;Node10 -->
<g id="edge9" class="edge">
<title>Node9&#45;&gt;Node10</title>
<path fill="none" stroke="#63b8ff" d="M355.36,-526.64C351.4,-528.36 347.57,-530.3 344,-532.47 324.39,-544.38 327.27,-557.01 308,-569.47 302.78,-572.84 297.02,-575.83 291.14,-578.44"/>
<polygon fill="#63b8ff" stroke="#63b8ff" points="356.68,-529.88 364.72,-522.98 354.13,-523.36 356.68,-529.88"/>
</g>
<!-- Node11&#45;&gt;Node3 -->
<g id="edge12" class="edge">
<title>Node11&#45;&gt;Node3</title>
<path fill="none" stroke="#63b8ff" d="M335.77,-393.42C289.53,-391.54 228.05,-388 174,-381.47 154.69,-379.13 133.53,-375.47 115.38,-371.99"/>
<polygon fill="#63b8ff" stroke="#63b8ff" points="335.86,-396.92 345.99,-393.82 336.13,-389.93 335.86,-396.92"/>
</g>
<!-- Node11&#45;&gt;Node5 -->
<g id="edge11" class="edge">
<title>Node11&#45;&gt;Node5</title>
<path fill="none" stroke="#63b8ff" d="M367.3,-414.96C333.91,-431.35 287.57,-454.1 261.62,-466.84"/>
<polygon fill="#63b8ff" stroke="#63b8ff" points="368.92,-418.06 376.35,-410.51 365.83,-411.78 368.92,-418.06"/>
</g>
<!-- Node12 -->
<g id="node12" class="node">
<title>Node12</title>
<g id="a_node12"><a xlink:href="namespacesharp.html#a298e2c96c389f2c5177d3626c908927e" target="_top" xlink:title="Computes the mass&#45;weighted mean value of a field over a given pressure layer.">
<polygon fill="white" stroke="#666666" points="294.5,-371.97 187.5,-371.97 187.5,-352.97 294.5,-352.97 294.5,-371.97"/>
<text text-anchor="middle" x="241" y="-359.97" font-family="Helvetica,sans-Serif" font-size="10.00">sharp::layer_mean</text>
</a>
</g>
</g>
<!-- Node11&#45;&gt;Node12 -->
<g id="edge13" class="edge">
<title>Node11&#45;&gt;Node12</title>
<path fill="none" stroke="#63b8ff" d="M335.46,-381.16C319.94,-378.06 303.89,-374.85 289.57,-371.98"/>
<polygon fill="#63b8ff" stroke="#63b8ff" points="335.07,-384.65 345.56,-383.18 336.44,-377.79 335.07,-384.65"/>
</g>
<!-- Node12&#45;&gt;Node3 -->
<g id="edge14" class="edge">
<title>Node12&#45;&gt;Node3</title>
<path fill="none" stroke="#63b8ff" d="M177.14,-362.47C164.44,-362.47 151.04,-362.47 138.17,-362.47"/>
<polygon fill="#63b8ff" stroke="#63b8ff" points="177.14,-365.97 187.14,-362.47 177.14,-358.97 177.14,-365.97"/>
</g>
<!-- Node13 -->
<g id="node13" class="node">
<title>Node13</title>
<g id="a_node13"><a xlink:href="structsharp_1_1Parcel.html#a1bf670e79f35a1ce8c904b7ead32ccbe" target="_top" xlink:title="Construct and return a mixed&#45;layer Parcel.">
<polygon fill="white" stroke="#666666" points="126.5,-99.47 11.5,-99.47 11.5,-69.47 126.5,-69.47 126.5,-99.47"/>
<text text-anchor="start" x="19.5" y="-87.47" font-family="Helvetica,sans-Serif" font-size="10.00">sharp::Parcel::mixed</text>
<text text-anchor="middle" x="69" y="-76.47" font-family="Helvetica,sans-Serif" font-size="10.00">_layer_parcel</text>
</a>
</g>
</g>
<!-- Node12&#45;&gt;Node13 -->
<g id="edge15" class="edge">
<title>Node12&#45;&gt;Node13</title>
<path fill="none" stroke="#63b8ff" d="M226.05,-344.84C211.8,-326.29 189.61,-295.91 174,-267.47 154.07,-231.14 158.01,-217.75 138,-181.47 121.12,-150.85 96.67,-118.12 82.15,-99.59"/>
<polygon fill="#63b8ff" stroke="#63b8ff" points="223.45,-347.18 232.35,-352.93 228.97,-342.88 223.45,-347.18"/>
</g>
<!-- Node15 -->
<g id="node15" class="node">
<title>Node15</title>
<g id="a_node15"><a xlink:href="namespacesharp.html#a6170e3f412ab95b3ba8d9a93ae55dc67" target="_top" xlink:title="Returns the maximim value in the given layer.">
<polygon fill="white" stroke="#666666" points="291.5,-559.97 190.5,-559.97 190.5,-540.97 291.5,-540.97 291.5,-559.97"/>
<text text-anchor="middle" x="241" y="-547.97" font-family="Helvetica,sans-Serif" font-size="10.00">sharp::layer_max</text>
</a>
</g>
</g>
<!-- Node14&#45;&gt;Node15 -->
<g id="edge17" class="edge">
<title>Node14&#45;&gt;Node15</title>
<path fill="none" stroke="#63b8ff" d="M355.36,-489.64C351.4,-491.36 347.57,-493.3 344,-495.47 324.39,-507.38 327.77,-520.82 308,-532.47 302.27,-535.85 295.89,-538.61 289.42,-540.86"/>
<polygon fill="#63b8ff" stroke="#63b8ff" points="356.68,-492.88 364.72,-485.98 354.13,-486.36 356.68,-492.88"/>
</g>
<!-- Node16 -->
<g id="node16" class="node">
<title>Node16</title>
<g id="a_node16"><a xlink:href="namespacesharp.html#a01a9880c937f63e551893797253da4f7" target="_top" xlink:title="Returns the minimum value in the given layer.">
<polygon fill="white" stroke="#666666" points="290,-522.97 192,-522.97 192,-503.97 290,-503.97 290,-522.97"/>
<text text-anchor="middle" x="241" y="-510.97" font-family="Helvetica,sans-Serif" font-size="10.00">sharp::layer_min</text>
</a>
</g>
</g>
<!-- Node14&#45;&gt;Node16 -->
<g id="edge18" class="edge">
<title>Node14&#45;&gt;Node16</title>
<path fill="none" stroke="#63b8ff" d="M354.73,-488.19C332.14,-493.26 306.03,-499.11 284.63,-503.91"/>
<polygon fill="#63b8ff" stroke="#63b8ff" points="355.52,-491.6 364.51,-486 353.98,-484.77 355.52,-491.6"/>
</g>
<!-- Node17&#45;&gt;Node6 -->
<g id="edge20" class="edge">
<title>Node17&#45;&gt;Node6</title>
<path fill="none" stroke="#63b8ff" d="M190.68,-660.02C184.9,-657.1 179.21,-653.9 174,-650.47 137.5,-626.44 101.76,-589.27 83.17,-568.61"/>
<polygon fill="#63b8ff" stroke="#63b8ff" points="189.25,-663.21 199.78,-664.38 192.27,-656.9 189.25,-663.21"/>
</g>
<!-- Node17&#45;&gt;Node7 -->
<g id="edge21" class="edge">
<title>Node17&#45;&gt;Node7</title>
<path fill="none" stroke="#63b8ff" d="M181.6,-679.47C162.95,-679.47 142.39,-679.47 124.06,-679.47"/>
<polygon fill="#63b8ff" stroke="#63b8ff" points="181.74,-682.97 191.74,-679.47 181.74,-675.97 181.74,-682.97"/>
</g>
<!-- Node18&#45;&gt;Node3 -->
<g id="edge24" class="edge">
<title>Node18&#45;&gt;Node3</title>
<path fill="none" stroke="#63b8ff" d="M559.86,-162.97C543.89,-138.39 511.96,-95.91 472,-77.47 411.85,-49.7 225.71,-27.05 174,-68.47 116.78,-114.31 162.89,-160.5 138,-229.47 120.48,-278.01 89.11,-331.45 76.01,-352.84"/>
<polygon fill="#63b8ff" stroke="#63b8ff" points="557.07,-165.11 565.36,-171.72 563,-161.39 557.07,-165.11"/>
</g>
<!-- Node18&#45;&gt;Node9 -->
<g id="edge30" class="edge">
<title>Node18&#45;&gt;Node9</title>
<path fill="none" stroke="#63b8ff" d="M564.55,-201.19C553.04,-236.5 528.25,-312.84 508,-377.47 491.61,-429.79 511.12,-457.04 472,-495.47 466.24,-501.13 458.83,-505.03 451.12,-507.72"/>
<polygon fill="#63b8ff" stroke="#63b8ff" points="568.03,-201.83 567.8,-191.24 561.37,-199.66 568.03,-201.83"/>
</g>
<!-- Node18&#45;&gt;Node11 -->
<g id="edge31" class="edge">
<title>Node18&#45;&gt;Node11</title>
<path fill="none" stroke="#63b8ff" d="M562.86,-200.28C548.11,-232.95 514.51,-301.21 472,-348.47 460.96,-360.74 446.28,-371.92 433.87,-380.28"/>
<polygon fill="#63b8ff" stroke="#63b8ff" points="566.13,-201.55 566.98,-190.99 559.73,-198.72 566.13,-201.55"/>
</g>
<!-- Node18&#45;&gt;Node13 -->
<g id="edge36" class="edge">
<title>Node18&#45;&gt;Node13</title>
<path fill="none" stroke="#63b8ff" d="M564.65,-162.1C552.63,-129.01 523.05,-62.53 472,-35.47 354.98,26.57 303.25,-6.55 174,-35.47 144.98,-41.96 114.51,-57.5 94.11,-69.35"/>
<polygon fill="#63b8ff" stroke="#63b8ff" points="561.48,-163.64 568.06,-171.94 568.09,-161.34 561.48,-163.64"/>
</g>
<!-- Node18&#45;&gt;Node14 -->
<g id="edge35" class="edge">
<title>Node18&#45;&gt;Node14</title>
<path fill="none" stroke="#63b8ff" d="M566.05,-200.98C554.6,-243.57 523.29,-346.83 472,-419.47 458.22,-438.99 436.65,-456.63 422.67,-466.95"/>
<polygon fill="#63b8ff" stroke="#63b8ff" points="569.44,-201.86 568.59,-191.3 562.67,-200.09 569.44,-201.86"/>
</g>
<!-- Node19 -->
<g id="node19" class="node">
<title>Node19</title>
<g id="a_node19"><a xlink:href="namespacesharp.html#ab77e344c7462c9615b0ddac228bc2193" target="_top" xlink:title="Converts a sharp::HeightLayer to a sharp::PressureLayer.">
<polygon fill="white" stroke="#666666" points="463,-116.47 353,-116.47 353,-86.47 463,-86.47 463,-116.47"/>
<text text-anchor="start" x="361" y="-104.47" font-family="Helvetica,sans-Serif" font-size="10.00">sharp::height_layer</text>
<text text-anchor="middle" x="408" y="-93.47" font-family="Helvetica,sans-Serif" font-size="10.00">_to_pressure</text>
</a>
</g>
</g>
<!-- Node18&#45;&gt;Node19 -->
<g id="edge25" class="edge">
<title>Node18&#45;&gt;Node19</title>
<path fill="none" stroke="#63b8ff" d="M546.55,-166.72C526.79,-155.09 498.08,-138.82 472,-126.47 464.77,-123.04 456.93,-119.67 449.33,-116.57"/>
<polygon fill="#63b8ff" stroke="#63b8ff" points="544.83,-169.77 555.22,-171.86 548.4,-163.75 544.83,-169.77"/>
</g>
<!-- Node23 -->
<g id="node23" class="node">
<title>Node23</title>
<g id="a_node23"><a xlink:href="namespacesharp.html#a43a01274768ee388a983046651a230d3" target="_top" xlink:title="compute the lapse rate over the given sharp::HeightLayer (AGL)">
<polygon fill="white" stroke="#666666" points="458.5,-153.97 357.5,-153.97 357.5,-134.97 458.5,-134.97 458.5,-153.97"/>
<text text-anchor="middle" x="408" y="-141.97" font-family="Helvetica,sans-Serif" font-size="10.00">sharp::lapse_rate</text>
</a>
</g>
</g>
<!-- Node18&#45;&gt;Node23 -->
<g id="edge32" class="edge">
<title>Node18&#45;&gt;Node23</title>
<path fill="none" stroke="#63b8ff" d="M519.39,-169.68C497.27,-164.63 471.77,-158.81 450.86,-154.03"/>
<polygon fill="#63b8ff" stroke="#63b8ff" points="518.75,-173.13 529.28,-171.94 520.31,-166.3 518.75,-173.13"/>
</g>
<!-- Node26 -->
<g id="node26" class="node">
<title>Node26</title>
<g id="a_node26"><a xlink:href="namespacesharp.html#a099a4575acc27d6e10f9dfb69bc315a1" target="_top" xlink:title="Compue the wind shear for a given layer.">
<polygon fill="white" stroke="#666666" points="460.5,-190.97 355.5,-190.97 355.5,-171.97 460.5,-171.97 460.5,-190.97"/>
<text text-anchor="middle" x="408" y="-178.97" font-family="Helvetica,sans-Serif" font-size="10.00">sharp::wind_shear</text>
</a>
</g>
</g>
<!-- Node18&#45;&gt;Node26 -->
<g id="edge37" class="edge">
<title>Node18&#45;&gt;Node26</title>
<path fill="none" stroke="#63b8ff" d="M504.77,-181.47C490.1,-181.47 474.76,-181.47 460.76,-181.47"/>
<polygon fill="#63b8ff" stroke="#63b8ff" points="504.79,-184.97 514.79,-181.47 504.79,-177.97 504.79,-184.97"/>
</g>
<!-- Node20 -->
<g id="node20" class="node">
<title>Node20</title>
<g id="a_node20"><a xlink:href="namespacesharp.html#aa0726266b4777806bae4e8054e01684c" target="_top" xlink:title="Computes the mass&#45;weighted mean value of a field over a given height layer.">
<polygon fill="white" stroke="#666666" points="294.5,-96.97 187.5,-96.97 187.5,-77.97 294.5,-77.97 294.5,-96.97"/>
<text text-anchor="middle" x="241" y="-84.97" font-family="Helvetica,sans-Serif" font-size="10.00">sharp::layer_mean</text>
</a>
</g>
</g>
<!-- Node19&#45;&gt;Node20 -->
<g id="edge26" class="edge">
<title>Node19&#45;&gt;Node20</title>
<path fill="none" stroke="#63b8ff" d="M342.7,-96.01C326.82,-94.67 310,-93.24 294.74,-91.94"/>
<polygon fill="#63b8ff" stroke="#63b8ff" points="342.71,-99.53 352.97,-96.88 343.3,-92.55 342.71,-99.53"/>
</g>
<!-- Node21 -->
<g id="node21" class="node">
<title>Node21</title>
<g id="a_node21"><a xlink:href="namespacesharp.html#a74a735636c932467b4d2ced544e0cb51" target="_top" xlink:title="Estimates supercell storm motion using the Bunkers et al. 2000 method.">
<polygon fill="white" stroke="#666666" points="300,-220.47 182,-220.47 182,-190.47 300,-190.47 300,-220.47"/>
<text text-anchor="start" x="190" y="-208.47" font-family="Helvetica,sans-Serif" font-size="10.00">sharp::storm_motion</text>
<text text-anchor="middle" x="241" y="-197.47" font-family="Helvetica,sans-Serif" font-size="10.00">_bunkers</text>
</a>
</g>
</g>
<!-- Node19&#45;&gt;Node21 -->
<g id="edge27" class="edge">
<title>Node19&#45;&gt;Node21</title>
<path fill="none" stroke="#63b8ff" d="M354.85,-120.81C351.12,-122.6 347.47,-124.49 344,-126.47 311.51,-145 278,-172.97 258.63,-190.18"/>
<polygon fill="#63b8ff" stroke="#63b8ff" points="356.56,-123.87 364.21,-116.55 353.66,-117.5 356.56,-123.87"/>
</g>
<!-- Node21&#45;&gt;Node3 -->
<g id="edge28" class="edge">
<title>Node21&#45;&gt;Node3</title>
<path fill="none" stroke="#63b8ff" d="M181.86,-225.34C179.13,-226.94 176.49,-228.64 174,-230.47 126.01,-265.67 88.46,-328.59 75.19,-352.7"/>
<polygon fill="#63b8ff" stroke="#63b8ff" points="183.63,-228.36 190.85,-220.61 180.37,-222.17 183.63,-228.36"/>
</g>
<!-- Node22 -->
<g id="node22" class="node">
<title>Node22</title>
<g id="a_node22"><a xlink:href="namespacesharp.html#ab31d383a3231f8fef873e5a16c0db856" target="_top" xlink:title="Estimates supercell storm motion by using the Bunkers et al. 2014 method.">
<polygon fill="white" stroke="#666666" points="128,-220.47 10,-220.47 10,-190.47 128,-190.47 128,-220.47"/>
<text text-anchor="start" x="18" y="-208.47" font-family="Helvetica,sans-Serif" font-size="10.00">sharp::storm_motion</text>
<text text-anchor="middle" x="69" y="-197.47" font-family="Helvetica,sans-Serif" font-size="10.00">_bunkers</text>
</a>
</g>
</g>
<!-- Node21&#45;&gt;Node22 -->
<g id="edge29" class="edge">
<title>Node21&#45;&gt;Node22</title>
<path fill="none" stroke="#63b8ff" d="M171.6,-205.47C157.17,-205.47 142.07,-205.47 128.06,-205.47"/>
<polygon fill="#63b8ff" stroke="#63b8ff" points="171.97,-208.97 181.97,-205.47 171.97,-201.97 171.97,-208.97"/>
</g>
<!-- Node24 -->
<g id="node24" class="node">
<title>Node24</title>
<g id="a_node24"><a xlink:href="namespacesharp.html#aa4e86da659bfca2eae1f0baddb84a303" target="_top" xlink:title="compute the lapse rate over the given sharp::PressureLayer">
<polygon fill="white" stroke="#666666" points="291.5,-257.97 190.5,-257.97 190.5,-238.97 291.5,-238.97 291.5,-257.97"/>
<text text-anchor="middle" x="241" y="-245.97" font-family="Helvetica,sans-Serif" font-size="10.00">sharp::lapse_rate</text>
</a>
</g>
</g>
<!-- Node23&#45;&gt;Node24 -->
<g id="edge33" class="edge">
<title>Node23&#45;&gt;Node24</title>
<path fill="none" stroke="#63b8ff" d="M351.19,-158.51C348.66,-160 346.24,-161.65 344,-163.47 318.06,-184.53 334.07,-208.57 308,-229.47 303.16,-233.35 297.57,-236.43 291.72,-238.89"/>
<polygon fill="#63b8ff" stroke="#63b8ff" points="352.79,-161.62 360.17,-154.02 349.66,-155.36 352.79,-161.62"/>
</g>
<!-- Node25 -->
<g id="node25" class="node">
<title>Node25</title>
<g id="a_node25"><a xlink:href="namespacesharp.html#abd0d1a28608e145c455ace03e787e33b" target="_top" xlink:title="Find the maximum lapse rate within a specified layer/depth (AGL).">
<polygon fill="white" stroke="#666666" points="305,-133.97 177,-133.97 177,-114.97 305,-114.97 305,-133.97"/>
<text text-anchor="middle" x="241" y="-121.97" font-family="Helvetica,sans-Serif" font-size="10.00">sharp::lapse_rate_max</text>
</a>
</g>
</g>
<!-- Node23&#45;&gt;Node25 -->
<g id="edge34" class="edge">
<title>Node23&#45;&gt;Node25</title>
<path fill="none" stroke="#63b8ff" d="M347.26,-137.23C333.6,-135.57 319.05,-133.81 305.25,-132.13"/>
<polygon fill="#63b8ff" stroke="#63b8ff" points="347.15,-140.74 357.49,-138.47 347.99,-133.79 347.15,-140.74"/>
</g>
<!-- Node27&#45;&gt;Node3 -->
<g id="edge39" class="edge">
<title>Node27&#45;&gt;Node3</title>
<path fill="none" stroke="#63b8ff" d="M529.74,-407.79C512.12,-412.45 491.23,-417.17 472,-419.47 340.22,-435.21 303.19,-430.83 174,-400.47 144.62,-393.56 112.16,-380.84 91.45,-372.02"/>
<polygon fill="#63b8ff" stroke="#63b8ff" points="530.97,-411.09 539.69,-405.08 529.13,-404.33 530.97,-411.09"/>
</g>
<!-- Node27&#45;&gt;Node4 -->
<g id="edge40" class="edge">
<title>Node27&#45;&gt;Node4</title>
<path fill="none" stroke="#63b8ff" d="M561.93,-414.38C547.02,-443.58 514.69,-499.71 472,-532.47 467.54,-535.89 462.54,-538.87 457.36,-541.46"/>
<polygon fill="#63b8ff" stroke="#63b8ff" points="565.15,-415.77 566.46,-405.25 558.88,-412.65 565.15,-415.77"/>
</g>
<!-- Node27&#45;&gt;Node9 -->
<g id="edge41" class="edge">
<title>Node27&#45;&gt;Node9</title>
<path fill="none" stroke="#63b8ff" d="M558.04,-413.34C540.85,-435.78 508.4,-473.93 472,-495.47 465.64,-499.23 458.44,-502.25 451.25,-504.65"/>
<polygon fill="#63b8ff" stroke="#63b8ff" points="561.06,-415.15 564.25,-405.05 555.45,-410.96 561.06,-415.15"/>
</g>
<!-- Node27&#45;&gt;Node11 -->
<g id="edge42" class="edge">
<title>Node27&#45;&gt;Node11</title>
<path fill="none" stroke="#63b8ff" d="M499.29,-395.47C489.61,-395.47 479.75,-395.47 470.27,-395.47"/>
<polygon fill="#63b8ff" stroke="#63b8ff" points="499.29,-398.97 509.29,-395.47 499.29,-391.97 499.29,-398.97"/>
</g>
<!-- Node27&#45;&gt;Node14 -->
<g id="edge43" class="edge">
<title>Node27&#45;&gt;Node14</title>
<path fill="none" stroke="#63b8ff" d="M547.36,-410.5C527.65,-422.69 498.6,-439.84 472,-452.47 460.79,-457.79 448.06,-462.82 437,-466.88"/>
<polygon fill="#63b8ff" stroke="#63b8ff" points="549.34,-413.39 555.97,-405.13 545.64,-407.45 549.34,-413.39"/>
</g>
<!-- Node27&#45;&gt;Node22 -->
<g id="edge51" class="edge">
<title>Node27&#45;&gt;Node22</title>
<path fill="none" stroke="#63b8ff" d="M562.08,-376.79C547.19,-347.35 514.63,-289.99 472,-255.47 423.88,-216.51 399.87,-227.16 344,-200.47 327.68,-192.67 325.56,-185.82 308,-181.47 244.71,-165.79 169.54,-178.37 120.86,-190.44"/>
<polygon fill="#63b8ff" stroke="#63b8ff" points="559.04,-378.53 566.6,-385.95 565.32,-375.43 559.04,-378.53"/>
</g>
<!-- Node27&#45;&gt;Node26 -->
<g id="edge52" class="edge">
<title>Node27&#45;&gt;Node26</title>
<path fill="none" stroke="#63b8ff" d="M565.85,-375.79C554.92,-337.7 525.87,-253.41 472,-205.47 465.01,-199.24 456.23,-194.57 447.47,-191.08"/>
<polygon fill="#63b8ff" stroke="#63b8ff" points="562.54,-376.93 568.57,-385.65 569.29,-375.07 562.54,-376.93"/>
</g>
<!-- Node28 -->
<g id="node28" class="node">
<title>Node28</title>
<g id="a_node28"><a xlink:href="namespacesharp.html#a3c8b9022103d067f30281d68fa81cbda" target="_top" xlink:title="Compute the mean wind over the given sharp::PressureLayer.">
<polygon fill="white" stroke="#666666" points="461,-282.97 355,-282.97 355,-263.97 461,-263.97 461,-282.97"/>
<text text-anchor="middle" x="408" y="-270.97" font-family="Helvetica,sans-Serif" font-size="10.00">sharp::mean_wind</text>
</a>
</g>
</g>
<!-- Node27&#45;&gt;Node28 -->
<g id="edge44" class="edge">
<title>Node27&#45;&gt;Node28</title>
<path fill="none" stroke="#63b8ff" d="M556.58,-378.26C538.54,-357.59 505.87,-322.89 472,-300.47 461.28,-293.37 448.4,-287.46 437.08,-282.99"/>
<polygon fill="#63b8ff" stroke="#63b8ff" points="554,-380.63 563.17,-385.94 559.31,-376.07 554,-380.63"/>
</g>
<!-- Node29 -->
<g id="node29" class="node">
<title>Node29</title>
<g id="a_node29"><a xlink:href="namespacesharp.html#a31da980f398c9f6a5960ddf868101a94" target="_top" xlink:title="Converts a sharp::PressureLayer to a sharp::HeightLayer.">
<polygon fill="white" stroke="#666666" points="469,-339.47 347,-339.47 347,-309.47 469,-309.47 469,-339.47"/>
<text text-anchor="start" x="355" y="-327.47" font-family="Helvetica,sans-Serif" font-size="10.00">sharp::pressure_layer</text>
<text text-anchor="middle" x="408" y="-316.47" font-family="Helvetica,sans-Serif" font-size="10.00">_to_height</text>
</a>
</g>
</g>
<!-- Node27&#45;&gt;Node29 -->
<g id="edge46" class="edge">
<title>Node27&#45;&gt;Node29</title>
<path fill="none" stroke="#63b8ff" d="M539.96,-381.87C512.37,-369.77 472.09,-352.12 443.5,-339.59"/>
<polygon fill="#63b8ff" stroke="#63b8ff" points="538.59,-385.08 549.15,-385.89 541.4,-378.67 538.59,-385.08"/>
</g>
<!-- Node28&#45;&gt;Node21 -->
<g id="edge45" class="edge">
<title>Node28&#45;&gt;Node21</title>
<path fill="none" stroke="#63b8ff" d="M376.59,-259.81C357.08,-251.17 331.17,-239.88 308,-230.47 299.83,-227.15 291.03,-223.72 282.61,-220.5"/>
<polygon fill="#63b8ff" stroke="#63b8ff" points="375.32,-263.08 385.88,-263.95 378.17,-256.68 375.32,-263.08"/>
</g>
<!-- Node29&#45;&gt;Node3 -->
<g id="edge48" class="edge">
<title>Node29&#45;&gt;Node3</title>
<path fill="none" stroke="#63b8ff" d="M336.76,-328.92C290.43,-332.25 228.47,-337.43 174,-344.47 156.28,-346.76 136.97,-349.91 119.86,-352.95"/>
<polygon fill="#63b8ff" stroke="#63b8ff" points="337.26,-332.39 346.99,-328.2 336.77,-325.41 337.26,-332.39"/>
</g>
<!-- Node29&#45;&gt;Node5 -->
<g id="edge47" class="edge">
<title>Node29&#45;&gt;Node5</title>
<path fill="none" stroke="#63b8ff" d="M376.82,-345.48C366.16,-353.29 354.28,-362.45 344,-371.47 306.95,-403.99 267.48,-447.52 250.53,-466.7"/>
<polygon fill="#63b8ff" stroke="#63b8ff" points="378.99,-348.23 385.05,-339.53 374.9,-342.55 378.99,-348.23"/>
</g>
<!-- Node29&#45;&gt;Node22 -->
<g id="edge50" class="edge">
<title>Node29&#45;&gt;Node22</title>
<path fill="none" stroke="#63b8ff" d="M336.46,-312.88C289.34,-303.79 226.6,-289.01 174,-267.47 143.46,-254.96 111.26,-234.47 90.93,-220.5"/>
<polygon fill="#63b8ff" stroke="#63b8ff" points="336.09,-316.38 346.57,-314.8 337.39,-309.5 336.09,-316.38"/>
</g>
<!-- Node29&#45;&gt;Node24 -->
<g id="edge49" class="edge">
<title>Node29&#45;&gt;Node24</title>
<path fill="none" stroke="#63b8ff" d="M367.71,-304.8C359.83,-300.77 351.63,-296.52 344,-292.47 327.84,-283.88 324.65,-280.06 308,-272.47 296.24,-267.11 282.9,-262.07 271.31,-258.01"/>
<polygon fill="#63b8ff" stroke="#63b8ff" points="366.26,-307.98 376.76,-309.39 369.43,-301.74 366.26,-307.98"/>
</g>
</g>
</svg>
