<?xml version="1.0" encoding="UTF-8" standalone="no"?>
<!DOCTYPE svg PUBLIC "-//W3C//DTD SVG 1.1//EN"
 "http://www.w3.org/Graphics/SVG/1.1/DTD/svg11.dtd">
<!-- Generated by graphviz version 2.43.0 (0)
 -->
<!-- Title: sharp::wind_shear Pages: 1 -->
<svg width="538pt" height="64pt"
 viewBox="0.00 0.00 538.00 64.00" xmlns="http://www.w3.org/2000/svg" xmlns:xlink="http://www.w3.org/1999/xlink">
<g id="graph0" class="graph" transform="scale(1 1) rotate(0) translate(4 60)">
<title>sharp::wind_shear</title>
<!-- Node1 -->
<g id="node1" class="node">
<title>Node1</title>
<g id="a_node1"><a xlink:title="Compue the wind shear for a given layer.">
<polygon fill="#999999" stroke="#666666" points="105,-37 0,-37 0,-18 105,-18 105,-37"/>
<text text-anchor="middle" x="52.5" y="-25" font-family="Helvetica,sans-Serif" font-size="10.00">sharp::wind_shear</text>
</a>
</g>
</g>
<!-- Node2 -->
<g id="node2" class="node">
<title>Node2</title>
<g id="a_node2"><a xlink:href="namespacesharp.html#ae8240f026498ad2775633a8d0dcf100d" target="_top" xlink:title="Linearly interpolate a data field to a requested height level.">
<polygon fill="white" stroke="#666666" points="260.5,-56 146.5,-56 146.5,-37 260.5,-37 260.5,-56"/>
<text text-anchor="middle" x="203.5" y="-44" font-family="Helvetica,sans-Serif" font-size="10.00">sharp::interp_height</text>
</a>
</g>
</g>
<!-- Node1&#45;&gt;Node2 -->
<g id="edge1" class="edge">
<title>Node1&#45;&gt;Node2</title>
<path fill="none" stroke="#63b8ff" d="M105.19,-34.09C115.26,-35.38 125.94,-36.74 136.39,-38.07"/>
<polygon fill="#63b8ff" stroke="#63b8ff" points="135.96,-41.54 146.32,-39.34 136.84,-34.6 135.96,-41.54"/>
</g>
<!-- Node6 -->
<g id="node6" class="node">
<title>Node6</title>
<g id="a_node6"><a xlink:href="namespacesharp.html#a55e4f8ee4ff8a4a30d7b3f3d92a41c75" target="_top" xlink:title="Linearly interpolate a data field to a requested pressure level.">
<polygon fill="white" stroke="#666666" points="266,-19 141,-19 141,0 266,0 266,-19"/>
<text text-anchor="middle" x="203.5" y="-7" font-family="Helvetica,sans-Serif" font-size="10.00">sharp::interp_pressure</text>
</a>
</g>
</g>
<!-- Node1&#45;&gt;Node6 -->
<g id="edge5" class="edge">
<title>Node1&#45;&gt;Node6</title>
<path fill="none" stroke="#63b8ff" d="M105.19,-21.25C113.47,-20.26 122.16,-19.21 130.81,-18.16"/>
<polygon fill="#63b8ff" stroke="#63b8ff" points="131.39,-21.62 140.9,-16.94 130.55,-14.67 131.39,-21.62"/>
</g>
<!-- Node3 -->
<g id="node3" class="node">
<title>Node3</title>
<g id="a_node3"><a xlink:href="namespacesharp.html#a0bf533560780fdb77bc3656db8d89208" target="_top" xlink:title="Linearly interpolates between a and b with distance t.">
<polygon fill="white" stroke="#666666" points="392.5,-56 324.5,-56 324.5,-37 392.5,-37 392.5,-56"/>
<text text-anchor="middle" x="358.5" y="-44" font-family="Helvetica,sans-Serif" font-size="10.00">sharp::lerp</text>
</a>
</g>
</g>
<!-- Node2&#45;&gt;Node3 -->
<g id="edge2" class="edge">
<title>Node2&#45;&gt;Node3</title>
<path fill="none" stroke="#63b8ff" d="M260.6,-46.5C278.09,-46.5 297.12,-46.5 313.64,-46.5"/>
<polygon fill="#63b8ff" stroke="#63b8ff" points="314.1,-50 324.1,-46.5 314.1,-43 314.1,-50"/>
</g>
<!-- Node5 -->
<g id="node5" class="node">
<title>Node5</title>
<g id="a_node5"><a xlink:href="namespacesharp.html#a772686549a5111c1152b778731119aa6" target="_top" xlink:title="Finds the first index that satisfies value &lt; element.">
<polygon fill="white" stroke="#666666" points="415,-19 302,-19 302,0 415,0 415,-19"/>
<text text-anchor="middle" x="358.5" y="-7" font-family="Helvetica,sans-Serif" font-size="10.00">sharp::upper_bound</text>
</a>
</g>
</g>
<!-- Node2&#45;&gt;Node5 -->
<g id="edge4" class="edge">
<title>Node2&#45;&gt;Node5</title>
<path fill="none" stroke="#63b8ff" d="M243.9,-36.97C263.46,-32.24 287.28,-26.48 308.05,-21.46"/>
<polygon fill="#63b8ff" stroke="#63b8ff" points="309.07,-24.81 317.97,-19.06 307.42,-18.01 309.07,-24.81"/>
</g>
<!-- Node4 -->
<g id="node4" class="node">
<title>Node4</title>
<g id="a_node4"><a xlink:href="namespacesharp.html#ac4464059524ff56c7974141bb4cc7375" target="_top" xlink:title="Linearly interpolates between a and b with distance t.">
<polygon fill="white" stroke="#666666" points="530,-56 451,-56 451,-37 530,-37 530,-56"/>
<text text-anchor="middle" x="490.5" y="-44" font-family="Helvetica,sans-Serif" font-size="10.00">sharp::__lerp</text>
</a>
</g>
</g>
<!-- Node3&#45;&gt;Node4 -->
<g id="edge3" class="edge">
<title>Node3&#45;&gt;Node4</title>
<path fill="none" stroke="#63b8ff" d="M392.64,-46.5C407.2,-46.5 424.6,-46.5 440.61,-46.5"/>
<polygon fill="#63b8ff" stroke="#63b8ff" points="440.88,-50 450.88,-46.5 440.88,-43 440.88,-50"/>
</g>
<!-- Node6&#45;&gt;Node3 -->
<g id="edge6" class="edge">
<title>Node6&#45;&gt;Node3</title>
<path fill="none" stroke="#63b8ff" d="M243.9,-19.03C265.55,-24.26 292.44,-30.77 314.62,-36.13"/>
<polygon fill="#63b8ff" stroke="#63b8ff" points="313.9,-39.56 324.44,-38.51 315.54,-32.75 313.9,-39.56"/>
</g>
<!-- Node6&#45;&gt;Node5 -->
<g id="edge7" class="edge">
<title>Node6&#45;&gt;Node5</title>
<path fill="none" stroke="#63b8ff" d="M266.29,-9.5C274.66,-9.5 283.28,-9.5 291.72,-9.5"/>
<polygon fill="#63b8ff" stroke="#63b8ff" points="291.9,-13 301.9,-9.5 291.9,-6 291.9,-13"/>
</g>
</g>
</svg>
