<?xml version="1.0" encoding="UTF-8" standalone="no"?>
<!DOCTYPE svg PUBLIC "-//W3C//DTD SVG 1.1//EN"
 "http://www.w3.org/Graphics/SVG/1.1/DTD/svg11.dtd">
<!-- Generated by graphviz version 2.43.0 (0)
 -->
<!-- Title: sharp::wobf Pages: 1 -->
<svg width="493pt" height="52pt"
 viewBox="0.00 0.00 493.00 51.50" xmlns="http://www.w3.org/2000/svg" xmlns:xlink="http://www.w3.org/1999/xlink">
<g id="graph0" class="graph" transform="scale(1 1) rotate(0) translate(4 47.5)">
<title>sharp::wobf</title>
<!-- Node1 -->
<g id="node1" class="node">
<title>Node1</title>
<g id="a_node1"><a xlink:title="Computes the difference between the wet&#45;bulb potential temperatures for saturated and dry air given t...">
<polygon fill="#999999" stroke="#666666" points="485,-24.5 411,-24.5 411,-5.5 485,-5.5 485,-24.5"/>
<text text-anchor="middle" x="448" y="-12.5" font-family="Helvetica,sans-Serif" font-size="10.00">sharp::wobf</text>
</a>
</g>
</g>
<!-- Node2 -->
<g id="node2" class="node">
<title>Node2</title>
<g id="a_node2"><a xlink:href="namespacesharp.html#ab8a75ed92a2c2062162264a54f3a5338" target="_top" xlink:title="Compute the temperature along a moist adiabat (wet&#45;bulb potential temperature) at a given pressure.">
<polygon fill="white" stroke="#666666" points="375,-43.5 261,-43.5 261,-24.5 375,-24.5 375,-43.5"/>
<text text-anchor="middle" x="318" y="-31.5" font-family="Helvetica,sans-Serif" font-size="10.00">sharp::saturated_lift</text>
</a>
</g>
</g>
<!-- Node1&#45;&gt;Node2 -->
<g id="edge1" class="edge">
<title>Node1&#45;&gt;Node2</title>
<path fill="none" stroke="#63b8ff" d="M400.75,-21.87C392.41,-23.1 383.63,-24.41 375.04,-25.68"/>
<polygon fill="#63b8ff" stroke="#63b8ff" points="401.29,-25.32 410.66,-20.39 400.26,-18.4 401.29,-25.32"/>
</g>
<!-- Node3 -->
<g id="node3" class="node">
<title>Node3</title>
<g id="a_node3"><a xlink:href="namespacesharp.html#ad4014313c60a66a321e4050a2a07058e" target="_top" xlink:title="Compute the temperature of a parcel lifted moist adiabatically to a new level.">
<polygon fill="white" stroke="#666666" points="225,-24.5 145,-24.5 145,-5.5 225,-5.5 225,-24.5"/>
<text text-anchor="middle" x="185" y="-12.5" font-family="Helvetica,sans-Serif" font-size="10.00">sharp::wetlift</text>
</a>
</g>
</g>
<!-- Node1&#45;&gt;Node3 -->
<g id="edge4" class="edge">
<title>Node1&#45;&gt;Node3</title>
<path fill="none" stroke="#63b8ff" d="M400.78,-15C350.81,-15 272.03,-15 225.05,-15"/>
<polygon fill="#63b8ff" stroke="#63b8ff" points="400.98,-18.5 410.98,-15 400.98,-11.5 400.98,-18.5"/>
</g>
<!-- Node2&#45;&gt;Node3 -->
<g id="edge2" class="edge">
<title>Node2&#45;&gt;Node3</title>
<path fill="none" stroke="#63b8ff" d="M250.56,-24.36C241.91,-23.11 233.28,-21.86 225.28,-20.7"/>
<polygon fill="#63b8ff" stroke="#63b8ff" points="250.29,-27.86 260.68,-25.83 251.29,-20.93 250.29,-27.86"/>
</g>
<!-- Node4 -->
<g id="node4" class="node">
<title>Node4</title>
<g id="a_node4"><a xlink:href="structsharp_1_1lifter__wobus.html#a92ffe04c0425aef07c524759d799066e" target="_top" xlink:title="Overloads operator() to call sharp::wetlift.">
<polygon fill="white" stroke="#666666" points="109,-30 0,-30 0,0 109,0 109,-30"/>
<text text-anchor="start" x="8" y="-18" font-family="Helvetica,sans-Serif" font-size="10.00">sharp::lifter_wobus</text>
<text text-anchor="middle" x="54.5" y="-7" font-family="Helvetica,sans-Serif" font-size="10.00">::operator()</text>
</a>
</g>
</g>
<!-- Node3&#45;&gt;Node4 -->
<g id="edge3" class="edge">
<title>Node3&#45;&gt;Node4</title>
<path fill="none" stroke="#63b8ff" d="M134.48,-15C126.2,-15 117.57,-15 109.18,-15"/>
<polygon fill="#63b8ff" stroke="#63b8ff" points="134.75,-18.5 144.75,-15 134.75,-11.5 134.75,-18.5"/>
</g>
</g>
</svg>
