<?xml version="1.0" encoding="UTF-8" standalone="no"?>
<!DOCTYPE svg PUBLIC "-//W3C//DTD SVG 1.1//EN"
 "http://www.w3.org/Graphics/SVG/1.1/DTD/svg11.dtd">
<!-- Generated by graphviz version 2.43.0 (0)
 -->
<!-- Title: sharp::helicity Pages: 1 -->
<svg width="522pt" height="101pt"
 viewBox="0.00 0.00 522.00 101.00" xmlns="http://www.w3.org/2000/svg" xmlns:xlink="http://www.w3.org/1999/xlink">
<g id="graph0" class="graph" transform="scale(1 1) rotate(0) translate(4 97)">
<title>sharp::helicity</title>
<!-- Node1 -->
<g id="node1" class="node">
<title>Node1</title>
<g id="a_node1"><a xlink:title="Computes the Storm Relative Helicity (SRH) over a given layer.">
<polygon fill="#999999" stroke="#666666" points="86,-56 0,-56 0,-37 86,-37 86,-56"/>
<text text-anchor="middle" x="43" y="-44" font-family="Helvetica,sans-Serif" font-size="10.00">sharp::helicity</text>
</a>
</g>
</g>
<!-- Node2 -->
<g id="node2" class="node">
<title>Node2</title>
<g id="a_node2"><a xlink:href="namespacesharp.html#ac93f477dfa774c966b5da7521bd43ee6" target="_top" xlink:title="Returns the array indices corresponding to the given layer.">
<polygon fill="white" stroke="#666666" points="250,-93 122,-93 122,-74 250,-74 250,-93"/>
<text text-anchor="middle" x="186" y="-81" font-family="Helvetica,sans-Serif" font-size="10.00">sharp::get_layer_index</text>
</a>
</g>
</g>
<!-- Node1&#45;&gt;Node2 -->
<g id="edge1" class="edge">
<title>Node1&#45;&gt;Node2</title>
<path fill="none" stroke="#63b8ff" d="M80.31,-56.03C98.02,-60.67 119.52,-66.32 138.42,-71.28"/>
<polygon fill="#63b8ff" stroke="#63b8ff" points="137.76,-74.72 148.32,-73.88 139.54,-67.95 137.76,-74.72"/>
</g>
<!-- Node5 -->
<g id="node5" class="node">
<title>Node5</title>
<g id="a_node5"><a xlink:href="namespacesharp.html#af8484e9fe21c025b64ecffde614feb11" target="_top" xlink:title="Linearly interpolate a data field to a requested height level.">
<polygon fill="white" stroke="#666666" points="243,-19 129,-19 129,0 243,0 243,-19"/>
<text text-anchor="middle" x="186" y="-7" font-family="Helvetica,sans-Serif" font-size="10.00">sharp::interp_height</text>
</a>
</g>
</g>
<!-- Node1&#45;&gt;Node5 -->
<g id="edge4" class="edge">
<title>Node1&#45;&gt;Node5</title>
<path fill="none" stroke="#63b8ff" d="M80.31,-36.97C98.02,-32.33 119.52,-26.68 138.42,-21.72"/>
<polygon fill="#63b8ff" stroke="#63b8ff" points="139.54,-25.05 148.32,-19.12 137.76,-18.28 139.54,-25.05"/>
</g>
<!-- Node8 -->
<g id="node8" class="node">
<title>Node8</title>
<g id="a_node8"><a xlink:href="namespacesharp.html#a7ed0899941867073e5062af04fdbd3e7" target="_top" xlink:title="Linearly interpolate a data field to a requested pressure level.">
<polygon fill="white" stroke="#666666" points="248.5,-56 123.5,-56 123.5,-37 248.5,-37 248.5,-56"/>
<text text-anchor="middle" x="186" y="-44" font-family="Helvetica,sans-Serif" font-size="10.00">sharp::interp_pressure</text>
</a>
</g>
</g>
<!-- Node1&#45;&gt;Node8 -->
<g id="edge8" class="edge">
<title>Node1&#45;&gt;Node8</title>
<path fill="none" stroke="#63b8ff" d="M86.3,-46.5C94.88,-46.5 104.13,-46.5 113.4,-46.5"/>
<polygon fill="#63b8ff" stroke="#63b8ff" points="113.44,-50 123.44,-46.5 113.44,-43 113.44,-50"/>
</g>
<!-- Node3 -->
<g id="node3" class="node">
<title>Node3</title>
<g id="a_node3"><a xlink:href="namespacesharp.html#a1edcf8bff9a13429bcbff7c1129024b3" target="_top" xlink:title="Finds the index of the lower bound that does not satisfy element &lt; value.">
<polygon fill="white" stroke="#666666" points="398.5,-93 286.5,-93 286.5,-74 398.5,-74 398.5,-93"/>
<text text-anchor="middle" x="342.5" y="-81" font-family="Helvetica,sans-Serif" font-size="10.00">sharp::lower_bound</text>
</a>
</g>
</g>
<!-- Node2&#45;&gt;Node3 -->
<g id="edge2" class="edge">
<title>Node2&#45;&gt;Node3</title>
<path fill="none" stroke="#63b8ff" d="M250.29,-83.5C258.91,-83.5 267.78,-83.5 276.43,-83.5"/>
<polygon fill="#63b8ff" stroke="#63b8ff" points="276.47,-87 286.47,-83.5 276.47,-80 276.47,-87"/>
</g>
<!-- Node4 -->
<g id="node4" class="node">
<title>Node4</title>
<g id="a_node4"><a xlink:href="namespacesharp.html#a772686549a5111c1152b778731119aa6" target="_top" xlink:title="Finds the first index that satisfies value &lt; element.">
<polygon fill="white" stroke="#666666" points="399,-56 286,-56 286,-37 399,-37 399,-56"/>
<text text-anchor="middle" x="342.5" y="-44" font-family="Helvetica,sans-Serif" font-size="10.00">sharp::upper_bound</text>
</a>
</g>
</g>
<!-- Node2&#45;&gt;Node4 -->
<g id="edge3" class="edge">
<title>Node2&#45;&gt;Node4</title>
<path fill="none" stroke="#63b8ff" d="M226.79,-73.97C246.62,-69.22 270.81,-63.43 291.85,-58.39"/>
<polygon fill="#63b8ff" stroke="#63b8ff" points="292.67,-61.79 301.58,-56.06 291.04,-54.99 292.67,-61.79"/>
</g>
<!-- Node5&#45;&gt;Node4 -->
<g id="edge7" class="edge">
<title>Node5&#45;&gt;Node4</title>
<path fill="none" stroke="#63b8ff" d="M226.79,-19.03C246.62,-23.78 270.81,-29.57 291.85,-34.61"/>
<polygon fill="#63b8ff" stroke="#63b8ff" points="291.04,-38.01 301.58,-36.94 292.67,-31.21 291.04,-38.01"/>
</g>
<!-- Node6 -->
<g id="node6" class="node">
<title>Node6</title>
<g id="a_node6"><a xlink:href="namespacesharp.html#a8aa123fbe3b59a7023446b0fe2186c49" target="_top" xlink:title="Linearly interpolates between a and b with distance t.">
<polygon fill="white" stroke="#666666" points="376.5,-19 308.5,-19 308.5,0 376.5,0 376.5,-19"/>
<text text-anchor="middle" x="342.5" y="-7" font-family="Helvetica,sans-Serif" font-size="10.00">sharp::lerp</text>
</a>
</g>
</g>
<!-- Node5&#45;&gt;Node6 -->
<g id="edge5" class="edge">
<title>Node5&#45;&gt;Node6</title>
<path fill="none" stroke="#63b8ff" d="M243.22,-9.5C261.36,-9.5 281.19,-9.5 298.25,-9.5"/>
<polygon fill="#63b8ff" stroke="#63b8ff" points="298.48,-13 308.48,-9.5 298.48,-6 298.48,-13"/>
</g>
<!-- Node7 -->
<g id="node7" class="node">
<title>Node7</title>
<g id="a_node7"><a xlink:href="namespacesharp.html#a8848423b96dfe09b90322efd2cc5bd43" target="_top" xlink:title="Linearly interpolates between a and b with distance t.">
<polygon fill="white" stroke="#666666" points="514,-19 435,-19 435,0 514,0 514,-19"/>
<text text-anchor="middle" x="474.5" y="-7" font-family="Helvetica,sans-Serif" font-size="10.00">sharp::__lerp</text>
</a>
</g>
</g>
<!-- Node6&#45;&gt;Node7 -->
<g id="edge6" class="edge">
<title>Node6&#45;&gt;Node7</title>
<path fill="none" stroke="#63b8ff" d="M376.64,-9.5C391.2,-9.5 408.6,-9.5 424.61,-9.5"/>
<polygon fill="#63b8ff" stroke="#63b8ff" points="424.88,-13 434.88,-9.5 424.88,-6 424.88,-13"/>
</g>
<!-- Node8&#45;&gt;Node4 -->
<g id="edge10" class="edge">
<title>Node8&#45;&gt;Node4</title>
<path fill="none" stroke="#63b8ff" d="M248.51,-46.5C257.43,-46.5 266.65,-46.5 275.66,-46.5"/>
<polygon fill="#63b8ff" stroke="#63b8ff" points="275.71,-50 285.71,-46.5 275.71,-43 275.71,-50"/>
</g>
<!-- Node8&#45;&gt;Node6 -->
<g id="edge9" class="edge">
<title>Node8&#45;&gt;Node6</title>
<path fill="none" stroke="#63b8ff" d="M226.79,-36.97C248.73,-31.72 275.99,-25.19 298.43,-19.81"/>
<polygon fill="#63b8ff" stroke="#63b8ff" points="299.46,-23.17 308.37,-17.43 297.83,-16.36 299.46,-23.17"/>
</g>
</g>
</svg>
