<?xml version="1.0" encoding="UTF-8" standalone="no"?>
<!DOCTYPE svg PUBLIC "-//W3C//DTD SVG 1.1//EN"
 "http://www.w3.org/Graphics/SVG/1.1/DTD/svg11.dtd">
<!-- Generated by graphviz version 2.43.0 (0)
 -->
<!-- Title: sharp::thetae Pages: 1 -->
<svg width="205pt" height="45pt"
 viewBox="0.00 0.00 205.00 45.00" xmlns="http://www.w3.org/2000/svg" xmlns:xlink="http://www.w3.org/1999/xlink">
<g id="graph0" class="graph" transform="scale(1 1) rotate(0) translate(4 41)">
<title>sharp::thetae</title>
<!-- Node1 -->
<g id="node1" class="node">
<title>Node1</title>
<g id="a_node1"><a xlink:title="Compute the equivalent potential temperature.">
<polygon fill="#999999" stroke="#666666" points="197,-19 116,-19 116,0 197,0 197,-19"/>
<text text-anchor="middle" x="156.5" y="-7" font-family="Helvetica,sans-Serif" font-size="10.00">sharp::thetae</text>
</a>
</g>
</g>
<!-- Node1&#45;&gt;Node1 -->
<g id="edge2" class="edge">
<title>Node1&#45;&gt;Node1</title>
<path fill="none" stroke="#63b8ff" d="M177.98,-28.55C176.55,-33.38 169.39,-37 156.5,-37 135.88,-37 129.92,-27.73 138.62,-19.08"/>
<polygon fill="#63b8ff" stroke="#63b8ff" points="181.2,-27.19 174.38,-19.08 174.66,-29.67 181.2,-27.19"/>
</g>
<!-- Node2 -->
<g id="node2" class="node">
<title>Node2</title>
<g id="a_node2"><a xlink:href="thermo__wrap_8cpp.html#a6fa159149e40e0b462647cd423be313f" target="_top" xlink:title=" ">
<polygon fill="white" stroke="#666666" points="80,-19 0,-19 0,0 80,0 80,-19"/>
<text text-anchor="middle" x="40" y="-7" font-family="Helvetica,sans-Serif" font-size="10.00">sharp_thetae</text>
</a>
</g>
</g>
<!-- Node1&#45;&gt;Node2 -->
<g id="edge1" class="edge">
<title>Node1&#45;&gt;Node2</title>
<path fill="none" stroke="#63b8ff" d="M105.59,-9.5C97.12,-9.5 88.42,-9.5 80.27,-9.5"/>
<polygon fill="#63b8ff" stroke="#63b8ff" points="105.77,-13 115.77,-9.5 105.77,-6 105.77,-13"/>
</g>
</g>
</svg>
