<?xml version="1.0" encoding="UTF-8" standalone="no"?>
<!DOCTYPE svg PUBLIC "-//W3C//DTD SVG 1.1//EN"
 "http://www.w3.org/Graphics/SVG/1.1/DTD/svg11.dtd">
<!-- Generated by graphviz version 2.43.0 (0)
 -->
<!-- Title: sharp::interp_pressure Pages: 1 -->
<svg width="637pt" height="517pt"
 viewBox="0.00 0.00 637.00 516.50" xmlns="http://www.w3.org/2000/svg" xmlns:xlink="http://www.w3.org/1999/xlink">
<g id="graph0" class="graph" transform="scale(1 1) rotate(0) translate(4 512.5)">
<title>sharp::interp_pressure</title>
<!-- Node1 -->
<g id="node1" class="node">
<title>Node1</title>
<g id="a_node1"><a xlink:title="Linearly interpolate a data field to a requested pressure level.">
<polygon fill="#999999" stroke="#666666" points="629,-212 504,-212 504,-193 629,-193 629,-212"/>
<text text-anchor="middle" x="566.5" y="-200" font-family="Helvetica,sans-Serif" font-size="10.00">sharp::interp_pressure</text>
</a>
</g>
</g>
<!-- Node2 -->
<g id="node2" class="node">
<title>Node2</title>
<g id="a_node2"><a xlink:href="namespacesharp.html#a72bbdc4cfe7895dd51981902ac9fc822" target="_top" xlink:title="Computes Entrainment CAPE using a previously lifted parcel.">
<polygon fill="white" stroke="#666666" points="138,-379 0,-379 0,-360 138,-360 138,-379"/>
<text text-anchor="middle" x="69" y="-367" font-family="Helvetica,sans-Serif" font-size="10.00">sharp::entrainment_cape</text>
</a>
</g>
</g>
<!-- Node1&#45;&gt;Node2 -->
<g id="edge1" class="edge">
<title>Node1&#45;&gt;Node2</title>
<path fill="none" stroke="#63b8ff" d="M556.5,-221.46C542.08,-249.52 511.01,-301.49 468,-326.5 365.11,-386.33 221.78,-385.35 138.15,-378.15"/>
<polygon fill="#63b8ff" stroke="#63b8ff" points="559.73,-222.81 561.04,-212.29 553.46,-219.7 559.73,-222.81"/>
</g>
<!-- Node3 -->
<g id="node3" class="node">
<title>Node3</title>
<g id="a_node3"><a xlink:href="structsharp_1_1Parcel.html#a8a311e09b1d46a829212da94cf181537" target="_top" xlink:title="Find the LFC and EL that bounds the layer with the maximum CAPE.">
<polygon fill="white" stroke="#666666" points="457.5,-265.5 354.5,-265.5 354.5,-235.5 457.5,-235.5 457.5,-265.5"/>
<text text-anchor="start" x="362.5" y="-253.5" font-family="Helvetica,sans-Serif" font-size="10.00">sharp::Parcel::find</text>
<text text-anchor="middle" x="406" y="-242.5" font-family="Helvetica,sans-Serif" font-size="10.00">_lfc_el</text>
</a>
</g>
</g>
<!-- Node1&#45;&gt;Node3 -->
<g id="edge2" class="edge">
<title>Node1&#45;&gt;Node3</title>
<path fill="none" stroke="#63b8ff" d="M524.08,-215.04C503.46,-221.29 478.39,-228.88 456.74,-235.44"/>
<polygon fill="#63b8ff" stroke="#63b8ff" points="525.25,-218.35 533.81,-212.1 523.22,-211.65 525.25,-218.35"/>
</g>
<!-- Node7 -->
<g id="node7" class="node">
<title>Node7</title>
<g id="a_node7"><a xlink:href="namespacesharp.html#a80858337a63be77bafadbb343d6e4931" target="_top" xlink:title="Computes the Storm Relative Helicity (SRH) over a given layer.">
<polygon fill="white" stroke="#666666" points="449,-102 363,-102 363,-83 449,-83 449,-102"/>
<text text-anchor="middle" x="406" y="-90" font-family="Helvetica,sans-Serif" font-size="10.00">sharp::helicity</text>
</a>
</g>
</g>
<!-- Node1&#45;&gt;Node7 -->
<g id="edge6" class="edge">
<title>Node1&#45;&gt;Node7</title>
<path fill="none" stroke="#63b8ff" d="M549.29,-185.72C530.89,-167.38 499.36,-138.03 468,-118.5 457.54,-111.99 445.17,-106.38 434.31,-102.05"/>
<polygon fill="#63b8ff" stroke="#63b8ff" points="546.81,-188.19 556.33,-192.84 551.79,-183.27 546.81,-188.19"/>
</g>
<!-- Node9 -->
<g id="node9" class="node">
<title>Node9</title>
<g id="a_node9"><a xlink:href="namespacesharp.html#a7acec1642f27591dc988bf9e48b4612d" target="_top" xlink:title="Returns a trapezoidal integration of the given layer.">
<polygon fill="white" stroke="#666666" points="468,-427.5 344,-427.5 344,-397.5 468,-397.5 468,-427.5"/>
<text text-anchor="start" x="352" y="-415.5" font-family="Helvetica,sans-Serif" font-size="10.00">sharp::integrate_layer</text>
<text text-anchor="middle" x="406" y="-404.5" font-family="Helvetica,sans-Serif" font-size="10.00">_trapz</text>
</a>
</g>
</g>
<!-- Node1&#45;&gt;Node9 -->
<g id="edge8" class="edge">
<title>Node1&#45;&gt;Node9</title>
<path fill="none" stroke="#63b8ff" d="M559.6,-221.86C547.71,-257.97 517.69,-336.25 468,-383.5 462.22,-388.99 455.21,-393.62 448.03,-397.44"/>
<polygon fill="#63b8ff" stroke="#63b8ff" points="563.01,-222.67 562.71,-212.08 556.34,-220.55 563.01,-222.67"/>
</g>
<!-- Node13 -->
<g id="node13" class="node">
<title>Node13</title>
<g id="a_node13"><a xlink:href="namespacesharp.html#a646b65095b84511b75f6a4a81e545e80" target="_top" xlink:title="Template for min/max value over sharp::PressureLayer or sharp::HeightLayer.">
<polygon fill="white" stroke="#666666" points="466,-60 346,-60 346,-41 466,-41 466,-60"/>
<text text-anchor="middle" x="406" y="-48" font-family="Helvetica,sans-Serif" font-size="10.00">sharp::layer_minmax</text>
</a>
</g>
</g>
<!-- Node1&#45;&gt;Node13 -->
<g id="edge15" class="edge">
<title>Node1&#45;&gt;Node13</title>
<path fill="none" stroke="#63b8ff" d="M555.63,-183.74C540.3,-156.24 508.29,-104.96 468,-74.5 459.92,-68.39 450.09,-63.63 440.69,-60.02"/>
<polygon fill="#63b8ff" stroke="#63b8ff" points="552.66,-185.6 560.51,-192.71 558.81,-182.25 552.66,-185.6"/>
</g>
<!-- Node16 -->
<g id="node16" class="node">
<title>Node16</title>
<g id="a_node16"><a xlink:href="namespacesharp.html#a3c8b9022103d067f30281d68fa81cbda" target="_top" xlink:title="Compute the mean wind over the given sharp::PressureLayer.">
<polygon fill="white" stroke="#666666" points="459,-317 353,-317 353,-298 459,-298 459,-317"/>
<text text-anchor="middle" x="406" y="-305" font-family="Helvetica,sans-Serif" font-size="10.00">sharp::mean_wind</text>
</a>
</g>
</g>
<!-- Node1&#45;&gt;Node16 -->
<g id="edge18" class="edge">
<title>Node1&#45;&gt;Node16</title>
<path fill="none" stroke="#63b8ff" d="M545.53,-218.54C526.22,-233.73 495.88,-256.79 468,-274.5 454.48,-283.09 438.55,-291.66 426.35,-297.91"/>
<polygon fill="#63b8ff" stroke="#63b8ff" points="547.91,-221.11 553.58,-212.16 543.57,-215.63 547.91,-221.11"/>
</g>
<!-- Node18 -->
<g id="node18" class="node">
<title>Node18</title>
<g id="a_node18"><a xlink:href="namespacesharp.html#a31d937d833aa80555a0a78890c370f42" target="_top" xlink:title="Estimates supercell storm motion by using the Bunkers et al. 2014 method.">
<polygon fill="white" stroke="#666666" points="128,-185.5 10,-185.5 10,-155.5 128,-155.5 128,-185.5"/>
<text text-anchor="start" x="18" y="-173.5" font-family="Helvetica,sans-Serif" font-size="10.00">sharp::storm_motion</text>
<text text-anchor="middle" x="69" y="-162.5" font-family="Helvetica,sans-Serif" font-size="10.00">_bunkers</text>
</a>
</g>
</g>
<!-- Node1&#45;&gt;Node18 -->
<g id="edge27" class="edge">
<title>Node1&#45;&gt;Node18</title>
<path fill="none" stroke="#63b8ff" d="M524.45,-190.3C507.18,-185.72 486.78,-181.02 468,-178.5 348.13,-162.44 206.16,-164.6 128.32,-167.57"/>
<polygon fill="#63b8ff" stroke="#63b8ff" points="523.65,-193.71 534.22,-192.97 525.49,-186.96 523.65,-193.71"/>
</g>
<!-- Node19 -->
<g id="node19" class="node">
<title>Node19</title>
<g id="a_node19"><a xlink:href="namespacesharp.html#a31da980f398c9f6a5960ddf868101a94" target="_top" xlink:title="Converts a sharp::PressureLayer to a sharp::HeightLayer.">
<polygon fill="white" stroke="#666666" points="467,-217.5 345,-217.5 345,-187.5 467,-187.5 467,-217.5"/>
<text text-anchor="start" x="353" y="-205.5" font-family="Helvetica,sans-Serif" font-size="10.00">sharp::pressure_layer</text>
<text text-anchor="middle" x="406" y="-194.5" font-family="Helvetica,sans-Serif" font-size="10.00">_to_height</text>
</a>
</g>
</g>
<!-- Node1&#45;&gt;Node19 -->
<g id="edge22" class="edge">
<title>Node1&#45;&gt;Node19</title>
<path fill="none" stroke="#63b8ff" d="M493.75,-202.5C484.81,-202.5 475.74,-202.5 467.01,-202.5"/>
<polygon fill="#63b8ff" stroke="#63b8ff" points="493.77,-206 503.77,-202.5 493.77,-199 493.77,-206"/>
</g>
<!-- Node21 -->
<g id="node21" class="node">
<title>Node21</title>
<g id="a_node21"><a xlink:href="namespacesharp.html#a099a4575acc27d6e10f9dfb69bc315a1" target="_top" xlink:title="Compue the wind shear for a given layer.">
<polygon fill="white" stroke="#666666" points="458.5,-23 353.5,-23 353.5,-4 458.5,-4 458.5,-23"/>
<text text-anchor="middle" x="406" y="-11" font-family="Helvetica,sans-Serif" font-size="10.00">sharp::wind_shear</text>
</a>
</g>
</g>
<!-- Node1&#45;&gt;Node21 -->
<g id="edge28" class="edge">
<title>Node1&#45;&gt;Node21</title>
<path fill="none" stroke="#63b8ff" d="M559.68,-183.17C548.08,-147.95 518.75,-73.21 468,-32.5 463.15,-28.61 457.51,-25.52 451.65,-23.05"/>
<polygon fill="#63b8ff" stroke="#63b8ff" points="556.36,-184.27 562.71,-192.75 563.03,-182.16 556.36,-184.27"/>
</g>
<!-- Node4 -->
<g id="node4" class="node">
<title>Node4</title>
<g id="a_node4"><a xlink:href="structsharp_1_1Parcel.html#a0560bd193b2d2d6bc6b08baa7463fba4" target="_top" xlink:title="Compute CAPE and CINH for a previously lifted sharp::Parcel.">
<polygon fill="white" stroke="#666666" points="308,-255 174,-255 174,-236 308,-236 308,-255"/>
<text text-anchor="middle" x="241" y="-243" font-family="Helvetica,sans-Serif" font-size="10.00">sharp::Parcel::cape_cinh</text>
</a>
</g>
</g>
<!-- Node3&#45;&gt;Node4 -->
<g id="edge3" class="edge">
<title>Node3&#45;&gt;Node4</title>
<path fill="none" stroke="#63b8ff" d="M344.2,-248.63C332.47,-248.28 320.14,-247.9 308.25,-247.53"/>
<polygon fill="#63b8ff" stroke="#63b8ff" points="344.22,-252.14 354.32,-248.95 344.43,-245.14 344.22,-252.14"/>
</g>
<!-- Node5 -->
<g id="node5" class="node">
<title>Node5</title>
<g id="a_node5"><a xlink:href="namespacesharp.html#a2e6b7cd4a3594a8f2c2050b0e4784cce" target="_top" xlink:title="Computes the Effective Inflow Layer for a given atmospheric sounding.">
<polygon fill="white" stroke="#666666" points="132.5,-247.5 5.5,-247.5 5.5,-217.5 132.5,-217.5 132.5,-247.5"/>
<text text-anchor="start" x="13.5" y="-235.5" font-family="Helvetica,sans-Serif" font-size="10.00">sharp::effective_inflow</text>
<text text-anchor="middle" x="69" y="-224.5" font-family="Helvetica,sans-Serif" font-size="10.00">_layer</text>
</a>
</g>
</g>
<!-- Node4&#45;&gt;Node5 -->
<g id="edge4" class="edge">
<title>Node4&#45;&gt;Node5</title>
<path fill="none" stroke="#63b8ff" d="M163.55,-239.65C153.23,-238.86 142.74,-238.06 132.69,-237.29"/>
<polygon fill="#63b8ff" stroke="#63b8ff" points="163.55,-243.16 173.79,-240.44 164.08,-236.18 163.55,-243.16"/>
</g>
<!-- Node6 -->
<g id="node6" class="node">
<title>Node6</title>
<g id="a_node6"><a xlink:href="structsharp_1_1Parcel.html#aa258d27992d22d8b80cb221e6e2a6c19" target="_top" xlink:title="Construct and return a most&#45;unstable Parcel.">
<polygon fill="white" stroke="#666666" points="124,-295.5 14,-295.5 14,-265.5 124,-265.5 124,-295.5"/>
<text text-anchor="start" x="22" y="-283.5" font-family="Helvetica,sans-Serif" font-size="10.00">sharp::Parcel::most</text>
<text text-anchor="middle" x="69" y="-272.5" font-family="Helvetica,sans-Serif" font-size="10.00">_unstable_parcel</text>
</a>
</g>
</g>
<!-- Node4&#45;&gt;Node6 -->
<g id="edge5" class="edge">
<title>Node4&#45;&gt;Node6</title>
<path fill="none" stroke="#63b8ff" d="M183.49,-257.13C164.4,-261.07 143.14,-265.44 124.23,-269.34"/>
<polygon fill="#63b8ff" stroke="#63b8ff" points="184.46,-260.51 193.55,-255.06 183.05,-253.65 184.46,-260.51"/>
</g>
<!-- Node8 -->
<g id="node8" class="node">
<title>Node8</title>
<g id="a_node8"><a xlink:href="namespacesharp.html#ab89a7e3555a52f0fd9f4086d5aba7037" target="_top" xlink:title=" ">
<polygon fill="white" stroke="#666666" points="303.5,-104.5 178.5,-104.5 178.5,-74.5 303.5,-74.5 303.5,-104.5"/>
<text text-anchor="start" x="186.5" y="-92.5" font-family="Helvetica,sans-Serif" font-size="10.00">sharp::energy_helicity</text>
<text text-anchor="middle" x="241" y="-81.5" font-family="Helvetica,sans-Serif" font-size="10.00">_index</text>
</a>
</g>
</g>
<!-- Node7&#45;&gt;Node8 -->
<g id="edge7" class="edge">
<title>Node7&#45;&gt;Node8</title>
<path fill="none" stroke="#63b8ff" d="M352.59,-91.54C336.96,-91.25 319.69,-90.93 303.53,-90.63"/>
<polygon fill="#63b8ff" stroke="#63b8ff" points="352.54,-95.03 362.6,-91.72 352.67,-88.04 352.54,-95.03"/>
</g>
<!-- Node9&#45;&gt;Node2 -->
<g id="edge10" class="edge">
<title>Node9&#45;&gt;Node2</title>
<path fill="none" stroke="#63b8ff" d="M333.6,-403.7C287.95,-398.04 227.47,-390.46 174,-383.5 162.44,-382 150.16,-380.37 138.24,-378.77"/>
<polygon fill="#63b8ff" stroke="#63b8ff" points="333.34,-407.2 343.7,-404.96 334.21,-400.25 333.34,-407.2"/>
</g>
<!-- Node9&#45;&gt;Node4 -->
<g id="edge9" class="edge">
<title>Node9&#45;&gt;Node4</title>
<path fill="none" stroke="#63b8ff" d="M386.32,-389.54C367.39,-366.7 336.85,-331.05 308,-302.5 290.14,-284.82 267.69,-266.1 254.11,-255.13"/>
<polygon fill="#63b8ff" stroke="#63b8ff" points="383.68,-391.84 392.74,-397.33 389.08,-387.39 383.68,-391.84"/>
</g>
<!-- Node10 -->
<g id="node10" class="node">
<title>Node10</title>
<g id="a_node10"><a xlink:href="namespacesharp.html#a298e2c96c389f2c5177d3626c908927e" target="_top" xlink:title="Computes the mass&#45;weighted mean value of a field over a given pressure layer.">
<polygon fill="white" stroke="#666666" points="294.5,-503 187.5,-503 187.5,-484 294.5,-484 294.5,-503"/>
<text text-anchor="middle" x="241" y="-491" font-family="Helvetica,sans-Serif" font-size="10.00">sharp::layer_mean</text>
</a>
</g>
</g>
<!-- Node9&#45;&gt;Node10 -->
<g id="edge11" class="edge">
<title>Node9&#45;&gt;Node10</title>
<path fill="none" stroke="#63b8ff" d="M376.82,-433.61C358.09,-446.83 332.53,-463.41 308,-474.5 299.85,-478.18 290.81,-481.34 282.1,-483.96"/>
<polygon fill="#63b8ff" stroke="#63b8ff" points="379.08,-436.29 385.17,-427.61 375,-430.6 379.08,-436.29"/>
</g>
<!-- Node12 -->
<g id="node12" class="node">
<title>Node12</title>
<g id="a_node12"><a xlink:href="namespacesharp.html#af910931fdd9e0fe7d63ba7446743e354" target="_top" xlink:title="Computes the precipitable water vapor content over a layer.">
<polygon fill="white" stroke="#666666" points="294.5,-465.5 187.5,-465.5 187.5,-435.5 294.5,-435.5 294.5,-465.5"/>
<text text-anchor="start" x="195.5" y="-453.5" font-family="Helvetica,sans-Serif" font-size="10.00">sharp::precipitable</text>
<text text-anchor="middle" x="241" y="-442.5" font-family="Helvetica,sans-Serif" font-size="10.00">_water</text>
</a>
</g>
</g>
<!-- Node9&#45;&gt;Node12 -->
<g id="edge14" class="edge">
<title>Node9&#45;&gt;Node12</title>
<path fill="none" stroke="#63b8ff" d="M333.87,-429.08C320.71,-432.15 307.17,-435.31 294.68,-438.22"/>
<polygon fill="#63b8ff" stroke="#63b8ff" points="334.9,-432.44 343.84,-426.76 333.31,-425.62 334.9,-432.44"/>
</g>
<!-- Node10&#45;&gt;Node2 -->
<g id="edge12" class="edge">
<title>Node10&#45;&gt;Node2</title>
<path fill="none" stroke="#63b8ff" d="M185.54,-480.29C181.53,-478.58 177.63,-476.66 174,-474.5 130.3,-448.59 91.99,-399.95 76.87,-379.24"/>
<polygon fill="#63b8ff" stroke="#63b8ff" points="184.45,-483.62 195.04,-483.92 186.95,-477.08 184.45,-483.62"/>
</g>
<!-- Node11 -->
<g id="node11" class="node">
<title>Node11</title>
<g id="a_node11"><a xlink:href="structsharp_1_1Parcel.html#a1bf670e79f35a1ce8c904b7ead32ccbe" target="_top" xlink:title="Construct and return a mixed&#45;layer Parcel.">
<polygon fill="white" stroke="#666666" points="126.5,-508.5 11.5,-508.5 11.5,-478.5 126.5,-478.5 126.5,-508.5"/>
<text text-anchor="start" x="19.5" y="-496.5" font-family="Helvetica,sans-Serif" font-size="10.00">sharp::Parcel::mixed</text>
<text text-anchor="middle" x="69" y="-485.5" font-family="Helvetica,sans-Serif" font-size="10.00">_layer_parcel</text>
</a>
</g>
</g>
<!-- Node10&#45;&gt;Node11 -->
<g id="edge13" class="edge">
<title>Node10&#45;&gt;Node11</title>
<path fill="none" stroke="#63b8ff" d="M177.04,-493.5C160.53,-493.5 142.82,-493.5 126.66,-493.5"/>
<polygon fill="#63b8ff" stroke="#63b8ff" points="177.14,-497 187.14,-493.5 177.14,-490 177.14,-497"/>
</g>
<!-- Node14 -->
<g id="node14" class="node">
<title>Node14</title>
<g id="a_node14"><a xlink:href="namespacesharp.html#a6170e3f412ab95b3ba8d9a93ae55dc67" target="_top" xlink:title="Returns the maximim value in the given layer.">
<polygon fill="white" stroke="#666666" points="291.5,-19 190.5,-19 190.5,0 291.5,0 291.5,-19"/>
<text text-anchor="middle" x="241" y="-7" font-family="Helvetica,sans-Serif" font-size="10.00">sharp::layer_max</text>
</a>
</g>
</g>
<!-- Node13&#45;&gt;Node14 -->
<g id="edge16" class="edge">
<title>Node13&#45;&gt;Node14</title>
<path fill="none" stroke="#63b8ff" d="M357.32,-38.51C332.65,-32.3 302.96,-24.83 279.88,-19.03"/>
<polygon fill="#63b8ff" stroke="#63b8ff" points="356.64,-41.95 367.19,-40.99 358.35,-35.16 356.64,-41.95"/>
</g>
<!-- Node15 -->
<g id="node15" class="node">
<title>Node15</title>
<g id="a_node15"><a xlink:href="namespacesharp.html#a01a9880c937f63e551893797253da4f7" target="_top" xlink:title="Returns the minimum value in the given layer.">
<polygon fill="white" stroke="#666666" points="290,-56 192,-56 192,-37 290,-37 290,-56"/>
<text text-anchor="middle" x="241" y="-44" font-family="Helvetica,sans-Serif" font-size="10.00">sharp::layer_min</text>
</a>
</g>
</g>
<!-- Node13&#45;&gt;Node15 -->
<g id="edge17" class="edge">
<title>Node13&#45;&gt;Node15</title>
<path fill="none" stroke="#63b8ff" d="M335.26,-48.79C320.02,-48.41 304.21,-48.03 290.05,-47.68"/>
<polygon fill="#63b8ff" stroke="#63b8ff" points="335.61,-52.3 345.69,-49.04 335.78,-45.3 335.61,-52.3"/>
</g>
<!-- Node17 -->
<g id="node17" class="node">
<title>Node17</title>
<g id="a_node17"><a xlink:href="namespacesharp.html#a74a735636c932467b4d2ced544e0cb51" target="_top" xlink:title="Estimates supercell storm motion using the Bunkers et al. 2000 method.">
<polygon fill="white" stroke="#666666" points="300,-341.5 182,-341.5 182,-311.5 300,-311.5 300,-341.5"/>
<text text-anchor="start" x="190" y="-329.5" font-family="Helvetica,sans-Serif" font-size="10.00">sharp::storm_motion</text>
<text text-anchor="middle" x="241" y="-318.5" font-family="Helvetica,sans-Serif" font-size="10.00">_bunkers</text>
</a>
</g>
</g>
<!-- Node16&#45;&gt;Node17 -->
<g id="edge19" class="edge">
<title>Node16&#45;&gt;Node17</title>
<path fill="none" stroke="#63b8ff" d="M342.9,-314.74C328.82,-316.38 313.93,-318.12 300.03,-319.74"/>
<polygon fill="#63b8ff" stroke="#63b8ff" points="343.45,-318.2 352.98,-313.56 342.64,-311.25 343.45,-318.2"/>
</g>
<!-- Node17&#45;&gt;Node2 -->
<g id="edge20" class="edge">
<title>Node17&#45;&gt;Node2</title>
<path fill="none" stroke="#63b8ff" d="M172.04,-343.69C150.15,-349.23 126.68,-355.16 107.77,-359.95"/>
<polygon fill="#63b8ff" stroke="#63b8ff" points="173.13,-347.02 181.97,-341.18 171.42,-340.24 173.13,-347.02"/>
</g>
<!-- Node17&#45;&gt;Node18 -->
<g id="edge21" class="edge">
<title>Node17&#45;&gt;Node18</title>
<path fill="none" stroke="#63b8ff" d="M213.89,-304.66C201.13,-293.35 185.99,-278.91 174,-264.5 155.08,-241.76 159.56,-228.77 138,-208.5 128.34,-199.42 116.12,-191.73 104.7,-185.68"/>
<polygon fill="#63b8ff" stroke="#63b8ff" points="211.63,-307.34 221.47,-311.27 216.23,-302.06 211.63,-307.34"/>
</g>
<!-- Node19&#45;&gt;Node2 -->
<g id="edge24" class="edge">
<title>Node19&#45;&gt;Node2</title>
<path fill="none" stroke="#63b8ff" d="M350.7,-222.36C348.39,-223.67 346.15,-225.05 344,-226.5 324.72,-239.51 327.9,-252.45 308,-264.5 255.04,-296.56 230.41,-277.01 174,-302.5 138.38,-318.59 100.84,-345.67 82.12,-359.98"/>
<polygon fill="#63b8ff" stroke="#63b8ff" points="352.59,-225.32 359.87,-217.63 349.38,-219.1 352.59,-225.32"/>
</g>
<!-- Node19&#45;&gt;Node4 -->
<g id="edge23" class="edge">
<title>Node19&#45;&gt;Node4</title>
<path fill="none" stroke="#63b8ff" d="M338.08,-220.15C317.64,-225.55 295.94,-231.27 278.34,-235.91"/>
<polygon fill="#63b8ff" stroke="#63b8ff" points="339.21,-223.47 347.99,-217.54 337.43,-216.71 339.21,-223.47"/>
</g>
<!-- Node19&#45;&gt;Node18 -->
<g id="edge26" class="edge">
<title>Node19&#45;&gt;Node18</title>
<path fill="none" stroke="#63b8ff" d="M334.69,-193.47C325.71,-192.42 316.65,-191.4 308,-190.5 246.75,-184.14 176.48,-178.43 128.26,-174.75"/>
<polygon fill="#63b8ff" stroke="#63b8ff" points="334.42,-196.96 344.76,-194.68 335.25,-190.01 334.42,-196.96"/>
</g>
<!-- Node20 -->
<g id="node20" class="node">
<title>Node20</title>
<g id="a_node20"><a xlink:href="namespacesharp.html#aa4e86da659bfca2eae1f0baddb84a303" target="_top" xlink:title="compute the lapse rate over the given sharp::PressureLayer">
<polygon fill="white" stroke="#666666" points="291.5,-218 190.5,-218 190.5,-199 291.5,-199 291.5,-218"/>
<text text-anchor="middle" x="241" y="-206" font-family="Helvetica,sans-Serif" font-size="10.00">sharp::lapse_rate</text>
</a>
</g>
</g>
<!-- Node19&#45;&gt;Node20 -->
<g id="edge25" class="edge">
<title>Node19&#45;&gt;Node20</title>
<path fill="none" stroke="#63b8ff" d="M334.38,-205.1C319.96,-205.63 305.08,-206.18 291.59,-206.67"/>
<polygon fill="#63b8ff" stroke="#63b8ff" points="334.9,-208.58 344.77,-204.72 334.65,-201.59 334.9,-208.58"/>
</g>
</g>
</svg>
