<?xml version="1.0" encoding="UTF-8" standalone="no"?>
<!DOCTYPE svg PUBLIC "-//W3C//DTD SVG 1.1//EN"
 "http://www.w3.org/Graphics/SVG/1.1/DTD/svg11.dtd">
<!-- Generated by graphviz version 2.43.0 (0)
 -->
<!-- Title: sharp::__lerp Pages: 1 -->
<svg width="870pt" height="676pt"
 viewBox="0.00 0.00 870.00 676.40" xmlns="http://www.w3.org/2000/svg" xmlns:xlink="http://www.w3.org/1999/xlink">
<g id="graph0" class="graph" transform="scale(1 1) rotate(0) translate(4 672.4)">
<title>sharp::__lerp</title>
<!-- Node1 -->
<g id="node1" class="node">
<title>Node1</title>
<g id="a_node1"><a xlink:title="Linearly interpolates between a and b with distance t.">
<polygon fill="#999999" stroke="#666666" points="862,-393.26 783,-393.26 783,-374.26 862,-374.26 862,-393.26"/>
<text text-anchor="middle" x="822.5" y="-381.26" font-family="Helvetica,sans-Serif" font-size="10.00">sharp::__lerp</text>
</a>
</g>
</g>
<!-- Node2 -->
<g id="node2" class="node">
<title>Node2</title>
<g id="a_node2"><a xlink:href="namespacesharp.html#a0bf533560780fdb77bc3656db8d89208" target="_top" xlink:title="Linearly interpolates between a and b with distance t.">
<polygon fill="white" stroke="#666666" points="747,-393.26 679,-393.26 679,-374.26 747,-374.26 747,-393.26"/>
<text text-anchor="middle" x="713" y="-381.26" font-family="Helvetica,sans-Serif" font-size="10.00">sharp::lerp</text>
</a>
</g>
</g>
<!-- Node1&#45;&gt;Node2 -->
<g id="edge1" class="edge">
<title>Node1&#45;&gt;Node2</title>
<path fill="none" stroke="#63b8ff" d="M772.94,-383.76C764.25,-383.76 755.39,-383.76 747.26,-383.76"/>
<polygon fill="#63b8ff" stroke="#63b8ff" points="772.99,-387.26 782.99,-383.76 772.99,-380.26 772.99,-387.26"/>
</g>
<!-- Node3 -->
<g id="node3" class="node">
<title>Node3</title>
<g id="a_node3"><a xlink:href="namespacesharp.html#a8d4ab67c5360d24b017d262e0891002d" target="_top" xlink:title=" ">
<polygon fill="white" stroke="#666666" points="637.5,-449.26 509.5,-449.26 509.5,-430.26 637.5,-430.26 637.5,-449.26"/>
<text text-anchor="middle" x="573.5" y="-437.26" font-family="Helvetica,sans-Serif" font-size="10.00">sharp::find_first_height</text>
</a>
</g>
</g>
<!-- Node2&#45;&gt;Node3 -->
<g id="edge2" class="edge">
<title>Node2&#45;&gt;Node3</title>
<path fill="none" stroke="#63b8ff" d="M688.42,-398.65C675.41,-406.37 658.74,-415.47 643,-421.76 634.89,-425 626.01,-427.83 617.41,-430.22"/>
<polygon fill="#63b8ff" stroke="#63b8ff" points="690.45,-401.51 697.18,-393.33 686.82,-395.52 690.45,-401.51"/>
</g>
<!-- Node4 -->
<g id="node4" class="node">
<title>Node4</title>
<g id="a_node4"><a xlink:href="namespacesharp.html#a881c7f86e5a778493701d1ad695976f5" target="_top" xlink:title=" ">
<polygon fill="white" stroke="#666666" points="643,-412.26 504,-412.26 504,-393.26 643,-393.26 643,-412.26"/>
<text text-anchor="middle" x="573.5" y="-400.26" font-family="Helvetica,sans-Serif" font-size="10.00">sharp::find_first_pressure</text>
</a>
</g>
</g>
<!-- Node2&#45;&gt;Node4 -->
<g id="edge3" class="edge">
<title>Node2&#45;&gt;Node4</title>
<path fill="none" stroke="#63b8ff" d="M668.7,-389.74C660.53,-390.87 651.8,-392.08 643.07,-393.29"/>
<polygon fill="#63b8ff" stroke="#63b8ff" points="669.29,-393.2 678.72,-388.36 668.33,-386.26 669.29,-393.2"/>
</g>
<!-- Node5 -->
<g id="node5" class="node">
<title>Node5</title>
<g id="a_node5"><a xlink:href="namespacesharp.html#ae8240f026498ad2775633a8d0dcf100d" target="_top" xlink:title="Linearly interpolate a data field to a requested height level.">
<polygon fill="white" stroke="#666666" points="630.5,-232.26 516.5,-232.26 516.5,-213.26 630.5,-213.26 630.5,-232.26"/>
<text text-anchor="middle" x="573.5" y="-220.26" font-family="Helvetica,sans-Serif" font-size="10.00">sharp::interp_height</text>
</a>
</g>
</g>
<!-- Node2&#45;&gt;Node5 -->
<g id="edge4" class="edge">
<title>Node2&#45;&gt;Node5</title>
<path fill="none" stroke="#63b8ff" d="M697.27,-366.51C668.45,-332.77 605.47,-259.02 582.82,-232.5"/>
<polygon fill="#63b8ff" stroke="#63b8ff" points="694.65,-368.84 703.81,-374.17 699.98,-364.29 694.65,-368.84"/>
</g>
<!-- Node27 -->
<g id="node27" class="node">
<title>Node27</title>
<g id="a_node27"><a xlink:href="namespacesharp.html#a55e4f8ee4ff8a4a30d7b3f3d92a41c75" target="_top" xlink:title="Linearly interpolate a data field to a requested pressure level.">
<polygon fill="white" stroke="#666666" points="636,-375.26 511,-375.26 511,-356.26 636,-356.26 636,-375.26"/>
<text text-anchor="middle" x="573.5" y="-363.26" font-family="Helvetica,sans-Serif" font-size="10.00">sharp::interp_pressure</text>
</a>
</g>
</g>
<!-- Node2&#45;&gt;Node27 -->
<g id="edge30" class="edge">
<title>Node2&#45;&gt;Node27</title>
<path fill="none" stroke="#63b8ff" d="M668.74,-378.1C658.42,-376.75 647.21,-375.28 636.24,-373.84"/>
<polygon fill="#63b8ff" stroke="#63b8ff" points="668.35,-381.58 678.72,-379.4 669.25,-374.63 668.35,-381.58"/>
</g>
<!-- Node6 -->
<g id="node6" class="node">
<title>Node6</title>
<g id="a_node6"><a xlink:href="namespacesharp.html#a72bbdc4cfe7895dd51981902ac9fc822" target="_top" xlink:title="Computes Entrainment CAPE using a previously lifted parcel.">
<polygon fill="white" stroke="#666666" points="138,-332.26 0,-332.26 0,-313.26 138,-313.26 138,-332.26"/>
<text text-anchor="middle" x="69" y="-320.26" font-family="Helvetica,sans-Serif" font-size="10.00">sharp::entrainment_cape</text>
</a>
</g>
</g>
<!-- Node5&#45;&gt;Node6 -->
<g id="edge5" class="edge">
<title>Node5&#45;&gt;Node6</title>
<path fill="none" stroke="#63b8ff" d="M559.53,-205.13C541.54,-181.92 506.81,-141.42 468,-118.76 353.85,-52.1 284.02,-0.48 174,-73.76 152.12,-88.34 88.63,-268.84 73.34,-313.04"/>
<polygon fill="#63b8ff" stroke="#63b8ff" points="556.75,-207.25 565.58,-213.1 562.32,-203.02 556.75,-207.25"/>
</g>
<!-- Node7 -->
<g id="node7" class="node">
<title>Node7</title>
<g id="a_node7"><a xlink:href="namespacesharp.html#ab77e344c7462c9615b0ddac228bc2193" target="_top" xlink:title="Converts a sharp::HeightLayer to a sharp::PressureLayer.">
<polygon fill="white" stroke="#666666" points="461,-157.76 351,-157.76 351,-127.76 461,-127.76 461,-157.76"/>
<text text-anchor="start" x="359" y="-145.76" font-family="Helvetica,sans-Serif" font-size="10.00">sharp::height_layer</text>
<text text-anchor="middle" x="406" y="-134.76" font-family="Helvetica,sans-Serif" font-size="10.00">_to_pressure</text>
</a>
</g>
</g>
<!-- Node5&#45;&gt;Node7 -->
<g id="edge6" class="edge">
<title>Node5&#45;&gt;Node7</title>
<path fill="none" stroke="#63b8ff" d="M546.46,-208.17C525.53,-196.65 495.23,-180.47 468,-167.76 460.74,-164.37 452.89,-160.97 445.31,-157.81"/>
<polygon fill="#63b8ff" stroke="#63b8ff" points="544.93,-211.32 555.37,-213.1 548.32,-205.2 544.93,-211.32"/>
</g>
<!-- Node11 -->
<g id="node11" class="node">
<title>Node11</title>
<g id="a_node11"><a xlink:href="namespacesharp.html#a80858337a63be77bafadbb343d6e4931" target="_top" xlink:title="Computes the Storm Relative Helicity (SRH) over a given layer.">
<polygon fill="white" stroke="#666666" points="449,-269.26 363,-269.26 363,-250.26 449,-250.26 449,-269.26"/>
<text text-anchor="middle" x="406" y="-257.26" font-family="Helvetica,sans-Serif" font-size="10.00">sharp::helicity</text>
</a>
</g>
</g>
<!-- Node5&#45;&gt;Node11 -->
<g id="edge11" class="edge">
<title>Node5&#45;&gt;Node11</title>
<path fill="none" stroke="#63b8ff" d="M520,-234.5C497.15,-239.61 470.73,-245.51 449.19,-250.33"/>
<polygon fill="#63b8ff" stroke="#63b8ff" points="520.88,-237.89 529.88,-232.29 519.36,-231.06 520.88,-237.89"/>
</g>
<!-- Node13 -->
<g id="node13" class="node">
<title>Node13</title>
<g id="a_node13"><a xlink:href="namespacesharp.html#a7acec1642f27591dc988bf9e48b4612d" target="_top" xlink:title="Returns a trapezoidal integration of the given layer.">
<polygon fill="white" stroke="#666666" points="468,-317.76 344,-317.76 344,-287.76 468,-287.76 468,-317.76"/>
<text text-anchor="start" x="352" y="-305.76" font-family="Helvetica,sans-Serif" font-size="10.00">sharp::integrate_layer</text>
<text text-anchor="middle" x="406" y="-294.76" font-family="Helvetica,sans-Serif" font-size="10.00">_trapz</text>
</a>
</g>
</g>
<!-- Node5&#45;&gt;Node13 -->
<g id="edge13" class="edge">
<title>Node5&#45;&gt;Node13</title>
<path fill="none" stroke="#63b8ff" d="M547.28,-237.35C526.37,-249.18 495.7,-265.94 468,-278.76 461.39,-281.82 454.27,-284.85 447.31,-287.67"/>
<polygon fill="#63b8ff" stroke="#63b8ff" points="549.2,-240.29 556.15,-232.29 545.73,-234.21 549.2,-240.29"/>
</g>
<!-- Node18 -->
<g id="node18" class="node">
<title>Node18</title>
<g id="a_node18"><a xlink:href="structsharp_1_1Parcel.html#a1bf670e79f35a1ce8c904b7ead32ccbe" target="_top" xlink:title="Construct and return a mixed&#45;layer Parcel.">
<polygon fill="white" stroke="#666666" points="126.5,-131.76 11.5,-131.76 11.5,-101.76 126.5,-101.76 126.5,-131.76"/>
<text text-anchor="start" x="19.5" y="-119.76" font-family="Helvetica,sans-Serif" font-size="10.00">sharp::Parcel::mixed</text>
<text text-anchor="middle" x="69" y="-108.76" font-family="Helvetica,sans-Serif" font-size="10.00">_layer_parcel</text>
</a>
</g>
</g>
<!-- Node5&#45;&gt;Node18 -->
<g id="edge28" class="edge">
<title>Node5&#45;&gt;Node18</title>
<path fill="none" stroke="#63b8ff" d="M567.06,-203.04C555.64,-165.83 525.37,-85.76 468,-49.76 357.18,19.79 297.61,8.11 174,-34.76 135.77,-48.02 100.95,-81.81 82.92,-101.63"/>
<polygon fill="#63b8ff" stroke="#63b8ff" points="563.84,-204.51 570,-213.12 570.56,-202.54 563.84,-204.51"/>
</g>
<!-- Node20 -->
<g id="node20" class="node">
<title>Node20</title>
<g id="a_node20"><a xlink:href="namespacesharp.html#a43a01274768ee388a983046651a230d3" target="_top" xlink:title="compute the lapse rate over the given sharp::HeightLayer (AGL)">
<polygon fill="white" stroke="#666666" points="456.5,-195.26 355.5,-195.26 355.5,-176.26 456.5,-176.26 456.5,-195.26"/>
<text text-anchor="middle" x="406" y="-183.26" font-family="Helvetica,sans-Serif" font-size="10.00">sharp::lapse_rate</text>
</a>
</g>
</g>
<!-- Node5&#45;&gt;Node20 -->
<g id="edge22" class="edge">
<title>Node5&#45;&gt;Node20</title>
<path fill="none" stroke="#63b8ff" d="M520.08,-211.04C497.41,-205.97 471.23,-200.12 449.76,-195.32"/>
<polygon fill="#63b8ff" stroke="#63b8ff" points="519.36,-214.47 529.88,-213.23 520.88,-207.63 519.36,-214.47"/>
</g>
<!-- Node23 -->
<g id="node23" class="node">
<title>Node23</title>
<g id="a_node23"><a xlink:href="namespacesharp.html#a646b65095b84511b75f6a4a81e545e80" target="_top" xlink:title="Template for min/max value over sharp::PressureLayer or sharp::HeightLayer.">
<polygon fill="white" stroke="#666666" points="466,-394.26 346,-394.26 346,-375.26 466,-375.26 466,-394.26"/>
<text text-anchor="middle" x="406" y="-382.26" font-family="Helvetica,sans-Serif" font-size="10.00">sharp::layer_minmax</text>
</a>
</g>
</g>
<!-- Node5&#45;&gt;Node23 -->
<g id="edge25" class="edge">
<title>Node5&#45;&gt;Node23</title>
<path fill="none" stroke="#63b8ff" d="M563.67,-241.33C548.38,-271.56 514.11,-331.38 468,-364.76 462.04,-369.07 455.1,-372.49 448.08,-375.19"/>
<polygon fill="#63b8ff" stroke="#63b8ff" points="566.84,-242.81 568.12,-232.29 560.56,-239.72 566.84,-242.81"/>
</g>
<!-- Node26 -->
<g id="node26" class="node">
<title>Node26</title>
<g id="a_node26"><a xlink:href="namespacesharp.html#a099a4575acc27d6e10f9dfb69bc315a1" target="_top" xlink:title="Compue the wind shear for a given layer.">
<polygon fill="white" stroke="#666666" points="458.5,-232.26 353.5,-232.26 353.5,-213.26 458.5,-213.26 458.5,-232.26"/>
<text text-anchor="middle" x="406" y="-220.26" font-family="Helvetica,sans-Serif" font-size="10.00">sharp::wind_shear</text>
</a>
</g>
</g>
<!-- Node5&#45;&gt;Node26 -->
<g id="edge29" class="edge">
<title>Node5&#45;&gt;Node26</title>
<path fill="none" stroke="#63b8ff" d="M506.19,-222.76C490.31,-222.76 473.6,-222.76 458.51,-222.76"/>
<polygon fill="#63b8ff" stroke="#63b8ff" points="506.47,-226.26 516.47,-222.76 506.47,-219.26 506.47,-226.26"/>
</g>
<!-- Node8 -->
<g id="node8" class="node">
<title>Node8</title>
<g id="a_node8"><a xlink:href="namespacesharp.html#aa0726266b4777806bae4e8054e01684c" target="_top" xlink:title="Computes the mass&#45;weighted mean value of a field over a given height layer.">
<polygon fill="white" stroke="#666666" points="294.5,-102.26 187.5,-102.26 187.5,-83.26 294.5,-83.26 294.5,-102.26"/>
<text text-anchor="middle" x="241" y="-90.26" font-family="Helvetica,sans-Serif" font-size="10.00">sharp::layer_mean</text>
</a>
</g>
</g>
<!-- Node7&#45;&gt;Node8 -->
<g id="edge7" class="edge">
<title>Node7&#45;&gt;Node8</title>
<path fill="none" stroke="#63b8ff" d="M351.22,-124.46C337.2,-119.85 322.07,-115 308,-110.76 298.45,-107.88 288.06,-104.96 278.41,-102.32"/>
<polygon fill="#63b8ff" stroke="#63b8ff" points="350.14,-127.79 360.73,-127.61 352.34,-121.15 350.14,-127.79"/>
</g>
<!-- Node9 -->
<g id="node9" class="node">
<title>Node9</title>
<g id="a_node9"><a xlink:href="namespacesharp.html#a74a735636c932467b4d2ced544e0cb51" target="_top" xlink:title="Estimates supercell storm motion using the Bunkers et al. 2000 method.">
<polygon fill="white" stroke="#666666" points="300,-359.76 182,-359.76 182,-329.76 300,-329.76 300,-359.76"/>
<text text-anchor="start" x="190" y="-347.76" font-family="Helvetica,sans-Serif" font-size="10.00">sharp::storm_motion</text>
<text text-anchor="middle" x="241" y="-336.76" font-family="Helvetica,sans-Serif" font-size="10.00">_bunkers</text>
</a>
</g>
</g>
<!-- Node7&#45;&gt;Node9 -->
<g id="edge8" class="edge">
<title>Node7&#45;&gt;Node9</title>
<path fill="none" stroke="#63b8ff" d="M347.9,-163.97C346.53,-165.16 345.22,-166.43 344,-167.76 307.78,-207.22 336.45,-237.38 308,-282.76 296.31,-301.41 277.67,-318.2 263.17,-329.59"/>
<polygon fill="#63b8ff" stroke="#63b8ff" points="350.36,-166.51 356.39,-157.8 346.24,-160.85 350.36,-166.51"/>
</g>
<!-- Node9&#45;&gt;Node6 -->
<g id="edge9" class="edge">
<title>Node9&#45;&gt;Node6</title>
<path fill="none" stroke="#63b8ff" d="M171.87,-335.94C160.72,-334.5 149.17,-333.01 138.02,-331.56"/>
<polygon fill="#63b8ff" stroke="#63b8ff" points="171.6,-339.44 181.97,-337.25 172.5,-332.5 171.6,-339.44"/>
</g>
<!-- Node10 -->
<g id="node10" class="node">
<title>Node10</title>
<g id="a_node10"><a xlink:href="namespacesharp.html#a31d937d833aa80555a0a78890c370f42" target="_top" xlink:title="Estimates supercell storm motion by using the Bunkers et al. 2014 method.">
<polygon fill="white" stroke="#666666" points="128,-638.76 10,-638.76 10,-608.76 128,-608.76 128,-638.76"/>
<text text-anchor="start" x="18" y="-626.76" font-family="Helvetica,sans-Serif" font-size="10.00">sharp::storm_motion</text>
<text text-anchor="middle" x="69" y="-615.76" font-family="Helvetica,sans-Serif" font-size="10.00">_bunkers</text>
</a>
</g>
</g>
<!-- Node9&#45;&gt;Node10 -->
<g id="edge10" class="edge">
<title>Node9&#45;&gt;Node10</title>
<path fill="none" stroke="#63b8ff" d="M177.16,-366.28C176.05,-367.38 174.99,-368.54 174,-369.76 108.78,-450.08 204.13,-520.19 138,-599.76 135.12,-603.23 131.7,-606.19 127.96,-608.73"/>
<polygon fill="#63b8ff" stroke="#63b8ff" points="179.63,-368.78 185.24,-359.79 175.25,-363.32 179.63,-368.78"/>
</g>
<!-- Node12 -->
<g id="node12" class="node">
<title>Node12</title>
<g id="a_node12"><a xlink:href="namespacesharp.html#ab89a7e3555a52f0fd9f4086d5aba7037" target="_top" xlink:title=" ">
<polygon fill="white" stroke="#666666" points="303.5,-187.76 178.5,-187.76 178.5,-157.76 303.5,-157.76 303.5,-187.76"/>
<text text-anchor="start" x="186.5" y="-175.76" font-family="Helvetica,sans-Serif" font-size="10.00">sharp::energy_helicity</text>
<text text-anchor="middle" x="241" y="-164.76" font-family="Helvetica,sans-Serif" font-size="10.00">_index</text>
</a>
</g>
</g>
<!-- Node11&#45;&gt;Node12 -->
<g id="edge12" class="edge">
<title>Node11&#45;&gt;Node12</title>
<path fill="none" stroke="#63b8ff" d="M353.37,-247.02C350.1,-245.46 346.94,-243.71 344,-241.76 322.95,-227.79 328.51,-212.52 308,-197.76 302.73,-193.97 296.81,-190.68 290.74,-187.84"/>
<polygon fill="#63b8ff" stroke="#63b8ff" points="352.25,-250.34 362.83,-250.94 354.93,-243.88 352.25,-250.34"/>
</g>
<!-- Node13&#45;&gt;Node6 -->
<g id="edge17" class="edge">
<title>Node13&#45;&gt;Node6</title>
<path fill="none" stroke="#63b8ff" d="M333.8,-307.01C276.01,-310.46 195.07,-315.29 138.13,-318.69"/>
<polygon fill="#63b8ff" stroke="#63b8ff" points="334.17,-310.5 343.95,-306.41 333.75,-303.51 334.17,-310.5"/>
</g>
<!-- Node14 -->
<g id="node14" class="node">
<title>Node14</title>
<g id="a_node14"><a xlink:href="structsharp_1_1Parcel.html#a0560bd193b2d2d6bc6b08baa7463fba4" target="_top" xlink:title="Compute CAPE and CINH for a previously lifted sharp::Parcel.">
<polygon fill="white" stroke="#666666" points="308,-585.26 174,-585.26 174,-566.26 308,-566.26 308,-585.26"/>
<text text-anchor="middle" x="241" y="-573.26" font-family="Helvetica,sans-Serif" font-size="10.00">sharp::Parcel::cape_cinh</text>
</a>
</g>
</g>
<!-- Node13&#45;&gt;Node14 -->
<g id="edge14" class="edge">
<title>Node13&#45;&gt;Node14</title>
<path fill="none" stroke="#63b8ff" d="M347.25,-324.34C346.11,-325.42 345.02,-326.56 344,-327.76 298.65,-380.9 336.43,-416.95 308,-480.76 292.72,-515.06 264.54,-549.94 250.47,-566.25"/>
<polygon fill="#63b8ff" stroke="#63b8ff" points="349.76,-326.82 355.51,-317.92 345.47,-321.29 349.76,-326.82"/>
</g>
<!-- Node17 -->
<g id="node17" class="node">
<title>Node17</title>
<g id="a_node17"><a xlink:href="namespacesharp.html#a298e2c96c389f2c5177d3626c908927e" target="_top" xlink:title="Computes the mass&#45;weighted mean value of a field over a given pressure layer.">
<polygon fill="white" stroke="#666666" points="294.5,-225.26 187.5,-225.26 187.5,-206.26 294.5,-206.26 294.5,-225.26"/>
<text text-anchor="middle" x="241" y="-213.26" font-family="Helvetica,sans-Serif" font-size="10.00">sharp::layer_mean</text>
</a>
</g>
</g>
<!-- Node13&#45;&gt;Node17 -->
<g id="edge18" class="edge">
<title>Node13&#45;&gt;Node17</title>
<path fill="none" stroke="#63b8ff" d="M349.84,-282.65C347.82,-281.42 345.87,-280.12 344,-278.76 323.58,-263.88 329.1,-248.66 308,-234.76 302.13,-230.89 295.45,-227.79 288.66,-225.32"/>
<polygon fill="#63b8ff" stroke="#63b8ff" points="348.55,-285.94 359,-287.66 351.91,-279.79 348.55,-285.94"/>
</g>
<!-- Node19 -->
<g id="node19" class="node">
<title>Node19</title>
<g id="a_node19"><a xlink:href="namespacesharp.html#af910931fdd9e0fe7d63ba7446743e354" target="_top" xlink:title="Computes the precipitable water vapor content over a layer.">
<polygon fill="white" stroke="#666666" points="294.5,-273.76 187.5,-273.76 187.5,-243.76 294.5,-243.76 294.5,-273.76"/>
<text text-anchor="start" x="195.5" y="-261.76" font-family="Helvetica,sans-Serif" font-size="10.00">sharp::precipitable</text>
<text text-anchor="middle" x="241" y="-250.76" font-family="Helvetica,sans-Serif" font-size="10.00">_water</text>
</a>
</g>
</g>
<!-- Node13&#45;&gt;Node19 -->
<g id="edge21" class="edge">
<title>Node13&#45;&gt;Node19</title>
<path fill="none" stroke="#63b8ff" d="M339.66,-285.12C324.7,-281.09 308.99,-276.84 294.64,-272.97"/>
<polygon fill="#63b8ff" stroke="#63b8ff" points="338.79,-288.51 349.36,-287.74 340.62,-281.76 338.79,-288.51"/>
</g>
<!-- Node15 -->
<g id="node15" class="node">
<title>Node15</title>
<g id="a_node15"><a xlink:href="namespacesharp.html#a2e6b7cd4a3594a8f2c2050b0e4784cce" target="_top" xlink:title="Computes the Effective Inflow Layer for a given atmospheric sounding.">
<polygon fill="white" stroke="#666666" points="132.5,-542.76 5.5,-542.76 5.5,-512.76 132.5,-512.76 132.5,-542.76"/>
<text text-anchor="start" x="13.5" y="-530.76" font-family="Helvetica,sans-Serif" font-size="10.00">sharp::effective_inflow</text>
<text text-anchor="middle" x="69" y="-519.76" font-family="Helvetica,sans-Serif" font-size="10.00">_layer</text>
</a>
</g>
</g>
<!-- Node14&#45;&gt;Node15 -->
<g id="edge15" class="edge">
<title>Node14&#45;&gt;Node15</title>
<path fill="none" stroke="#63b8ff" d="M196.18,-563.39C173.95,-557.11 146.78,-549.44 123.35,-542.82"/>
<polygon fill="#63b8ff" stroke="#63b8ff" points="195.43,-566.81 206.01,-566.16 197.33,-560.08 195.43,-566.81"/>
</g>
<!-- Node16 -->
<g id="node16" class="node">
<title>Node16</title>
<g id="a_node16"><a xlink:href="structsharp_1_1Parcel.html#aa258d27992d22d8b80cb221e6e2a6c19" target="_top" xlink:title="Construct and return a most&#45;unstable Parcel.">
<polygon fill="white" stroke="#666666" points="124,-590.76 14,-590.76 14,-560.76 124,-560.76 124,-590.76"/>
<text text-anchor="start" x="22" y="-578.76" font-family="Helvetica,sans-Serif" font-size="10.00">sharp::Parcel::most</text>
<text text-anchor="middle" x="69" y="-567.76" font-family="Helvetica,sans-Serif" font-size="10.00">_unstable_parcel</text>
</a>
</g>
</g>
<!-- Node14&#45;&gt;Node16 -->
<g id="edge16" class="edge">
<title>Node14&#45;&gt;Node16</title>
<path fill="none" stroke="#63b8ff" d="M163.69,-575.76C150.38,-575.76 136.79,-575.76 124.23,-575.76"/>
<polygon fill="#63b8ff" stroke="#63b8ff" points="163.79,-579.26 173.79,-575.76 163.79,-572.26 163.79,-579.26"/>
</g>
<!-- Node17&#45;&gt;Node6 -->
<g id="edge19" class="edge">
<title>Node17&#45;&gt;Node6</title>
<path fill="none" stroke="#63b8ff" d="M187.44,-228.66C182.79,-230.46 178.24,-232.49 174,-234.76 133.96,-256.18 95.48,-294.97 78.74,-313.03"/>
<polygon fill="#63b8ff" stroke="#63b8ff" points="188.8,-231.89 197.06,-225.26 186.47,-225.29 188.8,-231.89"/>
</g>
<!-- Node17&#45;&gt;Node18 -->
<g id="edge20" class="edge">
<title>Node17&#45;&gt;Node18</title>
<path fill="none" stroke="#63b8ff" d="M188.34,-202.95C183.4,-201.11 178.54,-199.06 174,-196.76 139.44,-179.29 104.92,-149.75 85.62,-131.87"/>
<polygon fill="#63b8ff" stroke="#63b8ff" points="187.31,-206.29 197.9,-206.21 189.57,-199.67 187.31,-206.29"/>
</g>
<!-- Node21 -->
<g id="node21" class="node">
<title>Node21</title>
<g id="a_node21"><a xlink:href="namespacesharp.html#aa4e86da659bfca2eae1f0baddb84a303" target="_top" xlink:title="compute the lapse rate over the given sharp::PressureLayer">
<polygon fill="white" stroke="#666666" points="291.5,-434.26 190.5,-434.26 190.5,-415.26 291.5,-415.26 291.5,-434.26"/>
<text text-anchor="middle" x="241" y="-422.26" font-family="Helvetica,sans-Serif" font-size="10.00">sharp::lapse_rate</text>
</a>
</g>
</g>
<!-- Node20&#45;&gt;Node21 -->
<g id="edge23" class="edge">
<title>Node20&#45;&gt;Node21</title>
<path fill="none" stroke="#63b8ff" d="M347.73,-201.08C346.41,-202.22 345.16,-203.45 344,-204.76 283.69,-273.16 369.52,-339.45 308,-406.76 303.51,-411.67 297.83,-415.29 291.69,-417.96"/>
<polygon fill="#63b8ff" stroke="#63b8ff" points="349.73,-203.95 356.01,-195.41 345.78,-198.17 349.73,-203.95"/>
</g>
<!-- Node22 -->
<g id="node22" class="node">
<title>Node22</title>
<g id="a_node22"><a xlink:href="namespacesharp.html#abd0d1a28608e145c455ace03e787e33b" target="_top" xlink:title="Find the maximum lapse rate within a specified layer/depth (AGL).">
<polygon fill="white" stroke="#666666" points="305,-139.26 177,-139.26 177,-120.26 305,-120.26 305,-139.26"/>
<text text-anchor="middle" x="241" y="-127.26" font-family="Helvetica,sans-Serif" font-size="10.00">sharp::lapse_rate_max</text>
</a>
</g>
</g>
<!-- Node20&#45;&gt;Node22 -->
<g id="edge24" class="edge">
<title>Node20&#45;&gt;Node22</title>
<path fill="none" stroke="#63b8ff" d="M361.1,-173.03C355.3,-171.07 349.47,-168.96 344,-166.76 327.41,-160.08 324.67,-155.26 308,-148.76 299,-145.25 289.09,-142.06 279.75,-139.34"/>
<polygon fill="#63b8ff" stroke="#63b8ff" points="360.19,-176.41 370.78,-176.17 362.35,-169.75 360.19,-176.41"/>
</g>
<!-- Node24 -->
<g id="node24" class="node">
<title>Node24</title>
<g id="a_node24"><a xlink:href="namespacesharp.html#a6170e3f412ab95b3ba8d9a93ae55dc67" target="_top" xlink:title="Returns the maximim value in the given layer.">
<polygon fill="white" stroke="#666666" points="291.5,-397.26 190.5,-397.26 190.5,-378.26 291.5,-378.26 291.5,-397.26"/>
<text text-anchor="middle" x="241" y="-385.26" font-family="Helvetica,sans-Serif" font-size="10.00">sharp::layer_max</text>
</a>
</g>
</g>
<!-- Node23&#45;&gt;Node24 -->
<g id="edge26" class="edge">
<title>Node23&#45;&gt;Node24</title>
<path fill="none" stroke="#63b8ff" d="M335.57,-386.04C320.79,-386.31 305.47,-386.59 291.61,-386.85"/>
<polygon fill="#63b8ff" stroke="#63b8ff" points="335.76,-389.54 345.69,-385.85 335.63,-382.54 335.76,-389.54"/>
</g>
<!-- Node25 -->
<g id="node25" class="node">
<title>Node25</title>
<g id="a_node25"><a xlink:href="namespacesharp.html#a01a9880c937f63e551893797253da4f7" target="_top" xlink:title="Returns the minimum value in the given layer.">
<polygon fill="white" stroke="#666666" points="290,-471.26 192,-471.26 192,-452.26 290,-452.26 290,-471.26"/>
<text text-anchor="middle" x="241" y="-459.26" font-family="Helvetica,sans-Serif" font-size="10.00">sharp::layer_min</text>
</a>
</g>
</g>
<!-- Node23&#45;&gt;Node25 -->
<g id="edge27" class="edge">
<title>Node23&#45;&gt;Node25</title>
<path fill="none" stroke="#63b8ff" d="M383.58,-400.21C364.53,-413.35 335.51,-431.92 308,-443.76 300.47,-447 292.21,-449.8 284.15,-452.16"/>
<polygon fill="#63b8ff" stroke="#63b8ff" points="385.66,-403.03 391.84,-394.43 381.64,-397.3 385.66,-403.03"/>
</g>
<!-- Node27&#45;&gt;Node6 -->
<g id="edge31" class="edge">
<title>Node27&#45;&gt;Node6</title>
<path fill="none" stroke="#63b8ff" d="M522.64,-378.23C516.29,-380.21 509.95,-382.4 504,-384.76 487.19,-391.44 484.15,-395.61 468,-403.76 347.39,-464.58 292.9,-544.85 174,-480.76 113,-447.89 81.9,-361.87 72.86,-332.64"/>
<polygon fill="#63b8ff" stroke="#63b8ff" points="523.95,-381.49 532.54,-375.29 521.96,-374.78 523.95,-381.49"/>
</g>
<!-- Node27&#45;&gt;Node10 -->
<g id="edge44" class="edge">
<title>Node27&#45;&gt;Node10</title>
<path fill="none" stroke="#63b8ff" d="M507.8,-381.04C506.46,-382.19 505.19,-383.43 504,-384.76 435.97,-460.96 543.36,-542.8 468,-611.76 370.21,-701.25 195.62,-663.41 114.15,-638.78"/>
<polygon fill="#63b8ff" stroke="#63b8ff" points="509.9,-383.84 516.16,-375.29 505.94,-378.07 509.9,-383.84"/>
</g>
<!-- Node27&#45;&gt;Node11 -->
<g id="edge34" class="edge">
<title>Node27&#45;&gt;Node11</title>
<path fill="none" stroke="#63b8ff" d="M556.55,-348.96C537.26,-329.54 503,-297.79 468,-278.76 461.08,-275 453.31,-271.86 445.69,-269.29"/>
<polygon fill="#63b8ff" stroke="#63b8ff" points="554.15,-351.51 563.64,-356.23 559.16,-346.62 554.15,-351.51"/>
</g>
<!-- Node27&#45;&gt;Node13 -->
<g id="edge35" class="edge">
<title>Node27&#45;&gt;Node13</title>
<path fill="none" stroke="#63b8ff" d="M537.69,-352.51C511.06,-342.37 474.32,-328.39 446.58,-317.83"/>
<polygon fill="#63b8ff" stroke="#63b8ff" points="536.77,-355.91 547.36,-356.19 539.26,-349.36 536.77,-355.91"/>
</g>
<!-- Node27&#45;&gt;Node23 -->
<g id="edge36" class="edge">
<title>Node27&#45;&gt;Node23</title>
<path fill="none" stroke="#63b8ff" d="M500.82,-373.99C489.27,-375.32 477.42,-376.68 466.21,-377.96"/>
<polygon fill="#63b8ff" stroke="#63b8ff" points="501.34,-377.45 510.87,-372.84 500.54,-370.5 501.34,-377.45"/>
</g>
<!-- Node27&#45;&gt;Node26 -->
<g id="edge45" class="edge">
<title>Node27&#45;&gt;Node26</title>
<path fill="none" stroke="#63b8ff" d="M561.72,-347.24C545.03,-320.15 510.4,-269.92 468,-241.76 462.18,-237.89 455.53,-234.78 448.81,-232.28"/>
<polygon fill="#63b8ff" stroke="#63b8ff" points="558.89,-349.31 567.04,-356.08 564.89,-345.71 558.89,-349.31"/>
</g>
<!-- Node28 -->
<g id="node28" class="node">
<title>Node28</title>
<g id="a_node28"><a xlink:href="structsharp_1_1Parcel.html#a8a311e09b1d46a829212da94cf181537" target="_top" xlink:title="Find the LFC and EL that bounds the layer with the maximum CAPE.">
<polygon fill="white" stroke="#666666" points="457.5,-602.76 354.5,-602.76 354.5,-572.76 457.5,-572.76 457.5,-602.76"/>
<text text-anchor="start" x="362.5" y="-590.76" font-family="Helvetica,sans-Serif" font-size="10.00">sharp::Parcel::find</text>
<text text-anchor="middle" x="406" y="-579.76" font-family="Helvetica,sans-Serif" font-size="10.00">_lfc_el</text>
</a>
</g>
</g>
<!-- Node27&#45;&gt;Node28 -->
<g id="edge32" class="edge">
<title>Node27&#45;&gt;Node28</title>
<path fill="none" stroke="#63b8ff" d="M507.97,-381.02C506.57,-382.18 505.24,-383.43 504,-384.76 448.72,-444.17 520.1,-501.55 468,-563.76 465.08,-567.25 461.58,-570.24 457.76,-572.79"/>
<polygon fill="#63b8ff" stroke="#63b8ff" points="510.25,-383.71 516.66,-375.26 506.39,-377.87 510.25,-383.71"/>
</g>
<!-- Node29 -->
<g id="node29" class="node">
<title>Node29</title>
<g id="a_node29"><a xlink:href="namespacesharp.html#a3c8b9022103d067f30281d68fa81cbda" target="_top" xlink:title="Compute the mean wind over the given sharp::PressureLayer.">
<polygon fill="white" stroke="#666666" points="459,-355.26 353,-355.26 353,-336.26 459,-336.26 459,-355.26"/>
<text text-anchor="middle" x="406" y="-343.26" font-family="Helvetica,sans-Serif" font-size="10.00">sharp::mean_wind</text>
</a>
</g>
</g>
<!-- Node27&#45;&gt;Node29 -->
<g id="edge37" class="edge">
<title>Node27&#45;&gt;Node29</title>
<path fill="none" stroke="#63b8ff" d="M500.79,-357.09C486.8,-355.4 472.39,-353.66 459.18,-352.07"/>
<polygon fill="#63b8ff" stroke="#63b8ff" points="500.53,-360.59 510.87,-358.31 501.37,-353.64 500.53,-360.59"/>
</g>
<!-- Node30 -->
<g id="node30" class="node">
<title>Node30</title>
<g id="a_node30"><a xlink:href="namespacesharp.html#a31da980f398c9f6a5960ddf868101a94" target="_top" xlink:title="Converts a sharp::PressureLayer to a sharp::HeightLayer.">
<polygon fill="white" stroke="#666666" points="467,-554.76 345,-554.76 345,-524.76 467,-524.76 467,-554.76"/>
<text text-anchor="start" x="353" y="-542.76" font-family="Helvetica,sans-Serif" font-size="10.00">sharp::pressure_layer</text>
<text text-anchor="middle" x="406" y="-531.76" font-family="Helvetica,sans-Serif" font-size="10.00">_to_height</text>
</a>
</g>
</g>
<!-- Node27&#45;&gt;Node30 -->
<g id="edge39" class="edge">
<title>Node27&#45;&gt;Node30</title>
<path fill="none" stroke="#63b8ff" d="M508.61,-380.77C506.99,-382 505.45,-383.33 504,-384.76 462.66,-425.78 505.64,-466.32 468,-510.76 463.3,-516.31 457.3,-520.87 450.9,-524.6"/>
<polygon fill="#63b8ff" stroke="#63b8ff" points="510.64,-383.63 517.31,-375.4 506.96,-377.68 510.64,-383.63"/>
</g>
<!-- Node28&#45;&gt;Node14 -->
<g id="edge33" class="edge">
<title>Node28&#45;&gt;Node14</title>
<path fill="none" stroke="#63b8ff" d="M344.2,-583.28C332.47,-582.42 320.14,-581.51 308.25,-580.64"/>
<polygon fill="#63b8ff" stroke="#63b8ff" points="344.09,-586.79 354.32,-584.03 344.6,-579.8 344.09,-586.79"/>
</g>
<!-- Node29&#45;&gt;Node9 -->
<g id="edge38" class="edge">
<title>Node29&#45;&gt;Node9</title>
<path fill="none" stroke="#63b8ff" d="M342.9,-345.38C328.82,-345.29 313.93,-345.2 300.03,-345.12"/>
<polygon fill="#63b8ff" stroke="#63b8ff" points="342.96,-348.88 352.98,-345.44 343,-341.88 342.96,-348.88"/>
</g>
<!-- Node30&#45;&gt;Node6 -->
<g id="edge41" class="edge">
<title>Node30&#45;&gt;Node6</title>
<path fill="none" stroke="#63b8ff" d="M334.61,-548.01C285.61,-550.12 220.89,-545.3 174,-513.76 106.64,-468.45 79.07,-364.53 71.97,-332.4"/>
<polygon fill="#63b8ff" stroke="#63b8ff" points="335.02,-551.49 344.82,-547.46 334.65,-544.5 335.02,-551.49"/>
</g>
<!-- Node30&#45;&gt;Node10 -->
<g id="edge43" class="edge">
<title>Node30&#45;&gt;Node10</title>
<path fill="none" stroke="#63b8ff" d="M352.25,-559.19C349.41,-560.64 346.64,-562.17 344,-563.76 325.92,-574.67 327.31,-586.23 308,-594.76 250.51,-620.16 178.04,-625.69 128.26,-625.95"/>
<polygon fill="#63b8ff" stroke="#63b8ff" points="353.95,-562.25 361.47,-554.79 350.94,-555.93 353.95,-562.25"/>
</g>
<!-- Node30&#45;&gt;Node14 -->
<g id="edge40" class="edge">
<title>Node30&#45;&gt;Node14</title>
<path fill="none" stroke="#63b8ff" d="M334.91,-555.24C318.01,-558.97 300.44,-562.85 285.18,-566.22"/>
<polygon fill="#63b8ff" stroke="#63b8ff" points="335.76,-558.64 344.77,-553.06 334.25,-551.8 335.76,-558.64"/>
</g>
<!-- Node30&#45;&gt;Node21 -->
<g id="edge42" class="edge">
<title>Node30&#45;&gt;Node21</title>
<path fill="none" stroke="#63b8ff" d="M387.44,-516.66C369.68,-494.83 340.3,-462.7 308,-443.76 301.42,-439.9 294,-436.78 286.58,-434.28"/>
<polygon fill="#63b8ff" stroke="#63b8ff" points="384.92,-519.11 393.88,-524.75 390.4,-514.75 384.92,-519.11"/>
</g>
</g>
</svg>
