<?xml version="1.0" encoding="UTF-8" standalone="no"?>
<!DOCTYPE svg PUBLIC "-//W3C//DTD SVG 1.1//EN"
 "http://www.w3.org/Graphics/SVG/1.1/DTD/svg11.dtd">
<!-- Generated by graphviz version 2.43.0 (0)
 -->
<!-- Title: sharp::buoyancy_dilution_potential Pages: 1 -->
<svg width="494pt" height="76pt"
 viewBox="0.00 0.00 494.00 75.50" xmlns="http://www.w3.org/2000/svg" xmlns:xlink="http://www.w3.org/1999/xlink">
<g id="graph0" class="graph" transform="scale(1 1) rotate(0) translate(4 71.5)">
<title>sharp::buoyancy_dilution_potential</title>
<!-- Node1 -->
<g id="node1" class="node">
<title>Node1</title>
<g id="a_node1"><a xlink:title=" ">
<polygon fill="#999999" stroke="#666666" points="486,-51 347,-51 347,-21 486,-21 486,-51"/>
<text text-anchor="start" x="355" y="-39" font-family="Helvetica,sans-Serif" font-size="10.00">sharp::buoyancy_dilution</text>
<text text-anchor="middle" x="416.5" y="-28" font-family="Helvetica,sans-Serif" font-size="10.00">_potential</text>
</a>
</g>
</g>
<!-- Node2 -->
<g id="node2" class="node">
<title>Node2</title>
<g id="a_node2"><a xlink:href="namespacesharp.html#a72bbdc4cfe7895dd51981902ac9fc822" target="_top" xlink:title="Computes Entrainment CAPE using a previously lifted parcel.">
<polygon fill="white" stroke="#666666" points="311,-67.5 173,-67.5 173,-48.5 311,-48.5 311,-67.5"/>
<text text-anchor="middle" x="242" y="-55.5" font-family="Helvetica,sans-Serif" font-size="10.00">sharp::entrainment_cape</text>
</a>
</g>
</g>
<!-- Node1&#45;&gt;Node2 -->
<g id="edge1" class="edge">
<title>Node1&#45;&gt;Node2</title>
<path fill="none" stroke="#63b8ff" d="M336.83,-46.03C328.26,-47.13 319.59,-48.23 311.15,-49.31"/>
<polygon fill="#63b8ff" stroke="#63b8ff" points="337.35,-49.5 346.83,-44.76 336.47,-42.55 337.35,-49.5"/>
</g>
<!-- Node4 -->
<g id="node4" class="node">
<title>Node4</title>
<g id="a_node4"><a xlink:href="thermo__wrap_8cpp.html#a4e1c678b7a2b984c0d980d7322cfc2aa" target="_top" xlink:title=" ">
<polygon fill="white" stroke="#666666" points="311,-30 173,-30 173,0 311,0 311,-30"/>
<text text-anchor="start" x="181" y="-18" font-family="Helvetica,sans-Serif" font-size="10.00">sharp_buoyancy_dilution</text>
<text text-anchor="middle" x="242" y="-7" font-family="Helvetica,sans-Serif" font-size="10.00">_potential</text>
</a>
</g>
</g>
<!-- Node1&#45;&gt;Node4 -->
<g id="edge3" class="edge">
<title>Node1&#45;&gt;Node4</title>
<path fill="none" stroke="#63b8ff" d="M336.83,-26.42C328.26,-25.38 319.59,-24.32 311.15,-23.3"/>
<polygon fill="#63b8ff" stroke="#63b8ff" points="336.48,-29.91 346.83,-27.64 337.32,-22.96 336.48,-29.91"/>
</g>
<!-- Node3 -->
<g id="node3" class="node">
<title>Node3</title>
<g id="a_node3"><a xlink:href="convective__wrap_8cpp.html#ab0bfb728bbbf3a731c330b61a5c415ad" target="_top" xlink:title=" ">
<polygon fill="white" stroke="#666666" points="137,-67.5 0,-67.5 0,-48.5 137,-48.5 137,-67.5"/>
<text text-anchor="middle" x="68.5" y="-55.5" font-family="Helvetica,sans-Serif" font-size="10.00">sharp_entrainment_cape</text>
</a>
</g>
</g>
<!-- Node2&#45;&gt;Node3 -->
<g id="edge2" class="edge">
<title>Node2&#45;&gt;Node3</title>
<path fill="none" stroke="#63b8ff" d="M162.51,-58C154.08,-58 145.55,-58 137.26,-58"/>
<polygon fill="#63b8ff" stroke="#63b8ff" points="162.73,-61.5 172.73,-58 162.73,-54.5 162.73,-61.5"/>
</g>
</g>
</svg>
