<?xml version="1.0" encoding="UTF-8" standalone="no"?>
<!DOCTYPE svg PUBLIC "-//W3C//DTD SVG 1.1//EN"
 "http://www.w3.org/Graphics/SVG/1.1/DTD/svg11.dtd">
<!-- Generated by graphviz version 2.43.0 (0)
 -->
<!-- Title: sharp::integrate_layer_trapz Pages: 1 -->
<svg width="476pt" height="208pt"
 viewBox="0.00 0.00 476.00 208.00" xmlns="http://www.w3.org/2000/svg" xmlns:xlink="http://www.w3.org/1999/xlink">
<g id="graph0" class="graph" transform="scale(1 1) rotate(0) translate(4 204)">
<title>sharp::integrate_layer_trapz</title>
<!-- Node1 -->
<g id="node1" class="node">
<title>Node1</title>
<g id="a_node1"><a xlink:title="Returns a trapezoidal integration of the given layer.">
<polygon fill="#999999" stroke="#666666" points="468,-92 344,-92 344,-62 468,-62 468,-92"/>
<text text-anchor="start" x="352" y="-80" font-family="Helvetica,sans-Serif" font-size="10.00">sharp::integrate_layer</text>
<text text-anchor="middle" x="406" y="-69" font-family="Helvetica,sans-Serif" font-size="10.00">_trapz</text>
</a>
</g>
</g>
<!-- Node2 -->
<g id="node2" class="node">
<title>Node2</title>
<g id="a_node2"><a xlink:href="structsharp_1_1Parcel.html#a0560bd193b2d2d6bc6b08baa7463fba4" target="_top" xlink:title="Compute CAPE and CINH for a previously lifted sharp::Parcel.">
<polygon fill="white" stroke="#666666" points="308,-146.5 174,-146.5 174,-127.5 308,-127.5 308,-146.5"/>
<text text-anchor="middle" x="241" y="-134.5" font-family="Helvetica,sans-Serif" font-size="10.00">sharp::Parcel::cape_cinh</text>
</a>
</g>
</g>
<!-- Node1&#45;&gt;Node2 -->
<g id="edge1" class="edge">
<title>Node1&#45;&gt;Node2</title>
<path fill="none" stroke="#63b8ff" d="M354.39,-95.63C325.7,-106.19 291.01,-118.96 267.83,-127.49"/>
<polygon fill="#63b8ff" stroke="#63b8ff" points="355.69,-98.88 363.87,-92.14 353.27,-92.31 355.69,-98.88"/>
</g>
<!-- Node5 -->
<g id="node5" class="node">
<title>Node5</title>
<g id="a_node5"><a xlink:href="namespacesharp.html#a72bbdc4cfe7895dd51981902ac9fc822" target="_top" xlink:title="Computes Entrainment CAPE using a previously lifted parcel.">
<polygon fill="white" stroke="#666666" points="138,-103.5 0,-103.5 0,-84.5 138,-84.5 138,-103.5"/>
<text text-anchor="middle" x="69" y="-91.5" font-family="Helvetica,sans-Serif" font-size="10.00">sharp::entrainment_cape</text>
</a>
</g>
</g>
<!-- Node1&#45;&gt;Node5 -->
<g id="edge4" class="edge">
<title>Node1&#45;&gt;Node5</title>
<path fill="none" stroke="#63b8ff" d="M333.8,-80.61C276.01,-83.55 195.07,-87.65 138.13,-90.54"/>
<polygon fill="#63b8ff" stroke="#63b8ff" points="334.14,-84.1 343.95,-80.1 333.78,-77.11 334.14,-84.1"/>
</g>
<!-- Node6 -->
<g id="node6" class="node">
<title>Node6</title>
<g id="a_node6"><a xlink:href="namespacesharp.html#a298e2c96c389f2c5177d3626c908927e" target="_top" xlink:title="Computes the mass&#45;weighted mean value of a field over a given pressure layer.">
<polygon fill="white" stroke="#666666" points="294.5,-67.5 187.5,-67.5 187.5,-48.5 294.5,-48.5 294.5,-67.5"/>
<text text-anchor="middle" x="241" y="-55.5" font-family="Helvetica,sans-Serif" font-size="10.00">sharp::layer_mean</text>
</a>
</g>
</g>
<!-- Node1&#45;&gt;Node6 -->
<g id="edge5" class="edge">
<title>Node1&#45;&gt;Node6</title>
<path fill="none" stroke="#63b8ff" d="M333.87,-68.71C320.71,-67.17 307.17,-65.6 294.68,-64.14"/>
<polygon fill="#63b8ff" stroke="#63b8ff" points="333.5,-72.19 343.84,-69.87 334.31,-65.24 333.5,-72.19"/>
</g>
<!-- Node8 -->
<g id="node8" class="node">
<title>Node8</title>
<g id="a_node8"><a xlink:href="namespacesharp.html#af910931fdd9e0fe7d63ba7446743e354" target="_top" xlink:title="Computes the precipitable water vapor content over a layer.">
<polygon fill="white" stroke="#666666" points="294.5,-30 187.5,-30 187.5,0 294.5,0 294.5,-30"/>
<text text-anchor="start" x="195.5" y="-18" font-family="Helvetica,sans-Serif" font-size="10.00">sharp::precipitable</text>
<text text-anchor="middle" x="241" y="-7" font-family="Helvetica,sans-Serif" font-size="10.00">_water</text>
</a>
</g>
</g>
<!-- Node1&#45;&gt;Node8 -->
<g id="edge8" class="edge">
<title>Node1&#45;&gt;Node8</title>
<path fill="none" stroke="#63b8ff" d="M357.76,-58.22C341.97,-52.02 324.25,-45.14 308,-39 300.24,-36.07 291.95,-33 283.95,-30.08"/>
<polygon fill="#63b8ff" stroke="#63b8ff" points="356.72,-61.58 367.31,-61.99 359.29,-55.06 356.72,-61.58"/>
</g>
<!-- Node3 -->
<g id="node3" class="node">
<title>Node3</title>
<g id="a_node3"><a xlink:href="namespacesharp.html#a2e6b7cd4a3594a8f2c2050b0e4784cce" target="_top" xlink:title="Computes the Effective Inflow Layer for a given atmospheric sounding.">
<polygon fill="white" stroke="#666666" points="132.5,-200 5.5,-200 5.5,-170 132.5,-170 132.5,-200"/>
<text text-anchor="start" x="13.5" y="-188" font-family="Helvetica,sans-Serif" font-size="10.00">sharp::effective_inflow</text>
<text text-anchor="middle" x="69" y="-177" font-family="Helvetica,sans-Serif" font-size="10.00">_layer</text>
</a>
</g>
</g>
<!-- Node2&#45;&gt;Node3 -->
<g id="edge2" class="edge">
<title>Node2&#45;&gt;Node3</title>
<path fill="none" stroke="#63b8ff" d="M196.18,-149.37C173.95,-155.65 146.78,-163.32 123.35,-169.94"/>
<polygon fill="#63b8ff" stroke="#63b8ff" points="197.33,-152.68 206.01,-146.6 195.43,-145.95 197.33,-152.68"/>
</g>
<!-- Node4 -->
<g id="node4" class="node">
<title>Node4</title>
<g id="a_node4"><a xlink:href="structsharp_1_1Parcel.html#aa258d27992d22d8b80cb221e6e2a6c19" target="_top" xlink:title="Construct and return a most&#45;unstable Parcel.">
<polygon fill="white" stroke="#666666" points="124,-152 14,-152 14,-122 124,-122 124,-152"/>
<text text-anchor="start" x="22" y="-140" font-family="Helvetica,sans-Serif" font-size="10.00">sharp::Parcel::most</text>
<text text-anchor="middle" x="69" y="-129" font-family="Helvetica,sans-Serif" font-size="10.00">_unstable_parcel</text>
</a>
</g>
</g>
<!-- Node2&#45;&gt;Node4 -->
<g id="edge3" class="edge">
<title>Node2&#45;&gt;Node4</title>
<path fill="none" stroke="#63b8ff" d="M163.69,-137C150.38,-137 136.79,-137 124.23,-137"/>
<polygon fill="#63b8ff" stroke="#63b8ff" points="163.79,-140.5 173.79,-137 163.79,-133.5 163.79,-140.5"/>
</g>
<!-- Node6&#45;&gt;Node5 -->
<g id="edge6" class="edge">
<title>Node6&#45;&gt;Node5</title>
<path fill="none" stroke="#63b8ff" d="M185.08,-69.63C162.43,-74.43 136.52,-79.91 115.03,-84.47"/>
<polygon fill="#63b8ff" stroke="#63b8ff" points="185.83,-73.05 194.89,-67.55 184.38,-66.2 185.83,-73.05"/>
</g>
<!-- Node7 -->
<g id="node7" class="node">
<title>Node7</title>
<g id="a_node7"><a xlink:href="structsharp_1_1Parcel.html#a1bf670e79f35a1ce8c904b7ead32ccbe" target="_top" xlink:title="Construct and return a mixed&#45;layer Parcel.">
<polygon fill="white" stroke="#666666" points="126.5,-66 11.5,-66 11.5,-36 126.5,-36 126.5,-66"/>
<text text-anchor="start" x="19.5" y="-54" font-family="Helvetica,sans-Serif" font-size="10.00">sharp::Parcel::mixed</text>
<text text-anchor="middle" x="69" y="-43" font-family="Helvetica,sans-Serif" font-size="10.00">_layer_parcel</text>
</a>
</g>
</g>
<!-- Node6&#45;&gt;Node7 -->
<g id="edge7" class="edge">
<title>Node6&#45;&gt;Node7</title>
<path fill="none" stroke="#63b8ff" d="M177.04,-55.41C160.53,-54.73 142.82,-54 126.66,-53.33"/>
<polygon fill="#63b8ff" stroke="#63b8ff" points="177.01,-58.91 187.14,-55.82 177.3,-51.91 177.01,-58.91"/>
</g>
</g>
</svg>
