<?xml version="1.0" encoding="UTF-8" standalone="no"?>
<!DOCTYPE svg PUBLIC "-//W3C//DTD SVG 1.1//EN"
 "http://www.w3.org/Graphics/SVG/1.1/DTD/svg11.dtd">
<!-- Generated by graphviz version 2.43.0 (0)
 -->
<!-- Title: sharp::pressure_layer_to_height Pages: 1 -->
<svg width="467pt" height="179pt"
 viewBox="0.00 0.00 467.00 179.00" xmlns="http://www.w3.org/2000/svg" xmlns:xlink="http://www.w3.org/1999/xlink">
<g id="graph0" class="graph" transform="scale(1 1) rotate(0) translate(4 175)">
<title>sharp::pressure_layer_to_height</title>
<!-- Node1 -->
<g id="node1" class="node">
<title>Node1</title>
<g id="a_node1"><a xlink:title="Converts a sharp::PressureLayer to a sharp::HeightLayer.">
<polygon fill="#999999" stroke="#666666" points="459,-91 337,-91 337,-61 459,-61 459,-91"/>
<text text-anchor="start" x="345" y="-79" font-family="Helvetica,sans-Serif" font-size="10.00">sharp::pressure_layer</text>
<text text-anchor="middle" x="398" y="-68" font-family="Helvetica,sans-Serif" font-size="10.00">_to_height</text>
</a>
</g>
</g>
<!-- Node2 -->
<g id="node2" class="node">
<title>Node2</title>
<g id="a_node2"><a xlink:href="structsharp_1_1Parcel.html#a0560bd193b2d2d6bc6b08baa7463fba4" target="_top" xlink:title="Compute CAPE and CINH for a previously lifted sharp::Parcel.">
<polygon fill="white" stroke="#666666" points="299,-141.5 165,-141.5 165,-122.5 299,-122.5 299,-141.5"/>
<text text-anchor="middle" x="232" y="-129.5" font-family="Helvetica,sans-Serif" font-size="10.00">sharp::Parcel::cape_cinh</text>
</a>
</g>
</g>
<!-- Node1&#45;&gt;Node2 -->
<g id="edge1" class="edge">
<title>Node1&#45;&gt;Node2</title>
<path fill="none" stroke="#63b8ff" d="M350.88,-94.8C335.17,-100.93 317.43,-107.55 301,-113 290.88,-116.36 279.78,-119.63 269.54,-122.48"/>
<polygon fill="#63b8ff" stroke="#63b8ff" points="352.35,-97.98 360.37,-91.06 349.78,-91.47 352.35,-97.98"/>
</g>
<!-- Node5 -->
<g id="node5" class="node">
<title>Node5</title>
<g id="a_node5"><a xlink:href="namespacesharp.html#a72bbdc4cfe7895dd51981902ac9fc822" target="_top" xlink:title="Computes Entrainment CAPE using a previously lifted parcel.">
<polygon fill="white" stroke="#666666" points="301,-104.5 163,-104.5 163,-85.5 301,-85.5 301,-104.5"/>
<text text-anchor="middle" x="232" y="-92.5" font-family="Helvetica,sans-Serif" font-size="10.00">sharp::entrainment_cape</text>
</a>
</g>
</g>
<!-- Node1&#45;&gt;Node5 -->
<g id="edge4" class="edge">
<title>Node1&#45;&gt;Node5</title>
<path fill="none" stroke="#63b8ff" d="M326.66,-84.15C318.21,-85.13 309.59,-86.13 301.17,-87.1"/>
<polygon fill="#63b8ff" stroke="#63b8ff" points="327.33,-87.59 336.86,-82.97 326.53,-80.64 327.33,-87.59"/>
</g>
<!-- Node6 -->
<g id="node6" class="node">
<title>Node6</title>
<g id="a_node6"><a xlink:href="namespacesharp.html#aa4e86da659bfca2eae1f0baddb84a303" target="_top" xlink:title="compute the lapse rate over the given sharp::PressureLayer">
<polygon fill="white" stroke="#666666" points="282.5,-67.5 181.5,-67.5 181.5,-48.5 282.5,-48.5 282.5,-67.5"/>
<text text-anchor="middle" x="232" y="-55.5" font-family="Helvetica,sans-Serif" font-size="10.00">sharp::lapse_rate</text>
</a>
</g>
</g>
<!-- Node1&#45;&gt;Node6 -->
<g id="edge5" class="edge">
<title>Node1&#45;&gt;Node6</title>
<path fill="none" stroke="#63b8ff" d="M326.7,-68.28C311.87,-66.66 296.52,-64.97 282.64,-63.45"/>
<polygon fill="#63b8ff" stroke="#63b8ff" points="326.54,-71.79 336.86,-69.4 327.31,-64.83 326.54,-71.79"/>
</g>
<!-- Node7 -->
<g id="node7" class="node">
<title>Node7</title>
<g id="a_node7"><a xlink:href="namespacesharp.html#a31d937d833aa80555a0a78890c370f42" target="_top" xlink:title="Estimates supercell storm motion by using the Bunkers et al. 2014 method.">
<polygon fill="white" stroke="#666666" points="291,-30 173,-30 173,0 291,0 291,-30"/>
<text text-anchor="start" x="181" y="-18" font-family="Helvetica,sans-Serif" font-size="10.00">sharp::storm_motion</text>
<text text-anchor="middle" x="232" y="-7" font-family="Helvetica,sans-Serif" font-size="10.00">_bunkers</text>
</a>
</g>
</g>
<!-- Node1&#45;&gt;Node7 -->
<g id="edge6" class="edge">
<title>Node1&#45;&gt;Node7</title>
<path fill="none" stroke="#63b8ff" d="M349.45,-57.36C334.03,-51.4 316.82,-44.84 301,-39 293.01,-36.05 284.47,-32.98 276.23,-30.05"/>
<polygon fill="#63b8ff" stroke="#63b8ff" points="348.2,-60.63 358.79,-60.98 350.73,-54.11 348.2,-60.63"/>
</g>
<!-- Node3 -->
<g id="node3" class="node">
<title>Node3</title>
<g id="a_node3"><a xlink:href="namespacesharp.html#a2e6b7cd4a3594a8f2c2050b0e4784cce" target="_top" xlink:title="Computes the Effective Inflow Layer for a given atmospheric sounding.">
<polygon fill="white" stroke="#666666" points="127,-171 0,-171 0,-141 127,-141 127,-171"/>
<text text-anchor="start" x="8" y="-159" font-family="Helvetica,sans-Serif" font-size="10.00">sharp::effective_inflow</text>
<text text-anchor="middle" x="63.5" y="-148" font-family="Helvetica,sans-Serif" font-size="10.00">_layer</text>
</a>
</g>
</g>
<!-- Node2&#45;&gt;Node3 -->
<g id="edge2" class="edge">
<title>Node2&#45;&gt;Node3</title>
<path fill="none" stroke="#63b8ff" d="M154.73,-142.99C145.46,-144.33 136.07,-145.68 127.04,-146.99"/>
<polygon fill="#63b8ff" stroke="#63b8ff" points="155.32,-146.45 164.72,-141.55 154.32,-139.52 155.32,-146.45"/>
</g>
<!-- Node4 -->
<g id="node4" class="node">
<title>Node4</title>
<g id="a_node4"><a xlink:href="structsharp_1_1Parcel.html#aa258d27992d22d8b80cb221e6e2a6c19" target="_top" xlink:title="Construct and return a most&#45;unstable Parcel.">
<polygon fill="white" stroke="#666666" points="118.5,-123 8.5,-123 8.5,-93 118.5,-93 118.5,-123"/>
<text text-anchor="start" x="16.5" y="-111" font-family="Helvetica,sans-Serif" font-size="10.00">sharp::Parcel::most</text>
<text text-anchor="middle" x="63.5" y="-100" font-family="Helvetica,sans-Serif" font-size="10.00">_unstable_parcel</text>
</a>
</g>
</g>
<!-- Node2&#45;&gt;Node4 -->
<g id="edge3" class="edge">
<title>Node2&#45;&gt;Node4</title>
<path fill="none" stroke="#63b8ff" d="M154.57,-120.98C142.4,-119.23 130.04,-117.45 118.53,-115.79"/>
<polygon fill="#63b8ff" stroke="#63b8ff" points="154.32,-124.48 164.72,-122.45 155.32,-117.55 154.32,-124.48"/>
</g>
</g>
</svg>
