<?xml version="1.0" encoding="UTF-8" standalone="no"?>
<!DOCTYPE svg PUBLIC "-//W3C//DTD SVG 1.1//EN"
 "http://www.w3.org/Graphics/SVG/1.1/DTD/svg11.dtd">
<!-- Generated by graphviz version 2.43.0 (0)
 -->
<!-- Title: sharp::wetbulb Pages: 1 -->
<svg width="374pt" height="101pt"
 viewBox="0.00 0.00 374.00 101.00" xmlns="http://www.w3.org/2000/svg" xmlns:xlink="http://www.w3.org/1999/xlink">
<g id="graph0" class="graph" transform="scale(1 1) rotate(0) translate(4 97)">
<title>sharp::wetbulb</title>
<!-- Node1 -->
<g id="node1" class="node">
<title>Node1</title>
<g id="a_node1"><a xlink:title="Compute the wetbulb temperature.">
<polygon fill="#999999" stroke="#666666" points="89,-56 0,-56 0,-37 89,-37 89,-56"/>
<text text-anchor="middle" x="44.5" y="-44" font-family="Helvetica,sans-Serif" font-size="10.00">sharp::wetbulb</text>
</a>
</g>
</g>
<!-- Node2 -->
<g id="node2" class="node">
<title>Node2</title>
<g id="a_node2"><a xlink:href="namespacesharp.html#ae4385866921cd7286946d9ffdd65c25e" target="_top" xlink:title="Lift a parcel dry adiabatically to its Lifted Condensation Level (LCL).">
<polygon fill="white" stroke="#666666" points="203,-56 125,-56 125,-37 203,-37 203,-56"/>
<text text-anchor="middle" x="164" y="-44" font-family="Helvetica,sans-Serif" font-size="10.00">sharp::drylift</text>
</a>
</g>
</g>
<!-- Node1&#45;&gt;Node2 -->
<g id="edge1" class="edge">
<title>Node1&#45;&gt;Node2</title>
<path fill="none" stroke="#63b8ff" d="M89.25,-46.5C97.51,-46.5 106.19,-46.5 114.58,-46.5"/>
<polygon fill="#63b8ff" stroke="#63b8ff" points="114.62,-50 124.62,-46.5 114.62,-43 114.62,-50"/>
</g>
<!-- Node3 -->
<g id="node3" class="node">
<title>Node3</title>
<g id="a_node3"><a xlink:href="namespacesharp.html#a6f435bc49cb516376e1dc595e837e98b" target="_top" xlink:title="Compute the temperature of the LCL.">
<polygon fill="white" stroke="#666666" points="366,-93 239,-93 239,-74 366,-74 366,-93"/>
<text text-anchor="middle" x="302.5" y="-81" font-family="Helvetica,sans-Serif" font-size="10.00">sharp::lcl_temperature</text>
</a>
</g>
</g>
<!-- Node2&#45;&gt;Node3 -->
<g id="edge2" class="edge">
<title>Node2&#45;&gt;Node3</title>
<path fill="none" stroke="#63b8ff" d="M200.15,-56.03C217.21,-60.65 237.92,-66.27 256.15,-71.21"/>
<polygon fill="#63b8ff" stroke="#63b8ff" points="255.43,-74.64 265.99,-73.88 257.26,-67.88 255.43,-74.64"/>
</g>
<!-- Node4 -->
<g id="node4" class="node">
<title>Node4</title>
<g id="a_node4"><a xlink:href="namespacesharp.html#acfd0143ab72871c4aabc95c1140ee8fb" target="_top" xlink:title="Compute the potential temperature.">
<polygon fill="white" stroke="#666666" points="340,-56 265,-56 265,-37 340,-37 340,-56"/>
<text text-anchor="middle" x="302.5" y="-44" font-family="Helvetica,sans-Serif" font-size="10.00">sharp::theta</text>
</a>
</g>
</g>
<!-- Node2&#45;&gt;Node4 -->
<g id="edge3" class="edge">
<title>Node2&#45;&gt;Node4</title>
<path fill="none" stroke="#63b8ff" d="M203.02,-46.5C218.96,-46.5 237.66,-46.5 254.45,-46.5"/>
<polygon fill="#63b8ff" stroke="#63b8ff" points="254.62,-50 264.62,-46.5 254.62,-43 254.62,-50"/>
</g>
<!-- Node5 -->
<g id="node5" class="node">
<title>Node5</title>
<g id="a_node5"><a xlink:href="namespacesharp.html#ab50b565bcba73d207dc1433dee5b03c9" target="_top" xlink:title="Comute the pressure level given potential temperature and temperature.">
<polygon fill="white" stroke="#666666" points="354.5,-19 250.5,-19 250.5,0 354.5,0 354.5,-19"/>
<text text-anchor="middle" x="302.5" y="-7" font-family="Helvetica,sans-Serif" font-size="10.00">sharp::theta_level</text>
</a>
</g>
</g>
<!-- Node2&#45;&gt;Node5 -->
<g id="edge4" class="edge">
<title>Node2&#45;&gt;Node5</title>
<path fill="none" stroke="#63b8ff" d="M200.15,-36.97C217.21,-32.35 237.92,-26.73 256.15,-21.79"/>
<polygon fill="#63b8ff" stroke="#63b8ff" points="257.26,-25.12 265.99,-19.12 255.43,-18.36 257.26,-25.12"/>
</g>
</g>
</svg>
