<?xml version="1.0" encoding="UTF-8" standalone="no"?>
<!DOCTYPE svg PUBLIC "-//W3C//DTD SVG 1.1//EN"
 "http://www.w3.org/Graphics/SVG/1.1/DTD/svg11.dtd">
<!-- Generated by graphviz version 2.43.0 (0)
 -->
<!-- Title: sharp::virtual_temperature Pages: 1 -->
<svg width="671pt" height="196pt"
 viewBox="0.00 0.00 671.00 195.50" xmlns="http://www.w3.org/2000/svg" xmlns:xlink="http://www.w3.org/1999/xlink">
<g id="graph0" class="graph" transform="scale(1 1) rotate(0) translate(4 191.5)">
<title>sharp::virtual_temperature</title>
<!-- Node1 -->
<g id="node1" class="node">
<title>Node1</title>
<g id="a_node1"><a xlink:title="Compute the full virtual temperature.">
<polygon fill="#999999" stroke="#666666" points="663,-86 516,-86 516,-67 663,-67 663,-86"/>
<text text-anchor="middle" x="589.5" y="-74" font-family="Helvetica,sans-Serif" font-size="10.00">sharp::virtual_temperature</text>
</a>
</g>
</g>
<!-- Node2 -->
<g id="node2" class="node">
<title>Node2</title>
<g id="a_node2"><a xlink:href="structsharp_1_1Parcel.html#a9523de2b8b4c28ca49fba3013f94cb06" target="_top" xlink:title="Lifts a sharp::Parcel to compute its virtual temperature.">
<polygon fill="white" stroke="#666666" points="451.5,-163.5 353.5,-163.5 353.5,-133.5 451.5,-133.5 451.5,-163.5"/>
<text text-anchor="start" x="361.5" y="-151.5" font-family="Helvetica,sans-Serif" font-size="10.00">sharp::Parcel::lift</text>
<text text-anchor="middle" x="402.5" y="-140.5" font-family="Helvetica,sans-Serif" font-size="10.00">_parcel</text>
</a>
</g>
</g>
<!-- Node1&#45;&gt;Node2 -->
<g id="edge1" class="edge">
<title>Node1&#45;&gt;Node2</title>
<path fill="none" stroke="#63b8ff" d="M559.5,-90.4C537.85,-100.51 507.41,-114.17 480,-124.5 470.88,-127.93 461.03,-131.29 451.53,-134.34"/>
<polygon fill="#63b8ff" stroke="#63b8ff" points="561.22,-93.45 568.78,-86.03 558.24,-87.12 561.22,-93.45"/>
</g>
<!-- Node6 -->
<g id="node6" class="node">
<title>Node6</title>
<g id="a_node6"><a xlink:href="structsharp_1_1lifter__wobus.html#a82be5bdfdff54890488bbc1461b5b05e" target="_top" xlink:title="Computes the virtual temperature of the parcel.">
<polygon fill="white" stroke="#666666" points="480,-115.5 325,-115.5 325,-85.5 480,-85.5 480,-115.5"/>
<text text-anchor="start" x="333" y="-103.5" font-family="Helvetica,sans-Serif" font-size="10.00">sharp::lifter_wobus</text>
<text text-anchor="middle" x="402.5" y="-92.5" font-family="Helvetica,sans-Serif" font-size="10.00">::parcel_virtual_temperature</text>
</a>
</g>
</g>
<!-- Node1&#45;&gt;Node6 -->
<g id="edge5" class="edge">
<title>Node1&#45;&gt;Node6</title>
<path fill="none" stroke="#63b8ff" d="M505.92,-87.21C497.34,-88.33 488.65,-89.45 480.14,-90.56"/>
<polygon fill="#63b8ff" stroke="#63b8ff" points="506.45,-90.67 515.91,-85.92 505.55,-83.73 506.45,-90.67"/>
</g>
<!-- Node7 -->
<g id="node7" class="node">
<title>Node7</title>
<g id="a_node7"><a xlink:href="structsharp_1_1lifter__cm1.html#a2fc203010e232bd969ac0b09f15c4329" target="_top" xlink:title="Computes the virtual temperature of the parcel.">
<polygon fill="white" stroke="#666666" points="477,-67.5 328,-67.5 328,-37.5 477,-37.5 477,-67.5"/>
<text text-anchor="start" x="336" y="-55.5" font-family="Helvetica,sans-Serif" font-size="10.00">sharp::lifter_cm1::</text>
<text text-anchor="middle" x="402.5" y="-44.5" font-family="Helvetica,sans-Serif" font-size="10.00">parcel_virtual_temperature</text>
</a>
</g>
</g>
<!-- Node1&#45;&gt;Node7 -->
<g id="edge6" class="edge">
<title>Node1&#45;&gt;Node7</title>
<path fill="none" stroke="#63b8ff" d="M505.96,-65.79C496.34,-64.54 486.58,-63.28 477.09,-62.05"/>
<polygon fill="#63b8ff" stroke="#63b8ff" points="505.55,-69.27 515.91,-67.08 506.45,-62.33 505.55,-69.27"/>
</g>
<!-- Node8 -->
<g id="node8" class="node">
<title>Node8</title>
<g id="a_node8"><a xlink:href="thermo__wrap_8cpp.html#a0568dcc4e8ae316e0385f98ceee9fbb0" target="_top" xlink:title=" ">
<polygon fill="white" stroke="#666666" points="475.5,-19 329.5,-19 329.5,0 475.5,0 475.5,-19"/>
<text text-anchor="middle" x="402.5" y="-7" font-family="Helvetica,sans-Serif" font-size="10.00">sharp_virtual_temperature</text>
</a>
</g>
</g>
<!-- Node1&#45;&gt;Node8 -->
<g id="edge7" class="edge">
<title>Node1&#45;&gt;Node8</title>
<path fill="none" stroke="#63b8ff" d="M560.46,-62.49C538.86,-52.09 508.05,-38.11 480,-28.5 469.64,-24.95 458.29,-21.77 447.57,-19.06"/>
<polygon fill="#63b8ff" stroke="#63b8ff" points="559.17,-65.75 569.69,-66.98 562.23,-59.46 559.17,-65.75"/>
</g>
<!-- Node3 -->
<g id="node3" class="node">
<title>Node3</title>
<g id="a_node3"><a xlink:href="namespacesharp.html#a2e6b7cd4a3594a8f2c2050b0e4784cce" target="_top" xlink:title="Computes the Effective Inflow Layer for a given atmospheric sounding.">
<polygon fill="white" stroke="#666666" points="289,-187.5 162,-187.5 162,-157.5 289,-157.5 289,-187.5"/>
<text text-anchor="start" x="170" y="-175.5" font-family="Helvetica,sans-Serif" font-size="10.00">sharp::effective_inflow</text>
<text text-anchor="middle" x="225.5" y="-164.5" font-family="Helvetica,sans-Serif" font-size="10.00">_layer</text>
</a>
</g>
</g>
<!-- Node2&#45;&gt;Node3 -->
<g id="edge2" class="edge">
<title>Node2&#45;&gt;Node3</title>
<path fill="none" stroke="#63b8ff" d="M343.21,-156.49C325.83,-158.88 306.71,-161.5 289.07,-163.92"/>
<polygon fill="#63b8ff" stroke="#63b8ff" points="343.79,-159.95 353.22,-155.12 342.83,-153.01 343.79,-159.95"/>
</g>
<!-- Node5 -->
<g id="node5" class="node">
<title>Node5</title>
<g id="a_node5"><a xlink:href="structsharp_1_1Parcel.html#aa258d27992d22d8b80cb221e6e2a6c19" target="_top" xlink:title="Construct and return a most&#45;unstable Parcel.">
<polygon fill="white" stroke="#666666" points="280.5,-139.5 170.5,-139.5 170.5,-109.5 280.5,-109.5 280.5,-139.5"/>
<text text-anchor="start" x="178.5" y="-127.5" font-family="Helvetica,sans-Serif" font-size="10.00">sharp::Parcel::most</text>
<text text-anchor="middle" x="225.5" y="-116.5" font-family="Helvetica,sans-Serif" font-size="10.00">_unstable_parcel</text>
</a>
</g>
</g>
<!-- Node2&#45;&gt;Node5 -->
<g id="edge4" class="edge">
<title>Node2&#45;&gt;Node5</title>
<path fill="none" stroke="#63b8ff" d="M343.23,-140.51C323.08,-137.75 300.6,-134.66 280.79,-131.95"/>
<polygon fill="#63b8ff" stroke="#63b8ff" points="342.83,-143.99 353.22,-141.88 343.79,-137.05 342.83,-143.99"/>
</g>
<!-- Node4 -->
<g id="node4" class="node">
<title>Node4</title>
<g id="a_node4"><a xlink:href="convective__wrap_8cpp.html#af214bab6c6ba14dc06fe7df4f6abcdf8" target="_top" xlink:title=" ">
<polygon fill="white" stroke="#666666" points="126,-187.5 0,-187.5 0,-157.5 126,-157.5 126,-187.5"/>
<text text-anchor="start" x="8" y="-175.5" font-family="Helvetica,sans-Serif" font-size="10.00">sharp_effective_inflow</text>
<text text-anchor="middle" x="63" y="-164.5" font-family="Helvetica,sans-Serif" font-size="10.00">_layer</text>
</a>
</g>
</g>
<!-- Node3&#45;&gt;Node4 -->
<g id="edge3" class="edge">
<title>Node3&#45;&gt;Node4</title>
<path fill="none" stroke="#63b8ff" d="M151.93,-172.5C143.3,-172.5 134.55,-172.5 126.08,-172.5"/>
<polygon fill="#63b8ff" stroke="#63b8ff" points="151.99,-176 161.99,-172.5 151.99,-169 151.99,-176"/>
</g>
</g>
</svg>
