<?xml version="1.0" encoding="UTF-8" standalone="no"?>
<!DOCTYPE svg PUBLIC "-//W3C//DTD SVG 1.1//EN"
 "http://www.w3.org/Graphics/SVG/1.1/DTD/svg11.dtd">
<!-- Generated by graphviz version 2.43.0 (0)
 -->
<!-- Title: sharp::mixratio Pages: 1 -->
<svg width="612pt" height="318pt"
 viewBox="0.00 0.00 612.00 317.50" xmlns="http://www.w3.org/2000/svg" xmlns:xlink="http://www.w3.org/1999/xlink">
<g id="graph0" class="graph" transform="scale(1 1) rotate(0) translate(4 313.5)">
<title>sharp::mixratio</title>
<!-- Node1 -->
<g id="node1" class="node">
<title>Node1</title>
<g id="a_node1"><a xlink:title="Compute the water vapor mixing ratio from specific humidity.">
<polygon fill="#999999" stroke="#666666" points="604,-176 513,-176 513,-157 604,-157 604,-176"/>
<text text-anchor="middle" x="558.5" y="-164" font-family="Helvetica,sans-Serif" font-size="10.00">sharp::mixratio</text>
</a>
</g>
</g>
<!-- Node2 -->
<g id="node2" class="node">
<title>Node2</title>
<g id="a_node2"><a xlink:href="namespacesharp.html#a7494c22424745a8847092b64195fb9ae" target="_top" xlink:title=" ">
<polygon fill="white" stroke="#666666" points="453,-304 346,-304 346,-285 453,-285 453,-304"/>
<text text-anchor="middle" x="399.5" y="-292" font-family="Helvetica,sans-Serif" font-size="10.00">sharp::_solve_cm1</text>
</a>
</g>
</g>
<!-- Node1&#45;&gt;Node2 -->
<g id="edge1" class="edge">
<title>Node1&#45;&gt;Node2</title>
<path fill="none" stroke="#63b8ff" d="M548.96,-185.37C536.69,-210.24 511.68,-253.53 477,-276.5 469.83,-281.25 461.56,-284.75 453.16,-287.33"/>
<polygon fill="#63b8ff" stroke="#63b8ff" points="552.16,-186.77 553.29,-176.24 545.84,-183.77 552.16,-186.77"/>
</g>
<!-- Node5 -->
<g id="node5" class="node">
<title>Node5</title>
<g id="a_node5"><a xlink:href="namespacesharp.html#a72bbdc4cfe7895dd51981902ac9fc822" target="_top" xlink:title="Computes Entrainment CAPE using a previously lifted parcel.">
<polygon fill="white" stroke="#666666" points="468.5,-267 330.5,-267 330.5,-248 468.5,-248 468.5,-267"/>
<text text-anchor="middle" x="399.5" y="-255" font-family="Helvetica,sans-Serif" font-size="10.00">sharp::entrainment_cape</text>
</a>
</g>
</g>
<!-- Node1&#45;&gt;Node5 -->
<g id="edge4" class="edge">
<title>Node1&#45;&gt;Node5</title>
<path fill="none" stroke="#63b8ff" d="M542.76,-183.86C527.83,-200.35 503.25,-224.61 477,-238.5 469.74,-242.34 461.68,-245.42 453.6,-247.89"/>
<polygon fill="#63b8ff" stroke="#63b8ff" points="545.67,-185.87 549.65,-176.05 540.41,-181.24 545.67,-185.87"/>
</g>
<!-- Node6 -->
<g id="node6" class="node">
<title>Node6</title>
<g id="a_node6"><a xlink:href="structsharp_1_1Parcel.html#a9523de2b8b4c28ca49fba3013f94cb06" target="_top" xlink:title="Lifts a sharp::Parcel to compute its virtual temperature.">
<polygon fill="white" stroke="#666666" points="448.5,-229.5 350.5,-229.5 350.5,-199.5 448.5,-199.5 448.5,-229.5"/>
<text text-anchor="start" x="358.5" y="-217.5" font-family="Helvetica,sans-Serif" font-size="10.00">sharp::Parcel::lift</text>
<text text-anchor="middle" x="399.5" y="-206.5" font-family="Helvetica,sans-Serif" font-size="10.00">_parcel</text>
</a>
</g>
</g>
<!-- Node1&#45;&gt;Node6 -->
<g id="edge5" class="edge">
<title>Node1&#45;&gt;Node6</title>
<path fill="none" stroke="#63b8ff" d="M516.31,-179.09C495.53,-185.45 470.21,-193.19 448.55,-199.81"/>
<polygon fill="#63b8ff" stroke="#63b8ff" points="517.57,-182.37 526.11,-176.1 515.52,-175.67 517.57,-182.37"/>
</g>
<!-- Node9 -->
<g id="node9" class="node">
<title>Node9</title>
<g id="a_node9"><a xlink:href="structsharp_1_1lifter__wobus.html#a82be5bdfdff54890488bbc1461b5b05e" target="_top" xlink:title="Computes the virtual temperature of the parcel.">
<polygon fill="white" stroke="#666666" points="477,-181.5 322,-181.5 322,-151.5 477,-151.5 477,-181.5"/>
<text text-anchor="start" x="330" y="-169.5" font-family="Helvetica,sans-Serif" font-size="10.00">sharp::lifter_wobus</text>
<text text-anchor="middle" x="399.5" y="-158.5" font-family="Helvetica,sans-Serif" font-size="10.00">::parcel_virtual_temperature</text>
</a>
</g>
</g>
<!-- Node1&#45;&gt;Node9 -->
<g id="edge8" class="edge">
<title>Node1&#45;&gt;Node9</title>
<path fill="none" stroke="#63b8ff" d="M502.73,-166.5C494.49,-166.5 485.87,-166.5 477.27,-166.5"/>
<polygon fill="#63b8ff" stroke="#63b8ff" points="502.93,-170 512.93,-166.5 502.93,-163 502.93,-170"/>
</g>
<!-- Node10 -->
<g id="node10" class="node">
<title>Node10</title>
<g id="a_node10"><a xlink:href="structsharp_1_1lifter__cm1.html#a4750e359411eefdfb6d4970052637750" target="_top" xlink:title="perform the necessary setup for parcel ascent.">
<polygon fill="white" stroke="#666666" points="451.5,-133.5 347.5,-133.5 347.5,-103.5 451.5,-103.5 451.5,-133.5"/>
<text text-anchor="start" x="355.5" y="-121.5" font-family="Helvetica,sans-Serif" font-size="10.00">sharp::lifter_cm1::</text>
<text text-anchor="middle" x="399.5" y="-110.5" font-family="Helvetica,sans-Serif" font-size="10.00">setup</text>
</a>
</g>
</g>
<!-- Node1&#45;&gt;Node10 -->
<g id="edge9" class="edge">
<title>Node1&#45;&gt;Node10</title>
<path fill="none" stroke="#63b8ff" d="M516.47,-153.96C496.05,-147.71 471.21,-140.12 449.77,-133.56"/>
<polygon fill="#63b8ff" stroke="#63b8ff" points="515.52,-157.33 526.11,-156.9 517.57,-150.63 515.52,-157.33"/>
</g>
<!-- Node11 -->
<g id="node11" class="node">
<title>Node11</title>
<g id="a_node11"><a xlink:href="namespacesharp.html#a2cc62883642729e449cee8a013845c52" target="_top" xlink:title="compute the Significant Hail Parameter">
<polygon fill="white" stroke="#666666" points="449.5,-85.5 349.5,-85.5 349.5,-55.5 449.5,-55.5 449.5,-85.5"/>
<text text-anchor="start" x="357.5" y="-73.5" font-family="Helvetica,sans-Serif" font-size="10.00">sharp::significant</text>
<text text-anchor="middle" x="399.5" y="-62.5" font-family="Helvetica,sans-Serif" font-size="10.00">_hail_parameter</text>
</a>
</g>
</g>
<!-- Node1&#45;&gt;Node11 -->
<g id="edge10" class="edge">
<title>Node1&#45;&gt;Node11</title>
<path fill="none" stroke="#63b8ff" d="M542.09,-148.95C526.97,-132.74 502.54,-109.02 477,-94.5 468.53,-89.69 458.97,-85.71 449.55,-82.47"/>
<polygon fill="#63b8ff" stroke="#63b8ff" points="539.78,-151.62 549.1,-156.66 544.96,-146.91 539.78,-151.62"/>
</g>
<!-- Node12 -->
<g id="node12" class="node">
<title>Node12</title>
<g id="a_node12"><a xlink:href="namespacesharp.html#ab06f16aa1caac3136e863db8cd61e2e9" target="_top" xlink:title="Compute the equivalent potential temperature.">
<polygon fill="white" stroke="#666666" points="440,-19 359,-19 359,0 440,0 440,-19"/>
<text text-anchor="middle" x="399.5" y="-7" font-family="Helvetica,sans-Serif" font-size="10.00">sharp::thetae</text>
</a>
</g>
</g>
<!-- Node1&#45;&gt;Node12 -->
<g id="edge11" class="edge">
<title>Node1&#45;&gt;Node12</title>
<path fill="none" stroke="#63b8ff" d="M548.91,-147.78C536.3,-122.07 510.61,-75.69 477,-46.5 462.97,-34.31 444.21,-25.16 428.79,-19"/>
<polygon fill="#63b8ff" stroke="#63b8ff" points="545.76,-149.32 553.22,-156.84 552.08,-146.31 545.76,-149.32"/>
</g>
<!-- Node3 -->
<g id="node3" class="node">
<title>Node3</title>
<g id="a_node3"><a xlink:href="namespacesharp.html#aa258841692c25171d3f3b2e8b1f52079" target="_top" xlink:title="Compute the temperature of a parcel lifted moist adiabatically to a new level.">
<polygon fill="white" stroke="#666666" points="286,-304 140,-304 140,-285 286,-285 286,-304"/>
<text text-anchor="middle" x="213" y="-292" font-family="Helvetica,sans-Serif" font-size="10.00">sharp::moist_adiabat_cm1</text>
</a>
</g>
</g>
<!-- Node2&#45;&gt;Node3 -->
<g id="edge2" class="edge">
<title>Node2&#45;&gt;Node3</title>
<path fill="none" stroke="#63b8ff" d="M335.41,-294.5C319.55,-294.5 302.4,-294.5 286.13,-294.5"/>
<polygon fill="#63b8ff" stroke="#63b8ff" points="335.63,-298 345.63,-294.5 335.63,-291 335.63,-298"/>
</g>
<!-- Node4 -->
<g id="node4" class="node">
<title>Node4</title>
<g id="a_node4"><a xlink:href="structsharp_1_1lifter__cm1.html#a2eeb5b118ef40e873c09ac9b3635f7b9" target="_top" xlink:title="Overloads operator() to call sharp::moist_adiabat_cm1.">
<polygon fill="white" stroke="#666666" points="104,-309.5 0,-309.5 0,-279.5 104,-279.5 104,-309.5"/>
<text text-anchor="start" x="8" y="-297.5" font-family="Helvetica,sans-Serif" font-size="10.00">sharp::lifter_cm1::</text>
<text text-anchor="middle" x="52" y="-286.5" font-family="Helvetica,sans-Serif" font-size="10.00">operator()</text>
</a>
</g>
</g>
<!-- Node3&#45;&gt;Node4 -->
<g id="edge3" class="edge">
<title>Node3&#45;&gt;Node4</title>
<path fill="none" stroke="#63b8ff" d="M129.79,-294.5C121.14,-294.5 112.53,-294.5 104.38,-294.5"/>
<polygon fill="#63b8ff" stroke="#63b8ff" points="129.94,-298 139.94,-294.5 129.94,-291 129.94,-298"/>
</g>
<!-- Node7 -->
<g id="node7" class="node">
<title>Node7</title>
<g id="a_node7"><a xlink:href="namespacesharp.html#a2e6b7cd4a3594a8f2c2050b0e4784cce" target="_top" xlink:title="Computes the Effective Inflow Layer for a given atmospheric sounding.">
<polygon fill="white" stroke="#666666" points="276.5,-247.5 149.5,-247.5 149.5,-217.5 276.5,-217.5 276.5,-247.5"/>
<text text-anchor="start" x="157.5" y="-235.5" font-family="Helvetica,sans-Serif" font-size="10.00">sharp::effective_inflow</text>
<text text-anchor="middle" x="213" y="-224.5" font-family="Helvetica,sans-Serif" font-size="10.00">_layer</text>
</a>
</g>
</g>
<!-- Node6&#45;&gt;Node7 -->
<g id="edge6" class="edge">
<title>Node6&#45;&gt;Node7</title>
<path fill="none" stroke="#63b8ff" d="M340.04,-220.2C319.89,-222.17 297.23,-224.38 276.74,-226.38"/>
<polygon fill="#63b8ff" stroke="#63b8ff" points="340.41,-223.68 350.02,-219.23 339.73,-216.72 340.41,-223.68"/>
</g>
<!-- Node8 -->
<g id="node8" class="node">
<title>Node8</title>
<g id="a_node8"><a xlink:href="structsharp_1_1Parcel.html#aa258d27992d22d8b80cb221e6e2a6c19" target="_top" xlink:title="Construct and return a most&#45;unstable Parcel.">
<polygon fill="white" stroke="#666666" points="268,-199.5 158,-199.5 158,-169.5 268,-169.5 268,-199.5"/>
<text text-anchor="start" x="166" y="-187.5" font-family="Helvetica,sans-Serif" font-size="10.00">sharp::Parcel::most</text>
<text text-anchor="middle" x="213" y="-176.5" font-family="Helvetica,sans-Serif" font-size="10.00">_unstable_parcel</text>
</a>
</g>
</g>
<!-- Node6&#45;&gt;Node8 -->
<g id="edge7" class="edge">
<title>Node6&#45;&gt;Node8</title>
<path fill="none" stroke="#63b8ff" d="M340.02,-204.99C316.95,-201.24 290.61,-196.96 268,-193.28"/>
<polygon fill="#63b8ff" stroke="#63b8ff" points="339.59,-208.47 350.02,-206.62 340.72,-201.56 339.59,-208.47"/>
</g>
<!-- Node12&#45;&gt;Node12 -->
<g id="edge12" class="edge">
<title>Node12&#45;&gt;Node12</title>
<path fill="none" stroke="#63b8ff" d="M428.99,-27.82C427.76,-33.01 417.93,-37 399.5,-37 371.42,-37 363.3,-27.73 375.15,-19.08"/>
<polygon fill="#63b8ff" stroke="#63b8ff" points="431.94,-25.93 423.85,-19.08 425.91,-29.48 431.94,-25.93"/>
</g>
</g>
</svg>
