<?xml version="1.0" encoding="UTF-8" standalone="no"?>
<!DOCTYPE svg PUBLIC "-//W3C//DTD SVG 1.1//EN"
 "http://www.w3.org/Graphics/SVG/1.1/DTD/svg11.dtd">
<!-- Generated by graphviz version 2.43.0 (0)
 -->
<!-- Title: sharp::wind_shear Pages: 1 -->
<svg width="286pt" height="86pt"
 viewBox="0.00 0.00 286.00 86.00" xmlns="http://www.w3.org/2000/svg" xmlns:xlink="http://www.w3.org/1999/xlink">
<g id="graph0" class="graph" transform="scale(1 1) rotate(0) translate(4 82)">
<title>sharp::wind_shear</title>
<!-- Node1 -->
<g id="node1" class="node">
<title>Node1</title>
<g id="a_node1"><a xlink:title="Compue the wind shear for a given layer.">
<polygon fill="#999999" stroke="#666666" points="278,-48.5 173,-48.5 173,-29.5 278,-29.5 278,-48.5"/>
<text text-anchor="middle" x="225.5" y="-36.5" font-family="Helvetica,sans-Serif" font-size="10.00">sharp::wind_shear</text>
</a>
</g>
</g>
<!-- Node2 -->
<g id="node2" class="node">
<title>Node2</title>
<g id="a_node2"><a xlink:href="winds__wrap_8cpp.html#a1c0e9a86e60d26bf1e2d1cedff36c601" target="_top" xlink:title=" ">
<polygon fill="white" stroke="#666666" points="137,-78 0,-78 0,-48 137,-48 137,-78"/>
<text text-anchor="start" x="8" y="-66" font-family="Helvetica,sans-Serif" font-size="10.00">sharp_HeightLayer_wind</text>
<text text-anchor="middle" x="68.5" y="-55" font-family="Helvetica,sans-Serif" font-size="10.00">_shear</text>
</a>
</g>
</g>
<!-- Node1&#45;&gt;Node2 -->
<g id="edge1" class="edge">
<title>Node1&#45;&gt;Node2</title>
<path fill="none" stroke="#63b8ff" d="M162.77,-48.56C154.35,-49.86 145.68,-51.21 137.16,-52.52"/>
<polygon fill="#63b8ff" stroke="#63b8ff" points="163.54,-51.98 172.89,-46.99 162.47,-45.06 163.54,-51.98"/>
</g>
<!-- Node3 -->
<g id="node3" class="node">
<title>Node3</title>
<g id="a_node3"><a xlink:href="winds__wrap_8cpp.html#a3eac778ad96a01cf68ea55e502520a9c" target="_top" xlink:title=" ">
<polygon fill="white" stroke="#666666" points="127.5,-30 9.5,-30 9.5,0 127.5,0 127.5,-30"/>
<text text-anchor="start" x="17.5" y="-18" font-family="Helvetica,sans-Serif" font-size="10.00">sharp_PressureLayer</text>
<text text-anchor="middle" x="68.5" y="-7" font-family="Helvetica,sans-Serif" font-size="10.00">_wind_shear</text>
</a>
</g>
</g>
<!-- Node1&#45;&gt;Node3 -->
<g id="edge2" class="edge">
<title>Node1&#45;&gt;Node3</title>
<path fill="none" stroke="#63b8ff" d="M162.83,-29.45C151.2,-27.65 139.08,-25.77 127.57,-23.99"/>
<polygon fill="#63b8ff" stroke="#63b8ff" points="162.47,-32.94 172.89,-31.01 163.54,-26.02 162.47,-32.94"/>
</g>
</g>
</svg>
