<?xml version="1.0" encoding="UTF-8" standalone="no"?>
<!DOCTYPE svg PUBLIC "-//W3C//DTD SVG 1.1//EN"
 "http://www.w3.org/Graphics/SVG/1.1/DTD/svg11.dtd">
<!-- Generated by graphviz version 2.43.0 (0)
 -->
<!-- Title: sharp::_solve_cm1 Pages: 1 -->
<svg width="437pt" height="38pt"
 viewBox="0.00 0.00 437.00 38.00" xmlns="http://www.w3.org/2000/svg" xmlns:xlink="http://www.w3.org/1999/xlink">
<g id="graph0" class="graph" transform="scale(1 1) rotate(0) translate(4 34)">
<title>sharp::_solve_cm1</title>
<!-- Node1 -->
<g id="node1" class="node">
<title>Node1</title>
<g id="a_node1"><a xlink:title=" ">
<polygon fill="#999999" stroke="#666666" points="429,-24.5 322,-24.5 322,-5.5 429,-5.5 429,-24.5"/>
<text text-anchor="middle" x="375.5" y="-12.5" font-family="Helvetica,sans-Serif" font-size="10.00">sharp::_solve_cm1</text>
</a>
</g>
</g>
<!-- Node2 -->
<g id="node2" class="node">
<title>Node2</title>
<g id="a_node2"><a xlink:href="namespacesharp.html#aa258841692c25171d3f3b2e8b1f52079" target="_top" xlink:title="Compute the temperature of a parcel lifted moist adiabatically to a new level.">
<polygon fill="white" stroke="#666666" points="286,-24.5 140,-24.5 140,-5.5 286,-5.5 286,-24.5"/>
<text text-anchor="middle" x="213" y="-12.5" font-family="Helvetica,sans-Serif" font-size="10.00">sharp::moist_adiabat_cm1</text>
</a>
</g>
</g>
<!-- Node1&#45;&gt;Node2 -->
<g id="edge1" class="edge">
<title>Node1&#45;&gt;Node2</title>
<path fill="none" stroke="#63b8ff" d="M311.85,-15C303.44,-15 294.76,-15 286.2,-15"/>
<polygon fill="#63b8ff" stroke="#63b8ff" points="311.95,-18.5 321.95,-15 311.95,-11.5 311.95,-18.5"/>
</g>
<!-- Node3 -->
<g id="node3" class="node">
<title>Node3</title>
<g id="a_node3"><a xlink:href="structsharp_1_1lifter__cm1.html#a2eeb5b118ef40e873c09ac9b3635f7b9" target="_top" xlink:title="Overloads operator() to call sharp::moist_adiabat_cm1.">
<polygon fill="white" stroke="#666666" points="104,-30 0,-30 0,0 104,0 104,-30"/>
<text text-anchor="start" x="8" y="-18" font-family="Helvetica,sans-Serif" font-size="10.00">sharp::lifter_cm1::</text>
<text text-anchor="middle" x="52" y="-7" font-family="Helvetica,sans-Serif" font-size="10.00">operator()</text>
</a>
</g>
</g>
<!-- Node2&#45;&gt;Node3 -->
<g id="edge2" class="edge">
<title>Node2&#45;&gt;Node3</title>
<path fill="none" stroke="#63b8ff" d="M129.79,-15C121.14,-15 112.53,-15 104.38,-15"/>
<polygon fill="#63b8ff" stroke="#63b8ff" points="129.94,-18.5 139.94,-15 129.94,-11.5 129.94,-18.5"/>
</g>
</g>
</svg>
