<?xml version="1.0" encoding="UTF-8" standalone="no"?>
<!DOCTYPE svg PUBLIC "-//W3C//DTD SVG 1.1//EN"
 "http://www.w3.org/Graphics/SVG/1.1/DTD/svg11.dtd">
<!-- Generated by graphviz version 2.43.0 (0)
 -->
<!-- Title: sharp::_integ_trapz Pages: 1 -->
<svg width="622pt" height="172pt"
 viewBox="0.00 0.00 622.00 172.00" xmlns="http://www.w3.org/2000/svg" xmlns:xlink="http://www.w3.org/1999/xlink">
<g id="graph0" class="graph" transform="scale(1 1) rotate(0) translate(4 168)">
<title>sharp::_integ_trapz</title>
<!-- Node1 -->
<g id="node1" class="node">
<title>Node1</title>
<g id="a_node1"><a xlink:title="A kernel that computes the area under a curve using the trapezoidal rule.">
<polygon fill="#999999" stroke="#666666" points="614,-69.5 504,-69.5 504,-50.5 614,-50.5 614,-69.5"/>
<text text-anchor="middle" x="559" y="-57.5" font-family="Helvetica,sans-Serif" font-size="10.00">sharp::_integ_trapz</text>
</a>
</g>
</g>
<!-- Node2 -->
<g id="node2" class="node">
<title>Node2</title>
<g id="a_node2"><a xlink:href="namespacesharp.html#a7acec1642f27591dc988bf9e48b4612d" target="_top" xlink:title="Returns a trapezoidal integration of the given layer.">
<polygon fill="white" stroke="#666666" points="468,-75 344,-75 344,-45 468,-45 468,-75"/>
<text text-anchor="start" x="352" y="-63" font-family="Helvetica,sans-Serif" font-size="10.00">sharp::integrate_layer</text>
<text text-anchor="middle" x="406" y="-52" font-family="Helvetica,sans-Serif" font-size="10.00">_trapz</text>
</a>
</g>
</g>
<!-- Node1&#45;&gt;Node2 -->
<g id="edge1" class="edge">
<title>Node1&#45;&gt;Node2</title>
<path fill="none" stroke="#63b8ff" d="M493.7,-60C485.23,-60 476.57,-60 468.15,-60"/>
<polygon fill="#63b8ff" stroke="#63b8ff" points="493.91,-63.5 503.91,-60 493.91,-56.5 493.91,-63.5"/>
</g>
<!-- Node3 -->
<g id="node3" class="node">
<title>Node3</title>
<g id="a_node3"><a xlink:href="structsharp_1_1Parcel.html#a0560bd193b2d2d6bc6b08baa7463fba4" target="_top" xlink:title="Compute CAPE and CINH for a previously lifted sharp::Parcel.">
<polygon fill="white" stroke="#666666" points="308,-110.5 174,-110.5 174,-91.5 308,-91.5 308,-110.5"/>
<text text-anchor="middle" x="241" y="-98.5" font-family="Helvetica,sans-Serif" font-size="10.00">sharp::Parcel::cape_cinh</text>
</a>
</g>
</g>
<!-- Node2&#45;&gt;Node3 -->
<g id="edge2" class="edge">
<title>Node2&#45;&gt;Node3</title>
<path fill="none" stroke="#63b8ff" d="M335.39,-77.51C316.39,-82.29 296.5,-87.29 279.98,-91.45"/>
<polygon fill="#63b8ff" stroke="#63b8ff" points="336.39,-80.87 345.23,-75.03 334.68,-74.08 336.39,-80.87"/>
</g>
<!-- Node6 -->
<g id="node6" class="node">
<title>Node6</title>
<g id="a_node6"><a xlink:href="namespacesharp.html#a72bbdc4cfe7895dd51981902ac9fc822" target="_top" xlink:title="Computes Entrainment CAPE using a previously lifted parcel.">
<polygon fill="white" stroke="#666666" points="138,-67.5 0,-67.5 0,-48.5 138,-48.5 138,-67.5"/>
<text text-anchor="middle" x="69" y="-55.5" font-family="Helvetica,sans-Serif" font-size="10.00">sharp::entrainment_cape</text>
</a>
</g>
</g>
<!-- Node2&#45;&gt;Node6 -->
<g id="edge5" class="edge">
<title>Node2&#45;&gt;Node6</title>
<path fill="none" stroke="#63b8ff" d="M333.8,-59.57C276.01,-59.23 195.07,-58.75 138.13,-58.41"/>
<polygon fill="#63b8ff" stroke="#63b8ff" points="333.92,-63.08 343.95,-59.64 333.97,-56.08 333.92,-63.08"/>
</g>
<!-- Node7 -->
<g id="node7" class="node">
<title>Node7</title>
<g id="a_node7"><a xlink:href="namespacesharp.html#a298e2c96c389f2c5177d3626c908927e" target="_top" xlink:title="Computes the mass&#45;weighted mean value of a field over a given pressure layer.">
<polygon fill="white" stroke="#666666" points="294.5,-31.5 187.5,-31.5 187.5,-12.5 294.5,-12.5 294.5,-31.5"/>
<text text-anchor="middle" x="241" y="-19.5" font-family="Helvetica,sans-Serif" font-size="10.00">sharp::layer_mean</text>
</a>
</g>
</g>
<!-- Node2&#45;&gt;Node7 -->
<g id="edge6" class="edge">
<title>Node2&#45;&gt;Node7</title>
<path fill="none" stroke="#63b8ff" d="M333.76,-43.39C316.48,-39.36 298.57,-35.19 283.21,-31.61"/>
<polygon fill="#63b8ff" stroke="#63b8ff" points="333.31,-46.88 343.84,-45.74 334.9,-40.06 333.31,-46.88"/>
</g>
<!-- Node4 -->
<g id="node4" class="node">
<title>Node4</title>
<g id="a_node4"><a xlink:href="namespacesharp.html#a2e6b7cd4a3594a8f2c2050b0e4784cce" target="_top" xlink:title="Computes the Effective Inflow Layer for a given atmospheric sounding.">
<polygon fill="white" stroke="#666666" points="132.5,-164 5.5,-164 5.5,-134 132.5,-134 132.5,-164"/>
<text text-anchor="start" x="13.5" y="-152" font-family="Helvetica,sans-Serif" font-size="10.00">sharp::effective_inflow</text>
<text text-anchor="middle" x="69" y="-141" font-family="Helvetica,sans-Serif" font-size="10.00">_layer</text>
</a>
</g>
</g>
<!-- Node3&#45;&gt;Node4 -->
<g id="edge3" class="edge">
<title>Node3&#45;&gt;Node4</title>
<path fill="none" stroke="#63b8ff" d="M196.18,-113.37C173.95,-119.65 146.78,-127.32 123.35,-133.94"/>
<polygon fill="#63b8ff" stroke="#63b8ff" points="197.33,-116.68 206.01,-110.6 195.43,-109.95 197.33,-116.68"/>
</g>
<!-- Node5 -->
<g id="node5" class="node">
<title>Node5</title>
<g id="a_node5"><a xlink:href="structsharp_1_1Parcel.html#aa258d27992d22d8b80cb221e6e2a6c19" target="_top" xlink:title="Construct and return a most&#45;unstable Parcel.">
<polygon fill="white" stroke="#666666" points="124,-116 14,-116 14,-86 124,-86 124,-116"/>
<text text-anchor="start" x="22" y="-104" font-family="Helvetica,sans-Serif" font-size="10.00">sharp::Parcel::most</text>
<text text-anchor="middle" x="69" y="-93" font-family="Helvetica,sans-Serif" font-size="10.00">_unstable_parcel</text>
</a>
</g>
</g>
<!-- Node3&#45;&gt;Node5 -->
<g id="edge4" class="edge">
<title>Node3&#45;&gt;Node5</title>
<path fill="none" stroke="#63b8ff" d="M163.69,-101C150.38,-101 136.79,-101 124.23,-101"/>
<polygon fill="#63b8ff" stroke="#63b8ff" points="163.79,-104.5 173.79,-101 163.79,-97.5 163.79,-104.5"/>
</g>
<!-- Node7&#45;&gt;Node6 -->
<g id="edge7" class="edge">
<title>Node7&#45;&gt;Node6</title>
<path fill="none" stroke="#63b8ff" d="M185.08,-33.63C162.43,-38.43 136.52,-43.91 115.03,-48.47"/>
<polygon fill="#63b8ff" stroke="#63b8ff" points="185.83,-37.05 194.89,-31.55 184.38,-30.2 185.83,-37.05"/>
</g>
<!-- Node8 -->
<g id="node8" class="node">
<title>Node8</title>
<g id="a_node8"><a xlink:href="structsharp_1_1Parcel.html#a1bf670e79f35a1ce8c904b7ead32ccbe" target="_top" xlink:title="Construct and return a mixed&#45;layer Parcel.">
<polygon fill="white" stroke="#666666" points="126.5,-30 11.5,-30 11.5,0 126.5,0 126.5,-30"/>
<text text-anchor="start" x="19.5" y="-18" font-family="Helvetica,sans-Serif" font-size="10.00">sharp::Parcel::mixed</text>
<text text-anchor="middle" x="69" y="-7" font-family="Helvetica,sans-Serif" font-size="10.00">_layer_parcel</text>
</a>
</g>
</g>
<!-- Node7&#45;&gt;Node8 -->
<g id="edge8" class="edge">
<title>Node7&#45;&gt;Node8</title>
<path fill="none" stroke="#63b8ff" d="M177.04,-19.41C160.53,-18.73 142.82,-18 126.66,-17.33"/>
<polygon fill="#63b8ff" stroke="#63b8ff" points="177.01,-22.91 187.14,-19.82 177.3,-15.91 177.01,-22.91"/>
</g>
</g>
</svg>
