<?xml version="1.0" encoding="UTF-8" standalone="no"?>
<!DOCTYPE svg PUBLIC "-//W3C//DTD SVG 1.1//EN"
 "http://www.w3.org/Graphics/SVG/1.1/DTD/svg11.dtd">
<!-- Generated by graphviz version 2.43.0 (0)
 -->
<!-- Title: sharp::drylift Pages: 1 -->
<svg width="249pt" height="101pt"
 viewBox="0.00 0.00 249.00 101.00" xmlns="http://www.w3.org/2000/svg" xmlns:xlink="http://www.w3.org/1999/xlink">
<g id="graph0" class="graph" transform="scale(1 1) rotate(0) translate(4 97)">
<title>sharp::drylift</title>
<!-- Node1 -->
<g id="node1" class="node">
<title>Node1</title>
<g id="a_node1"><a xlink:title="Lift a parcel dry adiabatically to its Lifted Condensation Level (LCL).">
<polygon fill="#999999" stroke="#666666" points="78,-56 0,-56 0,-37 78,-37 78,-56"/>
<text text-anchor="middle" x="39" y="-44" font-family="Helvetica,sans-Serif" font-size="10.00">sharp::drylift</text>
</a>
</g>
</g>
<!-- Node2 -->
<g id="node2" class="node">
<title>Node2</title>
<g id="a_node2"><a xlink:href="namespacesharp.html#a6f435bc49cb516376e1dc595e837e98b" target="_top" xlink:title="Compute the temperature of the LCL.">
<polygon fill="white" stroke="#666666" points="241,-93 114,-93 114,-74 241,-74 241,-93"/>
<text text-anchor="middle" x="177.5" y="-81" font-family="Helvetica,sans-Serif" font-size="10.00">sharp::lcl_temperature</text>
</a>
</g>
</g>
<!-- Node1&#45;&gt;Node2 -->
<g id="edge1" class="edge">
<title>Node1&#45;&gt;Node2</title>
<path fill="none" stroke="#63b8ff" d="M75.15,-56.03C92.21,-60.65 112.92,-66.27 131.15,-71.21"/>
<polygon fill="#63b8ff" stroke="#63b8ff" points="130.43,-74.64 140.99,-73.88 132.26,-67.88 130.43,-74.64"/>
</g>
<!-- Node3 -->
<g id="node3" class="node">
<title>Node3</title>
<g id="a_node3"><a xlink:href="namespacesharp.html#ac3f1b3b63f158e6c88e94dd9daa2a71c" target="_top" xlink:title="Compute the potential temperature.">
<polygon fill="white" stroke="#666666" points="215,-56 140,-56 140,-37 215,-37 215,-56"/>
<text text-anchor="middle" x="177.5" y="-44" font-family="Helvetica,sans-Serif" font-size="10.00">sharp::theta</text>
</a>
</g>
</g>
<!-- Node1&#45;&gt;Node3 -->
<g id="edge2" class="edge">
<title>Node1&#45;&gt;Node3</title>
<path fill="none" stroke="#63b8ff" d="M78.02,-46.5C93.96,-46.5 112.66,-46.5 129.45,-46.5"/>
<polygon fill="#63b8ff" stroke="#63b8ff" points="129.62,-50 139.62,-46.5 129.62,-43 129.62,-50"/>
</g>
<!-- Node4 -->
<g id="node4" class="node">
<title>Node4</title>
<g id="a_node4"><a xlink:href="namespacesharp.html#a8eeef9c07c473d71fc6a2e2c4da88179" target="_top" xlink:title="Comute the pressure level given potential temperature and temperature.">
<polygon fill="white" stroke="#666666" points="229.5,-19 125.5,-19 125.5,0 229.5,0 229.5,-19"/>
<text text-anchor="middle" x="177.5" y="-7" font-family="Helvetica,sans-Serif" font-size="10.00">sharp::theta_level</text>
</a>
</g>
</g>
<!-- Node1&#45;&gt;Node4 -->
<g id="edge3" class="edge">
<title>Node1&#45;&gt;Node4</title>
<path fill="none" stroke="#63b8ff" d="M75.15,-36.97C92.21,-32.35 112.92,-26.73 131.15,-21.79"/>
<polygon fill="#63b8ff" stroke="#63b8ff" points="132.26,-25.12 140.99,-19.12 130.43,-18.36 132.26,-25.12"/>
</g>
</g>
</svg>
