<?xml version="1.0" encoding="UTF-8" standalone="no"?>
<!DOCTYPE svg PUBLIC "-//W3C//DTD SVG 1.1//EN"
 "http://www.w3.org/Graphics/SVG/1.1/DTD/svg11.dtd">
<!-- Generated by graphviz version 2.43.0 (0)
 -->
<!-- Title: sharp::layer_mean Pages: 1 -->
<svg width="703pt" height="144pt"
 viewBox="0.00 0.00 703.00 143.50" xmlns="http://www.w3.org/2000/svg" xmlns:xlink="http://www.w3.org/1999/xlink">
<g id="graph0" class="graph" transform="scale(1 1) rotate(0) translate(4 139.5)">
<title>sharp::layer_mean</title>
<!-- Node1 -->
<g id="node1" class="node">
<title>Node1</title>
<g id="a_node1"><a xlink:title="Computes the mass&#45;weighted mean value of a field over a given height layer.">
<polygon fill="#999999" stroke="#666666" points="107,-106 0,-106 0,-87 107,-87 107,-106"/>
<text text-anchor="middle" x="53.5" y="-94" font-family="Helvetica,sans-Serif" font-size="10.00">sharp::layer_mean</text>
</a>
</g>
</g>
<!-- Node2 -->
<g id="node2" class="node">
<title>Node2</title>
<g id="a_node2"><a xlink:href="namespacesharp.html#ab77e344c7462c9615b0ddac228bc2193" target="_top" xlink:title="Converts a sharp::HeightLayer to a sharp::PressureLayer.">
<polygon fill="white" stroke="#666666" points="260,-135.5 150,-135.5 150,-105.5 260,-105.5 260,-135.5"/>
<text text-anchor="start" x="158" y="-123.5" font-family="Helvetica,sans-Serif" font-size="10.00">sharp::height_layer</text>
<text text-anchor="middle" x="205" y="-112.5" font-family="Helvetica,sans-Serif" font-size="10.00">_to_pressure</text>
</a>
</g>
</g>
<!-- Node1&#45;&gt;Node2 -->
<g id="edge1" class="edge">
<title>Node1&#45;&gt;Node2</title>
<path fill="none" stroke="#63b8ff" d="M107.21,-104.96C117.83,-106.67 129.1,-108.48 140.06,-110.23"/>
<polygon fill="#63b8ff" stroke="#63b8ff" points="139.57,-113.7 150,-111.83 140.68,-106.79 139.57,-113.7"/>
</g>
<!-- Node7 -->
<g id="node7" class="node">
<title>Node7</title>
<g id="a_node7"><a xlink:href="namespacesharp.html#a8ab599fbfe2b3793d7af8399c17d1327" target="_top" xlink:title="Returns a trapezoidal integration of the given layer.">
<polygon fill="white" stroke="#666666" points="267,-87.5 143,-87.5 143,-57.5 267,-57.5 267,-87.5"/>
<text text-anchor="start" x="151" y="-75.5" font-family="Helvetica,sans-Serif" font-size="10.00">sharp::integrate_layer</text>
<text text-anchor="middle" x="205" y="-64.5" font-family="Helvetica,sans-Serif" font-size="10.00">_trapz</text>
</a>
</g>
</g>
<!-- Node1&#45;&gt;Node7 -->
<g id="edge6" class="edge">
<title>Node1&#45;&gt;Node7</title>
<path fill="none" stroke="#63b8ff" d="M107.21,-88.04C115.49,-86.71 124.16,-85.32 132.77,-83.93"/>
<polygon fill="#63b8ff" stroke="#63b8ff" points="133.51,-87.36 142.82,-82.32 132.4,-80.45 133.51,-87.36"/>
</g>
<!-- Node3 -->
<g id="node3" class="node">
<title>Node3</title>
<g id="a_node3"><a xlink:href="namespacesharp.html#ae8240f026498ad2775633a8d0dcf100d" target="_top" xlink:title="Linearly interpolate a data field to a requested height level.">
<polygon fill="white" stroke="#666666" points="424,-130 310,-130 310,-111 424,-111 424,-130"/>
<text text-anchor="middle" x="367" y="-118" font-family="Helvetica,sans-Serif" font-size="10.00">sharp::interp_height</text>
</a>
</g>
</g>
<!-- Node2&#45;&gt;Node3 -->
<g id="edge2" class="edge">
<title>Node2&#45;&gt;Node3</title>
<path fill="none" stroke="#63b8ff" d="M260.17,-120.5C272.96,-120.5 286.73,-120.5 299.98,-120.5"/>
<polygon fill="#63b8ff" stroke="#63b8ff" points="299.98,-124 309.98,-120.5 299.98,-117 299.98,-124"/>
</g>
<!-- Node4 -->
<g id="node4" class="node">
<title>Node4</title>
<g id="a_node4"><a xlink:href="namespacesharp.html#a0bf533560780fdb77bc3656db8d89208" target="_top" xlink:title="Linearly interpolates between a and b with distance t.">
<polygon fill="white" stroke="#666666" points="557.5,-111 489.5,-111 489.5,-92 557.5,-92 557.5,-111"/>
<text text-anchor="middle" x="523.5" y="-99" font-family="Helvetica,sans-Serif" font-size="10.00">sharp::lerp</text>
</a>
</g>
</g>
<!-- Node3&#45;&gt;Node4 -->
<g id="edge3" class="edge">
<title>Node3&#45;&gt;Node4</title>
<path fill="none" stroke="#63b8ff" d="M424.22,-113.59C442.36,-111.35 462.19,-108.92 479.25,-106.82"/>
<polygon fill="#63b8ff" stroke="#63b8ff" points="479.98,-110.26 489.48,-105.56 479.12,-103.31 479.98,-110.26"/>
</g>
<!-- Node6 -->
<g id="node6" class="node">
<title>Node6</title>
<g id="a_node6"><a xlink:href="namespacesharp.html#a772686549a5111c1152b778731119aa6" target="_top" xlink:title="Finds the first index that satisfies value &lt; element.">
<polygon fill="white" stroke="#666666" points="580,-56 467,-56 467,-37 580,-37 580,-56"/>
<text text-anchor="middle" x="523.5" y="-44" font-family="Helvetica,sans-Serif" font-size="10.00">sharp::upper_bound</text>
</a>
</g>
</g>
<!-- Node3&#45;&gt;Node6 -->
<g id="edge5" class="edge">
<title>Node3&#45;&gt;Node6</title>
<path fill="none" stroke="#63b8ff" d="M405.2,-110.95C413.82,-108.28 422.85,-105.11 431,-101.5 444.48,-95.53 476.54,-75.74 498.88,-61.61"/>
<polygon fill="#63b8ff" stroke="#63b8ff" points="500.92,-64.46 507.49,-56.15 497.17,-58.55 500.92,-64.46"/>
</g>
<!-- Node5 -->
<g id="node5" class="node">
<title>Node5</title>
<g id="a_node5"><a xlink:href="namespacesharp.html#ac4464059524ff56c7974141bb4cc7375" target="_top" xlink:title="Linearly interpolates between a and b with distance t.">
<polygon fill="white" stroke="#666666" points="695,-111 616,-111 616,-92 695,-92 695,-111"/>
<text text-anchor="middle" x="655.5" y="-99" font-family="Helvetica,sans-Serif" font-size="10.00">sharp::__lerp</text>
</a>
</g>
</g>
<!-- Node4&#45;&gt;Node5 -->
<g id="edge4" class="edge">
<title>Node4&#45;&gt;Node5</title>
<path fill="none" stroke="#63b8ff" d="M557.64,-101.5C572.2,-101.5 589.6,-101.5 605.61,-101.5"/>
<polygon fill="#63b8ff" stroke="#63b8ff" points="605.88,-105 615.88,-101.5 605.88,-98 605.88,-105"/>
</g>
<!-- Node7&#45;&gt;Node3 -->
<g id="edge11" class="edge">
<title>Node7&#45;&gt;Node3</title>
<path fill="none" stroke="#63b8ff" d="M256.19,-87.56C278.08,-94.12 303.45,-101.74 324.29,-107.99"/>
<polygon fill="#63b8ff" stroke="#63b8ff" points="323.53,-111.41 334.12,-110.94 325.55,-104.71 323.53,-111.41"/>
</g>
<!-- Node8 -->
<g id="node8" class="node">
<title>Node8</title>
<g id="a_node8"><a xlink:href="namespacesharp.html#a3558a68454edd4679ef97335e3a9f1fb" target="_top" xlink:title="A kernel that computes the area under a curve using the trapezoidal rule.">
<polygon fill="white" stroke="#666666" points="422,-93 312,-93 312,-74 422,-74 422,-93"/>
<text text-anchor="middle" x="367" y="-81" font-family="Helvetica,sans-Serif" font-size="10.00">sharp::_integ_trapz</text>
</a>
</g>
</g>
<!-- Node7&#45;&gt;Node8 -->
<g id="edge7" class="edge">
<title>Node7&#45;&gt;Node8</title>
<path fill="none" stroke="#63b8ff" d="M267.4,-76.72C278.6,-77.49 290.32,-78.3 301.6,-79.07"/>
<polygon fill="#63b8ff" stroke="#63b8ff" points="301.6,-82.58 311.82,-79.77 302.08,-75.6 301.6,-82.58"/>
</g>
<!-- Node9 -->
<g id="node9" class="node">
<title>Node9</title>
<g id="a_node9"><a xlink:href="namespacesharp.html#ac93f477dfa774c966b5da7521bd43ee6" target="_top" xlink:title="Returns the array indices corresponding to the given layer.">
<polygon fill="white" stroke="#666666" points="431,-19 303,-19 303,0 431,0 431,-19"/>
<text text-anchor="middle" x="367" y="-7" font-family="Helvetica,sans-Serif" font-size="10.00">sharp::get_layer_index</text>
</a>
</g>
</g>
<!-- Node7&#45;&gt;Node9 -->
<g id="edge8" class="edge">
<title>Node7&#45;&gt;Node9</title>
<path fill="none" stroke="#63b8ff" d="M235.21,-57.49C254.2,-48.1 279.69,-36.18 303,-27.5 308.2,-25.57 313.7,-23.72 319.2,-21.99"/>
<polygon fill="#63b8ff" stroke="#63b8ff" points="320.48,-25.26 329.04,-19.02 318.46,-18.56 320.48,-25.26"/>
</g>
<!-- Node11 -->
<g id="node11" class="node">
<title>Node11</title>
<g id="a_node11"><a xlink:href="namespacesharp.html#a55e4f8ee4ff8a4a30d7b3f3d92a41c75" target="_top" xlink:title="Linearly interpolate a data field to a requested pressure level.">
<polygon fill="white" stroke="#666666" points="429.5,-56 304.5,-56 304.5,-37 429.5,-37 429.5,-56"/>
<text text-anchor="middle" x="367" y="-44" font-family="Helvetica,sans-Serif" font-size="10.00">sharp::interp_pressure</text>
</a>
</g>
</g>
<!-- Node7&#45;&gt;Node11 -->
<g id="edge12" class="edge">
<title>Node7&#45;&gt;Node11</title>
<path fill="none" stroke="#63b8ff" d="M267.4,-62.52C277.25,-60.92 287.5,-59.26 297.5,-57.63"/>
<polygon fill="#63b8ff" stroke="#63b8ff" points="298.09,-61.08 307.39,-56.02 296.96,-54.17 298.09,-61.08"/>
</g>
<!-- Node9&#45;&gt;Node6 -->
<g id="edge10" class="edge">
<title>Node9&#45;&gt;Node6</title>
<path fill="none" stroke="#63b8ff" d="M407.79,-19.03C427.62,-23.78 451.81,-29.57 472.85,-34.61"/>
<polygon fill="#63b8ff" stroke="#63b8ff" points="472.04,-38.01 482.58,-36.94 473.67,-31.21 472.04,-38.01"/>
</g>
<!-- Node10 -->
<g id="node10" class="node">
<title>Node10</title>
<g id="a_node10"><a xlink:href="namespacesharp.html#a1edcf8bff9a13429bcbff7c1129024b3" target="_top" xlink:title="Finds the index of the lower bound that does not satisfy element &lt; value.">
<polygon fill="white" stroke="#666666" points="579.5,-19 467.5,-19 467.5,0 579.5,0 579.5,-19"/>
<text text-anchor="middle" x="523.5" y="-7" font-family="Helvetica,sans-Serif" font-size="10.00">sharp::lower_bound</text>
</a>
</g>
</g>
<!-- Node9&#45;&gt;Node10 -->
<g id="edge9" class="edge">
<title>Node9&#45;&gt;Node10</title>
<path fill="none" stroke="#63b8ff" d="M431.29,-9.5C439.91,-9.5 448.78,-9.5 457.43,-9.5"/>
<polygon fill="#63b8ff" stroke="#63b8ff" points="457.47,-13 467.47,-9.5 457.47,-6 457.47,-13"/>
</g>
<!-- Node11&#45;&gt;Node4 -->
<g id="edge13" class="edge">
<title>Node11&#45;&gt;Node4</title>
<path fill="none" stroke="#63b8ff" d="M403.86,-56.03C412.78,-58.6 422.29,-61.5 431,-64.5 451.37,-71.51 473.8,-80.55 491.35,-87.95"/>
<polygon fill="#63b8ff" stroke="#63b8ff" points="489.99,-91.17 500.56,-91.86 492.73,-84.73 489.99,-91.17"/>
</g>
<!-- Node11&#45;&gt;Node6 -->
<g id="edge14" class="edge">
<title>Node11&#45;&gt;Node6</title>
<path fill="none" stroke="#63b8ff" d="M429.51,-46.5C438.43,-46.5 447.65,-46.5 456.66,-46.5"/>
<polygon fill="#63b8ff" stroke="#63b8ff" points="456.71,-50 466.71,-46.5 456.71,-43 456.71,-50"/>
</g>
</g>
</svg>
