<?xml version="1.0" encoding="UTF-8" standalone="no"?>
<!DOCTYPE svg PUBLIC "-//W3C//DTD SVG 1.1//EN"
 "http://www.w3.org/Graphics/SVG/1.1/DTD/svg11.dtd">
<!-- Generated by graphviz version 2.43.0 (0)
 -->
<!-- Title: sharp::pressure_layer_to_height Pages: 1 -->
<svg width="639pt" height="254pt"
 viewBox="0.00 0.00 639.00 254.00" xmlns="http://www.w3.org/2000/svg" xmlns:xlink="http://www.w3.org/1999/xlink">
<g id="graph0" class="graph" transform="scale(1 1) rotate(0) translate(4 250)">
<title>sharp::pressure_layer_to_height</title>
<!-- Node1 -->
<g id="node1" class="node">
<title>Node1</title>
<g id="a_node1"><a xlink:title="Converts a sharp::PressureLayer to a sharp::HeightLayer.">
<polygon fill="#999999" stroke="#666666" points="631,-121 509,-121 509,-91 631,-91 631,-121"/>
<text text-anchor="start" x="517" y="-109" font-family="Helvetica,sans-Serif" font-size="10.00">sharp::pressure_layer</text>
<text text-anchor="middle" x="570" y="-98" font-family="Helvetica,sans-Serif" font-size="10.00">_to_height</text>
</a>
</g>
</g>
<!-- Node2 -->
<g id="node2" class="node">
<title>Node2</title>
<g id="a_node2"><a xlink:href="structsharp_1_1Parcel.html#a0560bd193b2d2d6bc6b08baa7463fba4" target="_top" xlink:title="Compute CAPE and CINH for a previously lifted sharp::Parcel.">
<polygon fill="white" stroke="#666666" points="471,-192.5 337,-192.5 337,-173.5 471,-173.5 471,-192.5"/>
<text text-anchor="middle" x="404" y="-180.5" font-family="Helvetica,sans-Serif" font-size="10.00">sharp::Parcel::cape_cinh</text>
</a>
</g>
</g>
<!-- Node1&#45;&gt;Node2 -->
<g id="edge1" class="edge">
<title>Node1&#45;&gt;Node2</title>
<path fill="none" stroke="#63b8ff" d="M537.14,-126.48C518.86,-137.66 495.19,-151.18 473,-161 462.22,-165.77 450.08,-170.03 439.07,-173.5"/>
<polygon fill="#63b8ff" stroke="#63b8ff" points="538.99,-129.45 545.65,-121.21 535.31,-123.5 538.99,-129.45"/>
</g>
<!-- Node6 -->
<g id="node6" class="node">
<title>Node6</title>
<g id="a_node6"><a xlink:href="namespacesharp.html#a72bbdc4cfe7895dd51981902ac9fc822" target="_top" xlink:title="Computes Entrainment CAPE using a previously lifted parcel.">
<polygon fill="white" stroke="#666666" points="473,-152.5 335,-152.5 335,-133.5 473,-133.5 473,-152.5"/>
<text text-anchor="middle" x="404" y="-140.5" font-family="Helvetica,sans-Serif" font-size="10.00">sharp::entrainment_cape</text>
</a>
</g>
</g>
<!-- Node1&#45;&gt;Node6 -->
<g id="edge5" class="edge">
<title>Node1&#45;&gt;Node6</title>
<path fill="none" stroke="#63b8ff" d="M498.65,-121.87C481.12,-125.83 462.87,-129.94 447.18,-133.48"/>
<polygon fill="#63b8ff" stroke="#63b8ff" points="499.88,-125.18 508.86,-119.57 498.34,-118.35 499.88,-125.18"/>
</g>
<!-- Node8 -->
<g id="node8" class="node">
<title>Node8</title>
<g id="a_node8"><a xlink:href="namespacesharp.html#aa4e86da659bfca2eae1f0baddb84a303" target="_top" xlink:title="compute the lapse rate over the given sharp::PressureLayer">
<polygon fill="white" stroke="#666666" points="454.5,-115.5 353.5,-115.5 353.5,-96.5 454.5,-96.5 454.5,-115.5"/>
<text text-anchor="middle" x="404" y="-103.5" font-family="Helvetica,sans-Serif" font-size="10.00">sharp::lapse_rate</text>
</a>
</g>
</g>
<!-- Node1&#45;&gt;Node8 -->
<g id="edge7" class="edge">
<title>Node1&#45;&gt;Node8</title>
<path fill="none" stroke="#63b8ff" d="M498.7,-106C483.87,-106 468.52,-106 454.64,-106"/>
<polygon fill="#63b8ff" stroke="#63b8ff" points="498.86,-109.5 508.86,-106 498.86,-102.5 498.86,-109.5"/>
</g>
<!-- Node9 -->
<g id="node9" class="node">
<title>Node9</title>
<g id="a_node9"><a xlink:href="layer__wrap_8cpp.html#ad026c34f615f290fcd838421ed3dd192" target="_top" xlink:title=" ">
<polygon fill="white" stroke="#666666" points="463,-78 345,-78 345,-48 463,-48 463,-78"/>
<text text-anchor="start" x="353" y="-66" font-family="Helvetica,sans-Serif" font-size="10.00">sharp_PressureLayer</text>
<text text-anchor="middle" x="404" y="-55" font-family="Helvetica,sans-Serif" font-size="10.00">_to_HeightLayer</text>
</a>
</g>
</g>
<!-- Node1&#45;&gt;Node9 -->
<g id="edge8" class="edge">
<title>Node1&#45;&gt;Node9</title>
<path fill="none" stroke="#63b8ff" d="M501.76,-88.37C488.67,-84.94 475.06,-81.37 462.33,-78.03"/>
<polygon fill="#63b8ff" stroke="#63b8ff" points="501.08,-91.81 511.64,-90.96 502.86,-85.04 501.08,-91.81"/>
</g>
<!-- Node10 -->
<g id="node10" class="node">
<title>Node10</title>
<g id="a_node10"><a xlink:href="namespacesharp.html#ab31d383a3231f8fef873e5a16c0db856" target="_top" xlink:title="Estimates supercell storm motion by using the Bunkers et al. 2014 method.">
<polygon fill="white" stroke="#666666" points="463,-30 345,-30 345,0 463,0 463,-30"/>
<text text-anchor="start" x="353" y="-18" font-family="Helvetica,sans-Serif" font-size="10.00">sharp::storm_motion</text>
<text text-anchor="middle" x="404" y="-7" font-family="Helvetica,sans-Serif" font-size="10.00">_bunkers</text>
</a>
</g>
</g>
<!-- Node1&#45;&gt;Node10 -->
<g id="edge9" class="edge">
<title>Node1&#45;&gt;Node10</title>
<path fill="none" stroke="#63b8ff" d="M542.47,-84.55C523.85,-70.25 497.93,-51.8 473,-39 466.65,-35.74 459.76,-32.74 452.88,-30.05"/>
<polygon fill="#63b8ff" stroke="#63b8ff" points="540.44,-87.4 550.48,-90.79 544.74,-81.88 540.44,-87.4"/>
</g>
<!-- Node3 -->
<g id="node3" class="node">
<title>Node3</title>
<g id="a_node3"><a xlink:href="namespacesharp.html#a2e6b7cd4a3594a8f2c2050b0e4784cce" target="_top" xlink:title="Computes the Effective Inflow Layer for a given atmospheric sounding.">
<polygon fill="white" stroke="#666666" points="294,-246 167,-246 167,-216 294,-216 294,-246"/>
<text text-anchor="start" x="175" y="-234" font-family="Helvetica,sans-Serif" font-size="10.00">sharp::effective_inflow</text>
<text text-anchor="middle" x="230.5" y="-223" font-family="Helvetica,sans-Serif" font-size="10.00">_layer</text>
</a>
</g>
</g>
<!-- Node2&#45;&gt;Node3 -->
<g id="edge2" class="edge">
<title>Node2&#45;&gt;Node3</title>
<path fill="none" stroke="#63b8ff" d="M358.79,-195.37C336.37,-201.65 308.96,-209.32 285.32,-215.94"/>
<polygon fill="#63b8ff" stroke="#63b8ff" points="360.02,-198.66 368.71,-192.6 358.13,-191.92 360.02,-198.66"/>
</g>
<!-- Node5 -->
<g id="node5" class="node">
<title>Node5</title>
<g id="a_node5"><a xlink:href="structsharp_1_1Parcel.html#aa258d27992d22d8b80cb221e6e2a6c19" target="_top" xlink:title="Construct and return a most&#45;unstable Parcel.">
<polygon fill="white" stroke="#666666" points="285.5,-198 175.5,-198 175.5,-168 285.5,-168 285.5,-198"/>
<text text-anchor="start" x="183.5" y="-186" font-family="Helvetica,sans-Serif" font-size="10.00">sharp::Parcel::most</text>
<text text-anchor="middle" x="230.5" y="-175" font-family="Helvetica,sans-Serif" font-size="10.00">_unstable_parcel</text>
</a>
</g>
</g>
<!-- Node2&#45;&gt;Node5 -->
<g id="edge4" class="edge">
<title>Node2&#45;&gt;Node5</title>
<path fill="none" stroke="#63b8ff" d="M326.3,-183C312.61,-183 298.6,-183 285.7,-183"/>
<polygon fill="#63b8ff" stroke="#63b8ff" points="326.69,-186.5 336.69,-183 326.69,-179.5 326.69,-186.5"/>
</g>
<!-- Node4 -->
<g id="node4" class="node">
<title>Node4</title>
<g id="a_node4"><a xlink:href="convective__wrap_8cpp.html#af214bab6c6ba14dc06fe7df4f6abcdf8" target="_top" xlink:title=" ">
<polygon fill="white" stroke="#666666" points="126,-246 0,-246 0,-216 126,-216 126,-246"/>
<text text-anchor="start" x="8" y="-234" font-family="Helvetica,sans-Serif" font-size="10.00">sharp_effective_inflow</text>
<text text-anchor="middle" x="63" y="-223" font-family="Helvetica,sans-Serif" font-size="10.00">_layer</text>
</a>
</g>
</g>
<!-- Node3&#45;&gt;Node4 -->
<g id="edge3" class="edge">
<title>Node3&#45;&gt;Node4</title>
<path fill="none" stroke="#63b8ff" d="M156.79,-231C146.56,-231 136.12,-231 126.11,-231"/>
<polygon fill="#63b8ff" stroke="#63b8ff" points="156.93,-234.5 166.93,-231 156.93,-227.5 156.93,-234.5"/>
</g>
<!-- Node7 -->
<g id="node7" class="node">
<title>Node7</title>
<g id="a_node7"><a xlink:href="convective__wrap_8cpp.html#ab0bfb728bbbf3a731c330b61a5c415ad" target="_top" xlink:title=" ">
<polygon fill="white" stroke="#666666" points="299,-149.5 162,-149.5 162,-130.5 299,-130.5 299,-149.5"/>
<text text-anchor="middle" x="230.5" y="-137.5" font-family="Helvetica,sans-Serif" font-size="10.00">sharp_entrainment_cape</text>
</a>
</g>
</g>
<!-- Node6&#45;&gt;Node7 -->
<g id="edge6" class="edge">
<title>Node6&#45;&gt;Node7</title>
<path fill="none" stroke="#63b8ff" d="M324.51,-141.63C316.08,-141.48 307.55,-141.33 299.26,-141.19"/>
<polygon fill="#63b8ff" stroke="#63b8ff" points="324.67,-145.13 334.73,-141.81 324.79,-138.13 324.67,-145.13"/>
</g>
</g>
</svg>
