<?xml version="1.0" encoding="UTF-8" standalone="no"?>
<!DOCTYPE svg PUBLIC "-//W3C//DTD SVG 1.1//EN"
 "http://www.w3.org/Graphics/SVG/1.1/DTD/svg11.dtd">
<!-- Generated by graphviz version 2.43.0 (0)
 -->
<!-- Title: sharp::vapor_pressure Pages: 1 -->
<svg width="305pt" height="119pt"
 viewBox="0.00 0.00 305.00 119.00" xmlns="http://www.w3.org/2000/svg" xmlns:xlink="http://www.w3.org/1999/xlink">
<g id="graph0" class="graph" transform="scale(1 1) rotate(0) translate(4 115)">
<title>sharp::vapor_pressure</title>
<!-- Node1 -->
<g id="node1" class="node">
<title>Node1</title>
<g id="a_node1"><a xlink:title="Compute the vapor pressure over liquid water.">
<polygon fill="#999999" stroke="#666666" points="297,-74 172,-74 172,-55 297,-55 297,-74"/>
<text text-anchor="middle" x="234.5" y="-62" font-family="Helvetica,sans-Serif" font-size="10.00">sharp::vapor_pressure</text>
</a>
</g>
</g>
<!-- Node2 -->
<g id="node2" class="node">
<title>Node2</title>
<g id="a_node2"><a xlink:href="namespacesharp.html#a9edcf0847c46e877689081848c58e3f4" target="_top" xlink:title="Compute the water vapor mixing ratio.">
<polygon fill="white" stroke="#666666" points="113.5,-111 22.5,-111 22.5,-92 113.5,-92 113.5,-111"/>
<text text-anchor="middle" x="68" y="-99" font-family="Helvetica,sans-Serif" font-size="10.00">sharp::mixratio</text>
</a>
</g>
</g>
<!-- Node1&#45;&gt;Node2 -->
<g id="edge1" class="edge">
<title>Node1&#45;&gt;Node2</title>
<path fill="none" stroke="#63b8ff" d="M181.09,-76.29C158.63,-81.34 132.74,-87.16 111.5,-91.94"/>
<polygon fill="#63b8ff" stroke="#63b8ff" points="182.15,-79.64 191.14,-74.03 180.61,-72.81 182.15,-79.64"/>
</g>
<!-- Node3 -->
<g id="node3" class="node">
<title>Node3</title>
<g id="a_node3"><a xlink:href="namespacesharp.html#ae6ffc299f3f13dc27df417f6e8fdfc2d" target="_top" xlink:title="Compute the relative humidity of water vapor with respect to liquid.">
<polygon fill="white" stroke="#666666" points="136,-74 0,-74 0,-55 136,-55 136,-74"/>
<text text-anchor="middle" x="68" y="-62" font-family="Helvetica,sans-Serif" font-size="10.00">sharp::relative_humidity</text>
</a>
</g>
</g>
<!-- Node1&#45;&gt;Node3 -->
<g id="edge2" class="edge">
<title>Node1&#45;&gt;Node3</title>
<path fill="none" stroke="#63b8ff" d="M161.54,-64.5C153.06,-64.5 144.43,-64.5 136.03,-64.5"/>
<polygon fill="#63b8ff" stroke="#63b8ff" points="161.78,-68 171.78,-64.5 161.78,-61 161.78,-68"/>
</g>
<!-- Node4 -->
<g id="node4" class="node">
<title>Node4</title>
<g id="a_node4"><a xlink:href="namespacesharp.html#ab06f16aa1caac3136e863db8cd61e2e9" target="_top" xlink:title="Compute the equivalent potential temperature.">
<polygon fill="white" stroke="#666666" points="108.5,-19 27.5,-19 27.5,0 108.5,0 108.5,-19"/>
<text text-anchor="middle" x="68" y="-7" font-family="Helvetica,sans-Serif" font-size="10.00">sharp::thetae</text>
</a>
</g>
</g>
<!-- Node1&#45;&gt;Node4 -->
<g id="edge3" class="edge">
<title>Node1&#45;&gt;Node4</title>
<path fill="none" stroke="#63b8ff" d="M195.19,-51.69C165.36,-41.72 124.63,-28.1 97.6,-19.06"/>
<polygon fill="#63b8ff" stroke="#63b8ff" points="194.25,-55.07 204.85,-54.92 196.47,-48.43 194.25,-55.07"/>
</g>
<!-- Node4&#45;&gt;Node4 -->
<g id="edge4" class="edge">
<title>Node4&#45;&gt;Node4</title>
<path fill="none" stroke="#63b8ff" d="M98.99,-27.82C97.69,-33.01 87.36,-37 68,-37 38.5,-37 29.97,-27.73 42.41,-19.08"/>
<polygon fill="#63b8ff" stroke="#63b8ff" points="101.82,-25.75 93.59,-19.08 95.87,-29.43 101.82,-25.75"/>
</g>
</g>
</svg>
