<?xml version="1.0" encoding="UTF-8" standalone="no"?>
<!DOCTYPE svg PUBLIC "-//W3C//DTD SVG 1.1//EN"
 "http://www.w3.org/Graphics/SVG/1.1/DTD/svg11.dtd">
<!-- Generated by graphviz version 2.43.0 (0)
 -->
<!-- Title: sharp::mixratio Pages: 1 -->
<svg width="653pt" height="331pt"
 viewBox="0.00 0.00 653.00 330.50" xmlns="http://www.w3.org/2000/svg" xmlns:xlink="http://www.w3.org/1999/xlink">
<g id="graph0" class="graph" transform="scale(1 1) rotate(0) translate(4 326.5)">
<title>sharp::mixratio</title>
<!-- Node1 -->
<g id="node1" class="node">
<title>Node1</title>
<g id="a_node1"><a xlink:title="Compute the water vapor mixing ratio from specific humidity.">
<polygon fill="#999999" stroke="#666666" points="645,-165 554,-165 554,-146 645,-146 645,-165"/>
<text text-anchor="middle" x="599.5" y="-153" font-family="Helvetica,sans-Serif" font-size="10.00">sharp::mixratio</text>
</a>
</g>
</g>
<!-- Node2 -->
<g id="node2" class="node">
<title>Node2</title>
<g id="a_node2"><a xlink:href="namespacesharp.html#a5c6dd7be41f3dc984480798244e254d1" target="_top" xlink:title=" ">
<polygon fill="white" stroke="#666666" points="494,-293 387,-293 387,-274 494,-274 494,-293"/>
<text text-anchor="middle" x="440.5" y="-281" font-family="Helvetica,sans-Serif" font-size="10.00">sharp::_solve_cm1</text>
</a>
</g>
</g>
<!-- Node1&#45;&gt;Node2 -->
<g id="edge1" class="edge">
<title>Node1&#45;&gt;Node2</title>
<path fill="none" stroke="#63b8ff" d="M589.96,-174.37C577.69,-199.24 552.68,-242.53 518,-265.5 510.83,-270.25 502.56,-273.75 494.16,-276.33"/>
<polygon fill="#63b8ff" stroke="#63b8ff" points="593.16,-175.77 594.29,-165.24 586.84,-172.77 593.16,-175.77"/>
</g>
<!-- Node6 -->
<g id="node6" class="node">
<title>Node6</title>
<g id="a_node6"><a xlink:href="namespacesharp.html#a72bbdc4cfe7895dd51981902ac9fc822" target="_top" xlink:title="Computes Entrainment CAPE using a previously lifted parcel.">
<polygon fill="white" stroke="#666666" points="509.5,-256 371.5,-256 371.5,-237 509.5,-237 509.5,-256"/>
<text text-anchor="middle" x="440.5" y="-244" font-family="Helvetica,sans-Serif" font-size="10.00">sharp::entrainment_cape</text>
</a>
</g>
</g>
<!-- Node1&#45;&gt;Node6 -->
<g id="edge5" class="edge">
<title>Node1&#45;&gt;Node6</title>
<path fill="none" stroke="#63b8ff" d="M583.76,-172.86C568.83,-189.35 544.25,-213.61 518,-227.5 510.74,-231.34 502.68,-234.42 494.6,-236.89"/>
<polygon fill="#63b8ff" stroke="#63b8ff" points="586.67,-174.87 590.65,-165.05 581.41,-170.24 586.67,-174.87"/>
</g>
<!-- Node8 -->
<g id="node8" class="node">
<title>Node8</title>
<g id="a_node8"><a xlink:href="structsharp_1_1Parcel.html#a9523de2b8b4c28ca49fba3013f94cb06" target="_top" xlink:title="Lifts a sharp::Parcel to compute its virtual temperature.">
<polygon fill="white" stroke="#666666" points="489.5,-218.5 391.5,-218.5 391.5,-188.5 489.5,-188.5 489.5,-218.5"/>
<text text-anchor="start" x="399.5" y="-206.5" font-family="Helvetica,sans-Serif" font-size="10.00">sharp::Parcel::lift</text>
<text text-anchor="middle" x="440.5" y="-195.5" font-family="Helvetica,sans-Serif" font-size="10.00">_parcel</text>
</a>
</g>
</g>
<!-- Node1&#45;&gt;Node8 -->
<g id="edge7" class="edge">
<title>Node1&#45;&gt;Node8</title>
<path fill="none" stroke="#63b8ff" d="M557.31,-168.09C536.53,-174.45 511.21,-182.19 489.55,-188.81"/>
<polygon fill="#63b8ff" stroke="#63b8ff" points="558.57,-171.37 567.11,-165.1 556.52,-164.67 558.57,-171.37"/>
</g>
<!-- Node12 -->
<g id="node12" class="node">
<title>Node12</title>
<g id="a_node12"><a xlink:href="structsharp_1_1lifter__wobus.html#a82be5bdfdff54890488bbc1461b5b05e" target="_top" xlink:title="Computes the virtual temperature of the parcel.">
<polygon fill="white" stroke="#666666" points="518,-170.5 363,-170.5 363,-140.5 518,-140.5 518,-170.5"/>
<text text-anchor="start" x="371" y="-158.5" font-family="Helvetica,sans-Serif" font-size="10.00">sharp::lifter_wobus</text>
<text text-anchor="middle" x="440.5" y="-147.5" font-family="Helvetica,sans-Serif" font-size="10.00">::parcel_virtual_temperature</text>
</a>
</g>
</g>
<!-- Node1&#45;&gt;Node12 -->
<g id="edge11" class="edge">
<title>Node1&#45;&gt;Node12</title>
<path fill="none" stroke="#63b8ff" d="M543.73,-155.5C535.49,-155.5 526.87,-155.5 518.27,-155.5"/>
<polygon fill="#63b8ff" stroke="#63b8ff" points="543.93,-159 553.93,-155.5 543.93,-152 543.93,-159"/>
</g>
<!-- Node13 -->
<g id="node13" class="node">
<title>Node13</title>
<g id="a_node13"><a xlink:href="structsharp_1_1lifter__cm1.html#a4750e359411eefdfb6d4970052637750" target="_top" xlink:title="perform the necessary setup for parcel ascent.">
<polygon fill="white" stroke="#666666" points="492.5,-122.5 388.5,-122.5 388.5,-92.5 492.5,-92.5 492.5,-122.5"/>
<text text-anchor="start" x="396.5" y="-110.5" font-family="Helvetica,sans-Serif" font-size="10.00">sharp::lifter_cm1::</text>
<text text-anchor="middle" x="440.5" y="-99.5" font-family="Helvetica,sans-Serif" font-size="10.00">setup</text>
</a>
</g>
</g>
<!-- Node1&#45;&gt;Node13 -->
<g id="edge12" class="edge">
<title>Node1&#45;&gt;Node13</title>
<path fill="none" stroke="#63b8ff" d="M557.47,-142.96C537.05,-136.71 512.21,-129.12 490.77,-122.56"/>
<polygon fill="#63b8ff" stroke="#63b8ff" points="556.52,-146.33 567.11,-145.9 558.57,-139.63 556.52,-146.33"/>
</g>
<!-- Node14 -->
<g id="node14" class="node">
<title>Node14</title>
<g id="a_node14"><a xlink:href="thermo__wrap_8cpp.html#add9103f2e5305de800352ce787a7c786" target="_top" xlink:title=" ">
<polygon fill="white" stroke="#666666" points="485.5,-74 395.5,-74 395.5,-55 485.5,-55 485.5,-74"/>
<text text-anchor="middle" x="440.5" y="-62" font-family="Helvetica,sans-Serif" font-size="10.00">sharp_mixratio</text>
</a>
</g>
</g>
<!-- Node1&#45;&gt;Node14 -->
<g id="edge13" class="edge">
<title>Node1&#45;&gt;Node14</title>
<path fill="none" stroke="#63b8ff" d="M583.76,-138.14C568.83,-121.65 544.25,-97.39 518,-83.5 508.08,-78.25 496.67,-74.42 485.73,-71.63"/>
<polygon fill="#63b8ff" stroke="#63b8ff" points="581.41,-140.76 590.65,-145.95 586.67,-136.13 581.41,-140.76"/>
</g>
<!-- Node15 -->
<g id="node15" class="node">
<title>Node15</title>
<g id="a_node15"><a xlink:href="namespacesharp.html#ab06f16aa1caac3136e863db8cd61e2e9" target="_top" xlink:title="Compute the equivalent potential temperature.">
<polygon fill="white" stroke="#666666" points="481,-19 400,-19 400,0 481,0 481,-19"/>
<text text-anchor="middle" x="440.5" y="-7" font-family="Helvetica,sans-Serif" font-size="10.00">sharp::thetae</text>
</a>
</g>
</g>
<!-- Node1&#45;&gt;Node15 -->
<g id="edge14" class="edge">
<title>Node1&#45;&gt;Node15</title>
<path fill="none" stroke="#63b8ff" d="M588.62,-136.62C575.32,-112.74 549.64,-71.58 518,-45.5 503.96,-33.92 485.57,-25.11 470.34,-19.11"/>
<polygon fill="#63b8ff" stroke="#63b8ff" points="585.7,-138.58 593.54,-145.71 591.86,-135.25 585.7,-138.58"/>
</g>
<!-- Node3 -->
<g id="node3" class="node">
<title>Node3</title>
<g id="a_node3"><a xlink:href="namespacesharp.html#a71ceb865a2848e107761e7094f2365ca" target="_top" xlink:title="Compute the temperature of a parcel lifted moist adiabatically to a new level.">
<polygon fill="white" stroke="#666666" points="327,-293 181,-293 181,-274 327,-274 327,-293"/>
<text text-anchor="middle" x="254" y="-281" font-family="Helvetica,sans-Serif" font-size="10.00">sharp::moist_adiabat_cm1</text>
</a>
</g>
</g>
<!-- Node2&#45;&gt;Node3 -->
<g id="edge2" class="edge">
<title>Node2&#45;&gt;Node3</title>
<path fill="none" stroke="#63b8ff" d="M376.41,-283.5C360.55,-283.5 343.4,-283.5 327.13,-283.5"/>
<polygon fill="#63b8ff" stroke="#63b8ff" points="376.63,-287 386.63,-283.5 376.63,-280 376.63,-287"/>
</g>
<!-- Node4 -->
<g id="node4" class="node">
<title>Node4</title>
<g id="a_node4"><a xlink:href="structsharp_1_1lifter__cm1.html#a2eeb5b118ef40e873c09ac9b3635f7b9" target="_top" xlink:title="Overloads operator() to call sharp::moist_adiabat_cm1.">
<polygon fill="white" stroke="#666666" points="124.5,-322.5 20.5,-322.5 20.5,-292.5 124.5,-292.5 124.5,-322.5"/>
<text text-anchor="start" x="28.5" y="-310.5" font-family="Helvetica,sans-Serif" font-size="10.00">sharp::lifter_cm1::</text>
<text text-anchor="middle" x="72.5" y="-299.5" font-family="Helvetica,sans-Serif" font-size="10.00">operator()</text>
</a>
</g>
</g>
<!-- Node3&#45;&gt;Node4 -->
<g id="edge3" class="edge">
<title>Node3&#45;&gt;Node4</title>
<path fill="none" stroke="#63b8ff" d="M171.87,-294.35C155.82,-296.49 139.4,-298.69 124.69,-300.66"/>
<polygon fill="#63b8ff" stroke="#63b8ff" points="172.35,-297.81 181.8,-293.02 171.42,-290.88 172.35,-297.81"/>
</g>
<!-- Node5 -->
<g id="node5" class="node">
<title>Node5</title>
<g id="a_node5"><a xlink:href="thermo__wrap_8cpp.html#aac6beaaefcb6cf02512e6a74b6ab5be7" target="_top" xlink:title=" ">
<polygon fill="white" stroke="#666666" points="145,-274 0,-274 0,-255 145,-255 145,-274"/>
<text text-anchor="middle" x="72.5" y="-262" font-family="Helvetica,sans-Serif" font-size="10.00">sharp_moist_adiabat_cm1</text>
</a>
</g>
</g>
<!-- Node3&#45;&gt;Node5 -->
<g id="edge4" class="edge">
<title>Node3&#45;&gt;Node5</title>
<path fill="none" stroke="#63b8ff" d="M170.74,-274.79C162.15,-273.88 153.46,-272.96 145,-272.07"/>
<polygon fill="#63b8ff" stroke="#63b8ff" points="170.45,-278.28 180.77,-275.85 171.19,-271.32 170.45,-278.28"/>
</g>
<!-- Node7 -->
<g id="node7" class="node">
<title>Node7</title>
<g id="a_node7"><a xlink:href="convective__wrap_8cpp.html#ab0bfb728bbbf3a731c330b61a5c415ad" target="_top" xlink:title=" ">
<polygon fill="white" stroke="#666666" points="322.5,-256 185.5,-256 185.5,-237 322.5,-237 322.5,-256"/>
<text text-anchor="middle" x="254" y="-244" font-family="Helvetica,sans-Serif" font-size="10.00">sharp_entrainment_cape</text>
</a>
</g>
</g>
<!-- Node6&#45;&gt;Node7 -->
<g id="edge6" class="edge">
<title>Node6&#45;&gt;Node7</title>
<path fill="none" stroke="#63b8ff" d="M361.14,-246.5C348.31,-246.5 335.12,-246.5 322.59,-246.5"/>
<polygon fill="#63b8ff" stroke="#63b8ff" points="361.32,-250 371.32,-246.5 361.32,-243 361.32,-250"/>
</g>
<!-- Node9 -->
<g id="node9" class="node">
<title>Node9</title>
<g id="a_node9"><a xlink:href="namespacesharp.html#a2e6b7cd4a3594a8f2c2050b0e4784cce" target="_top" xlink:title="Computes the Effective Inflow Layer for a given atmospheric sounding.">
<polygon fill="white" stroke="#666666" points="317.5,-218.5 190.5,-218.5 190.5,-188.5 317.5,-188.5 317.5,-218.5"/>
<text text-anchor="start" x="198.5" y="-206.5" font-family="Helvetica,sans-Serif" font-size="10.00">sharp::effective_inflow</text>
<text text-anchor="middle" x="254" y="-195.5" font-family="Helvetica,sans-Serif" font-size="10.00">_layer</text>
</a>
</g>
</g>
<!-- Node8&#45;&gt;Node9 -->
<g id="edge8" class="edge">
<title>Node8&#45;&gt;Node9</title>
<path fill="none" stroke="#63b8ff" d="M380.77,-203.5C360.68,-203.5 338.14,-203.5 317.74,-203.5"/>
<polygon fill="#63b8ff" stroke="#63b8ff" points="381.02,-207 391.02,-203.5 381.02,-200 381.02,-207"/>
</g>
<!-- Node11 -->
<g id="node11" class="node">
<title>Node11</title>
<g id="a_node11"><a xlink:href="structsharp_1_1Parcel.html#aa258d27992d22d8b80cb221e6e2a6c19" target="_top" xlink:title="Construct and return a most&#45;unstable Parcel.">
<polygon fill="white" stroke="#666666" points="309,-170.5 199,-170.5 199,-140.5 309,-140.5 309,-170.5"/>
<text text-anchor="start" x="207" y="-158.5" font-family="Helvetica,sans-Serif" font-size="10.00">sharp::Parcel::most</text>
<text text-anchor="middle" x="254" y="-147.5" font-family="Helvetica,sans-Serif" font-size="10.00">_unstable_parcel</text>
</a>
</g>
</g>
<!-- Node8&#45;&gt;Node11 -->
<g id="edge10" class="edge">
<title>Node8&#45;&gt;Node11</title>
<path fill="none" stroke="#63b8ff" d="M381.33,-188.37C358.19,-182.35 331.71,-175.46 309,-169.55"/>
<polygon fill="#63b8ff" stroke="#63b8ff" points="380.47,-191.76 391.02,-190.89 382.23,-184.98 380.47,-191.76"/>
</g>
<!-- Node10 -->
<g id="node10" class="node">
<title>Node10</title>
<g id="a_node10"><a xlink:href="convective__wrap_8cpp.html#af214bab6c6ba14dc06fe7df4f6abcdf8" target="_top" xlink:title=" ">
<polygon fill="white" stroke="#666666" points="135.5,-218.5 9.5,-218.5 9.5,-188.5 135.5,-188.5 135.5,-218.5"/>
<text text-anchor="start" x="17.5" y="-206.5" font-family="Helvetica,sans-Serif" font-size="10.00">sharp_effective_inflow</text>
<text text-anchor="middle" x="72.5" y="-195.5" font-family="Helvetica,sans-Serif" font-size="10.00">_layer</text>
</a>
</g>
</g>
<!-- Node9&#45;&gt;Node10 -->
<g id="edge9" class="edge">
<title>Node9&#45;&gt;Node10</title>
<path fill="none" stroke="#63b8ff" d="M180.31,-203.5C165.45,-203.5 149.94,-203.5 135.5,-203.5"/>
<polygon fill="#63b8ff" stroke="#63b8ff" points="180.47,-207 190.47,-203.5 180.47,-200 180.47,-207"/>
</g>
<!-- Node15&#45;&gt;Node15 -->
<g id="edge16" class="edge">
<title>Node15&#45;&gt;Node15</title>
<path fill="none" stroke="#63b8ff" d="M469.99,-27.82C468.76,-33.01 458.93,-37 440.5,-37 412.42,-37 404.3,-27.73 416.15,-19.08"/>
<polygon fill="#63b8ff" stroke="#63b8ff" points="472.94,-25.93 464.85,-19.08 466.91,-29.48 472.94,-25.93"/>
</g>
<!-- Node16 -->
<g id="node16" class="node">
<title>Node16</title>
<g id="a_node16"><a xlink:href="thermo__wrap_8cpp.html#a6fa159149e40e0b462647cd423be313f" target="_top" xlink:title=" ">
<polygon fill="white" stroke="#666666" points="294,-19 214,-19 214,0 294,0 294,-19"/>
<text text-anchor="middle" x="254" y="-7" font-family="Helvetica,sans-Serif" font-size="10.00">sharp_thetae</text>
</a>
</g>
</g>
<!-- Node15&#45;&gt;Node16 -->
<g id="edge15" class="edge">
<title>Node15&#45;&gt;Node16</title>
<path fill="none" stroke="#63b8ff" d="M389.66,-9.5C359.68,-9.5 322.05,-9.5 294.2,-9.5"/>
<polygon fill="#63b8ff" stroke="#63b8ff" points="389.92,-13 399.92,-9.5 389.92,-6 389.92,-13"/>
</g>
</g>
</svg>
