<?xml version="1.0" encoding="UTF-8" standalone="no"?>
<!DOCTYPE svg PUBLIC "-//W3C//DTD SVG 1.1//EN"
 "http://www.w3.org/Graphics/SVG/1.1/DTD/svg11.dtd">
<!-- Generated by graphviz version 2.43.0 (0)
 -->
<!-- Title: sharp::lower_bound Pages: 1 -->
<svg width="792pt" height="366pt"
 viewBox="0.00 0.00 792.00 365.75" xmlns="http://www.w3.org/2000/svg" xmlns:xlink="http://www.w3.org/1999/xlink">
<g id="graph0" class="graph" transform="scale(1 1) rotate(0) translate(4 361.75)">
<title>sharp::lower_bound</title>
<!-- Node1 -->
<g id="node1" class="node">
<title>Node1</title>
<g id="a_node1"><a xlink:title="Finds the index of the lower bound that does not satisfy element &lt; value.">
<polygon fill="#999999" stroke="#666666" points="784,-190 672,-190 672,-171 784,-171 784,-190"/>
<text text-anchor="middle" x="728" y="-178" font-family="Helvetica,sans-Serif" font-size="10.00">sharp::lower_bound</text>
</a>
</g>
</g>
<!-- Node2 -->
<g id="node2" class="node">
<title>Node2</title>
<g id="a_node2"><a xlink:href="namespacesharp.html#ac93f477dfa774c966b5da7521bd43ee6" target="_top" xlink:title="Returns the array indices corresponding to the given layer.">
<polygon fill="white" stroke="#666666" points="636,-190 508,-190 508,-171 636,-171 636,-190"/>
<text text-anchor="middle" x="572" y="-178" font-family="Helvetica,sans-Serif" font-size="10.00">sharp::get_layer_index</text>
</a>
</g>
</g>
<!-- Node1&#45;&gt;Node2 -->
<g id="edge1" class="edge">
<title>Node1&#45;&gt;Node2</title>
<path fill="none" stroke="#63b8ff" d="M661.66,-180.5C653.21,-180.5 644.57,-180.5 636.16,-180.5"/>
<polygon fill="#63b8ff" stroke="#63b8ff" points="661.84,-184 671.84,-180.5 661.84,-177 661.84,-184"/>
</g>
<!-- Node3 -->
<g id="node3" class="node">
<title>Node3</title>
<g id="a_node3"><a xlink:href="namespacesharp.html#a72bbdc4cfe7895dd51981902ac9fc822" target="_top" xlink:title="Computes Entrainment CAPE using a previously lifted parcel.">
<polygon fill="white" stroke="#666666" points="138,-340 0,-340 0,-321 138,-321 138,-340"/>
<text text-anchor="middle" x="69" y="-328" font-family="Helvetica,sans-Serif" font-size="10.00">sharp::entrainment_cape</text>
</a>
</g>
</g>
<!-- Node2&#45;&gt;Node3 -->
<g id="edge2" class="edge">
<title>Node2&#45;&gt;Node3</title>
<path fill="none" stroke="#63b8ff" d="M563.21,-199.63C549.71,-230.01 518.83,-288.5 472,-314.5 354.29,-379.85 185.94,-355.86 109.94,-340.02"/>
<polygon fill="#63b8ff" stroke="#63b8ff" points="566.55,-200.73 567.26,-190.15 560.11,-197.97 566.55,-200.73"/>
</g>
<!-- Node4 -->
<g id="node4" class="node">
<title>Node4</title>
<g id="a_node4"><a xlink:href="structsharp_1_1Parcel.html#a8a311e09b1d46a829212da94cf181537" target="_top" xlink:title="Find the LFC and EL that bounds the layer with the maximum CAPE.">
<polygon fill="white" stroke="#666666" points="459.5,-257.5 356.5,-257.5 356.5,-227.5 459.5,-227.5 459.5,-257.5"/>
<text text-anchor="start" x="364.5" y="-245.5" font-family="Helvetica,sans-Serif" font-size="10.00">sharp::Parcel::find</text>
<text text-anchor="middle" x="408" y="-234.5" font-family="Helvetica,sans-Serif" font-size="10.00">_lfc_el</text>
</a>
</g>
</g>
<!-- Node2&#45;&gt;Node4 -->
<g id="edge3" class="edge">
<title>Node2&#45;&gt;Node4</title>
<path fill="none" stroke="#63b8ff" d="M536.66,-193.64C510.86,-203.52 475.47,-217.06 448.5,-227.38"/>
<polygon fill="#63b8ff" stroke="#63b8ff" points="537.95,-196.89 546.04,-190.05 535.45,-190.36 537.95,-196.89"/>
</g>
<!-- Node7 -->
<g id="node7" class="node">
<title>Node7</title>
<g id="a_node7"><a xlink:href="structsharp_1_1Parcel.html#aa258d27992d22d8b80cb221e6e2a6c19" target="_top" xlink:title="Construct and return a most&#45;unstable Parcel.">
<polygon fill="white" stroke="#666666" points="124,-206.5 14,-206.5 14,-176.5 124,-176.5 124,-206.5"/>
<text text-anchor="start" x="22" y="-194.5" font-family="Helvetica,sans-Serif" font-size="10.00">sharp::Parcel::most</text>
<text text-anchor="middle" x="69" y="-183.5" font-family="Helvetica,sans-Serif" font-size="10.00">_unstable_parcel</text>
</a>
</g>
</g>
<!-- Node2&#45;&gt;Node7 -->
<g id="edge22" class="edge">
<title>Node2&#45;&gt;Node7</title>
<path fill="none" stroke="#63b8ff" d="M497.26,-178.18C417.5,-176.21 286.64,-174.56 174,-180.5 157.77,-181.36 140.18,-182.96 124.16,-184.68"/>
<polygon fill="#63b8ff" stroke="#63b8ff" points="497.6,-181.69 507.69,-178.45 497.78,-174.69 497.6,-181.69"/>
</g>
<!-- Node8 -->
<g id="node8" class="node">
<title>Node8</title>
<g id="a_node8"><a xlink:href="namespacesharp.html#ac2f381378ac4ec13ad83d2ec92b2abcc" target="_top" xlink:title="Finds the array indices corresponding to the given sharp::PressureLayer.">
<polygon fill="white" stroke="#666666" points="472,-133 344,-133 344,-114 472,-114 472,-133"/>
<text text-anchor="middle" x="408" y="-121" font-family="Helvetica,sans-Serif" font-size="10.00">sharp::get_layer_index</text>
</a>
</g>
</g>
<!-- Node2&#45;&gt;Node8 -->
<g id="edge7" class="edge">
<title>Node2&#45;&gt;Node8</title>
<path fill="none" stroke="#63b8ff" d="M534.26,-167.57C504.45,-157.08 463.1,-142.54 436.2,-133.07"/>
<polygon fill="#63b8ff" stroke="#63b8ff" points="533.29,-170.94 543.88,-170.96 535.61,-164.34 533.29,-170.94"/>
</g>
<!-- Node9 -->
<g id="node9" class="node">
<title>Node9</title>
<g id="a_node9"><a xlink:href="namespacesharp.html#a80858337a63be77bafadbb343d6e4931" target="_top" xlink:title="Computes the Storm Relative Helicity (SRH) over a given layer.">
<polygon fill="white" stroke="#666666" points="451,-96 365,-96 365,-77 451,-77 451,-96"/>
<text text-anchor="middle" x="408" y="-84" font-family="Helvetica,sans-Serif" font-size="10.00">sharp::helicity</text>
</a>
</g>
</g>
<!-- Node2&#45;&gt;Node9 -->
<g id="edge8" class="edge">
<title>Node2&#45;&gt;Node9</title>
<path fill="none" stroke="#63b8ff" d="M553.36,-164C534.52,-147.17 503.14,-121.34 472,-105.5 464.67,-101.77 456.48,-98.64 448.49,-96.06"/>
<polygon fill="#63b8ff" stroke="#63b8ff" points="551.11,-166.69 560.86,-170.82 555.82,-161.51 551.11,-166.69"/>
</g>
<!-- Node11 -->
<g id="node11" class="node">
<title>Node11</title>
<g id="a_node11"><a xlink:href="namespacesharp.html#a7acec1642f27591dc988bf9e48b4612d" target="_top" xlink:title="Returns a trapezoidal integration of the given layer.">
<polygon fill="white" stroke="#666666" points="470,-305.5 346,-305.5 346,-275.5 470,-275.5 470,-305.5"/>
<text text-anchor="start" x="354" y="-293.5" font-family="Helvetica,sans-Serif" font-size="10.00">sharp::integrate_layer</text>
<text text-anchor="middle" x="408" y="-282.5" font-family="Helvetica,sans-Serif" font-size="10.00">_trapz</text>
</a>
</g>
</g>
<!-- Node2&#45;&gt;Node11 -->
<g id="edge10" class="edge">
<title>Node2&#45;&gt;Node11</title>
<path fill="none" stroke="#63b8ff" d="M555,-197.63C536.52,-216.59 504.47,-247.05 472,-266.5 466.48,-269.81 460.42,-272.8 454.31,-275.46"/>
<polygon fill="#63b8ff" stroke="#63b8ff" points="557.66,-199.91 562.05,-190.27 552.61,-195.07 557.66,-199.91"/>
</g>
<!-- Node14 -->
<g id="node14" class="node">
<title>Node14</title>
<g id="a_node14"><a xlink:href="namespacesharp.html#a646b65095b84511b75f6a4a81e545e80" target="_top" xlink:title="Template for min/max value over sharp::PressureLayer or sharp::HeightLayer.">
<polygon fill="white" stroke="#666666" points="468,-56 348,-56 348,-37 468,-37 468,-56"/>
<text text-anchor="middle" x="408" y="-44" font-family="Helvetica,sans-Serif" font-size="10.00">sharp::layer_minmax</text>
</a>
</g>
</g>
<!-- Node2&#45;&gt;Node14 -->
<g id="edge16" class="edge">
<title>Node2&#45;&gt;Node14</title>
<path fill="none" stroke="#63b8ff" d="M559.62,-162.3C543.18,-137.46 510.52,-93.1 472,-67.5 464.89,-62.78 456.63,-59.03 448.48,-56.09"/>
<polygon fill="#63b8ff" stroke="#63b8ff" points="556.73,-164.29 565.1,-170.79 562.61,-160.49 556.73,-164.29"/>
</g>
<!-- Node17 -->
<g id="node17" class="node">
<title>Node17</title>
<g id="a_node17"><a xlink:href="structsharp_1_1Parcel.html#a9523de2b8b4c28ca49fba3013f94cb06" target="_top" xlink:title="Lifts a sharp::Parcel to compute its virtual temperature.">
<polygon fill="white" stroke="#666666" points="290,-219.5 192,-219.5 192,-189.5 290,-189.5 290,-219.5"/>
<text text-anchor="start" x="200" y="-207.5" font-family="Helvetica,sans-Serif" font-size="10.00">sharp::Parcel::lift</text>
<text text-anchor="middle" x="241" y="-196.5" font-family="Helvetica,sans-Serif" font-size="10.00">_parcel</text>
</a>
</g>
</g>
<!-- Node2&#45;&gt;Node17 -->
<g id="edge19" class="edge">
<title>Node2&#45;&gt;Node17</title>
<path fill="none" stroke="#63b8ff" d="M497.64,-185.85C434.34,-190.47 344.73,-197.01 290.14,-200.99"/>
<polygon fill="#63b8ff" stroke="#63b8ff" points="498.24,-189.32 507.95,-185.1 497.73,-182.34 498.24,-189.32"/>
</g>
<!-- Node5 -->
<g id="node5" class="node">
<title>Node5</title>
<g id="a_node5"><a xlink:href="structsharp_1_1Parcel.html#a0560bd193b2d2d6bc6b08baa7463fba4" target="_top" xlink:title="Compute CAPE and CINH for a previously lifted sharp::Parcel.">
<polygon fill="white" stroke="#666666" points="308,-257 174,-257 174,-238 308,-238 308,-257"/>
<text text-anchor="middle" x="241" y="-245" font-family="Helvetica,sans-Serif" font-size="10.00">sharp::Parcel::cape_cinh</text>
</a>
</g>
</g>
<!-- Node4&#45;&gt;Node5 -->
<g id="edge4" class="edge">
<title>Node4&#45;&gt;Node5</title>
<path fill="none" stroke="#63b8ff" d="M345.99,-244.35C333.68,-244.72 320.67,-245.12 308.19,-245.49"/>
<polygon fill="#63b8ff" stroke="#63b8ff" points="346.26,-247.84 356.15,-244.04 346.05,-240.85 346.26,-247.84"/>
</g>
<!-- Node6 -->
<g id="node6" class="node">
<title>Node6</title>
<g id="a_node6"><a xlink:href="namespacesharp.html#a2e6b7cd4a3594a8f2c2050b0e4784cce" target="_top" xlink:title="Computes the Effective Inflow Layer for a given atmospheric sounding.">
<polygon fill="white" stroke="#666666" points="132.5,-254.5 5.5,-254.5 5.5,-224.5 132.5,-224.5 132.5,-254.5"/>
<text text-anchor="start" x="13.5" y="-242.5" font-family="Helvetica,sans-Serif" font-size="10.00">sharp::effective_inflow</text>
<text text-anchor="middle" x="69" y="-231.5" font-family="Helvetica,sans-Serif" font-size="10.00">_layer</text>
</a>
</g>
</g>
<!-- Node5&#45;&gt;Node6 -->
<g id="edge5" class="edge">
<title>Node5&#45;&gt;Node6</title>
<path fill="none" stroke="#63b8ff" d="M163.55,-243.9C153.23,-243.42 142.74,-242.92 132.69,-242.45"/>
<polygon fill="#63b8ff" stroke="#63b8ff" points="163.63,-247.41 173.79,-244.38 163.96,-240.42 163.63,-247.41"/>
</g>
<!-- Node5&#45;&gt;Node7 -->
<g id="edge6" class="edge">
<title>Node5&#45;&gt;Node7</title>
<path fill="none" stroke="#63b8ff" d="M195.57,-235.15C188.33,-233.01 180.94,-230.75 174,-228.5 157.82,-223.26 154.02,-221.22 138,-215.5 129.86,-212.6 121.17,-209.51 112.82,-206.56"/>
<polygon fill="#63b8ff" stroke="#63b8ff" points="194.69,-238.54 205.27,-237.97 196.65,-231.81 194.69,-238.54"/>
</g>
<!-- Node10 -->
<g id="node10" class="node">
<title>Node10</title>
<g id="a_node10"><a xlink:href="namespacesharp.html#ab89a7e3555a52f0fd9f4086d5aba7037" target="_top" xlink:title=" ">
<polygon fill="white" stroke="#666666" points="303.5,-104.5 178.5,-104.5 178.5,-74.5 303.5,-74.5 303.5,-104.5"/>
<text text-anchor="start" x="186.5" y="-92.5" font-family="Helvetica,sans-Serif" font-size="10.00">sharp::energy_helicity</text>
<text text-anchor="middle" x="241" y="-81.5" font-family="Helvetica,sans-Serif" font-size="10.00">_index</text>
</a>
</g>
</g>
<!-- Node9&#45;&gt;Node10 -->
<g id="edge9" class="edge">
<title>Node9&#45;&gt;Node10</title>
<path fill="none" stroke="#63b8ff" d="M354.58,-87.45C338.37,-87.75 320.38,-88.07 303.61,-88.38"/>
<polygon fill="#63b8ff" stroke="#63b8ff" points="355,-90.95 364.94,-87.26 354.87,-83.95 355,-90.95"/>
</g>
<!-- Node11&#45;&gt;Node3 -->
<g id="edge12" class="edge">
<title>Node11&#45;&gt;Node3</title>
<path fill="none" stroke="#63b8ff" d="M335.77,-302.53C326.44,-303.96 317,-305.32 308,-306.5 250.87,-313.99 185.75,-320.41 138.09,-324.72"/>
<polygon fill="#63b8ff" stroke="#63b8ff" points="336.48,-305.97 345.82,-300.97 335.4,-299.05 336.48,-305.97"/>
</g>
<!-- Node11&#45;&gt;Node5 -->
<g id="edge11" class="edge">
<title>Node11&#45;&gt;Node5</title>
<path fill="none" stroke="#63b8ff" d="M339.54,-272.92C318.77,-267.51 296.68,-261.75 278.79,-257.09"/>
<polygon fill="#63b8ff" stroke="#63b8ff" points="338.73,-276.33 349.29,-275.46 340.5,-269.55 338.73,-276.33"/>
</g>
<!-- Node12 -->
<g id="node12" class="node">
<title>Node12</title>
<g id="a_node12"><a xlink:href="namespacesharp.html#a298e2c96c389f2c5177d3626c908927e" target="_top" xlink:title="Computes the mass&#45;weighted mean value of a field over a given pressure layer.">
<polygon fill="white" stroke="#666666" points="294.5,-297 187.5,-297 187.5,-278 294.5,-278 294.5,-297"/>
<text text-anchor="middle" x="241" y="-285" font-family="Helvetica,sans-Serif" font-size="10.00">sharp::layer_mean</text>
</a>
</g>
</g>
<!-- Node11&#45;&gt;Node12 -->
<g id="edge13" class="edge">
<title>Node11&#45;&gt;Node12</title>
<path fill="none" stroke="#63b8ff" d="M335.21,-289.19C321.55,-288.95 307.49,-288.69 294.56,-288.46"/>
<polygon fill="#63b8ff" stroke="#63b8ff" points="335.5,-292.7 345.56,-289.38 335.63,-285.7 335.5,-292.7"/>
</g>
<!-- Node12&#45;&gt;Node3 -->
<g id="edge14" class="edge">
<title>Node12&#45;&gt;Node3</title>
<path fill="none" stroke="#63b8ff" d="M192.34,-299.56C165.55,-306.33 132.58,-314.67 107.62,-320.98"/>
<polygon fill="#63b8ff" stroke="#63b8ff" points="193.44,-302.89 202.27,-297.04 191.72,-296.1 193.44,-302.89"/>
</g>
<!-- Node13 -->
<g id="node13" class="node">
<title>Node13</title>
<g id="a_node13"><a xlink:href="structsharp_1_1Parcel.html#a1bf670e79f35a1ce8c904b7ead32ccbe" target="_top" xlink:title="Construct and return a mixed&#45;layer Parcel.">
<polygon fill="white" stroke="#666666" points="126.5,-302.5 11.5,-302.5 11.5,-272.5 126.5,-272.5 126.5,-302.5"/>
<text text-anchor="start" x="19.5" y="-290.5" font-family="Helvetica,sans-Serif" font-size="10.00">sharp::Parcel::mixed</text>
<text text-anchor="middle" x="69" y="-279.5" font-family="Helvetica,sans-Serif" font-size="10.00">_layer_parcel</text>
</a>
</g>
</g>
<!-- Node12&#45;&gt;Node13 -->
<g id="edge15" class="edge">
<title>Node12&#45;&gt;Node13</title>
<path fill="none" stroke="#63b8ff" d="M177.04,-287.5C160.53,-287.5 142.82,-287.5 126.66,-287.5"/>
<polygon fill="#63b8ff" stroke="#63b8ff" points="177.14,-291 187.14,-287.5 177.14,-284 177.14,-291"/>
</g>
<!-- Node15 -->
<g id="node15" class="node">
<title>Node15</title>
<g id="a_node15"><a xlink:href="namespacesharp.html#a6170e3f412ab95b3ba8d9a93ae55dc67" target="_top" xlink:title="Returns the maximim value in the given layer.">
<polygon fill="white" stroke="#666666" points="291.5,-19 190.5,-19 190.5,0 291.5,0 291.5,-19"/>
<text text-anchor="middle" x="241" y="-7" font-family="Helvetica,sans-Serif" font-size="10.00">sharp::layer_max</text>
</a>
</g>
</g>
<!-- Node14&#45;&gt;Node15 -->
<g id="edge17" class="edge">
<title>Node14&#45;&gt;Node15</title>
<path fill="none" stroke="#63b8ff" d="M354.73,-34.78C332.14,-29.71 306.03,-23.86 284.63,-19.06"/>
<polygon fill="#63b8ff" stroke="#63b8ff" points="353.98,-38.2 364.51,-36.97 355.52,-31.37 353.98,-38.2"/>
</g>
<!-- Node16 -->
<g id="node16" class="node">
<title>Node16</title>
<g id="a_node16"><a xlink:href="namespacesharp.html#a01a9880c937f63e551893797253da4f7" target="_top" xlink:title="Returns the minimum value in the given layer.">
<polygon fill="white" stroke="#666666" points="290,-56 192,-56 192,-37 290,-37 290,-56"/>
<text text-anchor="middle" x="241" y="-44" font-family="Helvetica,sans-Serif" font-size="10.00">sharp::layer_min</text>
</a>
</g>
</g>
<!-- Node14&#45;&gt;Node16 -->
<g id="edge18" class="edge">
<title>Node14&#45;&gt;Node16</title>
<path fill="none" stroke="#63b8ff" d="M337.53,-46.5C321.57,-46.5 304.94,-46.5 290.12,-46.5"/>
<polygon fill="#63b8ff" stroke="#63b8ff" points="337.9,-50 347.9,-46.5 337.9,-43 337.9,-50"/>
</g>
<!-- Node17&#45;&gt;Node6 -->
<g id="edge20" class="edge">
<title>Node17&#45;&gt;Node6</title>
<path fill="none" stroke="#63b8ff" d="M181.6,-216.52C165.82,-219.77 148.69,-223.3 132.69,-226.59"/>
<polygon fill="#63b8ff" stroke="#63b8ff" points="182.65,-219.88 191.74,-214.44 181.24,-213.02 182.65,-219.88"/>
</g>
<!-- Node17&#45;&gt;Node7 -->
<g id="edge21" class="edge">
<title>Node17&#45;&gt;Node7</title>
<path fill="none" stroke="#63b8ff" d="M181.6,-200.03C162.95,-198.61 142.39,-197.04 124.06,-195.63"/>
<polygon fill="#63b8ff" stroke="#63b8ff" points="181.5,-203.54 191.74,-200.81 182.04,-196.56 181.5,-203.54"/>
</g>
</g>
</svg>
