<?xml version="1.0" encoding="UTF-8" standalone="no"?>
<!DOCTYPE svg PUBLIC "-//W3C//DTD SVG 1.1//EN"
 "http://www.w3.org/Graphics/SVG/1.1/DTD/svg11.dtd">
<!-- Generated by graphviz version 2.43.0 (0)
 -->
<!-- Title: sharp::effective_inflow_layer Pages: 1 -->
<svg width="916pt" height="340pt"
 viewBox="0.00 0.00 916.00 340.00" xmlns="http://www.w3.org/2000/svg" xmlns:xlink="http://www.w3.org/1999/xlink">
<g id="graph0" class="graph" transform="scale(1 1) rotate(0) translate(4 336)">
<title>sharp::effective_inflow_layer</title>
<!-- Node1 -->
<g id="node1" class="node">
<title>Node1</title>
<g id="a_node1"><a xlink:title="Computes the Effective Inflow Layer for a given atmospheric sounding.">
<polygon fill="#999999" stroke="#666666" points="127,-242.5 0,-242.5 0,-212.5 127,-212.5 127,-242.5"/>
<text text-anchor="start" x="8" y="-230.5" font-family="Helvetica,sans-Serif" font-size="10.00">sharp::effective_inflow</text>
<text text-anchor="middle" x="63.5" y="-219.5" font-family="Helvetica,sans-Serif" font-size="10.00">_layer</text>
</a>
</g>
</g>
<!-- Node2 -->
<g id="node2" class="node">
<title>Node2</title>
<g id="a_node2"><a xlink:href="namespacesharp.html#aae31e8a18568ec26222b603e629c5598" target="_top" xlink:title="compute buoyancy given parcel and environment temperatures">
<polygon fill="white" stroke="#666666" points="278.5,-274 181.5,-274 181.5,-255 278.5,-255 278.5,-274"/>
<text text-anchor="middle" x="230" y="-262" font-family="Helvetica,sans-Serif" font-size="10.00">sharp::buoyancy</text>
</a>
</g>
</g>
<!-- Node1&#45;&gt;Node2 -->
<g id="edge1" class="edge">
<title>Node1&#45;&gt;Node2</title>
<path fill="none" stroke="#63b8ff" d="M127.16,-241.59C143.4,-245.25 160.71,-249.14 176.38,-252.66"/>
<polygon fill="#63b8ff" stroke="#63b8ff" points="175.88,-256.14 186.4,-254.92 177.42,-249.31 175.88,-256.14"/>
</g>
<!-- Node3 -->
<g id="node3" class="node">
<title>Node3</title>
<g id="a_node3"><a xlink:href="structsharp_1_1Parcel.html#a0560bd193b2d2d6bc6b08baa7463fba4" target="_top" xlink:title="Compute CAPE and CINH for a previously lifted sharp::Parcel.">
<polygon fill="white" stroke="#666666" points="297,-237 163,-237 163,-218 297,-218 297,-237"/>
<text text-anchor="middle" x="230" y="-225" font-family="Helvetica,sans-Serif" font-size="10.00">sharp::Parcel::cape_cinh</text>
</a>
</g>
</g>
<!-- Node1&#45;&gt;Node3 -->
<g id="edge2" class="edge">
<title>Node1&#45;&gt;Node3</title>
<path fill="none" stroke="#63b8ff" d="M127.16,-227.5C135.58,-227.5 144.29,-227.5 152.91,-227.5"/>
<polygon fill="#63b8ff" stroke="#63b8ff" points="152.96,-231 162.96,-227.5 152.96,-224 152.96,-231"/>
</g>
<!-- Node15 -->
<g id="node15" class="node">
<title>Node15</title>
<g id="a_node15"><a xlink:href="structsharp_1_1Parcel.html#a9523de2b8b4c28ca49fba3013f94cb06" target="_top" xlink:title="Lifts a sharp::Parcel to compute its virtual temperature.">
<polygon fill="white" stroke="#666666" points="279,-118.5 181,-118.5 181,-88.5 279,-88.5 279,-118.5"/>
<text text-anchor="start" x="189" y="-106.5" font-family="Helvetica,sans-Serif" font-size="10.00">sharp::Parcel::lift</text>
<text text-anchor="middle" x="230" y="-95.5" font-family="Helvetica,sans-Serif" font-size="10.00">_parcel</text>
</a>
</g>
</g>
<!-- Node1&#45;&gt;Node15 -->
<g id="edge20" class="edge">
<title>Node1&#45;&gt;Node15</title>
<path fill="none" stroke="#63b8ff" d="M84.67,-212.3C113.73,-190.39 167.51,-149.85 200.58,-124.92"/>
<polygon fill="#63b8ff" stroke="#63b8ff" points="203.04,-127.45 208.92,-118.64 198.83,-121.86 203.04,-127.45"/>
</g>
<!-- Node4 -->
<g id="node4" class="node">
<title>Node4</title>
<g id="a_node4"><a xlink:href="structsharp_1_1Parcel.html#a8a311e09b1d46a829212da94cf181537" target="_top" xlink:title="Find the LFC and EL that bounds the layer with the maximum CAPE.">
<polygon fill="white" stroke="#666666" points="458,-218.5 355,-218.5 355,-188.5 458,-188.5 458,-218.5"/>
<text text-anchor="start" x="363" y="-206.5" font-family="Helvetica,sans-Serif" font-size="10.00">sharp::Parcel::find</text>
<text text-anchor="middle" x="406.5" y="-195.5" font-family="Helvetica,sans-Serif" font-size="10.00">_lfc_el</text>
</a>
</g>
</g>
<!-- Node3&#45;&gt;Node4 -->
<g id="edge3" class="edge">
<title>Node3&#45;&gt;Node4</title>
<path fill="none" stroke="#63b8ff" d="M297.47,-218.36C312.96,-216.23 329.39,-213.97 344.63,-211.87"/>
<polygon fill="#63b8ff" stroke="#63b8ff" points="345.53,-215.28 354.96,-210.45 344.58,-208.35 345.53,-215.28"/>
</g>
<!-- Node11 -->
<g id="node11" class="node">
<title>Node11</title>
<g id="a_node11"><a xlink:href="namespacesharp.html#a7acec1642f27591dc988bf9e48b4612d" target="_top" xlink:title="Returns a trapezoidal integration of the given layer.">
<polygon fill="white" stroke="#666666" points="468.5,-314.5 344.5,-314.5 344.5,-284.5 468.5,-284.5 468.5,-314.5"/>
<text text-anchor="start" x="352.5" y="-302.5" font-family="Helvetica,sans-Serif" font-size="10.00">sharp::integrate_layer</text>
<text text-anchor="middle" x="406.5" y="-291.5" font-family="Helvetica,sans-Serif" font-size="10.00">_trapz</text>
</a>
</g>
</g>
<!-- Node3&#45;&gt;Node11 -->
<g id="edge11" class="edge">
<title>Node3&#45;&gt;Node11</title>
<path fill="none" stroke="#63b8ff" d="M273.51,-237.03C281.54,-239.58 289.7,-242.71 297,-246.5 315.23,-255.97 314.96,-265.67 333,-275.5 336.22,-277.25 339.58,-278.91 343.03,-280.46"/>
<polygon fill="#63b8ff" stroke="#63b8ff" points="341.72,-283.71 352.29,-284.35 344.43,-277.25 341.72,-283.71"/>
</g>
<!-- Node14 -->
<g id="node14" class="node">
<title>Node14</title>
<g id="a_node14"><a xlink:href="namespacesharp.html#a31da980f398c9f6a5960ddf868101a94" target="_top" xlink:title="Converts a sharp::PressureLayer to a sharp::HeightLayer.">
<polygon fill="white" stroke="#666666" points="467.5,-266.5 345.5,-266.5 345.5,-236.5 467.5,-236.5 467.5,-266.5"/>
<text text-anchor="start" x="353.5" y="-254.5" font-family="Helvetica,sans-Serif" font-size="10.00">sharp::pressure_layer</text>
<text text-anchor="middle" x="406.5" y="-243.5" font-family="Helvetica,sans-Serif" font-size="10.00">_to_height</text>
</a>
</g>
</g>
<!-- Node3&#45;&gt;Node14 -->
<g id="edge18" class="edge">
<title>Node3&#45;&gt;Node14</title>
<path fill="none" stroke="#63b8ff" d="M297.47,-236.64C309.73,-238.33 322.58,-240.1 334.96,-241.8"/>
<polygon fill="#63b8ff" stroke="#63b8ff" points="334.84,-245.32 345.23,-243.21 335.8,-238.38 334.84,-245.32"/>
</g>
<!-- Node5 -->
<g id="node5" class="node">
<title>Node5</title>
<g id="a_node5"><a xlink:href="namespacesharp.html#ac93f477dfa774c966b5da7521bd43ee6" target="_top" xlink:title="Returns the array indices corresponding to the given layer.">
<polygon fill="white" stroke="#666666" points="644,-216 516,-216 516,-197 644,-197 644,-216"/>
<text text-anchor="middle" x="580" y="-204" font-family="Helvetica,sans-Serif" font-size="10.00">sharp::get_layer_index</text>
</a>
</g>
</g>
<!-- Node4&#45;&gt;Node5 -->
<g id="edge4" class="edge">
<title>Node4&#45;&gt;Node5</title>
<path fill="none" stroke="#63b8ff" d="M458.03,-204.38C472.86,-204.64 489.39,-204.93 505.36,-205.21"/>
<polygon fill="#63b8ff" stroke="#63b8ff" points="505.68,-208.72 515.74,-205.39 505.8,-201.72 505.68,-208.72"/>
</g>
<!-- Node8 -->
<g id="node8" class="node">
<title>Node8</title>
<g id="a_node8"><a xlink:href="namespacesharp.html#a7ed0899941867073e5062af04fdbd3e7" target="_top" xlink:title="Linearly interpolate a data field to a requested pressure level.">
<polygon fill="white" stroke="#666666" points="642.5,-258 517.5,-258 517.5,-239 642.5,-239 642.5,-258"/>
<text text-anchor="middle" x="580" y="-246" font-family="Helvetica,sans-Serif" font-size="10.00">sharp::interp_pressure</text>
</a>
</g>
</g>
<!-- Node4&#45;&gt;Node8 -->
<g id="edge7" class="edge">
<title>Node4&#45;&gt;Node8</title>
<path fill="none" stroke="#63b8ff" d="M458.03,-216.76C481.7,-222.97 509.7,-230.32 532.8,-236.38"/>
<polygon fill="#63b8ff" stroke="#63b8ff" points="532.14,-239.82 542.7,-238.98 533.92,-233.05 532.14,-239.82"/>
</g>
<!-- Node6 -->
<g id="node6" class="node">
<title>Node6</title>
<g id="a_node6"><a xlink:href="namespacesharp.html#a1edcf8bff9a13429bcbff7c1129024b3" target="_top" xlink:title="Finds the index of the lower bound that does not satisfy element &lt; value.">
<polygon fill="white" stroke="#666666" points="792.5,-216 680.5,-216 680.5,-197 792.5,-197 792.5,-216"/>
<text text-anchor="middle" x="736.5" y="-204" font-family="Helvetica,sans-Serif" font-size="10.00">sharp::lower_bound</text>
</a>
</g>
</g>
<!-- Node5&#45;&gt;Node6 -->
<g id="edge5" class="edge">
<title>Node5&#45;&gt;Node6</title>
<path fill="none" stroke="#63b8ff" d="M644.29,-206.5C652.91,-206.5 661.78,-206.5 670.43,-206.5"/>
<polygon fill="#63b8ff" stroke="#63b8ff" points="670.47,-210 680.47,-206.5 670.47,-203 670.47,-210"/>
</g>
<!-- Node7 -->
<g id="node7" class="node">
<title>Node7</title>
<g id="a_node7"><a xlink:href="namespacesharp.html#a772686549a5111c1152b778731119aa6" target="_top" xlink:title="Finds the first index that satisfies value &lt; element.">
<polygon fill="white" stroke="#666666" points="793,-258 680,-258 680,-239 793,-239 793,-258"/>
<text text-anchor="middle" x="736.5" y="-246" font-family="Helvetica,sans-Serif" font-size="10.00">sharp::upper_bound</text>
</a>
</g>
</g>
<!-- Node5&#45;&gt;Node7 -->
<g id="edge6" class="edge">
<title>Node5&#45;&gt;Node7</title>
<path fill="none" stroke="#63b8ff" d="M616.06,-216.03C638.1,-222.02 666.76,-229.81 690.48,-236.26"/>
<polygon fill="#63b8ff" stroke="#63b8ff" points="689.75,-239.69 700.31,-238.93 691.58,-232.93 689.75,-239.69"/>
</g>
<!-- Node8&#45;&gt;Node7 -->
<g id="edge10" class="edge">
<title>Node8&#45;&gt;Node7</title>
<path fill="none" stroke="#63b8ff" d="M642.51,-248.5C651.43,-248.5 660.65,-248.5 669.66,-248.5"/>
<polygon fill="#63b8ff" stroke="#63b8ff" points="669.71,-252 679.71,-248.5 669.71,-245 669.71,-252"/>
</g>
<!-- Node9 -->
<g id="node9" class="node">
<title>Node9</title>
<g id="a_node9"><a xlink:href="namespacesharp.html#a8aa123fbe3b59a7023446b0fe2186c49" target="_top" xlink:title="Linearly interpolates between a and b with distance t.">
<polygon fill="white" stroke="#666666" points="770.5,-313 702.5,-313 702.5,-294 770.5,-294 770.5,-313"/>
<text text-anchor="middle" x="736.5" y="-301" font-family="Helvetica,sans-Serif" font-size="10.00">sharp::lerp</text>
</a>
</g>
</g>
<!-- Node8&#45;&gt;Node9 -->
<g id="edge8" class="edge">
<title>Node8&#45;&gt;Node9</title>
<path fill="none" stroke="#63b8ff" d="M614.51,-258.05C624.09,-260.93 634.5,-264.21 644,-267.5 663.82,-274.37 685.69,-282.94 703.08,-290"/>
<polygon fill="#63b8ff" stroke="#63b8ff" points="702.18,-293.41 712.76,-293.95 704.82,-286.93 702.18,-293.41"/>
</g>
<!-- Node10 -->
<g id="node10" class="node">
<title>Node10</title>
<g id="a_node10"><a xlink:href="namespacesharp.html#a8848423b96dfe09b90322efd2cc5bd43" target="_top" xlink:title="Linearly interpolates between a and b with distance t.">
<polygon fill="white" stroke="#666666" points="908,-313 829,-313 829,-294 908,-294 908,-313"/>
<text text-anchor="middle" x="868.5" y="-301" font-family="Helvetica,sans-Serif" font-size="10.00">sharp::__lerp</text>
</a>
</g>
</g>
<!-- Node9&#45;&gt;Node10 -->
<g id="edge9" class="edge">
<title>Node9&#45;&gt;Node10</title>
<path fill="none" stroke="#63b8ff" d="M770.64,-303.5C785.2,-303.5 802.6,-303.5 818.61,-303.5"/>
<polygon fill="#63b8ff" stroke="#63b8ff" points="818.88,-307 828.88,-303.5 818.88,-300 818.88,-307"/>
</g>
<!-- Node11&#45;&gt;Node5 -->
<g id="edge13" class="edge">
<title>Node11&#45;&gt;Node5</title>
<path fill="none" stroke="#63b8ff" d="M464.09,-284.41C469.69,-281.86 475.1,-278.91 480,-275.5 501.02,-260.87 495.3,-245.59 516,-230.5 521.59,-226.42 527.96,-222.95 534.45,-220.02"/>
<polygon fill="#63b8ff" stroke="#63b8ff" points="536.05,-223.14 543.97,-216.1 533.39,-216.67 536.05,-223.14"/>
</g>
<!-- Node11&#45;&gt;Node8 -->
<g id="edge17" class="edge">
<title>Node11&#45;&gt;Node8</title>
<path fill="none" stroke="#63b8ff" d="M458.03,-284.47C483.19,-276.99 513.24,-268.06 537.1,-260.96"/>
<polygon fill="#63b8ff" stroke="#63b8ff" points="538.32,-264.25 546.91,-258.04 536.33,-257.54 538.32,-264.25"/>
</g>
<!-- Node12 -->
<g id="node12" class="node">
<title>Node12</title>
<g id="a_node12"><a xlink:href="namespacesharp.html#a3558a68454edd4679ef97335e3a9f1fb" target="_top" xlink:title="A kernel that computes the area under a curve using the trapezoidal rule.">
<polygon fill="white" stroke="#666666" points="635,-295 525,-295 525,-276 635,-276 635,-295"/>
<text text-anchor="middle" x="580" y="-283" font-family="Helvetica,sans-Serif" font-size="10.00">sharp::_integ_trapz</text>
</a>
</g>
</g>
<!-- Node11&#45;&gt;Node12 -->
<g id="edge12" class="edge">
<title>Node11&#45;&gt;Node12</title>
<path fill="none" stroke="#63b8ff" d="M468.93,-294.49C483.77,-293.27 499.67,-291.98 514.63,-290.75"/>
<polygon fill="#63b8ff" stroke="#63b8ff" points="515.14,-294.22 524.82,-289.92 514.57,-287.25 515.14,-294.22"/>
</g>
<!-- Node13 -->
<g id="node13" class="node">
<title>Node13</title>
<g id="a_node13"><a xlink:href="namespacesharp.html#af8484e9fe21c025b64ecffde614feb11" target="_top" xlink:title="Linearly interpolate a data field to a requested height level.">
<polygon fill="white" stroke="#666666" points="637,-332 523,-332 523,-313 637,-313 637,-332"/>
<text text-anchor="middle" x="580" y="-320" font-family="Helvetica,sans-Serif" font-size="10.00">sharp::interp_height</text>
</a>
</g>
</g>
<!-- Node11&#45;&gt;Node13 -->
<g id="edge14" class="edge">
<title>Node11&#45;&gt;Node13</title>
<path fill="none" stroke="#63b8ff" d="M468.93,-307.74C483.08,-309.64 498.2,-311.66 512.56,-313.59"/>
<polygon fill="#63b8ff" stroke="#63b8ff" points="512.47,-317.11 522.85,-314.97 513.4,-310.17 512.47,-317.11"/>
</g>
<!-- Node13&#45;&gt;Node7 -->
<g id="edge16" class="edge">
<title>Node13&#45;&gt;Node7</title>
<path fill="none" stroke="#63b8ff" d="M620.56,-312.97C628.47,-310.58 636.61,-307.75 644,-304.5 657.64,-298.51 689.96,-278.14 712.29,-263.7"/>
<polygon fill="#63b8ff" stroke="#63b8ff" points="714.39,-266.51 720.87,-258.12 710.58,-260.64 714.39,-266.51"/>
</g>
<!-- Node13&#45;&gt;Node9 -->
<g id="edge15" class="edge">
<title>Node13&#45;&gt;Node9</title>
<path fill="none" stroke="#63b8ff" d="M637.22,-315.59C655.36,-313.35 675.19,-310.92 692.25,-308.82"/>
<polygon fill="#63b8ff" stroke="#63b8ff" points="692.98,-312.26 702.48,-307.56 692.12,-305.31 692.98,-312.26"/>
</g>
<!-- Node14&#45;&gt;Node8 -->
<g id="edge19" class="edge">
<title>Node14&#45;&gt;Node8</title>
<path fill="none" stroke="#63b8ff" d="M467.96,-250.44C480.6,-250.22 494.03,-249.99 507.03,-249.76"/>
<polygon fill="#63b8ff" stroke="#63b8ff" points="507.41,-253.25 517.34,-249.58 507.28,-246.25 507.41,-253.25"/>
</g>
<!-- Node15&#45;&gt;Node5 -->
<g id="edge25" class="edge">
<title>Node15&#45;&gt;Node5</title>
<path fill="none" stroke="#63b8ff" d="M269.96,-118.55C288.86,-125.62 311.97,-133.91 333,-140.5 397.5,-160.71 414.73,-161.94 480,-179.5 497.83,-184.3 517.46,-189.64 534.49,-194.29"/>
<polygon fill="#63b8ff" stroke="#63b8ff" points="533.63,-197.68 544.2,-196.94 535.47,-190.93 533.63,-197.68"/>
</g>
<!-- Node16 -->
<g id="node16" class="node">
<title>Node16</title>
<g id="a_node16"><a xlink:href="namespacesharp.html#ae4385866921cd7286946d9ffdd65c25e" target="_top" xlink:title="Lift a parcel dry adiabatically to its Lifted Condensation Level (LCL).">
<polygon fill="white" stroke="#666666" points="445.5,-132 367.5,-132 367.5,-113 445.5,-113 445.5,-132"/>
<text text-anchor="middle" x="406.5" y="-120" font-family="Helvetica,sans-Serif" font-size="10.00">sharp::drylift</text>
</a>
</g>
</g>
<!-- Node15&#45;&gt;Node16 -->
<g id="edge21" class="edge">
<title>Node15&#45;&gt;Node16</title>
<path fill="none" stroke="#63b8ff" d="M279.14,-108.74C303.51,-111.39 333,-114.61 357.36,-117.26"/>
<polygon fill="#63b8ff" stroke="#63b8ff" points="357.14,-120.75 367.46,-118.36 357.9,-113.8 357.14,-120.75"/>
</g>
<!-- Node18 -->
<g id="node18" class="node">
<title>Node18</title>
<g id="a_node18"><a xlink:href="namespacesharp.html#acfd0143ab72871c4aabc95c1140ee8fb" target="_top" xlink:title="Compute the potential temperature.">
<polygon fill="white" stroke="#666666" points="617.5,-95 542.5,-95 542.5,-76 617.5,-76 617.5,-95"/>
<text text-anchor="middle" x="580" y="-83" font-family="Helvetica,sans-Serif" font-size="10.00">sharp::theta</text>
</a>
</g>
</g>
<!-- Node15&#45;&gt;Node18 -->
<g id="edge27" class="edge">
<title>Node15&#45;&gt;Node18</title>
<path fill="none" stroke="#63b8ff" d="M279.02,-101.02C345.84,-97.56 466.06,-91.34 532.21,-87.92"/>
<polygon fill="#63b8ff" stroke="#63b8ff" points="532.54,-91.41 542.34,-87.4 532.18,-84.42 532.54,-91.41"/>
</g>
<!-- Node20 -->
<g id="node20" class="node">
<title>Node20</title>
<g id="a_node20"><a xlink:href="namespacesharp.html#ac38870166f07ac30aadbc46b81340cc4" target="_top" xlink:title="Compute the water vapor mixing ratio from specific humidity.">
<polygon fill="white" stroke="#666666" points="452,-56 361,-56 361,-37 452,-37 452,-56"/>
<text text-anchor="middle" x="406.5" y="-44" font-family="Helvetica,sans-Serif" font-size="10.00">sharp::mixratio</text>
</a>
</g>
</g>
<!-- Node15&#45;&gt;Node20 -->
<g id="edge26" class="edge">
<title>Node15&#45;&gt;Node20</title>
<path fill="none" stroke="#63b8ff" d="M277.3,-88.37C305.15,-79.28 340.19,-67.83 366.59,-59.21"/>
<polygon fill="#63b8ff" stroke="#63b8ff" points="367.84,-62.48 376.26,-56.05 365.67,-55.83 367.84,-62.48"/>
</g>
<!-- Node21 -->
<g id="node21" class="node">
<title>Node21</title>
<g id="a_node21"><a xlink:href="namespacesharp.html#a76fd825fdd87804ec8b79fa73196985c" target="_top" xlink:title="Compute the full virtual temperature.">
<polygon fill="white" stroke="#666666" points="480,-19 333,-19 333,0 480,0 480,-19"/>
<text text-anchor="middle" x="406.5" y="-7" font-family="Helvetica,sans-Serif" font-size="10.00">sharp::virtual_temperature</text>
</a>
</g>
</g>
<!-- Node15&#45;&gt;Node21 -->
<g id="edge28" class="edge">
<title>Node15&#45;&gt;Node21</title>
<path fill="none" stroke="#63b8ff" d="M246.98,-88.36C266.02,-71.14 299.46,-43.36 333,-27.5 337.13,-25.54 341.51,-23.79 345.97,-22.21"/>
<polygon fill="#63b8ff" stroke="#63b8ff" points="347.39,-25.43 355.84,-19.03 345.24,-18.76 347.39,-25.43"/>
</g>
<!-- Node17 -->
<g id="node17" class="node">
<title>Node17</title>
<g id="a_node17"><a xlink:href="namespacesharp.html#af016701e4a46d5c04d26c0a09c0aad38" target="_top" xlink:title="Compute the temperature of the LCL.">
<polygon fill="white" stroke="#666666" points="643.5,-169 516.5,-169 516.5,-150 643.5,-150 643.5,-169"/>
<text text-anchor="middle" x="580" y="-157" font-family="Helvetica,sans-Serif" font-size="10.00">sharp::lcl_temperature</text>
</a>
</g>
</g>
<!-- Node16&#45;&gt;Node17 -->
<g id="edge22" class="edge">
<title>Node16&#45;&gt;Node17</title>
<path fill="none" stroke="#63b8ff" d="M445.56,-130.71C468.82,-135.73 498.95,-142.23 524.69,-147.78"/>
<polygon fill="#63b8ff" stroke="#63b8ff" points="524.16,-151.25 534.68,-149.94 525.64,-144.41 524.16,-151.25"/>
</g>
<!-- Node16&#45;&gt;Node18 -->
<g id="edge23" class="edge">
<title>Node16&#45;&gt;Node18</title>
<path fill="none" stroke="#63b8ff" d="M445.56,-114.29C471.11,-108.78 504.95,-101.48 532.15,-95.61"/>
<polygon fill="#63b8ff" stroke="#63b8ff" points="533.19,-98.96 542.22,-93.43 531.71,-92.12 533.19,-98.96"/>
</g>
<!-- Node19 -->
<g id="node19" class="node">
<title>Node19</title>
<g id="a_node19"><a xlink:href="namespacesharp.html#ab50b565bcba73d207dc1433dee5b03c9" target="_top" xlink:title="Comute the pressure level given potential temperature and temperature.">
<polygon fill="white" stroke="#666666" points="632,-132 528,-132 528,-113 632,-113 632,-132"/>
<text text-anchor="middle" x="580" y="-120" font-family="Helvetica,sans-Serif" font-size="10.00">sharp::theta_level</text>
</a>
</g>
</g>
<!-- Node16&#45;&gt;Node19 -->
<g id="edge24" class="edge">
<title>Node16&#45;&gt;Node19</title>
<path fill="none" stroke="#63b8ff" d="M445.56,-122.5C466.72,-122.5 493.55,-122.5 517.6,-122.5"/>
<polygon fill="#63b8ff" stroke="#63b8ff" points="517.71,-126 527.71,-122.5 517.71,-119 517.71,-126"/>
</g>
</g>
</svg>
