<?xml version="1.0" encoding="UTF-8" standalone="no"?>
<!DOCTYPE svg PUBLIC "-//W3C//DTD SVG 1.1//EN"
 "http://www.w3.org/Graphics/SVG/1.1/DTD/svg11.dtd">
<!-- Generated by graphviz version 2.43.0 (0)
 -->
<!-- Title: sharp::__lerp Pages: 1 -->
<svg width="856pt" height="625pt"
 viewBox="0.00 0.00 856.00 625.23" xmlns="http://www.w3.org/2000/svg" xmlns:xlink="http://www.w3.org/1999/xlink">
<g id="graph0" class="graph" transform="scale(1 1) rotate(0) translate(4 621.23)">
<title>sharp::__lerp</title>
<!-- Node1 -->
<g id="node1" class="node">
<title>Node1</title>
<g id="a_node1"><a xlink:title="Linearly interpolates between a and b with distance t.">
<polygon fill="#999999" stroke="#666666" points="848,-332.08 769,-332.08 769,-313.08 848,-313.08 848,-332.08"/>
<text text-anchor="middle" x="808.5" y="-320.08" font-family="Helvetica,sans-Serif" font-size="10.00">sharp::__lerp</text>
</a>
</g>
</g>
<!-- Node2 -->
<g id="node2" class="node">
<title>Node2</title>
<g id="a_node2"><a xlink:href="namespacesharp.html#a0bf533560780fdb77bc3656db8d89208" target="_top" xlink:title="Linearly interpolates between a and b with distance t.">
<polygon fill="white" stroke="#666666" points="733,-332.08 665,-332.08 665,-313.08 733,-313.08 733,-332.08"/>
<text text-anchor="middle" x="699" y="-320.08" font-family="Helvetica,sans-Serif" font-size="10.00">sharp::lerp</text>
</a>
</g>
</g>
<!-- Node1&#45;&gt;Node2 -->
<g id="edge1" class="edge">
<title>Node1&#45;&gt;Node2</title>
<path fill="none" stroke="#63b8ff" d="M758.94,-322.58C750.25,-322.58 741.39,-322.58 733.26,-322.58"/>
<polygon fill="#63b8ff" stroke="#63b8ff" points="758.99,-326.08 768.99,-322.58 758.99,-319.08 758.99,-326.08"/>
</g>
<!-- Node3 -->
<g id="node3" class="node">
<title>Node3</title>
<g id="a_node3"><a xlink:href="namespacesharp.html#ae8240f026498ad2775633a8d0dcf100d" target="_top" xlink:title="Linearly interpolate a data field to a requested height level.">
<polygon fill="white" stroke="#666666" points="623.5,-412.08 509.5,-412.08 509.5,-393.08 623.5,-393.08 623.5,-412.08"/>
<text text-anchor="middle" x="566.5" y="-400.08" font-family="Helvetica,sans-Serif" font-size="10.00">sharp::interp_height</text>
</a>
</g>
</g>
<!-- Node2&#45;&gt;Node3 -->
<g id="edge2" class="edge">
<title>Node2&#45;&gt;Node3</title>
<path fill="none" stroke="#63b8ff" d="M673.59,-337.55C647.15,-353.75 605.77,-379.12 583.3,-392.9"/>
<polygon fill="#63b8ff" stroke="#63b8ff" points="675.56,-340.44 682.26,-332.23 671.9,-334.47 675.56,-340.44"/>
</g>
<!-- Node24 -->
<g id="node24" class="node">
<title>Node24</title>
<g id="a_node24"><a xlink:href="namespacesharp.html#a55e4f8ee4ff8a4a30d7b3f3d92a41c75" target="_top" xlink:title="Linearly interpolate a data field to a requested pressure level.">
<polygon fill="white" stroke="#666666" points="629,-274.08 504,-274.08 504,-255.08 629,-255.08 629,-274.08"/>
<text text-anchor="middle" x="566.5" y="-262.08" font-family="Helvetica,sans-Serif" font-size="10.00">sharp::interp_pressure</text>
</a>
</g>
</g>
<!-- Node2&#45;&gt;Node24 -->
<g id="edge27" class="edge">
<title>Node2&#45;&gt;Node24</title>
<path fill="none" stroke="#63b8ff" d="M667.07,-308.83C643.04,-298.16 610.34,-283.62 589.08,-274.17"/>
<polygon fill="#63b8ff" stroke="#63b8ff" points="665.89,-312.14 676.45,-313 668.73,-305.74 665.89,-312.14"/>
</g>
<!-- Node4 -->
<g id="node4" class="node">
<title>Node4</title>
<g id="a_node4"><a xlink:href="namespacesharp.html#a72bbdc4cfe7895dd51981902ac9fc822" target="_top" xlink:title="Computes Entrainment CAPE using a previously lifted parcel.">
<polygon fill="white" stroke="#666666" points="138,-271.08 0,-271.08 0,-252.08 138,-252.08 138,-271.08"/>
<text text-anchor="middle" x="69" y="-259.08" font-family="Helvetica,sans-Serif" font-size="10.00">sharp::entrainment_cape</text>
</a>
</g>
</g>
<!-- Node3&#45;&gt;Node4 -->
<g id="edge3" class="edge">
<title>Node3&#45;&gt;Node4</title>
<path fill="none" stroke="#63b8ff" d="M553.99,-420.8C537.85,-444.75 506.14,-486.25 468,-507.58 410.64,-539.66 227.53,-577.7 174,-539.58 134.16,-511.21 154.91,-481.48 138,-435.58 114.8,-372.58 84.66,-297.7 73.97,-271.34"/>
<polygon fill="#63b8ff" stroke="#63b8ff" points="557.02,-422.57 559.58,-412.29 551.17,-418.73 557.02,-422.57"/>
</g>
<!-- Node5 -->
<g id="node5" class="node">
<title>Node5</title>
<g id="a_node5"><a xlink:href="namespacesharp.html#ab77e344c7462c9615b0ddac228bc2193" target="_top" xlink:title="Converts a sharp::HeightLayer to a sharp::PressureLayer.">
<polygon fill="white" stroke="#666666" points="461,-460.58 351,-460.58 351,-430.58 461,-430.58 461,-460.58"/>
<text text-anchor="start" x="359" y="-448.58" font-family="Helvetica,sans-Serif" font-size="10.00">sharp::height_layer</text>
<text text-anchor="middle" x="406" y="-437.58" font-family="Helvetica,sans-Serif" font-size="10.00">_to_pressure</text>
</a>
</g>
</g>
<!-- Node3&#45;&gt;Node5 -->
<g id="edge4" class="edge">
<title>Node3&#45;&gt;Node5</title>
<path fill="none" stroke="#63b8ff" d="M520.66,-414.74C502.13,-419.77 480.48,-425.65 461.08,-430.91"/>
<polygon fill="#63b8ff" stroke="#63b8ff" points="521.59,-418.12 530.32,-412.12 519.76,-411.36 521.59,-418.12"/>
</g>
<!-- Node9 -->
<g id="node9" class="node">
<title>Node9</title>
<g id="a_node9"><a xlink:href="namespacesharp.html#a80858337a63be77bafadbb343d6e4931" target="_top" xlink:title="Computes the Storm Relative Helicity (SRH) over a given layer.">
<polygon fill="white" stroke="#666666" points="449,-375.08 363,-375.08 363,-356.08 449,-356.08 449,-375.08"/>
<text text-anchor="middle" x="406" y="-363.08" font-family="Helvetica,sans-Serif" font-size="10.00">sharp::helicity</text>
</a>
</g>
</g>
<!-- Node3&#45;&gt;Node9 -->
<g id="edge9" class="edge">
<title>Node3&#45;&gt;Node9</title>
<path fill="none" stroke="#63b8ff" d="M514.71,-390.72C493.14,-385.69 468.32,-379.9 447.95,-375.14"/>
<polygon fill="#63b8ff" stroke="#63b8ff" points="514.15,-394.19 524.68,-393.05 515.74,-387.37 514.15,-394.19"/>
</g>
<!-- Node11 -->
<g id="node11" class="node">
<title>Node11</title>
<g id="a_node11"><a xlink:href="namespacesharp.html#a7acec1642f27591dc988bf9e48b4612d" target="_top" xlink:title="Returns a trapezoidal integration of the given layer.">
<polygon fill="white" stroke="#666666" points="468,-300.58 344,-300.58 344,-270.58 468,-270.58 468,-300.58"/>
<text text-anchor="start" x="352" y="-288.58" font-family="Helvetica,sans-Serif" font-size="10.00">sharp::integrate_layer</text>
<text text-anchor="middle" x="406" y="-277.58" font-family="Helvetica,sans-Serif" font-size="10.00">_trapz</text>
</a>
</g>
</g>
<!-- Node3&#45;&gt;Node11 -->
<g id="edge11" class="edge">
<title>Node3&#45;&gt;Node11</title>
<path fill="none" stroke="#63b8ff" d="M551.11,-385.26C533.37,-364.82 501.44,-330.94 468,-309.58 462.82,-306.27 457.11,-303.29 451.33,-300.65"/>
<polygon fill="#63b8ff" stroke="#63b8ff" points="548.45,-387.53 557.61,-392.87 553.78,-382.99 548.45,-387.53"/>
</g>
<!-- Node16 -->
<g id="node16" class="node">
<title>Node16</title>
<g id="a_node16"><a xlink:href="structsharp_1_1Parcel.html#a1bf670e79f35a1ce8c904b7ead32ccbe" target="_top" xlink:title="Construct and return a mixed&#45;layer Parcel.">
<polygon fill="white" stroke="#666666" points="126.5,-474.58 11.5,-474.58 11.5,-444.58 126.5,-444.58 126.5,-474.58"/>
<text text-anchor="start" x="19.5" y="-462.58" font-family="Helvetica,sans-Serif" font-size="10.00">sharp::Parcel::mixed</text>
<text text-anchor="middle" x="69" y="-451.58" font-family="Helvetica,sans-Serif" font-size="10.00">_layer_parcel</text>
</a>
</g>
</g>
<!-- Node3&#45;&gt;Node16 -->
<g id="edge25" class="edge">
<title>Node3&#45;&gt;Node16</title>
<path fill="none" stroke="#63b8ff" d="M561.02,-422.4C551.39,-459.73 524.83,-539.66 468,-572.58 354.93,-638.08 293.66,-625.08 174,-572.58 127.85,-552.34 93.16,-500.39 78.16,-474.59"/>
<polygon fill="#63b8ff" stroke="#63b8ff" points="564.52,-422.83 563.48,-412.28 557.72,-421.17 564.52,-422.83"/>
</g>
<!-- Node17 -->
<g id="node17" class="node">
<title>Node17</title>
<g id="a_node17"><a xlink:href="namespacesharp.html#a43a01274768ee388a983046651a230d3" target="_top" xlink:title="compute the lapse rate over the given sharp::HeightLayer (AGL)">
<polygon fill="white" stroke="#666666" points="456.5,-498.08 355.5,-498.08 355.5,-479.08 456.5,-479.08 456.5,-498.08"/>
<text text-anchor="middle" x="406" y="-486.08" font-family="Helvetica,sans-Serif" font-size="10.00">sharp::lapse_rate</text>
</a>
</g>
</g>
<!-- Node3&#45;&gt;Node17 -->
<g id="edge19" class="edge">
<title>Node3&#45;&gt;Node17</title>
<path fill="none" stroke="#63b8ff" d="M546.03,-418.58C527.09,-433.5 497,-455.5 468,-469.58 460.42,-473.26 451.96,-476.43 443.82,-479.07"/>
<polygon fill="#63b8ff" stroke="#63b8ff" points="548.29,-421.26 553.91,-412.28 543.91,-415.8 548.29,-421.26"/>
</g>
<!-- Node20 -->
<g id="node20" class="node">
<title>Node20</title>
<g id="a_node20"><a xlink:href="namespacesharp.html#a646b65095b84511b75f6a4a81e545e80" target="_top" xlink:title="Template for min/max value over sharp::PressureLayer or sharp::HeightLayer.">
<polygon fill="white" stroke="#666666" points="466,-412.08 346,-412.08 346,-393.08 466,-393.08 466,-412.08"/>
<text text-anchor="middle" x="406" y="-400.08" font-family="Helvetica,sans-Serif" font-size="10.00">sharp::layer_minmax</text>
</a>
</g>
</g>
<!-- Node3&#45;&gt;Node20 -->
<g id="edge22" class="edge">
<title>Node3&#45;&gt;Node20</title>
<path fill="none" stroke="#63b8ff" d="M498.87,-402.58C487.99,-402.58 476.78,-402.58 466.1,-402.58"/>
<polygon fill="#63b8ff" stroke="#63b8ff" points="499.17,-406.08 509.17,-402.58 499.17,-399.08 499.17,-406.08"/>
</g>
<!-- Node23 -->
<g id="node23" class="node">
<title>Node23</title>
<g id="a_node23"><a xlink:href="namespacesharp.html#a099a4575acc27d6e10f9dfb69bc315a1" target="_top" xlink:title="Compue the wind shear for a given layer.">
<polygon fill="white" stroke="#666666" points="458.5,-338.08 353.5,-338.08 353.5,-319.08 458.5,-319.08 458.5,-338.08"/>
<text text-anchor="middle" x="406" y="-326.08" font-family="Helvetica,sans-Serif" font-size="10.00">sharp::wind_shear</text>
</a>
</g>
</g>
<!-- Node3&#45;&gt;Node23 -->
<g id="edge26" class="edge">
<title>Node3&#45;&gt;Node23</title>
<path fill="none" stroke="#63b8ff" d="M542.79,-387.49C523.52,-375.19 494.8,-358.04 468,-346.58 460.59,-343.41 452.44,-340.59 444.59,-338.17"/>
<polygon fill="#63b8ff" stroke="#63b8ff" points="540.89,-390.43 551.19,-392.93 544.7,-384.55 540.89,-390.43"/>
</g>
<!-- Node6 -->
<g id="node6" class="node">
<title>Node6</title>
<g id="a_node6"><a xlink:href="namespacesharp.html#aa0726266b4777806bae4e8054e01684c" target="_top" xlink:title="Computes the mass&#45;weighted mean value of a field over a given height layer.">
<polygon fill="white" stroke="#666666" points="294.5,-493.08 187.5,-493.08 187.5,-474.08 294.5,-474.08 294.5,-493.08"/>
<text text-anchor="middle" x="241" y="-481.08" font-family="Helvetica,sans-Serif" font-size="10.00">sharp::layer_mean</text>
</a>
</g>
</g>
<!-- Node5&#45;&gt;Node6 -->
<g id="edge5" class="edge">
<title>Node5&#45;&gt;Node6</title>
<path fill="none" stroke="#63b8ff" d="M340.96,-460.51C321.41,-465.07 300.46,-469.95 282.89,-474.05"/>
<polygon fill="#63b8ff" stroke="#63b8ff" points="341.78,-463.91 350.72,-458.23 340.19,-457.1 341.78,-463.91"/>
</g>
<!-- Node7 -->
<g id="node7" class="node">
<title>Node7</title>
<g id="a_node7"><a xlink:href="namespacesharp.html#a74a735636c932467b4d2ced544e0cb51" target="_top" xlink:title="Estimates supercell storm motion using the Bunkers et al. 2000 method.">
<polygon fill="white" stroke="#666666" points="300,-257.58 182,-257.58 182,-227.58 300,-227.58 300,-257.58"/>
<text text-anchor="start" x="190" y="-245.58" font-family="Helvetica,sans-Serif" font-size="10.00">sharp::storm_motion</text>
<text text-anchor="middle" x="241" y="-234.58" font-family="Helvetica,sans-Serif" font-size="10.00">_bunkers</text>
</a>
</g>
</g>
<!-- Node5&#45;&gt;Node7 -->
<g id="edge6" class="edge">
<title>Node5&#45;&gt;Node7</title>
<path fill="none" stroke="#63b8ff" d="M346.8,-424.36C345.83,-423.47 344.89,-422.54 344,-421.58 307.03,-381.67 336.79,-350.75 308,-304.58 296.35,-285.9 277.71,-269.11 263.2,-257.73"/>
<polygon fill="#63b8ff" stroke="#63b8ff" points="344.81,-427.24 354.9,-430.47 349.03,-421.65 344.81,-427.24"/>
</g>
<!-- Node7&#45;&gt;Node4 -->
<g id="edge7" class="edge">
<title>Node7&#45;&gt;Node4</title>
<path fill="none" stroke="#63b8ff" d="M171.87,-250.2C160.72,-251.44 149.17,-252.73 138.02,-253.98"/>
<polygon fill="#63b8ff" stroke="#63b8ff" points="172.42,-253.66 181.97,-249.07 171.64,-246.7 172.42,-253.66"/>
</g>
<!-- Node8 -->
<g id="node8" class="node">
<title>Node8</title>
<g id="a_node8"><a xlink:href="namespacesharp.html#ab31d383a3231f8fef873e5a16c0db856" target="_top" xlink:title="Estimates supercell storm motion by using the Bunkers et al. 2014 method.">
<polygon fill="white" stroke="#666666" points="128,-52.58 10,-52.58 10,-22.58 128,-22.58 128,-52.58"/>
<text text-anchor="start" x="18" y="-40.58" font-family="Helvetica,sans-Serif" font-size="10.00">sharp::storm_motion</text>
<text text-anchor="middle" x="69" y="-29.58" font-family="Helvetica,sans-Serif" font-size="10.00">_bunkers</text>
</a>
</g>
</g>
<!-- Node7&#45;&gt;Node8 -->
<g id="edge8" class="edge">
<title>Node7&#45;&gt;Node8</title>
<path fill="none" stroke="#63b8ff" d="M177.71,-221.37C176.41,-220.18 175.16,-218.91 174,-217.58 127.2,-163.98 185.41,-114.64 138,-61.58 134.91,-58.13 131.3,-55.17 127.37,-52.64"/>
<polygon fill="#63b8ff" stroke="#63b8ff" points="175.75,-224.27 185.84,-227.51 179.97,-218.69 175.75,-224.27"/>
</g>
<!-- Node10 -->
<g id="node10" class="node">
<title>Node10</title>
<g id="a_node10"><a xlink:href="namespacesharp.html#ab89a7e3555a52f0fd9f4086d5aba7037" target="_top" xlink:title=" ">
<polygon fill="white" stroke="#666666" points="303.5,-381.58 178.5,-381.58 178.5,-351.58 303.5,-351.58 303.5,-381.58"/>
<text text-anchor="start" x="186.5" y="-369.58" font-family="Helvetica,sans-Serif" font-size="10.00">sharp::energy_helicity</text>
<text text-anchor="middle" x="241" y="-358.58" font-family="Helvetica,sans-Serif" font-size="10.00">_index</text>
</a>
</g>
</g>
<!-- Node9&#45;&gt;Node10 -->
<g id="edge10" class="edge">
<title>Node9&#45;&gt;Node10</title>
<path fill="none" stroke="#63b8ff" d="M352.59,-365.9C336.96,-366 319.69,-366.1 303.53,-366.2"/>
<polygon fill="#63b8ff" stroke="#63b8ff" points="352.62,-369.4 362.6,-365.84 352.58,-362.4 352.62,-369.4"/>
</g>
<!-- Node11&#45;&gt;Node4 -->
<g id="edge15" class="edge">
<title>Node11&#45;&gt;Node4</title>
<path fill="none" stroke="#63b8ff" d="M333.8,-280.48C276.01,-276.34 195.07,-270.54 138.13,-266.46"/>
<polygon fill="#63b8ff" stroke="#63b8ff" points="333.72,-283.98 343.95,-281.21 334.22,-277 333.72,-283.98"/>
</g>
<!-- Node12 -->
<g id="node12" class="node">
<title>Node12</title>
<g id="a_node12"><a xlink:href="structsharp_1_1Parcel.html#a0560bd193b2d2d6bc6b08baa7463fba4" target="_top" xlink:title="Compute CAPE and CINH for a previously lifted sharp::Parcel.">
<polygon fill="white" stroke="#666666" points="308,-95.08 174,-95.08 174,-76.08 308,-76.08 308,-95.08"/>
<text text-anchor="middle" x="241" y="-83.08" font-family="Helvetica,sans-Serif" font-size="10.00">sharp::Parcel::cape_cinh</text>
</a>
</g>
</g>
<!-- Node11&#45;&gt;Node12 -->
<g id="edge12" class="edge">
<title>Node11&#45;&gt;Node12</title>
<path fill="none" stroke="#63b8ff" d="M348.7,-264.65C347.06,-263.37 345.48,-262.01 344,-260.58 315.97,-233.48 327.2,-214.51 308,-180.58 289.4,-147.72 262.53,-111.89 249.56,-95.17"/>
<polygon fill="#63b8ff" stroke="#63b8ff" points="347.18,-267.84 357.45,-270.45 351.05,-262.01 347.18,-267.84"/>
</g>
<!-- Node15 -->
<g id="node15" class="node">
<title>Node15</title>
<g id="a_node15"><a xlink:href="namespacesharp.html#a298e2c96c389f2c5177d3626c908927e" target="_top" xlink:title="Computes the mass&#45;weighted mean value of a field over a given pressure layer.">
<polygon fill="white" stroke="#666666" points="294.5,-333.08 187.5,-333.08 187.5,-314.08 294.5,-314.08 294.5,-333.08"/>
<text text-anchor="middle" x="241" y="-321.08" font-family="Helvetica,sans-Serif" font-size="10.00">sharp::layer_mean</text>
</a>
</g>
</g>
<!-- Node11&#45;&gt;Node15 -->
<g id="edge16" class="edge">
<title>Node11&#45;&gt;Node15</title>
<path fill="none" stroke="#63b8ff" d="M333.76,-302.19C316.48,-306.22 298.57,-310.39 283.21,-313.97"/>
<polygon fill="#63b8ff" stroke="#63b8ff" points="334.9,-305.52 343.84,-299.84 333.31,-298.7 334.9,-305.52"/>
</g>
<!-- Node13 -->
<g id="node13" class="node">
<title>Node13</title>
<g id="a_node13"><a xlink:href="namespacesharp.html#a2e6b7cd4a3594a8f2c2050b0e4784cce" target="_top" xlink:title="Computes the Effective Inflow Layer for a given atmospheric sounding.">
<polygon fill="white" stroke="#666666" points="132.5,-148.58 5.5,-148.58 5.5,-118.58 132.5,-118.58 132.5,-148.58"/>
<text text-anchor="start" x="13.5" y="-136.58" font-family="Helvetica,sans-Serif" font-size="10.00">sharp::effective_inflow</text>
<text text-anchor="middle" x="69" y="-125.58" font-family="Helvetica,sans-Serif" font-size="10.00">_layer</text>
</a>
</g>
</g>
<!-- Node12&#45;&gt;Node13 -->
<g id="edge13" class="edge">
<title>Node12&#45;&gt;Node13</title>
<path fill="none" stroke="#63b8ff" d="M196.18,-97.95C173.95,-104.23 146.78,-111.9 123.35,-118.52"/>
<polygon fill="#63b8ff" stroke="#63b8ff" points="197.33,-101.26 206.01,-95.18 195.43,-94.53 197.33,-101.26"/>
</g>
<!-- Node14 -->
<g id="node14" class="node">
<title>Node14</title>
<g id="a_node14"><a xlink:href="structsharp_1_1Parcel.html#aa258d27992d22d8b80cb221e6e2a6c19" target="_top" xlink:title="Construct and return a most&#45;unstable Parcel.">
<polygon fill="white" stroke="#666666" points="124,-100.58 14,-100.58 14,-70.58 124,-70.58 124,-100.58"/>
<text text-anchor="start" x="22" y="-88.58" font-family="Helvetica,sans-Serif" font-size="10.00">sharp::Parcel::most</text>
<text text-anchor="middle" x="69" y="-77.58" font-family="Helvetica,sans-Serif" font-size="10.00">_unstable_parcel</text>
</a>
</g>
</g>
<!-- Node12&#45;&gt;Node14 -->
<g id="edge14" class="edge">
<title>Node12&#45;&gt;Node14</title>
<path fill="none" stroke="#63b8ff" d="M163.69,-85.58C150.38,-85.58 136.79,-85.58 124.23,-85.58"/>
<polygon fill="#63b8ff" stroke="#63b8ff" points="163.79,-89.08 173.79,-85.58 163.79,-82.08 163.79,-89.08"/>
</g>
<!-- Node15&#45;&gt;Node4 -->
<g id="edge17" class="edge">
<title>Node15&#45;&gt;Node4</title>
<path fill="none" stroke="#63b8ff" d="M204.2,-310.57C194.41,-307.01 183.79,-303.15 174,-299.58 147.45,-289.9 117.1,-278.81 96.07,-271.12"/>
<polygon fill="#63b8ff" stroke="#63b8ff" points="203.07,-313.89 213.66,-314.01 205.46,-307.31 203.07,-313.89"/>
</g>
<!-- Node15&#45;&gt;Node16 -->
<g id="edge18" class="edge">
<title>Node15&#45;&gt;Node16</title>
<path fill="none" stroke="#63b8ff" d="M184.71,-336.89C180.97,-338.57 177.37,-340.46 174,-342.58 131,-369.67 95.33,-419.61 79.22,-444.57"/>
<polygon fill="#63b8ff" stroke="#63b8ff" points="186.18,-340.07 194.17,-333.11 183.58,-333.57 186.18,-340.07"/>
</g>
<!-- Node18 -->
<g id="node18" class="node">
<title>Node18</title>
<g id="a_node18"><a xlink:href="namespacesharp.html#aa4e86da659bfca2eae1f0baddb84a303" target="_top" xlink:title="compute the lapse rate over the given sharp::PressureLayer">
<polygon fill="white" stroke="#666666" points="291.5,-209.08 190.5,-209.08 190.5,-190.08 291.5,-190.08 291.5,-209.08"/>
<text text-anchor="middle" x="241" y="-197.08" font-family="Helvetica,sans-Serif" font-size="10.00">sharp::lapse_rate</text>
</a>
</g>
</g>
<!-- Node17&#45;&gt;Node18 -->
<g id="edge20" class="edge">
<title>Node17&#45;&gt;Node18</title>
<path fill="none" stroke="#63b8ff" d="M347.67,-473.32C346.37,-472.16 345.14,-470.92 344,-469.58 270.91,-383.8 382.01,-303.57 308,-218.58 303.54,-213.46 297.79,-209.67 291.55,-206.88"/>
<polygon fill="#63b8ff" stroke="#63b8ff" points="345.68,-476.19 355.88,-479.04 349.68,-470.45 345.68,-476.19"/>
</g>
<!-- Node19 -->
<g id="node19" class="node">
<title>Node19</title>
<g id="a_node19"><a xlink:href="namespacesharp.html#abd0d1a28608e145c455ace03e787e33b" target="_top" xlink:title="Find the maximum lapse rate within a specified layer/depth (AGL).">
<polygon fill="white" stroke="#666666" points="305,-530.08 177,-530.08 177,-511.08 305,-511.08 305,-530.08"/>
<text text-anchor="middle" x="241" y="-518.08" font-family="Helvetica,sans-Serif" font-size="10.00">sharp::lapse_rate_max</text>
</a>
</g>
</g>
<!-- Node17&#45;&gt;Node19 -->
<g id="edge21" class="edge">
<title>Node17&#45;&gt;Node19</title>
<path fill="none" stroke="#63b8ff" d="M346.54,-500.06C328.19,-503.66 308.15,-507.6 290.56,-511.05"/>
<polygon fill="#63b8ff" stroke="#63b8ff" points="347.4,-503.46 356.54,-498.1 346.05,-496.59 347.4,-503.46"/>
</g>
<!-- Node21 -->
<g id="node21" class="node">
<title>Node21</title>
<g id="a_node21"><a xlink:href="namespacesharp.html#a6170e3f412ab95b3ba8d9a93ae55dc67" target="_top" xlink:title="Returns the maximim value in the given layer.">
<polygon fill="white" stroke="#666666" points="291.5,-419.08 190.5,-419.08 190.5,-400.08 291.5,-400.08 291.5,-419.08"/>
<text text-anchor="middle" x="241" y="-407.08" font-family="Helvetica,sans-Serif" font-size="10.00">sharp::layer_max</text>
</a>
</g>
</g>
<!-- Node20&#45;&gt;Node21 -->
<g id="edge23" class="edge">
<title>Node20&#45;&gt;Node21</title>
<path fill="none" stroke="#63b8ff" d="M335.57,-405.56C320.79,-406.2 305.47,-406.85 291.61,-407.45"/>
<polygon fill="#63b8ff" stroke="#63b8ff" points="335.85,-409.05 345.69,-405.13 335.55,-402.06 335.85,-409.05"/>
</g>
<!-- Node22 -->
<g id="node22" class="node">
<title>Node22</title>
<g id="a_node22"><a xlink:href="namespacesharp.html#a01a9880c937f63e551893797253da4f7" target="_top" xlink:title="Returns the minimum value in the given layer.">
<polygon fill="white" stroke="#666666" points="290,-456.08 192,-456.08 192,-437.08 290,-437.08 290,-456.08"/>
<text text-anchor="middle" x="241" y="-444.08" font-family="Helvetica,sans-Serif" font-size="10.00">sharp::layer_min</text>
</a>
</g>
</g>
<!-- Node20&#45;&gt;Node22 -->
<g id="edge24" class="edge">
<title>Node20&#45;&gt;Node22</title>
<path fill="none" stroke="#63b8ff" d="M359.97,-414.74C333.89,-421.78 301.53,-430.51 277.3,-437.05"/>
<polygon fill="#63b8ff" stroke="#63b8ff" points="360.89,-418.11 369.63,-412.13 359.06,-411.36 360.89,-418.11"/>
</g>
<!-- Node24&#45;&gt;Node4 -->
<g id="edge28" class="edge">
<title>Node24&#45;&gt;Node4</title>
<path fill="none" stroke="#63b8ff" d="M540.67,-250.14C477.92,-215.6 308.45,-134.4 174,-180.58 132.23,-194.93 94.33,-233.68 78.21,-251.89"/>
<polygon fill="#63b8ff" stroke="#63b8ff" points="539.03,-253.24 549.47,-255.07 542.45,-247.13 539.03,-253.24"/>
</g>
<!-- Node24&#45;&gt;Node8 -->
<g id="edge41" class="edge">
<title>Node24&#45;&gt;Node8</title>
<path fill="none" stroke="#63b8ff" d="M563.14,-244.68C556.79,-200.85 534.99,-96.1 468,-48.58 363.7,25.41 202.3,-1.79 120.79,-22.58"/>
<polygon fill="#63b8ff" stroke="#63b8ff" points="559.68,-245.21 564.47,-254.67 566.62,-244.29 559.68,-245.21"/>
</g>
<!-- Node24&#45;&gt;Node9 -->
<g id="edge31" class="edge">
<title>Node24&#45;&gt;Node9</title>
<path fill="none" stroke="#63b8ff" d="M549.6,-281.49C531.46,-299.89 500.11,-329.01 468,-346.58 461.09,-350.36 453.32,-353.51 445.7,-356.08"/>
<polygon fill="#63b8ff" stroke="#63b8ff" points="552.31,-283.72 556.75,-274.1 547.28,-278.85 552.31,-283.72"/>
</g>
<!-- Node24&#45;&gt;Node11 -->
<g id="edge32" class="edge">
<title>Node24&#45;&gt;Node11</title>
<path fill="none" stroke="#63b8ff" d="M493.76,-274.09C485.17,-275.22 476.46,-276.38 468.04,-277.49"/>
<polygon fill="#63b8ff" stroke="#63b8ff" points="494.31,-277.54 503.77,-272.76 493.39,-270.6 494.31,-277.54"/>
</g>
<!-- Node24&#45;&gt;Node20 -->
<g id="edge33" class="edge">
<title>Node24&#45;&gt;Node20</title>
<path fill="none" stroke="#63b8ff" d="M555.23,-283.34C539.76,-309.82 508.01,-357.92 468,-384.58 462.85,-388.01 457.04,-390.8 451.1,-393.07"/>
<polygon fill="#63b8ff" stroke="#63b8ff" points="558.45,-284.76 560.34,-274.33 552.36,-281.3 558.45,-284.76"/>
</g>
<!-- Node24&#45;&gt;Node23 -->
<g id="edge42" class="edge">
<title>Node24&#45;&gt;Node23</title>
<path fill="none" stroke="#63b8ff" d="M537.64,-278.62C518.37,-288.04 491.97,-300.36 468,-309.58 459.2,-312.97 449.52,-316.2 440.51,-319"/>
<polygon fill="#63b8ff" stroke="#63b8ff" points="539.34,-281.68 546.76,-274.12 536.24,-275.41 539.34,-281.68"/>
</g>
<!-- Node25 -->
<g id="node25" class="node">
<title>Node25</title>
<g id="a_node25"><a xlink:href="structsharp_1_1Parcel.html#a8a311e09b1d46a829212da94cf181537" target="_top" xlink:title="Find the LFC and EL that bounds the layer with the maximum CAPE.">
<polygon fill="white" stroke="#666666" points="457.5,-87.58 354.5,-87.58 354.5,-57.58 457.5,-57.58 457.5,-87.58"/>
<text text-anchor="start" x="362.5" y="-75.58" font-family="Helvetica,sans-Serif" font-size="10.00">sharp::Parcel::find</text>
<text text-anchor="middle" x="406" y="-64.58" font-family="Helvetica,sans-Serif" font-size="10.00">_lfc_el</text>
</a>
</g>
</g>
<!-- Node24&#45;&gt;Node25 -->
<g id="edge29" class="edge">
<title>Node24&#45;&gt;Node25</title>
<path fill="none" stroke="#63b8ff" d="M558.99,-244.89C546.6,-210.27 516.47,-138.23 468,-96.58 464.03,-93.17 459.52,-90.21 454.78,-87.65"/>
<polygon fill="#63b8ff" stroke="#63b8ff" points="555.82,-246.42 562.39,-254.73 562.43,-244.13 555.82,-246.42"/>
</g>
<!-- Node26 -->
<g id="node26" class="node">
<title>Node26</title>
<g id="a_node26"><a xlink:href="namespacesharp.html#a3c8b9022103d067f30281d68fa81cbda" target="_top" xlink:title="Compute the mean wind over the given sharp::PressureLayer.">
<polygon fill="white" stroke="#666666" points="459,-252.08 353,-252.08 353,-233.08 459,-233.08 459,-252.08"/>
<text text-anchor="middle" x="406" y="-240.08" font-family="Helvetica,sans-Serif" font-size="10.00">sharp::mean_wind</text>
</a>
</g>
</g>
<!-- Node24&#45;&gt;Node26 -->
<g id="edge34" class="edge">
<title>Node24&#45;&gt;Node26</title>
<path fill="none" stroke="#63b8ff" d="M493.62,-254.6C481.97,-252.99 470.12,-251.34 459.07,-249.81"/>
<polygon fill="#63b8ff" stroke="#63b8ff" points="493.38,-258.1 503.77,-256.01 494.34,-251.17 493.38,-258.1"/>
</g>
<!-- Node27 -->
<g id="node27" class="node">
<title>Node27</title>
<g id="a_node27"><a xlink:href="namespacesharp.html#a31da980f398c9f6a5960ddf868101a94" target="_top" xlink:title="Converts a sharp::PressureLayer to a sharp::HeightLayer.">
<polygon fill="white" stroke="#666666" points="467,-135.58 345,-135.58 345,-105.58 467,-105.58 467,-135.58"/>
<text text-anchor="start" x="353" y="-123.58" font-family="Helvetica,sans-Serif" font-size="10.00">sharp::pressure_layer</text>
<text text-anchor="middle" x="406" y="-112.58" font-family="Helvetica,sans-Serif" font-size="10.00">_to_height</text>
</a>
</g>
</g>
<!-- Node24&#45;&gt;Node27 -->
<g id="edge36" class="edge">
<title>Node24&#45;&gt;Node27</title>
<path fill="none" stroke="#63b8ff" d="M553.96,-246.7C537.4,-222.16 504.79,-177.88 468,-149.58 461.12,-144.29 453.12,-139.64 445.23,-135.69"/>
<polygon fill="#63b8ff" stroke="#63b8ff" points="551.06,-248.66 559.5,-255.06 556.9,-244.79 551.06,-248.66"/>
</g>
<!-- Node25&#45;&gt;Node12 -->
<g id="edge30" class="edge">
<title>Node25&#45;&gt;Node12</title>
<path fill="none" stroke="#63b8ff" d="M344.2,-77.43C332.47,-78.37 320.14,-79.35 308.25,-80.3"/>
<polygon fill="#63b8ff" stroke="#63b8ff" points="344.63,-80.91 354.32,-76.62 344.07,-73.93 344.63,-80.91"/>
</g>
<!-- Node26&#45;&gt;Node7 -->
<g id="edge35" class="edge">
<title>Node26&#45;&gt;Node7</title>
<path fill="none" stroke="#63b8ff" d="M342.9,-242.58C328.82,-242.58 313.93,-242.58 300.03,-242.58"/>
<polygon fill="#63b8ff" stroke="#63b8ff" points="342.98,-246.08 352.98,-242.58 342.98,-239.08 342.98,-246.08"/>
</g>
<!-- Node27&#45;&gt;Node4 -->
<g id="edge38" class="edge">
<title>Node27&#45;&gt;Node4</title>
<path fill="none" stroke="#63b8ff" d="M334.49,-116.3C286.73,-116.31 223.54,-122.18 174,-147.58 125.85,-172.27 88.93,-228.98 75.5,-251.8"/>
<polygon fill="#63b8ff" stroke="#63b8ff" points="334.71,-119.8 344.74,-116.38 334.77,-112.8 334.71,-119.8"/>
</g>
<!-- Node27&#45;&gt;Node8 -->
<g id="edge40" class="edge">
<title>Node27&#45;&gt;Node8</title>
<path fill="none" stroke="#63b8ff" d="M352.28,-101.1C349.43,-99.66 346.66,-98.15 344,-96.58 326.08,-85.97 327.12,-74.84 308,-66.58 250.31,-41.64 177.87,-36.03 128.15,-35.63"/>
<polygon fill="#63b8ff" stroke="#63b8ff" points="350.98,-104.36 361.52,-105.47 353.97,-98.03 350.98,-104.36"/>
</g>
<!-- Node27&#45;&gt;Node12 -->
<g id="edge37" class="edge">
<title>Node27&#45;&gt;Node12</title>
<path fill="none" stroke="#63b8ff" d="M334.68,-105.48C318.31,-101.97 301.33,-98.32 286.45,-95.12"/>
<polygon fill="#63b8ff" stroke="#63b8ff" points="334.26,-108.97 344.77,-107.65 335.73,-102.13 334.26,-108.97"/>
</g>
<!-- Node27&#45;&gt;Node18 -->
<g id="edge39" class="edge">
<title>Node27&#45;&gt;Node18</title>
<path fill="none" stroke="#63b8ff" d="M364.63,-140.15C331.85,-156.03 287.04,-177.75 261.66,-190.05"/>
<polygon fill="#63b8ff" stroke="#63b8ff" points="366.48,-143.14 373.96,-135.63 363.43,-136.84 366.48,-143.14"/>
</g>
</g>
</svg>
