<?xml version="1.0" encoding="UTF-8" standalone="no"?>
<!DOCTYPE svg PUBLIC "-//W3C//DTD SVG 1.1//EN"
 "http://www.w3.org/Graphics/SVG/1.1/DTD/svg11.dtd">
<!-- Generated by graphviz version 2.43.0 (0)
 -->
<!-- Title: sharp::interp_height Pages: 1 -->
<svg width="842pt" height="911pt"
 viewBox="0.00 0.00 842.00 911.00" xmlns="http://www.w3.org/2000/svg" xmlns:xlink="http://www.w3.org/1999/xlink">
<g id="graph0" class="graph" transform="scale(1 1) rotate(0) translate(4 907)">
<title>sharp::interp_height</title>
<!-- Node1 -->
<g id="node1" class="node">
<title>Node1</title>
<g id="a_node1"><a xlink:title="Linearly interpolate a data field to a requested height level.">
<polygon fill="#999999" stroke="#666666" points="834,-397.5 720,-397.5 720,-378.5 834,-378.5 834,-397.5"/>
<text text-anchor="middle" x="777" y="-385.5" font-family="Helvetica,sans-Serif" font-size="10.00">sharp::interp_height</text>
</a>
</g>
</g>
<!-- Node2 -->
<g id="node2" class="node">
<title>Node2</title>
<g id="a_node2"><a xlink:href="namespacesharp.html#a72bbdc4cfe7895dd51981902ac9fc822" target="_top" xlink:title="Computes Entrainment CAPE using a previously lifted parcel.">
<polygon fill="white" stroke="#666666" points="317.5,-695.5 179.5,-695.5 179.5,-676.5 317.5,-676.5 317.5,-695.5"/>
<text text-anchor="middle" x="248.5" y="-683.5" font-family="Helvetica,sans-Serif" font-size="10.00">sharp::entrainment_cape</text>
</a>
</g>
</g>
<!-- Node1&#45;&gt;Node2 -->
<g id="edge1" class="edge">
<title>Node1&#45;&gt;Node2</title>
<path fill="none" stroke="#63b8ff" d="M771.48,-407.74C761.59,-447.29 734.73,-537.39 684,-595 629.04,-657.41 604.09,-669.62 524,-692 447.56,-713.36 354.44,-704.4 298.67,-695.52"/>
<polygon fill="#63b8ff" stroke="#63b8ff" points="774.94,-408.33 773.87,-397.79 768.13,-406.69 774.94,-408.33"/>
</g>
<!-- Node4 -->
<g id="node4" class="node">
<title>Node4</title>
<g id="a_node4"><a xlink:href="namespacesharp.html#ab77e344c7462c9615b0ddac228bc2193" target="_top" xlink:title="Converts a sharp::HeightLayer to a sharp::PressureLayer.">
<polygon fill="white" stroke="#666666" points="677,-788 567,-788 567,-758 677,-758 677,-788"/>
<text text-anchor="start" x="575" y="-776" font-family="Helvetica,sans-Serif" font-size="10.00">sharp::height_layer</text>
<text text-anchor="middle" x="622" y="-765" font-family="Helvetica,sans-Serif" font-size="10.00">_to_pressure</text>
</a>
</g>
</g>
<!-- Node1&#45;&gt;Node4 -->
<g id="edge3" class="edge">
<title>Node1&#45;&gt;Node4</title>
<path fill="none" stroke="#63b8ff" d="M774.87,-407.86C770.9,-462.81 753.75,-619.75 684,-725 675.14,-738.37 661.34,-749.68 649.1,-757.96"/>
<polygon fill="#63b8ff" stroke="#63b8ff" points="778.37,-407.94 775.53,-397.74 771.39,-407.49 778.37,-407.94"/>
</g>
<!-- Node11 -->
<g id="node11" class="node">
<title>Node11</title>
<g id="a_node11"><a xlink:href="namespacesharp.html#a80858337a63be77bafadbb343d6e4931" target="_top" xlink:title="Computes the Storm Relative Helicity (SRH) over a given layer.">
<polygon fill="white" stroke="#666666" points="665,-397.5 579,-397.5 579,-378.5 665,-378.5 665,-397.5"/>
<text text-anchor="middle" x="622" y="-385.5" font-family="Helvetica,sans-Serif" font-size="10.00">sharp::helicity</text>
</a>
</g>
</g>
<!-- Node1&#45;&gt;Node11 -->
<g id="edge11" class="edge">
<title>Node1&#45;&gt;Node11</title>
<path fill="none" stroke="#63b8ff" d="M709.58,-388C694.52,-388 678.93,-388 665.19,-388"/>
<polygon fill="#63b8ff" stroke="#63b8ff" points="709.9,-391.5 719.9,-388 709.9,-384.5 709.9,-391.5"/>
</g>
<!-- Node16 -->
<g id="node16" class="node">
<title>Node16</title>
<g id="a_node16"><a xlink:href="namespacesharp.html#a7acec1642f27591dc988bf9e48b4612d" target="_top" xlink:title="Returns a trapezoidal integration of the given layer.">
<polygon fill="white" stroke="#666666" points="684,-586 560,-586 560,-556 684,-556 684,-586"/>
<text text-anchor="start" x="568" y="-574" font-family="Helvetica,sans-Serif" font-size="10.00">sharp::integrate_layer</text>
<text text-anchor="middle" x="622" y="-563" font-family="Helvetica,sans-Serif" font-size="10.00">_trapz</text>
</a>
</g>
</g>
<!-- Node1&#45;&gt;Node16 -->
<g id="edge16" class="edge">
<title>Node1&#45;&gt;Node16</title>
<path fill="none" stroke="#63b8ff" d="M766.37,-406.56C751.3,-434.51 720.1,-488.14 684,-526 673.19,-537.33 659.25,-547.85 647.43,-555.87"/>
<polygon fill="#63b8ff" stroke="#63b8ff" points="769.58,-407.98 771.17,-397.51 763.4,-404.7 769.58,-407.98"/>
</g>
<!-- Node22 -->
<g id="node22" class="node">
<title>Node22</title>
<g id="a_node22"><a xlink:href="structsharp_1_1Parcel.html#a1bf670e79f35a1ce8c904b7ead32ccbe" target="_top" xlink:title="Construct and return a mixed&#45;layer Parcel.">
<polygon fill="white" stroke="#666666" points="306,-559 191,-559 191,-529 306,-529 306,-559"/>
<text text-anchor="start" x="199" y="-547" font-family="Helvetica,sans-Serif" font-size="10.00">sharp::Parcel::mixed</text>
<text text-anchor="middle" x="248.5" y="-536" font-family="Helvetica,sans-Serif" font-size="10.00">_layer_parcel</text>
</a>
</g>
</g>
<!-- Node1&#45;&gt;Node22 -->
<g id="edge41" class="edge">
<title>Node1&#45;&gt;Node22</title>
<path fill="none" stroke="#63b8ff" d="M747.88,-402.03C702.07,-424.36 607.97,-468.01 524,-493 450.13,-514.98 362.13,-529.33 306.05,-537.05"/>
<polygon fill="#63b8ff" stroke="#63b8ff" points="749.47,-405.15 756.91,-397.61 746.39,-398.87 749.47,-405.15"/>
</g>
<!-- Node27 -->
<g id="node27" class="node">
<title>Node27</title>
<g id="a_node27"><a xlink:href="namespacesharp.html#a43a01274768ee388a983046651a230d3" target="_top" xlink:title="compute the lapse rate over the given sharp::HeightLayer (AGL)">
<polygon fill="white" stroke="#666666" points="672.5,-263.5 571.5,-263.5 571.5,-244.5 672.5,-244.5 672.5,-263.5"/>
<text text-anchor="middle" x="622" y="-251.5" font-family="Helvetica,sans-Serif" font-size="10.00">sharp::lapse_rate</text>
</a>
</g>
</g>
<!-- Node1&#45;&gt;Node27 -->
<g id="edge29" class="edge">
<title>Node1&#45;&gt;Node27</title>
<path fill="none" stroke="#63b8ff" d="M757.16,-371.5C724.82,-343.17 659.72,-286.16 633.9,-263.55"/>
<polygon fill="#63b8ff" stroke="#63b8ff" points="755.17,-374.41 765,-378.36 759.78,-369.14 755.17,-374.41"/>
</g>
<!-- Node32 -->
<g id="node32" class="node">
<title>Node32</title>
<g id="a_node32"><a xlink:href="namespacesharp.html#a646b65095b84511b75f6a4a81e545e80" target="_top" xlink:title="Template for min/max value over sharp::PressureLayer or sharp::HeightLayer.">
<polygon fill="white" stroke="#666666" points="682,-189.5 562,-189.5 562,-170.5 682,-170.5 682,-189.5"/>
<text text-anchor="middle" x="622" y="-177.5" font-family="Helvetica,sans-Serif" font-size="10.00">sharp::layer_minmax</text>
</a>
</g>
</g>
<!-- Node1&#45;&gt;Node32 -->
<g id="edge34" class="edge">
<title>Node1&#45;&gt;Node32</title>
<path fill="none" stroke="#63b8ff" d="M766.86,-369.25C751.85,-339.4 720.01,-279.98 684,-236 669.24,-217.98 648.74,-200.34 635.66,-189.82"/>
<polygon fill="#63b8ff" stroke="#63b8ff" points="763.87,-371.09 771.45,-378.5 770.14,-367.98 763.87,-371.09"/>
</g>
<!-- Node39 -->
<g id="node39" class="node">
<title>Node39</title>
<g id="a_node39"><a xlink:href="interp__wrap_8cpp.html#a8f8ceea33348c31a1f0763a3896b8128" target="_top" xlink:title=" ">
<polygon fill="white" stroke="#666666" points="678.5,-152.5 565.5,-152.5 565.5,-133.5 678.5,-133.5 678.5,-152.5"/>
<text text-anchor="middle" x="622" y="-140.5" font-family="Helvetica,sans-Serif" font-size="10.00">sharp_interp_height</text>
</a>
</g>
</g>
<!-- Node1&#45;&gt;Node39 -->
<g id="edge42" class="edge">
<title>Node1&#45;&gt;Node39</title>
<path fill="none" stroke="#63b8ff" d="M773.73,-368.12C767.64,-324.14 746.9,-218.01 684,-161 680.24,-157.59 675.86,-154.82 671.2,-152.58"/>
<polygon fill="#63b8ff" stroke="#63b8ff" points="770.27,-368.64 775.01,-378.11 777.21,-367.75 770.27,-368.64"/>
</g>
<!-- Node40 -->
<g id="node40" class="node">
<title>Node40</title>
<g id="a_node40"><a xlink:href="namespacesharp.html#a099a4575acc27d6e10f9dfb69bc315a1" target="_top" xlink:title="Compue the wind shear for a given layer.">
<polygon fill="white" stroke="#666666" points="674.5,-72.5 569.5,-72.5 569.5,-53.5 674.5,-53.5 674.5,-72.5"/>
<text text-anchor="middle" x="622" y="-60.5" font-family="Helvetica,sans-Serif" font-size="10.00">sharp::wind_shear</text>
</a>
</g>
</g>
<!-- Node1&#45;&gt;Node40 -->
<g id="edge43" class="edge">
<title>Node1&#45;&gt;Node40</title>
<path fill="none" stroke="#63b8ff" d="M772.26,-368.1C762.99,-322.22 735.84,-206.63 684,-124 670.79,-102.94 649.06,-83.54 635.42,-72.51"/>
<polygon fill="#63b8ff" stroke="#63b8ff" points="768.88,-369.06 774.24,-378.2 775.75,-367.71 768.88,-369.06"/>
</g>
<!-- Node3 -->
<g id="node3" class="node">
<title>Node3</title>
<g id="a_node3"><a xlink:href="convective__wrap_8cpp.html#ab0bfb728bbbf3a731c330b61a5c415ad" target="_top" xlink:title=" ">
<polygon fill="white" stroke="#666666" points="137,-695.5 0,-695.5 0,-676.5 137,-676.5 137,-695.5"/>
<text text-anchor="middle" x="68.5" y="-683.5" font-family="Helvetica,sans-Serif" font-size="10.00">sharp_entrainment_cape</text>
</a>
</g>
</g>
<!-- Node2&#45;&gt;Node3 -->
<g id="edge2" class="edge">
<title>Node2&#45;&gt;Node3</title>
<path fill="none" stroke="#63b8ff" d="M169.28,-686C158.6,-686 147.7,-686 137.22,-686"/>
<polygon fill="#63b8ff" stroke="#63b8ff" points="169.44,-689.5 179.44,-686 169.44,-682.5 169.44,-689.5"/>
</g>
<!-- Node5 -->
<g id="node5" class="node">
<title>Node5</title>
<g id="a_node5"><a xlink:href="namespacesharp.html#aa0726266b4777806bae4e8054e01684c" target="_top" xlink:title="Computes the mass&#45;weighted mean value of a field over a given height layer.">
<polygon fill="white" stroke="#666666" points="495.5,-758.5 388.5,-758.5 388.5,-739.5 495.5,-739.5 495.5,-758.5"/>
<text text-anchor="middle" x="442" y="-746.5" font-family="Helvetica,sans-Serif" font-size="10.00">sharp::layer_mean</text>
</a>
</g>
</g>
<!-- Node4&#45;&gt;Node5 -->
<g id="edge4" class="edge">
<title>Node4&#45;&gt;Node5</title>
<path fill="none" stroke="#63b8ff" d="M556.63,-764.32C536.56,-761.61 514.67,-758.66 495.51,-756.08"/>
<polygon fill="#63b8ff" stroke="#63b8ff" points="556.25,-767.8 566.63,-765.67 557.18,-760.86 556.25,-767.8"/>
</g>
<!-- Node6 -->
<g id="node6" class="node">
<title>Node6</title>
<g id="a_node6"><a xlink:href="layer__wrap_8cpp.html#a0e34d4e0b8a26f17698d3151d128fb5d" target="_top" xlink:title=" ">
<polygon fill="white" stroke="#666666" points="503.5,-807 380.5,-807 380.5,-777 503.5,-777 503.5,-807"/>
<text text-anchor="start" x="388.5" y="-795" font-family="Helvetica,sans-Serif" font-size="10.00">sharp_HeightLayer_to</text>
<text text-anchor="middle" x="442" y="-784" font-family="Helvetica,sans-Serif" font-size="10.00">_PressureLayer</text>
</a>
</g>
</g>
<!-- Node4&#45;&gt;Node6 -->
<g id="edge5" class="edge">
<title>Node4&#45;&gt;Node6</title>
<path fill="none" stroke="#63b8ff" d="M556.61,-779.87C539.31,-781.72 520.65,-783.71 503.56,-785.54"/>
<polygon fill="#63b8ff" stroke="#63b8ff" points="557.05,-783.35 566.63,-778.8 556.31,-776.39 557.05,-783.35"/>
</g>
<!-- Node7 -->
<g id="node7" class="node">
<title>Node7</title>
<g id="a_node7"><a xlink:href="namespacesharp.html#a74a735636c932467b4d2ced544e0cb51" target="_top" xlink:title="Estimates supercell storm motion using the Bunkers et al. 2000 method.">
<polygon fill="white" stroke="#666666" points="501,-855 383,-855 383,-825 501,-825 501,-855"/>
<text text-anchor="start" x="391" y="-843" font-family="Helvetica,sans-Serif" font-size="10.00">sharp::storm_motion</text>
<text text-anchor="middle" x="442" y="-832" font-family="Helvetica,sans-Serif" font-size="10.00">_bunkers</text>
</a>
</g>
</g>
<!-- Node4&#45;&gt;Node7 -->
<g id="edge6" class="edge">
<title>Node4&#45;&gt;Node7</title>
<path fill="none" stroke="#63b8ff" d="M580.35,-792.43C563.17,-800.27 542.82,-809.07 524,-816 515.47,-819.14 506.31,-822.17 497.35,-824.95"/>
<polygon fill="#63b8ff" stroke="#63b8ff" points="581.92,-795.55 589.53,-788.19 578.99,-789.2 581.92,-795.55"/>
</g>
<!-- Node7&#45;&gt;Node2 -->
<g id="edge7" class="edge">
<title>Node7&#45;&gt;Node2</title>
<path fill="none" stroke="#63b8ff" d="M373.44,-823.72C368.72,-821.47 364.18,-818.91 360,-816 338.11,-800.77 340.98,-788.56 324,-768 301.58,-740.86 273.14,-710.62 258.75,-695.58"/>
<polygon fill="#63b8ff" stroke="#63b8ff" points="372.13,-826.97 382.7,-827.69 374.89,-820.54 372.13,-826.97"/>
</g>
<!-- Node8 -->
<g id="node8" class="node">
<title>Node8</title>
<g id="a_node8"><a xlink:href="convective__wrap_8cpp.html#aa0e261971f41c6f95514e9ab584cc91e" target="_top" xlink:title=" ">
<polygon fill="white" stroke="#666666" points="307,-807 190,-807 190,-777 307,-777 307,-807"/>
<text text-anchor="start" x="198" y="-795" font-family="Helvetica,sans-Serif" font-size="10.00">sharp_storm_motion</text>
<text text-anchor="middle" x="248.5" y="-784" font-family="Helvetica,sans-Serif" font-size="10.00">_bunkers</text>
</a>
</g>
</g>
<!-- Node7&#45;&gt;Node8 -->
<g id="edge8" class="edge">
<title>Node7&#45;&gt;Node8</title>
<path fill="none" stroke="#63b8ff" d="M373.03,-822.96C351.48,-817.56 327.88,-811.65 307.13,-806.45"/>
<polygon fill="#63b8ff" stroke="#63b8ff" points="372.21,-826.37 382.76,-825.4 373.91,-819.58 372.21,-826.37"/>
</g>
<!-- Node9 -->
<g id="node9" class="node">
<title>Node9</title>
<g id="a_node9"><a xlink:href="convective__wrap_8cpp.html#a9c1783d5b0cde5deea749c0f4e0ee310" target="_top" xlink:title=" ">
<polygon fill="white" stroke="#666666" points="307,-903 190,-903 190,-873 307,-873 307,-903"/>
<text text-anchor="start" x="198" y="-891" font-family="Helvetica,sans-Serif" font-size="10.00">sharp_storm_motion</text>
<text text-anchor="middle" x="248.5" y="-880" font-family="Helvetica,sans-Serif" font-size="10.00">_bunkers_np</text>
</a>
</g>
</g>
<!-- Node7&#45;&gt;Node9 -->
<g id="edge9" class="edge">
<title>Node7&#45;&gt;Node9</title>
<path fill="none" stroke="#63b8ff" d="M373.03,-857.04C351.48,-862.44 327.88,-868.35 307.13,-873.55"/>
<polygon fill="#63b8ff" stroke="#63b8ff" points="373.91,-860.42 382.76,-854.6 372.21,-853.63 373.91,-860.42"/>
</g>
<!-- Node10 -->
<g id="node10" class="node">
<title>Node10</title>
<g id="a_node10"><a xlink:href="namespacesharp.html#ab31d383a3231f8fef873e5a16c0db856" target="_top" xlink:title="Estimates supercell storm motion by using the Bunkers et al. 2014 method.">
<polygon fill="white" stroke="#666666" points="307.5,-855 189.5,-855 189.5,-825 307.5,-825 307.5,-855"/>
<text text-anchor="start" x="197.5" y="-843" font-family="Helvetica,sans-Serif" font-size="10.00">sharp::storm_motion</text>
<text text-anchor="middle" x="248.5" y="-832" font-family="Helvetica,sans-Serif" font-size="10.00">_bunkers</text>
</a>
</g>
</g>
<!-- Node7&#45;&gt;Node10 -->
<g id="edge10" class="edge">
<title>Node7&#45;&gt;Node10</title>
<path fill="none" stroke="#63b8ff" d="M372.54,-840C351.35,-840 328.22,-840 307.79,-840"/>
<polygon fill="#63b8ff" stroke="#63b8ff" points="372.76,-843.5 382.76,-840 372.76,-836.5 372.76,-843.5"/>
</g>
<!-- Node12 -->
<g id="node12" class="node">
<title>Node12</title>
<g id="a_node12"><a xlink:href="namespacesharp.html#ab89a7e3555a52f0fd9f4086d5aba7037" target="_top" xlink:title=" ">
<polygon fill="white" stroke="#666666" points="504.5,-446 379.5,-446 379.5,-416 504.5,-416 504.5,-446"/>
<text text-anchor="start" x="387.5" y="-434" font-family="Helvetica,sans-Serif" font-size="10.00">sharp::energy_helicity</text>
<text text-anchor="middle" x="442" y="-423" font-family="Helvetica,sans-Serif" font-size="10.00">_index</text>
</a>
</g>
</g>
<!-- Node11&#45;&gt;Node12 -->
<g id="edge12" class="edge">
<title>Node11&#45;&gt;Node12</title>
<path fill="none" stroke="#63b8ff" d="M571.65,-399.92C550.95,-404.92 526.64,-410.79 504.77,-416.08"/>
<polygon fill="#63b8ff" stroke="#63b8ff" points="572.6,-403.29 581.5,-397.54 570.95,-396.49 572.6,-403.29"/>
</g>
<!-- Node14 -->
<g id="node14" class="node">
<title>Node14</title>
<g id="a_node14"><a xlink:href="winds__wrap_8cpp.html#a2275eb46450351ce583c7aef971a0507" target="_top" xlink:title=" ">
<polygon fill="white" stroke="#666666" points="516.5,-397.5 367.5,-397.5 367.5,-378.5 516.5,-378.5 516.5,-397.5"/>
<text text-anchor="middle" x="442" y="-385.5" font-family="Helvetica,sans-Serif" font-size="10.00">sharp_HeightLayer_helicity</text>
</a>
</g>
</g>
<!-- Node11&#45;&gt;Node14 -->
<g id="edge14" class="edge">
<title>Node11&#45;&gt;Node14</title>
<path fill="none" stroke="#63b8ff" d="M568.45,-388C552.19,-388 533.97,-388 516.57,-388"/>
<polygon fill="#63b8ff" stroke="#63b8ff" points="568.82,-391.5 578.82,-388 568.82,-384.5 568.82,-391.5"/>
</g>
<!-- Node15 -->
<g id="node15" class="node">
<title>Node15</title>
<g id="a_node15"><a xlink:href="winds__wrap_8cpp.html#a111ef482a9bae9f405ccb271e0816769" target="_top" xlink:title=" ">
<polygon fill="white" stroke="#666666" points="501,-360 383,-360 383,-330 501,-330 501,-360"/>
<text text-anchor="start" x="391" y="-348" font-family="Helvetica,sans-Serif" font-size="10.00">sharp_PressureLayer</text>
<text text-anchor="middle" x="442" y="-337" font-family="Helvetica,sans-Serif" font-size="10.00">_helicity</text>
</a>
</g>
</g>
<!-- Node11&#45;&gt;Node15 -->
<g id="edge15" class="edge">
<title>Node11&#45;&gt;Node15</title>
<path fill="none" stroke="#63b8ff" d="M571.48,-376.04C549.72,-370.78 524.01,-364.57 501.32,-359.09"/>
<polygon fill="#63b8ff" stroke="#63b8ff" points="570.95,-379.51 581.5,-378.46 572.6,-372.71 570.95,-379.51"/>
</g>
<!-- Node13 -->
<g id="node13" class="node">
<title>Node13</title>
<g id="a_node13"><a xlink:href="convective__wrap_8cpp.html#a8fa4a371ff32e44fd39e0703eab33a74" target="_top" xlink:title=" ">
<polygon fill="white" stroke="#666666" points="310.5,-415 186.5,-415 186.5,-385 310.5,-385 310.5,-415"/>
<text text-anchor="start" x="194.5" y="-403" font-family="Helvetica,sans-Serif" font-size="10.00">sharp_energy_helicity</text>
<text text-anchor="middle" x="248.5" y="-392" font-family="Helvetica,sans-Serif" font-size="10.00">_index</text>
</a>
</g>
</g>
<!-- Node12&#45;&gt;Node13 -->
<g id="edge13" class="edge">
<title>Node12&#45;&gt;Node13</title>
<path fill="none" stroke="#63b8ff" d="M369.4,-419.41C350.1,-416.28 329.39,-412.93 310.7,-409.91"/>
<polygon fill="#63b8ff" stroke="#63b8ff" points="368.92,-422.88 379.35,-421.02 370.04,-415.97 368.92,-422.88"/>
</g>
<!-- Node16&#45;&gt;Node2 -->
<g id="edge21" class="edge">
<title>Node16&#45;&gt;Node2</title>
<path fill="none" stroke="#63b8ff" d="M573.22,-589.51C557.66,-595.2 540.21,-601.22 524,-606 452.24,-627.18 431.58,-622.21 360,-644 328.98,-653.44 294.16,-667.23 272.04,-676.4"/>
<polygon fill="#63b8ff" stroke="#63b8ff" points="574.48,-592.78 582.64,-586.03 572.05,-586.21 574.48,-592.78"/>
</g>
<!-- Node17 -->
<g id="node17" class="node">
<title>Node17</title>
<g id="a_node17"><a xlink:href="structsharp_1_1Parcel.html#a0560bd193b2d2d6bc6b08baa7463fba4" target="_top" xlink:title="Compute CAPE and CINH for a previously lifted sharp::Parcel.">
<polygon fill="white" stroke="#666666" points="509,-483.5 375,-483.5 375,-464.5 509,-464.5 509,-483.5"/>
<text text-anchor="middle" x="442" y="-471.5" font-family="Helvetica,sans-Serif" font-size="10.00">sharp::Parcel::cape_cinh</text>
</a>
</g>
</g>
<!-- Node16&#45;&gt;Node17 -->
<g id="edge17" class="edge">
<title>Node16&#45;&gt;Node17</title>
<path fill="none" stroke="#63b8ff" d="M584.05,-550.87C546.39,-530.34 489.55,-499.37 460.88,-483.74"/>
<polygon fill="#63b8ff" stroke="#63b8ff" points="582.73,-554.13 593.19,-555.84 586.08,-547.99 582.73,-554.13"/>
</g>
<!-- Node21 -->
<g id="node21" class="node">
<title>Node21</title>
<g id="a_node21"><a xlink:href="namespacesharp.html#a298e2c96c389f2c5177d3626c908927e" target="_top" xlink:title="Computes the mass&#45;weighted mean value of a field over a given pressure layer.">
<polygon fill="white" stroke="#666666" points="495.5,-596.5 388.5,-596.5 388.5,-577.5 495.5,-577.5 495.5,-596.5"/>
<text text-anchor="middle" x="442" y="-584.5" font-family="Helvetica,sans-Serif" font-size="10.00">sharp::layer_mean</text>
</a>
</g>
</g>
<!-- Node16&#45;&gt;Node21 -->
<g id="edge22" class="edge">
<title>Node16&#45;&gt;Node21</title>
<path fill="none" stroke="#63b8ff" d="M549.59,-577.42C531.61,-579.03 512.64,-580.74 495.76,-582.26"/>
<polygon fill="#63b8ff" stroke="#63b8ff" points="550.1,-580.89 559.74,-576.51 549.47,-573.92 550.1,-580.89"/>
</g>
<!-- Node25 -->
<g id="node25" class="node">
<title>Node25</title>
<g id="a_node25"><a xlink:href="layer__wrap_8cpp.html#aedfe40469a1e381572599fb09d5f0406" target="_top" xlink:title=" ">
<polygon fill="white" stroke="#666666" points="521,-559.5 363,-559.5 363,-540.5 521,-540.5 521,-559.5"/>
<text text-anchor="middle" x="442" y="-547.5" font-family="Helvetica,sans-Serif" font-size="10.00">sharp_HeightLayer_integrate</text>
</a>
</g>
</g>
<!-- Node16&#45;&gt;Node25 -->
<g id="edge27" class="edge">
<title>Node16&#45;&gt;Node25</title>
<path fill="none" stroke="#63b8ff" d="M549.66,-562.58C540.24,-561.47 530.55,-560.33 521.03,-559.21"/>
<polygon fill="#63b8ff" stroke="#63b8ff" points="549.4,-566.08 559.74,-563.77 550.22,-559.13 549.4,-566.08"/>
</g>
<!-- Node26 -->
<g id="node26" class="node">
<title>Node26</title>
<g id="a_node26"><a xlink:href="layer__wrap_8cpp.html#a162c242638de7fc2a22b915d14c587db" target="_top" xlink:title=" ">
<polygon fill="white" stroke="#666666" points="501,-683 383,-683 383,-653 501,-653 501,-683"/>
<text text-anchor="start" x="391" y="-671" font-family="Helvetica,sans-Serif" font-size="10.00">sharp_PressureLayer</text>
<text text-anchor="middle" x="442" y="-660" font-family="Helvetica,sans-Serif" font-size="10.00">_integrate</text>
</a>
</g>
</g>
<!-- Node16&#45;&gt;Node26 -->
<g id="edge28" class="edge">
<title>Node16&#45;&gt;Node26</title>
<path fill="none" stroke="#63b8ff" d="M594.54,-592.47C575.71,-607.01 549.34,-625.88 524,-639 513.92,-644.22 502.68,-648.89 491.87,-652.89"/>
<polygon fill="#63b8ff" stroke="#63b8ff" points="596.92,-595.06 602.64,-586.13 592.61,-589.54 596.92,-595.06"/>
</g>
<!-- Node18 -->
<g id="node18" class="node">
<title>Node18</title>
<g id="a_node18"><a xlink:href="namespacesharp.html#a2e6b7cd4a3594a8f2c2050b0e4784cce" target="_top" xlink:title="Computes the Effective Inflow Layer for a given atmospheric sounding.">
<polygon fill="white" stroke="#666666" points="312,-511 185,-511 185,-481 312,-481 312,-511"/>
<text text-anchor="start" x="193" y="-499" font-family="Helvetica,sans-Serif" font-size="10.00">sharp::effective_inflow</text>
<text text-anchor="middle" x="248.5" y="-488" font-family="Helvetica,sans-Serif" font-size="10.00">_layer</text>
</a>
</g>
</g>
<!-- Node17&#45;&gt;Node18 -->
<g id="edge18" class="edge">
<title>Node17&#45;&gt;Node18</title>
<path fill="none" stroke="#63b8ff" d="M364.68,-482.77C347.25,-484.77 328.91,-486.88 312.13,-488.81"/>
<polygon fill="#63b8ff" stroke="#63b8ff" points="365.29,-486.22 374.83,-481.6 364.49,-479.27 365.29,-486.22"/>
</g>
<!-- Node20 -->
<g id="node20" class="node">
<title>Node20</title>
<g id="a_node20"><a xlink:href="structsharp_1_1Parcel.html#aa258d27992d22d8b80cb221e6e2a6c19" target="_top" xlink:title="Construct and return a most&#45;unstable Parcel.">
<polygon fill="white" stroke="#666666" points="303.5,-463 193.5,-463 193.5,-433 303.5,-433 303.5,-463"/>
<text text-anchor="start" x="201.5" y="-451" font-family="Helvetica,sans-Serif" font-size="10.00">sharp::Parcel::most</text>
<text text-anchor="middle" x="248.5" y="-440" font-family="Helvetica,sans-Serif" font-size="10.00">_unstable_parcel</text>
</a>
</g>
</g>
<!-- Node17&#45;&gt;Node20 -->
<g id="edge20" class="edge">
<title>Node17&#45;&gt;Node20</title>
<path fill="none" stroke="#63b8ff" d="M364.89,-463.67C344.4,-460.88 322.65,-457.93 303.63,-455.35"/>
<polygon fill="#63b8ff" stroke="#63b8ff" points="364.45,-467.14 374.83,-465.02 365.39,-460.2 364.45,-467.14"/>
</g>
<!-- Node19 -->
<g id="node19" class="node">
<title>Node19</title>
<g id="a_node19"><a xlink:href="convective__wrap_8cpp.html#af214bab6c6ba14dc06fe7df4f6abcdf8" target="_top" xlink:title=" ">
<polygon fill="white" stroke="#666666" points="131.5,-511 5.5,-511 5.5,-481 131.5,-481 131.5,-511"/>
<text text-anchor="start" x="13.5" y="-499" font-family="Helvetica,sans-Serif" font-size="10.00">sharp_effective_inflow</text>
<text text-anchor="middle" x="68.5" y="-488" font-family="Helvetica,sans-Serif" font-size="10.00">_layer</text>
</a>
</g>
</g>
<!-- Node18&#45;&gt;Node19 -->
<g id="edge19" class="edge">
<title>Node18&#45;&gt;Node19</title>
<path fill="none" stroke="#63b8ff" d="M174.69,-496C160.38,-496 145.48,-496 131.56,-496"/>
<polygon fill="#63b8ff" stroke="#63b8ff" points="174.99,-499.5 184.99,-496 174.99,-492.5 174.99,-499.5"/>
</g>
<!-- Node21&#45;&gt;Node2 -->
<g id="edge23" class="edge">
<title>Node21&#45;&gt;Node2</title>
<path fill="none" stroke="#63b8ff" d="M386.14,-599.68C377.13,-602.76 368.1,-606.5 360,-611 341.29,-621.4 341.36,-630.47 324,-643 306.08,-655.93 283.98,-668.28 268.52,-676.4"/>
<polygon fill="#63b8ff" stroke="#63b8ff" points="387.4,-602.95 395.87,-596.59 385.28,-596.28 387.4,-602.95"/>
</g>
<!-- Node21&#45;&gt;Node22 -->
<g id="edge24" class="edge">
<title>Node21&#45;&gt;Node22</title>
<path fill="none" stroke="#63b8ff" d="M387.79,-575.21C378.52,-573.14 368.98,-571.01 360,-569 342.54,-565.08 323.52,-560.79 306.27,-556.89"/>
<polygon fill="#63b8ff" stroke="#63b8ff" points="387.17,-578.65 397.7,-577.41 388.69,-571.82 387.17,-578.65"/>
</g>
<!-- Node23 -->
<g id="node23" class="node">
<title>Node23</title>
<g id="a_node23"><a xlink:href="layer__wrap_8cpp.html#aed1a796336a18c40e0bf51019b76e09a" target="_top" xlink:title=" ">
<polygon fill="white" stroke="#666666" points="319,-633.5 178,-633.5 178,-614.5 319,-614.5 319,-633.5"/>
<text text-anchor="middle" x="248.5" y="-621.5" font-family="Helvetica,sans-Serif" font-size="10.00">sharp_HeightLayer_mean</text>
</a>
</g>
</g>
<!-- Node21&#45;&gt;Node23 -->
<g id="edge25" class="edge">
<title>Node21&#45;&gt;Node23</title>
<path fill="none" stroke="#63b8ff" d="M381.75,-598.45C355.2,-603.58 324.26,-609.56 298.98,-614.44"/>
<polygon fill="#63b8ff" stroke="#63b8ff" points="382.53,-601.86 391.68,-596.53 381.2,-594.99 382.53,-601.86"/>
</g>
<!-- Node24 -->
<g id="node24" class="node">
<title>Node24</title>
<g id="a_node24"><a xlink:href="layer__wrap_8cpp.html#acb9a81d9a712786d81c427d428eefd0a" target="_top" xlink:title=" ">
<polygon fill="white" stroke="#666666" points="324,-596.5 173,-596.5 173,-577.5 324,-577.5 324,-596.5"/>
<text text-anchor="middle" x="248.5" y="-584.5" font-family="Helvetica,sans-Serif" font-size="10.00">sharp_PressureLayer_mean</text>
</a>
</g>
</g>
<!-- Node21&#45;&gt;Node24 -->
<g id="edge26" class="edge">
<title>Node21&#45;&gt;Node24</title>
<path fill="none" stroke="#63b8ff" d="M377.95,-587C360.76,-587 341.97,-587 324.2,-587"/>
<polygon fill="#63b8ff" stroke="#63b8ff" points="378.42,-590.5 388.42,-587 378.42,-583.5 378.42,-590.5"/>
</g>
<!-- Node28 -->
<g id="node28" class="node">
<title>Node28</title>
<g id="a_node28"><a xlink:href="namespacesharp.html#aa4e86da659bfca2eae1f0baddb84a303" target="_top" xlink:title="compute the lapse rate over the given sharp::PressureLayer">
<polygon fill="white" stroke="#666666" points="492.5,-263.5 391.5,-263.5 391.5,-244.5 492.5,-244.5 492.5,-263.5"/>
<text text-anchor="middle" x="442" y="-251.5" font-family="Helvetica,sans-Serif" font-size="10.00">sharp::lapse_rate</text>
</a>
</g>
</g>
<!-- Node27&#45;&gt;Node28 -->
<g id="edge30" class="edge">
<title>Node27&#45;&gt;Node28</title>
<path fill="none" stroke="#63b8ff" d="M561.38,-254C539.05,-254 513.95,-254 492.63,-254"/>
<polygon fill="#63b8ff" stroke="#63b8ff" points="561.42,-257.5 571.42,-254 561.42,-250.5 561.42,-257.5"/>
</g>
<!-- Node29 -->
<g id="node29" class="node">
<title>Node29</title>
<g id="a_node29"><a xlink:href="namespacesharp.html#abd0d1a28608e145c455ace03e787e33b" target="_top" xlink:title="Find the maximum lapse rate within a specified layer/depth (AGL).">
<polygon fill="white" stroke="#666666" points="506,-226.5 378,-226.5 378,-207.5 506,-207.5 506,-226.5"/>
<text text-anchor="middle" x="442" y="-214.5" font-family="Helvetica,sans-Serif" font-size="10.00">sharp::lapse_rate_max</text>
</a>
</g>
</g>
<!-- Node27&#45;&gt;Node29 -->
<g id="edge31" class="edge">
<title>Node27&#45;&gt;Node29</title>
<path fill="none" stroke="#63b8ff" d="M565.27,-242.42C540.75,-237.32 512.28,-231.4 488.99,-226.56"/>
<polygon fill="#63b8ff" stroke="#63b8ff" points="564.66,-245.86 575.16,-244.47 566.08,-239.01 564.66,-245.86"/>
</g>
<!-- Node30 -->
<g id="node30" class="node">
<title>Node30</title>
<g id="a_node30"><a xlink:href="thermo__wrap_8cpp.html#a56e4699ce7fd1603ff1957e72c07d367" target="_top" xlink:title=" ">
<polygon fill="white" stroke="#666666" points="524,-189.5 360,-189.5 360,-170.5 524,-170.5 524,-189.5"/>
<text text-anchor="middle" x="442" y="-177.5" font-family="Helvetica,sans-Serif" font-size="10.00">sharp_HeightLayer_lapse_rate</text>
</a>
</g>
</g>
<!-- Node27&#45;&gt;Node30 -->
<g id="edge32" class="edge">
<title>Node27&#45;&gt;Node30</title>
<path fill="none" stroke="#63b8ff" d="M598.61,-238.85C579.52,-226.54 550.96,-209.55 524,-199 514.45,-195.26 503.97,-192.14 493.8,-189.57"/>
<polygon fill="#63b8ff" stroke="#63b8ff" points="596.89,-241.91 607.17,-244.47 600.73,-236.05 596.89,-241.91"/>
</g>
<!-- Node31 -->
<g id="node31" class="node">
<title>Node31</title>
<g id="a_node31"><a xlink:href="thermo__wrap_8cpp.html#aa9e6b801be3431516421ca34cab2ba95" target="_top" xlink:title=" ">
<polygon fill="white" stroke="#666666" points="501,-312 383,-312 383,-282 501,-282 501,-312"/>
<text text-anchor="start" x="391" y="-300" font-family="Helvetica,sans-Serif" font-size="10.00">sharp_PressureLayer</text>
<text text-anchor="middle" x="442" y="-289" font-family="Helvetica,sans-Serif" font-size="10.00">_lapse_rate</text>
</a>
</g>
</g>
<!-- Node27&#45;&gt;Node31 -->
<g id="edge33" class="edge">
<title>Node27&#45;&gt;Node31</title>
<path fill="none" stroke="#63b8ff" d="M571.48,-265.96C549.72,-271.22 524.01,-277.43 501.32,-282.91"/>
<polygon fill="#63b8ff" stroke="#63b8ff" points="572.6,-269.29 581.5,-263.54 570.95,-262.49 572.6,-269.29"/>
</g>
<!-- Node33 -->
<g id="node33" class="node">
<title>Node33</title>
<g id="a_node33"><a xlink:href="namespacesharp.html#a6170e3f412ab95b3ba8d9a93ae55dc67" target="_top" xlink:title="Returns the maximim value in the given layer.">
<polygon fill="white" stroke="#666666" points="492.5,-115.5 391.5,-115.5 391.5,-96.5 492.5,-96.5 492.5,-115.5"/>
<text text-anchor="middle" x="442" y="-103.5" font-family="Helvetica,sans-Serif" font-size="10.00">sharp::layer_max</text>
</a>
</g>
</g>
<!-- Node32&#45;&gt;Node33 -->
<g id="edge35" class="edge">
<title>Node32&#45;&gt;Node33</title>
<path fill="none" stroke="#63b8ff" d="M570.85,-166.66C567.07,-164.98 563.41,-163.09 560,-161 540.45,-149 544.04,-135.18 524,-124 514.44,-118.67 503.42,-114.91 492.64,-112.27"/>
<polygon fill="#63b8ff" stroke="#63b8ff" points="569.8,-170.01 580.38,-170.47 572.39,-163.51 569.8,-170.01"/>
</g>
<!-- Node36 -->
<g id="node36" class="node">
<title>Node36</title>
<g id="a_node36"><a xlink:href="namespacesharp.html#a01a9880c937f63e551893797253da4f7" target="_top" xlink:title="Returns the minimum value in the given layer.">
<polygon fill="white" stroke="#666666" points="491,-152.5 393,-152.5 393,-133.5 491,-133.5 491,-152.5"/>
<text text-anchor="middle" x="442" y="-140.5" font-family="Helvetica,sans-Serif" font-size="10.00">sharp::layer_min</text>
</a>
</g>
</g>
<!-- Node32&#45;&gt;Node36 -->
<g id="edge38" class="edge">
<title>Node32&#45;&gt;Node36</title>
<path fill="none" stroke="#63b8ff" d="M565.27,-168.42C540.75,-163.32 512.28,-157.4 488.99,-152.56"/>
<polygon fill="#63b8ff" stroke="#63b8ff" points="564.66,-171.86 575.16,-170.47 566.08,-165.01 564.66,-171.86"/>
</g>
<!-- Node34 -->
<g id="node34" class="node">
<title>Node34</title>
<g id="a_node34"><a xlink:href="layer__wrap_8cpp.html#aff049d2f08d0ca532b51ee39dfeff547" target="_top" xlink:title=" ">
<polygon fill="white" stroke="#666666" points="316,-115.5 181,-115.5 181,-96.5 316,-96.5 316,-115.5"/>
<text text-anchor="middle" x="248.5" y="-103.5" font-family="Helvetica,sans-Serif" font-size="10.00">sharp_HeightLayer_max</text>
</a>
</g>
</g>
<!-- Node33&#45;&gt;Node34 -->
<g id="edge36" class="edge">
<title>Node33&#45;&gt;Node34</title>
<path fill="none" stroke="#63b8ff" d="M380.97,-106C360.34,-106 337.13,-106 316.01,-106"/>
<polygon fill="#63b8ff" stroke="#63b8ff" points="381.19,-109.5 391.19,-106 381.19,-102.5 381.19,-109.5"/>
</g>
<!-- Node35 -->
<g id="node35" class="node">
<title>Node35</title>
<g id="a_node35"><a xlink:href="layer__wrap_8cpp.html#af26d1ab7a5b701ce5e076ff2a0ef3955" target="_top" xlink:title=" ">
<polygon fill="white" stroke="#666666" points="321,-78.5 176,-78.5 176,-59.5 321,-59.5 321,-78.5"/>
<text text-anchor="middle" x="248.5" y="-66.5" font-family="Helvetica,sans-Serif" font-size="10.00">sharp_PressureLayer_max</text>
</a>
</g>
</g>
<!-- Node33&#45;&gt;Node35 -->
<g id="edge37" class="edge">
<title>Node33&#45;&gt;Node35</title>
<path fill="none" stroke="#63b8ff" d="M381.75,-94.55C355.2,-89.42 324.26,-83.44 298.98,-78.56"/>
<polygon fill="#63b8ff" stroke="#63b8ff" points="381.2,-98.01 391.68,-96.47 382.53,-91.14 381.2,-98.01"/>
</g>
<!-- Node37 -->
<g id="node37" class="node">
<title>Node37</title>
<g id="a_node37"><a xlink:href="layer__wrap_8cpp.html#a1b669cfe5d14a85dc16aa2ec7b19f914" target="_top" xlink:title=" ">
<polygon fill="white" stroke="#666666" points="314.5,-189.5 182.5,-189.5 182.5,-170.5 314.5,-170.5 314.5,-189.5"/>
<text text-anchor="middle" x="248.5" y="-177.5" font-family="Helvetica,sans-Serif" font-size="10.00">sharp_HeightLayer_min</text>
</a>
</g>
</g>
<!-- Node36&#45;&gt;Node37 -->
<g id="edge39" class="edge">
<title>Node36&#45;&gt;Node37</title>
<path fill="none" stroke="#63b8ff" d="M382.65,-154.27C355.85,-159.45 324.41,-165.53 298.81,-170.47"/>
<polygon fill="#63b8ff" stroke="#63b8ff" points="383.52,-157.67 392.68,-152.34 382.19,-150.8 383.52,-157.67"/>
</g>
<!-- Node38 -->
<g id="node38" class="node">
<title>Node38</title>
<g id="a_node38"><a xlink:href="layer__wrap_8cpp.html#aa9e2591b56d47f5caa08217690927b49" target="_top" xlink:title=" ">
<polygon fill="white" stroke="#666666" points="319.5,-152.5 177.5,-152.5 177.5,-133.5 319.5,-133.5 319.5,-152.5"/>
<text text-anchor="middle" x="248.5" y="-140.5" font-family="Helvetica,sans-Serif" font-size="10.00">sharp_PressureLayer_min</text>
</a>
</g>
</g>
<!-- Node36&#45;&gt;Node38 -->
<g id="edge40" class="edge">
<title>Node36&#45;&gt;Node38</title>
<path fill="none" stroke="#63b8ff" d="M382.53,-143C362.64,-143 340.21,-143 319.52,-143"/>
<polygon fill="#63b8ff" stroke="#63b8ff" points="382.68,-146.5 392.68,-143 382.68,-139.5 382.68,-146.5"/>
</g>
<!-- Node41 -->
<g id="node41" class="node">
<title>Node41</title>
<g id="a_node41"><a xlink:href="winds__wrap_8cpp.html#a1c0e9a86e60d26bf1e2d1cedff36c601" target="_top" xlink:title=" ">
<polygon fill="white" stroke="#666666" points="510.5,-30 373.5,-30 373.5,0 510.5,0 510.5,-30"/>
<text text-anchor="start" x="381.5" y="-18" font-family="Helvetica,sans-Serif" font-size="10.00">sharp_HeightLayer_wind</text>
<text text-anchor="middle" x="442" y="-7" font-family="Helvetica,sans-Serif" font-size="10.00">_shear</text>
</a>
</g>
</g>
<!-- Node40&#45;&gt;Node41 -->
<g id="edge44" class="edge">
<title>Node40&#45;&gt;Node41</title>
<path fill="none" stroke="#63b8ff" d="M575.74,-50.8C552.36,-44.49 523.61,-36.74 498.86,-30.06"/>
<polygon fill="#63b8ff" stroke="#63b8ff" points="574.84,-54.18 585.41,-53.4 576.66,-47.42 574.84,-54.18"/>
</g>
<!-- Node42 -->
<g id="node42" class="node">
<title>Node42</title>
<g id="a_node42"><a xlink:href="winds__wrap_8cpp.html#a3eac778ad96a01cf68ea55e502520a9c" target="_top" xlink:title=" ">
<polygon fill="white" stroke="#666666" points="501,-78 383,-78 383,-48 501,-48 501,-78"/>
<text text-anchor="start" x="391" y="-66" font-family="Helvetica,sans-Serif" font-size="10.00">sharp_PressureLayer</text>
<text text-anchor="middle" x="442" y="-55" font-family="Helvetica,sans-Serif" font-size="10.00">_wind_shear</text>
</a>
</g>
</g>
<!-- Node40&#45;&gt;Node42 -->
<g id="edge45" class="edge">
<title>Node40&#45;&gt;Node42</title>
<path fill="none" stroke="#63b8ff" d="M558.85,-63C540.16,-63 519.71,-63 501.28,-63"/>
<polygon fill="#63b8ff" stroke="#63b8ff" points="559.04,-66.5 569.04,-63 559.04,-59.5 559.04,-66.5"/>
</g>
</g>
</svg>
