<?xml version="1.0" encoding="UTF-8" standalone="no"?>
<!DOCTYPE svg PUBLIC "-//W3C//DTD SVG 1.1//EN"
 "http://www.w3.org/Graphics/SVG/1.1/DTD/svg11.dtd">
<!-- Generated by graphviz version 2.43.0 (0)
 -->
<!-- Title: sharp::storm_motion_bunkers Pages: 1 -->
<svg width="473pt" height="172pt"
 viewBox="0.00 0.00 473.00 171.50" xmlns="http://www.w3.org/2000/svg" xmlns:xlink="http://www.w3.org/1999/xlink">
<g id="graph0" class="graph" transform="scale(1 1) rotate(0) translate(4 167.5)">
<title>sharp::storm_motion_bunkers</title>
<!-- Node1 -->
<g id="node1" class="node">
<title>Node1</title>
<g id="a_node1"><a xlink:title="Estimates supercell storm motion using the Bunkers et al. 2000 method.">
<polygon fill="#999999" stroke="#666666" points="465,-102 347,-102 347,-72 465,-72 465,-102"/>
<text text-anchor="start" x="355" y="-90" font-family="Helvetica,sans-Serif" font-size="10.00">sharp::storm_motion</text>
<text text-anchor="middle" x="406" y="-79" font-family="Helvetica,sans-Serif" font-size="10.00">_bunkers</text>
</a>
</g>
</g>
<!-- Node2 -->
<g id="node2" class="node">
<title>Node2</title>
<g id="a_node2"><a xlink:href="namespacesharp.html#a72bbdc4cfe7895dd51981902ac9fc822" target="_top" xlink:title="Computes Entrainment CAPE using a previously lifted parcel.">
<polygon fill="white" stroke="#666666" points="311,-163.5 173,-163.5 173,-144.5 311,-144.5 311,-163.5"/>
<text text-anchor="middle" x="242" y="-151.5" font-family="Helvetica,sans-Serif" font-size="10.00">sharp::entrainment_cape</text>
</a>
</g>
</g>
<!-- Node1&#45;&gt;Node2 -->
<g id="edge1" class="edge">
<title>Node1&#45;&gt;Node2</title>
<path fill="none" stroke="#63b8ff" d="M369.74,-107.12C352.42,-116.45 331.02,-127.18 311,-135 301.87,-138.57 291.8,-141.76 282.28,-144.46"/>
<polygon fill="#63b8ff" stroke="#63b8ff" points="371.82,-109.98 378.91,-102.11 368.46,-103.84 371.82,-109.98"/>
</g>
<!-- Node4 -->
<g id="node4" class="node">
<title>Node4</title>
<g id="a_node4"><a xlink:href="convective__wrap_8cpp.html#aa0e261971f41c6f95514e9ab584cc91e" target="_top" xlink:title=" ">
<polygon fill="white" stroke="#666666" points="300.5,-126 183.5,-126 183.5,-96 300.5,-96 300.5,-126"/>
<text text-anchor="start" x="191.5" y="-114" font-family="Helvetica,sans-Serif" font-size="10.00">sharp_storm_motion</text>
<text text-anchor="middle" x="242" y="-103" font-family="Helvetica,sans-Serif" font-size="10.00">_bunkers</text>
</a>
</g>
</g>
<!-- Node1&#45;&gt;Node4 -->
<g id="edge3" class="edge">
<title>Node1&#45;&gt;Node4</title>
<path fill="none" stroke="#63b8ff" d="M336.94,-97.08C324.86,-98.87 312.38,-100.72 300.62,-102.46"/>
<polygon fill="#63b8ff" stroke="#63b8ff" points="337.59,-100.52 346.97,-95.6 336.57,-93.6 337.59,-100.52"/>
</g>
<!-- Node5 -->
<g id="node5" class="node">
<title>Node5</title>
<g id="a_node5"><a xlink:href="convective__wrap_8cpp.html#a9c1783d5b0cde5deea749c0f4e0ee310" target="_top" xlink:title=" ">
<polygon fill="white" stroke="#666666" points="300.5,-78 183.5,-78 183.5,-48 300.5,-48 300.5,-78"/>
<text text-anchor="start" x="191.5" y="-66" font-family="Helvetica,sans-Serif" font-size="10.00">sharp_storm_motion</text>
<text text-anchor="middle" x="242" y="-55" font-family="Helvetica,sans-Serif" font-size="10.00">_bunkers_np</text>
</a>
</g>
</g>
<!-- Node1&#45;&gt;Node5 -->
<g id="edge4" class="edge">
<title>Node1&#45;&gt;Node5</title>
<path fill="none" stroke="#63b8ff" d="M336.94,-76.92C324.86,-75.13 312.38,-73.28 300.62,-71.54"/>
<polygon fill="#63b8ff" stroke="#63b8ff" points="336.57,-80.4 346.97,-78.4 337.59,-73.48 336.57,-80.4"/>
</g>
<!-- Node6 -->
<g id="node6" class="node">
<title>Node6</title>
<g id="a_node6"><a xlink:href="namespacesharp.html#ab31d383a3231f8fef873e5a16c0db856" target="_top" xlink:title="Estimates supercell storm motion by using the Bunkers et al. 2014 method.">
<polygon fill="white" stroke="#666666" points="301,-30 183,-30 183,0 301,0 301,-30"/>
<text text-anchor="start" x="191" y="-18" font-family="Helvetica,sans-Serif" font-size="10.00">sharp::storm_motion</text>
<text text-anchor="middle" x="242" y="-7" font-family="Helvetica,sans-Serif" font-size="10.00">_bunkers</text>
</a>
</g>
</g>
<!-- Node1&#45;&gt;Node6 -->
<g id="edge5" class="edge">
<title>Node1&#45;&gt;Node6</title>
<path fill="none" stroke="#63b8ff" d="M368.75,-67.07C351.51,-57.96 330.46,-47.36 311,-39 303.75,-35.89 295.95,-32.85 288.32,-30.05"/>
<polygon fill="#63b8ff" stroke="#63b8ff" points="367.43,-70.33 377.9,-71.95 370.73,-64.15 367.43,-70.33"/>
</g>
<!-- Node3 -->
<g id="node3" class="node">
<title>Node3</title>
<g id="a_node3"><a xlink:href="convective__wrap_8cpp.html#ab0bfb728bbbf3a731c330b61a5c415ad" target="_top" xlink:title=" ">
<polygon fill="white" stroke="#666666" points="137,-163.5 0,-163.5 0,-144.5 137,-144.5 137,-163.5"/>
<text text-anchor="middle" x="68.5" y="-151.5" font-family="Helvetica,sans-Serif" font-size="10.00">sharp_entrainment_cape</text>
</a>
</g>
</g>
<!-- Node2&#45;&gt;Node3 -->
<g id="edge2" class="edge">
<title>Node2&#45;&gt;Node3</title>
<path fill="none" stroke="#63b8ff" d="M162.51,-154C154.08,-154 145.55,-154 137.26,-154"/>
<polygon fill="#63b8ff" stroke="#63b8ff" points="162.73,-157.5 172.73,-154 162.73,-150.5 162.73,-157.5"/>
</g>
</g>
</svg>
