<?xml version="1.0" encoding="UTF-8" standalone="no"?>
<!DOCTYPE svg PUBLIC "-//W3C//DTD SVG 1.1//EN"
 "http://www.w3.org/Graphics/SVG/1.1/DTD/svg11.dtd">
<!-- Generated by graphviz version 2.43.0 (0)
 -->
<!-- Title: sharp::lapse_rate Pages: 1 -->
<svg width="273pt" height="64pt"
 viewBox="0.00 0.00 273.00 64.00" xmlns="http://www.w3.org/2000/svg" xmlns:xlink="http://www.w3.org/1999/xlink">
<g id="graph0" class="graph" transform="scale(1 1) rotate(0) translate(4 60)">
<title>sharp::lapse_rate</title>
<!-- Node1 -->
<g id="node1" class="node">
<title>Node1</title>
<g id="a_node1"><a xlink:title="compute the lapse rate over the given sharp::HeightLayer (AGL)">
<polygon fill="#999999" stroke="#666666" points="265,-37 164,-37 164,-18 265,-18 265,-37"/>
<text text-anchor="middle" x="214.5" y="-25" font-family="Helvetica,sans-Serif" font-size="10.00">sharp::lapse_rate</text>
</a>
</g>
</g>
<!-- Node2 -->
<g id="node2" class="node">
<title>Node2</title>
<g id="a_node2"><a xlink:href="namespacesharp.html#aa4e86da659bfca2eae1f0baddb84a303" target="_top" xlink:title="compute the lapse rate over the given sharp::PressureLayer">
<polygon fill="white" stroke="#666666" points="114.5,-56 13.5,-56 13.5,-37 114.5,-37 114.5,-56"/>
<text text-anchor="middle" x="64" y="-44" font-family="Helvetica,sans-Serif" font-size="10.00">sharp::lapse_rate</text>
</a>
</g>
</g>
<!-- Node1&#45;&gt;Node2 -->
<g id="edge1" class="edge">
<title>Node1&#45;&gt;Node2</title>
<path fill="none" stroke="#63b8ff" d="M153.48,-35.18C140.61,-36.83 127.16,-38.55 114.73,-40.14"/>
<polygon fill="#63b8ff" stroke="#63b8ff" points="154.16,-38.62 163.64,-33.88 153.28,-31.68 154.16,-38.62"/>
</g>
<!-- Node3 -->
<g id="node3" class="node">
<title>Node3</title>
<g id="a_node3"><a xlink:href="namespacesharp.html#abd0d1a28608e145c455ace03e787e33b" target="_top" xlink:title="Find the maximum lapse rate within a specified layer/depth (AGL).">
<polygon fill="white" stroke="#666666" points="128,-19 0,-19 0,0 128,0 128,-19"/>
<text text-anchor="middle" x="64" y="-7" font-family="Helvetica,sans-Serif" font-size="10.00">sharp::lapse_rate_max</text>
</a>
</g>
</g>
<!-- Node1&#45;&gt;Node3 -->
<g id="edge2" class="edge">
<title>Node1&#45;&gt;Node3</title>
<path fill="none" stroke="#63b8ff" d="M153.59,-20.24C145.22,-19.22 136.6,-18.18 128.18,-17.16"/>
<polygon fill="#63b8ff" stroke="#63b8ff" points="153.29,-23.73 163.64,-21.46 154.13,-16.78 153.29,-23.73"/>
</g>
</g>
</svg>
