<?xml version="1.0" encoding="UTF-8" standalone="no"?>
<!DOCTYPE svg PUBLIC "-//W3C//DTD SVG 1.1//EN"
 "http://www.w3.org/Graphics/SVG/1.1/DTD/svg11.dtd">
<!-- Generated by graphviz version 2.43.0 (0)
 -->
<!-- Title: sharp::lapse_rate Pages: 1 -->
<svg width="692pt" height="76pt"
 viewBox="0.00 0.00 692.00 75.50" xmlns="http://www.w3.org/2000/svg" xmlns:xlink="http://www.w3.org/1999/xlink">
<g id="graph0" class="graph" transform="scale(1 1) rotate(0) translate(4 71.5)">
<title>sharp::lapse_rate</title>
<!-- Node1 -->
<g id="node1" class="node">
<title>Node1</title>
<g id="a_node1"><a xlink:title="compute the lapse rate over the given sharp::PressureLayer">
<polygon fill="#999999" stroke="#666666" points="101,-45.5 0,-45.5 0,-26.5 101,-26.5 101,-45.5"/>
<text text-anchor="middle" x="50.5" y="-33.5" font-family="Helvetica,sans-Serif" font-size="10.00">sharp::lapse_rate</text>
</a>
</g>
</g>
<!-- Node2 -->
<g id="node2" class="node">
<title>Node2</title>
<g id="a_node2"><a xlink:href="namespacesharp.html#a43a01274768ee388a983046651a230d3" target="_top" xlink:title="compute the lapse rate over the given sharp::HeightLayer (AGL)">
<polygon fill="white" stroke="#666666" points="248.5,-67.5 147.5,-67.5 147.5,-48.5 248.5,-48.5 248.5,-67.5"/>
<text text-anchor="middle" x="198" y="-55.5" font-family="Helvetica,sans-Serif" font-size="10.00">sharp::lapse_rate</text>
</a>
</g>
</g>
<!-- Node1&#45;&gt;Node2 -->
<g id="edge1" class="edge">
<title>Node1&#45;&gt;Node2</title>
<path fill="none" stroke="#63b8ff" d="M101.17,-43.51C112.74,-45.26 125.19,-47.14 137.16,-48.95"/>
<polygon fill="#63b8ff" stroke="#63b8ff" points="136.65,-52.42 147.06,-50.45 137.7,-45.49 136.65,-52.42"/>
</g>
<!-- Node7 -->
<g id="node7" class="node">
<title>Node7</title>
<g id="a_node7"><a xlink:href="namespacesharp.html#a31da980f398c9f6a5960ddf868101a94" target="_top" xlink:title="Converts a sharp::PressureLayer to a sharp::HeightLayer.">
<polygon fill="white" stroke="#666666" points="259,-30 137,-30 137,0 259,0 259,-30"/>
<text text-anchor="start" x="145" y="-18" font-family="Helvetica,sans-Serif" font-size="10.00">sharp::pressure_layer</text>
<text text-anchor="middle" x="198" y="-7" font-family="Helvetica,sans-Serif" font-size="10.00">_to_height</text>
</a>
</g>
</g>
<!-- Node1&#45;&gt;Node7 -->
<g id="edge6" class="edge">
<title>Node1&#45;&gt;Node7</title>
<path fill="none" stroke="#63b8ff" d="M101.17,-28.83C109.45,-27.64 118.18,-26.38 126.86,-25.12"/>
<polygon fill="#63b8ff" stroke="#63b8ff" points="127.6,-28.55 137,-23.66 126.6,-21.62 127.6,-28.55"/>
</g>
<!-- Node3 -->
<g id="node3" class="node">
<title>Node3</title>
<g id="a_node3"><a xlink:href="namespacesharp.html#ae8240f026498ad2775633a8d0dcf100d" target="_top" xlink:title="Linearly interpolate a data field to a requested height level.">
<polygon fill="white" stroke="#666666" points="414.5,-64.5 300.5,-64.5 300.5,-45.5 414.5,-45.5 414.5,-64.5"/>
<text text-anchor="middle" x="357.5" y="-52.5" font-family="Helvetica,sans-Serif" font-size="10.00">sharp::interp_height</text>
</a>
</g>
</g>
<!-- Node2&#45;&gt;Node3 -->
<g id="edge2" class="edge">
<title>Node2&#45;&gt;Node3</title>
<path fill="none" stroke="#63b8ff" d="M248.83,-57.05C262.03,-56.8 276.49,-56.52 290.41,-56.26"/>
<polygon fill="#63b8ff" stroke="#63b8ff" points="290.49,-59.76 300.42,-56.07 290.35,-52.76 290.49,-59.76"/>
</g>
<!-- Node4 -->
<g id="node4" class="node">
<title>Node4</title>
<g id="a_node4"><a xlink:href="namespacesharp.html#a0bf533560780fdb77bc3656db8d89208" target="_top" xlink:title="Linearly interpolates between a and b with distance t.">
<polygon fill="white" stroke="#666666" points="546.5,-64.5 478.5,-64.5 478.5,-45.5 546.5,-45.5 546.5,-64.5"/>
<text text-anchor="middle" x="512.5" y="-52.5" font-family="Helvetica,sans-Serif" font-size="10.00">sharp::lerp</text>
</a>
</g>
</g>
<!-- Node3&#45;&gt;Node4 -->
<g id="edge3" class="edge">
<title>Node3&#45;&gt;Node4</title>
<path fill="none" stroke="#63b8ff" d="M414.6,-55C432.09,-55 451.12,-55 467.64,-55"/>
<polygon fill="#63b8ff" stroke="#63b8ff" points="468.1,-58.5 478.1,-55 468.1,-51.5 468.1,-58.5"/>
</g>
<!-- Node6 -->
<g id="node6" class="node">
<title>Node6</title>
<g id="a_node6"><a xlink:href="namespacesharp.html#a772686549a5111c1152b778731119aa6" target="_top" xlink:title="Finds the first index that satisfies value &lt; element.">
<polygon fill="white" stroke="#666666" points="569,-27.5 456,-27.5 456,-8.5 569,-8.5 569,-27.5"/>
<text text-anchor="middle" x="512.5" y="-15.5" font-family="Helvetica,sans-Serif" font-size="10.00">sharp::upper_bound</text>
</a>
</g>
</g>
<!-- Node3&#45;&gt;Node6 -->
<g id="edge5" class="edge">
<title>Node3&#45;&gt;Node6</title>
<path fill="none" stroke="#63b8ff" d="M397.9,-45.47C417.46,-40.74 441.28,-34.98 462.05,-29.96"/>
<polygon fill="#63b8ff" stroke="#63b8ff" points="463.07,-33.31 471.97,-27.56 461.42,-26.51 463.07,-33.31"/>
</g>
<!-- Node5 -->
<g id="node5" class="node">
<title>Node5</title>
<g id="a_node5"><a xlink:href="namespacesharp.html#ac4464059524ff56c7974141bb4cc7375" target="_top" xlink:title="Linearly interpolates between a and b with distance t.">
<polygon fill="white" stroke="#666666" points="684,-64.5 605,-64.5 605,-45.5 684,-45.5 684,-64.5"/>
<text text-anchor="middle" x="644.5" y="-52.5" font-family="Helvetica,sans-Serif" font-size="10.00">sharp::__lerp</text>
</a>
</g>
</g>
<!-- Node4&#45;&gt;Node5 -->
<g id="edge4" class="edge">
<title>Node4&#45;&gt;Node5</title>
<path fill="none" stroke="#63b8ff" d="M546.64,-55C561.2,-55 578.6,-55 594.61,-55"/>
<polygon fill="#63b8ff" stroke="#63b8ff" points="594.88,-58.5 604.88,-55 594.88,-51.5 594.88,-58.5"/>
</g>
<!-- Node8 -->
<g id="node8" class="node">
<title>Node8</title>
<g id="a_node8"><a xlink:href="namespacesharp.html#a55e4f8ee4ff8a4a30d7b3f3d92a41c75" target="_top" xlink:title="Linearly interpolate a data field to a requested pressure level.">
<polygon fill="white" stroke="#666666" points="420,-27.5 295,-27.5 295,-8.5 420,-8.5 420,-27.5"/>
<text text-anchor="middle" x="357.5" y="-15.5" font-family="Helvetica,sans-Serif" font-size="10.00">sharp::interp_pressure</text>
</a>
</g>
</g>
<!-- Node7&#45;&gt;Node8 -->
<g id="edge7" class="edge">
<title>Node7&#45;&gt;Node8</title>
<path fill="none" stroke="#63b8ff" d="M259.44,-16.15C267.71,-16.31 276.26,-16.47 284.7,-16.63"/>
<polygon fill="#63b8ff" stroke="#63b8ff" points="284.85,-20.14 294.92,-16.83 284.98,-13.14 284.85,-20.14"/>
</g>
<!-- Node8&#45;&gt;Node4 -->
<g id="edge8" class="edge">
<title>Node8&#45;&gt;Node4</title>
<path fill="none" stroke="#63b8ff" d="M397.9,-27.53C419.55,-32.76 446.44,-39.27 468.62,-44.63"/>
<polygon fill="#63b8ff" stroke="#63b8ff" points="467.9,-48.06 478.44,-47.01 469.54,-41.25 467.9,-48.06"/>
</g>
<!-- Node8&#45;&gt;Node6 -->
<g id="edge9" class="edge">
<title>Node8&#45;&gt;Node6</title>
<path fill="none" stroke="#63b8ff" d="M420.29,-18C428.66,-18 437.28,-18 445.72,-18"/>
<polygon fill="#63b8ff" stroke="#63b8ff" points="445.9,-21.5 455.9,-18 445.9,-14.5 445.9,-21.5"/>
</g>
</g>
</svg>
