<?xml version="1.0" encoding="UTF-8" standalone="no"?>
<!DOCTYPE svg PUBLIC "-//W3C//DTD SVG 1.1//EN"
 "http://www.w3.org/Graphics/SVG/1.1/DTD/svg11.dtd">
<!-- Generated by graphviz version 2.43.0 (0)
 -->
<!-- Title: sharp::vapor_pressure Pages: 1 -->
<svg width="260pt" height="82pt"
 viewBox="0.00 0.00 260.00 82.00" xmlns="http://www.w3.org/2000/svg" xmlns:xlink="http://www.w3.org/1999/xlink">
<g id="graph0" class="graph" transform="scale(1 1) rotate(0) translate(4 78)">
<title>sharp::vapor_pressure</title>
<!-- Node1 -->
<g id="node1" class="node">
<title>Node1</title>
<g id="a_node1"><a xlink:title="Compute the vapor pressure over liquid water.">
<polygon fill="#999999" stroke="#666666" points="252,-46 127,-46 127,-27 252,-27 252,-46"/>
<text text-anchor="middle" x="189.5" y="-34" font-family="Helvetica,sans-Serif" font-size="10.00">sharp::vapor_pressure</text>
</a>
</g>
</g>
<!-- Node2 -->
<g id="node2" class="node">
<title>Node2</title>
<g id="a_node2"><a xlink:href="namespacesharp.html#a9edcf0847c46e877689081848c58e3f4" target="_top" xlink:title="Compute the water vapor mixing ratio.">
<polygon fill="white" stroke="#666666" points="91,-74 0,-74 0,-55 91,-55 91,-74"/>
<text text-anchor="middle" x="45.5" y="-62" font-family="Helvetica,sans-Serif" font-size="10.00">sharp::mixratio</text>
</a>
</g>
</g>
<!-- Node1&#45;&gt;Node2 -->
<g id="edge1" class="edge">
<title>Node1&#45;&gt;Node2</title>
<path fill="none" stroke="#63b8ff" d="M129.88,-48.06C117.03,-50.59 103.62,-53.24 91.41,-55.64"/>
<polygon fill="#63b8ff" stroke="#63b8ff" points="130.89,-51.43 140.03,-46.06 129.54,-44.56 130.89,-51.43"/>
</g>
<!-- Node3 -->
<g id="node3" class="node">
<title>Node3</title>
<g id="a_node3"><a xlink:href="namespacesharp.html#ab06f16aa1caac3136e863db8cd61e2e9" target="_top" xlink:title="Compute the equivalent potential temperature.">
<polygon fill="white" stroke="#666666" points="86,-19 5,-19 5,0 86,0 86,-19"/>
<text text-anchor="middle" x="45.5" y="-7" font-family="Helvetica,sans-Serif" font-size="10.00">sharp::thetae</text>
</a>
</g>
</g>
<!-- Node1&#45;&gt;Node3 -->
<g id="edge2" class="edge">
<title>Node1&#45;&gt;Node3</title>
<path fill="none" stroke="#63b8ff" d="M128.25,-25.04C114.08,-22.35 99.33,-19.54 86.31,-17.07"/>
<polygon fill="#63b8ff" stroke="#63b8ff" points="127.96,-28.55 138.44,-26.98 129.27,-21.67 127.96,-28.55"/>
</g>
<!-- Node3&#45;&gt;Node3 -->
<g id="edge3" class="edge">
<title>Node3&#45;&gt;Node3</title>
<path fill="none" stroke="#63b8ff" d="M72.29,-28.19C70.82,-33.2 61.9,-37 45.5,-37 19.91,-37 12.51,-27.73 23.31,-19.08"/>
<polygon fill="#63b8ff" stroke="#63b8ff" points="75.32,-26.44 67.69,-19.08 69.07,-29.59 75.32,-26.44"/>
</g>
</g>
</svg>
