<?xml version="1.0" encoding="UTF-8" standalone="no"?>
<!DOCTYPE svg PUBLIC "-//W3C//DTD SVG 1.1//EN"
 "http://www.w3.org/Graphics/SVG/1.1/DTD/svg11.dtd">
<!-- Generated by graphviz version 2.43.0 (0)
 -->
<!-- Title: sharp::wobf Pages: 1 -->
<svg width="526pt" height="103pt"
 viewBox="0.00 0.00 526.00 103.00" xmlns="http://www.w3.org/2000/svg" xmlns:xlink="http://www.w3.org/1999/xlink">
<g id="graph0" class="graph" transform="scale(1 1) rotate(0) translate(4 99)">
<title>sharp::wobf</title>
<!-- Node1 -->
<g id="node1" class="node">
<title>Node1</title>
<g id="a_node1"><a xlink:title="Computes the difference between the wet&#45;bulb potential temperatures for saturated and dry air given t...">
<polygon fill="#999999" stroke="#666666" points="518,-57 444,-57 444,-38 518,-38 518,-57"/>
<text text-anchor="middle" x="481" y="-45" font-family="Helvetica,sans-Serif" font-size="10.00">sharp::wobf</text>
</a>
</g>
</g>
<!-- Node2 -->
<g id="node2" class="node">
<title>Node2</title>
<g id="a_node2"><a xlink:href="namespacesharp.html#a78762bd2862b739e6ae331c45cb90202" target="_top" xlink:title="Compute the temperature along a moist adiabat (wet&#45;bulb potential temperature) at a given pressure.">
<polygon fill="white" stroke="#666666" points="408,-95 294,-95 294,-76 408,-76 408,-95"/>
<text text-anchor="middle" x="351" y="-83" font-family="Helvetica,sans-Serif" font-size="10.00">sharp::saturated_lift</text>
</a>
</g>
</g>
<!-- Node1&#45;&gt;Node2 -->
<g id="edge1" class="edge">
<title>Node1&#45;&gt;Node2</title>
<path fill="none" stroke="#63b8ff" d="M437.78,-60.04C420.36,-65.2 400.51,-71.1 384.29,-75.91"/>
<polygon fill="#63b8ff" stroke="#63b8ff" points="439.11,-63.29 447.7,-57.09 437.12,-56.58 439.11,-63.29"/>
</g>
<!-- Node4 -->
<g id="node4" class="node">
<title>Node4</title>
<g id="a_node4"><a xlink:href="namespacesharp.html#ad4014313c60a66a321e4050a2a07058e" target="_top" xlink:title="Compute the temperature of a parcel lifted moist adiabatically to a new level.">
<polygon fill="white" stroke="#666666" points="241.5,-58 161.5,-58 161.5,-39 241.5,-39 241.5,-58"/>
<text text-anchor="middle" x="201.5" y="-46" font-family="Helvetica,sans-Serif" font-size="10.00">sharp::wetlift</text>
</a>
</g>
</g>
<!-- Node1&#45;&gt;Node4 -->
<g id="edge7" class="edge">
<title>Node1&#45;&gt;Node4</title>
<path fill="none" stroke="#63b8ff" d="M433.45,-47.67C379.76,-47.86 292.4,-48.18 241.92,-48.36"/>
<polygon fill="#63b8ff" stroke="#63b8ff" points="433.73,-51.17 443.72,-47.63 433.71,-44.17 433.73,-51.17"/>
</g>
<!-- Node7 -->
<g id="node7" class="node">
<title>Node7</title>
<g id="a_node7"><a xlink:href="thermo__wrap_8cpp.html#a0a64ef2c75362d5757bc850f28b166d9" target="_top" xlink:title=" ">
<polygon fill="white" stroke="#666666" points="387.5,-19 314.5,-19 314.5,0 387.5,0 387.5,-19"/>
<text text-anchor="middle" x="351" y="-7" font-family="Helvetica,sans-Serif" font-size="10.00">sharp_wobf</text>
</a>
</g>
</g>
<!-- Node1&#45;&gt;Node7 -->
<g id="edge6" class="edge">
<title>Node1&#45;&gt;Node7</title>
<path fill="none" stroke="#63b8ff" d="M437.78,-34.96C420.36,-29.8 400.51,-23.9 384.29,-19.09"/>
<polygon fill="#63b8ff" stroke="#63b8ff" points="437.12,-38.42 447.7,-37.91 439.11,-31.71 437.12,-38.42"/>
</g>
<!-- Node3 -->
<g id="node3" class="node">
<title>Node3</title>
<g id="a_node3"><a xlink:href="thermo__wrap_8cpp.html#a9f2ca1ce5fd50b35722fd2a5f8330f47" target="_top" xlink:title=" ">
<polygon fill="white" stroke="#666666" points="258,-95 145,-95 145,-76 258,-76 258,-95"/>
<text text-anchor="middle" x="201.5" y="-83" font-family="Helvetica,sans-Serif" font-size="10.00">sharp_saturated_lift</text>
</a>
</g>
</g>
<!-- Node2&#45;&gt;Node3 -->
<g id="edge2" class="edge">
<title>Node2&#45;&gt;Node3</title>
<path fill="none" stroke="#63b8ff" d="M283.8,-85.5C275.2,-85.5 266.45,-85.5 258.04,-85.5"/>
<polygon fill="#63b8ff" stroke="#63b8ff" points="283.82,-89 293.82,-85.5 283.82,-82 283.82,-89"/>
</g>
<!-- Node2&#45;&gt;Node4 -->
<g id="edge3" class="edge">
<title>Node2&#45;&gt;Node4</title>
<path fill="none" stroke="#63b8ff" d="M302.19,-73.51C282.24,-68.5 259.4,-62.77 240.61,-58.06"/>
<polygon fill="#63b8ff" stroke="#63b8ff" points="301.46,-76.93 312.02,-75.97 303.17,-70.14 301.46,-76.93"/>
</g>
<!-- Node5 -->
<g id="node5" class="node">
<title>Node5</title>
<g id="a_node5"><a xlink:href="structsharp_1_1lifter__wobus.html#a92ffe04c0425aef07c524759d799066e" target="_top" xlink:title="Overloads operator() to call sharp::wetlift.">
<polygon fill="white" stroke="#666666" points="109,-85.5 0,-85.5 0,-55.5 109,-55.5 109,-85.5"/>
<text text-anchor="start" x="8" y="-73.5" font-family="Helvetica,sans-Serif" font-size="10.00">sharp::lifter_wobus</text>
<text text-anchor="middle" x="54.5" y="-62.5" font-family="Helvetica,sans-Serif" font-size="10.00">::operator()</text>
</a>
</g>
</g>
<!-- Node4&#45;&gt;Node5 -->
<g id="edge4" class="edge">
<title>Node4&#45;&gt;Node5</title>
<path fill="none" stroke="#63b8ff" d="M151.19,-55.98C137.67,-58.03 122.95,-60.27 109.2,-62.35"/>
<polygon fill="#63b8ff" stroke="#63b8ff" points="151.9,-59.41 161.26,-54.45 150.85,-52.49 151.9,-59.41"/>
</g>
<!-- Node6 -->
<g id="node6" class="node">
<title>Node6</title>
<g id="a_node6"><a xlink:href="thermo__wrap_8cpp.html#aa66ee47ed2c19f239f7bf3c90669bacf" target="_top" xlink:title=" ">
<polygon fill="white" stroke="#666666" points="94.5,-37 14.5,-37 14.5,-18 94.5,-18 94.5,-37"/>
<text text-anchor="middle" x="54.5" y="-25" font-family="Helvetica,sans-Serif" font-size="10.00">sharp_wetlift</text>
</a>
</g>
</g>
<!-- Node4&#45;&gt;Node6 -->
<g id="edge5" class="edge">
<title>Node4&#45;&gt;Node6</title>
<path fill="none" stroke="#63b8ff" d="M151.25,-41.37C132.74,-38.69 111.97,-35.68 94.52,-33.15"/>
<polygon fill="#63b8ff" stroke="#63b8ff" points="150.86,-44.85 161.26,-42.82 151.87,-37.92 150.86,-44.85"/>
</g>
</g>
</svg>
