<?xml version="1.0" encoding="UTF-8" standalone="no"?>
<!DOCTYPE svg PUBLIC "-//W3C//DTD SVG 1.1//EN"
 "http://www.w3.org/Graphics/SVG/1.1/DTD/svg11.dtd">
<!-- Generated by graphviz version 2.43.0 (0)
 -->
<!-- Title: sharp::__lerp Pages: 1 -->
<svg width="856pt" height="671pt"
 viewBox="0.00 0.00 856.00 671.27" xmlns="http://www.w3.org/2000/svg" xmlns:xlink="http://www.w3.org/1999/xlink">
<g id="graph0" class="graph" transform="scale(1 1) rotate(0) translate(4 667.27)">
<title>sharp::__lerp</title>
<!-- Node1 -->
<g id="node1" class="node">
<title>Node1</title>
<g id="a_node1"><a xlink:title="Linearly interpolates between a and b with distance t.">
<polygon fill="#999999" stroke="#666666" points="848,-295.03 769,-295.03 769,-276.03 848,-276.03 848,-295.03"/>
<text text-anchor="middle" x="808.5" y="-283.03" font-family="Helvetica,sans-Serif" font-size="10.00">sharp::__lerp</text>
</a>
</g>
</g>
<!-- Node2 -->
<g id="node2" class="node">
<title>Node2</title>
<g id="a_node2"><a xlink:href="namespacesharp.html#a0bf533560780fdb77bc3656db8d89208" target="_top" xlink:title="Linearly interpolates between a and b with distance t.">
<polygon fill="white" stroke="#666666" points="733,-295.03 665,-295.03 665,-276.03 733,-276.03 733,-295.03"/>
<text text-anchor="middle" x="699" y="-283.03" font-family="Helvetica,sans-Serif" font-size="10.00">sharp::lerp</text>
</a>
</g>
</g>
<!-- Node1&#45;&gt;Node2 -->
<g id="edge1" class="edge">
<title>Node1&#45;&gt;Node2</title>
<path fill="none" stroke="#63b8ff" d="M758.94,-285.53C750.25,-285.53 741.39,-285.53 733.26,-285.53"/>
<polygon fill="#63b8ff" stroke="#63b8ff" points="758.99,-289.03 768.99,-285.53 758.99,-282.03 758.99,-289.03"/>
</g>
<!-- Node3 -->
<g id="node3" class="node">
<title>Node3</title>
<g id="a_node3"><a xlink:href="namespacesharp.html#ae8240f026498ad2775633a8d0dcf100d" target="_top" xlink:title="Linearly interpolate a data field to a requested height level.">
<polygon fill="white" stroke="#666666" points="623.5,-234.03 509.5,-234.03 509.5,-215.03 623.5,-215.03 623.5,-234.03"/>
<text text-anchor="middle" x="566.5" y="-222.03" font-family="Helvetica,sans-Serif" font-size="10.00">sharp::interp_height</text>
</a>
</g>
</g>
<!-- Node2&#45;&gt;Node3 -->
<g id="edge2" class="edge">
<title>Node2&#45;&gt;Node3</title>
<path fill="none" stroke="#63b8ff" d="M668.43,-271.7C643.95,-260.26 609.81,-244.3 588.18,-234.19"/>
<polygon fill="#63b8ff" stroke="#63b8ff" points="667.07,-274.93 677.61,-276 670.03,-268.59 667.07,-274.93"/>
</g>
<!-- Node25 -->
<g id="node25" class="node">
<title>Node25</title>
<g id="a_node25"><a xlink:href="namespacesharp.html#a55e4f8ee4ff8a4a30d7b3f3d92a41c75" target="_top" xlink:title="Linearly interpolate a data field to a requested pressure level.">
<polygon fill="white" stroke="#666666" points="629,-377.03 504,-377.03 504,-358.03 629,-358.03 629,-377.03"/>
<text text-anchor="middle" x="566.5" y="-365.03" font-family="Helvetica,sans-Serif" font-size="10.00">sharp::interp_pressure</text>
</a>
</g>
</g>
<!-- Node2&#45;&gt;Node25 -->
<g id="edge28" class="edge">
<title>Node2&#45;&gt;Node25</title>
<path fill="none" stroke="#63b8ff" d="M674.05,-300.58C647.38,-317.34 605.07,-343.92 582.63,-358.02"/>
<polygon fill="#63b8ff" stroke="#63b8ff" points="676.17,-303.38 682.77,-295.09 672.45,-297.45 676.17,-303.38"/>
</g>
<!-- Node4 -->
<g id="node4" class="node">
<title>Node4</title>
<g id="a_node4"><a xlink:href="namespacesharp.html#a72bbdc4cfe7895dd51981902ac9fc822" target="_top" xlink:title="Computes Entrainment CAPE using a previously lifted parcel.">
<polygon fill="white" stroke="#666666" points="138,-334.03 0,-334.03 0,-315.03 138,-315.03 138,-334.03"/>
<text text-anchor="middle" x="69" y="-322.03" font-family="Helvetica,sans-Serif" font-size="10.00">sharp::entrainment_cape</text>
</a>
</g>
</g>
<!-- Node3&#45;&gt;Node4 -->
<g id="edge3" class="edge">
<title>Node3&#45;&gt;Node4</title>
<path fill="none" stroke="#63b8ff" d="M553.45,-206.55C536.91,-183.26 504.97,-142.99 468,-120.53 355.02,-51.9 284.02,-2.25 174,-75.53 152.12,-90.1 88.63,-270.61 73.34,-314.81"/>
<polygon fill="#63b8ff" stroke="#63b8ff" points="550.63,-208.62 559.2,-214.85 556.38,-204.64 550.63,-208.62"/>
</g>
<!-- Node5 -->
<g id="node5" class="node">
<title>Node5</title>
<g id="a_node5"><a xlink:href="namespacesharp.html#ab77e344c7462c9615b0ddac228bc2193" target="_top" xlink:title="Converts a sharp::HeightLayer to a sharp::PressureLayer.">
<polygon fill="white" stroke="#666666" points="461,-159.53 351,-159.53 351,-129.53 461,-129.53 461,-159.53"/>
<text text-anchor="start" x="359" y="-147.53" font-family="Helvetica,sans-Serif" font-size="10.00">sharp::height_layer</text>
<text text-anchor="middle" x="406" y="-136.53" font-family="Helvetica,sans-Serif" font-size="10.00">_to_pressure</text>
</a>
</g>
</g>
<!-- Node3&#45;&gt;Node5 -->
<g id="edge4" class="edge">
<title>Node3&#45;&gt;Node5</title>
<path fill="none" stroke="#63b8ff" d="M541.15,-209.67C521.69,-198.07 493.55,-181.91 468,-169.53 460.89,-166.08 453.19,-162.68 445.72,-159.54"/>
<polygon fill="#63b8ff" stroke="#63b8ff" points="539.57,-212.81 549.95,-214.96 543.18,-206.8 539.57,-212.81"/>
</g>
<!-- Node9 -->
<g id="node9" class="node">
<title>Node9</title>
<g id="a_node9"><a xlink:href="namespacesharp.html#a80858337a63be77bafadbb343d6e4931" target="_top" xlink:title="Computes the Storm Relative Helicity (SRH) over a given layer.">
<polygon fill="white" stroke="#666666" points="449,-271.03 363,-271.03 363,-252.03 449,-252.03 449,-271.03"/>
<text text-anchor="middle" x="406" y="-259.03" font-family="Helvetica,sans-Serif" font-size="10.00">sharp::helicity</text>
</a>
</g>
</g>
<!-- Node3&#45;&gt;Node9 -->
<g id="edge9" class="edge">
<title>Node3&#45;&gt;Node9</title>
<path fill="none" stroke="#63b8ff" d="M514.71,-236.38C493.14,-241.42 468.32,-247.21 447.95,-251.97"/>
<polygon fill="#63b8ff" stroke="#63b8ff" points="515.74,-239.74 524.68,-234.06 514.15,-232.92 515.74,-239.74"/>
</g>
<!-- Node11 -->
<g id="node11" class="node">
<title>Node11</title>
<g id="a_node11"><a xlink:href="namespacesharp.html#a7acec1642f27591dc988bf9e48b4612d" target="_top" xlink:title="Returns a trapezoidal integration of the given layer.">
<polygon fill="white" stroke="#666666" points="468,-319.53 344,-319.53 344,-289.53 468,-289.53 468,-319.53"/>
<text text-anchor="start" x="352" y="-307.53" font-family="Helvetica,sans-Serif" font-size="10.00">sharp::integrate_layer</text>
<text text-anchor="middle" x="406" y="-296.53" font-family="Helvetica,sans-Serif" font-size="10.00">_trapz</text>
</a>
</g>
</g>
<!-- Node3&#45;&gt;Node11 -->
<g id="edge11" class="edge">
<title>Node3&#45;&gt;Node11</title>
<path fill="none" stroke="#63b8ff" d="M541.84,-239.43C522.41,-251.34 493.97,-268.04 468,-280.53 461.54,-283.63 454.56,-286.66 447.72,-289.47"/>
<polygon fill="#63b8ff" stroke="#63b8ff" points="543.68,-242.4 550.34,-234.17 540,-236.45 543.68,-242.4"/>
</g>
<!-- Node16 -->
<g id="node16" class="node">
<title>Node16</title>
<g id="a_node16"><a xlink:href="structsharp_1_1Parcel.html#a1bf670e79f35a1ce8c904b7ead32ccbe" target="_top" xlink:title="Construct and return a mixed&#45;layer Parcel.">
<polygon fill="white" stroke="#666666" points="126.5,-133.53 11.5,-133.53 11.5,-103.53 126.5,-103.53 126.5,-133.53"/>
<text text-anchor="start" x="19.5" y="-121.53" font-family="Helvetica,sans-Serif" font-size="10.00">sharp::Parcel::mixed</text>
<text text-anchor="middle" x="69" y="-110.53" font-family="Helvetica,sans-Serif" font-size="10.00">_layer_parcel</text>
</a>
</g>
</g>
<!-- Node3&#45;&gt;Node16 -->
<g id="edge26" class="edge">
<title>Node3&#45;&gt;Node16</title>
<path fill="none" stroke="#63b8ff" d="M560.87,-204.74C551,-167.39 524.03,-86.98 468,-50.53 358.33,20.82 297.49,7.71 174,-35.53 135.63,-48.96 100.86,-83.15 82.88,-103.21"/>
<polygon fill="#63b8ff" stroke="#63b8ff" points="557.58,-206 563.4,-214.85 564.37,-204.3 557.58,-206"/>
</g>
<!-- Node18 -->
<g id="node18" class="node">
<title>Node18</title>
<g id="a_node18"><a xlink:href="namespacesharp.html#a43a01274768ee388a983046651a230d3" target="_top" xlink:title="compute the lapse rate over the given sharp::HeightLayer (AGL)">
<polygon fill="white" stroke="#666666" points="456.5,-197.03 355.5,-197.03 355.5,-178.03 456.5,-178.03 456.5,-197.03"/>
<text text-anchor="middle" x="406" y="-185.03" font-family="Helvetica,sans-Serif" font-size="10.00">sharp::lapse_rate</text>
</a>
</g>
</g>
<!-- Node3&#45;&gt;Node18 -->
<g id="edge20" class="edge">
<title>Node3&#45;&gt;Node18</title>
<path fill="none" stroke="#63b8ff" d="M514.71,-212.67C493.14,-207.64 468.32,-201.84 447.95,-197.09"/>
<polygon fill="#63b8ff" stroke="#63b8ff" points="514.15,-216.13 524.68,-215 515.74,-209.32 514.15,-216.13"/>
</g>
<!-- Node21 -->
<g id="node21" class="node">
<title>Node21</title>
<g id="a_node21"><a xlink:href="namespacesharp.html#a646b65095b84511b75f6a4a81e545e80" target="_top" xlink:title="Template for min/max value over sharp::PressureLayer or sharp::HeightLayer.">
<polygon fill="white" stroke="#666666" points="466,-396.03 346,-396.03 346,-377.03 466,-377.03 466,-396.03"/>
<text text-anchor="middle" x="406" y="-384.03" font-family="Helvetica,sans-Serif" font-size="10.00">sharp::layer_minmax</text>
</a>
</g>
</g>
<!-- Node3&#45;&gt;Node21 -->
<g id="edge23" class="edge">
<title>Node3&#45;&gt;Node21</title>
<path fill="none" stroke="#63b8ff" d="M557.42,-243.5C543.53,-273.86 512.32,-333.33 468,-366.53 462.2,-370.87 455.42,-374.3 448.52,-376.99"/>
<polygon fill="#63b8ff" stroke="#63b8ff" points="560.75,-244.62 561.6,-234.06 554.35,-241.79 560.75,-244.62"/>
</g>
<!-- Node24 -->
<g id="node24" class="node">
<title>Node24</title>
<g id="a_node24"><a xlink:href="namespacesharp.html#a099a4575acc27d6e10f9dfb69bc315a1" target="_top" xlink:title="Compue the wind shear for a given layer.">
<polygon fill="white" stroke="#666666" points="458.5,-234.03 353.5,-234.03 353.5,-215.03 458.5,-215.03 458.5,-234.03"/>
<text text-anchor="middle" x="406" y="-222.03" font-family="Helvetica,sans-Serif" font-size="10.00">sharp::wind_shear</text>
</a>
</g>
</g>
<!-- Node3&#45;&gt;Node24 -->
<g id="edge27" class="edge">
<title>Node3&#45;&gt;Node24</title>
<path fill="none" stroke="#63b8ff" d="M498.99,-224.53C485.51,-224.53 471.52,-224.53 458.65,-224.53"/>
<polygon fill="#63b8ff" stroke="#63b8ff" points="499.17,-228.03 509.17,-224.53 499.17,-221.03 499.17,-228.03"/>
</g>
<!-- Node6 -->
<g id="node6" class="node">
<title>Node6</title>
<g id="a_node6"><a xlink:href="namespacesharp.html#aa0726266b4777806bae4e8054e01684c" target="_top" xlink:title="Computes the mass&#45;weighted mean value of a field over a given height layer.">
<polygon fill="white" stroke="#666666" points="294.5,-104.03 187.5,-104.03 187.5,-85.03 294.5,-85.03 294.5,-104.03"/>
<text text-anchor="middle" x="241" y="-92.03" font-family="Helvetica,sans-Serif" font-size="10.00">sharp::layer_mean</text>
</a>
</g>
</g>
<!-- Node5&#45;&gt;Node6 -->
<g id="edge5" class="edge">
<title>Node5&#45;&gt;Node6</title>
<path fill="none" stroke="#63b8ff" d="M351.22,-126.23C337.2,-121.61 322.07,-116.76 308,-112.53 298.45,-109.65 288.06,-106.72 278.41,-104.09"/>
<polygon fill="#63b8ff" stroke="#63b8ff" points="350.14,-129.56 360.73,-129.38 352.34,-122.91 350.14,-129.56"/>
</g>
<!-- Node7 -->
<g id="node7" class="node">
<title>Node7</title>
<g id="a_node7"><a xlink:href="namespacesharp.html#a74a735636c932467b4d2ced544e0cb51" target="_top" xlink:title="Estimates supercell storm motion using the Bunkers et al. 2000 method.">
<polygon fill="white" stroke="#666666" points="300,-361.53 182,-361.53 182,-331.53 300,-331.53 300,-361.53"/>
<text text-anchor="start" x="190" y="-349.53" font-family="Helvetica,sans-Serif" font-size="10.00">sharp::storm_motion</text>
<text text-anchor="middle" x="241" y="-338.53" font-family="Helvetica,sans-Serif" font-size="10.00">_bunkers</text>
</a>
</g>
</g>
<!-- Node5&#45;&gt;Node7 -->
<g id="edge6" class="edge">
<title>Node5&#45;&gt;Node7</title>
<path fill="none" stroke="#63b8ff" d="M347.9,-165.73C346.53,-166.93 345.22,-168.19 344,-169.53 307.78,-208.98 336.45,-239.15 308,-284.53 296.31,-303.17 277.67,-319.97 263.17,-331.36"/>
<polygon fill="#63b8ff" stroke="#63b8ff" points="350.36,-168.28 356.39,-159.57 346.24,-162.61 350.36,-168.28"/>
</g>
<!-- Node7&#45;&gt;Node4 -->
<g id="edge7" class="edge">
<title>Node7&#45;&gt;Node4</title>
<path fill="none" stroke="#63b8ff" d="M171.87,-337.71C160.72,-336.27 149.17,-334.77 138.02,-333.33"/>
<polygon fill="#63b8ff" stroke="#63b8ff" points="171.6,-341.21 181.97,-339.02 172.5,-334.26 171.6,-341.21"/>
</g>
<!-- Node8 -->
<g id="node8" class="node">
<title>Node8</title>
<g id="a_node8"><a xlink:href="namespacesharp.html#a31d937d833aa80555a0a78890c370f42" target="_top" xlink:title="Estimates supercell storm motion by using the Bunkers et al. 2014 method.">
<polygon fill="white" stroke="#666666" points="128,-640.53 10,-640.53 10,-610.53 128,-610.53 128,-640.53"/>
<text text-anchor="start" x="18" y="-628.53" font-family="Helvetica,sans-Serif" font-size="10.00">sharp::storm_motion</text>
<text text-anchor="middle" x="69" y="-617.53" font-family="Helvetica,sans-Serif" font-size="10.00">_bunkers</text>
</a>
</g>
</g>
<!-- Node7&#45;&gt;Node8 -->
<g id="edge8" class="edge">
<title>Node7&#45;&gt;Node8</title>
<path fill="none" stroke="#63b8ff" d="M177.16,-368.05C176.05,-369.15 174.99,-370.31 174,-371.53 108.78,-451.85 204.13,-521.95 138,-601.53 135.12,-604.99 131.7,-607.96 127.96,-610.5"/>
<polygon fill="#63b8ff" stroke="#63b8ff" points="179.63,-370.55 185.24,-361.56 175.25,-365.09 179.63,-370.55"/>
</g>
<!-- Node10 -->
<g id="node10" class="node">
<title>Node10</title>
<g id="a_node10"><a xlink:href="namespacesharp.html#ab89a7e3555a52f0fd9f4086d5aba7037" target="_top" xlink:title=" ">
<polygon fill="white" stroke="#666666" points="303.5,-189.53 178.5,-189.53 178.5,-159.53 303.5,-159.53 303.5,-189.53"/>
<text text-anchor="start" x="186.5" y="-177.53" font-family="Helvetica,sans-Serif" font-size="10.00">sharp::energy_helicity</text>
<text text-anchor="middle" x="241" y="-166.53" font-family="Helvetica,sans-Serif" font-size="10.00">_index</text>
</a>
</g>
</g>
<!-- Node9&#45;&gt;Node10 -->
<g id="edge10" class="edge">
<title>Node9&#45;&gt;Node10</title>
<path fill="none" stroke="#63b8ff" d="M353.37,-248.78C350.1,-247.22 346.94,-245.48 344,-243.53 322.95,-229.55 328.51,-214.28 308,-199.53 302.73,-195.74 296.81,-192.44 290.74,-189.6"/>
<polygon fill="#63b8ff" stroke="#63b8ff" points="352.25,-252.11 362.83,-252.71 354.93,-245.64 352.25,-252.11"/>
</g>
<!-- Node11&#45;&gt;Node4 -->
<g id="edge15" class="edge">
<title>Node11&#45;&gt;Node4</title>
<path fill="none" stroke="#63b8ff" d="M333.8,-308.78C276.01,-312.23 195.07,-317.06 138.13,-320.46"/>
<polygon fill="#63b8ff" stroke="#63b8ff" points="334.17,-312.26 343.95,-308.17 333.75,-305.27 334.17,-312.26"/>
</g>
<!-- Node12 -->
<g id="node12" class="node">
<title>Node12</title>
<g id="a_node12"><a xlink:href="structsharp_1_1Parcel.html#a0560bd193b2d2d6bc6b08baa7463fba4" target="_top" xlink:title="Compute CAPE and CINH for a previously lifted sharp::Parcel.">
<polygon fill="white" stroke="#666666" points="308,-587.03 174,-587.03 174,-568.03 308,-568.03 308,-587.03"/>
<text text-anchor="middle" x="241" y="-575.03" font-family="Helvetica,sans-Serif" font-size="10.00">sharp::Parcel::cape_cinh</text>
</a>
</g>
</g>
<!-- Node11&#45;&gt;Node12 -->
<g id="edge12" class="edge">
<title>Node11&#45;&gt;Node12</title>
<path fill="none" stroke="#63b8ff" d="M347.25,-326.1C346.11,-327.19 345.02,-328.33 344,-329.53 298.65,-382.66 336.43,-418.72 308,-482.53 292.72,-516.83 264.54,-551.71 250.47,-568.02"/>
<polygon fill="#63b8ff" stroke="#63b8ff" points="349.76,-328.58 355.51,-319.68 345.47,-323.06 349.76,-328.58"/>
</g>
<!-- Node15 -->
<g id="node15" class="node">
<title>Node15</title>
<g id="a_node15"><a xlink:href="namespacesharp.html#a298e2c96c389f2c5177d3626c908927e" target="_top" xlink:title="Computes the mass&#45;weighted mean value of a field over a given pressure layer.">
<polygon fill="white" stroke="#666666" points="294.5,-227.03 187.5,-227.03 187.5,-208.03 294.5,-208.03 294.5,-227.03"/>
<text text-anchor="middle" x="241" y="-215.03" font-family="Helvetica,sans-Serif" font-size="10.00">sharp::layer_mean</text>
</a>
</g>
</g>
<!-- Node11&#45;&gt;Node15 -->
<g id="edge16" class="edge">
<title>Node11&#45;&gt;Node15</title>
<path fill="none" stroke="#63b8ff" d="M349.84,-284.42C347.82,-283.19 345.87,-281.89 344,-280.53 323.58,-265.64 329.1,-250.43 308,-236.53 302.13,-232.66 295.45,-229.56 288.66,-227.09"/>
<polygon fill="#63b8ff" stroke="#63b8ff" points="348.55,-287.7 359,-289.43 351.91,-281.56 348.55,-287.7"/>
</g>
<!-- Node17 -->
<g id="node17" class="node">
<title>Node17</title>
<g id="a_node17"><a xlink:href="namespacesharp.html#af910931fdd9e0fe7d63ba7446743e354" target="_top" xlink:title="Computes the precipitable water vapor content over a layer.">
<polygon fill="white" stroke="#666666" points="294.5,-275.53 187.5,-275.53 187.5,-245.53 294.5,-245.53 294.5,-275.53"/>
<text text-anchor="start" x="195.5" y="-263.53" font-family="Helvetica,sans-Serif" font-size="10.00">sharp::precipitable</text>
<text text-anchor="middle" x="241" y="-252.53" font-family="Helvetica,sans-Serif" font-size="10.00">_water</text>
</a>
</g>
</g>
<!-- Node11&#45;&gt;Node17 -->
<g id="edge19" class="edge">
<title>Node11&#45;&gt;Node17</title>
<path fill="none" stroke="#63b8ff" d="M339.66,-286.89C324.7,-282.85 308.99,-278.61 294.64,-274.74"/>
<polygon fill="#63b8ff" stroke="#63b8ff" points="338.79,-290.28 349.36,-289.51 340.62,-283.52 338.79,-290.28"/>
</g>
<!-- Node13 -->
<g id="node13" class="node">
<title>Node13</title>
<g id="a_node13"><a xlink:href="namespacesharp.html#a2e6b7cd4a3594a8f2c2050b0e4784cce" target="_top" xlink:title="Computes the Effective Inflow Layer for a given atmospheric sounding.">
<polygon fill="white" stroke="#666666" points="132.5,-544.53 5.5,-544.53 5.5,-514.53 132.5,-514.53 132.5,-544.53"/>
<text text-anchor="start" x="13.5" y="-532.53" font-family="Helvetica,sans-Serif" font-size="10.00">sharp::effective_inflow</text>
<text text-anchor="middle" x="69" y="-521.53" font-family="Helvetica,sans-Serif" font-size="10.00">_layer</text>
</a>
</g>
</g>
<!-- Node12&#45;&gt;Node13 -->
<g id="edge13" class="edge">
<title>Node12&#45;&gt;Node13</title>
<path fill="none" stroke="#63b8ff" d="M196.18,-565.15C173.95,-558.88 146.78,-551.21 123.35,-544.59"/>
<polygon fill="#63b8ff" stroke="#63b8ff" points="195.43,-568.58 206.01,-567.93 197.33,-561.84 195.43,-568.58"/>
</g>
<!-- Node14 -->
<g id="node14" class="node">
<title>Node14</title>
<g id="a_node14"><a xlink:href="structsharp_1_1Parcel.html#aa258d27992d22d8b80cb221e6e2a6c19" target="_top" xlink:title="Construct and return a most&#45;unstable Parcel.">
<polygon fill="white" stroke="#666666" points="124,-592.53 14,-592.53 14,-562.53 124,-562.53 124,-592.53"/>
<text text-anchor="start" x="22" y="-580.53" font-family="Helvetica,sans-Serif" font-size="10.00">sharp::Parcel::most</text>
<text text-anchor="middle" x="69" y="-569.53" font-family="Helvetica,sans-Serif" font-size="10.00">_unstable_parcel</text>
</a>
</g>
</g>
<!-- Node12&#45;&gt;Node14 -->
<g id="edge14" class="edge">
<title>Node12&#45;&gt;Node14</title>
<path fill="none" stroke="#63b8ff" d="M163.69,-577.53C150.38,-577.53 136.79,-577.53 124.23,-577.53"/>
<polygon fill="#63b8ff" stroke="#63b8ff" points="163.79,-581.03 173.79,-577.53 163.79,-574.03 163.79,-581.03"/>
</g>
<!-- Node15&#45;&gt;Node4 -->
<g id="edge17" class="edge">
<title>Node15&#45;&gt;Node4</title>
<path fill="none" stroke="#63b8ff" d="M187.44,-230.42C182.79,-232.23 178.24,-234.26 174,-236.53 133.96,-257.95 95.48,-296.74 78.74,-314.79"/>
<polygon fill="#63b8ff" stroke="#63b8ff" points="188.8,-233.66 197.06,-227.03 186.47,-227.06 188.8,-233.66"/>
</g>
<!-- Node15&#45;&gt;Node16 -->
<g id="edge18" class="edge">
<title>Node15&#45;&gt;Node16</title>
<path fill="none" stroke="#63b8ff" d="M188.34,-204.71C183.4,-202.88 178.54,-200.82 174,-198.53 139.44,-181.06 104.92,-151.51 85.62,-133.63"/>
<polygon fill="#63b8ff" stroke="#63b8ff" points="187.31,-208.06 197.9,-207.97 189.57,-201.43 187.31,-208.06"/>
</g>
<!-- Node19 -->
<g id="node19" class="node">
<title>Node19</title>
<g id="a_node19"><a xlink:href="namespacesharp.html#aa4e86da659bfca2eae1f0baddb84a303" target="_top" xlink:title="compute the lapse rate over the given sharp::PressureLayer">
<polygon fill="white" stroke="#666666" points="291.5,-436.03 190.5,-436.03 190.5,-417.03 291.5,-417.03 291.5,-436.03"/>
<text text-anchor="middle" x="241" y="-424.03" font-family="Helvetica,sans-Serif" font-size="10.00">sharp::lapse_rate</text>
</a>
</g>
</g>
<!-- Node18&#45;&gt;Node19 -->
<g id="edge21" class="edge">
<title>Node18&#45;&gt;Node19</title>
<path fill="none" stroke="#63b8ff" d="M347.73,-202.84C346.41,-203.99 345.16,-205.21 344,-206.53 283.69,-274.93 369.52,-341.21 308,-408.53 303.51,-413.44 297.83,-417.06 291.69,-419.72"/>
<polygon fill="#63b8ff" stroke="#63b8ff" points="349.73,-205.72 356.01,-197.18 345.78,-199.94 349.73,-205.72"/>
</g>
<!-- Node20 -->
<g id="node20" class="node">
<title>Node20</title>
<g id="a_node20"><a xlink:href="namespacesharp.html#abd0d1a28608e145c455ace03e787e33b" target="_top" xlink:title="Find the maximum lapse rate within a specified layer/depth (AGL).">
<polygon fill="white" stroke="#666666" points="305,-141.03 177,-141.03 177,-122.03 305,-122.03 305,-141.03"/>
<text text-anchor="middle" x="241" y="-129.03" font-family="Helvetica,sans-Serif" font-size="10.00">sharp::lapse_rate_max</text>
</a>
</g>
</g>
<!-- Node18&#45;&gt;Node20 -->
<g id="edge22" class="edge">
<title>Node18&#45;&gt;Node20</title>
<path fill="none" stroke="#63b8ff" d="M361.1,-174.79C355.3,-172.84 349.47,-170.73 344,-168.53 327.41,-161.85 324.67,-157.03 308,-150.53 299,-147.02 289.09,-143.83 279.75,-141.1"/>
<polygon fill="#63b8ff" stroke="#63b8ff" points="360.19,-178.18 370.78,-177.94 362.35,-171.52 360.19,-178.18"/>
</g>
<!-- Node22 -->
<g id="node22" class="node">
<title>Node22</title>
<g id="a_node22"><a xlink:href="namespacesharp.html#a6170e3f412ab95b3ba8d9a93ae55dc67" target="_top" xlink:title="Returns the maximim value in the given layer.">
<polygon fill="white" stroke="#666666" points="291.5,-399.03 190.5,-399.03 190.5,-380.03 291.5,-380.03 291.5,-399.03"/>
<text text-anchor="middle" x="241" y="-387.03" font-family="Helvetica,sans-Serif" font-size="10.00">sharp::layer_max</text>
</a>
</g>
</g>
<!-- Node21&#45;&gt;Node22 -->
<g id="edge24" class="edge">
<title>Node21&#45;&gt;Node22</title>
<path fill="none" stroke="#63b8ff" d="M335.57,-387.81C320.79,-388.08 305.47,-388.36 291.61,-388.61"/>
<polygon fill="#63b8ff" stroke="#63b8ff" points="335.76,-391.3 345.69,-387.62 335.63,-384.3 335.76,-391.3"/>
</g>
<!-- Node23 -->
<g id="node23" class="node">
<title>Node23</title>
<g id="a_node23"><a xlink:href="namespacesharp.html#a01a9880c937f63e551893797253da4f7" target="_top" xlink:title="Returns the minimum value in the given layer.">
<polygon fill="white" stroke="#666666" points="290,-473.03 192,-473.03 192,-454.03 290,-454.03 290,-473.03"/>
<text text-anchor="middle" x="241" y="-461.03" font-family="Helvetica,sans-Serif" font-size="10.00">sharp::layer_min</text>
</a>
</g>
</g>
<!-- Node21&#45;&gt;Node23 -->
<g id="edge25" class="edge">
<title>Node21&#45;&gt;Node23</title>
<path fill="none" stroke="#63b8ff" d="M383.58,-401.98C364.53,-415.12 335.51,-433.69 308,-445.53 300.47,-448.77 292.21,-451.57 284.15,-453.93"/>
<polygon fill="#63b8ff" stroke="#63b8ff" points="385.66,-404.8 391.84,-396.19 381.64,-399.07 385.66,-404.8"/>
</g>
<!-- Node25&#45;&gt;Node4 -->
<g id="edge29" class="edge">
<title>Node25&#45;&gt;Node4</title>
<path fill="none" stroke="#63b8ff" d="M545.39,-383.72C485.68,-429.71 305.38,-553.34 174,-482.53 113,-449.65 81.9,-363.63 72.86,-334.41"/>
<polygon fill="#63b8ff" stroke="#63b8ff" points="547.89,-386.21 553.61,-377.29 543.58,-380.69 547.89,-386.21"/>
</g>
<!-- Node25&#45;&gt;Node8 -->
<g id="edge42" class="edge">
<title>Node25&#45;&gt;Node8</title>
<path fill="none" stroke="#63b8ff" d="M564.41,-387.24C560.6,-435.25 543.55,-558.32 468,-613.53 364.6,-689.08 202.44,-661.57 120.7,-640.6"/>
<polygon fill="#63b8ff" stroke="#63b8ff" points="567.91,-387.43 565.1,-377.22 560.93,-386.95 567.91,-387.43"/>
</g>
<!-- Node25&#45;&gt;Node9 -->
<g id="edge32" class="edge">
<title>Node25&#45;&gt;Node9</title>
<path fill="none" stroke="#63b8ff" d="M550.61,-350.41C532.79,-330.91 501.16,-299.31 468,-280.53 461.34,-276.76 453.84,-273.64 446.43,-271.09"/>
<polygon fill="#63b8ff" stroke="#63b8ff" points="548.09,-352.84 557.37,-357.96 553.31,-348.17 548.09,-352.84"/>
</g>
<!-- Node25&#45;&gt;Node11 -->
<g id="edge33" class="edge">
<title>Node25&#45;&gt;Node11</title>
<path fill="none" stroke="#63b8ff" d="M531.83,-354.14C506.35,-344.02 471.36,-330.11 444.9,-319.59"/>
<polygon fill="#63b8ff" stroke="#63b8ff" points="530.84,-357.52 541.43,-357.96 533.43,-351.01 530.84,-357.52"/>
</g>
<!-- Node25&#45;&gt;Node21 -->
<g id="edge34" class="edge">
<title>Node25&#45;&gt;Node21</title>
<path fill="none" stroke="#63b8ff" d="M493.83,-376.12C484.6,-377.23 475.23,-378.35 466.23,-379.43"/>
<polygon fill="#63b8ff" stroke="#63b8ff" points="494.25,-379.59 503.77,-374.93 493.42,-372.64 494.25,-379.59"/>
</g>
<!-- Node25&#45;&gt;Node24 -->
<g id="edge43" class="edge">
<title>Node25&#45;&gt;Node24</title>
<path fill="none" stroke="#63b8ff" d="M555.76,-348.98C540.59,-321.88 508.77,-271.62 468,-243.53 462.43,-239.69 456.05,-236.6 449.56,-234.12"/>
<polygon fill="#63b8ff" stroke="#63b8ff" points="552.72,-350.73 560.58,-357.84 558.87,-347.38 552.72,-350.73"/>
</g>
<!-- Node26 -->
<g id="node26" class="node">
<title>Node26</title>
<g id="a_node26"><a xlink:href="structsharp_1_1Parcel.html#a8a311e09b1d46a829212da94cf181537" target="_top" xlink:title="Find the LFC and EL that bounds the layer with the maximum CAPE.">
<polygon fill="white" stroke="#666666" points="457.5,-604.53 354.5,-604.53 354.5,-574.53 457.5,-574.53 457.5,-604.53"/>
<text text-anchor="start" x="362.5" y="-592.53" font-family="Helvetica,sans-Serif" font-size="10.00">sharp::Parcel::find</text>
<text text-anchor="middle" x="406" y="-581.53" font-family="Helvetica,sans-Serif" font-size="10.00">_lfc_el</text>
</a>
</g>
</g>
<!-- Node25&#45;&gt;Node26 -->
<g id="edge30" class="edge">
<title>Node25&#45;&gt;Node26</title>
<path fill="none" stroke="#63b8ff" d="M560.92,-387.16C550.82,-426.36 523.03,-514.87 468,-565.53 464.32,-568.92 460.1,-571.85 455.63,-574.39"/>
<polygon fill="#63b8ff" stroke="#63b8ff" points="564.36,-387.83 563.36,-377.28 557.57,-386.15 564.36,-387.83"/>
</g>
<!-- Node27 -->
<g id="node27" class="node">
<title>Node27</title>
<g id="a_node27"><a xlink:href="namespacesharp.html#a3c8b9022103d067f30281d68fa81cbda" target="_top" xlink:title="Compute the mean wind over the given sharp::PressureLayer.">
<polygon fill="white" stroke="#666666" points="459,-357.03 353,-357.03 353,-338.03 459,-338.03 459,-357.03"/>
<text text-anchor="middle" x="406" y="-345.03" font-family="Helvetica,sans-Serif" font-size="10.00">sharp::mean_wind</text>
</a>
</g>
</g>
<!-- Node25&#45;&gt;Node27 -->
<g id="edge35" class="edge">
<title>Node25&#45;&gt;Node27</title>
<path fill="none" stroke="#63b8ff" d="M493.62,-358.46C481.97,-356.99 470.12,-355.49 459.07,-354.1"/>
<polygon fill="#63b8ff" stroke="#63b8ff" points="493.41,-361.96 503.77,-359.74 494.28,-355.01 493.41,-361.96"/>
</g>
<!-- Node28 -->
<g id="node28" class="node">
<title>Node28</title>
<g id="a_node28"><a xlink:href="namespacesharp.html#a31da980f398c9f6a5960ddf868101a94" target="_top" xlink:title="Converts a sharp::PressureLayer to a sharp::HeightLayer.">
<polygon fill="white" stroke="#666666" points="467,-556.53 345,-556.53 345,-526.53 467,-526.53 467,-556.53"/>
<text text-anchor="start" x="353" y="-544.53" font-family="Helvetica,sans-Serif" font-size="10.00">sharp::pressure_layer</text>
<text text-anchor="middle" x="406" y="-533.53" font-family="Helvetica,sans-Serif" font-size="10.00">_to_height</text>
</a>
</g>
</g>
<!-- Node25&#45;&gt;Node28 -->
<g id="edge37" class="edge">
<title>Node25&#45;&gt;Node28</title>
<path fill="none" stroke="#63b8ff" d="M556.8,-386.7C542.25,-416.95 510.34,-476.03 468,-512.53 461.69,-517.96 454.19,-522.61 446.65,-526.5"/>
<polygon fill="#63b8ff" stroke="#63b8ff" points="560.14,-387.83 561.21,-377.29 553.8,-384.86 560.14,-387.83"/>
</g>
<!-- Node26&#45;&gt;Node12 -->
<g id="edge31" class="edge">
<title>Node26&#45;&gt;Node12</title>
<path fill="none" stroke="#63b8ff" d="M344.2,-585.05C332.47,-584.19 320.14,-583.28 308.25,-582.4"/>
<polygon fill="#63b8ff" stroke="#63b8ff" points="344.09,-588.55 354.32,-585.8 344.6,-581.57 344.09,-588.55"/>
</g>
<!-- Node27&#45;&gt;Node7 -->
<g id="edge36" class="edge">
<title>Node27&#45;&gt;Node7</title>
<path fill="none" stroke="#63b8ff" d="M342.9,-347.15C328.82,-347.06 313.93,-346.97 300.03,-346.88"/>
<polygon fill="#63b8ff" stroke="#63b8ff" points="342.96,-350.65 352.98,-347.21 343,-343.65 342.96,-350.65"/>
</g>
<!-- Node28&#45;&gt;Node4 -->
<g id="edge39" class="edge">
<title>Node28&#45;&gt;Node4</title>
<path fill="none" stroke="#63b8ff" d="M334.61,-549.77C285.61,-551.88 220.89,-547.07 174,-515.53 106.64,-470.22 79.07,-366.3 71.97,-334.17"/>
<polygon fill="#63b8ff" stroke="#63b8ff" points="335.02,-553.26 344.82,-549.22 334.65,-546.27 335.02,-553.26"/>
</g>
<!-- Node28&#45;&gt;Node8 -->
<g id="edge41" class="edge">
<title>Node28&#45;&gt;Node8</title>
<path fill="none" stroke="#63b8ff" d="M352.25,-560.95C349.41,-562.41 346.64,-563.93 344,-565.53 325.92,-576.44 327.31,-587.99 308,-596.53 250.51,-621.93 178.04,-627.46 128.26,-627.71"/>
<polygon fill="#63b8ff" stroke="#63b8ff" points="353.95,-564.02 361.47,-556.56 350.94,-557.7 353.95,-564.02"/>
</g>
<!-- Node28&#45;&gt;Node12 -->
<g id="edge38" class="edge">
<title>Node28&#45;&gt;Node12</title>
<path fill="none" stroke="#63b8ff" d="M334.91,-557.01C318.01,-560.74 300.44,-564.62 285.18,-567.99"/>
<polygon fill="#63b8ff" stroke="#63b8ff" points="335.76,-560.4 344.77,-554.83 334.25,-553.57 335.76,-560.4"/>
</g>
<!-- Node28&#45;&gt;Node19 -->
<g id="edge40" class="edge">
<title>Node28&#45;&gt;Node19</title>
<path fill="none" stroke="#63b8ff" d="M387.44,-518.43C369.68,-496.6 340.3,-464.46 308,-445.53 301.42,-441.67 294,-438.55 286.58,-436.05"/>
<polygon fill="#63b8ff" stroke="#63b8ff" points="384.92,-520.87 393.88,-526.52 390.4,-516.51 384.92,-520.87"/>
</g>
</g>
</svg>
