<?xml version="1.0" encoding="UTF-8" standalone="no"?>
<!DOCTYPE svg PUBLIC "-//W3C//DTD SVG 1.1//EN"
 "http://www.w3.org/Graphics/SVG/1.1/DTD/svg11.dtd">
<!-- Generated by graphviz version 2.43.0 (0)
 -->
<!-- Title: sharp::find_first_pressure Pages: 1 -->
<svg width="305pt" height="76pt"
 viewBox="0.00 0.00 305.00 75.50" xmlns="http://www.w3.org/2000/svg" xmlns:xlink="http://www.w3.org/1999/xlink">
<g id="graph0" class="graph" transform="scale(1 1) rotate(0) translate(4 71.5)">
<title>sharp::find_first_pressure</title>
<!-- Node1 -->
<g id="node1" class="node">
<title>Node1</title>
<g id="a_node1"><a xlink:title="Find the pressure level of first occurrence of a given value.">
<polygon fill="#999999" stroke="#666666" points="297,-45.5 158,-45.5 158,-26.5 297,-26.5 297,-45.5"/>
<text text-anchor="middle" x="227.5" y="-33.5" font-family="Helvetica,sans-Serif" font-size="10.00">sharp::find_first_pressure</text>
</a>
</g>
</g>
<!-- Node2 -->
<g id="node2" class="node">
<title>Node2</title>
<g id="a_node2"><a xlink:href="namespacesharp.html#ae179ed56eaa16f22b4bf3583c0c4d5c2" target="_top" xlink:title="Get the layer encompassing the lowest dendritic growth zone (&#45;12 to &#45;17 C)">
<polygon fill="white" stroke="#666666" points="122,-67.5 0,-67.5 0,-48.5 122,-48.5 122,-67.5"/>
<text text-anchor="middle" x="61" y="-55.5" font-family="Helvetica,sans-Serif" font-size="10.00">sharp::dendritic_layer</text>
</a>
</g>
</g>
<!-- Node1&#45;&gt;Node2 -->
<g id="edge1" class="edge">
<title>Node1&#45;&gt;Node2</title>
<path fill="none" stroke="#63b8ff" d="M147.67,-46.54C139.09,-47.69 130.47,-48.84 122.17,-49.95"/>
<polygon fill="#63b8ff" stroke="#63b8ff" points="148.24,-50 157.69,-45.2 147.31,-43.06 148.24,-50"/>
</g>
<!-- Node3 -->
<g id="node3" class="node">
<title>Node3</title>
<g id="a_node3"><a xlink:href="namespacesharp.html#aa20009e7c666c469ae2ee0e4febb5226" target="_top" xlink:title="Get the layer encompassing the lowest hail growth zone (&#45;10 to &#45;30 C)">
<polygon fill="white" stroke="#666666" points="114.5,-30 7.5,-30 7.5,0 114.5,0 114.5,-30"/>
<text text-anchor="start" x="15.5" y="-18" font-family="Helvetica,sans-Serif" font-size="10.00">sharp::hail_growth</text>
<text text-anchor="middle" x="61" y="-7" font-family="Helvetica,sans-Serif" font-size="10.00">_layer</text>
</a>
</g>
</g>
<!-- Node1&#45;&gt;Node3 -->
<g id="edge2" class="edge">
<title>Node1&#45;&gt;Node3</title>
<path fill="none" stroke="#63b8ff" d="M147.47,-25.91C136.29,-24.48 125.03,-23.05 114.52,-21.7"/>
<polygon fill="#63b8ff" stroke="#63b8ff" points="147.33,-29.42 157.69,-27.22 148.21,-22.48 147.33,-29.42"/>
</g>
</g>
</svg>
