<?xml version="1.0" encoding="UTF-8" standalone="no"?>
<!DOCTYPE svg PUBLIC "-//W3C//DTD SVG 1.1//EN"
 "http://www.w3.org/Graphics/SVG/1.1/DTD/svg11.dtd">
<!-- Generated by graphviz version 2.43.0 (0)
 -->
<!-- Title: sharp::height_layer_to_pressure Pages: 1 -->
<svg width="446pt" height="97pt"
 viewBox="0.00 0.00 446.00 96.50" xmlns="http://www.w3.org/2000/svg" xmlns:xlink="http://www.w3.org/1999/xlink">
<g id="graph0" class="graph" transform="scale(1 1) rotate(0) translate(4 92.5)">
<title>sharp::height_layer_to_pressure</title>
<!-- Node1 -->
<g id="node1" class="node">
<title>Node1</title>
<g id="a_node1"><a xlink:title="Converts a sharp::HeightLayer to a sharp::PressureLayer.">
<polygon fill="#999999" stroke="#666666" points="438,-72 328,-72 328,-42 438,-42 438,-72"/>
<text text-anchor="start" x="336" y="-60" font-family="Helvetica,sans-Serif" font-size="10.00">sharp::height_layer</text>
<text text-anchor="middle" x="383" y="-49" font-family="Helvetica,sans-Serif" font-size="10.00">_to_pressure</text>
</a>
</g>
</g>
<!-- Node2 -->
<g id="node2" class="node">
<title>Node2</title>
<g id="a_node2"><a xlink:href="namespacesharp.html#aa0726266b4777806bae4e8054e01684c" target="_top" xlink:title="Computes the mass&#45;weighted mean value of a field over a given height layer.">
<polygon fill="white" stroke="#666666" points="286.5,-88.5 179.5,-88.5 179.5,-69.5 286.5,-69.5 286.5,-88.5"/>
<text text-anchor="middle" x="233" y="-76.5" font-family="Helvetica,sans-Serif" font-size="10.00">sharp::layer_mean</text>
</a>
</g>
</g>
<!-- Node1&#45;&gt;Node2 -->
<g id="edge1" class="edge">
<title>Node1&#45;&gt;Node2</title>
<path fill="none" stroke="#63b8ff" d="M317.56,-66.58C307.28,-68.11 296.75,-69.67 286.78,-71.15"/>
<polygon fill="#63b8ff" stroke="#63b8ff" points="318.35,-70 327.73,-65.07 317.32,-63.08 318.35,-70"/>
</g>
<!-- Node3 -->
<g id="node3" class="node">
<title>Node3</title>
<g id="a_node3"><a xlink:href="namespacesharp.html#a74a735636c932467b4d2ced544e0cb51" target="_top" xlink:title="Estimates supercell storm motion using the Bunkers et al. 2000 method.">
<polygon fill="white" stroke="#666666" points="292,-51 174,-51 174,-21 292,-21 292,-51"/>
<text text-anchor="start" x="182" y="-39" font-family="Helvetica,sans-Serif" font-size="10.00">sharp::storm_motion</text>
<text text-anchor="middle" x="233" y="-28" font-family="Helvetica,sans-Serif" font-size="10.00">_bunkers</text>
</a>
</g>
</g>
<!-- Node1&#45;&gt;Node3 -->
<g id="edge2" class="edge">
<title>Node1&#45;&gt;Node3</title>
<path fill="none" stroke="#63b8ff" d="M317.57,-47.86C309.15,-46.66 300.56,-45.44 292.25,-44.26"/>
<polygon fill="#63b8ff" stroke="#63b8ff" points="317.34,-51.36 327.73,-49.3 318.32,-44.43 317.34,-51.36"/>
</g>
<!-- Node4 -->
<g id="node4" class="node">
<title>Node4</title>
<g id="a_node4"><a xlink:href="namespacesharp.html#a72bbdc4cfe7895dd51981902ac9fc822" target="_top" xlink:title="Computes Entrainment CAPE using a previously lifted parcel.">
<polygon fill="white" stroke="#666666" points="138,-67.5 0,-67.5 0,-48.5 138,-48.5 138,-67.5"/>
<text text-anchor="middle" x="69" y="-55.5" font-family="Helvetica,sans-Serif" font-size="10.00">sharp::entrainment_cape</text>
</a>
</g>
</g>
<!-- Node3&#45;&gt;Node4 -->
<g id="edge3" class="edge">
<title>Node3&#45;&gt;Node4</title>
<path fill="none" stroke="#63b8ff" d="M164.03,-45.23C155.46,-46.39 146.69,-47.59 138.12,-48.75"/>
<polygon fill="#63b8ff" stroke="#63b8ff" points="164.53,-48.69 173.97,-43.88 163.59,-41.76 164.53,-48.69"/>
</g>
<!-- Node5 -->
<g id="node5" class="node">
<title>Node5</title>
<g id="a_node5"><a xlink:href="namespacesharp.html#a31d937d833aa80555a0a78890c370f42" target="_top" xlink:title="Estimates supercell storm motion by using the Bunkers et al. 2014 method.">
<polygon fill="white" stroke="#666666" points="128,-30 10,-30 10,0 128,0 128,-30"/>
<text text-anchor="start" x="18" y="-18" font-family="Helvetica,sans-Serif" font-size="10.00">sharp::storm_motion</text>
<text text-anchor="middle" x="69" y="-7" font-family="Helvetica,sans-Serif" font-size="10.00">_bunkers</text>
</a>
</g>
</g>
<!-- Node3&#45;&gt;Node5 -->
<g id="edge4" class="edge">
<title>Node3&#45;&gt;Node5</title>
<path fill="none" stroke="#63b8ff" d="M163.7,-27.15C151.88,-25.61 139.69,-24.03 128.17,-22.54"/>
<polygon fill="#63b8ff" stroke="#63b8ff" points="163.6,-30.66 173.97,-28.48 164.5,-23.72 163.6,-30.66"/>
</g>
</g>
</svg>
