<?xml version="1.0" encoding="UTF-8" standalone="no"?>
<!DOCTYPE svg PUBLIC "-//W3C//DTD SVG 1.1//EN"
 "http://www.w3.org/Graphics/SVG/1.1/DTD/svg11.dtd">
<!-- Generated by graphviz version 2.43.0 (0)
 -->
<!-- Title: sharp::__lerp Pages: 1 -->
<svg width="870pt" height="763pt"
 viewBox="0.00 0.00 870.00 762.50" xmlns="http://www.w3.org/2000/svg" xmlns:xlink="http://www.w3.org/1999/xlink">
<g id="graph0" class="graph" transform="scale(1 1) rotate(0) translate(4 758.5)">
<title>sharp::__lerp</title>
<!-- Node1 -->
<g id="node1" class="node">
<title>Node1</title>
<g id="a_node1"><a xlink:title="Linearly interpolates between a and b with distance t.">
<polygon fill="#999999" stroke="#666666" points="862,-469 783,-469 783,-450 862,-450 862,-469"/>
<text text-anchor="middle" x="822.5" y="-457" font-family="Helvetica,sans-Serif" font-size="10.00">sharp::__lerp</text>
</a>
</g>
</g>
<!-- Node2 -->
<g id="node2" class="node">
<title>Node2</title>
<g id="a_node2"><a xlink:href="namespacesharp.html#a0bf533560780fdb77bc3656db8d89208" target="_top" xlink:title="Linearly interpolates between a and b with distance t.">
<polygon fill="white" stroke="#666666" points="747,-469 679,-469 679,-450 747,-450 747,-469"/>
<text text-anchor="middle" x="713" y="-457" font-family="Helvetica,sans-Serif" font-size="10.00">sharp::lerp</text>
</a>
</g>
</g>
<!-- Node1&#45;&gt;Node2 -->
<g id="edge1" class="edge">
<title>Node1&#45;&gt;Node2</title>
<path fill="none" stroke="#63b8ff" d="M772.94,-459.5C764.25,-459.5 755.39,-459.5 747.26,-459.5"/>
<polygon fill="#63b8ff" stroke="#63b8ff" points="772.99,-463 782.99,-459.5 772.99,-456 772.99,-463"/>
</g>
<!-- Node3 -->
<g id="node3" class="node">
<title>Node3</title>
<g id="a_node3"><a xlink:href="namespacesharp.html#a2d01c40d782d2838065087c5544a23bf" target="_top" xlink:title="Find the height lecel of first occurrence of a given value.">
<polygon fill="white" stroke="#666666" points="637.5,-644 509.5,-644 509.5,-625 637.5,-625 637.5,-644"/>
<text text-anchor="middle" x="573.5" y="-632" font-family="Helvetica,sans-Serif" font-size="10.00">sharp::find_first_height</text>
</a>
</g>
</g>
<!-- Node2&#45;&gt;Node3 -->
<g id="edge2" class="edge">
<title>Node2&#45;&gt;Node3</title>
<path fill="none" stroke="#63b8ff" d="M708.97,-479.28C702.78,-512.68 685.51,-580.2 643,-616.5 638.98,-619.94 634.38,-622.72 629.5,-624.99"/>
<polygon fill="#63b8ff" stroke="#63b8ff" points="712.43,-479.79 710.66,-469.35 705.53,-478.62 712.43,-479.79"/>
</g>
<!-- Node4 -->
<g id="node4" class="node">
<title>Node4</title>
<g id="a_node4"><a xlink:href="namespacesharp.html#a5a3a584cc97815f2911b7a6c53c9c778" target="_top" xlink:title="Find the pressure level of first occurrence of a given value.">
<polygon fill="white" stroke="#666666" points="643,-607 504,-607 504,-588 643,-588 643,-607"/>
<text text-anchor="middle" x="573.5" y="-595" font-family="Helvetica,sans-Serif" font-size="10.00">sharp::find_first_pressure</text>
</a>
</g>
</g>
<!-- Node2&#45;&gt;Node4 -->
<g id="edge3" class="edge">
<title>Node2&#45;&gt;Node4</title>
<path fill="none" stroke="#63b8ff" d="M694.7,-476.87C665.51,-506.17 607.4,-564.48 584.3,-587.67"/>
<polygon fill="#63b8ff" stroke="#63b8ff" points="697.53,-478.98 702.11,-469.43 692.57,-474.04 697.53,-478.98"/>
</g>
<!-- Node7 -->
<g id="node7" class="node">
<title>Node7</title>
<g id="a_node7"><a xlink:href="namespacesharp.html#ae8240f026498ad2775633a8d0dcf100d" target="_top" xlink:title="Linearly interpolate a data field to a requested height level.">
<polygon fill="white" stroke="#666666" points="630.5,-237 516.5,-237 516.5,-218 630.5,-218 630.5,-237"/>
<text text-anchor="middle" x="573.5" y="-225" font-family="Helvetica,sans-Serif" font-size="10.00">sharp::interp_height</text>
</a>
</g>
</g>
<!-- Node2&#45;&gt;Node7 -->
<g id="edge6" class="edge">
<title>Node2&#45;&gt;Node7</title>
<path fill="none" stroke="#63b8ff" d="M701.07,-441.06C673.37,-394.33 601.18,-272.51 580.26,-237.22"/>
<polygon fill="#63b8ff" stroke="#63b8ff" points="698.16,-443.01 706.27,-449.83 704.18,-439.44 698.16,-443.01"/>
</g>
<!-- Node29 -->
<g id="node29" class="node">
<title>Node29</title>
<g id="a_node29"><a xlink:href="namespacesharp.html#a55e4f8ee4ff8a4a30d7b3f3d92a41c75" target="_top" xlink:title="Linearly interpolate a data field to a requested pressure level.">
<polygon fill="white" stroke="#666666" points="636,-451 511,-451 511,-432 636,-432 636,-451"/>
<text text-anchor="middle" x="573.5" y="-439" font-family="Helvetica,sans-Serif" font-size="10.00">sharp::interp_pressure</text>
</a>
</g>
</g>
<!-- Node2&#45;&gt;Node29 -->
<g id="edge32" class="edge">
<title>Node2&#45;&gt;Node29</title>
<path fill="none" stroke="#63b8ff" d="M668.74,-453.84C658.42,-452.49 647.21,-451.02 636.24,-449.58"/>
<polygon fill="#63b8ff" stroke="#63b8ff" points="668.35,-457.32 678.72,-455.15 669.25,-450.38 668.35,-457.32"/>
</g>
<!-- Node5 -->
<g id="node5" class="node">
<title>Node5</title>
<g id="a_node5"><a xlink:href="namespacesharp.html#ae179ed56eaa16f22b4bf3583c0c4d5c2" target="_top" xlink:title="Get the layer encompassing the lowest dendritic growth zone (&#45;12 to &#45;17 C)">
<polygon fill="white" stroke="#666666" points="467,-706 345,-706 345,-687 467,-687 467,-706"/>
<text text-anchor="middle" x="406" y="-694" font-family="Helvetica,sans-Serif" font-size="10.00">sharp::dendritic_layer</text>
</a>
</g>
</g>
<!-- Node4&#45;&gt;Node5 -->
<g id="edge4" class="edge">
<title>Node4&#45;&gt;Node5</title>
<path fill="none" stroke="#63b8ff" d="M512.4,-611.26C509.45,-612.82 506.63,-614.56 504,-616.5 480.18,-634.05 490.87,-653.73 468,-672.5 460.52,-678.64 451.28,-683.35 442.28,-686.9"/>
<polygon fill="#63b8ff" stroke="#63b8ff" points="513.89,-614.42 521.53,-607.08 510.98,-608.06 513.89,-614.42"/>
</g>
<!-- Node6 -->
<g id="node6" class="node">
<title>Node6</title>
<g id="a_node6"><a xlink:href="namespacesharp.html#aa20009e7c666c469ae2ee0e4febb5226" target="_top" xlink:title="Get the layer encompassing the lowest hail growth zone (&#45;10 to &#45;30 C)">
<polygon fill="white" stroke="#666666" points="459.5,-754.5 352.5,-754.5 352.5,-724.5 459.5,-724.5 459.5,-754.5"/>
<text text-anchor="start" x="360.5" y="-742.5" font-family="Helvetica,sans-Serif" font-size="10.00">sharp::hail_growth</text>
<text text-anchor="middle" x="406" y="-731.5" font-family="Helvetica,sans-Serif" font-size="10.00">_layer</text>
</a>
</g>
</g>
<!-- Node4&#45;&gt;Node6 -->
<g id="edge5" class="edge">
<title>Node4&#45;&gt;Node6</title>
<path fill="none" stroke="#63b8ff" d="M509.41,-612.18C507.5,-613.5 505.69,-614.94 504,-616.5 469.63,-648.29 500.67,-681.97 468,-715.5 464.66,-718.93 460.78,-721.87 456.62,-724.41"/>
<polygon fill="#63b8ff" stroke="#63b8ff" points="511.32,-615.11 518.25,-607.1 507.84,-609.04 511.32,-615.11"/>
</g>
<!-- Node8 -->
<g id="node8" class="node">
<title>Node8</title>
<g id="a_node8"><a xlink:href="namespacesharp.html#a72bbdc4cfe7895dd51981902ac9fc822" target="_top" xlink:title="Computes Entrainment CAPE using a previously lifted parcel.">
<polygon fill="white" stroke="#666666" points="138,-387 0,-387 0,-368 138,-368 138,-387"/>
<text text-anchor="middle" x="69" y="-375" font-family="Helvetica,sans-Serif" font-size="10.00">sharp::entrainment_cape</text>
</a>
</g>
</g>
<!-- Node7&#45;&gt;Node8 -->
<g id="edge7" class="edge">
<title>Node7&#45;&gt;Node8</title>
<path fill="none" stroke="#63b8ff" d="M559.9,-209.95C542.09,-186.46 507.33,-145.14 468,-122.5 353.6,-56.66 278.04,0.73 174,-80.5 122,-121.1 159.48,-162.13 138,-224.5 118.79,-280.3 87.29,-343.81 75.07,-367.72"/>
<polygon fill="#63b8ff" stroke="#63b8ff" points="557.1,-212.05 565.86,-218 562.72,-207.88 557.1,-212.05"/>
</g>
<!-- Node9 -->
<g id="node9" class="node">
<title>Node9</title>
<g id="a_node9"><a xlink:href="namespacesharp.html#ab77e344c7462c9615b0ddac228bc2193" target="_top" xlink:title="Converts a sharp::HeightLayer to a sharp::PressureLayer.">
<polygon fill="white" stroke="#666666" points="461,-199.5 351,-199.5 351,-169.5 461,-169.5 461,-199.5"/>
<text text-anchor="start" x="359" y="-187.5" font-family="Helvetica,sans-Serif" font-size="10.00">sharp::height_layer</text>
<text text-anchor="middle" x="406" y="-176.5" font-family="Helvetica,sans-Serif" font-size="10.00">_to_pressure</text>
</a>
</g>
</g>
<!-- Node7&#45;&gt;Node9 -->
<g id="edge8" class="edge">
<title>Node7&#45;&gt;Node9</title>
<path fill="none" stroke="#63b8ff" d="M525.91,-215.4C505.79,-210.17 482.13,-204.02 461.23,-198.59"/>
<polygon fill="#63b8ff" stroke="#63b8ff" points="525.21,-218.83 535.77,-217.96 526.97,-212.06 525.21,-218.83"/>
</g>
<!-- Node13 -->
<g id="node13" class="node">
<title>Node13</title>
<g id="a_node13"><a xlink:href="namespacesharp.html#a80858337a63be77bafadbb343d6e4931" target="_top" xlink:title="Computes the Storm Relative Helicity (SRH) over a given layer.">
<polygon fill="white" stroke="#666666" points="449,-237 363,-237 363,-218 449,-218 449,-237"/>
<text text-anchor="middle" x="406" y="-225" font-family="Helvetica,sans-Serif" font-size="10.00">sharp::helicity</text>
</a>
</g>
</g>
<!-- Node7&#45;&gt;Node13 -->
<g id="edge13" class="edge">
<title>Node7&#45;&gt;Node13</title>
<path fill="none" stroke="#63b8ff" d="M506.23,-227.5C486.96,-227.5 466.45,-227.5 449.1,-227.5"/>
<polygon fill="#63b8ff" stroke="#63b8ff" points="506.47,-231 516.47,-227.5 506.47,-224 506.47,-231"/>
</g>
<!-- Node15 -->
<g id="node15" class="node">
<title>Node15</title>
<g id="a_node15"><a xlink:href="namespacesharp.html#a8ab599fbfe2b3793d7af8399c17d1327" target="_top" xlink:title="Returns a trapezoidal integration of the given layer.">
<polygon fill="white" stroke="#666666" points="468,-387.5 344,-387.5 344,-357.5 468,-357.5 468,-387.5"/>
<text text-anchor="start" x="352" y="-375.5" font-family="Helvetica,sans-Serif" font-size="10.00">sharp::integrate_layer</text>
<text text-anchor="middle" x="406" y="-364.5" font-family="Helvetica,sans-Serif" font-size="10.00">_trapz</text>
</a>
</g>
</g>
<!-- Node7&#45;&gt;Node15 -->
<g id="edge15" class="edge">
<title>Node7&#45;&gt;Node15</title>
<path fill="none" stroke="#63b8ff" d="M558.98,-245.27C540.37,-268.88 504.94,-310.95 468,-339.5 459.33,-346.2 449.12,-352.31 439.55,-357.4"/>
<polygon fill="#63b8ff" stroke="#63b8ff" points="561.88,-247.23 565.25,-237.19 556.36,-242.94 561.88,-247.23"/>
</g>
<!-- Node20 -->
<g id="node20" class="node">
<title>Node20</title>
<g id="a_node20"><a xlink:href="structsharp_1_1Parcel.html#a1bf670e79f35a1ce8c904b7ead32ccbe" target="_top" xlink:title="Construct and return a mixed&#45;layer Parcel.">
<polygon fill="white" stroke="#666666" points="126.5,-215.5 11.5,-215.5 11.5,-185.5 126.5,-185.5 126.5,-215.5"/>
<text text-anchor="start" x="19.5" y="-203.5" font-family="Helvetica,sans-Serif" font-size="10.00">sharp::Parcel::mixed</text>
<text text-anchor="middle" x="69" y="-192.5" font-family="Helvetica,sans-Serif" font-size="10.00">_layer_parcel</text>
</a>
</g>
</g>
<!-- Node7&#45;&gt;Node20 -->
<g id="edge30" class="edge">
<title>Node7&#45;&gt;Node20</title>
<path fill="none" stroke="#63b8ff" d="M567.96,-207.82C557.79,-168.87 529.12,-82.69 468,-47.5 354.76,17.7 289.48,13.63 174,-47.5 117.8,-77.26 86.32,-152.51 74.94,-185.08"/>
<polygon fill="#63b8ff" stroke="#63b8ff" points="564.6,-208.81 570.4,-217.67 571.39,-207.13 564.6,-208.81"/>
</g>
<!-- Node22 -->
<g id="node22" class="node">
<title>Node22</title>
<g id="a_node22"><a xlink:href="namespacesharp.html#a43a01274768ee388a983046651a230d3" target="_top" xlink:title="compute the lapse rate over the given sharp::HeightLayer (AGL)">
<polygon fill="white" stroke="#666666" points="456.5,-151 355.5,-151 355.5,-132 456.5,-132 456.5,-151"/>
<text text-anchor="middle" x="406" y="-139" font-family="Helvetica,sans-Serif" font-size="10.00">sharp::lapse_rate</text>
</a>
</g>
</g>
<!-- Node7&#45;&gt;Node22 -->
<g id="edge24" class="edge">
<title>Node7&#45;&gt;Node22</title>
<path fill="none" stroke="#63b8ff" d="M551.72,-211.79C531.3,-196.94 498.8,-174.85 468,-160.5 460.26,-156.9 451.65,-153.74 443.41,-151.09"/>
<polygon fill="#63b8ff" stroke="#63b8ff" points="549.83,-214.74 559.95,-217.86 553.98,-209.11 549.83,-214.74"/>
</g>
<!-- Node25 -->
<g id="node25" class="node">
<title>Node25</title>
<g id="a_node25"><a xlink:href="namespacesharp.html#a646b65095b84511b75f6a4a81e545e80" target="_top" xlink:title="Template for min/max value over sharp::PressureLayer or sharp::HeightLayer.">
<polygon fill="white" stroke="#666666" points="466,-274 346,-274 346,-255 466,-255 466,-274"/>
<text text-anchor="middle" x="406" y="-262" font-family="Helvetica,sans-Serif" font-size="10.00">sharp::layer_minmax</text>
</a>
</g>
</g>
<!-- Node7&#45;&gt;Node25 -->
<g id="edge27" class="edge">
<title>Node7&#45;&gt;Node25</title>
<path fill="none" stroke="#63b8ff" d="M520.08,-239.22C497.41,-244.29 471.23,-250.14 449.76,-254.94"/>
<polygon fill="#63b8ff" stroke="#63b8ff" points="520.88,-242.63 529.88,-237.03 519.36,-235.8 520.88,-242.63"/>
</g>
<!-- Node28 -->
<g id="node28" class="node">
<title>Node28</title>
<g id="a_node28"><a xlink:href="namespacesharp.html#a099a4575acc27d6e10f9dfb69bc315a1" target="_top" xlink:title="Compue the wind shear for a given layer.">
<polygon fill="white" stroke="#666666" points="458.5,-330 353.5,-330 353.5,-311 458.5,-311 458.5,-330"/>
<text text-anchor="middle" x="406" y="-318" font-family="Helvetica,sans-Serif" font-size="10.00">sharp::wind_shear</text>
</a>
</g>
</g>
<!-- Node7&#45;&gt;Node28 -->
<g id="edge31" class="edge">
<title>Node7&#45;&gt;Node28</title>
<path fill="none" stroke="#63b8ff" d="M546.49,-242.12C512.34,-261.31 453.34,-294.46 424.24,-310.81"/>
<polygon fill="#63b8ff" stroke="#63b8ff" points="548.41,-245.05 555.41,-237.1 544.98,-238.95 548.41,-245.05"/>
</g>
<!-- Node10 -->
<g id="node10" class="node">
<title>Node10</title>
<g id="a_node10"><a xlink:href="namespacesharp.html#aa0726266b4777806bae4e8054e01684c" target="_top" xlink:title="Computes the mass&#45;weighted mean value of a field over a given height layer.">
<polygon fill="white" stroke="#666666" points="294.5,-146 187.5,-146 187.5,-127 294.5,-127 294.5,-146"/>
<text text-anchor="middle" x="241" y="-134" font-family="Helvetica,sans-Serif" font-size="10.00">sharp::layer_mean</text>
</a>
</g>
</g>
<!-- Node9&#45;&gt;Node10 -->
<g id="edge9" class="edge">
<title>Node9&#45;&gt;Node10</title>
<path fill="none" stroke="#63b8ff" d="M345.01,-166.46C332.77,-162.81 319.98,-159.02 308,-155.5 297.36,-152.38 285.74,-149.02 275.26,-146"/>
<polygon fill="#63b8ff" stroke="#63b8ff" points="344.1,-169.84 354.68,-169.35 346.1,-163.14 344.1,-169.84"/>
</g>
<!-- Node11 -->
<g id="node11" class="node">
<title>Node11</title>
<g id="a_node11"><a xlink:href="namespacesharp.html#a74a735636c932467b4d2ced544e0cb51" target="_top" xlink:title="Estimates supercell storm motion using the Bunkers et al. 2000 method.">
<polygon fill="white" stroke="#666666" points="300,-478.5 182,-478.5 182,-448.5 300,-448.5 300,-478.5"/>
<text text-anchor="start" x="190" y="-466.5" font-family="Helvetica,sans-Serif" font-size="10.00">sharp::storm_motion</text>
<text text-anchor="middle" x="241" y="-455.5" font-family="Helvetica,sans-Serif" font-size="10.00">_bunkers</text>
</a>
</g>
</g>
<!-- Node9&#45;&gt;Node11 -->
<g id="edge10" class="edge">
<title>Node9&#45;&gt;Node11</title>
<path fill="none" stroke="#63b8ff" d="M347.18,-206.02C346.06,-207.12 344.99,-208.28 344,-209.5 289.17,-276.81 349.7,-325.35 308,-401.5 297.5,-420.67 278.95,-437.3 264.18,-448.5"/>
<polygon fill="#63b8ff" stroke="#63b8ff" points="349.7,-208.48 355.33,-199.51 345.33,-203.01 349.7,-208.48"/>
</g>
<!-- Node11&#45;&gt;Node8 -->
<g id="edge11" class="edge">
<title>Node11&#45;&gt;Node8</title>
<path fill="none" stroke="#63b8ff" d="M194.71,-444.23C187.73,-441.08 180.64,-437.77 174,-434.5 142.42,-418.94 106.62,-398.74 86.34,-387.04"/>
<polygon fill="#63b8ff" stroke="#63b8ff" points="193.56,-447.55 204.11,-448.41 196.4,-441.15 193.56,-447.55"/>
</g>
<!-- Node12 -->
<g id="node12" class="node">
<title>Node12</title>
<g id="a_node12"><a xlink:href="namespacesharp.html#a31d937d833aa80555a0a78890c370f42" target="_top" xlink:title="Estimates supercell storm motion by using the Bunkers et al. 2014 method.">
<polygon fill="white" stroke="#666666" points="128,-645.5 10,-645.5 10,-615.5 128,-615.5 128,-645.5"/>
<text text-anchor="start" x="18" y="-633.5" font-family="Helvetica,sans-Serif" font-size="10.00">sharp::storm_motion</text>
<text text-anchor="middle" x="69" y="-622.5" font-family="Helvetica,sans-Serif" font-size="10.00">_bunkers</text>
</a>
</g>
</g>
<!-- Node11&#45;&gt;Node12 -->
<g id="edge12" class="edge">
<title>Node11&#45;&gt;Node12</title>
<path fill="none" stroke="#63b8ff" d="M177.93,-484.74C176.55,-485.93 175.24,-487.18 174,-488.5 136.53,-528.53 175.93,-566.9 138,-606.5 134.71,-609.94 130.9,-612.88 126.79,-615.41"/>
<polygon fill="#63b8ff" stroke="#63b8ff" points="180.35,-487.31 186.44,-478.64 176.27,-481.62 180.35,-487.31"/>
</g>
<!-- Node14 -->
<g id="node14" class="node">
<title>Node14</title>
<g id="a_node14"><a xlink:href="namespacesharp.html#ab89a7e3555a52f0fd9f4086d5aba7037" target="_top" xlink:title=" ">
<polygon fill="white" stroke="#666666" points="303.5,-194.5 178.5,-194.5 178.5,-164.5 303.5,-164.5 303.5,-194.5"/>
<text text-anchor="start" x="186.5" y="-182.5" font-family="Helvetica,sans-Serif" font-size="10.00">sharp::energy_helicity</text>
<text text-anchor="middle" x="241" y="-171.5" font-family="Helvetica,sans-Serif" font-size="10.00">_index</text>
</a>
</g>
</g>
<!-- Node13&#45;&gt;Node14 -->
<g id="edge14" class="edge">
<title>Node13&#45;&gt;Node14</title>
<path fill="none" stroke="#63b8ff" d="M362.69,-215.04C341.44,-208.78 315.52,-201.15 293.15,-194.57"/>
<polygon fill="#63b8ff" stroke="#63b8ff" points="361.82,-218.44 372.41,-217.9 363.8,-211.72 361.82,-218.44"/>
</g>
<!-- Node15&#45;&gt;Node8 -->
<g id="edge19" class="edge">
<title>Node15&#45;&gt;Node8</title>
<path fill="none" stroke="#63b8ff" d="M333.84,-356.94C325.17,-355.52 316.41,-354.32 308,-353.5 248.72,-347.75 233.17,-346.76 174,-353.5 149.88,-356.25 123.21,-362.47 102.92,-367.89"/>
<polygon fill="#63b8ff" stroke="#63b8ff" points="333.5,-360.43 343.95,-358.68 334.69,-353.53 333.5,-360.43"/>
</g>
<!-- Node16 -->
<g id="node16" class="node">
<title>Node16</title>
<g id="a_node16"><a xlink:href="structsharp_1_1Parcel.html#a0560bd193b2d2d6bc6b08baa7463fba4" target="_top" xlink:title="Compute CAPE and CINH for a previously lifted sharp::Parcel.">
<polygon fill="white" stroke="#666666" points="308,-592 174,-592 174,-573 308,-573 308,-592"/>
<text text-anchor="middle" x="241" y="-580" font-family="Helvetica,sans-Serif" font-size="10.00">sharp::Parcel::cape_cinh</text>
</a>
</g>
</g>
<!-- Node15&#45;&gt;Node16 -->
<g id="edge16" class="edge">
<title>Node15&#45;&gt;Node16</title>
<path fill="none" stroke="#63b8ff" d="M382.78,-394.83C370.31,-408.18 355.07,-425.91 344,-443.5 322.8,-477.19 331.64,-493.48 308,-525.5 293.52,-545.11 271.15,-562.6 256.54,-572.88"/>
<polygon fill="#63b8ff" stroke="#63b8ff" points="385.39,-397.17 389.75,-387.51 380.32,-392.34 385.39,-397.17"/>
</g>
<!-- Node19 -->
<g id="node19" class="node">
<title>Node19</title>
<g id="a_node19"><a xlink:href="namespacesharp.html#a298e2c96c389f2c5177d3626c908927e" target="_top" xlink:title="Computes the mass&#45;weighted mean value of a field over a given pressure layer.">
<polygon fill="white" stroke="#666666" points="294.5,-306 187.5,-306 187.5,-287 294.5,-287 294.5,-306"/>
<text text-anchor="middle" x="241" y="-294" font-family="Helvetica,sans-Serif" font-size="10.00">sharp::layer_mean</text>
</a>
</g>
</g>
<!-- Node15&#45;&gt;Node19 -->
<g id="edge20" class="edge">
<title>Node15&#45;&gt;Node19</title>
<path fill="none" stroke="#63b8ff" d="M368.08,-352.55C342.01,-338.49 311.17,-321.92 308,-320.5 296.09,-315.18 282.61,-310.11 270.94,-306.02"/>
<polygon fill="#63b8ff" stroke="#63b8ff" points="366.59,-355.72 377.05,-357.39 369.91,-349.56 366.59,-355.72"/>
</g>
<!-- Node21 -->
<g id="node21" class="node">
<title>Node21</title>
<g id="a_node21"><a xlink:href="namespacesharp.html#af910931fdd9e0fe7d63ba7446743e354" target="_top" xlink:title="Computes the precipitable water vapor content over a layer.">
<polygon fill="white" stroke="#666666" points="294.5,-392.5 187.5,-392.5 187.5,-362.5 294.5,-362.5 294.5,-392.5"/>
<text text-anchor="start" x="195.5" y="-380.5" font-family="Helvetica,sans-Serif" font-size="10.00">sharp::precipitable</text>
<text text-anchor="middle" x="241" y="-369.5" font-family="Helvetica,sans-Serif" font-size="10.00">_water</text>
</a>
</g>
</g>
<!-- Node15&#45;&gt;Node21 -->
<g id="edge23" class="edge">
<title>Node15&#45;&gt;Node21</title>
<path fill="none" stroke="#63b8ff" d="M333.48,-374.7C320.44,-375.1 307.05,-375.51 294.68,-375.89"/>
<polygon fill="#63b8ff" stroke="#63b8ff" points="333.95,-378.18 343.84,-374.38 333.74,-371.19 333.95,-378.18"/>
</g>
<!-- Node17 -->
<g id="node17" class="node">
<title>Node17</title>
<g id="a_node17"><a xlink:href="namespacesharp.html#a2e6b7cd4a3594a8f2c2050b0e4784cce" target="_top" xlink:title="Computes the Effective Inflow Layer for a given atmospheric sounding.">
<polygon fill="white" stroke="#666666" points="132.5,-597.5 5.5,-597.5 5.5,-567.5 132.5,-567.5 132.5,-597.5"/>
<text text-anchor="start" x="13.5" y="-585.5" font-family="Helvetica,sans-Serif" font-size="10.00">sharp::effective_inflow</text>
<text text-anchor="middle" x="69" y="-574.5" font-family="Helvetica,sans-Serif" font-size="10.00">_layer</text>
</a>
</g>
</g>
<!-- Node16&#45;&gt;Node17 -->
<g id="edge17" class="edge">
<title>Node16&#45;&gt;Node17</title>
<path fill="none" stroke="#63b8ff" d="M163.55,-582.5C153.23,-582.5 142.74,-582.5 132.69,-582.5"/>
<polygon fill="#63b8ff" stroke="#63b8ff" points="163.79,-586 173.79,-582.5 163.79,-579 163.79,-586"/>
</g>
<!-- Node18 -->
<g id="node18" class="node">
<title>Node18</title>
<g id="a_node18"><a xlink:href="structsharp_1_1Parcel.html#aa258d27992d22d8b80cb221e6e2a6c19" target="_top" xlink:title="Construct and return a most&#45;unstable Parcel.">
<polygon fill="white" stroke="#666666" points="124,-549.5 14,-549.5 14,-519.5 124,-519.5 124,-549.5"/>
<text text-anchor="start" x="22" y="-537.5" font-family="Helvetica,sans-Serif" font-size="10.00">sharp::Parcel::most</text>
<text text-anchor="middle" x="69" y="-526.5" font-family="Helvetica,sans-Serif" font-size="10.00">_unstable_parcel</text>
</a>
</g>
</g>
<!-- Node16&#45;&gt;Node18 -->
<g id="edge18" class="edge">
<title>Node16&#45;&gt;Node18</title>
<path fill="none" stroke="#63b8ff" d="M196.18,-570.13C173.95,-563.85 146.78,-556.18 123.35,-549.57"/>
<polygon fill="#63b8ff" stroke="#63b8ff" points="195.43,-573.56 206.01,-572.9 197.33,-566.82 195.43,-573.56"/>
</g>
<!-- Node19&#45;&gt;Node8 -->
<g id="edge21" class="edge">
<title>Node19&#45;&gt;Node8</title>
<path fill="none" stroke="#63b8ff" d="M201.16,-309.51C192.14,-312.84 182.65,-316.59 174,-320.5 141.74,-335.11 105.88,-355.82 85.82,-367.84"/>
<polygon fill="#63b8ff" stroke="#63b8ff" points="202.48,-312.75 210.7,-306.08 200.11,-306.17 202.48,-312.75"/>
</g>
<!-- Node19&#45;&gt;Node20 -->
<g id="edge22" class="edge">
<title>Node19&#45;&gt;Node20</title>
<path fill="none" stroke="#63b8ff" d="M186.06,-283.63C181.91,-282.09 177.84,-280.38 174,-278.5 139.74,-261.74 105.39,-233.12 86,-215.6"/>
<polygon fill="#63b8ff" stroke="#63b8ff" points="185.24,-287.05 195.84,-286.95 187.49,-280.42 185.24,-287.05"/>
</g>
<!-- Node23 -->
<g id="node23" class="node">
<title>Node23</title>
<g id="a_node23"><a xlink:href="namespacesharp.html#aa4e86da659bfca2eae1f0baddb84a303" target="_top" xlink:title="compute the lapse rate over the given sharp::PressureLayer">
<polygon fill="white" stroke="#666666" points="291.5,-516 190.5,-516 190.5,-497 291.5,-497 291.5,-516"/>
<text text-anchor="middle" x="241" y="-504" font-family="Helvetica,sans-Serif" font-size="10.00">sharp::lapse_rate</text>
</a>
</g>
</g>
<!-- Node22&#45;&gt;Node23 -->
<g id="edge25" class="edge">
<title>Node22&#45;&gt;Node23</title>
<path fill="none" stroke="#63b8ff" d="M347.19,-157.11C346.06,-158.17 344.99,-159.3 344,-160.5 251.02,-273.34 402.2,-375.68 308,-487.5 303.62,-492.7 297.92,-496.53 291.7,-499.33"/>
<polygon fill="#63b8ff" stroke="#63b8ff" points="349.43,-159.81 355.46,-151.1 345.31,-154.15 349.43,-159.81"/>
</g>
<!-- Node24 -->
<g id="node24" class="node">
<title>Node24</title>
<g id="a_node24"><a xlink:href="namespacesharp.html#abd0d1a28608e145c455ace03e787e33b" target="_top" xlink:title="Find the maximum lapse rate within a specified layer/depth (AGL).">
<polygon fill="white" stroke="#666666" points="305,-109 177,-109 177,-90 305,-90 305,-109"/>
<text text-anchor="middle" x="241" y="-97" font-family="Helvetica,sans-Serif" font-size="10.00">sharp::lapse_rate_max</text>
</a>
</g>
</g>
<!-- Node22&#45;&gt;Node24 -->
<g id="edge26" class="edge">
<title>Node22&#45;&gt;Node24</title>
<path fill="none" stroke="#63b8ff" d="M358.32,-129.47C333.19,-123 302.62,-115.12 279.12,-109.07"/>
<polygon fill="#63b8ff" stroke="#63b8ff" points="357.46,-132.87 368.01,-131.97 359.2,-126.09 357.46,-132.87"/>
</g>
<!-- Node26 -->
<g id="node26" class="node">
<title>Node26</title>
<g id="a_node26"><a xlink:href="namespacesharp.html#a6170e3f412ab95b3ba8d9a93ae55dc67" target="_top" xlink:title="Returns the maximim value in the given layer.">
<polygon fill="white" stroke="#666666" points="291.5,-269 190.5,-269 190.5,-250 291.5,-250 291.5,-269"/>
<text text-anchor="middle" x="241" y="-257" font-family="Helvetica,sans-Serif" font-size="10.00">sharp::layer_max</text>
</a>
</g>
</g>
<!-- Node25&#45;&gt;Node26 -->
<g id="edge28" class="edge">
<title>Node25&#45;&gt;Node26</title>
<path fill="none" stroke="#63b8ff" d="M335.57,-262.37C320.79,-261.92 305.47,-261.45 291.61,-261.02"/>
<polygon fill="#63b8ff" stroke="#63b8ff" points="335.59,-265.87 345.69,-262.68 335.8,-258.88 335.59,-265.87"/>
</g>
<!-- Node27 -->
<g id="node27" class="node">
<title>Node27</title>
<g id="a_node27"><a xlink:href="namespacesharp.html#a01a9880c937f63e551893797253da4f7" target="_top" xlink:title="Returns the minimum value in the given layer.">
<polygon fill="white" stroke="#666666" points="290,-232 192,-232 192,-213 290,-213 290,-232"/>
<text text-anchor="middle" x="241" y="-220" font-family="Helvetica,sans-Serif" font-size="10.00">sharp::layer_min</text>
</a>
</g>
</g>
<!-- Node25&#45;&gt;Node27 -->
<g id="edge29" class="edge">
<title>Node25&#45;&gt;Node27</title>
<path fill="none" stroke="#63b8ff" d="M358.32,-252.47C333.19,-246 302.62,-238.12 279.12,-232.07"/>
<polygon fill="#63b8ff" stroke="#63b8ff" points="357.46,-255.87 368.01,-254.97 359.2,-249.09 357.46,-255.87"/>
</g>
<!-- Node29&#45;&gt;Node8 -->
<g id="edge33" class="edge">
<title>Node29&#45;&gt;Node8</title>
<path fill="none" stroke="#63b8ff" d="M500.28,-437.02C420.16,-431.4 287.26,-420.18 174,-401.5 151.33,-397.76 126.22,-392.02 106.35,-387.08"/>
<polygon fill="#63b8ff" stroke="#63b8ff" points="500.52,-440.54 510.74,-437.74 501.01,-433.56 500.52,-440.54"/>
</g>
<!-- Node29&#45;&gt;Node12 -->
<g id="edge46" class="edge">
<title>Node29&#45;&gt;Node12</title>
<path fill="none" stroke="#63b8ff" d="M566.23,-461.02C553.74,-496.44 522.21,-570.94 468,-606.5 364.4,-674.47 211.09,-659.12 128.24,-643.74"/>
<polygon fill="#63b8ff" stroke="#63b8ff" points="569.6,-461.96 569.49,-451.37 562.97,-459.72 569.6,-461.96"/>
</g>
<!-- Node29&#45;&gt;Node13 -->
<g id="edge36" class="edge">
<title>Node29&#45;&gt;Node13</title>
<path fill="none" stroke="#63b8ff" d="M567.47,-422.06C556.34,-382.93 525.93,-294.35 468,-246.5 462.53,-241.98 455.98,-238.53 449.23,-235.9"/>
<polygon fill="#63b8ff" stroke="#63b8ff" points="564.09,-422.98 570.1,-431.71 570.85,-421.14 564.09,-422.98"/>
</g>
<!-- Node29&#45;&gt;Node15 -->
<g id="edge37" class="edge">
<title>Node29&#45;&gt;Node15</title>
<path fill="none" stroke="#63b8ff" d="M540.18,-428.03C512.32,-416.41 472.12,-399.65 443.18,-387.59"/>
<polygon fill="#63b8ff" stroke="#63b8ff" points="538.91,-431.29 549.49,-431.91 541.6,-424.83 538.91,-431.29"/>
</g>
<!-- Node29&#45;&gt;Node25 -->
<g id="edge38" class="edge">
<title>Node29&#45;&gt;Node25</title>
<path fill="none" stroke="#63b8ff" d="M561.65,-422.9C544.43,-394.51 508.62,-339.72 468,-302.5 455.4,-290.96 438.81,-280.88 426.12,-274.02"/>
<polygon fill="#63b8ff" stroke="#63b8ff" points="558.81,-424.98 566.94,-431.78 564.82,-421.4 558.81,-424.98"/>
</g>
<!-- Node29&#45;&gt;Node28 -->
<g id="edge47" class="edge">
<title>Node29&#45;&gt;Node28</title>
<path fill="none" stroke="#63b8ff" d="M556.31,-424.27C536.79,-404.19 502.31,-370.92 468,-348.5 456.88,-341.24 443.57,-334.89 432.22,-330.08"/>
<polygon fill="#63b8ff" stroke="#63b8ff" points="554.04,-426.96 563.49,-431.75 559.1,-422.11 554.04,-426.96"/>
</g>
<!-- Node30 -->
<g id="node30" class="node">
<title>Node30</title>
<g id="a_node30"><a xlink:href="structsharp_1_1Parcel.html#a8a311e09b1d46a829212da94cf181537" target="_top" xlink:title="Find the LFC and EL that bounds the layer with the maximum CAPE.">
<polygon fill="white" stroke="#666666" points="457.5,-597.5 354.5,-597.5 354.5,-567.5 457.5,-567.5 457.5,-597.5"/>
<text text-anchor="start" x="362.5" y="-585.5" font-family="Helvetica,sans-Serif" font-size="10.00">sharp::Parcel::find</text>
<text text-anchor="middle" x="406" y="-574.5" font-family="Helvetica,sans-Serif" font-size="10.00">_lfc_el</text>
</a>
</g>
</g>
<!-- Node29&#45;&gt;Node30 -->
<g id="edge34" class="edge">
<title>Node29&#45;&gt;Node30</title>
<path fill="none" stroke="#63b8ff" d="M560.69,-459.32C543.16,-484.53 508.01,-530.64 468,-558.5 463.24,-561.82 457.95,-564.77 452.54,-567.36"/>
<polygon fill="#63b8ff" stroke="#63b8ff" points="563.58,-461.29 566.32,-451.05 557.8,-457.34 563.58,-461.29"/>
</g>
<!-- Node31 -->
<g id="node31" class="node">
<title>Node31</title>
<g id="a_node31"><a xlink:href="namespacesharp.html#a3c8b9022103d067f30281d68fa81cbda" target="_top" xlink:title="Compute the mean wind over the given sharp::PressureLayer.">
<polygon fill="white" stroke="#666666" points="459,-471 353,-471 353,-452 459,-452 459,-471"/>
<text text-anchor="middle" x="406" y="-459" font-family="Helvetica,sans-Serif" font-size="10.00">sharp::mean_wind</text>
</a>
</g>
</g>
<!-- Node29&#45;&gt;Node31 -->
<g id="edge39" class="edge">
<title>Node29&#45;&gt;Node31</title>
<path fill="none" stroke="#63b8ff" d="M500.79,-450.17C486.8,-451.86 472.39,-453.6 459.18,-455.2"/>
<polygon fill="#63b8ff" stroke="#63b8ff" points="501.37,-453.62 510.87,-448.95 500.53,-446.67 501.37,-453.62"/>
</g>
<!-- Node32 -->
<g id="node32" class="node">
<title>Node32</title>
<g id="a_node32"><a xlink:href="namespacesharp.html#a31da980f398c9f6a5960ddf868101a94" target="_top" xlink:title="Converts a sharp::PressureLayer to a sharp::HeightLayer.">
<polygon fill="white" stroke="#666666" points="467,-549.5 345,-549.5 345,-519.5 467,-519.5 467,-549.5"/>
<text text-anchor="start" x="353" y="-537.5" font-family="Helvetica,sans-Serif" font-size="10.00">sharp::pressure_layer</text>
<text text-anchor="middle" x="406" y="-526.5" font-family="Helvetica,sans-Serif" font-size="10.00">_to_height</text>
</a>
</g>
</g>
<!-- Node29&#45;&gt;Node32 -->
<g id="edge41" class="edge">
<title>Node29&#45;&gt;Node32</title>
<path fill="none" stroke="#63b8ff" d="M546.57,-456.07C515.84,-473.34 464.89,-501.97 433.78,-519.45"/>
<polygon fill="#63b8ff" stroke="#63b8ff" points="548.41,-459.05 555.41,-451.1 544.98,-452.95 548.41,-459.05"/>
</g>
<!-- Node30&#45;&gt;Node16 -->
<g id="edge35" class="edge">
<title>Node30&#45;&gt;Node16</title>
<path fill="none" stroke="#63b8ff" d="M344.2,-582.5C332.47,-582.5 320.14,-582.5 308.25,-582.5"/>
<polygon fill="#63b8ff" stroke="#63b8ff" points="344.32,-586 354.32,-582.5 344.32,-579 344.32,-586"/>
</g>
<!-- Node31&#45;&gt;Node11 -->
<g id="edge40" class="edge">
<title>Node31&#45;&gt;Node11</title>
<path fill="none" stroke="#63b8ff" d="M342.9,-462.26C328.82,-462.44 313.93,-462.62 300.03,-462.79"/>
<polygon fill="#63b8ff" stroke="#63b8ff" points="343.02,-465.76 352.98,-462.14 342.94,-458.76 343.02,-465.76"/>
</g>
<!-- Node32&#45;&gt;Node8 -->
<g id="edge43" class="edge">
<title>Node32&#45;&gt;Node8</title>
<path fill="none" stroke="#63b8ff" d="M334.68,-547.34C286.55,-552.54 222.87,-552.11 174,-525.5 116.08,-493.97 83.2,-414.58 73.26,-387.07"/>
<polygon fill="#63b8ff" stroke="#63b8ff" points="335.18,-550.8 344.7,-546.15 334.36,-543.85 335.18,-550.8"/>
</g>
<!-- Node32&#45;&gt;Node12 -->
<g id="edge45" class="edge">
<title>Node32&#45;&gt;Node12</title>
<path fill="none" stroke="#63b8ff" d="M349.86,-554.64C347.84,-555.86 345.88,-557.15 344,-558.5 323.78,-573.07 329.9,-589.61 308,-601.5 252.4,-631.7 178.92,-636.26 128.39,-634.98"/>
<polygon fill="#63b8ff" stroke="#63b8ff" points="351.92,-557.5 359.04,-549.65 348.58,-551.35 351.92,-557.5"/>
</g>
<!-- Node32&#45;&gt;Node16 -->
<g id="edge42" class="edge">
<title>Node32&#45;&gt;Node16</title>
<path fill="none" stroke="#63b8ff" d="M344.26,-552.39C320.59,-559.36 294.42,-567.07 274.48,-572.94"/>
<polygon fill="#63b8ff" stroke="#63b8ff" points="345.27,-555.74 353.87,-549.56 343.29,-549.03 345.27,-555.74"/>
</g>
<!-- Node32&#45;&gt;Node23 -->
<g id="edge44" class="edge">
<title>Node32&#45;&gt;Node23</title>
<path fill="none" stroke="#63b8ff" d="M334.8,-522.44C320.25,-519.94 305.21,-517.36 291.59,-515.02"/>
<polygon fill="#63b8ff" stroke="#63b8ff" points="334.32,-525.91 344.77,-524.16 335.5,-519.01 334.32,-525.91"/>
</g>
</g>
</svg>
