<?xml version="1.0" encoding="UTF-8" standalone="no"?>
<!DOCTYPE svg PUBLIC "-//W3C//DTD SVG 1.1//EN"
 "http://www.w3.org/Graphics/SVG/1.1/DTD/svg11.dtd">
<!-- Generated by graphviz version 2.43.0 (0)
 -->
<!-- Title: sharp::buoyancy Pages: 1 -->
<svg width="430pt" height="161pt"
 viewBox="0.00 0.00 430.00 161.00" xmlns="http://www.w3.org/2000/svg" xmlns:xlink="http://www.w3.org/1999/xlink">
<g id="graph0" class="graph" transform="scale(1 1) rotate(0) translate(4 157)">
<title>sharp::buoyancy</title>
<!-- Node1 -->
<g id="node1" class="node">
<title>Node1</title>
<g id="a_node1"><a xlink:title="compute buoyancy given parcel and environment temperatures">
<polygon fill="#999999" stroke="#666666" points="422,-86 325,-86 325,-67 422,-67 422,-86"/>
<text text-anchor="middle" x="373.5" y="-74" font-family="Helvetica,sans-Serif" font-size="10.00">sharp::buoyancy</text>
</a>
</g>
</g>
<!-- Node2 -->
<g id="node2" class="node">
<title>Node2</title>
<g id="a_node2"><a xlink:href="namespacesharp.html#a02c8d90f07b87e0051b2d117da66d11c" target="_top" xlink:title="Compute buoyancy given arrays of parcel &amp; environment temperatures.">
<polygon fill="white" stroke="#666666" points="274,-153 177,-153 177,-134 274,-134 274,-153"/>
<text text-anchor="middle" x="225.5" y="-141" font-family="Helvetica,sans-Serif" font-size="10.00">sharp::buoyancy</text>
</a>
</g>
</g>
<!-- Node1&#45;&gt;Node2 -->
<g id="edge1" class="edge">
<title>Node1&#45;&gt;Node2</title>
<path fill="none" stroke="#63b8ff" d="M349.4,-91.68C333.04,-101.96 310.29,-115.28 289,-124.5 280.78,-128.06 271.68,-131.23 263.03,-133.91"/>
<polygon fill="#63b8ff" stroke="#63b8ff" points="351.7,-94.37 358.24,-86.04 347.93,-88.47 351.7,-94.37"/>
</g>
<!-- Node3 -->
<g id="node3" class="node">
<title>Node3</title>
<g id="a_node3"><a xlink:href="namespacesharp.html#a2e6b7cd4a3594a8f2c2050b0e4784cce" target="_top" xlink:title="Computes the Effective Inflow Layer for a given atmospheric sounding.">
<polygon fill="white" stroke="#666666" points="289,-115.5 162,-115.5 162,-85.5 289,-85.5 289,-115.5"/>
<text text-anchor="start" x="170" y="-103.5" font-family="Helvetica,sans-Serif" font-size="10.00">sharp::effective_inflow</text>
<text text-anchor="middle" x="225.5" y="-92.5" font-family="Helvetica,sans-Serif" font-size="10.00">_layer</text>
</a>
</g>
</g>
<!-- Node1&#45;&gt;Node3 -->
<g id="edge2" class="edge">
<title>Node1&#45;&gt;Node3</title>
<path fill="none" stroke="#63b8ff" d="M314.61,-86.02C306.21,-87.4 297.52,-88.83 289.03,-90.22"/>
<polygon fill="#63b8ff" stroke="#63b8ff" points="315.39,-89.43 324.69,-84.36 314.26,-82.53 315.39,-89.43"/>
</g>
<!-- Node5 -->
<g id="node5" class="node">
<title>Node5</title>
<g id="a_node5"><a xlink:href="structsharp_1_1Parcel.html#aa258d27992d22d8b80cb221e6e2a6c19" target="_top" xlink:title="Construct and return a most&#45;unstable Parcel.">
<polygon fill="white" stroke="#666666" points="280.5,-67.5 170.5,-67.5 170.5,-37.5 280.5,-37.5 280.5,-67.5"/>
<text text-anchor="start" x="178.5" y="-55.5" font-family="Helvetica,sans-Serif" font-size="10.00">sharp::Parcel::most</text>
<text text-anchor="middle" x="225.5" y="-44.5" font-family="Helvetica,sans-Serif" font-size="10.00">_unstable_parcel</text>
</a>
</g>
</g>
<!-- Node1&#45;&gt;Node5 -->
<g id="edge4" class="edge">
<title>Node1&#45;&gt;Node5</title>
<path fill="none" stroke="#63b8ff" d="M314.61,-66.98C303.44,-65.15 291.78,-63.23 280.74,-61.42"/>
<polygon fill="#63b8ff" stroke="#63b8ff" points="314.26,-70.47 324.69,-68.64 315.39,-63.57 314.26,-70.47"/>
</g>
<!-- Node6 -->
<g id="node6" class="node">
<title>Node6</title>
<g id="a_node6"><a xlink:href="thermo__wrap_8cpp.html#a0773efaf4b0c3b69bc8349f1eee0292b" target="_top" xlink:title=" ">
<polygon fill="white" stroke="#666666" points="273.5,-19 177.5,-19 177.5,0 273.5,0 273.5,-19"/>
<text text-anchor="middle" x="225.5" y="-7" font-family="Helvetica,sans-Serif" font-size="10.00">sharp_buoyancy</text>
</a>
</g>
</g>
<!-- Node1&#45;&gt;Node6 -->
<g id="edge5" class="edge">
<title>Node1&#45;&gt;Node6</title>
<path fill="none" stroke="#63b8ff" d="M349.4,-61.32C333.04,-51.04 310.29,-37.72 289,-28.5 280.78,-24.94 271.68,-21.77 263.03,-19.09"/>
<polygon fill="#63b8ff" stroke="#63b8ff" points="347.93,-64.53 358.24,-66.96 351.7,-58.63 347.93,-64.53"/>
</g>
<!-- Node4 -->
<g id="node4" class="node">
<title>Node4</title>
<g id="a_node4"><a xlink:href="convective__wrap_8cpp.html#af214bab6c6ba14dc06fe7df4f6abcdf8" target="_top" xlink:title=" ">
<polygon fill="white" stroke="#666666" points="126,-115.5 0,-115.5 0,-85.5 126,-85.5 126,-115.5"/>
<text text-anchor="start" x="8" y="-103.5" font-family="Helvetica,sans-Serif" font-size="10.00">sharp_effective_inflow</text>
<text text-anchor="middle" x="63" y="-92.5" font-family="Helvetica,sans-Serif" font-size="10.00">_layer</text>
</a>
</g>
</g>
<!-- Node3&#45;&gt;Node4 -->
<g id="edge3" class="edge">
<title>Node3&#45;&gt;Node4</title>
<path fill="none" stroke="#63b8ff" d="M151.93,-100.5C143.3,-100.5 134.55,-100.5 126.08,-100.5"/>
<polygon fill="#63b8ff" stroke="#63b8ff" points="151.99,-104 161.99,-100.5 151.99,-97 151.99,-104"/>
</g>
</g>
</svg>
