<?xml version="1.0" encoding="UTF-8" standalone="no"?>
<!DOCTYPE svg PUBLIC "-//W3C//DTD SVG 1.1//EN"
 "http://www.w3.org/Graphics/SVG/1.1/DTD/svg11.dtd">
<!-- Generated by graphviz version 2.43.0 (0)
 -->
<!-- Title: sharp::moist_adiabat_cm1 Pages: 1 -->
<svg width="623pt" height="82pt"
 viewBox="0.00 0.00 623.00 82.00" xmlns="http://www.w3.org/2000/svg" xmlns:xlink="http://www.w3.org/1999/xlink">
<g id="graph0" class="graph" transform="scale(1 1) rotate(0) translate(4 78)">
<title>sharp::moist_adiabat_cm1</title>
<!-- Node1 -->
<g id="node1" class="node">
<title>Node1</title>
<g id="a_node1"><a xlink:title="Compute the temperature of a parcel lifted moist adiabatically to a new level.">
<polygon fill="#999999" stroke="#666666" points="146,-37 0,-37 0,-18 146,-18 146,-37"/>
<text text-anchor="middle" x="73" y="-25" font-family="Helvetica,sans-Serif" font-size="10.00">sharp::moist_adiabat_cm1</text>
</a>
</g>
</g>
<!-- Node2 -->
<g id="node2" class="node">
<title>Node2</title>
<g id="a_node2"><a xlink:href="namespacesharp.html#a5c6dd7be41f3dc984480798244e254d1" target="_top" xlink:title=" ">
<polygon fill="white" stroke="#666666" points="289,-56 182,-56 182,-37 289,-37 289,-56"/>
<text text-anchor="middle" x="235.5" y="-44" font-family="Helvetica,sans-Serif" font-size="10.00">sharp::_solve_cm1</text>
</a>
</g>
</g>
<!-- Node1&#45;&gt;Node2 -->
<g id="edge1" class="edge">
<title>Node1&#45;&gt;Node2</title>
<path fill="none" stroke="#63b8ff" d="M146.27,-36.06C154.79,-37.06 163.43,-38.09 171.8,-39.08"/>
<polygon fill="#63b8ff" stroke="#63b8ff" points="171.51,-42.57 181.85,-40.27 172.33,-35.62 171.51,-42.57"/>
</g>
<!-- Node6 -->
<g id="node6" class="node">
<title>Node6</title>
<g id="a_node6"><a xlink:href="namespacesharp.html#acfd0143ab72871c4aabc95c1140ee8fb" target="_top" xlink:title="Compute the potential temperature.">
<polygon fill="white" stroke="#666666" points="273,-19 198,-19 198,0 273,0 273,-19"/>
<text text-anchor="middle" x="235.5" y="-7" font-family="Helvetica,sans-Serif" font-size="10.00">sharp::theta</text>
</a>
</g>
</g>
<!-- Node1&#45;&gt;Node6 -->
<g id="edge5" class="edge">
<title>Node1&#45;&gt;Node6</title>
<path fill="none" stroke="#63b8ff" d="M146.27,-19.4C160.32,-17.82 174.7,-16.21 187.66,-14.75"/>
<polygon fill="#63b8ff" stroke="#63b8ff" points="188.17,-18.22 197.72,-13.62 187.39,-11.26 188.17,-18.22"/>
</g>
<!-- Node3 -->
<g id="node3" class="node">
<title>Node3</title>
<g id="a_node3"><a xlink:href="namespacesharp.html#ac38870166f07ac30aadbc46b81340cc4" target="_top" xlink:title="Compute the water vapor mixing ratio from specific humidity.">
<polygon fill="white" stroke="#666666" points="425.5,-74 334.5,-74 334.5,-55 425.5,-55 425.5,-74"/>
<text text-anchor="middle" x="380" y="-62" font-family="Helvetica,sans-Serif" font-size="10.00">sharp::mixratio</text>
</a>
</g>
</g>
<!-- Node2&#45;&gt;Node3 -->
<g id="edge2" class="edge">
<title>Node2&#45;&gt;Node3</title>
<path fill="none" stroke="#63b8ff" d="M289.16,-53.15C300.45,-54.58 312.41,-56.09 323.79,-57.53"/>
<polygon fill="#63b8ff" stroke="#63b8ff" points="323.69,-61.04 334.05,-58.82 324.57,-54.1 323.69,-61.04"/>
</g>
<!-- Node4 -->
<g id="node4" class="node">
<title>Node4</title>
<g id="a_node4"><a xlink:href="namespacesharp.html#a0ebcad18ef9939ff56f23d49c35dd04c" target="_top" xlink:title="Compute the ice water mixing ratio.">
<polygon fill="white" stroke="#666666" points="435,-37 325,-37 325,-18 435,-18 435,-37"/>
<text text-anchor="middle" x="380" y="-25" font-family="Helvetica,sans-Serif" font-size="10.00">sharp::mixratio_ice</text>
</a>
</g>
</g>
<!-- Node2&#45;&gt;Node4 -->
<g id="edge3" class="edge">
<title>Node2&#45;&gt;Node4</title>
<path fill="none" stroke="#63b8ff" d="M289.16,-39.48C297.48,-38.37 306.16,-37.21 314.71,-36.07"/>
<polygon fill="#63b8ff" stroke="#63b8ff" points="315.2,-39.54 324.65,-34.75 314.28,-32.6 315.2,-39.54"/>
</g>
<!-- Node5 -->
<g id="node5" class="node">
<title>Node5</title>
<g id="a_node5"><a xlink:href="namespacesharp.html#ad9be01979b547fe6827968eafcf72929" target="_top" xlink:title="Compute the vapor pressure over ice.">
<polygon fill="white" stroke="#666666" points="615,-37 471,-37 471,-18 615,-18 615,-37"/>
<text text-anchor="middle" x="543" y="-25" font-family="Helvetica,sans-Serif" font-size="10.00">sharp::vapor_pressure_ice</text>
</a>
</g>
</g>
<!-- Node4&#45;&gt;Node5 -->
<g id="edge4" class="edge">
<title>Node4&#45;&gt;Node5</title>
<path fill="none" stroke="#63b8ff" d="M435.06,-27.5C443.33,-27.5 452.02,-27.5 460.73,-27.5"/>
<polygon fill="#63b8ff" stroke="#63b8ff" points="460.93,-31 470.93,-27.5 460.93,-24 460.93,-31"/>
</g>
</g>
</svg>
