<?xml version="1.0" encoding="UTF-8" standalone="no"?>
<!DOCTYPE svg PUBLIC "-//W3C//DTD SVG 1.1//EN"
 "http://www.w3.org/Graphics/SVG/1.1/DTD/svg11.dtd">
<!-- Generated by graphviz version 2.43.0 (0)
 -->
<!-- Title: sharp::layer_max Pages: 1 -->
<svg width="693pt" height="101pt"
 viewBox="0.00 0.00 693.00 101.00" xmlns="http://www.w3.org/2000/svg" xmlns:xlink="http://www.w3.org/1999/xlink">
<g id="graph0" class="graph" transform="scale(1 1) rotate(0) translate(4 97)">
<title>sharp::layer_max</title>
<!-- Node1 -->
<g id="node1" class="node">
<title>Node1</title>
<g id="a_node1"><a xlink:title="Returns the maximim value in the given layer.">
<polygon fill="#999999" stroke="#666666" points="101,-56 0,-56 0,-37 101,-37 101,-56"/>
<text text-anchor="middle" x="50.5" y="-44" font-family="Helvetica,sans-Serif" font-size="10.00">sharp::layer_max</text>
</a>
</g>
</g>
<!-- Node2 -->
<g id="node2" class="node">
<title>Node2</title>
<g id="a_node2"><a xlink:href="namespacesharp.html#a646b65095b84511b75f6a4a81e545e80" target="_top" xlink:title="Template for min/max value over sharp::PressureLayer or sharp::HeightLayer.">
<polygon fill="white" stroke="#666666" points="257,-56 137,-56 137,-37 257,-37 257,-56"/>
<text text-anchor="middle" x="197" y="-44" font-family="Helvetica,sans-Serif" font-size="10.00">sharp::layer_minmax</text>
</a>
</g>
</g>
<!-- Node1&#45;&gt;Node2 -->
<g id="edge1" class="edge">
<title>Node1&#45;&gt;Node2</title>
<path fill="none" stroke="#63b8ff" d="M101.23,-46.5C109.5,-46.5 118.21,-46.5 126.87,-46.5"/>
<polygon fill="#63b8ff" stroke="#63b8ff" points="126.96,-50 136.96,-46.5 126.96,-43 126.96,-50"/>
</g>
<!-- Node3 -->
<g id="node3" class="node">
<title>Node3</title>
<g id="a_node3"><a xlink:href="namespacesharp.html#ac93f477dfa774c966b5da7521bd43ee6" target="_top" xlink:title="Returns the array indices corresponding to the given layer.">
<polygon fill="white" stroke="#666666" points="421,-93 293,-93 293,-74 421,-74 421,-93"/>
<text text-anchor="middle" x="357" y="-81" font-family="Helvetica,sans-Serif" font-size="10.00">sharp::get_layer_index</text>
</a>
</g>
</g>
<!-- Node2&#45;&gt;Node3 -->
<g id="edge2" class="edge">
<title>Node2&#45;&gt;Node3</title>
<path fill="none" stroke="#63b8ff" d="M238.69,-56.03C258.97,-60.78 283.71,-66.57 305.22,-71.61"/>
<polygon fill="#63b8ff" stroke="#63b8ff" points="304.64,-75.07 315.17,-73.94 306.24,-68.25 304.64,-75.07"/>
</g>
<!-- Node6 -->
<g id="node6" class="node">
<title>Node6</title>
<g id="a_node6"><a xlink:href="namespacesharp.html#ae8240f026498ad2775633a8d0dcf100d" target="_top" xlink:title="Linearly interpolate a data field to a requested height level.">
<polygon fill="white" stroke="#666666" points="414,-19 300,-19 300,0 414,0 414,-19"/>
<text text-anchor="middle" x="357" y="-7" font-family="Helvetica,sans-Serif" font-size="10.00">sharp::interp_height</text>
</a>
</g>
</g>
<!-- Node2&#45;&gt;Node6 -->
<g id="edge5" class="edge">
<title>Node2&#45;&gt;Node6</title>
<path fill="none" stroke="#63b8ff" d="M238.69,-36.97C258.97,-32.22 283.71,-26.43 305.22,-21.39"/>
<polygon fill="#63b8ff" stroke="#63b8ff" points="306.24,-24.75 315.17,-19.06 304.64,-17.93 306.24,-24.75"/>
</g>
<!-- Node9 -->
<g id="node9" class="node">
<title>Node9</title>
<g id="a_node9"><a xlink:href="namespacesharp.html#a55e4f8ee4ff8a4a30d7b3f3d92a41c75" target="_top" xlink:title="Linearly interpolate a data field to a requested pressure level.">
<polygon fill="white" stroke="#666666" points="419.5,-56 294.5,-56 294.5,-37 419.5,-37 419.5,-56"/>
<text text-anchor="middle" x="357" y="-44" font-family="Helvetica,sans-Serif" font-size="10.00">sharp::interp_pressure</text>
</a>
</g>
</g>
<!-- Node2&#45;&gt;Node9 -->
<g id="edge9" class="edge">
<title>Node2&#45;&gt;Node9</title>
<path fill="none" stroke="#63b8ff" d="M257.28,-46.5C266.06,-46.5 275.19,-46.5 284.19,-46.5"/>
<polygon fill="#63b8ff" stroke="#63b8ff" points="284.27,-50 294.27,-46.5 284.27,-43 284.27,-50"/>
</g>
<!-- Node4 -->
<g id="node4" class="node">
<title>Node4</title>
<g id="a_node4"><a xlink:href="namespacesharp.html#a1edcf8bff9a13429bcbff7c1129024b3" target="_top" xlink:title="Finds the index of the lower bound that does not satisfy element &lt; value.">
<polygon fill="white" stroke="#666666" points="569.5,-93 457.5,-93 457.5,-74 569.5,-74 569.5,-93"/>
<text text-anchor="middle" x="513.5" y="-81" font-family="Helvetica,sans-Serif" font-size="10.00">sharp::lower_bound</text>
</a>
</g>
</g>
<!-- Node3&#45;&gt;Node4 -->
<g id="edge3" class="edge">
<title>Node3&#45;&gt;Node4</title>
<path fill="none" stroke="#63b8ff" d="M421.29,-83.5C429.91,-83.5 438.78,-83.5 447.43,-83.5"/>
<polygon fill="#63b8ff" stroke="#63b8ff" points="447.47,-87 457.47,-83.5 447.47,-80 447.47,-87"/>
</g>
<!-- Node5 -->
<g id="node5" class="node">
<title>Node5</title>
<g id="a_node5"><a xlink:href="namespacesharp.html#a772686549a5111c1152b778731119aa6" target="_top" xlink:title="Finds the first index that satisfies value &lt; element.">
<polygon fill="white" stroke="#666666" points="570,-56 457,-56 457,-37 570,-37 570,-56"/>
<text text-anchor="middle" x="513.5" y="-44" font-family="Helvetica,sans-Serif" font-size="10.00">sharp::upper_bound</text>
</a>
</g>
</g>
<!-- Node3&#45;&gt;Node5 -->
<g id="edge4" class="edge">
<title>Node3&#45;&gt;Node5</title>
<path fill="none" stroke="#63b8ff" d="M397.79,-73.97C417.62,-69.22 441.81,-63.43 462.85,-58.39"/>
<polygon fill="#63b8ff" stroke="#63b8ff" points="463.67,-61.79 472.58,-56.06 462.04,-54.99 463.67,-61.79"/>
</g>
<!-- Node6&#45;&gt;Node5 -->
<g id="edge8" class="edge">
<title>Node6&#45;&gt;Node5</title>
<path fill="none" stroke="#63b8ff" d="M397.79,-19.03C417.62,-23.78 441.81,-29.57 462.85,-34.61"/>
<polygon fill="#63b8ff" stroke="#63b8ff" points="462.04,-38.01 472.58,-36.94 463.67,-31.21 462.04,-38.01"/>
</g>
<!-- Node7 -->
<g id="node7" class="node">
<title>Node7</title>
<g id="a_node7"><a xlink:href="namespacesharp.html#a0bf533560780fdb77bc3656db8d89208" target="_top" xlink:title="Linearly interpolates between a and b with distance t.">
<polygon fill="white" stroke="#666666" points="547.5,-19 479.5,-19 479.5,0 547.5,0 547.5,-19"/>
<text text-anchor="middle" x="513.5" y="-7" font-family="Helvetica,sans-Serif" font-size="10.00">sharp::lerp</text>
</a>
</g>
</g>
<!-- Node6&#45;&gt;Node7 -->
<g id="edge6" class="edge">
<title>Node6&#45;&gt;Node7</title>
<path fill="none" stroke="#63b8ff" d="M414.22,-9.5C432.36,-9.5 452.19,-9.5 469.25,-9.5"/>
<polygon fill="#63b8ff" stroke="#63b8ff" points="469.48,-13 479.48,-9.5 469.48,-6 469.48,-13"/>
</g>
<!-- Node8 -->
<g id="node8" class="node">
<title>Node8</title>
<g id="a_node8"><a xlink:href="namespacesharp.html#ac4464059524ff56c7974141bb4cc7375" target="_top" xlink:title="Linearly interpolates between a and b with distance t.">
<polygon fill="white" stroke="#666666" points="685,-19 606,-19 606,0 685,0 685,-19"/>
<text text-anchor="middle" x="645.5" y="-7" font-family="Helvetica,sans-Serif" font-size="10.00">sharp::__lerp</text>
</a>
</g>
</g>
<!-- Node7&#45;&gt;Node8 -->
<g id="edge7" class="edge">
<title>Node7&#45;&gt;Node8</title>
<path fill="none" stroke="#63b8ff" d="M547.64,-9.5C562.2,-9.5 579.6,-9.5 595.61,-9.5"/>
<polygon fill="#63b8ff" stroke="#63b8ff" points="595.88,-13 605.88,-9.5 595.88,-6 595.88,-13"/>
</g>
<!-- Node9&#45;&gt;Node5 -->
<g id="edge11" class="edge">
<title>Node9&#45;&gt;Node5</title>
<path fill="none" stroke="#63b8ff" d="M419.51,-46.5C428.43,-46.5 437.65,-46.5 446.66,-46.5"/>
<polygon fill="#63b8ff" stroke="#63b8ff" points="446.71,-50 456.71,-46.5 446.71,-43 446.71,-50"/>
</g>
<!-- Node9&#45;&gt;Node7 -->
<g id="edge10" class="edge">
<title>Node9&#45;&gt;Node7</title>
<path fill="none" stroke="#63b8ff" d="M397.79,-36.97C419.73,-31.72 446.99,-25.19 469.43,-19.81"/>
<polygon fill="#63b8ff" stroke="#63b8ff" points="470.46,-23.17 479.37,-17.43 468.83,-16.36 470.46,-23.17"/>
</g>
</g>
</svg>
