<?xml version="1.0" encoding="UTF-8" standalone="no"?>
<!DOCTYPE svg PUBLIC "-//W3C//DTD SVG 1.1//EN"
 "http://www.w3.org/Graphics/SVG/1.1/DTD/svg11.dtd">
<!-- Generated by graphviz version 2.43.0 (0)
 -->
<!-- Title: sharp::_integ_trapz Pages: 1 -->
<svg width="832pt" height="251pt"
 viewBox="0.00 0.00 832.00 251.00" xmlns="http://www.w3.org/2000/svg" xmlns:xlink="http://www.w3.org/1999/xlink">
<g id="graph0" class="graph" transform="scale(1 1) rotate(0) translate(4 247)">
<title>sharp::_integ_trapz</title>
<!-- Node1 -->
<g id="node1" class="node">
<title>Node1</title>
<g id="a_node1"><a xlink:title="A kernel that computes the area under a curve using the trapezoidal rule.">
<polygon fill="#999999" stroke="#666666" points="824,-104.5 714,-104.5 714,-85.5 824,-85.5 824,-104.5"/>
<text text-anchor="middle" x="769" y="-92.5" font-family="Helvetica,sans-Serif" font-size="10.00">sharp::_integ_trapz</text>
</a>
</g>
</g>
<!-- Node2 -->
<g id="node2" class="node">
<title>Node2</title>
<g id="a_node2"><a xlink:href="namespacesharp.html#a7acec1642f27591dc988bf9e48b4612d" target="_top" xlink:title="Returns a trapezoidal integration of the given layer.">
<polygon fill="white" stroke="#666666" points="678,-110 554,-110 554,-80 678,-80 678,-110"/>
<text text-anchor="start" x="562" y="-98" font-family="Helvetica,sans-Serif" font-size="10.00">sharp::integrate_layer</text>
<text text-anchor="middle" x="616" y="-87" font-family="Helvetica,sans-Serif" font-size="10.00">_trapz</text>
</a>
</g>
</g>
<!-- Node1&#45;&gt;Node2 -->
<g id="edge1" class="edge">
<title>Node1&#45;&gt;Node2</title>
<path fill="none" stroke="#63b8ff" d="M703.7,-95C695.23,-95 686.57,-95 678.15,-95"/>
<polygon fill="#63b8ff" stroke="#63b8ff" points="703.91,-98.5 713.91,-95 703.91,-91.5 703.91,-98.5"/>
</g>
<!-- Node3 -->
<g id="node3" class="node">
<title>Node3</title>
<g id="a_node3"><a xlink:href="structsharp_1_1Parcel.html#a0560bd193b2d2d6bc6b08baa7463fba4" target="_top" xlink:title="Compute CAPE and CINH for a previously lifted sharp::Parcel.">
<polygon fill="white" stroke="#666666" points="506,-189.5 372,-189.5 372,-170.5 506,-170.5 506,-189.5"/>
<text text-anchor="middle" x="439" y="-177.5" font-family="Helvetica,sans-Serif" font-size="10.00">sharp::Parcel::cape_cinh</text>
</a>
</g>
</g>
<!-- Node2&#45;&gt;Node3 -->
<g id="edge2" class="edge">
<title>Node2&#45;&gt;Node3</title>
<path fill="none" stroke="#63b8ff" d="M581.09,-115.3C562.72,-125.93 539.45,-138.82 518,-149 501.15,-157 481.65,-164.75 466.36,-170.5"/>
<polygon fill="#63b8ff" stroke="#63b8ff" points="583.07,-118.19 589.94,-110.13 579.54,-112.15 583.07,-118.19"/>
</g>
<!-- Node7 -->
<g id="node7" class="node">
<title>Node7</title>
<g id="a_node7"><a xlink:href="namespacesharp.html#a72bbdc4cfe7895dd51981902ac9fc822" target="_top" xlink:title="Computes Entrainment CAPE using a previously lifted parcel.">
<polygon fill="white" stroke="#666666" points="317.5,-146.5 179.5,-146.5 179.5,-127.5 317.5,-127.5 317.5,-146.5"/>
<text text-anchor="middle" x="248.5" y="-134.5" font-family="Helvetica,sans-Serif" font-size="10.00">sharp::entrainment_cape</text>
</a>
</g>
</g>
<!-- Node2&#45;&gt;Node7 -->
<g id="edge6" class="edge">
<title>Node2&#45;&gt;Node7</title>
<path fill="none" stroke="#63b8ff" d="M543.76,-109.86C535.1,-111.4 526.37,-112.83 518,-114 450.12,-123.53 372,-129.68 317.59,-133.2"/>
<polygon fill="#63b8ff" stroke="#63b8ff" points="544.64,-113.26 553.85,-108.02 543.39,-106.37 544.64,-113.26"/>
</g>
<!-- Node9 -->
<g id="node9" class="node">
<title>Node9</title>
<g id="a_node9"><a xlink:href="namespacesharp.html#a298e2c96c389f2c5177d3626c908927e" target="_top" xlink:title="Computes the mass&#45;weighted mean value of a field over a given pressure layer.">
<polygon fill="white" stroke="#666666" points="492.5,-104.5 385.5,-104.5 385.5,-85.5 492.5,-85.5 492.5,-104.5"/>
<text text-anchor="middle" x="439" y="-92.5" font-family="Helvetica,sans-Serif" font-size="10.00">sharp::layer_mean</text>
</a>
</g>
</g>
<!-- Node2&#45;&gt;Node9 -->
<g id="edge8" class="edge">
<title>Node2&#45;&gt;Node9</title>
<path fill="none" stroke="#63b8ff" d="M543.37,-95C526.43,-95 508.67,-95 492.74,-95"/>
<polygon fill="#63b8ff" stroke="#63b8ff" points="543.79,-98.5 553.79,-95 543.79,-91.5 543.79,-98.5"/>
</g>
<!-- Node13 -->
<g id="node13" class="node">
<title>Node13</title>
<g id="a_node13"><a xlink:href="layer__wrap_8cpp.html#aedfe40469a1e381572599fb09d5f0406" target="_top" xlink:title=" ">
<polygon fill="white" stroke="#666666" points="518,-67.5 360,-67.5 360,-48.5 518,-48.5 518,-67.5"/>
<text text-anchor="middle" x="439" y="-55.5" font-family="Helvetica,sans-Serif" font-size="10.00">sharp_HeightLayer_integrate</text>
</a>
</g>
</g>
<!-- Node2&#45;&gt;Node13 -->
<g id="edge13" class="edge">
<title>Node2&#45;&gt;Node13</title>
<path fill="none" stroke="#63b8ff" d="M543.87,-79.96C524.04,-75.77 503.06,-71.33 485.18,-67.55"/>
<polygon fill="#63b8ff" stroke="#63b8ff" points="543.29,-83.41 553.79,-82.06 544.73,-76.57 543.29,-83.41"/>
</g>
<!-- Node14 -->
<g id="node14" class="node">
<title>Node14</title>
<g id="a_node14"><a xlink:href="layer__wrap_8cpp.html#a162c242638de7fc2a22b915d14c587db" target="_top" xlink:title=" ">
<polygon fill="white" stroke="#666666" points="498,-30 380,-30 380,0 498,0 498,-30"/>
<text text-anchor="start" x="388" y="-18" font-family="Helvetica,sans-Serif" font-size="10.00">sharp_PressureLayer</text>
<text text-anchor="middle" x="439" y="-7" font-family="Helvetica,sans-Serif" font-size="10.00">_integrate</text>
</a>
</g>
</g>
<!-- Node2&#45;&gt;Node14 -->
<g id="edge14" class="edge">
<title>Node2&#45;&gt;Node14</title>
<path fill="none" stroke="#63b8ff" d="M583.63,-74.47C565.08,-62.96 540.83,-48.95 518,-39 510.6,-35.77 502.62,-32.79 494.7,-30.11"/>
<polygon fill="#63b8ff" stroke="#63b8ff" points="581.92,-77.53 592.25,-79.9 585.65,-71.61 581.92,-77.53"/>
</g>
<!-- Node4 -->
<g id="node4" class="node">
<title>Node4</title>
<g id="a_node4"><a xlink:href="namespacesharp.html#a2e6b7cd4a3594a8f2c2050b0e4784cce" target="_top" xlink:title="Computes the Effective Inflow Layer for a given atmospheric sounding.">
<polygon fill="white" stroke="#666666" points="312,-243 185,-243 185,-213 312,-213 312,-243"/>
<text text-anchor="start" x="193" y="-231" font-family="Helvetica,sans-Serif" font-size="10.00">sharp::effective_inflow</text>
<text text-anchor="middle" x="248.5" y="-220" font-family="Helvetica,sans-Serif" font-size="10.00">_layer</text>
</a>
</g>
</g>
<!-- Node3&#45;&gt;Node4 -->
<g id="edge3" class="edge">
<title>Node3&#45;&gt;Node4</title>
<path fill="none" stroke="#63b8ff" d="M390.4,-192.12C365.58,-198.44 334.99,-206.23 308.65,-212.94"/>
<polygon fill="#63b8ff" stroke="#63b8ff" points="391.48,-195.46 400.31,-189.6 389.75,-188.67 391.48,-195.46"/>
</g>
<!-- Node6 -->
<g id="node6" class="node">
<title>Node6</title>
<g id="a_node6"><a xlink:href="structsharp_1_1Parcel.html#aa258d27992d22d8b80cb221e6e2a6c19" target="_top" xlink:title="Construct and return a most&#45;unstable Parcel.">
<polygon fill="white" stroke="#666666" points="303.5,-195 193.5,-195 193.5,-165 303.5,-165 303.5,-195"/>
<text text-anchor="start" x="201.5" y="-183" font-family="Helvetica,sans-Serif" font-size="10.00">sharp::Parcel::most</text>
<text text-anchor="middle" x="248.5" y="-172" font-family="Helvetica,sans-Serif" font-size="10.00">_unstable_parcel</text>
</a>
</g>
</g>
<!-- Node3&#45;&gt;Node6 -->
<g id="edge5" class="edge">
<title>Node3&#45;&gt;Node6</title>
<path fill="none" stroke="#63b8ff" d="M361.75,-180C342.31,-180 321.8,-180 303.71,-180"/>
<polygon fill="#63b8ff" stroke="#63b8ff" points="361.81,-183.5 371.81,-180 361.81,-176.5 361.81,-183.5"/>
</g>
<!-- Node5 -->
<g id="node5" class="node">
<title>Node5</title>
<g id="a_node5"><a xlink:href="convective__wrap_8cpp.html#af214bab6c6ba14dc06fe7df4f6abcdf8" target="_top" xlink:title=" ">
<polygon fill="white" stroke="#666666" points="131.5,-243 5.5,-243 5.5,-213 131.5,-213 131.5,-243"/>
<text text-anchor="start" x="13.5" y="-231" font-family="Helvetica,sans-Serif" font-size="10.00">sharp_effective_inflow</text>
<text text-anchor="middle" x="68.5" y="-220" font-family="Helvetica,sans-Serif" font-size="10.00">_layer</text>
</a>
</g>
</g>
<!-- Node4&#45;&gt;Node5 -->
<g id="edge4" class="edge">
<title>Node4&#45;&gt;Node5</title>
<path fill="none" stroke="#63b8ff" d="M174.69,-228C160.38,-228 145.48,-228 131.56,-228"/>
<polygon fill="#63b8ff" stroke="#63b8ff" points="174.99,-231.5 184.99,-228 174.99,-224.5 174.99,-231.5"/>
</g>
<!-- Node8 -->
<g id="node8" class="node">
<title>Node8</title>
<g id="a_node8"><a xlink:href="convective__wrap_8cpp.html#ab0bfb728bbbf3a731c330b61a5c415ad" target="_top" xlink:title=" ">
<polygon fill="white" stroke="#666666" points="137,-146.5 0,-146.5 0,-127.5 137,-127.5 137,-146.5"/>
<text text-anchor="middle" x="68.5" y="-134.5" font-family="Helvetica,sans-Serif" font-size="10.00">sharp_entrainment_cape</text>
</a>
</g>
</g>
<!-- Node7&#45;&gt;Node8 -->
<g id="edge7" class="edge">
<title>Node7&#45;&gt;Node8</title>
<path fill="none" stroke="#63b8ff" d="M169.28,-137C158.6,-137 147.7,-137 137.22,-137"/>
<polygon fill="#63b8ff" stroke="#63b8ff" points="169.44,-140.5 179.44,-137 169.44,-133.5 169.44,-140.5"/>
</g>
<!-- Node9&#45;&gt;Node7 -->
<g id="edge9" class="edge">
<title>Node9&#45;&gt;Node7</title>
<path fill="none" stroke="#63b8ff" d="M385.17,-106.77C355.9,-113.29 319.96,-121.3 292.43,-127.43"/>
<polygon fill="#63b8ff" stroke="#63b8ff" points="386.23,-110.12 395.23,-104.53 384.7,-103.29 386.23,-110.12"/>
</g>
<!-- Node10 -->
<g id="node10" class="node">
<title>Node10</title>
<g id="a_node10"><a xlink:href="structsharp_1_1Parcel.html#a1bf670e79f35a1ce8c904b7ead32ccbe" target="_top" xlink:title="Construct and return a mixed&#45;layer Parcel.">
<polygon fill="white" stroke="#666666" points="306,-109 191,-109 191,-79 306,-79 306,-109"/>
<text text-anchor="start" x="199" y="-97" font-family="Helvetica,sans-Serif" font-size="10.00">sharp::Parcel::mixed</text>
<text text-anchor="middle" x="248.5" y="-86" font-family="Helvetica,sans-Serif" font-size="10.00">_layer_parcel</text>
</a>
</g>
</g>
<!-- Node9&#45;&gt;Node10 -->
<g id="edge10" class="edge">
<title>Node9&#45;&gt;Node10</title>
<path fill="none" stroke="#63b8ff" d="M375.41,-94.67C353,-94.55 327.88,-94.42 306.01,-94.3"/>
<polygon fill="#63b8ff" stroke="#63b8ff" points="375.47,-98.17 385.49,-94.72 375.51,-91.17 375.47,-98.17"/>
</g>
<!-- Node11 -->
<g id="node11" class="node">
<title>Node11</title>
<g id="a_node11"><a xlink:href="layer__wrap_8cpp.html#aed1a796336a18c40e0bf51019b76e09a" target="_top" xlink:title=" ">
<polygon fill="white" stroke="#666666" points="319,-60.5 178,-60.5 178,-41.5 319,-41.5 319,-60.5"/>
<text text-anchor="middle" x="248.5" y="-48.5" font-family="Helvetica,sans-Serif" font-size="10.00">sharp_HeightLayer_mean</text>
</a>
</g>
</g>
<!-- Node9&#45;&gt;Node11 -->
<g id="edge11" class="edge">
<title>Node9&#45;&gt;Node11</title>
<path fill="none" stroke="#63b8ff" d="M386.47,-83.14C377.64,-81.1 368.56,-78.99 360,-77 336.78,-71.59 310.82,-65.48 289.9,-60.55"/>
<polygon fill="#63b8ff" stroke="#63b8ff" points="385.77,-86.57 396.3,-85.41 387.34,-79.75 385.77,-86.57"/>
</g>
<!-- Node12 -->
<g id="node12" class="node">
<title>Node12</title>
<g id="a_node12"><a xlink:href="layer__wrap_8cpp.html#acb9a81d9a712786d81c427d428eefd0a" target="_top" xlink:title=" ">
<polygon fill="white" stroke="#666666" points="324,-23.5 173,-23.5 173,-4.5 324,-4.5 324,-23.5"/>
<text text-anchor="middle" x="248.5" y="-11.5" font-family="Helvetica,sans-Serif" font-size="10.00">sharp_PressureLayer_mean</text>
</a>
</g>
</g>
<!-- Node9&#45;&gt;Node12 -->
<g id="edge12" class="edge">
<title>Node9&#45;&gt;Node12</title>
<path fill="none" stroke="#63b8ff" d="M375.42,-84.6C370.01,-82.51 364.78,-80.01 360,-77 338.32,-63.36 345.61,-45.75 324,-32 318.61,-28.57 312.62,-25.8 306.45,-23.55"/>
<polygon fill="#63b8ff" stroke="#63b8ff" points="374.71,-88.05 385.3,-87.92 376.94,-81.42 374.71,-88.05"/>
</g>
</g>
</svg>
