<?xml version="1.0" encoding="UTF-8" standalone="no"?>
<!DOCTYPE svg PUBLIC "-//W3C//DTD SVG 1.1//EN"
 "http://www.w3.org/Graphics/SVG/1.1/DTD/svg11.dtd">
<!-- Generated by graphviz version 2.43.0 (0)
 -->
<!-- Title: parcel_wrap.cpp Pages: 1 -->
<svg width="741pt" height="324pt"
 viewBox="0.00 0.00 741.00 324.00" xmlns="http://www.w3.org/2000/svg" xmlns:xlink="http://www.w3.org/1999/xlink">
<g id="graph0" class="graph" transform="scale(1 1) rotate(0) translate(4 320)">
<title>parcel_wrap.cpp</title>
<!-- Node1 -->
<g id="node1" class="node">
<title>Node1</title>
<g id="a_node1"><a xlink:title=" ">
<polygon fill="#999999" stroke="#666666" points="247.5,-316 151.5,-316 151.5,-297 247.5,-297 247.5,-316"/>
<text text-anchor="middle" x="199.5" y="-304" font-family="Helvetica,sans-Serif" font-size="10.00">parcel_wrap.cpp</text>
</a>
</g>
</g>
<!-- Node2 -->
<g id="node2" class="node">
<title>Node2</title>
<g id="a_node2"><a xlink:href="parcel__wrap_8h.html" target="_top" xlink:title="Header defining the C wrapper interface to parcel routines.">
<polygon fill="white" stroke="#666666" points="131.5,-261 1.5,-261 1.5,-231 131.5,-231 131.5,-261"/>
<text text-anchor="start" x="9.5" y="-249" font-family="Helvetica,sans-Serif" font-size="10.00">SHARPlib/CWrap/parcel</text>
<text text-anchor="middle" x="66.5" y="-238" font-family="Helvetica,sans-Serif" font-size="10.00">_wrap.h</text>
</a>
</g>
</g>
<!-- Node1&#45;&gt;Node2 -->
<g id="edge1" class="edge">
<title>Node1&#45;&gt;Node2</title>
<path fill="none" stroke="#63b8ff" d="M180.16,-296.99C161.27,-288.68 131.92,-275.78 107.78,-265.16"/>
<polygon fill="#63b8ff" stroke="#63b8ff" points="109.04,-261.89 98.48,-261.06 106.22,-268.29 109.04,-261.89"/>
</g>
<!-- Node4 -->
<g id="node4" class="node">
<title>Node4</title>
<g id="a_node4"><a xlink:href="constants_8h.html" target="_top" xlink:title="Meteorological constants useful for computations with vertical atmospheric sounding profiles.">
<polygon fill="white" stroke="#666666" points="296,-19 175,-19 175,0 296,0 296,-19"/>
<text text-anchor="middle" x="235.5" y="-7" font-family="Helvetica,sans-Serif" font-size="10.00">SHARPlib/constants.h</text>
</a>
</g>
</g>
<!-- Node1&#45;&gt;Node4 -->
<g id="edge3" class="edge">
<title>Node1&#45;&gt;Node4</title>
<path fill="none" stroke="#63b8ff" d="M194.6,-296.75C183.91,-276.85 159.5,-226.41 159.5,-181 159.5,-181 159.5,-181 159.5,-118.5 159.5,-79.47 193.11,-44.58 215.63,-25.6"/>
<polygon fill="#63b8ff" stroke="#63b8ff" points="218.06,-28.14 223.62,-19.12 213.65,-22.7 218.06,-28.14"/>
</g>
<!-- Node5 -->
<g id="node5" class="node">
<title>Node5</title>
<g id="a_node5"><a xlink:href="parcel_8h.html" target="_top" xlink:title="Routines used for parcel lifting and integration.">
<polygon fill="white" stroke="#666666" points="291.5,-255.5 187.5,-255.5 187.5,-236.5 291.5,-236.5 291.5,-255.5"/>
<text text-anchor="middle" x="239.5" y="-243.5" font-family="Helvetica,sans-Serif" font-size="10.00">SHARPlib/parcel.h</text>
</a>
</g>
</g>
<!-- Node1&#45;&gt;Node5 -->
<g id="edge4" class="edge">
<title>Node1&#45;&gt;Node5</title>
<path fill="none" stroke="#63b8ff" d="M205.4,-296.87C211.25,-288.31 220.37,-274.97 227.71,-264.24"/>
<polygon fill="#63b8ff" stroke="#63b8ff" points="230.82,-265.9 233.57,-255.67 225.04,-261.95 230.82,-265.9"/>
</g>
<!-- Node13 -->
<g id="node13" class="node">
<title>Node13</title>
<g id="a_node13"><a xlink:title=" ">
<polygon fill="#e0e0e0" stroke="#999999" points="363,-255.5 310,-255.5 310,-236.5 363,-236.5 363,-255.5"/>
<text text-anchor="middle" x="336.5" y="-243.5" font-family="Helvetica,sans-Serif" font-size="10.00">stdlib.h</text>
</a>
</g>
</g>
<!-- Node1&#45;&gt;Node13 -->
<g id="edge26" class="edge">
<title>Node1&#45;&gt;Node13</title>
<path fill="none" stroke="#63b8ff" d="M219.42,-296.99C242.45,-287.16 280.58,-270.88 307.04,-259.58"/>
<polygon fill="#63b8ff" stroke="#63b8ff" points="308.73,-262.66 316.55,-255.52 305.98,-256.22 308.73,-262.66"/>
</g>
<!-- Node3 -->
<g id="node3" class="node">
<title>Node3</title>
<g id="a_node3"><a xlink:href="profile__wrap_8h.html" target="_top" xlink:title="Header defining the C wrapper interface to the Profile structure.">
<polygon fill="white" stroke="#666666" points="131,-195 0,-195 0,-165 131,-165 131,-195"/>
<text text-anchor="start" x="8" y="-183" font-family="Helvetica,sans-Serif" font-size="10.00">SHARPlib/CWrap/profile</text>
<text text-anchor="middle" x="65.5" y="-172" font-family="Helvetica,sans-Serif" font-size="10.00">_wrap.h</text>
</a>
</g>
</g>
<!-- Node2&#45;&gt;Node3 -->
<g id="edge2" class="edge">
<title>Node2&#45;&gt;Node3</title>
<path fill="none" stroke="#63b8ff" d="M66.28,-230.8C66.16,-223.34 66.02,-213.99 65.88,-205.41"/>
<polygon fill="#63b8ff" stroke="#63b8ff" points="69.38,-205.11 65.72,-195.16 62.38,-205.22 69.38,-205.11"/>
</g>
<!-- Node5&#45;&gt;Node4 -->
<g id="edge5" class="edge">
<title>Node5&#45;&gt;Node4</title>
<path fill="none" stroke="#63b8ff" d="M239.35,-236.38C238.77,-202.48 236.65,-77.93 235.83,-29.72"/>
<polygon fill="#63b8ff" stroke="#63b8ff" points="239.32,-29.39 235.65,-19.45 232.32,-29.51 239.32,-29.39"/>
</g>
<!-- Node6 -->
<g id="node6" class="node">
<title>Node6</title>
<g id="a_node6"><a xlink:href="interp_8h.html" target="_top" xlink:title="Routines for linear interpolation of vertical atmospheric profiles.">
<polygon fill="white" stroke="#666666" points="365.5,-74 263.5,-74 263.5,-55 365.5,-55 365.5,-74"/>
<text text-anchor="middle" x="314.5" y="-62" font-family="Helvetica,sans-Serif" font-size="10.00">SHARPlib/interp.h</text>
</a>
</g>
</g>
<!-- Node5&#45;&gt;Node6 -->
<g id="edge6" class="edge">
<title>Node5&#45;&gt;Node6</title>
<path fill="none" stroke="#63b8ff" d="M243.12,-236.34C254.73,-208.56 291.2,-121.27 307.04,-83.36"/>
<polygon fill="#63b8ff" stroke="#63b8ff" points="310.29,-84.65 310.92,-74.07 303.83,-81.95 310.29,-84.65"/>
</g>
<!-- Node8 -->
<g id="node8" class="node">
<title>Node8</title>
<g id="a_node8"><a xlink:title=" ">
<polygon fill="#e0e0e0" stroke="#999999" points="572,-19 519,-19 519,0 572,0 572,-19"/>
<text text-anchor="middle" x="545.5" y="-7" font-family="Helvetica,sans-Serif" font-size="10.00">cstddef</text>
</a>
</g>
</g>
<!-- Node5&#45;&gt;Node8 -->
<g id="edge25" class="edge">
<title>Node5&#45;&gt;Node8</title>
<path fill="none" stroke="#63b8ff" d="M276.88,-236.42C335.83,-222.84 444.09,-197.64 447.5,-195 503.62,-151.51 531.22,-66.66 541.1,-29.12"/>
<polygon fill="#63b8ff" stroke="#63b8ff" points="544.57,-29.64 543.61,-19.09 537.78,-27.94 544.57,-29.64"/>
</g>
<!-- Node9 -->
<g id="node9" class="node">
<title>Node9</title>
<g id="a_node9"><a xlink:href="layer_8h.html" target="_top" xlink:title="Data structures and functions for performing operations over atmospheric layers.">
<polygon fill="white" stroke="#666666" points="441.5,-129 343.5,-129 343.5,-110 441.5,-110 441.5,-129"/>
<text text-anchor="middle" x="392.5" y="-117" font-family="Helvetica,sans-Serif" font-size="10.00">SHARPlib/layer.h</text>
</a>
</g>
</g>
<!-- Node5&#45;&gt;Node9 -->
<g id="edge10" class="edge">
<title>Node5&#45;&gt;Node9</title>
<path fill="none" stroke="#63b8ff" d="M246.99,-236.42C260.66,-221.04 290.98,-188.21 320.5,-165 335.28,-153.38 353.28,-142.25 367.58,-134.04"/>
<polygon fill="#63b8ff" stroke="#63b8ff" points="369.38,-137.04 376.37,-129.08 365.94,-130.94 369.38,-137.04"/>
</g>
<!-- Node12 -->
<g id="node12" class="node">
<title>Node12</title>
<g id="a_node12"><a xlink:href="thermo_8h.html" target="_top" xlink:title="Routines used to compute thermodynamic attributes of vertical sounding profiles.">
<polygon fill="white" stroke="#666666" points="438,-189.5 329,-189.5 329,-170.5 438,-170.5 438,-189.5"/>
<text text-anchor="middle" x="383.5" y="-177.5" font-family="Helvetica,sans-Serif" font-size="10.00">SHARPlib/thermo.h</text>
</a>
</g>
</g>
<!-- Node5&#45;&gt;Node12 -->
<g id="edge19" class="edge">
<title>Node5&#45;&gt;Node12</title>
<path fill="none" stroke="#63b8ff" d="M258.92,-236.37C283.51,-225.44 326.07,-206.52 354.51,-193.88"/>
<polygon fill="#63b8ff" stroke="#63b8ff" points="356.21,-196.96 363.93,-189.7 353.37,-190.56 356.21,-196.96"/>
</g>
<!-- Node6&#45;&gt;Node4 -->
<g id="edge7" class="edge">
<title>Node6&#45;&gt;Node4</title>
<path fill="none" stroke="#63b8ff" d="M301.81,-54.98C289.67,-46.84 271.14,-34.41 256.75,-24.76"/>
<polygon fill="#63b8ff" stroke="#63b8ff" points="258.68,-21.84 248.42,-19.17 254.78,-27.65 258.68,-21.84"/>
</g>
<!-- Node7 -->
<g id="node7" class="node">
<title>Node7</title>
<g id="a_node7"><a xlink:title=" ">
<polygon fill="#e0e0e0" stroke="#999999" points="455,-19 408,-19 408,0 455,0 455,-19"/>
<text text-anchor="middle" x="431.5" y="-7" font-family="Helvetica,sans-Serif" font-size="10.00">cmath</text>
</a>
</g>
</g>
<!-- Node6&#45;&gt;Node7 -->
<g id="edge8" class="edge">
<title>Node6&#45;&gt;Node7</title>
<path fill="none" stroke="#63b8ff" d="M333.3,-54.98C352.12,-46.46 381.32,-33.23 403,-23.41"/>
<polygon fill="#63b8ff" stroke="#63b8ff" points="404.7,-26.48 412.36,-19.17 401.81,-20.11 404.7,-26.48"/>
</g>
<!-- Node6&#45;&gt;Node8 -->
<g id="edge9" class="edge">
<title>Node6&#45;&gt;Node8</title>
<path fill="none" stroke="#63b8ff" d="M351.61,-54.98C394.95,-45.04 466.15,-28.71 509.15,-18.84"/>
<polygon fill="#63b8ff" stroke="#63b8ff" points="509.95,-22.25 518.92,-16.6 508.39,-15.42 509.95,-22.25"/>
</g>
<!-- Node9&#45;&gt;Node4 -->
<g id="edge14" class="edge">
<title>Node9&#45;&gt;Node4</title>
<path fill="none" stroke="#63b8ff" d="M392.51,-109.85C392.04,-96.33 389.16,-70.16 374.5,-55 356.47,-36.35 330.62,-25.5 306.1,-19.19"/>
<polygon fill="#63b8ff" stroke="#63b8ff" points="306.6,-15.71 296.06,-16.84 305,-22.53 306.6,-15.71"/>
</g>
<!-- Node9&#45;&gt;Node6 -->
<g id="edge15" class="edge">
<title>Node9&#45;&gt;Node6</title>
<path fill="none" stroke="#63b8ff" d="M379.97,-109.98C368.1,-101.92 350.04,-89.65 335.89,-80.03"/>
<polygon fill="#63b8ff" stroke="#63b8ff" points="337.5,-76.9 327.26,-74.17 333.56,-82.69 337.5,-76.9"/>
</g>
<!-- Node9&#45;&gt;Node7 -->
<g id="edge16" class="edge">
<title>Node9&#45;&gt;Node7</title>
<path fill="none" stroke="#63b8ff" d="M395.69,-109.66C402.07,-92.01 416.48,-52.09 424.95,-28.64"/>
<polygon fill="#63b8ff" stroke="#63b8ff" points="428.27,-29.75 428.37,-19.16 421.68,-27.38 428.27,-29.75"/>
</g>
<!-- Node9&#45;&gt;Node8 -->
<g id="edge17" class="edge">
<title>Node9&#45;&gt;Node8</title>
<path fill="none" stroke="#63b8ff" d="M404.76,-109.84C430.95,-91.36 492.57,-47.86 524.89,-25.05"/>
<polygon fill="#63b8ff" stroke="#63b8ff" points="527.03,-27.82 533.18,-19.2 522.99,-22.1 527.03,-27.82"/>
</g>
<!-- Node10 -->
<g id="node10" class="node">
<title>Node10</title>
<g id="a_node10"><a xlink:href="algorithms_8h.html" target="_top" xlink:title="Various algorithms used for searching, sorting, accumulating etc.">
<polygon fill="white" stroke="#666666" points="699.5,-74 573.5,-74 573.5,-55 699.5,-55 699.5,-74"/>
<text text-anchor="middle" x="636.5" y="-62" font-family="Helvetica,sans-Serif" font-size="10.00">SHARPlib/algorithms.h</text>
</a>
</g>
</g>
<!-- Node9&#45;&gt;Node10 -->
<g id="edge11" class="edge">
<title>Node9&#45;&gt;Node10</title>
<path fill="none" stroke="#63b8ff" d="M431.7,-109.98C473.91,-100.82 541.15,-86.21 586.98,-76.26"/>
<polygon fill="#63b8ff" stroke="#63b8ff" points="587.96,-79.63 596.99,-74.08 586.47,-72.78 587.96,-79.63"/>
</g>
<!-- Node11 -->
<g id="node11" class="node">
<title>Node11</title>
<g id="a_node11"><a xlink:title=" ">
<polygon fill="#e0e0e0" stroke="#999999" points="733,-19 668,-19 668,0 733,0 733,-19"/>
<text text-anchor="middle" x="700.5" y="-7" font-family="Helvetica,sans-Serif" font-size="10.00">functional</text>
</a>
</g>
</g>
<!-- Node9&#45;&gt;Node11 -->
<g id="edge18" class="edge">
<title>Node9&#45;&gt;Node11</title>
<path fill="none" stroke="#63b8ff" d="M441.59,-119.07C521.57,-118.82 674.52,-113.1 708.5,-74 719.29,-61.58 714.92,-42.29 709.32,-28.22"/>
<polygon fill="#63b8ff" stroke="#63b8ff" points="712.51,-26.78 705.22,-19.08 706.12,-29.64 712.51,-26.78"/>
</g>
<!-- Node10&#45;&gt;Node8 -->
<g id="edge12" class="edge">
<title>Node10&#45;&gt;Node8</title>
<path fill="none" stroke="#63b8ff" d="M621.88,-54.98C607.64,-46.69 585.75,-33.94 569.05,-24.22"/>
<polygon fill="#63b8ff" stroke="#63b8ff" points="570.79,-21.18 560.39,-19.17 567.27,-27.23 570.79,-21.18"/>
</g>
<!-- Node10&#45;&gt;Node11 -->
<g id="edge13" class="edge">
<title>Node10&#45;&gt;Node11</title>
<path fill="none" stroke="#63b8ff" d="M646.78,-54.98C656.34,-47.07 670.78,-35.11 682.28,-25.58"/>
<polygon fill="#63b8ff" stroke="#63b8ff" points="684.56,-28.24 690.03,-19.17 680.1,-22.85 684.56,-28.24"/>
</g>
<!-- Node12&#45;&gt;Node4 -->
<g id="edge20" class="edge">
<title>Node12&#45;&gt;Node4</title>
<path fill="none" stroke="#63b8ff" d="M367.4,-170.28C340.05,-154.64 284.57,-119.2 254.5,-74 245.54,-60.53 240.69,-42.7 238.14,-29.36"/>
<polygon fill="#63b8ff" stroke="#63b8ff" points="241.58,-28.7 236.5,-19.41 234.67,-29.84 241.58,-28.7"/>
</g>
<!-- Node12&#45;&gt;Node6 -->
<g id="edge21" class="edge">
<title>Node12&#45;&gt;Node6</title>
<path fill="none" stroke="#63b8ff" d="M372.22,-170.22C361.14,-161.04 344.5,-145.68 334.5,-129 326.14,-115.06 320.93,-97.27 317.93,-84.07"/>
<polygon fill="#63b8ff" stroke="#63b8ff" points="321.35,-83.34 315.91,-74.25 314.5,-84.75 321.35,-83.34"/>
</g>
<!-- Node12&#45;&gt;Node7 -->
<g id="edge23" class="edge">
<title>Node12&#45;&gt;Node7</title>
<path fill="none" stroke="#63b8ff" d="M403.43,-170.39C419.42,-162.28 440.74,-148.46 450.5,-129 467.01,-96.08 451.66,-52.13 440.58,-28.07"/>
<polygon fill="#63b8ff" stroke="#63b8ff" points="443.72,-26.53 436.2,-19.07 437.43,-29.59 443.72,-26.53"/>
</g>
<!-- Node12&#45;&gt;Node8 -->
<g id="edge24" class="edge">
<title>Node12&#45;&gt;Node8</title>
<path fill="none" stroke="#63b8ff" d="M438.01,-179.47C513.15,-176.81 646.3,-159.46 708.5,-74 741.81,-28.23 640.2,-15.45 582.48,-11.88"/>
<polygon fill="#63b8ff" stroke="#63b8ff" points="582.44,-8.37 572.26,-11.31 582.05,-15.36 582.44,-8.37"/>
</g>
<!-- Node12&#45;&gt;Node9 -->
<g id="edge22" class="edge">
<title>Node12&#45;&gt;Node9</title>
<path fill="none" stroke="#63b8ff" d="M384.83,-170.37C386.09,-162.16 388.03,-149.54 389.65,-139.05"/>
<polygon fill="#63b8ff" stroke="#63b8ff" points="393.11,-139.58 391.17,-129.17 386.19,-138.52 393.11,-139.58"/>
</g>
</g>
</svg>
