<?xml version="1.0" encoding="UTF-8" standalone="no"?>
<!DOCTYPE svg PUBLIC "-//W3C//DTD SVG 1.1//EN"
 "http://www.w3.org/Graphics/SVG/1.1/DTD/svg11.dtd">
<!-- Generated by graphviz version 2.43.0 (0)
 -->
<!-- Title: parcel.cpp Pages: 1 -->
<svg width="601pt" height="302pt"
 viewBox="0.00 0.00 600.50 302.00" xmlns="http://www.w3.org/2000/svg" xmlns:xlink="http://www.w3.org/1999/xlink">
<g id="graph0" class="graph" transform="scale(1 1) rotate(0) translate(4 298)">
<title>parcel.cpp</title>
<!-- Node1 -->
<g id="node1" class="node">
<title>Node1</title>
<g id="a_node1"><a xlink:title="Routines used for parcel lifting and integration.">
<polygon fill="#999999" stroke="#666666" points="487,-294 420,-294 420,-275 487,-275 487,-294"/>
<text text-anchor="middle" x="453.5" y="-282" font-family="Helvetica,sans-Serif" font-size="10.00">parcel.cpp</text>
</a>
</g>
</g>
<!-- Node2 -->
<g id="node2" class="node">
<title>Node2</title>
<g id="a_node2"><a xlink:href="constants_8h.html" target="_top" xlink:title="Meteorological constants useful for computations with vertical atmospheric sounding profiles.">
<polygon fill="white" stroke="#666666" points="577,-19 456,-19 456,0 577,0 577,-19"/>
<text text-anchor="middle" x="516.5" y="-7" font-family="Helvetica,sans-Serif" font-size="10.00">SHARPlib/constants.h</text>
</a>
</g>
</g>
<!-- Node1&#45;&gt;Node2 -->
<g id="edge1" class="edge">
<title>Node1&#45;&gt;Node2</title>
<path fill="none" stroke="#63b8ff" d="M483.66,-274.91C524.54,-261.21 592.5,-230.2 592.5,-175.5 592.5,-175.5 592.5,-175.5 592.5,-118.5 592.5,-79.47 558.89,-44.58 536.37,-25.6"/>
<polygon fill="#63b8ff" stroke="#63b8ff" points="538.35,-22.7 528.38,-19.12 533.94,-28.14 538.35,-22.7"/>
</g>
<!-- Node3 -->
<g id="node3" class="node">
<title>Node3</title>
<g id="a_node3"><a xlink:href="interp_8h.html" target="_top" xlink:title="Routines for linear interpolation of vertical atmospheric profiles.">
<polygon fill="white" stroke="#666666" points="488.5,-74 386.5,-74 386.5,-55 488.5,-55 488.5,-74"/>
<text text-anchor="middle" x="437.5" y="-62" font-family="Helvetica,sans-Serif" font-size="10.00">SHARPlib/interp.h</text>
</a>
</g>
</g>
<!-- Node1&#45;&gt;Node3 -->
<g id="edge2" class="edge">
<title>Node1&#45;&gt;Node3</title>
<path fill="none" stroke="#63b8ff" d="M473.7,-274.91C487.97,-267.64 506.01,-255.71 514.5,-239 518.33,-231.47 516.43,-228.22 514.5,-220 501.85,-166.24 467.51,-109.82 449.27,-82.43"/>
<polygon fill="#63b8ff" stroke="#63b8ff" points="452.06,-80.31 443.55,-74 446.27,-84.24 452.06,-80.31"/>
</g>
<!-- Node6 -->
<g id="node6" class="node">
<title>Node6</title>
<g id="a_node6"><a xlink:href="layer_8h.html" target="_top" xlink:title="Data structures and functions for performing operations over atmospheric layers.">
<polygon fill="white" stroke="#666666" points="216.5,-129 118.5,-129 118.5,-110 216.5,-110 216.5,-129"/>
<text text-anchor="middle" x="167.5" y="-117" font-family="Helvetica,sans-Serif" font-size="10.00">SHARPlib/layer.h</text>
</a>
</g>
</g>
<!-- Node1&#45;&gt;Node6 -->
<g id="edge6" class="edge">
<title>Node1&#45;&gt;Node6</title>
<path fill="none" stroke="#63b8ff" d="M419.82,-277.89C367.48,-267.64 265.95,-241.41 201.5,-184 187.81,-171.8 178.65,-152.75 173.32,-138.69"/>
<polygon fill="#63b8ff" stroke="#63b8ff" points="176.58,-137.4 169.98,-129.11 169.97,-139.71 176.58,-137.4"/>
</g>
<!-- Node9 -->
<g id="node9" class="node">
<title>Node9</title>
<g id="a_node9"><a xlink:href="parcel_8h.html" target="_top" xlink:title="Routines used for parcel lifting and integration.">
<polygon fill="white" stroke="#666666" points="505.5,-239 401.5,-239 401.5,-220 505.5,-220 505.5,-239"/>
<text text-anchor="middle" x="453.5" y="-227" font-family="Helvetica,sans-Serif" font-size="10.00">SHARPlib/parcel.h</text>
</a>
</g>
</g>
<!-- Node1&#45;&gt;Node9 -->
<g id="edge15" class="edge">
<title>Node1&#45;&gt;Node9</title>
<path fill="none" stroke="#63b8ff" d="M453.5,-274.75C453.5,-267.8 453.5,-257.85 453.5,-249.13"/>
<polygon fill="#63b8ff" stroke="#63b8ff" points="457,-249.09 453.5,-239.09 450,-249.09 457,-249.09"/>
</g>
<!-- Node10 -->
<g id="node10" class="node">
<title>Node10</title>
<g id="a_node10"><a xlink:href="thermo_8h.html" target="_top" xlink:title="Routines used to compute thermodynamic attributes of vertical sounding profiles.">
<polygon fill="white" stroke="#666666" points="428,-184 319,-184 319,-165 428,-165 428,-184"/>
<text text-anchor="middle" x="373.5" y="-172" font-family="Helvetica,sans-Serif" font-size="10.00">SHARPlib/thermo.h</text>
</a>
</g>
</g>
<!-- Node1&#45;&gt;Node10 -->
<g id="edge26" class="edge">
<title>Node1&#45;&gt;Node10</title>
<path fill="none" stroke="#63b8ff" d="M436.07,-274.88C422.34,-267.24 403.7,-254.84 392.5,-239 383.05,-225.64 378.24,-207.53 375.82,-194.07"/>
<polygon fill="#63b8ff" stroke="#63b8ff" points="379.27,-193.43 374.31,-184.06 372.35,-194.47 379.27,-193.43"/>
</g>
<!-- Node3&#45;&gt;Node2 -->
<g id="edge3" class="edge">
<title>Node3&#45;&gt;Node2</title>
<path fill="none" stroke="#63b8ff" d="M450.19,-54.98C462.33,-46.84 480.86,-34.41 495.25,-24.76"/>
<polygon fill="#63b8ff" stroke="#63b8ff" points="497.22,-27.65 503.58,-19.17 493.32,-21.84 497.22,-27.65"/>
</g>
<!-- Node4 -->
<g id="node4" class="node">
<title>Node4</title>
<g id="a_node4"><a xlink:title=" ">
<polygon fill="#e0e0e0" stroke="#999999" points="382,-19 335,-19 335,0 382,0 382,-19"/>
<text text-anchor="middle" x="358.5" y="-7" font-family="Helvetica,sans-Serif" font-size="10.00">cmath</text>
</a>
</g>
</g>
<!-- Node3&#45;&gt;Node4 -->
<g id="edge4" class="edge">
<title>Node3&#45;&gt;Node4</title>
<path fill="none" stroke="#63b8ff" d="M424.81,-54.98C412.67,-46.84 394.14,-34.41 379.75,-24.76"/>
<polygon fill="#63b8ff" stroke="#63b8ff" points="381.68,-21.84 371.42,-19.17 377.78,-27.65 381.68,-21.84"/>
</g>
<!-- Node5 -->
<g id="node5" class="node">
<title>Node5</title>
<g id="a_node5"><a xlink:title=" ">
<polygon fill="#e0e0e0" stroke="#999999" points="271,-19 218,-19 218,0 271,0 271,-19"/>
<text text-anchor="middle" x="244.5" y="-7" font-family="Helvetica,sans-Serif" font-size="10.00">cstddef</text>
</a>
</g>
</g>
<!-- Node3&#45;&gt;Node5 -->
<g id="edge5" class="edge">
<title>Node3&#45;&gt;Node5</title>
<path fill="none" stroke="#63b8ff" d="M406.49,-54.98C372.21,-45.57 317.04,-30.42 280.78,-20.46"/>
<polygon fill="#63b8ff" stroke="#63b8ff" points="281.65,-17.07 271.08,-17.8 279.8,-23.82 281.65,-17.07"/>
</g>
<!-- Node6&#45;&gt;Node2 -->
<g id="edge10" class="edge">
<title>Node6&#45;&gt;Node2</title>
<path fill="none" stroke="#63b8ff" d="M195.18,-109.94C257.41,-90.68 408.45,-43.94 479.01,-22.1"/>
<polygon fill="#63b8ff" stroke="#63b8ff" points="480.3,-25.37 488.82,-19.07 478.23,-18.68 480.3,-25.37"/>
</g>
<!-- Node6&#45;&gt;Node3 -->
<g id="edge11" class="edge">
<title>Node6&#45;&gt;Node3</title>
<path fill="none" stroke="#63b8ff" d="M210.88,-109.98C257.88,-100.76 332.93,-86.03 383.66,-76.07"/>
<polygon fill="#63b8ff" stroke="#63b8ff" points="384.64,-79.44 393.78,-74.08 383.29,-72.57 384.64,-79.44"/>
</g>
<!-- Node6&#45;&gt;Node4 -->
<g id="edge12" class="edge">
<title>Node6&#45;&gt;Node4</title>
<path fill="none" stroke="#63b8ff" d="M182.81,-109.84C216,-91.08 294.8,-46.52 334.61,-24.01"/>
<polygon fill="#63b8ff" stroke="#63b8ff" points="336.4,-27.02 343.38,-19.05 332.96,-20.92 336.4,-27.02"/>
</g>
<!-- Node6&#45;&gt;Node5 -->
<g id="edge13" class="edge">
<title>Node6&#45;&gt;Node5</title>
<path fill="none" stroke="#63b8ff" d="M169.53,-109.63C172.79,-96.71 180.13,-72.37 192.5,-55 200.69,-43.51 212.47,-33.1 222.75,-25.25"/>
<polygon fill="#63b8ff" stroke="#63b8ff" points="224.9,-28.01 230.92,-19.28 220.78,-22.35 224.9,-28.01"/>
</g>
<!-- Node7 -->
<g id="node7" class="node">
<title>Node7</title>
<g id="a_node7"><a xlink:href="algorithms_8h.html" target="_top" xlink:title="Various algorithms used for searching, sorting, accumulating etc.">
<polygon fill="white" stroke="#666666" points="140.5,-74 14.5,-74 14.5,-55 140.5,-55 140.5,-74"/>
<text text-anchor="middle" x="77.5" y="-62" font-family="Helvetica,sans-Serif" font-size="10.00">SHARPlib/algorithms.h</text>
</a>
</g>
</g>
<!-- Node6&#45;&gt;Node7 -->
<g id="edge7" class="edge">
<title>Node6&#45;&gt;Node7</title>
<path fill="none" stroke="#63b8ff" d="M153.04,-109.98C139.08,-101.77 117.71,-89.18 101.25,-79.49"/>
<polygon fill="#63b8ff" stroke="#63b8ff" points="102.62,-76.23 92.22,-74.17 99.06,-82.26 102.62,-76.23"/>
</g>
<!-- Node8 -->
<g id="node8" class="node">
<title>Node8</title>
<g id="a_node8"><a xlink:title=" ">
<polygon fill="#e0e0e0" stroke="#999999" points="65,-19 0,-19 0,0 65,0 65,-19"/>
<text text-anchor="middle" x="32.5" y="-7" font-family="Helvetica,sans-Serif" font-size="10.00">functional</text>
</a>
</g>
</g>
<!-- Node6&#45;&gt;Node8 -->
<g id="edge14" class="edge">
<title>Node6&#45;&gt;Node8</title>
<path fill="none" stroke="#63b8ff" d="M118.15,-111.58C75.7,-104.5 19.2,-91.98 5.5,-74 -5.45,-59.64 5.86,-40.18 17,-26.6"/>
<polygon fill="#63b8ff" stroke="#63b8ff" points="19.72,-28.81 23.72,-19 14.48,-24.17 19.72,-28.81"/>
</g>
<!-- Node7&#45;&gt;Node5 -->
<g id="edge8" class="edge">
<title>Node7&#45;&gt;Node5</title>
<path fill="none" stroke="#63b8ff" d="M104.33,-54.98C132.45,-46.06 176.81,-31.98 208.08,-22.06"/>
<polygon fill="#63b8ff" stroke="#63b8ff" points="209.26,-25.36 217.74,-18.99 207.14,-18.68 209.26,-25.36"/>
</g>
<!-- Node7&#45;&gt;Node8 -->
<g id="edge9" class="edge">
<title>Node7&#45;&gt;Node8</title>
<path fill="none" stroke="#63b8ff" d="M70.07,-54.75C63.65,-47.18 54.19,-36.05 46.38,-26.84"/>
<polygon fill="#63b8ff" stroke="#63b8ff" points="48.93,-24.45 39.79,-19.09 43.6,-28.98 48.93,-24.45"/>
</g>
<!-- Node9&#45;&gt;Node2 -->
<g id="edge16" class="edge">
<title>Node9&#45;&gt;Node2</title>
<path fill="none" stroke="#63b8ff" d="M458.46,-219.82C471.22,-196.92 505.02,-132.56 516.5,-74 519.39,-59.26 519.2,-42.21 518.4,-29.5"/>
<polygon fill="#63b8ff" stroke="#63b8ff" points="521.86,-28.91 517.55,-19.23 514.88,-29.48 521.86,-28.91"/>
</g>
<!-- Node9&#45;&gt;Node3 -->
<g id="edge17" class="edge">
<title>Node9&#45;&gt;Node3</title>
<path fill="none" stroke="#63b8ff" d="M452.64,-219.74C450.14,-194.31 442.86,-120.08 439.38,-84.69"/>
<polygon fill="#63b8ff" stroke="#63b8ff" points="442.82,-83.92 438.36,-74.31 435.86,-84.6 442.82,-83.92"/>
</g>
<!-- Node9&#45;&gt;Node5 -->
<g id="edge25" class="edge">
<title>Node9&#45;&gt;Node5</title>
<path fill="none" stroke="#63b8ff" d="M401.17,-223.73C371,-218.45 334.25,-207.34 309.5,-184 264.5,-141.57 250.43,-65.01 246.21,-29.52"/>
<polygon fill="#63b8ff" stroke="#63b8ff" points="249.65,-28.75 245.13,-19.16 242.69,-29.47 249.65,-28.75"/>
</g>
<!-- Node9&#45;&gt;Node6 -->
<g id="edge18" class="edge">
<title>Node9&#45;&gt;Node6</title>
<path fill="none" stroke="#63b8ff" d="M401.47,-226.68C354.33,-223.11 284.23,-212.88 230.5,-184 209.43,-172.68 190.91,-151.99 179.49,-137.31"/>
<polygon fill="#63b8ff" stroke="#63b8ff" points="182.14,-135 173.35,-129.08 176.53,-139.19 182.14,-135"/>
</g>
<!-- Node9&#45;&gt;Node10 -->
<g id="edge19" class="edge">
<title>Node9&#45;&gt;Node10</title>
<path fill="none" stroke="#63b8ff" d="M440.65,-219.98C428.36,-211.84 409.59,-199.41 395.02,-189.76"/>
<polygon fill="#63b8ff" stroke="#63b8ff" points="396.86,-186.78 386.59,-184.17 392.99,-192.61 396.86,-186.78"/>
</g>
<!-- Node10&#45;&gt;Node2 -->
<g id="edge20" class="edge">
<title>Node10&#45;&gt;Node2</title>
<path fill="none" stroke="#63b8ff" d="M389.81,-164.8C416.36,-149.81 468.82,-116.58 497.5,-74 506.54,-60.58 511.38,-42.74 513.91,-29.39"/>
<polygon fill="#63b8ff" stroke="#63b8ff" points="517.38,-29.86 515.53,-19.42 510.47,-28.73 517.38,-29.86"/>
</g>
<!-- Node10&#45;&gt;Node3 -->
<g id="edge21" class="edge">
<title>Node10&#45;&gt;Node3</title>
<path fill="none" stroke="#63b8ff" d="M378.74,-164.66C389.29,-146.85 413.28,-106.37 427.13,-83.01"/>
<polygon fill="#63b8ff" stroke="#63b8ff" points="430.28,-84.55 432.37,-74.16 424.26,-80.98 430.28,-84.55"/>
</g>
<!-- Node10&#45;&gt;Node4 -->
<g id="edge23" class="edge">
<title>Node10&#45;&gt;Node4</title>
<path fill="none" stroke="#63b8ff" d="M372.69,-164.74C370.35,-139.31 363.52,-65.08 360.27,-29.69"/>
<polygon fill="#63b8ff" stroke="#63b8ff" points="363.71,-28.94 359.31,-19.31 356.74,-29.59 363.71,-28.94"/>
</g>
<!-- Node10&#45;&gt;Node5 -->
<g id="edge24" class="edge">
<title>Node10&#45;&gt;Node5</title>
<path fill="none" stroke="#63b8ff" d="M366.56,-164.74C346,-138.76 285.12,-61.83 257.91,-27.44"/>
<polygon fill="#63b8ff" stroke="#63b8ff" points="260.42,-24.98 251.47,-19.31 254.93,-29.32 260.42,-24.98"/>
</g>
<!-- Node10&#45;&gt;Node6 -->
<g id="edge22" class="edge">
<title>Node10&#45;&gt;Node6</title>
<path fill="none" stroke="#63b8ff" d="M340.4,-164.98C305.22,-155.93 249.43,-141.58 210.78,-131.64"/>
<polygon fill="#63b8ff" stroke="#63b8ff" points="211.41,-128.18 200.86,-129.08 209.67,-134.96 211.41,-128.18"/>
</g>
</g>
</svg>
