<?xml version="1.0" encoding="UTF-8" standalone="no"?>
<!DOCTYPE svg PUBLIC "-//W3C//DTD SVG 1.1//EN"
 "http://www.w3.org/Graphics/SVG/1.1/DTD/svg11.dtd">
<!-- Generated by graphviz version 2.43.0 (0)
 -->
<!-- Title: parcel.h Pages: 1 -->
<svg width="522pt" height="247pt"
 viewBox="0.00 0.00 522.00 247.00" xmlns="http://www.w3.org/2000/svg" xmlns:xlink="http://www.w3.org/1999/xlink">
<g id="graph0" class="graph" transform="scale(1 1) rotate(0) translate(4 243)">
<title>parcel.h</title>
<!-- Node1 -->
<g id="node1" class="node">
<title>Node1</title>
<g id="a_node1"><a xlink:title="Routines used for parcel lifting and integration.">
<polygon fill="#999999" stroke="#666666" points="218.5,-239 162.5,-239 162.5,-220 218.5,-220 218.5,-239"/>
<text text-anchor="middle" x="190.5" y="-227" font-family="Helvetica,sans-Serif" font-size="10.00">parcel.h</text>
</a>
</g>
</g>
<!-- Node2 -->
<g id="node2" class="node">
<title>Node2</title>
<g id="a_node2"><a xlink:href="constants_8h.html" target="_top" xlink:title="Meteorological constants useful for computations with vertical atmospheric sounding profiles.">
<polygon fill="white" stroke="#666666" points="121,-19 0,-19 0,0 121,0 121,-19"/>
<text text-anchor="middle" x="60.5" y="-7" font-family="Helvetica,sans-Serif" font-size="10.00">SHARPlib/constants.h</text>
</a>
</g>
</g>
<!-- Node1&#45;&gt;Node2 -->
<g id="edge1" class="edge">
<title>Node1&#45;&gt;Node2</title>
<path fill="none" stroke="#63b8ff" d="M162.23,-229.17C127.79,-228.26 70.83,-220.83 43.5,-184 8.68,-137.08 36.04,-62.28 51.6,-28.31"/>
<polygon fill="#63b8ff" stroke="#63b8ff" points="54.82,-29.69 55.97,-19.16 48.5,-26.68 54.82,-29.69"/>
</g>
<!-- Node3 -->
<g id="node3" class="node">
<title>Node3</title>
<g id="a_node3"><a xlink:href="interp_8h.html" target="_top" xlink:title="Routines for linear interpolation of vertical atmospheric profiles.">
<polygon fill="white" stroke="#666666" points="239.5,-74 137.5,-74 137.5,-55 239.5,-55 239.5,-74"/>
<text text-anchor="middle" x="188.5" y="-62" font-family="Helvetica,sans-Serif" font-size="10.00">SHARPlib/interp.h</text>
</a>
</g>
</g>
<!-- Node1&#45;&gt;Node3 -->
<g id="edge2" class="edge">
<title>Node1&#45;&gt;Node3</title>
<path fill="none" stroke="#63b8ff" d="M190.39,-219.74C190.08,-194.31 189.17,-120.08 188.74,-84.69"/>
<polygon fill="#63b8ff" stroke="#63b8ff" points="192.23,-84.26 188.61,-74.31 185.23,-84.35 192.23,-84.26"/>
</g>
<!-- Node5 -->
<g id="node5" class="node">
<title>Node5</title>
<g id="a_node5"><a xlink:title=" ">
<polygon fill="#e0e0e0" stroke="#999999" points="514,-19 461,-19 461,0 514,0 514,-19"/>
<text text-anchor="middle" x="487.5" y="-7" font-family="Helvetica,sans-Serif" font-size="10.00">cstddef</text>
</a>
</g>
</g>
<!-- Node1&#45;&gt;Node5 -->
<g id="edge21" class="edge">
<title>Node1&#45;&gt;Node5</title>
<path fill="none" stroke="#63b8ff" d="M218.54,-225.09C283.78,-215.42 444.73,-181.19 504.5,-74 512.55,-59.56 506.05,-41.13 498.88,-27.85"/>
<polygon fill="#63b8ff" stroke="#63b8ff" points="501.87,-26.03 493.75,-19.22 495.86,-29.61 501.87,-26.03"/>
</g>
<!-- Node6 -->
<g id="node6" class="node">
<title>Node6</title>
<g id="a_node6"><a xlink:href="layer_8h.html" target="_top" xlink:title="Data structures and functions for performing operations over atmospheric layers.">
<polygon fill="white" stroke="#666666" points="316.5,-129 218.5,-129 218.5,-110 316.5,-110 316.5,-129"/>
<text text-anchor="middle" x="267.5" y="-117" font-family="Helvetica,sans-Serif" font-size="10.00">SHARPlib/layer.h</text>
</a>
</g>
</g>
<!-- Node1&#45;&gt;Node6 -->
<g id="edge6" class="edge">
<title>Node1&#45;&gt;Node6</title>
<path fill="none" stroke="#63b8ff" d="M196.8,-219.66C209.61,-201.69 238.88,-160.64 255.46,-137.38"/>
<polygon fill="#63b8ff" stroke="#63b8ff" points="258.37,-139.33 261.33,-129.16 252.67,-135.27 258.37,-139.33"/>
</g>
<!-- Node9 -->
<g id="node9" class="node">
<title>Node9</title>
<g id="a_node9"><a xlink:href="thermo_8h.html" target="_top" xlink:title="Routines used to compute thermodynamic attributes of vertical sounding profiles.">
<polygon fill="white" stroke="#666666" points="162,-184 53,-184 53,-165 162,-165 162,-184"/>
<text text-anchor="middle" x="107.5" y="-172" font-family="Helvetica,sans-Serif" font-size="10.00">SHARPlib/thermo.h</text>
</a>
</g>
</g>
<!-- Node1&#45;&gt;Node9 -->
<g id="edge15" class="edge">
<title>Node1&#45;&gt;Node9</title>
<path fill="none" stroke="#63b8ff" d="M177.16,-219.98C164.41,-211.84 144.95,-199.41 129.83,-189.76"/>
<polygon fill="#63b8ff" stroke="#63b8ff" points="131.39,-186.6 121.08,-184.17 127.62,-192.5 131.39,-186.6"/>
</g>
<!-- Node3&#45;&gt;Node2 -->
<g id="edge3" class="edge">
<title>Node3&#45;&gt;Node2</title>
<path fill="none" stroke="#63b8ff" d="M167.93,-54.98C147.07,-46.34 114.53,-32.87 90.73,-23.02"/>
<polygon fill="#63b8ff" stroke="#63b8ff" points="92.02,-19.76 81.44,-19.17 89.34,-26.23 92.02,-19.76"/>
</g>
<!-- Node4 -->
<g id="node4" class="node">
<title>Node4</title>
<g id="a_node4"><a xlink:title=" ">
<polygon fill="#e0e0e0" stroke="#999999" points="212,-19 165,-19 165,0 212,0 212,-19"/>
<text text-anchor="middle" x="188.5" y="-7" font-family="Helvetica,sans-Serif" font-size="10.00">cmath</text>
</a>
</g>
</g>
<!-- Node3&#45;&gt;Node4 -->
<g id="edge4" class="edge">
<title>Node3&#45;&gt;Node4</title>
<path fill="none" stroke="#63b8ff" d="M188.5,-54.75C188.5,-47.8 188.5,-37.85 188.5,-29.13"/>
<polygon fill="#63b8ff" stroke="#63b8ff" points="192,-29.09 188.5,-19.09 185,-29.09 192,-29.09"/>
</g>
<!-- Node3&#45;&gt;Node5 -->
<g id="edge5" class="edge">
<title>Node3&#45;&gt;Node5</title>
<path fill="none" stroke="#63b8ff" d="M236.54,-54.98C296.28,-44.4 396.94,-26.55 450.83,-17"/>
<polygon fill="#63b8ff" stroke="#63b8ff" points="451.73,-20.4 460.96,-15.2 450.5,-13.5 451.73,-20.4"/>
</g>
<!-- Node6&#45;&gt;Node2 -->
<g id="edge10" class="edge">
<title>Node6&#45;&gt;Node2</title>
<path fill="none" stroke="#63b8ff" d="M224.73,-109.98C196.15,-103.07 158.44,-91.56 128.5,-74 107.07,-61.43 86.84,-41.04 74.11,-26.77"/>
<polygon fill="#63b8ff" stroke="#63b8ff" points="76.72,-24.44 67.53,-19.17 71.43,-29.02 76.72,-24.44"/>
</g>
<!-- Node6&#45;&gt;Node3 -->
<g id="edge11" class="edge">
<title>Node6&#45;&gt;Node3</title>
<path fill="none" stroke="#63b8ff" d="M254.81,-109.98C242.67,-101.84 224.14,-89.41 209.75,-79.76"/>
<polygon fill="#63b8ff" stroke="#63b8ff" points="211.68,-76.84 201.42,-74.17 207.78,-82.65 211.68,-76.84"/>
</g>
<!-- Node6&#45;&gt;Node4 -->
<g id="edge12" class="edge">
<title>Node6&#45;&gt;Node4</title>
<path fill="none" stroke="#63b8ff" d="M266.67,-109.95C265.06,-97.01 260.53,-72.15 248.5,-55 239.66,-42.39 226.11,-31.91 214.12,-24.29"/>
<polygon fill="#63b8ff" stroke="#63b8ff" points="215.74,-21.18 205.37,-19.03 212.14,-27.18 215.74,-21.18"/>
</g>
<!-- Node6&#45;&gt;Node5 -->
<g id="edge13" class="edge">
<title>Node6&#45;&gt;Node5</title>
<path fill="none" stroke="#63b8ff" d="M316.51,-113.36C368.71,-106.91 446.77,-94.2 468.5,-74 480.74,-62.62 485.2,-43.73 486.78,-29.5"/>
<polygon fill="#63b8ff" stroke="#63b8ff" points="490.29,-29.55 487.52,-19.32 483.3,-29.04 490.29,-29.55"/>
</g>
<!-- Node7 -->
<g id="node7" class="node">
<title>Node7</title>
<g id="a_node7"><a xlink:href="algorithms_8h.html" target="_top" xlink:title="Various algorithms used for searching, sorting, accumulating etc.">
<polygon fill="white" stroke="#666666" points="459.5,-74 333.5,-74 333.5,-55 459.5,-55 459.5,-74"/>
<text text-anchor="middle" x="396.5" y="-62" font-family="Helvetica,sans-Serif" font-size="10.00">SHARPlib/algorithms.h</text>
</a>
</g>
</g>
<!-- Node6&#45;&gt;Node7 -->
<g id="edge7" class="edge">
<title>Node6&#45;&gt;Node7</title>
<path fill="none" stroke="#63b8ff" d="M288.23,-109.98C309.26,-101.34 342.05,-87.87 366.04,-78.02"/>
<polygon fill="#63b8ff" stroke="#63b8ff" points="367.48,-81.21 375.4,-74.17 364.82,-74.73 367.48,-81.21"/>
</g>
<!-- Node8 -->
<g id="node8" class="node">
<title>Node8</title>
<g id="a_node8"><a xlink:title=" ">
<polygon fill="#e0e0e0" stroke="#999999" points="383,-19 318,-19 318,0 383,0 383,-19"/>
<text text-anchor="middle" x="350.5" y="-7" font-family="Helvetica,sans-Serif" font-size="10.00">functional</text>
</a>
</g>
</g>
<!-- Node6&#45;&gt;Node8 -->
<g id="edge14" class="edge">
<title>Node6&#45;&gt;Node8</title>
<path fill="none" stroke="#63b8ff" d="M274.29,-109.66C288.1,-91.69 319.65,-50.64 337.52,-27.38"/>
<polygon fill="#63b8ff" stroke="#63b8ff" points="340.53,-29.22 343.85,-19.16 334.98,-24.95 340.53,-29.22"/>
</g>
<!-- Node7&#45;&gt;Node5 -->
<g id="edge8" class="edge">
<title>Node7&#45;&gt;Node5</title>
<path fill="none" stroke="#63b8ff" d="M411.12,-54.98C425.36,-46.69 447.25,-33.94 463.95,-24.22"/>
<polygon fill="#63b8ff" stroke="#63b8ff" points="465.73,-27.23 472.61,-19.17 462.21,-21.18 465.73,-27.23"/>
</g>
<!-- Node7&#45;&gt;Node8 -->
<g id="edge9" class="edge">
<title>Node7&#45;&gt;Node8</title>
<path fill="none" stroke="#63b8ff" d="M388.9,-54.75C382.34,-47.18 372.68,-36.05 364.69,-26.84"/>
<polygon fill="#63b8ff" stroke="#63b8ff" points="367.15,-24.35 357.95,-19.09 361.87,-28.94 367.15,-24.35"/>
</g>
<!-- Node9&#45;&gt;Node2 -->
<g id="edge16" class="edge">
<title>Node9&#45;&gt;Node2</title>
<path fill="none" stroke="#63b8ff" d="M92.07,-164.8C80.15,-157.11 64.54,-144.69 57.5,-129 42.81,-96.26 49.52,-53.14 55.3,-28.97"/>
<polygon fill="#63b8ff" stroke="#63b8ff" points="58.76,-29.59 57.88,-19.03 51.98,-27.83 58.76,-29.59"/>
</g>
<!-- Node9&#45;&gt;Node3 -->
<g id="edge17" class="edge">
<title>Node9&#45;&gt;Node3</title>
<path fill="none" stroke="#63b8ff" d="M114.13,-164.66C127.6,-146.69 158.39,-105.64 175.84,-82.38"/>
<polygon fill="#63b8ff" stroke="#63b8ff" points="178.81,-84.26 182.01,-74.16 173.21,-80.06 178.81,-84.26"/>
</g>
<!-- Node9&#45;&gt;Node4 -->
<g id="edge19" class="edge">
<title>Node9&#45;&gt;Node4</title>
<path fill="none" stroke="#63b8ff" d="M106.95,-164.7C106.06,-143.92 106.3,-90.89 128.5,-55 136.49,-42.08 149.73,-31.67 161.75,-24.17"/>
<polygon fill="#63b8ff" stroke="#63b8ff" points="163.71,-27.08 170.59,-19.01 160.18,-21.03 163.71,-27.08"/>
</g>
<!-- Node9&#45;&gt;Node5 -->
<g id="edge20" class="edge">
<title>Node9&#45;&gt;Node5</title>
<path fill="none" stroke="#63b8ff" d="M162.35,-167.62C258.22,-156.04 449.71,-126.73 487.5,-74 496.72,-61.13 495.6,-42.72 492.83,-29.03"/>
<polygon fill="#63b8ff" stroke="#63b8ff" points="496.22,-28.14 490.43,-19.26 489.42,-29.81 496.22,-28.14"/>
</g>
<!-- Node9&#45;&gt;Node6 -->
<g id="edge18" class="edge">
<title>Node9&#45;&gt;Node6</title>
<path fill="none" stroke="#63b8ff" d="M133.21,-164.98C159.95,-156.13 202.03,-142.19 231.95,-132.28"/>
<polygon fill="#63b8ff" stroke="#63b8ff" points="233.2,-135.55 241.59,-129.08 231,-128.9 233.2,-135.55"/>
</g>
</g>
</svg>
