<?xml version="1.0" encoding="UTF-8" standalone="no"?>
<!DOCTYPE svg PUBLIC "-//W3C//DTD SVG 1.1//EN"
 "http://www.w3.org/Graphics/SVG/1.1/DTD/svg11.dtd">
<!-- Generated by graphviz version 2.43.0 (0)
 -->
<!-- Title: profile_wrap.h Pages: 1 -->
<svg width="296pt" height="192pt"
 viewBox="0.00 0.00 296.00 192.00" xmlns="http://www.w3.org/2000/svg" xmlns:xlink="http://www.w3.org/1999/xlink">
<g id="graph0" class="graph" transform="scale(1 1) rotate(0) translate(4 188)">
<title>profile_wrap.h</title>
<!-- Node1 -->
<g id="node1" class="node">
<title>Node1</title>
<g id="a_node1"><a xlink:title="Header defining the C wrapper interface to the Profile structure.">
<polygon fill="#999999" stroke="#666666" points="173.5,-184 87.5,-184 87.5,-165 173.5,-165 173.5,-184"/>
<text text-anchor="middle" x="130.5" y="-172" font-family="Helvetica,sans-Serif" font-size="10.00">profile_wrap.h</text>
</a>
</g>
</g>
<!-- Node2 -->
<g id="node2" class="node">
<title>Node2</title>
<g id="a_node2"><a xlink:href="convective__wrap_8h.html" target="_top" xlink:title="Header defining the C wrapper interface to derived parameters.">
<polygon fill="white" stroke="#666666" points="113.5,-74 5.5,-74 5.5,-55 113.5,-55 113.5,-74"/>
<text text-anchor="middle" x="59.5" y="-62" font-family="Helvetica,sans-Serif" font-size="10.00">convective_wrap.h</text>
</a>
</g>
</g>
<!-- Node1&#45;&gt;Node2 -->
<g id="edge1" class="edge">
<title>Node1&#45;&gt;Node2</title>
<path fill="none" stroke="#63b8ff" d="M108.83,-158.91C98.66,-151.1 87.14,-140.68 79.5,-129 68.11,-111.59 62.85,-87.27 60.73,-74.36"/>
<polygon fill="#63b8ff" stroke="#63b8ff" points="106.79,-161.76 116.93,-164.84 110.92,-156.11 106.79,-161.76"/>
</g>
<!-- Node4 -->
<g id="node4" class="node">
<title>Node4</title>
<g id="a_node4"><a xlink:href="parcel__wrap_8h.html" target="_top" xlink:title="Header defining the C wrapper interface to parcel routines.">
<polygon fill="white" stroke="#666666" points="173,-129 88,-129 88,-110 173,-110 173,-129"/>
<text text-anchor="middle" x="130.5" y="-117" font-family="Helvetica,sans-Serif" font-size="10.00">parcel_wrap.h</text>
</a>
</g>
</g>
<!-- Node1&#45;&gt;Node4 -->
<g id="edge3" class="edge">
<title>Node1&#45;&gt;Node4</title>
<path fill="none" stroke="#63b8ff" d="M130.5,-154.66C130.5,-145.93 130.5,-135.99 130.5,-129.09"/>
<polygon fill="#63b8ff" stroke="#63b8ff" points="127,-154.75 130.5,-164.75 134,-154.75 127,-154.75"/>
</g>
<!-- Node6 -->
<g id="node6" class="node">
<title>Node6</title>
<g id="a_node6"><a xlink:href="profile__wrap_8cpp.html" target="_top" xlink:title=" ">
<polygon fill="white" stroke="#666666" points="288,-129 191,-129 191,-110 288,-110 288,-129"/>
<text text-anchor="middle" x="239.5" y="-117" font-family="Helvetica,sans-Serif" font-size="10.00">profile_wrap.cpp</text>
</a>
</g>
</g>
<!-- Node1&#45;&gt;Node6 -->
<g id="edge6" class="edge">
<title>Node1&#45;&gt;Node6</title>
<path fill="none" stroke="#63b8ff" d="M157.23,-160.5C177.29,-150.75 204.18,-137.68 221.67,-129.17"/>
<polygon fill="#63b8ff" stroke="#63b8ff" points="155.48,-157.46 148.01,-164.98 158.54,-163.76 155.48,-157.46"/>
</g>
<!-- Node3 -->
<g id="node3" class="node">
<title>Node3</title>
<g id="a_node3"><a xlink:href="convective__wrap_8cpp.html" target="_top" xlink:title=" ">
<polygon fill="white" stroke="#666666" points="119,-19 0,-19 0,0 119,0 119,-19"/>
<text text-anchor="middle" x="59.5" y="-7" font-family="Helvetica,sans-Serif" font-size="10.00">convective_wrap.cpp</text>
</a>
</g>
</g>
<!-- Node2&#45;&gt;Node3 -->
<g id="edge2" class="edge">
<title>Node2&#45;&gt;Node3</title>
<path fill="none" stroke="#63b8ff" d="M59.5,-44.66C59.5,-35.93 59.5,-25.99 59.5,-19.09"/>
<polygon fill="#63b8ff" stroke="#63b8ff" points="56,-44.75 59.5,-54.75 63,-44.75 56,-44.75"/>
</g>
<!-- Node4&#45;&gt;Node2 -->
<g id="edge4" class="edge">
<title>Node4&#45;&gt;Node2</title>
<path fill="none" stroke="#63b8ff" d="M110.91,-103.88C98.13,-94.34 81.89,-82.21 71.11,-74.17"/>
<polygon fill="#63b8ff" stroke="#63b8ff" points="108.99,-106.81 119.09,-109.98 113.17,-101.2 108.99,-106.81"/>
</g>
<!-- Node5 -->
<g id="node5" class="node">
<title>Node5</title>
<g id="a_node5"><a xlink:href="parcel__wrap_8cpp.html" target="_top" xlink:title=" ">
<polygon fill="white" stroke="#666666" points="227.5,-74 131.5,-74 131.5,-55 227.5,-55 227.5,-74"/>
<text text-anchor="middle" x="179.5" y="-62" font-family="Helvetica,sans-Serif" font-size="10.00">parcel_wrap.cpp</text>
</a>
</g>
</g>
<!-- Node4&#45;&gt;Node5 -->
<g id="edge5" class="edge">
<title>Node4&#45;&gt;Node5</title>
<path fill="none" stroke="#63b8ff" d="M145.53,-102.24C154.12,-92.95 164.54,-81.68 171.56,-74.09"/>
<polygon fill="#63b8ff" stroke="#63b8ff" points="142.81,-100.03 138.59,-109.75 147.95,-104.78 142.81,-100.03"/>
</g>
</g>
</svg>
