<?xml version="1.0" encoding="UTF-8" standalone="no"?>
<!DOCTYPE svg PUBLIC "-//W3C//DTD SVG 1.1//EN"
 "http://www.w3.org/Graphics/SVG/1.1/DTD/svg11.dtd">
<!-- Generated by graphviz version 2.43.0 (0)
 -->
<!-- Title: sharp::lifter_wobus::operator() Pages: 1 -->
<svg width="493pt" height="103pt"
 viewBox="0.00 0.00 493.00 103.00" xmlns="http://www.w3.org/2000/svg" xmlns:xlink="http://www.w3.org/1999/xlink">
<g id="graph0" class="graph" transform="scale(1 1) rotate(0) translate(4 99)">
<title>sharp::lifter_wobus::operator()</title>
<!-- Node1 -->
<g id="node1" class="node">
<title>Node1</title>
<g id="a_node1"><a xlink:title="Overloads operator() to call sharp::wetlift.">
<polygon fill="#999999" stroke="#666666" points="109,-62.5 0,-62.5 0,-32.5 109,-32.5 109,-62.5"/>
<text text-anchor="start" x="8" y="-50.5" font-family="Helvetica,sans-Serif" font-size="10.00">sharp::lifter_wobus</text>
<text text-anchor="middle" x="54.5" y="-39.5" font-family="Helvetica,sans-Serif" font-size="10.00">::operator()</text>
</a>
</g>
</g>
<!-- Node2 -->
<g id="node2" class="node">
<title>Node2</title>
<g id="a_node2"><a xlink:href="namespacesharp.html#ad4014313c60a66a321e4050a2a07058e" target="_top" xlink:title="Compute the temperature of a parcel lifted moist adiabatically to a new level.">
<polygon fill="white" stroke="#666666" points="225,-57 145,-57 145,-38 225,-38 225,-57"/>
<text text-anchor="middle" x="185" y="-45" font-family="Helvetica,sans-Serif" font-size="10.00">sharp::wetlift</text>
</a>
</g>
</g>
<!-- Node1&#45;&gt;Node2 -->
<g id="edge1" class="edge">
<title>Node1&#45;&gt;Node2</title>
<path fill="none" stroke="#63b8ff" d="M109.25,-47.5C117.76,-47.5 126.52,-47.5 134.91,-47.5"/>
<polygon fill="#63b8ff" stroke="#63b8ff" points="134.93,-51 144.93,-47.5 134.93,-44 134.93,-51"/>
</g>
<!-- Node3 -->
<g id="node3" class="node">
<title>Node3</title>
<g id="a_node3"><a xlink:href="namespacesharp.html#a78762bd2862b739e6ae331c45cb90202" target="_top" xlink:title="Compute the temperature along a moist adiabat (wet&#45;bulb potential temperature) at a given pressure.">
<polygon fill="white" stroke="#666666" points="375,-95 261,-95 261,-76 375,-76 375,-95"/>
<text text-anchor="middle" x="318" y="-83" font-family="Helvetica,sans-Serif" font-size="10.00">sharp::saturated_lift</text>
</a>
</g>
</g>
<!-- Node2&#45;&gt;Node3 -->
<g id="edge2" class="edge">
<title>Node2&#45;&gt;Node3</title>
<path fill="none" stroke="#63b8ff" d="M219.06,-57.09C235.81,-61.95 256.36,-67.91 274.3,-73.11"/>
<polygon fill="#63b8ff" stroke="#63b8ff" points="273.37,-76.49 283.95,-75.91 275.32,-69.77 273.37,-76.49"/>
</g>
<!-- Node4 -->
<g id="node4" class="node">
<title>Node4</title>
<g id="a_node4"><a xlink:href="namespacesharp.html#a52c7e44244cfacdbe530356f295ff114" target="_top" xlink:title="Computes the difference between the wet&#45;bulb potential temperatures for saturated and dry air given t...">
<polygon fill="white" stroke="#666666" points="485,-76 411,-76 411,-57 485,-57 485,-76"/>
<text text-anchor="middle" x="448" y="-64" font-family="Helvetica,sans-Serif" font-size="10.00">sharp::wobf</text>
</a>
</g>
</g>
<!-- Node2&#45;&gt;Node4 -->
<g id="edge5" class="edge">
<title>Node2&#45;&gt;Node4</title>
<path fill="none" stroke="#63b8ff" d="M225.07,-50.34C271.94,-53.76 350.42,-59.47 400.4,-63.11"/>
<polygon fill="#63b8ff" stroke="#63b8ff" points="400.38,-66.62 410.61,-63.85 400.89,-59.63 400.38,-66.62"/>
</g>
<!-- Node5 -->
<g id="node5" class="node">
<title>Node5</title>
<g id="a_node5"><a xlink:href="namespacesharp.html#ac3f1b3b63f158e6c88e94dd9daa2a71c" target="_top" xlink:title="Compute the potential temperature.">
<polygon fill="white" stroke="#666666" points="355.5,-19 280.5,-19 280.5,0 355.5,0 355.5,-19"/>
<text text-anchor="middle" x="318" y="-7" font-family="Helvetica,sans-Serif" font-size="10.00">sharp::theta</text>
</a>
</g>
</g>
<!-- Node2&#45;&gt;Node5 -->
<g id="edge4" class="edge">
<title>Node2&#45;&gt;Node5</title>
<path fill="none" stroke="#63b8ff" d="M219.06,-37.91C235.81,-33.05 256.36,-27.09 274.3,-21.89"/>
<polygon fill="#63b8ff" stroke="#63b8ff" points="275.32,-25.23 283.95,-19.09 273.37,-18.51 275.32,-25.23"/>
</g>
<!-- Node3&#45;&gt;Node4 -->
<g id="edge3" class="edge">
<title>Node3&#45;&gt;Node4</title>
<path fill="none" stroke="#63b8ff" d="M375.14,-77.17C383.74,-75.89 392.53,-74.59 400.87,-73.35"/>
<polygon fill="#63b8ff" stroke="#63b8ff" points="401.42,-76.8 410.79,-71.87 400.39,-69.88 401.42,-76.8"/>
</g>
</g>
</svg>
