<?xml version="1.0" encoding="UTF-8" standalone="no"?>
<!DOCTYPE svg PUBLIC "-//W3C//DTD SVG 1.1//EN"
 "http://www.w3.org/Graphics/SVG/1.1/DTD/svg11.dtd">
<!-- Generated by graphviz version 2.43.0 (0)
 -->
<!-- Title: sharp::Parcel::most_unstable_parcel Pages: 1 -->
<svg width="899pt" height="374pt"
 viewBox="0.00 0.00 899.00 374.00" xmlns="http://www.w3.org/2000/svg" xmlns:xlink="http://www.w3.org/1999/xlink">
<g id="graph0" class="graph" transform="scale(1 1) rotate(0) translate(4 370)">
<title>sharp::Parcel::most_unstable_parcel</title>
<!-- Node1 -->
<g id="node1" class="node">
<title>Node1</title>
<g id="a_node1"><a xlink:title="Construct and return a most&#45;unstable Parcel.">
<polygon fill="#999999" stroke="#666666" points="110,-233.5 0,-233.5 0,-203.5 110,-203.5 110,-233.5"/>
<text text-anchor="start" x="8" y="-221.5" font-family="Helvetica,sans-Serif" font-size="10.00">sharp::Parcel::most</text>
<text text-anchor="middle" x="55" y="-210.5" font-family="Helvetica,sans-Serif" font-size="10.00">_unstable_parcel</text>
</a>
</g>
</g>
<!-- Node2 -->
<g id="node2" class="node">
<title>Node2</title>
<g id="a_node2"><a xlink:href="namespacesharp.html#aae31e8a18568ec26222b603e629c5598" target="_top" xlink:title="compute buoyancy given parcel and environment temperatures">
<polygon fill="white" stroke="#666666" points="261.5,-287 164.5,-287 164.5,-268 261.5,-268 261.5,-287"/>
<text text-anchor="middle" x="213" y="-275" font-family="Helvetica,sans-Serif" font-size="10.00">sharp::buoyancy</text>
</a>
</g>
</g>
<!-- Node1&#45;&gt;Node2 -->
<g id="edge1" class="edge">
<title>Node1&#45;&gt;Node2</title>
<path fill="none" stroke="#63b8ff" d="M85.91,-233.59C103.18,-241.94 125.49,-252.09 146,-259.5 151.51,-261.49 157.35,-263.38 163.18,-265.14"/>
<polygon fill="#63b8ff" stroke="#63b8ff" points="162.36,-268.55 172.94,-267.97 164.3,-261.82 162.36,-268.55"/>
</g>
<!-- Node3 -->
<g id="node3" class="node">
<title>Node3</title>
<g id="a_node3"><a xlink:href="structsharp_1_1Parcel.html#a0560bd193b2d2d6bc6b08baa7463fba4" target="_top" xlink:title="Compute CAPE and CINH for a previously lifted sharp::Parcel.">
<polygon fill="white" stroke="#666666" points="280,-250 146,-250 146,-231 280,-231 280,-250"/>
<text text-anchor="middle" x="213" y="-238" font-family="Helvetica,sans-Serif" font-size="10.00">sharp::Parcel::cape_cinh</text>
</a>
</g>
</g>
<!-- Node1&#45;&gt;Node3 -->
<g id="edge2" class="edge">
<title>Node1&#45;&gt;Node3</title>
<path fill="none" stroke="#63b8ff" d="M110.12,-226.13C118.41,-227.3 127.09,-228.53 135.75,-229.75"/>
<polygon fill="#63b8ff" stroke="#63b8ff" points="135.48,-233.24 145.87,-231.17 136.46,-226.31 135.48,-233.24"/>
</g>
<!-- Node5 -->
<g id="node5" class="node">
<title>Node5</title>
<g id="a_node5"><a xlink:href="namespacesharp.html#ac93f477dfa774c966b5da7521bd43ee6" target="_top" xlink:title="Returns the array indices corresponding to the given layer.">
<polygon fill="white" stroke="#666666" points="627,-250 499,-250 499,-231 627,-231 627,-250"/>
<text text-anchor="middle" x="563" y="-238" font-family="Helvetica,sans-Serif" font-size="10.00">sharp::get_layer_index</text>
</a>
</g>
</g>
<!-- Node1&#45;&gt;Node5 -->
<g id="edge20" class="edge">
<title>Node1&#45;&gt;Node5</title>
<path fill="none" stroke="#63b8ff" d="M110.23,-213.99C188.47,-208.45 337.41,-201.49 463,-216.5 482.23,-218.8 503.12,-223.52 520.74,-228.17"/>
<polygon fill="#63b8ff" stroke="#63b8ff" points="520.13,-231.64 530.69,-230.89 521.97,-224.88 520.13,-231.64"/>
</g>
<!-- Node15 -->
<g id="node15" class="node">
<title>Node15</title>
<g id="a_node15"><a xlink:href="structsharp_1_1Parcel.html#a9523de2b8b4c28ca49fba3013f94cb06" target="_top" xlink:title="Lifts a sharp::Parcel to compute its virtual temperature.">
<polygon fill="white" stroke="#666666" points="262,-118.5 164,-118.5 164,-88.5 262,-88.5 262,-118.5"/>
<text text-anchor="start" x="172" y="-106.5" font-family="Helvetica,sans-Serif" font-size="10.00">sharp::Parcel::lift</text>
<text text-anchor="middle" x="213" y="-95.5" font-family="Helvetica,sans-Serif" font-size="10.00">_parcel</text>
</a>
</g>
</g>
<!-- Node1&#45;&gt;Node15 -->
<g id="edge21" class="edge">
<title>Node1&#45;&gt;Node15</title>
<path fill="none" stroke="#63b8ff" d="M76.39,-203.47C103.72,-183.32 152.37,-147.46 183.36,-124.61"/>
<polygon fill="#63b8ff" stroke="#63b8ff" points="185.63,-127.29 191.6,-118.54 181.47,-121.65 185.63,-127.29"/>
</g>
<!-- Node4 -->
<g id="node4" class="node">
<title>Node4</title>
<g id="a_node4"><a xlink:href="structsharp_1_1Parcel.html#a8a311e09b1d46a829212da94cf181537" target="_top" xlink:title="Find the LFC and EL that bounds the layer with the maximum CAPE.">
<polygon fill="white" stroke="#666666" points="441,-255.5 338,-255.5 338,-225.5 441,-225.5 441,-255.5"/>
<text text-anchor="start" x="346" y="-243.5" font-family="Helvetica,sans-Serif" font-size="10.00">sharp::Parcel::find</text>
<text text-anchor="middle" x="389.5" y="-232.5" font-family="Helvetica,sans-Serif" font-size="10.00">_lfc_el</text>
</a>
</g>
</g>
<!-- Node3&#45;&gt;Node4 -->
<g id="edge3" class="edge">
<title>Node3&#45;&gt;Node4</title>
<path fill="none" stroke="#63b8ff" d="M280.47,-240.5C295.96,-240.5 312.39,-240.5 327.63,-240.5"/>
<polygon fill="#63b8ff" stroke="#63b8ff" points="327.96,-244 337.96,-240.5 327.96,-237 327.96,-244"/>
</g>
<!-- Node11 -->
<g id="node11" class="node">
<title>Node11</title>
<g id="a_node11"><a xlink:href="namespacesharp.html#a7acec1642f27591dc988bf9e48b4612d" target="_top" xlink:title="Returns a trapezoidal integration of the given layer.">
<polygon fill="white" stroke="#666666" points="451.5,-351.5 327.5,-351.5 327.5,-321.5 451.5,-321.5 451.5,-351.5"/>
<text text-anchor="start" x="335.5" y="-339.5" font-family="Helvetica,sans-Serif" font-size="10.00">sharp::integrate_layer</text>
<text text-anchor="middle" x="389.5" y="-328.5" font-family="Helvetica,sans-Serif" font-size="10.00">_trapz</text>
</a>
</g>
</g>
<!-- Node3&#45;&gt;Node11 -->
<g id="edge11" class="edge">
<title>Node3&#45;&gt;Node11</title>
<path fill="none" stroke="#63b8ff" d="M262.35,-250.13C268.62,-252.58 274.69,-255.65 280,-259.5 303.06,-276.21 293.28,-295.34 316,-312.5 317.85,-313.9 319.78,-315.21 321.78,-316.46"/>
<polygon fill="#63b8ff" stroke="#63b8ff" points="320.44,-319.71 330.9,-321.44 323.8,-313.57 320.44,-319.71"/>
</g>
<!-- Node14 -->
<g id="node14" class="node">
<title>Node14</title>
<g id="a_node14"><a xlink:href="namespacesharp.html#a31da980f398c9f6a5960ddf868101a94" target="_top" xlink:title="Converts a sharp::PressureLayer to a sharp::HeightLayer.">
<polygon fill="white" stroke="#666666" points="450.5,-303.5 328.5,-303.5 328.5,-273.5 450.5,-273.5 450.5,-303.5"/>
<text text-anchor="start" x="336.5" y="-291.5" font-family="Helvetica,sans-Serif" font-size="10.00">sharp::pressure_layer</text>
<text text-anchor="middle" x="389.5" y="-280.5" font-family="Helvetica,sans-Serif" font-size="10.00">_to_height</text>
</a>
</g>
</g>
<!-- Node3&#45;&gt;Node14 -->
<g id="edge18" class="edge">
<title>Node3&#45;&gt;Node14</title>
<path fill="none" stroke="#63b8ff" d="M248.89,-250.1C270.32,-255.99 298.43,-263.72 323.8,-270.7"/>
<polygon fill="#63b8ff" stroke="#63b8ff" points="323.17,-274.16 333.74,-273.44 325.03,-267.41 323.17,-274.16"/>
</g>
<!-- Node4&#45;&gt;Node5 -->
<g id="edge4" class="edge">
<title>Node4&#45;&gt;Node5</title>
<path fill="none" stroke="#63b8ff" d="M441.03,-240.5C455.86,-240.5 472.39,-240.5 488.36,-240.5"/>
<polygon fill="#63b8ff" stroke="#63b8ff" points="488.74,-244 498.74,-240.5 488.74,-237 488.74,-244"/>
</g>
<!-- Node8 -->
<g id="node8" class="node">
<title>Node8</title>
<g id="a_node8"><a xlink:href="namespacesharp.html#a55e4f8ee4ff8a4a30d7b3f3d92a41c75" target="_top" xlink:title="Linearly interpolate a data field to a requested pressure level.">
<polygon fill="white" stroke="#666666" points="625.5,-292 500.5,-292 500.5,-273 625.5,-273 625.5,-292"/>
<text text-anchor="middle" x="563" y="-280" font-family="Helvetica,sans-Serif" font-size="10.00">sharp::interp_pressure</text>
</a>
</g>
</g>
<!-- Node4&#45;&gt;Node8 -->
<g id="edge7" class="edge">
<title>Node4&#45;&gt;Node8</title>
<path fill="none" stroke="#63b8ff" d="M441.03,-252.87C463.84,-258.46 490.67,-265.03 513.26,-270.56"/>
<polygon fill="#63b8ff" stroke="#63b8ff" points="512.44,-273.97 522.98,-272.94 514.1,-267.17 512.44,-273.97"/>
</g>
<!-- Node6 -->
<g id="node6" class="node">
<title>Node6</title>
<g id="a_node6"><a xlink:href="namespacesharp.html#a1edcf8bff9a13429bcbff7c1129024b3" target="_top" xlink:title="Finds the index of the lower bound that does not satisfy element &lt; value.">
<polygon fill="white" stroke="#666666" points="775.5,-250 663.5,-250 663.5,-231 775.5,-231 775.5,-250"/>
<text text-anchor="middle" x="719.5" y="-238" font-family="Helvetica,sans-Serif" font-size="10.00">sharp::lower_bound</text>
</a>
</g>
</g>
<!-- Node5&#45;&gt;Node6 -->
<g id="edge5" class="edge">
<title>Node5&#45;&gt;Node6</title>
<path fill="none" stroke="#63b8ff" d="M627.29,-240.5C635.91,-240.5 644.78,-240.5 653.43,-240.5"/>
<polygon fill="#63b8ff" stroke="#63b8ff" points="653.47,-244 663.47,-240.5 653.47,-237 653.47,-244"/>
</g>
<!-- Node7 -->
<g id="node7" class="node">
<title>Node7</title>
<g id="a_node7"><a xlink:href="namespacesharp.html#a772686549a5111c1152b778731119aa6" target="_top" xlink:title="Finds the first index that satisfies value &lt; element.">
<polygon fill="white" stroke="#666666" points="776,-292 663,-292 663,-273 776,-273 776,-292"/>
<text text-anchor="middle" x="719.5" y="-280" font-family="Helvetica,sans-Serif" font-size="10.00">sharp::upper_bound</text>
</a>
</g>
</g>
<!-- Node5&#45;&gt;Node7 -->
<g id="edge6" class="edge">
<title>Node5&#45;&gt;Node7</title>
<path fill="none" stroke="#63b8ff" d="M599.06,-250.03C621.1,-256.02 649.76,-263.81 673.48,-270.26"/>
<polygon fill="#63b8ff" stroke="#63b8ff" points="672.75,-273.69 683.31,-272.93 674.58,-266.93 672.75,-273.69"/>
</g>
<!-- Node8&#45;&gt;Node7 -->
<g id="edge10" class="edge">
<title>Node8&#45;&gt;Node7</title>
<path fill="none" stroke="#63b8ff" d="M625.51,-282.5C634.43,-282.5 643.65,-282.5 652.66,-282.5"/>
<polygon fill="#63b8ff" stroke="#63b8ff" points="652.71,-286 662.71,-282.5 652.71,-279 652.71,-286"/>
</g>
<!-- Node9 -->
<g id="node9" class="node">
<title>Node9</title>
<g id="a_node9"><a xlink:href="namespacesharp.html#a0bf533560780fdb77bc3656db8d89208" target="_top" xlink:title="Linearly interpolates between a and b with distance t.">
<polygon fill="white" stroke="#666666" points="753.5,-347 685.5,-347 685.5,-328 753.5,-328 753.5,-347"/>
<text text-anchor="middle" x="719.5" y="-335" font-family="Helvetica,sans-Serif" font-size="10.00">sharp::lerp</text>
</a>
</g>
</g>
<!-- Node8&#45;&gt;Node9 -->
<g id="edge8" class="edge">
<title>Node8&#45;&gt;Node9</title>
<path fill="none" stroke="#63b8ff" d="M597.51,-292.05C607.09,-294.93 617.5,-298.21 627,-301.5 646.82,-308.37 668.69,-316.94 686.08,-324"/>
<polygon fill="#63b8ff" stroke="#63b8ff" points="685.18,-327.41 695.76,-327.95 687.82,-320.93 685.18,-327.41"/>
</g>
<!-- Node10 -->
<g id="node10" class="node">
<title>Node10</title>
<g id="a_node10"><a xlink:href="namespacesharp.html#ac4464059524ff56c7974141bb4cc7375" target="_top" xlink:title="Linearly interpolates between a and b with distance t.">
<polygon fill="white" stroke="#666666" points="891,-347 812,-347 812,-328 891,-328 891,-347"/>
<text text-anchor="middle" x="851.5" y="-335" font-family="Helvetica,sans-Serif" font-size="10.00">sharp::__lerp</text>
</a>
</g>
</g>
<!-- Node9&#45;&gt;Node10 -->
<g id="edge9" class="edge">
<title>Node9&#45;&gt;Node10</title>
<path fill="none" stroke="#63b8ff" d="M753.64,-337.5C768.2,-337.5 785.6,-337.5 801.61,-337.5"/>
<polygon fill="#63b8ff" stroke="#63b8ff" points="801.88,-341 811.88,-337.5 801.88,-334 801.88,-341"/>
</g>
<!-- Node11&#45;&gt;Node5 -->
<g id="edge13" class="edge">
<title>Node11&#45;&gt;Node5</title>
<path fill="none" stroke="#63b8ff" d="M447.57,-321.39C453.01,-318.85 458.26,-315.91 463,-312.5 484.65,-296.93 477.7,-280.55 499,-264.5 504.46,-260.38 510.72,-256.9 517.12,-253.96"/>
<polygon fill="#63b8ff" stroke="#63b8ff" points="518.62,-257.13 526.52,-250.06 515.94,-250.66 518.62,-257.13"/>
</g>
<!-- Node11&#45;&gt;Node8 -->
<g id="edge17" class="edge">
<title>Node11&#45;&gt;Node8</title>
<path fill="none" stroke="#63b8ff" d="M436.37,-321.49C455.68,-315.23 478.41,-307.93 499,-301.5 505.74,-299.4 512.9,-297.2 519.88,-295.08"/>
<polygon fill="#63b8ff" stroke="#63b8ff" points="521.35,-298.29 529.91,-292.05 519.33,-291.59 521.35,-298.29"/>
</g>
<!-- Node12 -->
<g id="node12" class="node">
<title>Node12</title>
<g id="a_node12"><a xlink:href="namespacesharp.html#a3558a68454edd4679ef97335e3a9f1fb" target="_top" xlink:title="A kernel that computes the area under a curve using the trapezoidal rule.">
<polygon fill="white" stroke="#666666" points="618,-329 508,-329 508,-310 618,-310 618,-329"/>
<text text-anchor="middle" x="563" y="-317" font-family="Helvetica,sans-Serif" font-size="10.00">sharp::_integ_trapz</text>
</a>
</g>
</g>
<!-- Node11&#45;&gt;Node12 -->
<g id="edge12" class="edge">
<title>Node11&#45;&gt;Node12</title>
<path fill="none" stroke="#63b8ff" d="M451.93,-330.41C466.77,-328.94 482.67,-327.36 497.63,-325.88"/>
<polygon fill="#63b8ff" stroke="#63b8ff" points="498.22,-329.34 507.82,-324.87 497.53,-322.37 498.22,-329.34"/>
</g>
<!-- Node13 -->
<g id="node13" class="node">
<title>Node13</title>
<g id="a_node13"><a xlink:href="namespacesharp.html#ae8240f026498ad2775633a8d0dcf100d" target="_top" xlink:title="Linearly interpolate a data field to a requested height level.">
<polygon fill="white" stroke="#666666" points="620,-366 506,-366 506,-347 620,-347 620,-366"/>
<text text-anchor="middle" x="563" y="-354" font-family="Helvetica,sans-Serif" font-size="10.00">sharp::interp_height</text>
</a>
</g>
</g>
<!-- Node11&#45;&gt;Node13 -->
<g id="edge14" class="edge">
<title>Node11&#45;&gt;Node13</title>
<path fill="none" stroke="#63b8ff" d="M451.93,-343.66C466.08,-345.31 481.2,-347.08 495.56,-348.75"/>
<polygon fill="#63b8ff" stroke="#63b8ff" points="495.51,-352.27 505.85,-349.95 496.32,-345.32 495.51,-352.27"/>
</g>
<!-- Node13&#45;&gt;Node7 -->
<g id="edge16" class="edge">
<title>Node13&#45;&gt;Node7</title>
<path fill="none" stroke="#63b8ff" d="M603.56,-346.97C611.47,-344.58 619.61,-341.75 627,-338.5 640.64,-332.51 672.96,-312.14 695.29,-297.7"/>
<polygon fill="#63b8ff" stroke="#63b8ff" points="697.39,-300.51 703.87,-292.12 693.58,-294.64 697.39,-300.51"/>
</g>
<!-- Node13&#45;&gt;Node9 -->
<g id="edge15" class="edge">
<title>Node13&#45;&gt;Node9</title>
<path fill="none" stroke="#63b8ff" d="M620.22,-349.59C638.36,-347.35 658.19,-344.92 675.25,-342.82"/>
<polygon fill="#63b8ff" stroke="#63b8ff" points="675.98,-346.26 685.48,-341.56 675.12,-339.31 675.98,-346.26"/>
</g>
<!-- Node14&#45;&gt;Node8 -->
<g id="edge19" class="edge">
<title>Node14&#45;&gt;Node8</title>
<path fill="none" stroke="#63b8ff" d="M450.96,-286.38C463.6,-285.94 477.03,-285.47 490.03,-285.02"/>
<polygon fill="#63b8ff" stroke="#63b8ff" points="490.47,-288.5 500.34,-284.66 490.23,-281.51 490.47,-288.5"/>
</g>
<!-- Node15&#45;&gt;Node5 -->
<g id="edge26" class="edge">
<title>Node15&#45;&gt;Node5</title>
<path fill="none" stroke="#63b8ff" d="M262.43,-91.38C314.93,-80.94 399.69,-72.12 463,-104.5 511.59,-129.35 541.99,-190.39 554.87,-221.54"/>
<polygon fill="#63b8ff" stroke="#63b8ff" points="551.63,-222.86 558.57,-230.87 558.14,-220.28 551.63,-222.86"/>
</g>
<!-- Node16 -->
<g id="node16" class="node">
<title>Node16</title>
<g id="a_node16"><a xlink:href="namespacesharp.html#ae4385866921cd7286946d9ffdd65c25e" target="_top" xlink:title="Lift a parcel dry adiabatically to its Lifted Condensation Level (LCL).">
<polygon fill="white" stroke="#666666" points="428.5,-56 350.5,-56 350.5,-37 428.5,-37 428.5,-56"/>
<text text-anchor="middle" x="389.5" y="-44" font-family="Helvetica,sans-Serif" font-size="10.00">sharp::drylift</text>
</a>
</g>
</g>
<!-- Node15&#45;&gt;Node16 -->
<g id="edge22" class="edge">
<title>Node15&#45;&gt;Node16</title>
<path fill="none" stroke="#63b8ff" d="M260.3,-88.37C288.15,-79.28 323.19,-67.83 349.59,-59.21"/>
<polygon fill="#63b8ff" stroke="#63b8ff" points="350.84,-62.48 359.26,-56.05 348.67,-55.83 350.84,-62.48"/>
</g>
<!-- Node18 -->
<g id="node18" class="node">
<title>Node18</title>
<g id="a_node18"><a xlink:href="namespacesharp.html#ac3f1b3b63f158e6c88e94dd9daa2a71c" target="_top" xlink:title="Compute the potential temperature.">
<polygon fill="white" stroke="#666666" points="600.5,-19 525.5,-19 525.5,0 600.5,0 600.5,-19"/>
<text text-anchor="middle" x="563" y="-7" font-family="Helvetica,sans-Serif" font-size="10.00">sharp::theta</text>
</a>
</g>
</g>
<!-- Node15&#45;&gt;Node18 -->
<g id="edge28" class="edge">
<title>Node15&#45;&gt;Node18</title>
<path fill="none" stroke="#63b8ff" d="M228.56,-88.29C246.99,-70.17 280.61,-40.69 316,-27.5 381.88,-2.95 464.45,-2.49 515.19,-5.31"/>
<polygon fill="#63b8ff" stroke="#63b8ff" points="515.02,-8.81 525.21,-5.94 515.45,-1.82 515.02,-8.81"/>
</g>
<!-- Node20 -->
<g id="node20" class="node">
<title>Node20</title>
<g id="a_node20"><a xlink:href="namespacesharp.html#a136ed55b860c71004fb8b75d1aa543cf" target="_top" xlink:title="Compute the water vapor mixing ratio from specific humidity.">
<polygon fill="white" stroke="#666666" points="435,-169 344,-169 344,-150 435,-150 435,-169"/>
<text text-anchor="middle" x="389.5" y="-157" font-family="Helvetica,sans-Serif" font-size="10.00">sharp::mixratio</text>
</a>
</g>
</g>
<!-- Node15&#45;&gt;Node20 -->
<g id="edge27" class="edge">
<title>Node15&#45;&gt;Node20</title>
<path fill="none" stroke="#63b8ff" d="M251.43,-118.61C270.57,-126.03 294.34,-134.8 316,-141.5 322.58,-143.53 329.54,-145.5 336.45,-147.33"/>
<polygon fill="#63b8ff" stroke="#63b8ff" points="335.93,-150.81 346.49,-149.93 337.68,-144.04 335.93,-150.81"/>
</g>
<!-- Node21 -->
<g id="node21" class="node">
<title>Node21</title>
<g id="a_node21"><a xlink:href="namespacesharp.html#a38988e9aae5f478d49a59e29a4d384fb" target="_top" xlink:title="Compute the full virtual temperature.">
<polygon fill="white" stroke="#666666" points="463,-132 316,-132 316,-113 463,-113 463,-132"/>
<text text-anchor="middle" x="389.5" y="-120" font-family="Helvetica,sans-Serif" font-size="10.00">sharp::virtual_temperature</text>
</a>
</g>
</g>
<!-- Node15&#45;&gt;Node21 -->
<g id="edge29" class="edge">
<title>Node15&#45;&gt;Node21</title>
<path fill="none" stroke="#63b8ff" d="M262.14,-108.74C275.67,-110.21 290.77,-111.86 305.7,-113.49"/>
<polygon fill="#63b8ff" stroke="#63b8ff" points="305.67,-117 315.99,-114.61 306.43,-110.04 305.67,-117"/>
</g>
<!-- Node17 -->
<g id="node17" class="node">
<title>Node17</title>
<g id="a_node17"><a xlink:href="namespacesharp.html#a6f435bc49cb516376e1dc595e837e98b" target="_top" xlink:title="Compute the temperature of the LCL.">
<polygon fill="white" stroke="#666666" points="626.5,-56 499.5,-56 499.5,-37 626.5,-37 626.5,-56"/>
<text text-anchor="middle" x="563" y="-44" font-family="Helvetica,sans-Serif" font-size="10.00">sharp::lcl_temperature</text>
</a>
</g>
</g>
<!-- Node16&#45;&gt;Node17 -->
<g id="edge23" class="edge">
<title>Node16&#45;&gt;Node17</title>
<path fill="none" stroke="#63b8ff" d="M428.56,-46.5C446.46,-46.5 468.41,-46.5 489.31,-46.5"/>
<polygon fill="#63b8ff" stroke="#63b8ff" points="489.46,-50 499.46,-46.5 489.46,-43 489.46,-50"/>
</g>
<!-- Node16&#45;&gt;Node18 -->
<g id="edge24" class="edge">
<title>Node16&#45;&gt;Node18</title>
<path fill="none" stroke="#63b8ff" d="M428.56,-38.29C454.11,-32.78 487.95,-25.48 515.15,-19.61"/>
<polygon fill="#63b8ff" stroke="#63b8ff" points="516.19,-22.96 525.22,-17.43 514.71,-16.12 516.19,-22.96"/>
</g>
<!-- Node19 -->
<g id="node19" class="node">
<title>Node19</title>
<g id="a_node19"><a xlink:href="namespacesharp.html#a8eeef9c07c473d71fc6a2e2c4da88179" target="_top" xlink:title="Comute the pressure level given potential temperature and temperature.">
<polygon fill="white" stroke="#666666" points="615,-93 511,-93 511,-74 615,-74 615,-93"/>
<text text-anchor="middle" x="563" y="-81" font-family="Helvetica,sans-Serif" font-size="10.00">sharp::theta_level</text>
</a>
</g>
</g>
<!-- Node16&#45;&gt;Node19 -->
<g id="edge25" class="edge">
<title>Node16&#45;&gt;Node19</title>
<path fill="none" stroke="#63b8ff" d="M428.56,-54.71C451.82,-59.73 481.95,-66.23 507.69,-71.78"/>
<polygon fill="#63b8ff" stroke="#63b8ff" points="507.16,-75.25 517.68,-73.94 508.64,-68.41 507.16,-75.25"/>
</g>
</g>
</svg>
