<?xml version="1.0" encoding="UTF-8" standalone="no"?>
<!DOCTYPE svg PUBLIC "-//W3C//DTD SVG 1.1//EN"
 "http://www.w3.org/Graphics/SVG/1.1/DTD/svg11.dtd">
<!-- Generated by graphviz version 2.43.0 (0)
 -->
<!-- Title: sharp::lifter_wobus::parcel_virtual_temperature Pages: 1 -->
<svg width="346pt" height="64pt"
 viewBox="0.00 0.00 346.00 64.00" xmlns="http://www.w3.org/2000/svg" xmlns:xlink="http://www.w3.org/1999/xlink">
<g id="graph0" class="graph" transform="scale(1 1) rotate(0) translate(4 60)">
<title>sharp::lifter_wobus::parcel_virtual_temperature</title>
<!-- Node1 -->
<g id="node1" class="node">
<title>Node1</title>
<g id="a_node1"><a xlink:title="Computes the virtual temperature of the parcel.">
<polygon fill="#999999" stroke="#666666" points="155,-42.5 0,-42.5 0,-12.5 155,-12.5 155,-42.5"/>
<text text-anchor="start" x="8" y="-30.5" font-family="Helvetica,sans-Serif" font-size="10.00">sharp::lifter_wobus</text>
<text text-anchor="middle" x="77.5" y="-19.5" font-family="Helvetica,sans-Serif" font-size="10.00">::parcel_virtual_temperature</text>
</a>
</g>
</g>
<!-- Node2 -->
<g id="node2" class="node">
<title>Node2</title>
<g id="a_node2"><a xlink:href="namespacesharp.html#a136ed55b860c71004fb8b75d1aa543cf" target="_top" xlink:title="Compute the water vapor mixing ratio from specific humidity.">
<polygon fill="white" stroke="#666666" points="310,-56 219,-56 219,-37 310,-37 310,-56"/>
<text text-anchor="middle" x="264.5" y="-44" font-family="Helvetica,sans-Serif" font-size="10.00">sharp::mixratio</text>
</a>
</g>
</g>
<!-- Node1&#45;&gt;Node2 -->
<g id="edge1" class="edge">
<title>Node1&#45;&gt;Node2</title>
<path fill="none" stroke="#63b8ff" d="M155.08,-35.37C173.03,-37.21 191.8,-39.14 208.58,-40.86"/>
<polygon fill="#63b8ff" stroke="#63b8ff" points="208.44,-44.36 218.75,-41.9 209.16,-37.4 208.44,-44.36"/>
</g>
<!-- Node3 -->
<g id="node3" class="node">
<title>Node3</title>
<g id="a_node3"><a xlink:href="namespacesharp.html#a38988e9aae5f478d49a59e29a4d384fb" target="_top" xlink:title="Compute the full virtual temperature.">
<polygon fill="white" stroke="#666666" points="338,-19 191,-19 191,0 338,0 338,-19"/>
<text text-anchor="middle" x="264.5" y="-7" font-family="Helvetica,sans-Serif" font-size="10.00">sharp::virtual_temperature</text>
</a>
</g>
</g>
<!-- Node1&#45;&gt;Node3 -->
<g id="edge2" class="edge">
<title>Node1&#45;&gt;Node3</title>
<path fill="none" stroke="#63b8ff" d="M155.08,-20.05C163.58,-19.22 172.27,-18.38 180.84,-17.54"/>
<polygon fill="#63b8ff" stroke="#63b8ff" points="181.22,-21.02 190.84,-16.57 180.55,-14.05 181.22,-21.02"/>
</g>
</g>
</svg>
