<?xml version="1.0" encoding="UTF-8" standalone="no"?>
<!DOCTYPE svg PUBLIC "-//W3C//DTD SVG 1.1//EN"
 "http://www.w3.org/Graphics/SVG/1.1/DTD/svg11.dtd">
<!-- Generated by graphviz version 2.43.0 (0)
 -->
<!-- Title: sharp::Parcel::mixed_layer_parcel Pages: 1 -->
<svg width="861pt" height="191pt"
 viewBox="0.00 0.00 861.00 191.00" xmlns="http://www.w3.org/2000/svg" xmlns:xlink="http://www.w3.org/1999/xlink">
<g id="graph0" class="graph" transform="scale(1 1) rotate(0) translate(4 187)">
<title>sharp::Parcel::mixed_layer_parcel</title>
<!-- Node1 -->
<g id="node1" class="node">
<title>Node1</title>
<g id="a_node1"><a xlink:title="Construct and return a mixed&#45;layer Parcel.">
<polygon fill="#999999" stroke="#666666" points="115,-110.5 0,-110.5 0,-80.5 115,-80.5 115,-110.5"/>
<text text-anchor="start" x="8" y="-98.5" font-family="Helvetica,sans-Serif" font-size="10.00">sharp::Parcel::mixed</text>
<text text-anchor="middle" x="57.5" y="-87.5" font-family="Helvetica,sans-Serif" font-size="10.00">_layer_parcel</text>
</a>
</g>
</g>
<!-- Node2 -->
<g id="node2" class="node">
<title>Node2</title>
<g id="a_node2"><a xlink:href="namespacesharp.html#af8484e9fe21c025b64ecffde614feb11" target="_top" xlink:title="Linearly interpolate a data field to a requested height level.">
<polygon fill="white" stroke="#666666" points="582,-183 468,-183 468,-164 582,-164 582,-183"/>
<text text-anchor="middle" x="525" y="-171" font-family="Helvetica,sans-Serif" font-size="10.00">sharp::interp_height</text>
</a>
</g>
</g>
<!-- Node1&#45;&gt;Node2 -->
<g id="edge1" class="edge">
<title>Node1&#45;&gt;Node2</title>
<path fill="none" stroke="#63b8ff" d="M77.76,-110.7C95.62,-123.84 123.5,-142.02 151,-150.5 254.48,-182.4 381.57,-182.48 457.51,-178.67"/>
<polygon fill="#63b8ff" stroke="#63b8ff" points="458.08,-182.15 467.87,-178.11 457.7,-175.16 458.08,-182.15"/>
</g>
<!-- Node6 -->
<g id="node6" class="node">
<title>Node6</title>
<g id="a_node6"><a xlink:href="namespacesharp.html#a298e2c96c389f2c5177d3626c908927e" target="_top" xlink:title="Computes the mass&#45;weighted mean value of a field over a given pressure layer.">
<polygon fill="white" stroke="#666666" points="261.5,-142 154.5,-142 154.5,-123 261.5,-123 261.5,-142"/>
<text text-anchor="middle" x="208" y="-130" font-family="Helvetica,sans-Serif" font-size="10.00">sharp::layer_mean</text>
</a>
</g>
</g>
<!-- Node1&#45;&gt;Node6 -->
<g id="edge5" class="edge">
<title>Node1&#45;&gt;Node6</title>
<path fill="none" stroke="#63b8ff" d="M115.07,-109.59C129.44,-113.18 144.76,-116.99 158.69,-120.46"/>
<polygon fill="#63b8ff" stroke="#63b8ff" points="158,-123.9 168.55,-122.92 159.69,-117.11 158,-123.9"/>
</g>
<!-- Node12 -->
<g id="node12" class="node">
<title>Node12</title>
<g id="a_node12"><a xlink:href="structsharp_1_1Parcel.html#a4141b5aa7889103f11e031be28545f4d" target="_top" xlink:title=" ">
<polygon fill="white" stroke="#666666" points="265,-105 151,-105 151,-86 265,-86 265,-105"/>
<text text-anchor="middle" x="208" y="-93" font-family="Helvetica,sans-Serif" font-size="10.00">sharp::Parcel::Parcel</text>
</a>
</g>
</g>
<!-- Node1&#45;&gt;Node12 -->
<g id="edge15" class="edge">
<title>Node1&#45;&gt;Node12</title>
<path fill="none" stroke="#63b8ff" d="M115.07,-95.5C123.34,-95.5 131.93,-95.5 140.38,-95.5"/>
<polygon fill="#63b8ff" stroke="#63b8ff" points="140.59,-99 150.59,-95.5 140.59,-92 140.59,-99"/>
</g>
<!-- Node13 -->
<g id="node13" class="node">
<title>Node13</title>
<g id="a_node13"><a xlink:href="namespacesharp.html#a90a9ae3f1a154cecbcf65d7dbf19233f" target="_top" xlink:title="Compute the temperature at a given water vapor mixing ratio and pressure level.">
<polygon fill="white" stroke="#666666" points="263,-67.5 153,-67.5 153,-37.5 263,-37.5 263,-67.5"/>
<text text-anchor="start" x="161" y="-55.5" font-family="Helvetica,sans-Serif" font-size="10.00">sharp::temperature</text>
<text text-anchor="middle" x="208" y="-44.5" font-family="Helvetica,sans-Serif" font-size="10.00">_at_mixratio</text>
</a>
</g>
</g>
<!-- Node1&#45;&gt;Node13 -->
<g id="edge16" class="edge">
<title>Node1&#45;&gt;Node13</title>
<path fill="none" stroke="#63b8ff" d="M110.44,-80.46C121.74,-77.19 133.81,-73.69 145.44,-70.32"/>
<polygon fill="#63b8ff" stroke="#63b8ff" points="146.46,-73.67 155.09,-67.53 144.51,-66.95 146.46,-73.67"/>
</g>
<!-- Node14 -->
<g id="node14" class="node">
<title>Node14</title>
<g id="a_node14"><a xlink:href="namespacesharp.html#acfd0143ab72871c4aabc95c1140ee8fb" target="_top" xlink:title="Compute the potential temperature.">
<polygon fill="white" stroke="#666666" points="245.5,-19 170.5,-19 170.5,0 245.5,0 245.5,-19"/>
<text text-anchor="middle" x="208" y="-7" font-family="Helvetica,sans-Serif" font-size="10.00">sharp::theta</text>
</a>
</g>
</g>
<!-- Node1&#45;&gt;Node14 -->
<g id="edge17" class="edge">
<title>Node1&#45;&gt;Node14</title>
<path fill="none" stroke="#63b8ff" d="M75.88,-80.45C93.73,-65.6 122.81,-43.07 151,-28.5 155.06,-26.4 159.4,-24.46 163.8,-22.68"/>
<polygon fill="#63b8ff" stroke="#63b8ff" points="165.32,-25.85 173.45,-19.05 162.86,-19.3 165.32,-25.85"/>
</g>
<!-- Node3 -->
<g id="node3" class="node">
<title>Node3</title>
<g id="a_node3"><a xlink:href="namespacesharp.html#a8aa123fbe3b59a7023446b0fe2186c49" target="_top" xlink:title="Linearly interpolates between a and b with distance t.">
<polygon fill="white" stroke="#666666" points="715.5,-164 647.5,-164 647.5,-145 715.5,-145 715.5,-164"/>
<text text-anchor="middle" x="681.5" y="-152" font-family="Helvetica,sans-Serif" font-size="10.00">sharp::lerp</text>
</a>
</g>
</g>
<!-- Node2&#45;&gt;Node3 -->
<g id="edge2" class="edge">
<title>Node2&#45;&gt;Node3</title>
<path fill="none" stroke="#63b8ff" d="M582.22,-166.59C600.36,-164.35 620.19,-161.92 637.25,-159.82"/>
<polygon fill="#63b8ff" stroke="#63b8ff" points="637.98,-163.26 647.48,-158.56 637.12,-156.31 637.98,-163.26"/>
</g>
<!-- Node5 -->
<g id="node5" class="node">
<title>Node5</title>
<g id="a_node5"><a xlink:href="namespacesharp.html#a772686549a5111c1152b778731119aa6" target="_top" xlink:title="Finds the first index that satisfies value &lt; element.">
<polygon fill="white" stroke="#666666" points="738,-109 625,-109 625,-90 738,-90 738,-109"/>
<text text-anchor="middle" x="681.5" y="-97" font-family="Helvetica,sans-Serif" font-size="10.00">sharp::upper_bound</text>
</a>
</g>
</g>
<!-- Node2&#45;&gt;Node5 -->
<g id="edge4" class="edge">
<title>Node2&#45;&gt;Node5</title>
<path fill="none" stroke="#63b8ff" d="M563.2,-163.95C571.82,-161.28 580.85,-158.11 589,-154.5 602.48,-148.53 634.54,-128.74 656.88,-114.61"/>
<polygon fill="#63b8ff" stroke="#63b8ff" points="658.92,-117.46 665.49,-109.15 655.17,-111.55 658.92,-117.46"/>
</g>
<!-- Node4 -->
<g id="node4" class="node">
<title>Node4</title>
<g id="a_node4"><a xlink:href="namespacesharp.html#a8848423b96dfe09b90322efd2cc5bd43" target="_top" xlink:title="Linearly interpolates between a and b with distance t.">
<polygon fill="white" stroke="#666666" points="853,-164 774,-164 774,-145 853,-145 853,-164"/>
<text text-anchor="middle" x="813.5" y="-152" font-family="Helvetica,sans-Serif" font-size="10.00">sharp::__lerp</text>
</a>
</g>
</g>
<!-- Node3&#45;&gt;Node4 -->
<g id="edge3" class="edge">
<title>Node3&#45;&gt;Node4</title>
<path fill="none" stroke="#63b8ff" d="M715.64,-154.5C730.2,-154.5 747.6,-154.5 763.61,-154.5"/>
<polygon fill="#63b8ff" stroke="#63b8ff" points="763.88,-158 773.88,-154.5 763.88,-151 763.88,-158"/>
</g>
<!-- Node7 -->
<g id="node7" class="node">
<title>Node7</title>
<g id="a_node7"><a xlink:href="namespacesharp.html#a7acec1642f27591dc988bf9e48b4612d" target="_top" xlink:title="Returns a trapezoidal integration of the given layer.">
<polygon fill="white" stroke="#666666" points="425,-145.5 301,-145.5 301,-115.5 425,-115.5 425,-145.5"/>
<text text-anchor="start" x="309" y="-133.5" font-family="Helvetica,sans-Serif" font-size="10.00">sharp::integrate_layer</text>
<text text-anchor="middle" x="363" y="-122.5" font-family="Helvetica,sans-Serif" font-size="10.00">_trapz</text>
</a>
</g>
</g>
<!-- Node6&#45;&gt;Node7 -->
<g id="edge6" class="edge">
<title>Node6&#45;&gt;Node7</title>
<path fill="none" stroke="#63b8ff" d="M261.65,-131.81C271.02,-131.69 280.92,-131.56 290.7,-131.43"/>
<polygon fill="#63b8ff" stroke="#63b8ff" points="290.87,-134.93 300.83,-131.3 290.78,-127.93 290.87,-134.93"/>
</g>
<!-- Node7&#45;&gt;Node2 -->
<g id="edge11" class="edge">
<title>Node7&#45;&gt;Node2</title>
<path fill="none" stroke="#63b8ff" d="M419.96,-145.54C439.12,-150.69 460.31,-156.38 478.54,-161.28"/>
<polygon fill="#63b8ff" stroke="#63b8ff" points="477.76,-164.7 488.33,-163.91 479.58,-157.94 477.76,-164.7"/>
</g>
<!-- Node8 -->
<g id="node8" class="node">
<title>Node8</title>
<g id="a_node8"><a xlink:href="namespacesharp.html#a3558a68454edd4679ef97335e3a9f1fb" target="_top" xlink:title="A kernel that computes the area under a curve using the trapezoidal rule.">
<polygon fill="white" stroke="#666666" points="580,-146 470,-146 470,-127 580,-127 580,-146"/>
<text text-anchor="middle" x="525" y="-134" font-family="Helvetica,sans-Serif" font-size="10.00">sharp::_integ_trapz</text>
</a>
</g>
</g>
<!-- Node7&#45;&gt;Node8 -->
<g id="edge7" class="edge">
<title>Node7&#45;&gt;Node8</title>
<path fill="none" stroke="#63b8ff" d="M425.4,-132.8C436.6,-133.22 448.32,-133.66 459.6,-134.09"/>
<polygon fill="#63b8ff" stroke="#63b8ff" points="459.69,-137.59 469.82,-134.47 459.96,-130.6 459.69,-137.59"/>
</g>
<!-- Node9 -->
<g id="node9" class="node">
<title>Node9</title>
<g id="a_node9"><a xlink:href="namespacesharp.html#ac93f477dfa774c966b5da7521bd43ee6" target="_top" xlink:title="Returns the array indices corresponding to the given layer.">
<polygon fill="white" stroke="#666666" points="589,-72 461,-72 461,-53 589,-53 589,-72"/>
<text text-anchor="middle" x="525" y="-60" font-family="Helvetica,sans-Serif" font-size="10.00">sharp::get_layer_index</text>
</a>
</g>
</g>
<!-- Node7&#45;&gt;Node9 -->
<g id="edge8" class="edge">
<title>Node7&#45;&gt;Node9</title>
<path fill="none" stroke="#63b8ff" d="M389.69,-115.48C408.88,-104.71 435.99,-90.41 461,-80.5 465.83,-78.59 470.95,-76.78 476.09,-75.11"/>
<polygon fill="#63b8ff" stroke="#63b8ff" points="477.43,-78.36 485.95,-72.06 475.36,-71.67 477.43,-78.36"/>
</g>
<!-- Node11 -->
<g id="node11" class="node">
<title>Node11</title>
<g id="a_node11"><a xlink:href="namespacesharp.html#a7ed0899941867073e5062af04fdbd3e7" target="_top" xlink:title="Linearly interpolate a data field to a requested pressure level.">
<polygon fill="white" stroke="#666666" points="587.5,-109 462.5,-109 462.5,-90 587.5,-90 587.5,-109"/>
<text text-anchor="middle" x="525" y="-97" font-family="Helvetica,sans-Serif" font-size="10.00">sharp::interp_pressure</text>
</a>
</g>
</g>
<!-- Node7&#45;&gt;Node11 -->
<g id="edge12" class="edge">
<title>Node7&#45;&gt;Node11</title>
<path fill="none" stroke="#63b8ff" d="M425.4,-118.6C438.34,-116.1 451.96,-113.46 464.81,-110.97"/>
<polygon fill="#63b8ff" stroke="#63b8ff" points="465.77,-114.35 474.92,-109.01 464.44,-107.48 465.77,-114.35"/>
</g>
<!-- Node9&#45;&gt;Node5 -->
<g id="edge10" class="edge">
<title>Node9&#45;&gt;Node5</title>
<path fill="none" stroke="#63b8ff" d="M565.79,-72.03C585.62,-76.78 609.81,-82.57 630.85,-87.61"/>
<polygon fill="#63b8ff" stroke="#63b8ff" points="630.04,-91.01 640.58,-89.94 631.67,-84.21 630.04,-91.01"/>
</g>
<!-- Node10 -->
<g id="node10" class="node">
<title>Node10</title>
<g id="a_node10"><a xlink:href="namespacesharp.html#a1edcf8bff9a13429bcbff7c1129024b3" target="_top" xlink:title="Finds the index of the lower bound that does not satisfy element &lt; value.">
<polygon fill="white" stroke="#666666" points="737.5,-72 625.5,-72 625.5,-53 737.5,-53 737.5,-72"/>
<text text-anchor="middle" x="681.5" y="-60" font-family="Helvetica,sans-Serif" font-size="10.00">sharp::lower_bound</text>
</a>
</g>
</g>
<!-- Node9&#45;&gt;Node10 -->
<g id="edge9" class="edge">
<title>Node9&#45;&gt;Node10</title>
<path fill="none" stroke="#63b8ff" d="M589.29,-62.5C597.91,-62.5 606.78,-62.5 615.43,-62.5"/>
<polygon fill="#63b8ff" stroke="#63b8ff" points="615.47,-66 625.47,-62.5 615.47,-59 615.47,-66"/>
</g>
<!-- Node11&#45;&gt;Node3 -->
<g id="edge13" class="edge">
<title>Node11&#45;&gt;Node3</title>
<path fill="none" stroke="#63b8ff" d="M561.86,-109.03C570.78,-111.6 580.29,-114.5 589,-117.5 609.37,-124.51 631.8,-133.55 649.35,-140.95"/>
<polygon fill="#63b8ff" stroke="#63b8ff" points="647.99,-144.17 658.56,-144.86 650.73,-137.73 647.99,-144.17"/>
</g>
<!-- Node11&#45;&gt;Node5 -->
<g id="edge14" class="edge">
<title>Node11&#45;&gt;Node5</title>
<path fill="none" stroke="#63b8ff" d="M587.51,-99.5C596.43,-99.5 605.65,-99.5 614.66,-99.5"/>
<polygon fill="#63b8ff" stroke="#63b8ff" points="614.71,-103 624.71,-99.5 614.71,-96 614.71,-103"/>
</g>
</g>
</svg>
