<?xml version="1.0" encoding="UTF-8" standalone="no"?>
<!DOCTYPE svg PUBLIC "-//W3C//DTD SVG 1.1//EN"
 "http://www.w3.org/Graphics/SVG/1.1/DTD/svg11.dtd">
<!-- Generated by graphviz version 2.43.0 (0)
 -->
<!-- Title: sharp::lifter_cm1::operator() Pages: 1 -->
<svg width="763pt" height="82pt"
 viewBox="0.00 0.00 763.00 82.00" xmlns="http://www.w3.org/2000/svg" xmlns:xlink="http://www.w3.org/1999/xlink">
<g id="graph0" class="graph" transform="scale(1 1) rotate(0) translate(4 78)">
<title>sharp::lifter_cm1::operator()</title>
<!-- Node1 -->
<g id="node1" class="node">
<title>Node1</title>
<g id="a_node1"><a xlink:title="Overloads operator() to call sharp::moist_adiabat_cm1.">
<polygon fill="#999999" stroke="#666666" points="104,-42.5 0,-42.5 0,-12.5 104,-12.5 104,-42.5"/>
<text text-anchor="start" x="8" y="-30.5" font-family="Helvetica,sans-Serif" font-size="10.00">sharp::lifter_cm1::</text>
<text text-anchor="middle" x="52" y="-19.5" font-family="Helvetica,sans-Serif" font-size="10.00">operator()</text>
</a>
</g>
</g>
<!-- Node2 -->
<g id="node2" class="node">
<title>Node2</title>
<g id="a_node2"><a xlink:href="namespacesharp.html#a71ceb865a2848e107761e7094f2365ca" target="_top" xlink:title="Compute the temperature of a parcel lifted moist adiabatically to a new level.">
<polygon fill="white" stroke="#666666" points="286,-37 140,-37 140,-18 286,-18 286,-37"/>
<text text-anchor="middle" x="213" y="-25" font-family="Helvetica,sans-Serif" font-size="10.00">sharp::moist_adiabat_cm1</text>
</a>
</g>
</g>
<!-- Node1&#45;&gt;Node2 -->
<g id="edge1" class="edge">
<title>Node1&#45;&gt;Node2</title>
<path fill="none" stroke="#63b8ff" d="M104.18,-27.5C112.34,-27.5 120.95,-27.5 129.61,-27.5"/>
<polygon fill="#63b8ff" stroke="#63b8ff" points="129.77,-31 139.77,-27.5 129.77,-24 129.77,-31"/>
</g>
<!-- Node3 -->
<g id="node3" class="node">
<title>Node3</title>
<g id="a_node3"><a xlink:href="namespacesharp.html#a5c6dd7be41f3dc984480798244e254d1" target="_top" xlink:title=" ">
<polygon fill="white" stroke="#666666" points="429,-56 322,-56 322,-37 429,-37 429,-56"/>
<text text-anchor="middle" x="375.5" y="-44" font-family="Helvetica,sans-Serif" font-size="10.00">sharp::_solve_cm1</text>
</a>
</g>
</g>
<!-- Node2&#45;&gt;Node3 -->
<g id="edge2" class="edge">
<title>Node2&#45;&gt;Node3</title>
<path fill="none" stroke="#63b8ff" d="M286.27,-36.06C294.79,-37.06 303.43,-38.09 311.8,-39.08"/>
<polygon fill="#63b8ff" stroke="#63b8ff" points="311.51,-42.57 321.85,-40.27 312.33,-35.62 311.51,-42.57"/>
</g>
<!-- Node7 -->
<g id="node7" class="node">
<title>Node7</title>
<g id="a_node7"><a xlink:href="namespacesharp.html#acfd0143ab72871c4aabc95c1140ee8fb" target="_top" xlink:title="Compute the potential temperature.">
<polygon fill="white" stroke="#666666" points="413,-19 338,-19 338,0 413,0 413,-19"/>
<text text-anchor="middle" x="375.5" y="-7" font-family="Helvetica,sans-Serif" font-size="10.00">sharp::theta</text>
</a>
</g>
</g>
<!-- Node2&#45;&gt;Node7 -->
<g id="edge6" class="edge">
<title>Node2&#45;&gt;Node7</title>
<path fill="none" stroke="#63b8ff" d="M286.27,-19.4C300.32,-17.82 314.7,-16.21 327.66,-14.75"/>
<polygon fill="#63b8ff" stroke="#63b8ff" points="328.17,-18.22 337.72,-13.62 327.39,-11.26 328.17,-18.22"/>
</g>
<!-- Node4 -->
<g id="node4" class="node">
<title>Node4</title>
<g id="a_node4"><a xlink:href="namespacesharp.html#ac38870166f07ac30aadbc46b81340cc4" target="_top" xlink:title="Compute the water vapor mixing ratio from specific humidity.">
<polygon fill="white" stroke="#666666" points="565.5,-74 474.5,-74 474.5,-55 565.5,-55 565.5,-74"/>
<text text-anchor="middle" x="520" y="-62" font-family="Helvetica,sans-Serif" font-size="10.00">sharp::mixratio</text>
</a>
</g>
</g>
<!-- Node3&#45;&gt;Node4 -->
<g id="edge3" class="edge">
<title>Node3&#45;&gt;Node4</title>
<path fill="none" stroke="#63b8ff" d="M429.16,-53.15C440.45,-54.58 452.41,-56.09 463.79,-57.53"/>
<polygon fill="#63b8ff" stroke="#63b8ff" points="463.69,-61.04 474.05,-58.82 464.57,-54.1 463.69,-61.04"/>
</g>
<!-- Node5 -->
<g id="node5" class="node">
<title>Node5</title>
<g id="a_node5"><a xlink:href="namespacesharp.html#a0ebcad18ef9939ff56f23d49c35dd04c" target="_top" xlink:title="Compute the ice water mixing ratio.">
<polygon fill="white" stroke="#666666" points="575,-37 465,-37 465,-18 575,-18 575,-37"/>
<text text-anchor="middle" x="520" y="-25" font-family="Helvetica,sans-Serif" font-size="10.00">sharp::mixratio_ice</text>
</a>
</g>
</g>
<!-- Node3&#45;&gt;Node5 -->
<g id="edge4" class="edge">
<title>Node3&#45;&gt;Node5</title>
<path fill="none" stroke="#63b8ff" d="M429.16,-39.48C437.48,-38.37 446.16,-37.21 454.71,-36.07"/>
<polygon fill="#63b8ff" stroke="#63b8ff" points="455.2,-39.54 464.65,-34.75 454.28,-32.6 455.2,-39.54"/>
</g>
<!-- Node6 -->
<g id="node6" class="node">
<title>Node6</title>
<g id="a_node6"><a xlink:href="namespacesharp.html#ad9be01979b547fe6827968eafcf72929" target="_top" xlink:title="Compute the vapor pressure over ice.">
<polygon fill="white" stroke="#666666" points="755,-37 611,-37 611,-18 755,-18 755,-37"/>
<text text-anchor="middle" x="683" y="-25" font-family="Helvetica,sans-Serif" font-size="10.00">sharp::vapor_pressure_ice</text>
</a>
</g>
</g>
<!-- Node5&#45;&gt;Node6 -->
<g id="edge5" class="edge">
<title>Node5&#45;&gt;Node6</title>
<path fill="none" stroke="#63b8ff" d="M575.06,-27.5C583.33,-27.5 592.02,-27.5 600.73,-27.5"/>
<polygon fill="#63b8ff" stroke="#63b8ff" points="600.93,-31 610.93,-27.5 600.93,-24 600.93,-31"/>
</g>
</g>
</svg>
