<?xml version="1.0" encoding="UTF-8" standalone="no"?>
<!DOCTYPE svg PUBLIC "-//W3C//DTD SVG 1.1//EN"
 "http://www.w3.org/Graphics/SVG/1.1/DTD/svg11.dtd">
<!-- Generated by graphviz version 2.43.0 (0)
 -->
<!-- Title: sharp::Parcel::lift_parcel Pages: 1 -->
<svg width="431pt" height="86pt"
 viewBox="0.00 0.00 431.00 86.00" xmlns="http://www.w3.org/2000/svg" xmlns:xlink="http://www.w3.org/1999/xlink">
<g id="graph0" class="graph" transform="scale(1 1) rotate(0) translate(4 82)">
<title>sharp::Parcel::lift_parcel</title>
<!-- Node1 -->
<g id="node1" class="node">
<title>Node1</title>
<g id="a_node1"><a xlink:title="Lifts a sharp::Parcel to compute its virtual temperature.">
<polygon fill="#999999" stroke="#666666" points="423,-54 325,-54 325,-24 423,-24 423,-54"/>
<text text-anchor="start" x="333" y="-42" font-family="Helvetica,sans-Serif" font-size="10.00">sharp::Parcel::lift</text>
<text text-anchor="middle" x="374" y="-31" font-family="Helvetica,sans-Serif" font-size="10.00">_parcel</text>
</a>
</g>
</g>
<!-- Node2 -->
<g id="node2" class="node">
<title>Node2</title>
<g id="a_node2"><a xlink:href="namespacesharp.html#a2e6b7cd4a3594a8f2c2050b0e4784cce" target="_top" xlink:title="Computes the Effective Inflow Layer for a given atmospheric sounding.">
<polygon fill="white" stroke="#666666" points="289,-78 162,-78 162,-48 289,-48 289,-78"/>
<text text-anchor="start" x="170" y="-66" font-family="Helvetica,sans-Serif" font-size="10.00">sharp::effective_inflow</text>
<text text-anchor="middle" x="225.5" y="-55" font-family="Helvetica,sans-Serif" font-size="10.00">_layer</text>
</a>
</g>
</g>
<!-- Node1&#45;&gt;Node2 -->
<g id="edge1" class="edge">
<title>Node1&#45;&gt;Node2</title>
<path fill="none" stroke="#63b8ff" d="M314.6,-48.57C306.25,-49.94 297.62,-51.35 289.19,-52.73"/>
<polygon fill="#63b8ff" stroke="#63b8ff" points="315.32,-52 324.62,-46.93 314.19,-45.09 315.32,-52"/>
</g>
<!-- Node4 -->
<g id="node4" class="node">
<title>Node4</title>
<g id="a_node4"><a xlink:href="structsharp_1_1Parcel.html#aa258d27992d22d8b80cb221e6e2a6c19" target="_top" xlink:title="Construct and return a most&#45;unstable Parcel.">
<polygon fill="white" stroke="#666666" points="280.5,-30 170.5,-30 170.5,0 280.5,0 280.5,-30"/>
<text text-anchor="start" x="178.5" y="-18" font-family="Helvetica,sans-Serif" font-size="10.00">sharp::Parcel::most</text>
<text text-anchor="middle" x="225.5" y="-7" font-family="Helvetica,sans-Serif" font-size="10.00">_unstable_parcel</text>
</a>
</g>
</g>
<!-- Node1&#45;&gt;Node4 -->
<g id="edge3" class="edge">
<title>Node1&#45;&gt;Node4</title>
<path fill="none" stroke="#63b8ff" d="M314.52,-29.42C303.34,-27.59 291.68,-25.68 280.65,-23.87"/>
<polygon fill="#63b8ff" stroke="#63b8ff" points="314.19,-32.91 324.62,-31.07 315.32,-26 314.19,-32.91"/>
</g>
<!-- Node3 -->
<g id="node3" class="node">
<title>Node3</title>
<g id="a_node3"><a xlink:href="convective__wrap_8cpp.html#af214bab6c6ba14dc06fe7df4f6abcdf8" target="_top" xlink:title=" ">
<polygon fill="white" stroke="#666666" points="126,-78 0,-78 0,-48 126,-48 126,-78"/>
<text text-anchor="start" x="8" y="-66" font-family="Helvetica,sans-Serif" font-size="10.00">sharp_effective_inflow</text>
<text text-anchor="middle" x="63" y="-55" font-family="Helvetica,sans-Serif" font-size="10.00">_layer</text>
</a>
</g>
</g>
<!-- Node2&#45;&gt;Node3 -->
<g id="edge2" class="edge">
<title>Node2&#45;&gt;Node3</title>
<path fill="none" stroke="#63b8ff" d="M151.93,-63C143.3,-63 134.55,-63 126.08,-63"/>
<polygon fill="#63b8ff" stroke="#63b8ff" points="151.99,-66.5 161.99,-63 151.99,-59.5 151.99,-66.5"/>
</g>
</g>
</svg>
