<?xml version="1.0" encoding="UTF-8" standalone="no"?>
<!DOCTYPE svg PUBLIC "-//W3C//DTD SVG 1.1//EN"
 "http://www.w3.org/Graphics/SVG/1.1/DTD/svg11.dtd">
<!-- Generated by graphviz version 2.43.0 (0)
 -->
<!-- Title: sharp::Parcel::cape_cinh Pages: 1 -->
<svg width="730pt" height="155pt"
 viewBox="0.00 0.00 730.00 154.50" xmlns="http://www.w3.org/2000/svg" xmlns:xlink="http://www.w3.org/1999/xlink">
<g id="graph0" class="graph" transform="scale(1 1) rotate(0) translate(4 150.5)">
<title>sharp::Parcel::cape_cinh</title>
<!-- Node1 -->
<g id="node1" class="node">
<title>Node1</title>
<g id="a_node1"><a xlink:title="Compute CAPE and CINH for a previously lifted sharp::Parcel.">
<polygon fill="#999999" stroke="#666666" points="134,-93 0,-93 0,-74 134,-74 134,-93"/>
<text text-anchor="middle" x="67" y="-81" font-family="Helvetica,sans-Serif" font-size="10.00">sharp::Parcel::cape_cinh</text>
</a>
</g>
</g>
<!-- Node2 -->
<g id="node2" class="node">
<title>Node2</title>
<g id="a_node2"><a xlink:href="structsharp_1_1Parcel.html#a8a311e09b1d46a829212da94cf181537" target="_top" xlink:title="Find the LFC and EL that bounds the layer with the maximum CAPE.">
<polygon fill="white" stroke="#666666" points="283.5,-146.5 180.5,-146.5 180.5,-116.5 283.5,-116.5 283.5,-146.5"/>
<text text-anchor="start" x="188.5" y="-134.5" font-family="Helvetica,sans-Serif" font-size="10.00">sharp::Parcel::find</text>
<text text-anchor="middle" x="232" y="-123.5" font-family="Helvetica,sans-Serif" font-size="10.00">_lfc_el</text>
</a>
</g>
</g>
<!-- Node1&#45;&gt;Node2 -->
<g id="edge1" class="edge">
<title>Node1&#45;&gt;Node2</title>
<path fill="none" stroke="#63b8ff" d="M100.59,-93.1C120.68,-99.01 147.06,-106.78 170.83,-113.78"/>
<polygon fill="#63b8ff" stroke="#63b8ff" points="169.9,-117.16 180.48,-116.62 171.88,-110.44 169.9,-117.16"/>
</g>
<!-- Node9 -->
<g id="node9" class="node">
<title>Node9</title>
<g id="a_node9"><a xlink:href="namespacesharp.html#a8ab599fbfe2b3793d7af8399c17d1327" target="_top" xlink:title="Returns a trapezoidal integration of the given layer.">
<polygon fill="white" stroke="#666666" points="294,-50.5 170,-50.5 170,-20.5 294,-20.5 294,-50.5"/>
<text text-anchor="start" x="178" y="-38.5" font-family="Helvetica,sans-Serif" font-size="10.00">sharp::integrate_layer</text>
<text text-anchor="middle" x="232" y="-27.5" font-family="Helvetica,sans-Serif" font-size="10.00">_trapz</text>
</a>
</g>
</g>
<!-- Node1&#45;&gt;Node9 -->
<g id="edge9" class="edge">
<title>Node1&#45;&gt;Node9</title>
<path fill="none" stroke="#63b8ff" d="M100.59,-73.9C120.52,-68.03 146.63,-60.35 170.25,-53.39"/>
<polygon fill="#63b8ff" stroke="#63b8ff" points="171.24,-56.75 179.85,-50.56 169.27,-50.03 171.24,-56.75"/>
</g>
<!-- Node12 -->
<g id="node12" class="node">
<title>Node12</title>
<g id="a_node12"><a xlink:href="namespacesharp.html#a31da980f398c9f6a5960ddf868101a94" target="_top" xlink:title="Converts a sharp::PressureLayer to a sharp::HeightLayer.">
<polygon fill="white" stroke="#666666" points="293,-98.5 171,-98.5 171,-68.5 293,-68.5 293,-98.5"/>
<text text-anchor="start" x="179" y="-86.5" font-family="Helvetica,sans-Serif" font-size="10.00">sharp::pressure_layer</text>
<text text-anchor="middle" x="232" y="-75.5" font-family="Helvetica,sans-Serif" font-size="10.00">_to_height</text>
</a>
</g>
</g>
<!-- Node1&#45;&gt;Node12 -->
<g id="edge16" class="edge">
<title>Node1&#45;&gt;Node12</title>
<path fill="none" stroke="#63b8ff" d="M134.3,-83.5C142.98,-83.5 151.89,-83.5 160.64,-83.5"/>
<polygon fill="#63b8ff" stroke="#63b8ff" points="160.8,-87 170.8,-83.5 160.8,-80 160.8,-87"/>
</g>
<!-- Node3 -->
<g id="node3" class="node">
<title>Node3</title>
<g id="a_node3"><a xlink:href="namespacesharp.html#ac93f477dfa774c966b5da7521bd43ee6" target="_top" xlink:title="Returns the array indices corresponding to the given layer.">
<polygon fill="white" stroke="#666666" points="458,-130 330,-130 330,-111 458,-111 458,-130"/>
<text text-anchor="middle" x="394" y="-118" font-family="Helvetica,sans-Serif" font-size="10.00">sharp::get_layer_index</text>
</a>
</g>
</g>
<!-- Node2&#45;&gt;Node3 -->
<g id="edge2" class="edge">
<title>Node2&#45;&gt;Node3</title>
<path fill="none" stroke="#63b8ff" d="M283.62,-128.02C295.07,-127.23 307.44,-126.38 319.61,-125.55"/>
<polygon fill="#63b8ff" stroke="#63b8ff" points="320.03,-129.03 329.76,-124.85 319.55,-122.04 320.03,-129.03"/>
</g>
<!-- Node6 -->
<g id="node6" class="node">
<title>Node6</title>
<g id="a_node6"><a xlink:href="namespacesharp.html#a55e4f8ee4ff8a4a30d7b3f3d92a41c75" target="_top" xlink:title="Linearly interpolate a data field to a requested pressure level.">
<polygon fill="white" stroke="#666666" points="456.5,-93 331.5,-93 331.5,-74 456.5,-74 456.5,-93"/>
<text text-anchor="middle" x="394" y="-81" font-family="Helvetica,sans-Serif" font-size="10.00">sharp::interp_pressure</text>
</a>
</g>
</g>
<!-- Node2&#45;&gt;Node6 -->
<g id="edge5" class="edge">
<title>Node2&#45;&gt;Node6</title>
<path fill="none" stroke="#63b8ff" d="M283.19,-116.44C305.08,-109.88 330.45,-102.26 351.29,-96.01"/>
<polygon fill="#63b8ff" stroke="#63b8ff" points="352.55,-99.29 361.12,-93.06 350.53,-92.59 352.55,-99.29"/>
</g>
<!-- Node4 -->
<g id="node4" class="node">
<title>Node4</title>
<g id="a_node4"><a xlink:href="namespacesharp.html#a1edcf8bff9a13429bcbff7c1129024b3" target="_top" xlink:title="Finds the index of the lower bound that does not satisfy element &lt; value.">
<polygon fill="white" stroke="#666666" points="606.5,-130 494.5,-130 494.5,-111 606.5,-111 606.5,-130"/>
<text text-anchor="middle" x="550.5" y="-118" font-family="Helvetica,sans-Serif" font-size="10.00">sharp::lower_bound</text>
</a>
</g>
</g>
<!-- Node3&#45;&gt;Node4 -->
<g id="edge3" class="edge">
<title>Node3&#45;&gt;Node4</title>
<path fill="none" stroke="#63b8ff" d="M458.29,-120.5C466.91,-120.5 475.78,-120.5 484.43,-120.5"/>
<polygon fill="#63b8ff" stroke="#63b8ff" points="484.47,-124 494.47,-120.5 484.47,-117 484.47,-124"/>
</g>
<!-- Node5 -->
<g id="node5" class="node">
<title>Node5</title>
<g id="a_node5"><a xlink:href="namespacesharp.html#a772686549a5111c1152b778731119aa6" target="_top" xlink:title="Finds the first index that satisfies value &lt; element.">
<polygon fill="white" stroke="#666666" points="607,-93 494,-93 494,-74 607,-74 607,-93"/>
<text text-anchor="middle" x="550.5" y="-81" font-family="Helvetica,sans-Serif" font-size="10.00">sharp::upper_bound</text>
</a>
</g>
</g>
<!-- Node3&#45;&gt;Node5 -->
<g id="edge4" class="edge">
<title>Node3&#45;&gt;Node5</title>
<path fill="none" stroke="#63b8ff" d="M434.79,-110.97C454.62,-106.22 478.81,-100.43 499.85,-95.39"/>
<polygon fill="#63b8ff" stroke="#63b8ff" points="500.67,-98.79 509.58,-93.06 499.04,-91.99 500.67,-98.79"/>
</g>
<!-- Node6&#45;&gt;Node5 -->
<g id="edge8" class="edge">
<title>Node6&#45;&gt;Node5</title>
<path fill="none" stroke="#63b8ff" d="M456.51,-83.5C465.43,-83.5 474.65,-83.5 483.66,-83.5"/>
<polygon fill="#63b8ff" stroke="#63b8ff" points="483.71,-87 493.71,-83.5 483.71,-80 483.71,-87"/>
</g>
<!-- Node7 -->
<g id="node7" class="node">
<title>Node7</title>
<g id="a_node7"><a xlink:href="namespacesharp.html#a0bf533560780fdb77bc3656db8d89208" target="_top" xlink:title="Linearly interpolates between a and b with distance t.">
<polygon fill="white" stroke="#666666" points="584.5,-56 516.5,-56 516.5,-37 584.5,-37 584.5,-56"/>
<text text-anchor="middle" x="550.5" y="-44" font-family="Helvetica,sans-Serif" font-size="10.00">sharp::lerp</text>
</a>
</g>
</g>
<!-- Node6&#45;&gt;Node7 -->
<g id="edge6" class="edge">
<title>Node6&#45;&gt;Node7</title>
<path fill="none" stroke="#63b8ff" d="M434.79,-73.97C456.73,-68.72 483.99,-62.19 506.43,-56.81"/>
<polygon fill="#63b8ff" stroke="#63b8ff" points="507.46,-60.17 516.37,-54.43 505.83,-53.36 507.46,-60.17"/>
</g>
<!-- Node8 -->
<g id="node8" class="node">
<title>Node8</title>
<g id="a_node8"><a xlink:href="namespacesharp.html#ac4464059524ff56c7974141bb4cc7375" target="_top" xlink:title="Linearly interpolates between a and b with distance t.">
<polygon fill="white" stroke="#666666" points="722,-56 643,-56 643,-37 722,-37 722,-56"/>
<text text-anchor="middle" x="682.5" y="-44" font-family="Helvetica,sans-Serif" font-size="10.00">sharp::__lerp</text>
</a>
</g>
</g>
<!-- Node7&#45;&gt;Node8 -->
<g id="edge7" class="edge">
<title>Node7&#45;&gt;Node8</title>
<path fill="none" stroke="#63b8ff" d="M584.64,-46.5C599.2,-46.5 616.6,-46.5 632.61,-46.5"/>
<polygon fill="#63b8ff" stroke="#63b8ff" points="632.88,-50 642.88,-46.5 632.88,-43 632.88,-50"/>
</g>
<!-- Node9&#45;&gt;Node3 -->
<g id="edge11" class="edge">
<title>Node9&#45;&gt;Node3</title>
<path fill="none" stroke="#63b8ff" d="M278.96,-50.65C284.24,-53.23 289.38,-56.17 294,-59.5 314.22,-74.07 309.1,-88.92 330,-102.5 332.46,-104.1 335.06,-105.56 337.76,-106.89"/>
<polygon fill="#63b8ff" stroke="#63b8ff" points="336.61,-110.2 347.18,-110.94 339.37,-103.77 336.61,-110.2"/>
</g>
<!-- Node9&#45;&gt;Node6 -->
<g id="edge15" class="edge">
<title>Node9&#45;&gt;Node6</title>
<path fill="none" stroke="#63b8ff" d="M280.79,-50.51C296.45,-55.36 313.95,-60.73 330,-65.5 336.15,-67.33 342.66,-69.23 349.05,-71.08"/>
<polygon fill="#63b8ff" stroke="#63b8ff" points="348.38,-74.52 358.96,-73.92 350.31,-67.8 348.38,-74.52"/>
</g>
<!-- Node10 -->
<g id="node10" class="node">
<title>Node10</title>
<g id="a_node10"><a xlink:href="namespacesharp.html#a3558a68454edd4679ef97335e3a9f1fb" target="_top" xlink:title="A kernel that computes the area under a curve using the trapezoidal rule.">
<polygon fill="white" stroke="#666666" points="449,-19 339,-19 339,0 449,0 449,-19"/>
<text text-anchor="middle" x="394" y="-7" font-family="Helvetica,sans-Serif" font-size="10.00">sharp::_integ_trapz</text>
</a>
</g>
</g>
<!-- Node9&#45;&gt;Node10 -->
<g id="edge10" class="edge">
<title>Node9&#45;&gt;Node10</title>
<path fill="none" stroke="#63b8ff" d="M294.4,-25.52C305.6,-23.7 317.32,-21.8 328.6,-19.96"/>
<polygon fill="#63b8ff" stroke="#63b8ff" points="329.51,-23.36 338.82,-18.3 328.39,-16.45 329.51,-23.36"/>
</g>
<!-- Node11 -->
<g id="node11" class="node">
<title>Node11</title>
<g id="a_node11"><a xlink:href="namespacesharp.html#ae8240f026498ad2775633a8d0dcf100d" target="_top" xlink:title="Linearly interpolate a data field to a requested height level.">
<polygon fill="white" stroke="#666666" points="451,-56 337,-56 337,-37 451,-37 451,-56"/>
<text text-anchor="middle" x="394" y="-44" font-family="Helvetica,sans-Serif" font-size="10.00">sharp::interp_height</text>
</a>
</g>
</g>
<!-- Node9&#45;&gt;Node11 -->
<g id="edge12" class="edge">
<title>Node9&#45;&gt;Node11</title>
<path fill="none" stroke="#63b8ff" d="M294.4,-39.72C304.95,-40.45 315.96,-41.2 326.64,-41.94"/>
<polygon fill="#63b8ff" stroke="#63b8ff" points="326.53,-45.44 336.74,-42.63 327.01,-38.45 326.53,-45.44"/>
</g>
<!-- Node11&#45;&gt;Node5 -->
<g id="edge14" class="edge">
<title>Node11&#45;&gt;Node5</title>
<path fill="none" stroke="#63b8ff" d="M434.79,-56.03C454.62,-60.78 478.81,-66.57 499.85,-71.61"/>
<polygon fill="#63b8ff" stroke="#63b8ff" points="499.04,-75.01 509.58,-73.94 500.67,-68.21 499.04,-75.01"/>
</g>
<!-- Node11&#45;&gt;Node7 -->
<g id="edge13" class="edge">
<title>Node11&#45;&gt;Node7</title>
<path fill="none" stroke="#63b8ff" d="M451.22,-46.5C469.36,-46.5 489.19,-46.5 506.25,-46.5"/>
<polygon fill="#63b8ff" stroke="#63b8ff" points="506.48,-50 516.48,-46.5 506.48,-43 506.48,-50"/>
</g>
<!-- Node12&#45;&gt;Node6 -->
<g id="edge17" class="edge">
<title>Node12&#45;&gt;Node6</title>
<path fill="none" stroke="#63b8ff" d="M293.03,-83.5C302.22,-83.5 311.77,-83.5 321.18,-83.5"/>
<polygon fill="#63b8ff" stroke="#63b8ff" points="321.3,-87 331.3,-83.5 321.3,-80 321.3,-87"/>
</g>
</g>
</svg>
