<?xml version="1.0" encoding="UTF-8" standalone="no"?>
<!DOCTYPE svg PUBLIC "-//W3C//DTD SVG 1.1//EN"
 "http://www.w3.org/Graphics/SVG/1.1/DTD/svg11.dtd">
<!-- Generated by graphviz version 2.43.0 (0)
 -->
<!-- Title: sharp::Parcel::Parcel Pages: 1 -->
<svg width="279pt" height="86pt"
 viewBox="0.00 0.00 279.00 86.00" xmlns="http://www.w3.org/2000/svg" xmlns:xlink="http://www.w3.org/1999/xlink">
<g id="graph0" class="graph" transform="scale(1 1) rotate(0) translate(4 82)">
<title>sharp::Parcel::Parcel</title>
<!-- Node1 -->
<g id="node1" class="node">
<title>Node1</title>
<g id="a_node1"><a xlink:title=" ">
<polygon fill="#999999" stroke="#666666" points="271,-48.5 157,-48.5 157,-29.5 271,-29.5 271,-48.5"/>
<text text-anchor="middle" x="214" y="-36.5" font-family="Helvetica,sans-Serif" font-size="10.00">sharp::Parcel::Parcel</text>
</a>
</g>
</g>
<!-- Node2 -->
<g id="node2" class="node">
<title>Node2</title>
<g id="a_node2"><a xlink:href="structsharp_1_1Parcel.html#a1bf670e79f35a1ce8c904b7ead32ccbe" target="_top" xlink:title="Construct and return a mixed&#45;layer Parcel.">
<polygon fill="white" stroke="#666666" points="118,-78 3,-78 3,-48 118,-48 118,-78"/>
<text text-anchor="start" x="11" y="-66" font-family="Helvetica,sans-Serif" font-size="10.00">sharp::Parcel::mixed</text>
<text text-anchor="middle" x="60.5" y="-55" font-family="Helvetica,sans-Serif" font-size="10.00">_layer_parcel</text>
</a>
</g>
</g>
<!-- Node1&#45;&gt;Node2 -->
<g id="edge1" class="edge">
<title>Node1&#45;&gt;Node2</title>
<path fill="none" stroke="#63b8ff" d="M146.47,-49.54C137.04,-51.03 127.43,-52.56 118.21,-54.02"/>
<polygon fill="#63b8ff" stroke="#63b8ff" points="147.26,-52.96 156.59,-47.94 146.16,-46.04 147.26,-52.96"/>
</g>
<!-- Node3 -->
<g id="node3" class="node">
<title>Node3</title>
<g id="a_node3"><a xlink:href="structsharp_1_1Parcel.html#aa1b370d9ea08877cc6438241fd013e3a" target="_top" xlink:title="Construct and return a surface&#45;based Parcel.">
<polygon fill="white" stroke="#666666" points="121,-30 0,-30 0,0 121,0 121,-30"/>
<text text-anchor="start" x="8" y="-18" font-family="Helvetica,sans-Serif" font-size="10.00">sharp::Parcel::surface</text>
<text text-anchor="middle" x="60.5" y="-7" font-family="Helvetica,sans-Serif" font-size="10.00">_parcel</text>
</a>
</g>
</g>
<!-- Node1&#45;&gt;Node3 -->
<g id="edge2" class="edge">
<title>Node1&#45;&gt;Node3</title>
<path fill="none" stroke="#63b8ff" d="M146.66,-28.49C138.12,-27.14 129.42,-25.76 121,-24.43"/>
<polygon fill="#63b8ff" stroke="#63b8ff" points="146.16,-31.96 156.59,-30.06 147.26,-25.04 146.16,-31.96"/>
</g>
</g>
</svg>
