<?xml version="1.0" encoding="UTF-8" standalone="no"?>
<!DOCTYPE svg PUBLIC "-//W3C//DTD SVG 1.1//EN"
 "http://www.w3.org/Graphics/SVG/1.1/DTD/svg11.dtd">
<!-- Generated by graphviz version 2.43.0 (0)
 -->
<!-- Title: sharp::Parcel::find_lfc_el Pages: 1 -->
<svg width="539pt" height="101pt"
 viewBox="0.00 0.00 539.00 101.00" xmlns="http://www.w3.org/2000/svg" xmlns:xlink="http://www.w3.org/1999/xlink">
<g id="graph0" class="graph" transform="scale(1 1) rotate(0) translate(4 97)">
<title>sharp::Parcel::find_lfc_el</title>
<!-- Node1 -->
<g id="node1" class="node">
<title>Node1</title>
<g id="a_node1"><a xlink:title="Find the LFC and EL that bounds the layer with the maximum CAPE.">
<polygon fill="#999999" stroke="#666666" points="103,-60.5 0,-60.5 0,-30.5 103,-30.5 103,-60.5"/>
<text text-anchor="start" x="8" y="-48.5" font-family="Helvetica,sans-Serif" font-size="10.00">sharp::Parcel::find</text>
<text text-anchor="middle" x="51.5" y="-37.5" font-family="Helvetica,sans-Serif" font-size="10.00">_lfc_el</text>
</a>
</g>
</g>
<!-- Node2 -->
<g id="node2" class="node">
<title>Node2</title>
<g id="a_node2"><a xlink:href="namespacesharp.html#ac93f477dfa774c966b5da7521bd43ee6" target="_top" xlink:title="Returns the array indices corresponding to the given layer.">
<polygon fill="white" stroke="#666666" points="267,-74 139,-74 139,-55 267,-55 267,-74"/>
<text text-anchor="middle" x="203" y="-62" font-family="Helvetica,sans-Serif" font-size="10.00">sharp::get_layer_index</text>
</a>
</g>
</g>
<!-- Node1&#45;&gt;Node2 -->
<g id="edge1" class="edge">
<title>Node1&#45;&gt;Node2</title>
<path fill="none" stroke="#63b8ff" d="M103.11,-51.93C111.39,-52.98 120.12,-54.09 128.81,-55.2"/>
<polygon fill="#63b8ff" stroke="#63b8ff" points="128.62,-58.7 138.98,-56.49 129.5,-51.76 128.62,-58.7"/>
</g>
<!-- Node5 -->
<g id="node5" class="node">
<title>Node5</title>
<g id="a_node5"><a xlink:href="namespacesharp.html#a7ed0899941867073e5062af04fdbd3e7" target="_top" xlink:title="Linearly interpolate a data field to a requested pressure level.">
<polygon fill="white" stroke="#666666" points="265.5,-37 140.5,-37 140.5,-18 265.5,-18 265.5,-37"/>
<text text-anchor="middle" x="203" y="-25" font-family="Helvetica,sans-Serif" font-size="10.00">sharp::interp_pressure</text>
</a>
</g>
</g>
<!-- Node1&#45;&gt;Node5 -->
<g id="edge4" class="edge">
<title>Node1&#45;&gt;Node5</title>
<path fill="none" stroke="#63b8ff" d="M103.11,-39.41C111.89,-38.35 121.15,-37.23 130.36,-36.13"/>
<polygon fill="#63b8ff" stroke="#63b8ff" points="130.79,-39.6 140.3,-34.93 129.95,-32.65 130.79,-39.6"/>
</g>
<!-- Node3 -->
<g id="node3" class="node">
<title>Node3</title>
<g id="a_node3"><a xlink:href="namespacesharp.html#a1edcf8bff9a13429bcbff7c1129024b3" target="_top" xlink:title="Finds the index of the lower bound that does not satisfy element &lt; value.">
<polygon fill="white" stroke="#666666" points="415.5,-93 303.5,-93 303.5,-74 415.5,-74 415.5,-93"/>
<text text-anchor="middle" x="359.5" y="-81" font-family="Helvetica,sans-Serif" font-size="10.00">sharp::lower_bound</text>
</a>
</g>
</g>
<!-- Node2&#45;&gt;Node3 -->
<g id="edge2" class="edge">
<title>Node2&#45;&gt;Node3</title>
<path fill="none" stroke="#63b8ff" d="M267.29,-72.28C275.91,-73.34 284.78,-74.43 293.43,-75.5"/>
<polygon fill="#63b8ff" stroke="#63b8ff" points="293.12,-78.99 303.47,-76.73 293.97,-72.04 293.12,-78.99"/>
</g>
<!-- Node4 -->
<g id="node4" class="node">
<title>Node4</title>
<g id="a_node4"><a xlink:href="namespacesharp.html#a772686549a5111c1152b778731119aa6" target="_top" xlink:title="Finds the first index that satisfies value &lt; element.">
<polygon fill="white" stroke="#666666" points="416,-56 303,-56 303,-37 416,-37 416,-56"/>
<text text-anchor="middle" x="359.5" y="-44" font-family="Helvetica,sans-Serif" font-size="10.00">sharp::upper_bound</text>
</a>
</g>
</g>
<!-- Node2&#45;&gt;Node4 -->
<g id="edge3" class="edge">
<title>Node2&#45;&gt;Node4</title>
<path fill="none" stroke="#63b8ff" d="M267.29,-57.13C275.7,-56.15 284.34,-55.14 292.79,-54.16"/>
<polygon fill="#63b8ff" stroke="#63b8ff" points="293.46,-57.6 302.98,-52.97 292.64,-50.65 293.46,-57.6"/>
</g>
<!-- Node5&#45;&gt;Node4 -->
<g id="edge7" class="edge">
<title>Node5&#45;&gt;Node4</title>
<path fill="none" stroke="#63b8ff" d="M265.51,-35.06C274.43,-36.16 283.65,-37.3 292.66,-38.4"/>
<polygon fill="#63b8ff" stroke="#63b8ff" points="292.36,-41.89 302.71,-39.64 293.22,-34.95 292.36,-41.89"/>
</g>
<!-- Node6 -->
<g id="node6" class="node">
<title>Node6</title>
<g id="a_node6"><a xlink:href="namespacesharp.html#a8aa123fbe3b59a7023446b0fe2186c49" target="_top" xlink:title="Linearly interpolates between a and b with distance t.">
<polygon fill="white" stroke="#666666" points="393.5,-19 325.5,-19 325.5,0 393.5,0 393.5,-19"/>
<text text-anchor="middle" x="359.5" y="-7" font-family="Helvetica,sans-Serif" font-size="10.00">sharp::lerp</text>
</a>
</g>
</g>
<!-- Node5&#45;&gt;Node6 -->
<g id="edge5" class="edge">
<title>Node5&#45;&gt;Node6</title>
<path fill="none" stroke="#63b8ff" d="M265.51,-20.33C282.05,-18.41 299.6,-16.36 314.95,-14.57"/>
<polygon fill="#63b8ff" stroke="#63b8ff" points="315.65,-18.02 325.18,-13.38 314.84,-11.06 315.65,-18.02"/>
</g>
<!-- Node7 -->
<g id="node7" class="node">
<title>Node7</title>
<g id="a_node7"><a xlink:href="namespacesharp.html#a8848423b96dfe09b90322efd2cc5bd43" target="_top" xlink:title="Linearly interpolates between a and b with distance t.">
<polygon fill="white" stroke="#666666" points="531,-19 452,-19 452,0 531,0 531,-19"/>
<text text-anchor="middle" x="491.5" y="-7" font-family="Helvetica,sans-Serif" font-size="10.00">sharp::__lerp</text>
</a>
</g>
</g>
<!-- Node6&#45;&gt;Node7 -->
<g id="edge6" class="edge">
<title>Node6&#45;&gt;Node7</title>
<path fill="none" stroke="#63b8ff" d="M393.64,-9.5C408.2,-9.5 425.6,-9.5 441.61,-9.5"/>
<polygon fill="#63b8ff" stroke="#63b8ff" points="441.88,-13 451.88,-9.5 441.88,-6 441.88,-13"/>
</g>
</g>
</svg>
