<?xml version="1.0" encoding="UTF-8" standalone="no"?>
<!DOCTYPE svg PUBLIC "-//W3C//DTD SVG 1.1//EN"
 "http://www.w3.org/Graphics/SVG/1.1/DTD/svg11.dtd">
<!-- Generated by graphviz version 2.43.0 (0)
 -->
<!-- Title: sharp::Parcel::lift_parcel Pages: 1 -->
<svg width="269pt" height="86pt"
 viewBox="0.00 0.00 269.00 86.00" xmlns="http://www.w3.org/2000/svg" xmlns:xlink="http://www.w3.org/1999/xlink">
<g id="graph0" class="graph" transform="scale(1 1) rotate(0) translate(4 82)">
<title>sharp::Parcel::lift_parcel</title>
<!-- Node1 -->
<g id="node1" class="node">
<title>Node1</title>
<g id="a_node1"><a xlink:title="Lifts a sharp::Parcel to compute its virtual temperature.">
<polygon fill="#999999" stroke="#666666" points="261,-54 163,-54 163,-24 261,-24 261,-54"/>
<text text-anchor="start" x="171" y="-42" font-family="Helvetica,sans-Serif" font-size="10.00">sharp::Parcel::lift</text>
<text text-anchor="middle" x="212" y="-31" font-family="Helvetica,sans-Serif" font-size="10.00">_parcel</text>
</a>
</g>
</g>
<!-- Node2 -->
<g id="node2" class="node">
<title>Node2</title>
<g id="a_node2"><a xlink:href="namespacesharp.html#a2e6b7cd4a3594a8f2c2050b0e4784cce" target="_top" xlink:title="Computes the Effective Inflow Layer for a given atmospheric sounding.">
<polygon fill="white" stroke="#666666" points="127,-78 0,-78 0,-48 127,-48 127,-78"/>
<text text-anchor="start" x="8" y="-66" font-family="Helvetica,sans-Serif" font-size="10.00">sharp::effective_inflow</text>
<text text-anchor="middle" x="63.5" y="-55" font-family="Helvetica,sans-Serif" font-size="10.00">_layer</text>
</a>
</g>
</g>
<!-- Node1&#45;&gt;Node2 -->
<g id="edge1" class="edge">
<title>Node1&#45;&gt;Node2</title>
<path fill="none" stroke="#63b8ff" d="M152.6,-48.57C144.25,-49.94 135.62,-51.35 127.19,-52.73"/>
<polygon fill="#63b8ff" stroke="#63b8ff" points="153.32,-52 162.62,-46.93 152.19,-45.09 153.32,-52"/>
</g>
<!-- Node3 -->
<g id="node3" class="node">
<title>Node3</title>
<g id="a_node3"><a xlink:href="structsharp_1_1Parcel.html#aa258d27992d22d8b80cb221e6e2a6c19" target="_top" xlink:title="Construct and return a most&#45;unstable Parcel.">
<polygon fill="white" stroke="#666666" points="118.5,-30 8.5,-30 8.5,0 118.5,0 118.5,-30"/>
<text text-anchor="start" x="16.5" y="-18" font-family="Helvetica,sans-Serif" font-size="10.00">sharp::Parcel::most</text>
<text text-anchor="middle" x="63.5" y="-7" font-family="Helvetica,sans-Serif" font-size="10.00">_unstable_parcel</text>
</a>
</g>
</g>
<!-- Node1&#45;&gt;Node3 -->
<g id="edge2" class="edge">
<title>Node1&#45;&gt;Node3</title>
<path fill="none" stroke="#63b8ff" d="M152.52,-29.42C141.34,-27.59 129.68,-25.68 118.65,-23.87"/>
<polygon fill="#63b8ff" stroke="#63b8ff" points="152.19,-32.91 162.62,-31.07 153.32,-26 152.19,-32.91"/>
</g>
</g>
</svg>
