<?xml version="1.0" encoding="UTF-8" standalone="no"?>
<!DOCTYPE svg PUBLIC "-//W3C//DTD SVG 1.1//EN"
 "http://www.w3.org/Graphics/SVG/1.1/DTD/svg11.dtd">
<!-- Generated by graphviz version 2.43.0 (0)
 -->
<!-- Title: sharp::Parcel::lift_parcel Pages: 1 -->
<svg width="452pt" height="213pt"
 viewBox="0.00 0.00 452.00 213.00" xmlns="http://www.w3.org/2000/svg" xmlns:xlink="http://www.w3.org/1999/xlink">
<g id="graph0" class="graph" transform="scale(1 1) rotate(0) translate(4 209)">
<title>sharp::Parcel::lift_parcel</title>
<!-- Node1 -->
<g id="node1" class="node">
<title>Node1</title>
<g id="a_node1"><a xlink:title="Lifts a sharp::Parcel to compute its virtual temperature.">
<polygon fill="#999999" stroke="#666666" points="98,-98.5 0,-98.5 0,-68.5 98,-68.5 98,-98.5"/>
<text text-anchor="start" x="8" y="-86.5" font-family="Helvetica,sans-Serif" font-size="10.00">sharp::Parcel::lift</text>
<text text-anchor="middle" x="49" y="-75.5" font-family="Helvetica,sans-Serif" font-size="10.00">_parcel</text>
</a>
</g>
</g>
<!-- Node2 -->
<g id="node2" class="node">
<title>Node2</title>
<g id="a_node2"><a xlink:href="namespacesharp.html#ae4385866921cd7286946d9ffdd65c25e" target="_top" xlink:title="Lift a parcel dry adiabatically to its Lifted Condensation Level (LCL).">
<polygon fill="white" stroke="#666666" points="246.5,-169 168.5,-169 168.5,-150 246.5,-150 246.5,-169"/>
<text text-anchor="middle" x="207.5" y="-157" font-family="Helvetica,sans-Serif" font-size="10.00">sharp::drylift</text>
</a>
</g>
</g>
<!-- Node1&#45;&gt;Node2 -->
<g id="edge1" class="edge">
<title>Node1&#45;&gt;Node2</title>
<path fill="none" stroke="#63b8ff" d="M71.32,-98.65C87.84,-109.9 111.62,-125.05 134,-135.5 143,-139.71 152.95,-143.51 162.52,-146.78"/>
<polygon fill="#63b8ff" stroke="#63b8ff" points="161.7,-150.19 172.29,-149.99 163.89,-143.54 161.7,-150.19"/>
</g>
<!-- Node4 -->
<g id="node4" class="node">
<title>Node4</title>
<g id="a_node4"><a xlink:href="namespacesharp.html#acfd0143ab72871c4aabc95c1140ee8fb" target="_top" xlink:title="Compute the potential temperature.">
<polygon fill="white" stroke="#666666" points="418,-131 343,-131 343,-112 418,-112 418,-131"/>
<text text-anchor="middle" x="380.5" y="-119" font-family="Helvetica,sans-Serif" font-size="10.00">sharp::theta</text>
</a>
</g>
</g>
<!-- Node1&#45;&gt;Node4 -->
<g id="edge9" class="edge">
<title>Node1&#45;&gt;Node4</title>
<path fill="none" stroke="#63b8ff" d="M98.19,-95.66C109.85,-98.25 122.32,-100.74 134,-102.5 202.67,-112.87 283.04,-117.73 332.61,-119.9"/>
<polygon fill="#63b8ff" stroke="#63b8ff" points="332.57,-123.4 342.71,-120.32 332.87,-116.4 332.57,-123.4"/>
</g>
<!-- Node6 -->
<g id="node6" class="node">
<title>Node6</title>
<g id="a_node6"><a xlink:href="namespacesharp.html#ac93f477dfa774c966b5da7521bd43ee6" target="_top" xlink:title="Returns the array indices corresponding to the given layer.">
<polygon fill="white" stroke="#666666" points="271.5,-93 143.5,-93 143.5,-74 271.5,-74 271.5,-93"/>
<text text-anchor="middle" x="207.5" y="-81" font-family="Helvetica,sans-Serif" font-size="10.00">sharp::get_layer_index</text>
</a>
</g>
</g>
<!-- Node1&#45;&gt;Node6 -->
<g id="edge5" class="edge">
<title>Node1&#45;&gt;Node6</title>
<path fill="none" stroke="#63b8ff" d="M98.23,-83.5C109.28,-83.5 121.26,-83.5 133.1,-83.5"/>
<polygon fill="#63b8ff" stroke="#63b8ff" points="133.43,-87 143.43,-83.5 133.43,-80 133.43,-87"/>
</g>
<!-- Node9 -->
<g id="node9" class="node">
<title>Node9</title>
<g id="a_node9"><a xlink:href="namespacesharp.html#ac38870166f07ac30aadbc46b81340cc4" target="_top" xlink:title="Compute the water vapor mixing ratio from specific humidity.">
<polygon fill="white" stroke="#666666" points="253,-56 162,-56 162,-37 253,-37 253,-56"/>
<text text-anchor="middle" x="207.5" y="-44" font-family="Helvetica,sans-Serif" font-size="10.00">sharp::mixratio</text>
</a>
</g>
</g>
<!-- Node1&#45;&gt;Node9 -->
<g id="edge8" class="edge">
<title>Node1&#45;&gt;Node9</title>
<path fill="none" stroke="#63b8ff" d="M98.23,-72.1C116.66,-67.74 137.7,-62.77 156.3,-58.37"/>
<polygon fill="#63b8ff" stroke="#63b8ff" points="157.14,-61.77 166.06,-56.06 155.53,-54.96 157.14,-61.77"/>
</g>
<!-- Node10 -->
<g id="node10" class="node">
<title>Node10</title>
<g id="a_node10"><a xlink:href="namespacesharp.html#a76fd825fdd87804ec8b79fa73196985c" target="_top" xlink:title="Compute the full virtual temperature.">
<polygon fill="white" stroke="#666666" points="281,-19 134,-19 134,0 281,0 281,-19"/>
<text text-anchor="middle" x="207.5" y="-7" font-family="Helvetica,sans-Serif" font-size="10.00">sharp::virtual_temperature</text>
</a>
</g>
</g>
<!-- Node1&#45;&gt;Node10 -->
<g id="edge10" class="edge">
<title>Node1&#45;&gt;Node10</title>
<path fill="none" stroke="#63b8ff" d="M68.58,-68.36C84.91,-55.75 109.79,-38.19 134,-27.5 138.63,-25.46 143.53,-23.62 148.51,-21.97"/>
<polygon fill="#63b8ff" stroke="#63b8ff" points="149.6,-25.3 158.14,-19.03 147.56,-18.6 149.6,-25.3"/>
</g>
<!-- Node3 -->
<g id="node3" class="node">
<title>Node3</title>
<g id="a_node3"><a xlink:href="namespacesharp.html#af016701e4a46d5c04d26c0a09c0aad38" target="_top" xlink:title="Compute the temperature of the LCL.">
<polygon fill="white" stroke="#666666" points="444,-205 317,-205 317,-186 444,-186 444,-205"/>
<text text-anchor="middle" x="380.5" y="-193" font-family="Helvetica,sans-Serif" font-size="10.00">sharp::lcl_temperature</text>
</a>
</g>
</g>
<!-- Node2&#45;&gt;Node3 -->
<g id="edge2" class="edge">
<title>Node2&#45;&gt;Node3</title>
<path fill="none" stroke="#63b8ff" d="M246.88,-167.58C269.74,-172.39 299.14,-178.58 324.45,-183.91"/>
<polygon fill="#63b8ff" stroke="#63b8ff" points="323.78,-187.35 334.28,-185.98 325.22,-180.5 323.78,-187.35"/>
</g>
<!-- Node2&#45;&gt;Node4 -->
<g id="edge3" class="edge">
<title>Node2&#45;&gt;Node4</title>
<path fill="none" stroke="#63b8ff" d="M246.88,-150.97C272.28,-145.33 305.77,-137.88 332.73,-131.89"/>
<polygon fill="#63b8ff" stroke="#63b8ff" points="333.72,-135.26 342.72,-129.67 332.2,-128.43 333.72,-135.26"/>
</g>
<!-- Node5 -->
<g id="node5" class="node">
<title>Node5</title>
<g id="a_node5"><a xlink:href="namespacesharp.html#ab50b565bcba73d207dc1433dee5b03c9" target="_top" xlink:title="Comute the pressure level given potential temperature and temperature.">
<polygon fill="white" stroke="#666666" points="432.5,-168 328.5,-168 328.5,-149 432.5,-149 432.5,-168"/>
<text text-anchor="middle" x="380.5" y="-156" font-family="Helvetica,sans-Serif" font-size="10.00">sharp::theta_level</text>
</a>
</g>
</g>
<!-- Node2&#45;&gt;Node5 -->
<g id="edge4" class="edge">
<title>Node2&#45;&gt;Node5</title>
<path fill="none" stroke="#63b8ff" d="M246.88,-159.28C267.9,-159.15 294.45,-159 318.26,-158.86"/>
<polygon fill="#63b8ff" stroke="#63b8ff" points="318.3,-162.36 328.28,-158.8 318.26,-155.36 318.3,-162.36"/>
</g>
<!-- Node7 -->
<g id="node7" class="node">
<title>Node7</title>
<g id="a_node7"><a xlink:href="namespacesharp.html#a1edcf8bff9a13429bcbff7c1129024b3" target="_top" xlink:title="Finds the index of the lower bound that does not satisfy element &lt; value.">
<polygon fill="white" stroke="#666666" points="436.5,-93 324.5,-93 324.5,-74 436.5,-74 436.5,-93"/>
<text text-anchor="middle" x="380.5" y="-81" font-family="Helvetica,sans-Serif" font-size="10.00">sharp::lower_bound</text>
</a>
</g>
</g>
<!-- Node6&#45;&gt;Node7 -->
<g id="edge6" class="edge">
<title>Node6&#45;&gt;Node7</title>
<path fill="none" stroke="#63b8ff" d="M271.69,-83.5C285.62,-83.5 300.41,-83.5 314.41,-83.5"/>
<polygon fill="#63b8ff" stroke="#63b8ff" points="314.45,-87 324.45,-83.5 314.45,-80 314.45,-87"/>
</g>
<!-- Node8 -->
<g id="node8" class="node">
<title>Node8</title>
<g id="a_node8"><a xlink:href="namespacesharp.html#a772686549a5111c1152b778731119aa6" target="_top" xlink:title="Finds the first index that satisfies value &lt; element.">
<polygon fill="white" stroke="#666666" points="437,-56 324,-56 324,-37 437,-37 437,-56"/>
<text text-anchor="middle" x="380.5" y="-44" font-family="Helvetica,sans-Serif" font-size="10.00">sharp::upper_bound</text>
</a>
</g>
</g>
<!-- Node6&#45;&gt;Node8 -->
<g id="edge7" class="edge">
<title>Node6&#45;&gt;Node8</title>
<path fill="none" stroke="#63b8ff" d="M252.54,-73.97C274.79,-69.16 301.99,-63.27 325.49,-58.19"/>
<polygon fill="#63b8ff" stroke="#63b8ff" points="326.28,-61.6 335.32,-56.06 324.8,-54.75 326.28,-61.6"/>
</g>
</g>
</svg>
