<?xml version="1.0" encoding="UTF-8" standalone="no"?>
<!DOCTYPE svg PUBLIC "-//W3C//DTD SVG 1.1//EN"
 "http://www.w3.org/Graphics/SVG/1.1/DTD/svg11.dtd">
<!-- Generated by graphviz version 2.43.0 (0)
 -->
<!-- Title: sharp_wetlift Pages: 1 -->
<svg width="464pt" height="103pt"
 viewBox="0.00 0.00 464.00 103.00" xmlns="http://www.w3.org/2000/svg" xmlns:xlink="http://www.w3.org/1999/xlink">
<g id="graph0" class="graph" transform="scale(1 1) rotate(0) translate(4 99)">
<title>sharp_wetlift</title>
<!-- Node1 -->
<g id="node1" class="node">
<title>Node1</title>
<g id="a_node1"><a xlink:title=" ">
<polygon fill="#999999" stroke="#666666" points="80,-57 0,-57 0,-38 80,-38 80,-57"/>
<text text-anchor="middle" x="40" y="-45" font-family="Helvetica,sans-Serif" font-size="10.00">sharp_wetlift</text>
</a>
</g>
</g>
<!-- Node2 -->
<g id="node2" class="node">
<title>Node2</title>
<g id="a_node2"><a xlink:href="namespacesharp.html#ad4014313c60a66a321e4050a2a07058e" target="_top" xlink:title="Compute the temperature of a parcel lifted moist adiabatically to a new level.">
<polygon fill="white" stroke="#666666" points="196,-57 116,-57 116,-38 196,-38 196,-57"/>
<text text-anchor="middle" x="156" y="-45" font-family="Helvetica,sans-Serif" font-size="10.00">sharp::wetlift</text>
</a>
</g>
</g>
<!-- Node1&#45;&gt;Node2 -->
<g id="edge1" class="edge">
<title>Node1&#45;&gt;Node2</title>
<path fill="none" stroke="#63b8ff" d="M80.23,-47.5C88.38,-47.5 97.07,-47.5 105.54,-47.5"/>
<polygon fill="#63b8ff" stroke="#63b8ff" points="105.7,-51 115.7,-47.5 105.7,-44 105.7,-51"/>
</g>
<!-- Node3 -->
<g id="node3" class="node">
<title>Node3</title>
<g id="a_node3"><a xlink:href="namespacesharp.html#a78762bd2862b739e6ae331c45cb90202" target="_top" xlink:title="Compute the temperature along a moist adiabat (wet&#45;bulb potential temperature) at a given pressure.">
<polygon fill="white" stroke="#666666" points="346,-95 232,-95 232,-76 346,-76 346,-95"/>
<text text-anchor="middle" x="289" y="-83" font-family="Helvetica,sans-Serif" font-size="10.00">sharp::saturated_lift</text>
</a>
</g>
</g>
<!-- Node2&#45;&gt;Node3 -->
<g id="edge2" class="edge">
<title>Node2&#45;&gt;Node3</title>
<path fill="none" stroke="#63b8ff" d="M190.06,-57.09C206.81,-61.95 227.36,-67.91 245.3,-73.11"/>
<polygon fill="#63b8ff" stroke="#63b8ff" points="244.37,-76.49 254.95,-75.91 246.32,-69.77 244.37,-76.49"/>
</g>
<!-- Node4 -->
<g id="node4" class="node">
<title>Node4</title>
<g id="a_node4"><a xlink:href="namespacesharp.html#a52c7e44244cfacdbe530356f295ff114" target="_top" xlink:title="Computes the difference between the wet&#45;bulb potential temperatures for saturated and dry air given t...">
<polygon fill="white" stroke="#666666" points="456,-76 382,-76 382,-57 456,-57 456,-76"/>
<text text-anchor="middle" x="419" y="-64" font-family="Helvetica,sans-Serif" font-size="10.00">sharp::wobf</text>
</a>
</g>
</g>
<!-- Node2&#45;&gt;Node4 -->
<g id="edge5" class="edge">
<title>Node2&#45;&gt;Node4</title>
<path fill="none" stroke="#63b8ff" d="M196.07,-50.34C242.94,-53.76 321.42,-59.47 371.4,-63.11"/>
<polygon fill="#63b8ff" stroke="#63b8ff" points="371.38,-66.62 381.61,-63.85 371.89,-59.63 371.38,-66.62"/>
</g>
<!-- Node5 -->
<g id="node5" class="node">
<title>Node5</title>
<g id="a_node5"><a xlink:href="namespacesharp.html#acfd0143ab72871c4aabc95c1140ee8fb" target="_top" xlink:title="Compute the potential temperature.">
<polygon fill="white" stroke="#666666" points="326.5,-19 251.5,-19 251.5,0 326.5,0 326.5,-19"/>
<text text-anchor="middle" x="289" y="-7" font-family="Helvetica,sans-Serif" font-size="10.00">sharp::theta</text>
</a>
</g>
</g>
<!-- Node2&#45;&gt;Node5 -->
<g id="edge4" class="edge">
<title>Node2&#45;&gt;Node5</title>
<path fill="none" stroke="#63b8ff" d="M190.06,-37.91C206.81,-33.05 227.36,-27.09 245.3,-21.89"/>
<polygon fill="#63b8ff" stroke="#63b8ff" points="246.32,-25.23 254.95,-19.09 244.37,-18.51 246.32,-25.23"/>
</g>
<!-- Node3&#45;&gt;Node4 -->
<g id="edge3" class="edge">
<title>Node3&#45;&gt;Node4</title>
<path fill="none" stroke="#63b8ff" d="M346.14,-77.17C354.74,-75.89 363.53,-74.59 371.87,-73.35"/>
<polygon fill="#63b8ff" stroke="#63b8ff" points="372.42,-76.8 381.79,-71.87 371.39,-69.88 372.42,-76.8"/>
</g>
</g>
</svg>
