<?xml version="1.0" encoding="UTF-8" standalone="no"?>
<!DOCTYPE svg PUBLIC "-//W3C//DTD SVG 1.1//EN"
 "http://www.w3.org/Graphics/SVG/1.1/DTD/svg11.dtd">
<!-- Generated by graphviz version 2.43.0 (0)
 -->
<!-- Title: thermo.h Pages: 1 -->
<svg width="329pt" height="137pt"
 viewBox="0.00 0.00 329.00 137.00" xmlns="http://www.w3.org/2000/svg" xmlns:xlink="http://www.w3.org/1999/xlink">
<g id="graph0" class="graph" transform="scale(1 1) rotate(0) translate(4 133)">
<title>thermo.h</title>
<!-- Node1 -->
<g id="node1" class="node">
<title>Node1</title>
<g id="a_node1"><a xlink:title="Routines used to compute thermodynamic attributes of vertical sounding profiles.">
<polygon fill="#999999" stroke="#666666" points="195.5,-129 134.5,-129 134.5,-110 195.5,-110 195.5,-129"/>
<text text-anchor="middle" x="165" y="-117" font-family="Helvetica,sans-Serif" font-size="10.00">thermo.h</text>
</a>
</g>
</g>
<!-- Node2 -->
<g id="node2" class="node">
<title>Node2</title>
<g id="a_node2"><a xlink:href="convective_8cpp.html" target="_top" xlink:title="Routines used to computed derived sounding parameters from vertical atmospheric profiles.">
<polygon fill="white" stroke="#666666" points="90,-19 0,-19 0,0 90,0 90,-19"/>
<text text-anchor="middle" x="45" y="-7" font-family="Helvetica,sans-Serif" font-size="10.00">convective.cpp</text>
</a>
</g>
</g>
<!-- Node1&#45;&gt;Node2 -->
<g id="edge1" class="edge">
<title>Node1&#45;&gt;Node2</title>
<path fill="none" stroke="#63b8ff" d="M147.67,-102.91C122.04,-79.83 74.85,-37.37 54.62,-19.16"/>
<polygon fill="#63b8ff" stroke="#63b8ff" points="145.41,-105.57 155.18,-109.66 150.09,-100.37 145.41,-105.57"/>
</g>
<!-- Node3 -->
<g id="node3" class="node">
<title>Node3</title>
<g id="a_node3"><a xlink:href="convective_8h.html" target="_top" xlink:title="Routines used to computed derived sounding parameters from vertical atmospheric profiles.">
<polygon fill="white" stroke="#666666" points="187.5,-19 108.5,-19 108.5,0 187.5,0 187.5,-19"/>
<text text-anchor="middle" x="148" y="-7" font-family="Helvetica,sans-Serif" font-size="10.00">convective.h</text>
</a>
</g>
</g>
<!-- Node1&#45;&gt;Node3 -->
<g id="edge2" class="edge">
<title>Node1&#45;&gt;Node3</title>
<path fill="none" stroke="#63b8ff" d="M147.36,-102.86C139.86,-95.04 131.94,-84.91 128,-74 121.01,-54.65 133.41,-31.51 141.61,-19.2"/>
<polygon fill="#63b8ff" stroke="#63b8ff" points="144.95,-105.4 154.56,-109.87 149.84,-100.39 144.95,-105.4"/>
</g>
<!-- Node4 -->
<g id="node4" class="node">
<title>Node4</title>
<g id="a_node4"><a xlink:href="parcel_8cpp.html" target="_top" xlink:title="Routines used for parcel lifting and integration.">
<polygon fill="white" stroke="#666666" points="272.5,-19 205.5,-19 205.5,0 272.5,0 272.5,-19"/>
<text text-anchor="middle" x="239" y="-7" font-family="Helvetica,sans-Serif" font-size="10.00">parcel.cpp</text>
</a>
</g>
</g>
<!-- Node1&#45;&gt;Node4 -->
<g id="edge3" class="edge">
<title>Node1&#45;&gt;Node4</title>
<path fill="none" stroke="#63b8ff" d="M179.6,-102.27C186.7,-94.06 195.16,-83.78 202,-74 215.02,-55.39 227.82,-31.96 234.42,-19.41"/>
<polygon fill="#63b8ff" stroke="#63b8ff" points="176.8,-100.16 172.82,-109.98 182.05,-104.78 176.8,-100.16"/>
</g>
<!-- Node5 -->
<g id="node5" class="node">
<title>Node5</title>
<g id="a_node5"><a xlink:href="parcel_8h.html" target="_top" xlink:title="Routines used for parcel lifting and integration.">
<polygon fill="white" stroke="#666666" points="193,-74 137,-74 137,-55 193,-55 193,-74"/>
<text text-anchor="middle" x="165" y="-62" font-family="Helvetica,sans-Serif" font-size="10.00">parcel.h</text>
</a>
</g>
</g>
<!-- Node1&#45;&gt;Node5 -->
<g id="edge4" class="edge">
<title>Node1&#45;&gt;Node5</title>
<path fill="none" stroke="#63b8ff" d="M165,-99.66C165,-90.93 165,-80.99 165,-74.09"/>
<polygon fill="#63b8ff" stroke="#63b8ff" points="161.5,-99.75 165,-109.75 168.5,-99.75 161.5,-99.75"/>
</g>
<!-- Node6 -->
<g id="node6" class="node">
<title>Node6</title>
<g id="a_node6"><a xlink:href="thermo_8cpp.html" target="_top" xlink:title="Thermodynamic routines that do not directly involve parcel based ascent.">
<polygon fill="white" stroke="#666666" points="321,-74 249,-74 249,-55 321,-55 321,-74"/>
<text text-anchor="middle" x="285" y="-62" font-family="Helvetica,sans-Serif" font-size="10.00">thermo.cpp</text>
</a>
</g>
</g>
<!-- Node1&#45;&gt;Node6 -->
<g id="edge8" class="edge">
<title>Node1&#45;&gt;Node6</title>
<path fill="none" stroke="#63b8ff" d="M193.53,-105.9C215.7,-96.11 245.85,-82.79 265.37,-74.17"/>
<polygon fill="#63b8ff" stroke="#63b8ff" points="192.01,-102.74 184.28,-109.98 194.84,-109.15 192.01,-102.74"/>
</g>
<!-- Node5&#45;&gt;Node2 -->
<g id="edge5" class="edge">
<title>Node5&#45;&gt;Node2</title>
<path fill="none" stroke="#63b8ff" d="M136.47,-50.9C114.3,-41.11 84.15,-27.79 64.63,-19.17"/>
<polygon fill="#63b8ff" stroke="#63b8ff" points="135.16,-54.15 145.72,-54.98 137.99,-47.74 135.16,-54.15"/>
</g>
<!-- Node5&#45;&gt;Node3 -->
<g id="edge6" class="edge">
<title>Node5&#45;&gt;Node3</title>
<path fill="none" stroke="#63b8ff" d="M159.05,-44.95C156.23,-36.15 152.99,-26.06 150.75,-19.09"/>
<polygon fill="#63b8ff" stroke="#63b8ff" points="155.81,-46.29 162.19,-54.75 162.47,-44.16 155.81,-46.29"/>
</g>
<!-- Node5&#45;&gt;Node4 -->
<g id="edge7" class="edge">
<title>Node5&#45;&gt;Node4</title>
<path fill="none" stroke="#63b8ff" d="M185.03,-49.15C198.41,-39.57 215.56,-27.29 226.89,-19.17"/>
<polygon fill="#63b8ff" stroke="#63b8ff" points="182.98,-46.32 176.89,-54.98 187.06,-52.01 182.98,-46.32"/>
</g>
</g>
</svg>
