<?xml version="1.0" encoding="UTF-8" standalone="no"?>
<!DOCTYPE svg PUBLIC "-//W3C//DTD SVG 1.1//EN"
 "http://www.w3.org/Graphics/SVG/1.1/DTD/svg11.dtd">
<!-- Generated by graphviz version 2.43.0 (0)
 -->
<!-- Title: sharp_saturated_lift Pages: 1 -->
<svg width="381pt" height="27pt"
 viewBox="0.00 0.00 381.00 27.00" xmlns="http://www.w3.org/2000/svg" xmlns:xlink="http://www.w3.org/1999/xlink">
<g id="graph0" class="graph" transform="scale(1 1) rotate(0) translate(4 23)">
<title>sharp_saturated_lift</title>
<!-- Node1 -->
<g id="node1" class="node">
<title>Node1</title>
<g id="a_node1"><a xlink:title=" ">
<polygon fill="#999999" stroke="#666666" points="113,-19 0,-19 0,0 113,0 113,-19"/>
<text text-anchor="middle" x="56.5" y="-7" font-family="Helvetica,sans-Serif" font-size="10.00">sharp_saturated_lift</text>
</a>
</g>
</g>
<!-- Node2 -->
<g id="node2" class="node">
<title>Node2</title>
<g id="a_node2"><a xlink:href="namespacesharp.html#a78762bd2862b739e6ae331c45cb90202" target="_top" xlink:title="Compute the temperature along a moist adiabat (wet&#45;bulb potential temperature) at a given pressure.">
<polygon fill="white" stroke="#666666" points="263,-19 149,-19 149,0 263,0 263,-19"/>
<text text-anchor="middle" x="206" y="-7" font-family="Helvetica,sans-Serif" font-size="10.00">sharp::saturated_lift</text>
</a>
</g>
</g>
<!-- Node1&#45;&gt;Node2 -->
<g id="edge1" class="edge">
<title>Node1&#45;&gt;Node2</title>
<path fill="none" stroke="#63b8ff" d="M113.26,-9.5C121.5,-9.5 130.05,-9.5 138.48,-9.5"/>
<polygon fill="#63b8ff" stroke="#63b8ff" points="138.67,-13 148.67,-9.5 138.67,-6 138.67,-13"/>
</g>
<!-- Node3 -->
<g id="node3" class="node">
<title>Node3</title>
<g id="a_node3"><a xlink:href="namespacesharp.html#a52c7e44244cfacdbe530356f295ff114" target="_top" xlink:title="Computes the difference between the wet&#45;bulb potential temperatures for saturated and dry air given t...">
<polygon fill="white" stroke="#666666" points="373,-19 299,-19 299,0 373,0 373,-19"/>
<text text-anchor="middle" x="336" y="-7" font-family="Helvetica,sans-Serif" font-size="10.00">sharp::wobf</text>
</a>
</g>
</g>
<!-- Node2&#45;&gt;Node3 -->
<g id="edge2" class="edge">
<title>Node2&#45;&gt;Node3</title>
<path fill="none" stroke="#63b8ff" d="M263.14,-9.5C271.64,-9.5 280.33,-9.5 288.6,-9.5"/>
<polygon fill="#63b8ff" stroke="#63b8ff" points="288.79,-13 298.79,-9.5 288.79,-6 288.79,-13"/>
</g>
</g>
</svg>
