<?xml version="1.0" encoding="UTF-8" standalone="no"?>
<!DOCTYPE svg PUBLIC "-//W3C//DTD SVG 1.1//EN"
 "http://www.w3.org/Graphics/SVG/1.1/DTD/svg11.dtd">
<!-- Generated by graphviz version 2.43.0 (0)
 -->
<!-- Title: sharp_mixratio_ice Pages: 1 -->
<svg width="444pt" height="27pt"
 viewBox="0.00 0.00 444.00 27.00" xmlns="http://www.w3.org/2000/svg" xmlns:xlink="http://www.w3.org/1999/xlink">
<g id="graph0" class="graph" transform="scale(1 1) rotate(0) translate(4 23)">
<title>sharp_mixratio_ice</title>
<!-- Node1 -->
<g id="node1" class="node">
<title>Node1</title>
<g id="a_node1"><a xlink:title=" ">
<polygon fill="#999999" stroke="#666666" points="110,-19 0,-19 0,0 110,0 110,-19"/>
<text text-anchor="middle" x="55" y="-7" font-family="Helvetica,sans-Serif" font-size="10.00">sharp_mixratio_ice</text>
</a>
</g>
</g>
<!-- Node2 -->
<g id="node2" class="node">
<title>Node2</title>
<g id="a_node2"><a xlink:href="namespacesharp.html#a72f95fb5c4ff4fe801de999abc0aa17e" target="_top" xlink:title="Compute the ice water mixing ratio.">
<polygon fill="white" stroke="#666666" points="256,-19 146,-19 146,0 256,0 256,-19"/>
<text text-anchor="middle" x="201" y="-7" font-family="Helvetica,sans-Serif" font-size="10.00">sharp::mixratio_ice</text>
</a>
</g>
</g>
<!-- Node1&#45;&gt;Node2 -->
<g id="edge1" class="edge">
<title>Node1&#45;&gt;Node2</title>
<path fill="none" stroke="#63b8ff" d="M110.03,-9.5C118.31,-9.5 126.94,-9.5 135.42,-9.5"/>
<polygon fill="#63b8ff" stroke="#63b8ff" points="135.67,-13 145.67,-9.5 135.67,-6 135.67,-13"/>
</g>
<!-- Node3 -->
<g id="node3" class="node">
<title>Node3</title>
<g id="a_node3"><a xlink:href="namespacesharp.html#ad9be01979b547fe6827968eafcf72929" target="_top" xlink:title="Compute the vapor pressure over ice.">
<polygon fill="white" stroke="#666666" points="436,-19 292,-19 292,0 436,0 436,-19"/>
<text text-anchor="middle" x="364" y="-7" font-family="Helvetica,sans-Serif" font-size="10.00">sharp::vapor_pressure_ice</text>
</a>
</g>
</g>
<!-- Node2&#45;&gt;Node3 -->
<g id="edge2" class="edge">
<title>Node2&#45;&gt;Node3</title>
<path fill="none" stroke="#63b8ff" d="M256.06,-9.5C264.33,-9.5 273.02,-9.5 281.73,-9.5"/>
<polygon fill="#63b8ff" stroke="#63b8ff" points="281.93,-13 291.93,-9.5 281.93,-6 281.93,-13"/>
</g>
</g>
</svg>
