<?xml version="1.0" encoding="UTF-8" standalone="no"?>
<!DOCTYPE svg PUBLIC "-//W3C//DTD SVG 1.1//EN"
 "http://www.w3.org/Graphics/SVG/1.1/DTD/svg11.dtd">
<!-- Generated by graphviz version 2.43.0 (0)
 -->
<!-- Title: sharp_thetae Pages: 1 -->
<svg width="529pt" height="176pt"
 viewBox="0.00 0.00 529.00 176.00" xmlns="http://www.w3.org/2000/svg" xmlns:xlink="http://www.w3.org/1999/xlink">
<g id="graph0" class="graph" transform="scale(1 1) rotate(0) translate(4 172)">
<title>sharp_thetae</title>
<!-- Node1 -->
<g id="node1" class="node">
<title>Node1</title>
<g id="a_node1"><a xlink:title=" ">
<polygon fill="#999999" stroke="#666666" points="80,-75 0,-75 0,-56 80,-56 80,-75"/>
<text text-anchor="middle" x="40" y="-63" font-family="Helvetica,sans-Serif" font-size="10.00">sharp_thetae</text>
</a>
</g>
</g>
<!-- Node2 -->
<g id="node2" class="node">
<title>Node2</title>
<g id="a_node2"><a xlink:href="namespacesharp.html#ab06f16aa1caac3136e863db8cd61e2e9" target="_top" xlink:title="Compute the equivalent potential temperature.">
<polygon fill="white" stroke="#666666" points="197,-75 116,-75 116,-56 197,-56 197,-75"/>
<text text-anchor="middle" x="156.5" y="-63" font-family="Helvetica,sans-Serif" font-size="10.00">sharp::thetae</text>
</a>
</g>
</g>
<!-- Node1&#45;&gt;Node2 -->
<g id="edge1" class="edge">
<title>Node1&#45;&gt;Node2</title>
<path fill="none" stroke="#63b8ff" d="M80.08,-65.5C88.28,-65.5 97.04,-65.5 105.57,-65.5"/>
<polygon fill="#63b8ff" stroke="#63b8ff" points="105.81,-69 115.81,-65.5 105.81,-62 105.81,-69"/>
</g>
<!-- Node2&#45;&gt;Node2 -->
<g id="edge8" class="edge">
<title>Node2&#45;&gt;Node2</title>
<path fill="none" stroke="#63b8ff" d="M138.62,-75.08C129.92,-83.73 135.88,-93 156.5,-93 169.39,-93 176.55,-89.38 177.98,-84.55"/>
<polygon fill="#63b8ff" stroke="#63b8ff" points="181.2,-83.19 174.38,-75.08 174.66,-85.67 181.2,-83.19"/>
</g>
<!-- Node3 -->
<g id="node3" class="node">
<title>Node3</title>
<g id="a_node3"><a xlink:href="namespacesharp.html#ae4385866921cd7286946d9ffdd65c25e" target="_top" xlink:title="Lift a parcel dry adiabatically to its Lifted Condensation Level (LCL).">
<polygon fill="white" stroke="#666666" points="334.5,-132 256.5,-132 256.5,-113 334.5,-113 334.5,-132"/>
<text text-anchor="middle" x="295.5" y="-120" font-family="Helvetica,sans-Serif" font-size="10.00">sharp::drylift</text>
</a>
</g>
</g>
<!-- Node2&#45;&gt;Node3 -->
<g id="edge2" class="edge">
<title>Node2&#45;&gt;Node3</title>
<path fill="none" stroke="#63b8ff" d="M178.88,-75.12C193.95,-81.83 214.62,-90.9 233,-98.5 241.62,-102.06 250.97,-105.79 259.72,-109.21"/>
<polygon fill="#63b8ff" stroke="#63b8ff" points="258.69,-112.56 269.27,-112.92 261.22,-106.03 258.69,-112.56"/>
</g>
<!-- Node5 -->
<g id="node5" class="node">
<title>Node5</title>
<g id="a_node5"><a xlink:href="namespacesharp.html#acfd0143ab72871c4aabc95c1140ee8fb" target="_top" xlink:title="Compute the potential temperature.">
<polygon fill="white" stroke="#666666" points="495,-94 420,-94 420,-75 495,-75 495,-94"/>
<text text-anchor="middle" x="457.5" y="-82" font-family="Helvetica,sans-Serif" font-size="10.00">sharp::theta</text>
</a>
</g>
</g>
<!-- Node2&#45;&gt;Node5 -->
<g id="edge7" class="edge">
<title>Node2&#45;&gt;Node5</title>
<path fill="none" stroke="#63b8ff" d="M197.2,-68.02C252.2,-71.52 351.38,-77.82 409.85,-81.54"/>
<polygon fill="#63b8ff" stroke="#63b8ff" points="409.72,-85.03 419.92,-82.18 410.16,-78.05 409.72,-85.03"/>
</g>
<!-- Node7 -->
<g id="node7" class="node">
<title>Node7</title>
<g id="a_node7"><a xlink:href="namespacesharp.html#ac38870166f07ac30aadbc46b81340cc4" target="_top" xlink:title="Compute the water vapor mixing ratio from specific humidity.">
<polygon fill="white" stroke="#666666" points="341,-56 250,-56 250,-37 341,-37 341,-56"/>
<text text-anchor="middle" x="295.5" y="-44" font-family="Helvetica,sans-Serif" font-size="10.00">sharp::mixratio</text>
</a>
</g>
</g>
<!-- Node2&#45;&gt;Node7 -->
<g id="edge6" class="edge">
<title>Node2&#45;&gt;Node7</title>
<path fill="none" stroke="#63b8ff" d="M197.13,-60C210.35,-58.17 225.34,-56.09 239.52,-54.13"/>
<polygon fill="#63b8ff" stroke="#63b8ff" points="240.24,-57.56 249.66,-52.72 239.28,-50.63 240.24,-57.56"/>
</g>
<!-- Node8 -->
<g id="node8" class="node">
<title>Node8</title>
<g id="a_node8"><a xlink:href="namespacesharp.html#ae237f32df23021613fdbd9cc6679cadb" target="_top" xlink:title="Compute the vapor pressure over liquid water.">
<polygon fill="white" stroke="#666666" points="358,-19 233,-19 233,0 358,0 358,-19"/>
<text text-anchor="middle" x="295.5" y="-7" font-family="Helvetica,sans-Serif" font-size="10.00">sharp::vapor_pressure</text>
</a>
</g>
</g>
<!-- Node2&#45;&gt;Node8 -->
<g id="edge9" class="edge">
<title>Node2&#45;&gt;Node8</title>
<path fill="none" stroke="#63b8ff" d="M174.19,-55.99C189.22,-47.7 212.11,-35.73 233,-27.5 237.79,-25.61 242.86,-23.82 247.96,-22.14"/>
<polygon fill="#63b8ff" stroke="#63b8ff" points="249.21,-25.42 257.71,-19.08 247.12,-18.74 249.21,-25.42"/>
</g>
<!-- Node4 -->
<g id="node4" class="node">
<title>Node4</title>
<g id="a_node4"><a xlink:href="namespacesharp.html#a6f435bc49cb516376e1dc595e837e98b" target="_top" xlink:title="Compute the temperature of the LCL.">
<polygon fill="white" stroke="#666666" points="521,-168 394,-168 394,-149 521,-149 521,-168"/>
<text text-anchor="middle" x="457.5" y="-156" font-family="Helvetica,sans-Serif" font-size="10.00">sharp::lcl_temperature</text>
</a>
</g>
</g>
<!-- Node3&#45;&gt;Node4 -->
<g id="edge3" class="edge">
<title>Node3&#45;&gt;Node4</title>
<path fill="none" stroke="#63b8ff" d="M334.82,-131.12C355.68,-135.82 381.78,-141.69 404.46,-146.79"/>
<polygon fill="#63b8ff" stroke="#63b8ff" points="403.75,-150.22 414.27,-149 405.28,-143.39 403.75,-150.22"/>
</g>
<!-- Node3&#45;&gt;Node5 -->
<g id="edge4" class="edge">
<title>Node3&#45;&gt;Node5</title>
<path fill="none" stroke="#63b8ff" d="M334.82,-113.4C357.39,-108.04 386.1,-101.22 409.97,-95.55"/>
<polygon fill="#63b8ff" stroke="#63b8ff" points="410.94,-98.92 419.86,-93.2 409.33,-92.11 410.94,-98.92"/>
</g>
<!-- Node6 -->
<g id="node6" class="node">
<title>Node6</title>
<g id="a_node6"><a xlink:href="namespacesharp.html#ab50b565bcba73d207dc1433dee5b03c9" target="_top" xlink:title="Comute the pressure level given potential temperature and temperature.">
<polygon fill="white" stroke="#666666" points="509.5,-131 405.5,-131 405.5,-112 509.5,-112 509.5,-131"/>
<text text-anchor="middle" x="457.5" y="-119" font-family="Helvetica,sans-Serif" font-size="10.00">sharp::theta_level</text>
</a>
</g>
</g>
<!-- Node3&#45;&gt;Node6 -->
<g id="edge5" class="edge">
<title>Node3&#45;&gt;Node6</title>
<path fill="none" stroke="#63b8ff" d="M334.82,-122.26C352.94,-122.15 375,-122.01 395.34,-121.88"/>
<polygon fill="#63b8ff" stroke="#63b8ff" points="395.5,-125.38 405.48,-121.82 395.46,-118.38 395.5,-125.38"/>
</g>
</g>
</svg>
