<?xml version="1.0" encoding="UTF-8" standalone="no"?>
<!DOCTYPE svg PUBLIC "-//W3C//DTD SVG 1.1//EN"
 "http://www.w3.org/Graphics/SVG/1.1/DTD/svg11.dtd">
<!-- Generated by graphviz version 2.43.0 (0)
 -->
<!-- Title: sharp_PressureLayer_lapse_rate Pages: 1 -->
<svg width="677pt" height="64pt"
 viewBox="0.00 0.00 677.00 64.00" xmlns="http://www.w3.org/2000/svg" xmlns:xlink="http://www.w3.org/1999/xlink">
<g id="graph0" class="graph" transform="scale(1 1) rotate(0) translate(4 60)">
<title>sharp_PressureLayer_lapse_rate</title>
<!-- Node1 -->
<g id="node1" class="node">
<title>Node1</title>
<g id="a_node1"><a xlink:title=" ">
<polygon fill="#999999" stroke="#666666" points="118,-42.5 0,-42.5 0,-12.5 118,-12.5 118,-42.5"/>
<text text-anchor="start" x="8" y="-30.5" font-family="Helvetica,sans-Serif" font-size="10.00">sharp_PressureLayer</text>
<text text-anchor="middle" x="59" y="-19.5" font-family="Helvetica,sans-Serif" font-size="10.00">_lapse_rate</text>
</a>
</g>
</g>
<!-- Node2 -->
<g id="node2" class="node">
<title>Node2</title>
<g id="a_node2"><a xlink:href="namespacesharp.html#a43a01274768ee388a983046651a230d3" target="_top" xlink:title="compute the lapse rate over the given sharp::HeightLayer (AGL)">
<polygon fill="white" stroke="#666666" points="255,-37 154,-37 154,-18 255,-18 255,-37"/>
<text text-anchor="middle" x="204.5" y="-25" font-family="Helvetica,sans-Serif" font-size="10.00">sharp::lapse_rate</text>
</a>
</g>
</g>
<!-- Node1&#45;&gt;Node2 -->
<g id="edge1" class="edge">
<title>Node1&#45;&gt;Node2</title>
<path fill="none" stroke="#63b8ff" d="M118.37,-27.5C126.75,-27.5 135.39,-27.5 143.8,-27.5"/>
<polygon fill="#63b8ff" stroke="#63b8ff" points="143.91,-31 153.91,-27.5 143.91,-24 143.91,-31"/>
</g>
<!-- Node3 -->
<g id="node3" class="node">
<title>Node3</title>
<g id="a_node3"><a xlink:href="namespacesharp.html#af8484e9fe21c025b64ecffde614feb11" target="_top" xlink:title="Linearly interpolate a data field to a requested height level.">
<polygon fill="white" stroke="#666666" points="405,-37 291,-37 291,-18 405,-18 405,-37"/>
<text text-anchor="middle" x="348" y="-25" font-family="Helvetica,sans-Serif" font-size="10.00">sharp::interp_height</text>
</a>
</g>
</g>
<!-- Node2&#45;&gt;Node3 -->
<g id="edge2" class="edge">
<title>Node2&#45;&gt;Node3</title>
<path fill="none" stroke="#63b8ff" d="M255.39,-27.5C263.53,-27.5 272.08,-27.5 280.55,-27.5"/>
<polygon fill="#63b8ff" stroke="#63b8ff" points="280.81,-31 290.81,-27.5 280.81,-24 280.81,-31"/>
</g>
<!-- Node4 -->
<g id="node4" class="node">
<title>Node4</title>
<g id="a_node4"><a xlink:href="namespacesharp.html#a8aa123fbe3b59a7023446b0fe2186c49" target="_top" xlink:title="Linearly interpolates between a and b with distance t.">
<polygon fill="white" stroke="#666666" points="531.5,-56 463.5,-56 463.5,-37 531.5,-37 531.5,-56"/>
<text text-anchor="middle" x="497.5" y="-44" font-family="Helvetica,sans-Serif" font-size="10.00">sharp::lerp</text>
</a>
</g>
</g>
<!-- Node3&#45;&gt;Node4 -->
<g id="edge3" class="edge">
<title>Node3&#45;&gt;Node4</title>
<path fill="none" stroke="#63b8ff" d="M405.18,-34.74C421.06,-36.78 438.09,-38.98 453.09,-40.91"/>
<polygon fill="#63b8ff" stroke="#63b8ff" points="452.75,-44.39 463.11,-42.2 453.64,-37.45 452.75,-44.39"/>
</g>
<!-- Node6 -->
<g id="node6" class="node">
<title>Node6</title>
<g id="a_node6"><a xlink:href="namespacesharp.html#a772686549a5111c1152b778731119aa6" target="_top" xlink:title="Finds the first index that satisfies value &lt; element.">
<polygon fill="white" stroke="#666666" points="554,-19 441,-19 441,0 554,0 554,-19"/>
<text text-anchor="middle" x="497.5" y="-7" font-family="Helvetica,sans-Serif" font-size="10.00">sharp::upper_bound</text>
</a>
</g>
</g>
<!-- Node3&#45;&gt;Node6 -->
<g id="edge5" class="edge">
<title>Node3&#45;&gt;Node6</title>
<path fill="none" stroke="#63b8ff" d="M405.18,-20.64C413.61,-19.62 422.36,-18.55 430.96,-17.5"/>
<polygon fill="#63b8ff" stroke="#63b8ff" points="431.46,-20.96 440.96,-16.28 430.61,-14.01 431.46,-20.96"/>
</g>
<!-- Node5 -->
<g id="node5" class="node">
<title>Node5</title>
<g id="a_node5"><a xlink:href="namespacesharp.html#a8848423b96dfe09b90322efd2cc5bd43" target="_top" xlink:title="Linearly interpolates between a and b with distance t.">
<polygon fill="white" stroke="#666666" points="669,-56 590,-56 590,-37 669,-37 669,-56"/>
<text text-anchor="middle" x="629.5" y="-44" font-family="Helvetica,sans-Serif" font-size="10.00">sharp::__lerp</text>
</a>
</g>
</g>
<!-- Node4&#45;&gt;Node5 -->
<g id="edge4" class="edge">
<title>Node4&#45;&gt;Node5</title>
<path fill="none" stroke="#63b8ff" d="M531.64,-46.5C546.2,-46.5 563.6,-46.5 579.61,-46.5"/>
<polygon fill="#63b8ff" stroke="#63b8ff" points="579.88,-50 589.88,-46.5 579.88,-43 579.88,-50"/>
</g>
</g>
</svg>
