<?xml version="1.0" encoding="UTF-8" standalone="no"?>
<!DOCTYPE svg PUBLIC "-//W3C//DTD SVG 1.1//EN"
 "http://www.w3.org/Graphics/SVG/1.1/DTD/svg11.dtd">
<!-- Generated by graphviz version 2.43.0 (0)
 -->
<!-- Title: thermo.h Pages: 1 -->
<svg width="488pt" height="192pt"
 viewBox="0.00 0.00 487.50 192.00" xmlns="http://www.w3.org/2000/svg" xmlns:xlink="http://www.w3.org/1999/xlink">
<g id="graph0" class="graph" transform="scale(1 1) rotate(0) translate(4 188)">
<title>thermo.h</title>
<!-- Node1 -->
<g id="node1" class="node">
<title>Node1</title>
<g id="a_node1"><a xlink:title="Routines used to compute thermodynamic attributes of vertical sounding profiles.">
<polygon fill="#999999" stroke="#666666" points="262.5,-184 201.5,-184 201.5,-165 262.5,-165 262.5,-184"/>
<text text-anchor="middle" x="232" y="-172" font-family="Helvetica,sans-Serif" font-size="10.00">thermo.h</text>
</a>
</g>
</g>
<!-- Node2 -->
<g id="node2" class="node">
<title>Node2</title>
<g id="a_node2"><a xlink:href="convective_8cpp.html" target="_top" xlink:title="Routines used to computed derived sounding parameters from vertical atmospheric profiles.">
<polygon fill="white" stroke="#666666" points="90,-74 0,-74 0,-55 90,-55 90,-74"/>
<text text-anchor="middle" x="45" y="-62" font-family="Helvetica,sans-Serif" font-size="10.00">convective.cpp</text>
</a>
</g>
</g>
<!-- Node1&#45;&gt;Node2 -->
<g id="edge1" class="edge">
<title>Node1&#45;&gt;Node2</title>
<path fill="none" stroke="#63b8ff" d="M207.5,-159.85C191.86,-151.1 171.19,-139.47 153,-129 119.26,-109.58 79.9,-86.27 59.28,-74.01"/>
<polygon fill="#63b8ff" stroke="#63b8ff" points="206.07,-163.07 216.51,-164.89 209.49,-156.95 206.07,-163.07"/>
</g>
<!-- Node3 -->
<g id="node3" class="node">
<title>Node3</title>
<g id="a_node3"><a xlink:href="convective_8h.html" target="_top" xlink:title="Routines used to computed derived sounding parameters from vertical atmospheric profiles.">
<polygon fill="white" stroke="#666666" points="187.5,-74 108.5,-74 108.5,-55 187.5,-55 187.5,-74"/>
<text text-anchor="middle" x="148" y="-62" font-family="Helvetica,sans-Serif" font-size="10.00">convective.h</text>
</a>
</g>
</g>
<!-- Node1&#45;&gt;Node3 -->
<g id="edge2" class="edge">
<title>Node1&#45;&gt;Node3</title>
<path fill="none" stroke="#63b8ff" d="M204.09,-160.07C191.14,-152.56 176.54,-142.07 167,-129 154.65,-112.08 150.26,-87.13 148.75,-74.11"/>
<polygon fill="#63b8ff" stroke="#63b8ff" points="202.68,-163.28 213.13,-165 206.03,-157.14 202.68,-163.28"/>
</g>
<!-- Node5 -->
<g id="node5" class="node">
<title>Node5</title>
<g id="a_node5"><a xlink:href="parcel_8cpp.html" target="_top" xlink:title="Routines used for parcel lifting and integration.">
<polygon fill="white" stroke="#666666" points="387.5,-74 320.5,-74 320.5,-55 387.5,-55 387.5,-74"/>
<text text-anchor="middle" x="354" y="-62" font-family="Helvetica,sans-Serif" font-size="10.00">parcel.cpp</text>
</a>
</g>
</g>
<!-- Node1&#45;&gt;Node5 -->
<g id="edge4" class="edge">
<title>Node1&#45;&gt;Node5</title>
<path fill="none" stroke="#63b8ff" d="M242.26,-155.96C250.86,-142.3 264.09,-123.46 279,-110 295.97,-94.68 319.01,-81.95 335.06,-74.08"/>
<polygon fill="#63b8ff" stroke="#63b8ff" points="239.07,-154.48 236.87,-164.84 245.05,-158.12 239.07,-154.48"/>
</g>
<!-- Node6 -->
<g id="node6" class="node">
<title>Node6</title>
<g id="a_node6"><a xlink:href="parcel_8h.html" target="_top" xlink:title="Routines used for parcel lifting and integration.">
<polygon fill="white" stroke="#666666" points="232,-129 176,-129 176,-110 232,-110 232,-129"/>
<text text-anchor="middle" x="204" y="-117" font-family="Helvetica,sans-Serif" font-size="10.00">parcel.h</text>
</a>
</g>
</g>
<!-- Node1&#45;&gt;Node6 -->
<g id="edge5" class="edge">
<title>Node1&#45;&gt;Node6</title>
<path fill="none" stroke="#63b8ff" d="M222.66,-155.82C217.91,-146.82 212.34,-136.29 208.54,-129.09"/>
<polygon fill="#63b8ff" stroke="#63b8ff" points="219.61,-157.54 227.38,-164.75 225.8,-154.27 219.61,-157.54"/>
</g>
<!-- Node8 -->
<g id="node8" class="node">
<title>Node8</title>
<g id="a_node8"><a xlink:href="thermo_8cpp.html" target="_top" xlink:title="Thermodynamic routines that do not directly involve parcel based ascent.">
<polygon fill="white" stroke="#666666" points="360,-129 288,-129 288,-110 360,-110 360,-129"/>
<text text-anchor="middle" x="324" y="-117" font-family="Helvetica,sans-Serif" font-size="10.00">thermo.cpp</text>
</a>
</g>
</g>
<!-- Node1&#45;&gt;Node8 -->
<g id="edge10" class="edge">
<title>Node1&#45;&gt;Node8</title>
<path fill="none" stroke="#63b8ff" d="M255.49,-159.97C272.31,-150.28 294.45,-137.52 308.95,-129.17"/>
<polygon fill="#63b8ff" stroke="#63b8ff" points="253.7,-156.96 246.78,-164.98 257.19,-163.03 253.7,-156.96"/>
</g>
<!-- Node9 -->
<g id="node9" class="node">
<title>Node9</title>
<g id="a_node9"><a xlink:href="thermo__wrap_8cpp.html" target="_top" xlink:title=" ">
<polygon fill="white" stroke="#666666" points="479.5,-129 378.5,-129 378.5,-110 479.5,-110 479.5,-129"/>
<text text-anchor="middle" x="429" y="-117" font-family="Helvetica,sans-Serif" font-size="10.00">thermo_wrap.cpp</text>
</a>
</g>
</g>
<!-- Node1&#45;&gt;Node9 -->
<g id="edge11" class="edge">
<title>Node1&#45;&gt;Node9</title>
<path fill="none" stroke="#63b8ff" d="M272.72,-162.55C309.62,-152.62 363.27,-138.19 397.13,-129.07"/>
<polygon fill="#63b8ff" stroke="#63b8ff" points="271.53,-159.24 262.78,-165.22 273.35,-166 271.53,-159.24"/>
</g>
<!-- Node4 -->
<g id="node4" class="node">
<title>Node4</title>
<g id="a_node4"><a xlink:href="convective__wrap_8cpp.html" target="_top" xlink:title=" ">
<polygon fill="white" stroke="#666666" points="207.5,-19 88.5,-19 88.5,0 207.5,0 207.5,-19"/>
<text text-anchor="middle" x="148" y="-7" font-family="Helvetica,sans-Serif" font-size="10.00">convective_wrap.cpp</text>
</a>
</g>
</g>
<!-- Node3&#45;&gt;Node4 -->
<g id="edge3" class="edge">
<title>Node3&#45;&gt;Node4</title>
<path fill="none" stroke="#63b8ff" d="M148,-44.66C148,-35.93 148,-25.99 148,-19.09"/>
<polygon fill="#63b8ff" stroke="#63b8ff" points="144.5,-44.75 148,-54.75 151.5,-44.75 144.5,-44.75"/>
</g>
<!-- Node6&#45;&gt;Node2 -->
<g id="edge6" class="edge">
<title>Node6&#45;&gt;Node2</title>
<path fill="none" stroke="#63b8ff" d="M168.9,-106.8C139.22,-96.91 97.4,-82.97 70.75,-74.08"/>
<polygon fill="#63b8ff" stroke="#63b8ff" points="167.86,-110.14 178.45,-109.98 170.07,-103.5 167.86,-110.14"/>
</g>
<!-- Node6&#45;&gt;Node3 -->
<g id="edge7" class="edge">
<title>Node6&#45;&gt;Node3</title>
<path fill="none" stroke="#63b8ff" d="M187.67,-103.04C177.74,-93.64 165.41,-81.98 157.16,-74.17"/>
<polygon fill="#63b8ff" stroke="#63b8ff" points="185.33,-105.65 195,-109.98 190.15,-100.57 185.33,-105.65"/>
</g>
<!-- Node6&#45;&gt;Node5 -->
<g id="edge8" class="edge">
<title>Node6&#45;&gt;Node5</title>
<path fill="none" stroke="#63b8ff" d="M237.82,-106.55C265.68,-96.71 304.51,-82.98 329.46,-74.17"/>
<polygon fill="#63b8ff" stroke="#63b8ff" points="236.36,-103.35 228.1,-109.98 238.69,-109.95 236.36,-103.35"/>
</g>
<!-- Node7 -->
<g id="node7" class="node">
<title>Node7</title>
<g id="a_node7"><a xlink:href="parcel__wrap_8cpp.html" target="_top" xlink:title=" ">
<polygon fill="white" stroke="#666666" points="302,-74 206,-74 206,-55 302,-55 302,-74"/>
<text text-anchor="middle" x="254" y="-62" font-family="Helvetica,sans-Serif" font-size="10.00">parcel_wrap.cpp</text>
</a>
</g>
</g>
<!-- Node6&#45;&gt;Node7 -->
<g id="edge9" class="edge">
<title>Node6&#45;&gt;Node7</title>
<path fill="none" stroke="#63b8ff" d="M219.34,-102.24C228.1,-92.95 238.74,-81.68 245.9,-74.09"/>
<polygon fill="#63b8ff" stroke="#63b8ff" points="216.57,-100.07 212.26,-109.75 221.66,-104.88 216.57,-100.07"/>
</g>
</g>
</svg>
