<?xml version="1.0" encoding="UTF-8" standalone="no"?>
<!DOCTYPE svg PUBLIC "-//W3C//DTD SVG 1.1//EN"
 "http://www.w3.org/Graphics/SVG/1.1/DTD/svg11.dtd">
<!-- Generated by graphviz version 2.43.0 (0)
 -->
<!-- Title: thermo.cpp Pages: 1 -->
<svg width="634pt" height="247pt"
 viewBox="0.00 0.00 633.50 247.00" xmlns="http://www.w3.org/2000/svg" xmlns:xlink="http://www.w3.org/1999/xlink">
<g id="graph0" class="graph" transform="scale(1 1) rotate(0) translate(4 243)">
<title>thermo.cpp</title>
<!-- Node1 -->
<g id="node1" class="node">
<title>Node1</title>
<g id="a_node1"><a xlink:title="Thermodynamic routines that do not directly involve parcel based ascent.">
<polygon fill="#999999" stroke="#666666" points="444.5,-239 372.5,-239 372.5,-220 444.5,-220 444.5,-239"/>
<text text-anchor="middle" x="408.5" y="-227" font-family="Helvetica,sans-Serif" font-size="10.00">thermo.cpp</text>
</a>
</g>
</g>
<!-- Node2 -->
<g id="node2" class="node">
<title>Node2</title>
<g id="a_node2"><a xlink:href="constants_8h.html" target="_top" xlink:title="Meteorological constants useful for computations with vertical atmospheric sounding profiles.">
<polygon fill="white" stroke="#666666" points="121,-19 0,-19 0,0 121,0 121,-19"/>
<text text-anchor="middle" x="60.5" y="-7" font-family="Helvetica,sans-Serif" font-size="10.00">SHARPlib/constants.h</text>
</a>
</g>
</g>
<!-- Node1&#45;&gt;Node2 -->
<g id="edge1" class="edge">
<title>Node1&#45;&gt;Node2</title>
<path fill="none" stroke="#63b8ff" d="M380.12,-220C332.17,-205.06 232.8,-171.6 155.5,-129 119.3,-109.05 104.57,-107.6 80.5,-74 70.93,-60.64 65.82,-42.53 63.17,-29.07"/>
<polygon fill="#63b8ff" stroke="#63b8ff" points="66.6,-28.34 61.48,-19.06 59.69,-29.51 66.6,-28.34"/>
</g>
<!-- Node3 -->
<g id="node3" class="node">
<title>Node3</title>
<g id="a_node3"><a xlink:href="interp_8h.html" target="_top" xlink:title="Routines for linear interpolation of vertical atmospheric profiles.">
<polygon fill="white" stroke="#666666" points="429.5,-74 327.5,-74 327.5,-55 429.5,-55 429.5,-74"/>
<text text-anchor="middle" x="378.5" y="-62" font-family="Helvetica,sans-Serif" font-size="10.00">SHARPlib/interp.h</text>
</a>
</g>
</g>
<!-- Node1&#45;&gt;Node3 -->
<g id="edge2" class="edge">
<title>Node1&#45;&gt;Node3</title>
<path fill="none" stroke="#63b8ff" d="M402.85,-219.71C397.59,-211.02 390.04,-197.15 386.5,-184 377.23,-149.61 376.83,-107.68 377.55,-84.04"/>
<polygon fill="#63b8ff" stroke="#63b8ff" points="381.04,-84.15 377.96,-74.02 374.05,-83.87 381.04,-84.15"/>
</g>
<!-- Node4 -->
<g id="node4" class="node">
<title>Node4</title>
<g id="a_node4"><a xlink:title=" ">
<polygon fill="#e0e0e0" stroke="#999999" points="538,-19 491,-19 491,0 538,0 538,-19"/>
<text text-anchor="middle" x="514.5" y="-7" font-family="Helvetica,sans-Serif" font-size="10.00">cmath</text>
</a>
</g>
</g>
<!-- Node1&#45;&gt;Node4 -->
<g id="edge22" class="edge">
<title>Node1&#45;&gt;Node4</title>
<path fill="none" stroke="#63b8ff" d="M444.54,-223.7C468.78,-218.4 499.03,-207.27 514.5,-184 546.41,-136 530.61,-62.81 520.6,-28.91"/>
<polygon fill="#63b8ff" stroke="#63b8ff" points="523.83,-27.52 517.51,-19.02 517.15,-29.61 523.83,-27.52"/>
</g>
<!-- Node6 -->
<g id="node6" class="node">
<title>Node6</title>
<g id="a_node6"><a xlink:href="layer_8h.html" target="_top" xlink:title="Data structures and functions for performing operations over atmospheric layers.">
<polygon fill="white" stroke="#666666" points="339.5,-129 241.5,-129 241.5,-110 339.5,-110 339.5,-129"/>
<text text-anchor="middle" x="290.5" y="-117" font-family="Helvetica,sans-Serif" font-size="10.00">SHARPlib/layer.h</text>
</a>
</g>
</g>
<!-- Node1&#45;&gt;Node6 -->
<g id="edge6" class="edge">
<title>Node1&#45;&gt;Node6</title>
<path fill="none" stroke="#63b8ff" d="M397.25,-219.98C385.92,-211.26 368.08,-197.18 353.5,-184 336.32,-168.48 317.79,-149.5 305.3,-136.36"/>
<polygon fill="#63b8ff" stroke="#63b8ff" points="307.78,-133.89 298.38,-129.01 302.69,-138.69 307.78,-133.89"/>
</g>
<!-- Node9 -->
<g id="node9" class="node">
<title>Node9</title>
<g id="a_node9"><a xlink:href="thermo_8h.html" target="_top" xlink:title="Routines used to compute thermodynamic attributes of vertical sounding profiles.">
<polygon fill="white" stroke="#666666" points="505,-184 396,-184 396,-165 505,-165 505,-184"/>
<text text-anchor="middle" x="450.5" y="-172" font-family="Helvetica,sans-Serif" font-size="10.00">SHARPlib/thermo.h</text>
</a>
</g>
</g>
<!-- Node1&#45;&gt;Node9 -->
<g id="edge15" class="edge">
<title>Node1&#45;&gt;Node9</title>
<path fill="none" stroke="#63b8ff" d="M415.44,-219.75C421.37,-212.26 430.07,-201.28 437.32,-192.13"/>
<polygon fill="#63b8ff" stroke="#63b8ff" points="440.23,-194.1 443.69,-184.09 434.74,-189.75 440.23,-194.1"/>
</g>
<!-- Node10 -->
<g id="node10" class="node">
<title>Node10</title>
<g id="a_node10"><a xlink:title=" ">
<polygon fill="#e0e0e0" stroke="#999999" points="625.5,-184 561.5,-184 561.5,-165 625.5,-165 625.5,-184"/>
<text text-anchor="middle" x="593.5" y="-172" font-family="Helvetica,sans-Serif" font-size="10.00">algorithm</text>
</a>
</g>
</g>
<!-- Node1&#45;&gt;Node10 -->
<g id="edge21" class="edge">
<title>Node1&#45;&gt;Node10</title>
<path fill="none" stroke="#63b8ff" d="M438.22,-219.98C469.55,-211.01 519.07,-196.82 553.74,-186.89"/>
<polygon fill="#63b8ff" stroke="#63b8ff" points="554.89,-190.2 563.54,-184.08 552.97,-183.47 554.89,-190.2"/>
</g>
<!-- Node3&#45;&gt;Node2 -->
<g id="edge3" class="edge">
<title>Node3&#45;&gt;Node2</title>
<path fill="none" stroke="#63b8ff" d="M327.41,-54.98C271.39,-45.65 181.55,-30.67 121.79,-20.71"/>
<polygon fill="#63b8ff" stroke="#63b8ff" points="122.17,-17.23 111.73,-19.04 121.02,-24.13 122.17,-17.23"/>
</g>
<!-- Node3&#45;&gt;Node4 -->
<g id="edge4" class="edge">
<title>Node3&#45;&gt;Node4</title>
<path fill="none" stroke="#63b8ff" d="M400.35,-54.98C422.62,-46.3 457.4,-32.75 482.72,-22.88"/>
<polygon fill="#63b8ff" stroke="#63b8ff" points="484.21,-26.06 492.25,-19.17 481.66,-19.54 484.21,-26.06"/>
</g>
<!-- Node5 -->
<g id="node5" class="node">
<title>Node5</title>
<g id="a_node5"><a xlink:title=" ">
<polygon fill="#e0e0e0" stroke="#999999" points="365,-19 312,-19 312,0 365,0 365,-19"/>
<text text-anchor="middle" x="338.5" y="-7" font-family="Helvetica,sans-Serif" font-size="10.00">cstddef</text>
</a>
</g>
</g>
<!-- Node3&#45;&gt;Node5 -->
<g id="edge5" class="edge">
<title>Node3&#45;&gt;Node5</title>
<path fill="none" stroke="#63b8ff" d="M371.89,-54.75C366.24,-47.26 357.96,-36.28 351.05,-27.13"/>
<polygon fill="#63b8ff" stroke="#63b8ff" points="353.8,-24.96 344.98,-19.09 348.21,-29.18 353.8,-24.96"/>
</g>
<!-- Node6&#45;&gt;Node2 -->
<g id="edge10" class="edge">
<title>Node6&#45;&gt;Node2</title>
<path fill="none" stroke="#63b8ff" d="M241.37,-111.37C207.97,-105.03 163.64,-93.64 128.5,-74 106.81,-61.88 86.64,-41.4 73.99,-26.98"/>
<polygon fill="#63b8ff" stroke="#63b8ff" points="76.6,-24.65 67.45,-19.3 71.27,-29.19 76.6,-24.65"/>
</g>
<!-- Node6&#45;&gt;Node3 -->
<g id="edge11" class="edge">
<title>Node6&#45;&gt;Node3</title>
<path fill="none" stroke="#63b8ff" d="M304.64,-109.98C318.29,-101.77 339.19,-89.18 355.28,-79.49"/>
<polygon fill="#63b8ff" stroke="#63b8ff" points="357.34,-82.33 364.1,-74.17 353.73,-76.33 357.34,-82.33"/>
</g>
<!-- Node6&#45;&gt;Node4 -->
<g id="edge12" class="edge">
<title>Node6&#45;&gt;Node4</title>
<path fill="none" stroke="#63b8ff" d="M335.4,-109.97C365.73,-103.03 406.02,-91.49 438.5,-74 462,-61.34 484.95,-40.68 499.37,-26.38"/>
<polygon fill="#63b8ff" stroke="#63b8ff" points="501.94,-28.77 506.46,-19.18 496.95,-23.86 501.94,-28.77"/>
</g>
<!-- Node6&#45;&gt;Node5 -->
<g id="edge13" class="edge">
<title>Node6&#45;&gt;Node5</title>
<path fill="none" stroke="#63b8ff" d="M294.28,-109.86C299.65,-97.64 309.78,-74.59 318.5,-55 322.42,-46.19 326.82,-36.41 330.48,-28.26"/>
<polygon fill="#63b8ff" stroke="#63b8ff" points="333.73,-29.58 334.65,-19.02 327.35,-26.7 333.73,-29.58"/>
</g>
<!-- Node7 -->
<g id="node7" class="node">
<title>Node7</title>
<g id="a_node7"><a xlink:href="algorithms_8h.html" target="_top" xlink:title="Various algorithms used for searching, sorting, accumulating etc.">
<polygon fill="white" stroke="#666666" points="271.5,-74 145.5,-74 145.5,-55 271.5,-55 271.5,-74"/>
<text text-anchor="middle" x="208.5" y="-62" font-family="Helvetica,sans-Serif" font-size="10.00">SHARPlib/algorithms.h</text>
</a>
</g>
</g>
<!-- Node6&#45;&gt;Node7 -->
<g id="edge7" class="edge">
<title>Node6&#45;&gt;Node7</title>
<path fill="none" stroke="#63b8ff" d="M277.33,-109.98C264.73,-101.84 245.5,-89.41 230.56,-79.76"/>
<polygon fill="#63b8ff" stroke="#63b8ff" points="232.21,-76.66 221.91,-74.17 228.41,-82.54 232.21,-76.66"/>
</g>
<!-- Node8 -->
<g id="node8" class="node">
<title>Node8</title>
<g id="a_node8"><a xlink:title=" ">
<polygon fill="#e0e0e0" stroke="#999999" points="223,-19 158,-19 158,0 223,0 223,-19"/>
<text text-anchor="middle" x="190.5" y="-7" font-family="Helvetica,sans-Serif" font-size="10.00">functional</text>
</a>
</g>
</g>
<!-- Node6&#45;&gt;Node8 -->
<g id="edge14" class="edge">
<title>Node6&#45;&gt;Node8</title>
<path fill="none" stroke="#63b8ff" d="M241.2,-110.8C201.12,-103.42 149.21,-90.9 136.5,-74 123.15,-56.25 145.22,-36.95 165.04,-24.35"/>
<polygon fill="#63b8ff" stroke="#63b8ff" points="167.08,-27.21 173.85,-19.06 163.47,-21.21 167.08,-27.21"/>
</g>
<!-- Node7&#45;&gt;Node5 -->
<g id="edge8" class="edge">
<title>Node7&#45;&gt;Node5</title>
<path fill="none" stroke="#63b8ff" d="M229.39,-54.98C250.58,-46.34 283.63,-32.87 307.8,-23.02"/>
<polygon fill="#63b8ff" stroke="#63b8ff" points="309.29,-26.19 317.23,-19.17 306.65,-19.7 309.29,-26.19"/>
</g>
<!-- Node7&#45;&gt;Node8 -->
<g id="edge9" class="edge">
<title>Node7&#45;&gt;Node8</title>
<path fill="none" stroke="#63b8ff" d="M205.53,-54.75C203.14,-47.72 199.71,-37.62 196.73,-28.84"/>
<polygon fill="#63b8ff" stroke="#63b8ff" points="199.95,-27.43 193.42,-19.09 193.32,-29.68 199.95,-27.43"/>
</g>
<!-- Node9&#45;&gt;Node2 -->
<g id="edge16" class="edge">
<title>Node9&#45;&gt;Node2</title>
<path fill="none" stroke="#63b8ff" d="M395.79,-171.57C320.9,-166.17 186.02,-146.28 100.5,-74 85.77,-61.55 74.7,-42.26 67.98,-28.2"/>
<polygon fill="#63b8ff" stroke="#63b8ff" points="71.16,-26.75 63.87,-19.07 64.78,-29.63 71.16,-26.75"/>
</g>
<!-- Node9&#45;&gt;Node3 -->
<g id="edge17" class="edge">
<title>Node9&#45;&gt;Node3</title>
<path fill="none" stroke="#63b8ff" d="M444.61,-164.66C432.68,-146.77 405.5,-106 389.96,-82.69"/>
<polygon fill="#63b8ff" stroke="#63b8ff" points="392.73,-80.54 384.27,-74.16 386.91,-84.42 392.73,-80.54"/>
</g>
<!-- Node9&#45;&gt;Node4 -->
<g id="edge19" class="edge">
<title>Node9&#45;&gt;Node4</title>
<path fill="none" stroke="#63b8ff" d="M454.93,-164.74C459.36,-155.85 466.25,-141.62 471.5,-129 486.02,-94.12 500.52,-52.38 508.41,-28.91"/>
<polygon fill="#63b8ff" stroke="#63b8ff" points="511.8,-29.82 511.64,-19.23 505.16,-27.61 511.8,-29.82"/>
</g>
<!-- Node9&#45;&gt;Node5 -->
<g id="edge20" class="edge">
<title>Node9&#45;&gt;Node5</title>
<path fill="none" stroke="#63b8ff" d="M452.33,-164.74C456.24,-143.59 463.11,-89 438.5,-55 423.62,-34.44 397.05,-23.22 375.04,-17.19"/>
<polygon fill="#63b8ff" stroke="#63b8ff" points="375.85,-13.79 365.3,-14.77 374.16,-20.58 375.85,-13.79"/>
</g>
<!-- Node9&#45;&gt;Node6 -->
<g id="edge18" class="edge">
<title>Node9&#45;&gt;Node6</title>
<path fill="none" stroke="#63b8ff" d="M424.79,-164.98C398.05,-156.13 355.97,-142.19 326.05,-132.28"/>
<polygon fill="#63b8ff" stroke="#63b8ff" points="327,-128.9 316.41,-129.08 324.8,-135.55 327,-128.9"/>
</g>
</g>
</svg>
