<?xml version="1.0" encoding="UTF-8" standalone="no"?>
<!DOCTYPE svg PUBLIC "-//W3C//DTD SVG 1.1//EN"
 "http://www.w3.org/Graphics/SVG/1.1/DTD/svg11.dtd">
<!-- Generated by graphviz version 2.43.0 (0)
 -->
<!-- Title: thermo.h Pages: 1 -->
<svg width="340pt" height="192pt"
 viewBox="0.00 0.00 339.50 192.00" xmlns="http://www.w3.org/2000/svg" xmlns:xlink="http://www.w3.org/1999/xlink">
<g id="graph0" class="graph" transform="scale(1 1) rotate(0) translate(4 188)">
<title>thermo.h</title>
<!-- Node1 -->
<g id="node1" class="node">
<title>Node1</title>
<g id="a_node1"><a xlink:title="Routines used to compute thermodynamic attributes of vertical sounding profiles.">
<polygon fill="#999999" stroke="#666666" points="200,-184 139,-184 139,-165 200,-165 200,-184"/>
<text text-anchor="middle" x="169.5" y="-172" font-family="Helvetica,sans-Serif" font-size="10.00">thermo.h</text>
</a>
</g>
</g>
<!-- Node2 -->
<g id="node2" class="node">
<title>Node2</title>
<g id="a_node2"><a xlink:href="convective_8cpp.html" target="_top" xlink:title="Routines used to computed derived sounding parameters from vertical atmospheric profiles.">
<polygon fill="white" stroke="#666666" points="152.5,-19 62.5,-19 62.5,0 152.5,0 152.5,-19"/>
<text text-anchor="middle" x="107.5" y="-7" font-family="Helvetica,sans-Serif" font-size="10.00">convective.cpp</text>
</a>
</g>
</g>
<!-- Node1&#45;&gt;Node2 -->
<g id="edge1" class="edge">
<title>Node1&#45;&gt;Node2</title>
<path fill="none" stroke="#63b8ff" d="M184.4,-157.02C204.19,-133.04 234.24,-87.83 212.5,-55 199.16,-34.86 174.69,-23.81 152.73,-17.76"/>
<polygon fill="#63b8ff" stroke="#63b8ff" points="181.55,-154.96 177.69,-164.83 186.86,-159.52 181.55,-154.96"/>
</g>
<!-- Node3 -->
<g id="node3" class="node">
<title>Node3</title>
<g id="a_node3"><a xlink:href="convective_8h.html" target="_top" xlink:title="Routines used to computed derived sounding parameters from vertical atmospheric profiles.">
<polygon fill="white" stroke="#666666" points="79,-74 0,-74 0,-55 79,-55 79,-74"/>
<text text-anchor="middle" x="39.5" y="-62" font-family="Helvetica,sans-Serif" font-size="10.00">convective.h</text>
</a>
</g>
</g>
<!-- Node1&#45;&gt;Node3 -->
<g id="edge2" class="edge">
<title>Node1&#45;&gt;Node3</title>
<path fill="none" stroke="#63b8ff" d="M129.4,-161.53C110.71,-154.41 89.2,-143.82 73.5,-129 56.95,-113.38 46.75,-87.87 42.23,-74.43"/>
<polygon fill="#63b8ff" stroke="#63b8ff" points="128.27,-164.85 138.86,-164.94 130.64,-158.26 128.27,-164.85"/>
</g>
<!-- Node4 -->
<g id="node4" class="node">
<title>Node4</title>
<g id="a_node4"><a xlink:href="parcel_8cpp.html" target="_top" xlink:title="Routines used for parcel lifting and integration.">
<polygon fill="white" stroke="#666666" points="203,-74 136,-74 136,-55 203,-55 203,-74"/>
<text text-anchor="middle" x="169.5" y="-62" font-family="Helvetica,sans-Serif" font-size="10.00">parcel.cpp</text>
</a>
</g>
</g>
<!-- Node1&#45;&gt;Node4 -->
<g id="edge4" class="edge">
<title>Node1&#45;&gt;Node4</title>
<path fill="none" stroke="#63b8ff" d="M169.5,-154.48C169.5,-130.84 169.5,-91.5 169.5,-74.16"/>
<polygon fill="#63b8ff" stroke="#63b8ff" points="166,-154.66 169.5,-164.66 173,-154.66 166,-154.66"/>
</g>
<!-- Node5 -->
<g id="node5" class="node">
<title>Node5</title>
<g id="a_node5"><a xlink:href="parcel_8h.html" target="_top" xlink:title="Routines used for parcel lifting and integration.">
<polygon fill="white" stroke="#666666" points="138.5,-129 82.5,-129 82.5,-110 138.5,-110 138.5,-129"/>
<text text-anchor="middle" x="110.5" y="-117" font-family="Helvetica,sans-Serif" font-size="10.00">parcel.h</text>
</a>
</g>
</g>
<!-- Node1&#45;&gt;Node5 -->
<g id="edge5" class="edge">
<title>Node1&#45;&gt;Node5</title>
<path fill="none" stroke="#63b8ff" d="M152.3,-158.04C141.83,-148.64 128.85,-136.98 120.15,-129.17"/>
<polygon fill="#63b8ff" stroke="#63b8ff" points="150.24,-160.91 160.02,-164.98 154.92,-155.7 150.24,-160.91"/>
</g>
<!-- Node6 -->
<g id="node6" class="node">
<title>Node6</title>
<g id="a_node6"><a xlink:href="thermo_8cpp.html" target="_top" xlink:title="Thermodynamic routines that do not directly involve parcel based ascent.">
<polygon fill="white" stroke="#666666" points="331.5,-129 259.5,-129 259.5,-110 331.5,-110 331.5,-129"/>
<text text-anchor="middle" x="295.5" y="-117" font-family="Helvetica,sans-Serif" font-size="10.00">thermo.cpp</text>
</a>
</g>
</g>
<!-- Node1&#45;&gt;Node6 -->
<g id="edge9" class="edge">
<title>Node1&#45;&gt;Node6</title>
<path fill="none" stroke="#63b8ff" d="M199.15,-161.03C222.45,-151.23 254.3,-137.83 274.89,-129.17"/>
<polygon fill="#63b8ff" stroke="#63b8ff" points="197.6,-157.88 189.74,-164.98 200.32,-164.33 197.6,-157.88"/>
</g>
<!-- Node3&#45;&gt;Node2 -->
<g id="edge3" class="edge">
<title>Node3&#45;&gt;Node2</title>
<path fill="none" stroke="#63b8ff" d="M58.62,-48.6C70.8,-39.11 86.16,-27.13 96.38,-19.17"/>
<polygon fill="#63b8ff" stroke="#63b8ff" points="56.16,-46.08 50.43,-54.98 60.46,-51.6 56.16,-46.08"/>
</g>
<!-- Node5&#45;&gt;Node2 -->
<g id="edge6" class="edge">
<title>Node5&#45;&gt;Node2</title>
<path fill="none" stroke="#63b8ff" d="M109.97,-99.48C109.32,-75.84 108.22,-36.5 107.74,-19.16"/>
<polygon fill="#63b8ff" stroke="#63b8ff" points="106.48,-99.76 110.25,-109.66 113.48,-99.57 106.48,-99.76"/>
</g>
<!-- Node5&#45;&gt;Node3 -->
<g id="edge7" class="edge">
<title>Node5&#45;&gt;Node3</title>
<path fill="none" stroke="#63b8ff" d="M90.91,-103.88C78.13,-94.34 61.89,-82.21 51.11,-74.17"/>
<polygon fill="#63b8ff" stroke="#63b8ff" points="88.99,-106.81 99.09,-109.98 93.17,-101.2 88.99,-106.81"/>
</g>
<!-- Node5&#45;&gt;Node4 -->
<g id="edge8" class="edge">
<title>Node5&#45;&gt;Node4</title>
<path fill="none" stroke="#63b8ff" d="M127.7,-103.04C138.17,-93.64 151.15,-81.98 159.85,-74.17"/>
<polygon fill="#63b8ff" stroke="#63b8ff" points="125.08,-100.7 119.98,-109.98 129.76,-105.91 125.08,-100.7"/>
</g>
</g>
</svg>
