<?xml version="1.0" encoding="UTF-8" standalone="no"?>
<!DOCTYPE svg PUBLIC "-//W3C//DTD SVG 1.1//EN"
 "http://www.w3.org/Graphics/SVG/1.1/DTD/svg11.dtd">
<!-- Generated by graphviz version 2.43.0 (0)
 -->
<!-- Title: thermo_wrap.cpp Pages: 1 -->
<svg width="773pt" height="269pt"
 viewBox="0.00 0.00 773.00 269.00" xmlns="http://www.w3.org/2000/svg" xmlns:xlink="http://www.w3.org/1999/xlink">
<g id="graph0" class="graph" transform="scale(1 1) rotate(0) translate(4 265)">
<title>thermo_wrap.cpp</title>
<!-- Node1 -->
<g id="node1" class="node">
<title>Node1</title>
<g id="a_node1"><a xlink:title=" ">
<polygon fill="#999999" stroke="#666666" points="541,-261 440,-261 440,-242 541,-242 541,-261"/>
<text text-anchor="middle" x="490.5" y="-249" font-family="Helvetica,sans-Serif" font-size="10.00">thermo_wrap.cpp</text>
</a>
</g>
</g>
<!-- Node2 -->
<g id="node2" class="node">
<title>Node2</title>
<g id="a_node2"><a xlink:href="thermo__wrap_8h.html" target="_top" xlink:title="Header defining the C wrapper interface to thermodynamic routines.">
<polygon fill="white" stroke="#666666" points="193,-206 58,-206 58,-176 193,-176 193,-206"/>
<text text-anchor="start" x="66" y="-194" font-family="Helvetica,sans-Serif" font-size="10.00">SHARPlib/CWrap/thermo</text>
<text text-anchor="middle" x="125.5" y="-183" font-family="Helvetica,sans-Serif" font-size="10.00">_wrap.h</text>
</a>
</g>
</g>
<!-- Node1&#45;&gt;Node2 -->
<g id="edge1" class="edge">
<title>Node1&#45;&gt;Node2</title>
<path fill="none" stroke="#63b8ff" d="M439.75,-242.37C378.51,-232.55 274.9,-215.94 203.49,-204.5"/>
<polygon fill="#63b8ff" stroke="#63b8ff" points="203.62,-200.98 193.19,-202.85 202.51,-207.89 203.62,-200.98"/>
</g>
<!-- Node3 -->
<g id="node3" class="node">
<title>Node3</title>
<g id="a_node3"><a xlink:href="layer__wrap_8h.html" target="_top" xlink:title="Header defining the C wrapper interface to layer based routines.">
<polygon fill="white" stroke="#666666" points="125,-140 0,-140 0,-110 125,-110 125,-140"/>
<text text-anchor="start" x="8" y="-128" font-family="Helvetica,sans-Serif" font-size="10.00">SHARPlib/CWrap/layer</text>
<text text-anchor="middle" x="62.5" y="-117" font-family="Helvetica,sans-Serif" font-size="10.00">_wrap.h</text>
</a>
</g>
</g>
<!-- Node1&#45;&gt;Node3 -->
<g id="edge3" class="edge">
<title>Node1&#45;&gt;Node3</title>
<path fill="none" stroke="#63b8ff" d="M461.08,-241.94C391.02,-221.56 213.23,-169.84 120.61,-142.9"/>
<polygon fill="#63b8ff" stroke="#63b8ff" points="121.41,-139.49 110.83,-140.06 119.46,-146.21 121.41,-139.49"/>
</g>
<!-- Node4 -->
<g id="node4" class="node">
<title>Node4</title>
<g id="a_node4"><a xlink:href="constants_8h.html" target="_top" xlink:title="Meteorological constants useful for computations with vertical atmospheric sounding profiles.">
<polygon fill="white" stroke="#666666" points="668,-19 547,-19 547,0 668,0 668,-19"/>
<text text-anchor="middle" x="607.5" y="-7" font-family="Helvetica,sans-Serif" font-size="10.00">SHARPlib/constants.h</text>
</a>
</g>
</g>
<!-- Node1&#45;&gt;Node4 -->
<g id="edge4" class="edge">
<title>Node1&#45;&gt;Node4</title>
<path fill="none" stroke="#63b8ff" d="M508.09,-241.92C522.28,-234.23 541.89,-221.73 554.5,-206 594.04,-156.67 595.71,-136.11 607.5,-74 610.3,-59.24 610.12,-42.2 609.34,-29.49"/>
<polygon fill="#63b8ff" stroke="#63b8ff" points="612.8,-28.91 608.52,-19.22 605.83,-29.47 612.8,-28.91"/>
</g>
<!-- Node5 -->
<g id="node5" class="node">
<title>Node5</title>
<g id="a_node5"><a xlink:href="thermo_8h.html" target="_top" xlink:title="Routines used to compute thermodynamic attributes of vertical sounding profiles.">
<polygon fill="white" stroke="#666666" points="545,-200.5 436,-200.5 436,-181.5 545,-181.5 545,-200.5"/>
<text text-anchor="middle" x="490.5" y="-188.5" font-family="Helvetica,sans-Serif" font-size="10.00">SHARPlib/thermo.h</text>
</a>
</g>
</g>
<!-- Node1&#45;&gt;Node5 -->
<g id="edge5" class="edge">
<title>Node1&#45;&gt;Node5</title>
<path fill="none" stroke="#63b8ff" d="M490.5,-241.87C490.5,-233.75 490.5,-221.31 490.5,-210.89"/>
<polygon fill="#63b8ff" stroke="#63b8ff" points="494,-210.67 490.5,-200.67 487,-210.67 494,-210.67"/>
</g>
<!-- Node12 -->
<g id="node12" class="node">
<title>Node12</title>
<g id="a_node12"><a xlink:title=" ">
<polygon fill="#e0e0e0" stroke="#999999" points="765,-200.5 712,-200.5 712,-181.5 765,-181.5 765,-200.5"/>
<text text-anchor="middle" x="738.5" y="-188.5" font-family="Helvetica,sans-Serif" font-size="10.00">stdlib.h</text>
</a>
</g>
</g>
<!-- Node1&#45;&gt;Node12 -->
<g id="edge22" class="edge">
<title>Node1&#45;&gt;Node12</title>
<path fill="none" stroke="#63b8ff" d="M537.74,-241.98C579.95,-233.98 643.3,-221.02 697.5,-206 699.97,-205.31 702.52,-204.56 705.07,-203.77"/>
<polygon fill="#63b8ff" stroke="#63b8ff" points="706.37,-207.03 714.8,-200.62 704.21,-200.37 706.37,-207.03"/>
</g>
<!-- Node2&#45;&gt;Node3 -->
<g id="edge2" class="edge">
<title>Node2&#45;&gt;Node3</title>
<path fill="none" stroke="#63b8ff" d="M111.52,-175.8C103.28,-167.43 92.7,-156.68 83.48,-147.31"/>
<polygon fill="#63b8ff" stroke="#63b8ff" points="85.95,-144.84 76.44,-140.16 80.96,-149.75 85.95,-144.84"/>
</g>
<!-- Node5&#45;&gt;Node4 -->
<g id="edge6" class="edge">
<title>Node5&#45;&gt;Node4</title>
<path fill="none" stroke="#63b8ff" d="M507.2,-181.41C522.45,-172.79 544.68,-158.21 558.5,-140 584.57,-105.65 598.16,-55.86 603.96,-29.13"/>
<polygon fill="#63b8ff" stroke="#63b8ff" points="607.42,-29.69 605.99,-19.2 600.56,-28.3 607.42,-29.69"/>
</g>
<!-- Node6 -->
<g id="node6" class="node">
<title>Node6</title>
<g id="a_node6"><a xlink:href="interp_8h.html" target="_top" xlink:title="Routines for linear interpolation of vertical atmospheric profiles.">
<polygon fill="white" stroke="#666666" points="541.5,-74 439.5,-74 439.5,-55 541.5,-55 541.5,-74"/>
<text text-anchor="middle" x="490.5" y="-62" font-family="Helvetica,sans-Serif" font-size="10.00">SHARPlib/interp.h</text>
</a>
</g>
</g>
<!-- Node5&#45;&gt;Node6 -->
<g id="edge7" class="edge">
<title>Node5&#45;&gt;Node6</title>
<path fill="none" stroke="#63b8ff" d="M490.5,-181.44C490.5,-161.54 490.5,-111.76 490.5,-84.35"/>
<polygon fill="#63b8ff" stroke="#63b8ff" points="494,-84.12 490.5,-74.12 487,-84.12 494,-84.12"/>
</g>
<!-- Node7 -->
<g id="node7" class="node">
<title>Node7</title>
<g id="a_node7"><a xlink:title=" ">
<polygon fill="#e0e0e0" stroke="#999999" points="215,-19 168,-19 168,0 215,0 215,-19"/>
<text text-anchor="middle" x="191.5" y="-7" font-family="Helvetica,sans-Serif" font-size="10.00">cmath</text>
</a>
</g>
</g>
<!-- Node5&#45;&gt;Node7 -->
<g id="edge20" class="edge">
<title>Node5&#45;&gt;Node7</title>
<path fill="none" stroke="#63b8ff" d="M440.66,-181.47C379.92,-168.57 277.95,-138.39 217.5,-74 205.79,-61.53 199.04,-43.07 195.36,-29.26"/>
<polygon fill="#63b8ff" stroke="#63b8ff" points="198.74,-28.32 193.04,-19.39 191.92,-29.92 198.74,-28.32"/>
</g>
<!-- Node8 -->
<g id="node8" class="node">
<title>Node8</title>
<g id="a_node8"><a xlink:title=" ">
<polygon fill="#e0e0e0" stroke="#999999" points="477,-19 424,-19 424,0 477,0 477,-19"/>
<text text-anchor="middle" x="450.5" y="-7" font-family="Helvetica,sans-Serif" font-size="10.00">cstddef</text>
</a>
</g>
</g>
<!-- Node5&#45;&gt;Node8 -->
<g id="edge21" class="edge">
<title>Node5&#45;&gt;Node8</title>
<path fill="none" stroke="#63b8ff" d="M500.11,-181.31C523.44,-159.14 579.14,-99.09 550.5,-55 536.59,-33.58 509.72,-22.39 487.33,-16.58"/>
<polygon fill="#63b8ff" stroke="#63b8ff" points="487.96,-13.14 477.42,-14.28 486.37,-19.95 487.96,-13.14"/>
</g>
<!-- Node9 -->
<g id="node9" class="node">
<title>Node9</title>
<g id="a_node9"><a xlink:href="layer_8h.html" target="_top" xlink:title="Data structures and functions for performing operations over atmospheric layers.">
<polygon fill="white" stroke="#666666" points="460.5,-134.5 362.5,-134.5 362.5,-115.5 460.5,-115.5 460.5,-134.5"/>
<text text-anchor="middle" x="411.5" y="-122.5" font-family="Helvetica,sans-Serif" font-size="10.00">SHARPlib/layer.h</text>
</a>
</g>
</g>
<!-- Node5&#45;&gt;Node9 -->
<g id="edge11" class="edge">
<title>Node5&#45;&gt;Node9</title>
<path fill="none" stroke="#63b8ff" d="M479.85,-181.37C467.12,-171.06 445.62,-153.65 430.13,-141.09"/>
<polygon fill="#63b8ff" stroke="#63b8ff" points="432.21,-138.27 422.24,-134.7 427.8,-143.71 432.21,-138.27"/>
</g>
<!-- Node6&#45;&gt;Node4 -->
<g id="edge8" class="edge">
<title>Node6&#45;&gt;Node4</title>
<path fill="none" stroke="#63b8ff" d="M509.3,-54.98C528.12,-46.46 557.32,-33.23 579,-23.41"/>
<polygon fill="#63b8ff" stroke="#63b8ff" points="580.7,-26.48 588.36,-19.17 577.81,-20.11 580.7,-26.48"/>
</g>
<!-- Node6&#45;&gt;Node7 -->
<g id="edge9" class="edge">
<title>Node6&#45;&gt;Node7</title>
<path fill="none" stroke="#63b8ff" d="M442.46,-54.98C381.64,-44.2 278.4,-25.9 225.28,-16.49"/>
<polygon fill="#63b8ff" stroke="#63b8ff" points="225.81,-13.03 215.35,-14.73 224.59,-19.92 225.81,-13.03"/>
</g>
<!-- Node6&#45;&gt;Node8 -->
<g id="edge10" class="edge">
<title>Node6&#45;&gt;Node8</title>
<path fill="none" stroke="#63b8ff" d="M483.89,-54.75C478.24,-47.26 469.96,-36.28 463.05,-27.13"/>
<polygon fill="#63b8ff" stroke="#63b8ff" points="465.8,-24.96 456.98,-19.09 460.21,-29.18 465.8,-24.96"/>
</g>
<!-- Node9&#45;&gt;Node4 -->
<g id="edge15" class="edge">
<title>Node9&#45;&gt;Node4</title>
<path fill="none" stroke="#63b8ff" d="M450.75,-115.42C479.99,-107.77 519.97,-94.55 550.5,-74 569.05,-61.52 585.54,-41.68 595.95,-27.5"/>
<polygon fill="#63b8ff" stroke="#63b8ff" points="598.95,-29.32 601.88,-19.13 593.24,-25.27 598.95,-29.32"/>
</g>
<!-- Node9&#45;&gt;Node6 -->
<g id="edge16" class="edge">
<title>Node9&#45;&gt;Node6</title>
<path fill="none" stroke="#63b8ff" d="M423.16,-115.37C435.64,-106.12 455.68,-91.28 470.66,-80.19"/>
<polygon fill="#63b8ff" stroke="#63b8ff" points="472.84,-82.93 478.8,-74.17 468.68,-77.31 472.84,-82.93"/>
</g>
<!-- Node9&#45;&gt;Node7 -->
<g id="edge17" class="edge">
<title>Node9&#45;&gt;Node7</title>
<path fill="none" stroke="#63b8ff" d="M362.31,-117.95C326.11,-111.62 277.03,-98.94 240.5,-74 223.31,-62.26 209.48,-42.58 200.96,-28.23"/>
<polygon fill="#63b8ff" stroke="#63b8ff" points="203.89,-26.3 195.93,-19.32 197.79,-29.74 203.89,-26.3"/>
</g>
<!-- Node9&#45;&gt;Node8 -->
<g id="edge18" class="edge">
<title>Node9&#45;&gt;Node8</title>
<path fill="none" stroke="#63b8ff" d="M413.42,-115.37C416.47,-102.18 422.84,-76.28 430.5,-55 433.73,-46.03 437.98,-36.35 441.73,-28.32"/>
<polygon fill="#63b8ff" stroke="#63b8ff" points="444.94,-29.73 446.11,-19.2 438.63,-26.7 444.94,-29.73"/>
</g>
<!-- Node10 -->
<g id="node10" class="node">
<title>Node10</title>
<g id="a_node10"><a xlink:href="algorithms_8h.html" target="_top" xlink:title="Various algorithms used for searching, sorting, accumulating etc.">
<polygon fill="white" stroke="#666666" points="383.5,-74 257.5,-74 257.5,-55 383.5,-55 383.5,-74"/>
<text text-anchor="middle" x="320.5" y="-62" font-family="Helvetica,sans-Serif" font-size="10.00">SHARPlib/algorithms.h</text>
</a>
</g>
</g>
<!-- Node9&#45;&gt;Node10 -->
<g id="edge12" class="edge">
<title>Node9&#45;&gt;Node10</title>
<path fill="none" stroke="#63b8ff" d="M398.07,-115.37C383.42,-105.95 359.74,-90.73 342.4,-79.58"/>
<polygon fill="#63b8ff" stroke="#63b8ff" points="344.29,-76.63 333.98,-74.17 340.5,-82.52 344.29,-76.63"/>
</g>
<!-- Node11 -->
<g id="node11" class="node">
<title>Node11</title>
<g id="a_node11"><a xlink:title=" ">
<polygon fill="#e0e0e0" stroke="#999999" points="326,-19 261,-19 261,0 326,0 326,-19"/>
<text text-anchor="middle" x="293.5" y="-7" font-family="Helvetica,sans-Serif" font-size="10.00">functional</text>
</a>
</g>
</g>
<!-- Node9&#45;&gt;Node11 -->
<g id="edge19" class="edge">
<title>Node9&#45;&gt;Node11</title>
<path fill="none" stroke="#63b8ff" d="M362.47,-123.59C324.61,-120.36 274.45,-109.11 248.5,-74 236.33,-57.53 254.34,-38.3 271.07,-25.36"/>
<polygon fill="#63b8ff" stroke="#63b8ff" points="273.5,-27.92 279.53,-19.21 269.38,-22.25 273.5,-27.92"/>
</g>
<!-- Node10&#45;&gt;Node8 -->
<g id="edge13" class="edge">
<title>Node10&#45;&gt;Node8</title>
<path fill="none" stroke="#63b8ff" d="M341.39,-54.98C362.58,-46.34 395.63,-32.87 419.8,-23.02"/>
<polygon fill="#63b8ff" stroke="#63b8ff" points="421.29,-26.19 429.23,-19.17 418.65,-19.7 421.29,-26.19"/>
</g>
<!-- Node10&#45;&gt;Node11 -->
<g id="edge14" class="edge">
<title>Node10&#45;&gt;Node11</title>
<path fill="none" stroke="#63b8ff" d="M316.04,-54.75C312.38,-47.57 307.09,-37.18 302.55,-28.27"/>
<polygon fill="#63b8ff" stroke="#63b8ff" points="305.53,-26.41 297.88,-19.09 299.3,-29.59 305.53,-26.41"/>
</g>
</g>
</svg>
