<?xml version="1.0" encoding="UTF-8" standalone="no"?>
<!DOCTYPE svg PUBLIC "-//W3C//DTD SVG 1.1//EN"
 "http://www.w3.org/Graphics/SVG/1.1/DTD/svg11.dtd">
<!-- Generated by graphviz version 2.43.0 (0)
 -->
<!-- Title: sharp_moist_static_energy Pages: 1 -->
<svg width="434pt" height="38pt"
 viewBox="0.00 0.00 434.00 38.00" xmlns="http://www.w3.org/2000/svg" xmlns:xlink="http://www.w3.org/1999/xlink">
<g id="graph0" class="graph" transform="scale(1 1) rotate(0) translate(4 34)">
<title>sharp_moist_static_energy</title>
<!-- Node1 -->
<g id="node1" class="node">
<title>Node1</title>
<g id="a_node1"><a xlink:title=" ">
<polygon fill="#999999" stroke="#666666" points="109,-30 0,-30 0,0 109,0 109,-30"/>
<text text-anchor="start" x="8" y="-18" font-family="Helvetica,sans-Serif" font-size="10.00">sharp_moist_static</text>
<text text-anchor="middle" x="54.5" y="-7" font-family="Helvetica,sans-Serif" font-size="10.00">_energy</text>
</a>
</g>
</g>
<!-- Node2 -->
<g id="node2" class="node">
<title>Node2</title>
<g id="a_node2"><a xlink:href="namespacesharp.html#ab5fed65fe0cdf797961047fb9cde3295" target="_top" xlink:title="Compute moist static energy.">
<polygon fill="white" stroke="#666666" points="255,-30 145,-30 145,0 255,0 255,-30"/>
<text text-anchor="start" x="153" y="-18" font-family="Helvetica,sans-Serif" font-size="10.00">sharp::moist_static</text>
<text text-anchor="middle" x="200" y="-7" font-family="Helvetica,sans-Serif" font-size="10.00">_energy</text>
</a>
</g>
</g>
<!-- Node1&#45;&gt;Node2 -->
<g id="edge1" class="edge">
<title>Node1&#45;&gt;Node2</title>
<path fill="none" stroke="#63b8ff" d="M109.34,-15C117.6,-15 126.19,-15 134.64,-15"/>
<polygon fill="#63b8ff" stroke="#63b8ff" points="134.86,-18.5 144.86,-15 134.86,-11.5 134.86,-18.5"/>
</g>
<!-- Node3 -->
<g id="node3" class="node">
<title>Node3</title>
<g id="a_node3"><a xlink:href="namespacesharp.html#a792a4a2a9f9243a82fb44cb77c2ee561" target="_top" xlink:title="Compute specific humidity from a mixing ratio.">
<polygon fill="white" stroke="#666666" points="426,-24.5 291,-24.5 291,-5.5 426,-5.5 426,-24.5"/>
<text text-anchor="middle" x="358.5" y="-12.5" font-family="Helvetica,sans-Serif" font-size="10.00">sharp::specific_humidity</text>
</a>
</g>
</g>
<!-- Node2&#45;&gt;Node3 -->
<g id="edge2" class="edge">
<title>Node2&#45;&gt;Node3</title>
<path fill="none" stroke="#63b8ff" d="M255.3,-15C263.55,-15 272.19,-15 280.8,-15"/>
<polygon fill="#63b8ff" stroke="#63b8ff" points="280.88,-18.5 290.88,-15 280.88,-11.5 280.88,-18.5"/>
</g>
</g>
</svg>
