<?xml version="1.0" encoding="UTF-8" standalone="no"?>
<!DOCTYPE svg PUBLIC "-//W3C//DTD SVG 1.1//EN"
 "http://www.w3.org/Graphics/SVG/1.1/DTD/svg11.dtd">
<!-- Generated by graphviz version 2.43.0 (0)
 -->
<!-- Title: sharp_moist_adiabat_cm1 Pages: 1 -->
<svg width="804pt" height="82pt"
 viewBox="0.00 0.00 804.00 82.00" xmlns="http://www.w3.org/2000/svg" xmlns:xlink="http://www.w3.org/1999/xlink">
<g id="graph0" class="graph" transform="scale(1 1) rotate(0) translate(4 78)">
<title>sharp_moist_adiabat_cm1</title>
<!-- Node1 -->
<g id="node1" class="node">
<title>Node1</title>
<g id="a_node1"><a xlink:title=" ">
<polygon fill="#999999" stroke="#666666" points="145,-37 0,-37 0,-18 145,-18 145,-37"/>
<text text-anchor="middle" x="72.5" y="-25" font-family="Helvetica,sans-Serif" font-size="10.00">sharp_moist_adiabat_cm1</text>
</a>
</g>
</g>
<!-- Node2 -->
<g id="node2" class="node">
<title>Node2</title>
<g id="a_node2"><a xlink:href="namespacesharp.html#aa258841692c25171d3f3b2e8b1f52079" target="_top" xlink:title="Compute the temperature of a parcel lifted moist adiabatically to a new level.">
<polygon fill="white" stroke="#666666" points="327,-37 181,-37 181,-18 327,-18 327,-37"/>
<text text-anchor="middle" x="254" y="-25" font-family="Helvetica,sans-Serif" font-size="10.00">sharp::moist_adiabat_cm1</text>
</a>
</g>
</g>
<!-- Node1&#45;&gt;Node2 -->
<g id="edge1" class="edge">
<title>Node1&#45;&gt;Node2</title>
<path fill="none" stroke="#63b8ff" d="M145.22,-27.5C153.55,-27.5 162.1,-27.5 170.56,-27.5"/>
<polygon fill="#63b8ff" stroke="#63b8ff" points="170.81,-31 180.81,-27.5 170.81,-24 170.81,-31"/>
</g>
<!-- Node3 -->
<g id="node3" class="node">
<title>Node3</title>
<g id="a_node3"><a xlink:href="namespacesharp.html#a7494c22424745a8847092b64195fb9ae" target="_top" xlink:title=" ">
<polygon fill="white" stroke="#666666" points="470,-56 363,-56 363,-37 470,-37 470,-56"/>
<text text-anchor="middle" x="416.5" y="-44" font-family="Helvetica,sans-Serif" font-size="10.00">sharp::_solve_cm1</text>
</a>
</g>
</g>
<!-- Node2&#45;&gt;Node3 -->
<g id="edge2" class="edge">
<title>Node2&#45;&gt;Node3</title>
<path fill="none" stroke="#63b8ff" d="M327.27,-36.06C335.79,-37.06 344.43,-38.09 352.8,-39.08"/>
<polygon fill="#63b8ff" stroke="#63b8ff" points="352.51,-42.57 362.85,-40.27 353.33,-35.62 352.51,-42.57"/>
</g>
<!-- Node7 -->
<g id="node7" class="node">
<title>Node7</title>
<g id="a_node7"><a xlink:href="namespacesharp.html#acfd0143ab72871c4aabc95c1140ee8fb" target="_top" xlink:title="Compute the potential temperature.">
<polygon fill="white" stroke="#666666" points="454,-19 379,-19 379,0 454,0 454,-19"/>
<text text-anchor="middle" x="416.5" y="-7" font-family="Helvetica,sans-Serif" font-size="10.00">sharp::theta</text>
</a>
</g>
</g>
<!-- Node2&#45;&gt;Node7 -->
<g id="edge6" class="edge">
<title>Node2&#45;&gt;Node7</title>
<path fill="none" stroke="#63b8ff" d="M327.27,-19.4C341.32,-17.82 355.7,-16.21 368.66,-14.75"/>
<polygon fill="#63b8ff" stroke="#63b8ff" points="369.17,-18.22 378.72,-13.62 368.39,-11.26 369.17,-18.22"/>
</g>
<!-- Node4 -->
<g id="node4" class="node">
<title>Node4</title>
<g id="a_node4"><a xlink:href="namespacesharp.html#ac38870166f07ac30aadbc46b81340cc4" target="_top" xlink:title="Compute the water vapor mixing ratio from specific humidity.">
<polygon fill="white" stroke="#666666" points="606.5,-74 515.5,-74 515.5,-55 606.5,-55 606.5,-74"/>
<text text-anchor="middle" x="561" y="-62" font-family="Helvetica,sans-Serif" font-size="10.00">sharp::mixratio</text>
</a>
</g>
</g>
<!-- Node3&#45;&gt;Node4 -->
<g id="edge3" class="edge">
<title>Node3&#45;&gt;Node4</title>
<path fill="none" stroke="#63b8ff" d="M470.16,-53.15C481.45,-54.58 493.41,-56.09 504.79,-57.53"/>
<polygon fill="#63b8ff" stroke="#63b8ff" points="504.69,-61.04 515.05,-58.82 505.57,-54.1 504.69,-61.04"/>
</g>
<!-- Node5 -->
<g id="node5" class="node">
<title>Node5</title>
<g id="a_node5"><a xlink:href="namespacesharp.html#a0ebcad18ef9939ff56f23d49c35dd04c" target="_top" xlink:title="Compute the ice water mixing ratio.">
<polygon fill="white" stroke="#666666" points="616,-37 506,-37 506,-18 616,-18 616,-37"/>
<text text-anchor="middle" x="561" y="-25" font-family="Helvetica,sans-Serif" font-size="10.00">sharp::mixratio_ice</text>
</a>
</g>
</g>
<!-- Node3&#45;&gt;Node5 -->
<g id="edge4" class="edge">
<title>Node3&#45;&gt;Node5</title>
<path fill="none" stroke="#63b8ff" d="M470.16,-39.48C478.48,-38.37 487.16,-37.21 495.71,-36.07"/>
<polygon fill="#63b8ff" stroke="#63b8ff" points="496.2,-39.54 505.65,-34.75 495.28,-32.6 496.2,-39.54"/>
</g>
<!-- Node6 -->
<g id="node6" class="node">
<title>Node6</title>
<g id="a_node6"><a xlink:href="namespacesharp.html#aaf448e4ec9a4f7ac7edc9b960f656fd8" target="_top" xlink:title="Compute the vapor pressure over ice.">
<polygon fill="white" stroke="#666666" points="796,-37 652,-37 652,-18 796,-18 796,-37"/>
<text text-anchor="middle" x="724" y="-25" font-family="Helvetica,sans-Serif" font-size="10.00">sharp::vapor_pressure_ice</text>
</a>
</g>
</g>
<!-- Node5&#45;&gt;Node6 -->
<g id="edge5" class="edge">
<title>Node5&#45;&gt;Node6</title>
<path fill="none" stroke="#63b8ff" d="M616.06,-27.5C624.33,-27.5 633.02,-27.5 641.73,-27.5"/>
<polygon fill="#63b8ff" stroke="#63b8ff" points="641.93,-31 651.93,-27.5 641.93,-24 641.93,-31"/>
</g>
</g>
</svg>
