<?xml version="1.0" encoding="UTF-8" standalone="no"?>
<!DOCTYPE svg PUBLIC "-//W3C//DTD SVG 1.1//EN"
 "http://www.w3.org/Graphics/SVG/1.1/DTD/svg11.dtd">
<!-- Generated by graphviz version 2.43.0 (0)
 -->
<!-- Title: sharp_wetbulb Pages: 1 -->
<svg width="498pt" height="101pt"
 viewBox="0.00 0.00 498.00 101.00" xmlns="http://www.w3.org/2000/svg" xmlns:xlink="http://www.w3.org/1999/xlink">
<g id="graph0" class="graph" transform="scale(1 1) rotate(0) translate(4 97)">
<title>sharp_wetbulb</title>
<!-- Node1 -->
<g id="node1" class="node">
<title>Node1</title>
<g id="a_node1"><a xlink:title=" ">
<polygon fill="#999999" stroke="#666666" points="88,-56 0,-56 0,-37 88,-37 88,-56"/>
<text text-anchor="middle" x="44" y="-44" font-family="Helvetica,sans-Serif" font-size="10.00">sharp_wetbulb</text>
</a>
</g>
</g>
<!-- Node2 -->
<g id="node2" class="node">
<title>Node2</title>
<g id="a_node2"><a xlink:href="namespacesharp.html#accda9c75278f1a32978bbfd662492822" target="_top" xlink:title="Compute the wetbulb temperature.">
<polygon fill="white" stroke="#666666" points="213,-56 124,-56 124,-37 213,-37 213,-56"/>
<text text-anchor="middle" x="168.5" y="-44" font-family="Helvetica,sans-Serif" font-size="10.00">sharp::wetbulb</text>
</a>
</g>
</g>
<!-- Node1&#45;&gt;Node2 -->
<g id="edge1" class="edge">
<title>Node1&#45;&gt;Node2</title>
<path fill="none" stroke="#63b8ff" d="M88.19,-46.5C96.42,-46.5 105.12,-46.5 113.63,-46.5"/>
<polygon fill="#63b8ff" stroke="#63b8ff" points="113.87,-50 123.87,-46.5 113.87,-43 113.87,-50"/>
</g>
<!-- Node3 -->
<g id="node3" class="node">
<title>Node3</title>
<g id="a_node3"><a xlink:href="namespacesharp.html#ae4385866921cd7286946d9ffdd65c25e" target="_top" xlink:title="Lift a parcel dry adiabatically to its Lifted Condensation Level (LCL).">
<polygon fill="white" stroke="#666666" points="327,-56 249,-56 249,-37 327,-37 327,-56"/>
<text text-anchor="middle" x="288" y="-44" font-family="Helvetica,sans-Serif" font-size="10.00">sharp::drylift</text>
</a>
</g>
</g>
<!-- Node2&#45;&gt;Node3 -->
<g id="edge2" class="edge">
<title>Node2&#45;&gt;Node3</title>
<path fill="none" stroke="#63b8ff" d="M213.25,-46.5C221.51,-46.5 230.19,-46.5 238.58,-46.5"/>
<polygon fill="#63b8ff" stroke="#63b8ff" points="238.62,-50 248.62,-46.5 238.62,-43 238.62,-50"/>
</g>
<!-- Node4 -->
<g id="node4" class="node">
<title>Node4</title>
<g id="a_node4"><a xlink:href="namespacesharp.html#af016701e4a46d5c04d26c0a09c0aad38" target="_top" xlink:title="Compute the temperature of the LCL.">
<polygon fill="white" stroke="#666666" points="490,-93 363,-93 363,-74 490,-74 490,-93"/>
<text text-anchor="middle" x="426.5" y="-81" font-family="Helvetica,sans-Serif" font-size="10.00">sharp::lcl_temperature</text>
</a>
</g>
</g>
<!-- Node3&#45;&gt;Node4 -->
<g id="edge3" class="edge">
<title>Node3&#45;&gt;Node4</title>
<path fill="none" stroke="#63b8ff" d="M324.15,-56.03C341.21,-60.65 361.92,-66.27 380.15,-71.21"/>
<polygon fill="#63b8ff" stroke="#63b8ff" points="379.43,-74.64 389.99,-73.88 381.26,-67.88 379.43,-74.64"/>
</g>
<!-- Node5 -->
<g id="node5" class="node">
<title>Node5</title>
<g id="a_node5"><a xlink:href="namespacesharp.html#acfd0143ab72871c4aabc95c1140ee8fb" target="_top" xlink:title="Compute the potential temperature.">
<polygon fill="white" stroke="#666666" points="464,-56 389,-56 389,-37 464,-37 464,-56"/>
<text text-anchor="middle" x="426.5" y="-44" font-family="Helvetica,sans-Serif" font-size="10.00">sharp::theta</text>
</a>
</g>
</g>
<!-- Node3&#45;&gt;Node5 -->
<g id="edge4" class="edge">
<title>Node3&#45;&gt;Node5</title>
<path fill="none" stroke="#63b8ff" d="M327.02,-46.5C342.96,-46.5 361.66,-46.5 378.45,-46.5"/>
<polygon fill="#63b8ff" stroke="#63b8ff" points="378.62,-50 388.62,-46.5 378.62,-43 378.62,-50"/>
</g>
<!-- Node6 -->
<g id="node6" class="node">
<title>Node6</title>
<g id="a_node6"><a xlink:href="namespacesharp.html#ab50b565bcba73d207dc1433dee5b03c9" target="_top" xlink:title="Comute the pressure level given potential temperature and temperature.">
<polygon fill="white" stroke="#666666" points="478.5,-19 374.5,-19 374.5,0 478.5,0 478.5,-19"/>
<text text-anchor="middle" x="426.5" y="-7" font-family="Helvetica,sans-Serif" font-size="10.00">sharp::theta_level</text>
</a>
</g>
</g>
<!-- Node3&#45;&gt;Node6 -->
<g id="edge5" class="edge">
<title>Node3&#45;&gt;Node6</title>
<path fill="none" stroke="#63b8ff" d="M324.15,-36.97C341.21,-32.35 361.92,-26.73 380.15,-21.79"/>
<polygon fill="#63b8ff" stroke="#63b8ff" points="381.26,-25.12 389.99,-19.12 379.43,-18.36 381.26,-25.12"/>
</g>
</g>
</svg>
