<?xml version="1.0" encoding="UTF-8" standalone="no"?>
<!DOCTYPE svg PUBLIC "-//W3C//DTD SVG 1.1//EN"
 "http://www.w3.org/Graphics/SVG/1.1/DTD/svg11.dtd">
<!-- Generated by graphviz version 2.43.0 (0)
 -->
<!-- Title: thermo.h Pages: 1 -->
<svg width="459pt" height="192pt"
 viewBox="0.00 0.00 458.59 192.00" xmlns="http://www.w3.org/2000/svg" xmlns:xlink="http://www.w3.org/1999/xlink">
<g id="graph0" class="graph" transform="scale(1 1) rotate(0) translate(4 188)">
<title>thermo.h</title>
<!-- Node1 -->
<g id="node1" class="node">
<title>Node1</title>
<g id="a_node1"><a xlink:title="Routines used to compute thermodynamic attributes of vertical sounding profiles.">
<polygon fill="#999999" stroke="#666666" points="181,-184 120,-184 120,-165 181,-165 181,-184"/>
<text text-anchor="middle" x="150.5" y="-172" font-family="Helvetica,sans-Serif" font-size="10.00">thermo.h</text>
</a>
</g>
</g>
<!-- Node2 -->
<g id="node2" class="node">
<title>Node2</title>
<g id="a_node2"><a xlink:href="constants_8h.html" target="_top" xlink:title="Meteorological constants useful for computations with vertical atmospheric sounding profiles.">
<polygon fill="white" stroke="#666666" points="121,-19 0,-19 0,0 121,0 121,-19"/>
<text text-anchor="middle" x="60.5" y="-7" font-family="Helvetica,sans-Serif" font-size="10.00">SHARPlib/constants.h</text>
</a>
</g>
</g>
<!-- Node1&#45;&gt;Node2 -->
<g id="edge1" class="edge">
<title>Node1&#45;&gt;Node2</title>
<path fill="none" stroke="#63b8ff" d="M132.57,-164.87C118.75,-157.31 100.23,-145.01 89.5,-129 68.84,-98.16 62.88,-54.01 61.17,-29.23"/>
<polygon fill="#63b8ff" stroke="#63b8ff" points="64.65,-28.85 60.64,-19.04 57.66,-29.21 64.65,-28.85"/>
</g>
<!-- Node3 -->
<g id="node3" class="node">
<title>Node3</title>
<g id="a_node3"><a xlink:href="interp_8h.html" target="_top" xlink:title="Routines for linear interpolation of vertical atmospheric profiles.">
<polygon fill="white" stroke="#666666" points="201.5,-74 99.5,-74 99.5,-55 201.5,-55 201.5,-74"/>
<text text-anchor="middle" x="150.5" y="-62" font-family="Helvetica,sans-Serif" font-size="10.00">SHARPlib/interp.h</text>
</a>
</g>
</g>
<!-- Node1&#45;&gt;Node3 -->
<g id="edge2" class="edge">
<title>Node1&#45;&gt;Node3</title>
<path fill="none" stroke="#63b8ff" d="M150.5,-164.66C150.5,-147.17 150.5,-107.8 150.5,-84.27"/>
<polygon fill="#63b8ff" stroke="#63b8ff" points="154,-84.16 150.5,-74.16 147,-84.16 154,-84.16"/>
</g>
<!-- Node4 -->
<g id="node4" class="node">
<title>Node4</title>
<g id="a_node4"><a xlink:title=" ">
<polygon fill="#e0e0e0" stroke="#999999" points="186,-19 139,-19 139,0 186,0 186,-19"/>
<text text-anchor="middle" x="162.5" y="-7" font-family="Helvetica,sans-Serif" font-size="10.00">cmath</text>
</a>
</g>
</g>
<!-- Node1&#45;&gt;Node4 -->
<g id="edge15" class="edge">
<title>Node1&#45;&gt;Node4</title>
<path fill="none" stroke="#63b8ff" d="M139.92,-164.75C117.3,-144.95 68.04,-95.28 90.5,-55 98.89,-39.94 114.71,-29.34 129.39,-22.27"/>
<polygon fill="#63b8ff" stroke="#63b8ff" points="131.05,-25.37 138.78,-18.13 128.22,-18.97 131.05,-25.37"/>
</g>
<!-- Node5 -->
<g id="node5" class="node">
<title>Node5</title>
<g id="a_node5"><a xlink:title=" ">
<polygon fill="#e0e0e0" stroke="#999999" points="427,-19 374,-19 374,0 427,0 427,-19"/>
<text text-anchor="middle" x="400.5" y="-7" font-family="Helvetica,sans-Serif" font-size="10.00">cstddef</text>
</a>
</g>
</g>
<!-- Node1&#45;&gt;Node5 -->
<g id="edge16" class="edge">
<title>Node1&#45;&gt;Node5</title>
<path fill="none" stroke="#63b8ff" d="M181.02,-173.94C243.38,-172.96 384.7,-160.77 446.5,-74 458.47,-57.19 440.14,-38.03 423.19,-25.19"/>
<polygon fill="#63b8ff" stroke="#63b8ff" points="424.8,-22.04 414.62,-19.1 420.75,-27.74 424.8,-22.04"/>
</g>
<!-- Node6 -->
<g id="node6" class="node">
<title>Node6</title>
<g id="a_node6"><a xlink:href="layer_8h.html" target="_top" xlink:title="Data structures and functions for performing operations over atmospheric layers.">
<polygon fill="white" stroke="#666666" points="278.5,-129 180.5,-129 180.5,-110 278.5,-110 278.5,-129"/>
<text text-anchor="middle" x="229.5" y="-117" font-family="Helvetica,sans-Serif" font-size="10.00">SHARPlib/layer.h</text>
</a>
</g>
</g>
<!-- Node1&#45;&gt;Node6 -->
<g id="edge6" class="edge">
<title>Node1&#45;&gt;Node6</title>
<path fill="none" stroke="#63b8ff" d="M163.19,-164.98C175.33,-156.84 193.86,-144.41 208.25,-134.76"/>
<polygon fill="#63b8ff" stroke="#63b8ff" points="210.22,-137.65 216.58,-129.17 206.32,-131.84 210.22,-137.65"/>
</g>
<!-- Node3&#45;&gt;Node2 -->
<g id="edge3" class="edge">
<title>Node3&#45;&gt;Node2</title>
<path fill="none" stroke="#63b8ff" d="M136.04,-54.98C122.08,-46.77 100.71,-34.18 84.25,-24.49"/>
<polygon fill="#63b8ff" stroke="#63b8ff" points="85.62,-21.23 75.22,-19.17 82.06,-27.26 85.62,-21.23"/>
</g>
<!-- Node3&#45;&gt;Node4 -->
<g id="edge4" class="edge">
<title>Node3&#45;&gt;Node4</title>
<path fill="none" stroke="#63b8ff" d="M152.48,-54.75C154.07,-47.72 156.36,-37.62 158.35,-28.84"/>
<polygon fill="#63b8ff" stroke="#63b8ff" points="161.76,-29.62 160.56,-19.09 154.93,-28.07 161.76,-29.62"/>
</g>
<!-- Node3&#45;&gt;Node5 -->
<g id="edge5" class="edge">
<title>Node3&#45;&gt;Node5</title>
<path fill="none" stroke="#63b8ff" d="M190.67,-54.98C238.53,-44.84 317.81,-28.03 364,-18.24"/>
<polygon fill="#63b8ff" stroke="#63b8ff" points="364.83,-21.64 373.88,-16.14 363.38,-14.79 364.83,-21.64"/>
</g>
<!-- Node6&#45;&gt;Node2 -->
<g id="edge10" class="edge">
<title>Node6&#45;&gt;Node2</title>
<path fill="none" stroke="#63b8ff" d="M180.3,-112.68C151.28,-107.02 115.46,-95.88 90.5,-74 77.06,-62.22 69.17,-43.1 64.89,-28.92"/>
<polygon fill="#63b8ff" stroke="#63b8ff" points="68.26,-27.98 62.28,-19.23 61.5,-29.8 68.26,-27.98"/>
</g>
<!-- Node6&#45;&gt;Node3 -->
<g id="edge11" class="edge">
<title>Node6&#45;&gt;Node3</title>
<path fill="none" stroke="#63b8ff" d="M216.81,-109.98C204.67,-101.84 186.14,-89.41 171.75,-79.76"/>
<polygon fill="#63b8ff" stroke="#63b8ff" points="173.68,-76.84 163.42,-74.17 169.78,-82.65 173.68,-76.84"/>
</g>
<!-- Node6&#45;&gt;Node4 -->
<g id="edge12" class="edge">
<title>Node6&#45;&gt;Node4</title>
<path fill="none" stroke="#63b8ff" d="M228.37,-109.68C226.39,-96.83 221.45,-72.58 210.5,-55 203.44,-43.66 192.74,-33.35 183.23,-25.52"/>
<polygon fill="#63b8ff" stroke="#63b8ff" points="185.34,-22.72 175.31,-19.31 181.02,-28.23 185.34,-22.72"/>
</g>
<!-- Node6&#45;&gt;Node5 -->
<g id="edge13" class="edge">
<title>Node6&#45;&gt;Node5</title>
<path fill="none" stroke="#63b8ff" d="M278.72,-114.54C331.97,-109.12 411.82,-97.27 430.5,-74 442.11,-59.53 429.33,-39.84 417.04,-26.23"/>
<polygon fill="#63b8ff" stroke="#63b8ff" points="419.52,-23.76 410.05,-19.01 414.49,-28.63 419.52,-23.76"/>
</g>
<!-- Node7 -->
<g id="node7" class="node">
<title>Node7</title>
<g id="a_node7"><a xlink:href="algorithms_8h.html" target="_top" xlink:title="Various algorithms used for searching, sorting, accumulating etc.">
<polygon fill="white" stroke="#666666" points="421.5,-74 295.5,-74 295.5,-55 421.5,-55 421.5,-74"/>
<text text-anchor="middle" x="358.5" y="-62" font-family="Helvetica,sans-Serif" font-size="10.00">SHARPlib/algorithms.h</text>
</a>
</g>
</g>
<!-- Node6&#45;&gt;Node7 -->
<g id="edge7" class="edge">
<title>Node6&#45;&gt;Node7</title>
<path fill="none" stroke="#63b8ff" d="M250.23,-109.98C271.26,-101.34 304.05,-87.87 328.04,-78.02"/>
<polygon fill="#63b8ff" stroke="#63b8ff" points="329.48,-81.21 337.4,-74.17 326.82,-74.73 329.48,-81.21"/>
</g>
<!-- Node8 -->
<g id="node8" class="node">
<title>Node8</title>
<g id="a_node8"><a xlink:title=" ">
<polygon fill="#e0e0e0" stroke="#999999" points="349,-19 284,-19 284,0 349,0 349,-19"/>
<text text-anchor="middle" x="316.5" y="-7" font-family="Helvetica,sans-Serif" font-size="10.00">functional</text>
</a>
</g>
</g>
<!-- Node6&#45;&gt;Node8 -->
<g id="edge14" class="edge">
<title>Node6&#45;&gt;Node8</title>
<path fill="none" stroke="#63b8ff" d="M236.62,-109.66C251.16,-91.61 284.46,-50.28 303.15,-27.08"/>
<polygon fill="#63b8ff" stroke="#63b8ff" points="305.98,-29.14 309.53,-19.16 300.53,-24.75 305.98,-29.14"/>
</g>
<!-- Node7&#45;&gt;Node5 -->
<g id="edge8" class="edge">
<title>Node7&#45;&gt;Node5</title>
<path fill="none" stroke="#63b8ff" d="M365.44,-54.75C371.37,-47.26 380.07,-36.28 387.32,-27.13"/>
<polygon fill="#63b8ff" stroke="#63b8ff" points="390.23,-29.1 393.69,-19.09 384.74,-24.75 390.23,-29.1"/>
</g>
<!-- Node7&#45;&gt;Node8 -->
<g id="edge9" class="edge">
<title>Node7&#45;&gt;Node8</title>
<path fill="none" stroke="#63b8ff" d="M351.56,-54.75C345.63,-47.26 336.93,-36.28 329.68,-27.13"/>
<polygon fill="#63b8ff" stroke="#63b8ff" points="332.26,-24.75 323.31,-19.09 326.77,-29.1 332.26,-24.75"/>
</g>
</g>
</svg>
