<?xml version="1.0" encoding="UTF-8" standalone="no"?>
<!DOCTYPE svg PUBLIC "-//W3C//DTD SVG 1.1//EN"
 "http://www.w3.org/Graphics/SVG/1.1/DTD/svg11.dtd">
<!-- Generated by graphviz version 2.43.0 (0)
 -->
<!-- Title: sharp_HeightLayer_lapse_rate Pages: 1 -->
<svg width="723pt" height="64pt"
 viewBox="0.00 0.00 723.00 64.00" xmlns="http://www.w3.org/2000/svg" xmlns:xlink="http://www.w3.org/1999/xlink">
<g id="graph0" class="graph" transform="scale(1 1) rotate(0) translate(4 60)">
<title>sharp_HeightLayer_lapse_rate</title>
<!-- Node1 -->
<g id="node1" class="node">
<title>Node1</title>
<g id="a_node1"><a xlink:title=" ">
<polygon fill="#999999" stroke="#666666" points="164,-37 0,-37 0,-18 164,-18 164,-37"/>
<text text-anchor="middle" x="82" y="-25" font-family="Helvetica,sans-Serif" font-size="10.00">sharp_HeightLayer_lapse_rate</text>
</a>
</g>
</g>
<!-- Node2 -->
<g id="node2" class="node">
<title>Node2</title>
<g id="a_node2"><a xlink:href="namespacesharp.html#a43a01274768ee388a983046651a230d3" target="_top" xlink:title="compute the lapse rate over the given sharp::HeightLayer (AGL)">
<polygon fill="white" stroke="#666666" points="301,-37 200,-37 200,-18 301,-18 301,-37"/>
<text text-anchor="middle" x="250.5" y="-25" font-family="Helvetica,sans-Serif" font-size="10.00">sharp::lapse_rate</text>
</a>
</g>
</g>
<!-- Node1&#45;&gt;Node2 -->
<g id="edge1" class="edge">
<title>Node1&#45;&gt;Node2</title>
<path fill="none" stroke="#63b8ff" d="M164.3,-27.5C172.77,-27.5 181.27,-27.5 189.45,-27.5"/>
<polygon fill="#63b8ff" stroke="#63b8ff" points="189.61,-31 199.61,-27.5 189.61,-24 189.61,-31"/>
</g>
<!-- Node3 -->
<g id="node3" class="node">
<title>Node3</title>
<g id="a_node3"><a xlink:href="namespacesharp.html#ae8240f026498ad2775633a8d0dcf100d" target="_top" xlink:title="Linearly interpolate a data field to a requested height level.">
<polygon fill="white" stroke="#666666" points="451,-37 337,-37 337,-18 451,-18 451,-37"/>
<text text-anchor="middle" x="394" y="-25" font-family="Helvetica,sans-Serif" font-size="10.00">sharp::interp_height</text>
</a>
</g>
</g>
<!-- Node2&#45;&gt;Node3 -->
<g id="edge2" class="edge">
<title>Node2&#45;&gt;Node3</title>
<path fill="none" stroke="#63b8ff" d="M301.39,-27.5C309.53,-27.5 318.08,-27.5 326.55,-27.5"/>
<polygon fill="#63b8ff" stroke="#63b8ff" points="326.81,-31 336.81,-27.5 326.81,-24 326.81,-31"/>
</g>
<!-- Node4 -->
<g id="node4" class="node">
<title>Node4</title>
<g id="a_node4"><a xlink:href="namespacesharp.html#a0bf533560780fdb77bc3656db8d89208" target="_top" xlink:title="Linearly interpolates between a and b with distance t.">
<polygon fill="white" stroke="#666666" points="577.5,-56 509.5,-56 509.5,-37 577.5,-37 577.5,-56"/>
<text text-anchor="middle" x="543.5" y="-44" font-family="Helvetica,sans-Serif" font-size="10.00">sharp::lerp</text>
</a>
</g>
</g>
<!-- Node3&#45;&gt;Node4 -->
<g id="edge3" class="edge">
<title>Node3&#45;&gt;Node4</title>
<path fill="none" stroke="#63b8ff" d="M451.18,-34.74C467.06,-36.78 484.09,-38.98 499.09,-40.91"/>
<polygon fill="#63b8ff" stroke="#63b8ff" points="498.75,-44.39 509.11,-42.2 499.64,-37.45 498.75,-44.39"/>
</g>
<!-- Node6 -->
<g id="node6" class="node">
<title>Node6</title>
<g id="a_node6"><a xlink:href="namespacesharp.html#a772686549a5111c1152b778731119aa6" target="_top" xlink:title="Finds the first index that satisfies value &lt; element.">
<polygon fill="white" stroke="#666666" points="600,-19 487,-19 487,0 600,0 600,-19"/>
<text text-anchor="middle" x="543.5" y="-7" font-family="Helvetica,sans-Serif" font-size="10.00">sharp::upper_bound</text>
</a>
</g>
</g>
<!-- Node3&#45;&gt;Node6 -->
<g id="edge5" class="edge">
<title>Node3&#45;&gt;Node6</title>
<path fill="none" stroke="#63b8ff" d="M451.18,-20.64C459.61,-19.62 468.36,-18.55 476.96,-17.5"/>
<polygon fill="#63b8ff" stroke="#63b8ff" points="477.46,-20.96 486.96,-16.28 476.61,-14.01 477.46,-20.96"/>
</g>
<!-- Node5 -->
<g id="node5" class="node">
<title>Node5</title>
<g id="a_node5"><a xlink:href="namespacesharp.html#ac4464059524ff56c7974141bb4cc7375" target="_top" xlink:title="Linearly interpolates between a and b with distance t.">
<polygon fill="white" stroke="#666666" points="715,-56 636,-56 636,-37 715,-37 715,-56"/>
<text text-anchor="middle" x="675.5" y="-44" font-family="Helvetica,sans-Serif" font-size="10.00">sharp::__lerp</text>
</a>
</g>
</g>
<!-- Node4&#45;&gt;Node5 -->
<g id="edge4" class="edge">
<title>Node4&#45;&gt;Node5</title>
<path fill="none" stroke="#63b8ff" d="M577.64,-46.5C592.2,-46.5 609.6,-46.5 625.61,-46.5"/>
<polygon fill="#63b8ff" stroke="#63b8ff" points="625.88,-50 635.88,-46.5 625.88,-43 625.88,-50"/>
</g>
</g>
</svg>
