<?xml version="1.0" encoding="UTF-8" standalone="no"?>
<!DOCTYPE svg PUBLIC "-//W3C//DTD SVG 1.1//EN"
 "http://www.w3.org/Graphics/SVG/1.1/DTD/svg11.dtd">
<!-- Generated by graphviz version 2.43.0 (0)
 -->
<!-- Title: sharp_theta_wetbulb Pages: 1 -->
<svg width="559pt" height="101pt"
 viewBox="0.00 0.00 559.00 101.00" xmlns="http://www.w3.org/2000/svg" xmlns:xlink="http://www.w3.org/1999/xlink">
<g id="graph0" class="graph" transform="scale(1 1) rotate(0) translate(4 97)">
<title>sharp_theta_wetbulb</title>
<!-- Node1 -->
<g id="node1" class="node">
<title>Node1</title>
<g id="a_node1"><a xlink:title=" ">
<polygon fill="#999999" stroke="#666666" points="119,-56 0,-56 0,-37 119,-37 119,-56"/>
<text text-anchor="middle" x="59.5" y="-44" font-family="Helvetica,sans-Serif" font-size="10.00">sharp_theta_wetbulb</text>
</a>
</g>
</g>
<!-- Node2 -->
<g id="node2" class="node">
<title>Node2</title>
<g id="a_node2"><a xlink:href="namespacesharp.html#a5e3156aa7f5bafbd908184c7f51927ee" target="_top" xlink:title="Compute the wetbulb potential temperature.">
<polygon fill="white" stroke="#666666" points="274,-56 155,-56 155,-37 274,-37 274,-56"/>
<text text-anchor="middle" x="214.5" y="-44" font-family="Helvetica,sans-Serif" font-size="10.00">sharp::theta_wetbulb</text>
</a>
</g>
</g>
<!-- Node1&#45;&gt;Node2 -->
<g id="edge1" class="edge">
<title>Node1&#45;&gt;Node2</title>
<path fill="none" stroke="#63b8ff" d="M119.22,-46.5C127.54,-46.5 136.17,-46.5 144.67,-46.5"/>
<polygon fill="#63b8ff" stroke="#63b8ff" points="144.94,-50 154.94,-46.5 144.94,-43 144.94,-50"/>
</g>
<!-- Node3 -->
<g id="node3" class="node">
<title>Node3</title>
<g id="a_node3"><a xlink:href="namespacesharp.html#ae4385866921cd7286946d9ffdd65c25e" target="_top" xlink:title="Lift a parcel dry adiabatically to its Lifted Condensation Level (LCL).">
<polygon fill="white" stroke="#666666" points="388,-56 310,-56 310,-37 388,-37 388,-56"/>
<text text-anchor="middle" x="349" y="-44" font-family="Helvetica,sans-Serif" font-size="10.00">sharp::drylift</text>
</a>
</g>
</g>
<!-- Node2&#45;&gt;Node3 -->
<g id="edge2" class="edge">
<title>Node2&#45;&gt;Node3</title>
<path fill="none" stroke="#63b8ff" d="M274,-46.5C282.68,-46.5 291.53,-46.5 299.96,-46.5"/>
<polygon fill="#63b8ff" stroke="#63b8ff" points="299.99,-50 309.99,-46.5 299.99,-43 299.99,-50"/>
</g>
<!-- Node4 -->
<g id="node4" class="node">
<title>Node4</title>
<g id="a_node4"><a xlink:href="namespacesharp.html#a6f435bc49cb516376e1dc595e837e98b" target="_top" xlink:title="Compute the temperature of the LCL.">
<polygon fill="white" stroke="#666666" points="551,-93 424,-93 424,-74 551,-74 551,-93"/>
<text text-anchor="middle" x="487.5" y="-81" font-family="Helvetica,sans-Serif" font-size="10.00">sharp::lcl_temperature</text>
</a>
</g>
</g>
<!-- Node3&#45;&gt;Node4 -->
<g id="edge3" class="edge">
<title>Node3&#45;&gt;Node4</title>
<path fill="none" stroke="#63b8ff" d="M385.15,-56.03C402.21,-60.65 422.92,-66.27 441.15,-71.21"/>
<polygon fill="#63b8ff" stroke="#63b8ff" points="440.43,-74.64 450.99,-73.88 442.26,-67.88 440.43,-74.64"/>
</g>
<!-- Node5 -->
<g id="node5" class="node">
<title>Node5</title>
<g id="a_node5"><a xlink:href="namespacesharp.html#ac3f1b3b63f158e6c88e94dd9daa2a71c" target="_top" xlink:title="Compute the potential temperature.">
<polygon fill="white" stroke="#666666" points="525,-56 450,-56 450,-37 525,-37 525,-56"/>
<text text-anchor="middle" x="487.5" y="-44" font-family="Helvetica,sans-Serif" font-size="10.00">sharp::theta</text>
</a>
</g>
</g>
<!-- Node3&#45;&gt;Node5 -->
<g id="edge4" class="edge">
<title>Node3&#45;&gt;Node5</title>
<path fill="none" stroke="#63b8ff" d="M388.02,-46.5C403.96,-46.5 422.66,-46.5 439.45,-46.5"/>
<polygon fill="#63b8ff" stroke="#63b8ff" points="439.62,-50 449.62,-46.5 439.62,-43 439.62,-50"/>
</g>
<!-- Node6 -->
<g id="node6" class="node">
<title>Node6</title>
<g id="a_node6"><a xlink:href="namespacesharp.html#a8eeef9c07c473d71fc6a2e2c4da88179" target="_top" xlink:title="Comute the pressure level given potential temperature and temperature.">
<polygon fill="white" stroke="#666666" points="539.5,-19 435.5,-19 435.5,0 539.5,0 539.5,-19"/>
<text text-anchor="middle" x="487.5" y="-7" font-family="Helvetica,sans-Serif" font-size="10.00">sharp::theta_level</text>
</a>
</g>
</g>
<!-- Node3&#45;&gt;Node6 -->
<g id="edge5" class="edge">
<title>Node3&#45;&gt;Node6</title>
<path fill="none" stroke="#63b8ff" d="M385.15,-36.97C402.21,-32.35 422.92,-26.73 441.15,-21.79"/>
<polygon fill="#63b8ff" stroke="#63b8ff" points="442.26,-25.12 450.99,-19.12 440.43,-18.36 442.26,-25.12"/>
</g>
</g>
</svg>
