<?xml version="1.0" encoding="UTF-8" standalone="no"?>
<!DOCTYPE svg PUBLIC "-//W3C//DTD SVG 1.1//EN"
 "http://www.w3.org/Graphics/SVG/1.1/DTD/svg11.dtd">
<!-- Generated by graphviz version 2.43.0 (0)
 -->
<!-- Title: winds.h Pages: 1 -->
<svg width="447pt" height="192pt"
 viewBox="0.00 0.00 447.41 192.00" xmlns="http://www.w3.org/2000/svg" xmlns:xlink="http://www.w3.org/1999/xlink">
<g id="graph0" class="graph" transform="scale(1 1) rotate(0) translate(4 188)">
<title>winds.h</title>
<!-- Node1 -->
<g id="node1" class="node">
<title>Node1</title>
<g id="a_node1"><a xlink:title="Routines used to compute kinematic attributes and indices of vertical sounding profiles.">
<polygon fill="#999999" stroke="#666666" points="206.5,-184 152.5,-184 152.5,-165 206.5,-165 206.5,-184"/>
<text text-anchor="middle" x="179.5" y="-172" font-family="Helvetica,sans-Serif" font-size="10.00">winds.h</text>
</a>
</g>
</g>
<!-- Node2 -->
<g id="node2" class="node">
<title>Node2</title>
<g id="a_node2"><a xlink:href="constants_8h.html" target="_top" xlink:title="Meteorological constants useful for computations with vertical atmospheric sounding profiles.">
<polygon fill="white" stroke="#666666" points="121,-19 0,-19 0,0 121,0 121,-19"/>
<text text-anchor="middle" x="60.5" y="-7" font-family="Helvetica,sans-Serif" font-size="10.00">SHARPlib/constants.h</text>
</a>
</g>
</g>
<!-- Node1&#45;&gt;Node2 -->
<g id="edge1" class="edge">
<title>Node1&#45;&gt;Node2</title>
<path fill="none" stroke="#63b8ff" d="M162.88,-164.88C136.59,-150.24 86.19,-117.76 64.5,-74 57.67,-60.22 57.09,-42.65 57.97,-29.48"/>
<polygon fill="#63b8ff" stroke="#63b8ff" points="61.48,-29.56 59.01,-19.26 54.52,-28.85 61.48,-29.56"/>
</g>
<!-- Node3 -->
<g id="node3" class="node">
<title>Node3</title>
<g id="a_node3"><a xlink:href="interp_8h.html" target="_top" xlink:title="Routines for linear interpolation of vertical atmospheric profiles.">
<polygon fill="white" stroke="#666666" points="190.5,-74 88.5,-74 88.5,-55 190.5,-55 190.5,-74"/>
<text text-anchor="middle" x="139.5" y="-62" font-family="Helvetica,sans-Serif" font-size="10.00">SHARPlib/interp.h</text>
</a>
</g>
</g>
<!-- Node1&#45;&gt;Node3 -->
<g id="edge2" class="edge">
<title>Node1&#45;&gt;Node3</title>
<path fill="none" stroke="#63b8ff" d="M175.49,-164.72C171.49,-155.81 165.25,-141.57 160.5,-129 154.85,-114.05 149.2,-96.81 145.19,-84.07"/>
<polygon fill="#63b8ff" stroke="#63b8ff" points="148.43,-82.72 142.12,-74.21 141.75,-84.8 148.43,-82.72"/>
</g>
<!-- Node5 -->
<g id="node5" class="node">
<title>Node5</title>
<g id="a_node5"><a xlink:title=" ">
<polygon fill="#e0e0e0" stroke="#999999" points="397,-19 344,-19 344,0 397,0 397,-19"/>
<text text-anchor="middle" x="370.5" y="-7" font-family="Helvetica,sans-Serif" font-size="10.00">cstddef</text>
</a>
</g>
</g>
<!-- Node1&#45;&gt;Node5 -->
<g id="edge15" class="edge">
<title>Node1&#45;&gt;Node5</title>
<path fill="none" stroke="#63b8ff" d="M206.82,-172.35C261.32,-168.39 382.86,-150.94 435.5,-74 449.05,-54.2 423.57,-35.52 400.65,-23.61"/>
<polygon fill="#63b8ff" stroke="#63b8ff" points="401.95,-20.35 391.43,-19.09 398.87,-26.64 401.95,-20.35"/>
</g>
<!-- Node6 -->
<g id="node6" class="node">
<title>Node6</title>
<g id="a_node6"><a xlink:href="layer_8h.html" target="_top" xlink:title="Data structures and functions for performing operations over atmospheric layers.">
<polygon fill="white" stroke="#666666" points="267.5,-129 169.5,-129 169.5,-110 267.5,-110 267.5,-129"/>
<text text-anchor="middle" x="218.5" y="-117" font-family="Helvetica,sans-Serif" font-size="10.00">SHARPlib/layer.h</text>
</a>
</g>
</g>
<!-- Node1&#45;&gt;Node6 -->
<g id="edge6" class="edge">
<title>Node1&#45;&gt;Node6</title>
<path fill="none" stroke="#63b8ff" d="M185.94,-164.75C191.39,-157.34 199.36,-146.5 206.06,-137.41"/>
<polygon fill="#63b8ff" stroke="#63b8ff" points="209.07,-139.22 212.18,-129.09 203.43,-135.07 209.07,-139.22"/>
</g>
<!-- Node3&#45;&gt;Node2 -->
<g id="edge3" class="edge">
<title>Node3&#45;&gt;Node2</title>
<path fill="none" stroke="#63b8ff" d="M126.81,-54.98C114.67,-46.84 96.14,-34.41 81.75,-24.76"/>
<polygon fill="#63b8ff" stroke="#63b8ff" points="83.68,-21.84 73.42,-19.17 79.78,-27.65 83.68,-21.84"/>
</g>
<!-- Node4 -->
<g id="node4" class="node">
<title>Node4</title>
<g id="a_node4"><a xlink:title=" ">
<polygon fill="#e0e0e0" stroke="#999999" points="219,-19 172,-19 172,0 219,0 219,-19"/>
<text text-anchor="middle" x="195.5" y="-7" font-family="Helvetica,sans-Serif" font-size="10.00">cmath</text>
</a>
</g>
</g>
<!-- Node3&#45;&gt;Node4 -->
<g id="edge4" class="edge">
<title>Node3&#45;&gt;Node4</title>
<path fill="none" stroke="#63b8ff" d="M148.5,-54.98C156.69,-47.23 169.01,-35.58 178.97,-26.14"/>
<polygon fill="#63b8ff" stroke="#63b8ff" points="181.48,-28.59 186.34,-19.17 176.67,-23.5 181.48,-28.59"/>
</g>
<!-- Node3&#45;&gt;Node5 -->
<g id="edge5" class="edge">
<title>Node3&#45;&gt;Node5</title>
<path fill="none" stroke="#63b8ff" d="M176.61,-54.98C219.95,-45.04 291.15,-28.71 334.15,-18.84"/>
<polygon fill="#63b8ff" stroke="#63b8ff" points="334.95,-22.25 343.92,-16.6 333.39,-15.42 334.95,-22.25"/>
</g>
<!-- Node6&#45;&gt;Node2 -->
<g id="edge10" class="edge">
<title>Node6&#45;&gt;Node2</title>
<path fill="none" stroke="#63b8ff" d="M169.42,-114.21C139.7,-109.13 103.1,-98.06 79.5,-74 67.8,-62.07 63.26,-43.25 61.52,-29.19"/>
<polygon fill="#63b8ff" stroke="#63b8ff" points="65,-28.81 60.64,-19.16 58.03,-29.42 65,-28.81"/>
</g>
<!-- Node6&#45;&gt;Node3 -->
<g id="edge11" class="edge">
<title>Node6&#45;&gt;Node3</title>
<path fill="none" stroke="#63b8ff" d="M205.81,-109.98C193.67,-101.84 175.14,-89.41 160.75,-79.76"/>
<polygon fill="#63b8ff" stroke="#63b8ff" points="162.68,-76.84 152.42,-74.17 158.78,-82.65 162.68,-76.84"/>
</g>
<!-- Node6&#45;&gt;Node4 -->
<g id="edge12" class="edge">
<title>Node6&#45;&gt;Node4</title>
<path fill="none" stroke="#63b8ff" d="M216.62,-109.66C212.88,-92.09 204.43,-52.45 199.43,-28.95"/>
<polygon fill="#63b8ff" stroke="#63b8ff" points="202.85,-28.21 197.34,-19.16 196,-29.67 202.85,-28.21"/>
</g>
<!-- Node6&#45;&gt;Node5 -->
<g id="edge13" class="edge">
<title>Node6&#45;&gt;Node5</title>
<path fill="none" stroke="#63b8ff" d="M267.72,-114.54C320.97,-109.12 400.82,-97.27 419.5,-74 432.97,-57.22 412.33,-37.56 393.84,-24.61"/>
<polygon fill="#63b8ff" stroke="#63b8ff" points="395.64,-21.6 385.37,-19 391.77,-27.44 395.64,-21.6"/>
</g>
<!-- Node7 -->
<g id="node7" class="node">
<title>Node7</title>
<g id="a_node7"><a xlink:href="algorithms_8h.html" target="_top" xlink:title="Various algorithms used for searching, sorting, accumulating etc.">
<polygon fill="white" stroke="#666666" points="410.5,-74 284.5,-74 284.5,-55 410.5,-55 410.5,-74"/>
<text text-anchor="middle" x="347.5" y="-62" font-family="Helvetica,sans-Serif" font-size="10.00">SHARPlib/algorithms.h</text>
</a>
</g>
</g>
<!-- Node6&#45;&gt;Node7 -->
<g id="edge7" class="edge">
<title>Node6&#45;&gt;Node7</title>
<path fill="none" stroke="#63b8ff" d="M239.23,-109.98C260.26,-101.34 293.05,-87.87 317.04,-78.02"/>
<polygon fill="#63b8ff" stroke="#63b8ff" points="318.48,-81.21 326.4,-74.17 315.82,-74.73 318.48,-81.21"/>
</g>
<!-- Node8 -->
<g id="node8" class="node">
<title>Node8</title>
<g id="a_node8"><a xlink:title=" ">
<polygon fill="#e0e0e0" stroke="#999999" points="319,-19 254,-19 254,0 319,0 319,-19"/>
<text text-anchor="middle" x="286.5" y="-7" font-family="Helvetica,sans-Serif" font-size="10.00">functional</text>
</a>
</g>
</g>
<!-- Node6&#45;&gt;Node8 -->
<g id="edge14" class="edge">
<title>Node6&#45;&gt;Node8</title>
<path fill="none" stroke="#63b8ff" d="M224.06,-109.66C235.33,-91.77 261,-51 275.67,-27.69"/>
<polygon fill="#63b8ff" stroke="#63b8ff" points="278.68,-29.49 281.05,-19.16 272.76,-25.76 278.68,-29.49"/>
</g>
<!-- Node7&#45;&gt;Node5 -->
<g id="edge8" class="edge">
<title>Node7&#45;&gt;Node5</title>
<path fill="none" stroke="#63b8ff" d="M351.3,-54.75C354.41,-47.57 358.92,-37.18 362.79,-28.27"/>
<polygon fill="#63b8ff" stroke="#63b8ff" points="366,-29.66 366.77,-19.09 359.58,-26.87 366,-29.66"/>
</g>
<!-- Node7&#45;&gt;Node8 -->
<g id="edge9" class="edge">
<title>Node7&#45;&gt;Node8</title>
<path fill="none" stroke="#63b8ff" d="M337.7,-54.98C328.68,-47.15 315.09,-35.34 304.18,-25.86"/>
<polygon fill="#63b8ff" stroke="#63b8ff" points="306.32,-23.09 296.48,-19.17 301.73,-28.37 306.32,-23.09"/>
</g>
</g>
</svg>
