<?xml version="1.0" encoding="UTF-8" standalone="no"?>
<!DOCTYPE svg PUBLIC "-//W3C//DTD SVG 1.1//EN"
 "http://www.w3.org/Graphics/SVG/1.1/DTD/svg11.dtd">
<!-- Generated by graphviz version 2.43.0 (0)
 -->
<!-- Title: winds_wrap.cpp Pages: 1 -->
<svg width="697pt" height="269pt"
 viewBox="0.00 0.00 697.00 269.00" xmlns="http://www.w3.org/2000/svg" xmlns:xlink="http://www.w3.org/1999/xlink">
<g id="graph0" class="graph" transform="scale(1 1) rotate(0) translate(4 265)">
<title>winds_wrap.cpp</title>
<!-- Node1 -->
<g id="node1" class="node">
<title>Node1</title>
<g id="a_node1"><a xlink:title=" ">
<polygon fill="#999999" stroke="#666666" points="577,-261 482,-261 482,-242 577,-242 577,-261"/>
<text text-anchor="middle" x="529.5" y="-249" font-family="Helvetica,sans-Serif" font-size="10.00">winds_wrap.cpp</text>
</a>
</g>
</g>
<!-- Node2 -->
<g id="node2" class="node">
<title>Node2</title>
<g id="a_node2"><a xlink:href="winds__wrap_8h.html" target="_top" xlink:title="Header defining the C wrapper interface to kinematic routines.">
<polygon fill="white" stroke="#666666" points="255.5,-206 127.5,-206 127.5,-176 255.5,-176 255.5,-206"/>
<text text-anchor="start" x="135.5" y="-194" font-family="Helvetica,sans-Serif" font-size="10.00">SHARPlib/CWrap/winds</text>
<text text-anchor="middle" x="191.5" y="-183" font-family="Helvetica,sans-Serif" font-size="10.00">_wrap.h</text>
</a>
</g>
</g>
<!-- Node1&#45;&gt;Node2 -->
<g id="edge1" class="edge">
<title>Node1&#45;&gt;Node2</title>
<path fill="none" stroke="#63b8ff" d="M481.79,-242.24C425.54,-232.51 331.39,-216.21 265.61,-204.83"/>
<polygon fill="#63b8ff" stroke="#63b8ff" points="266.17,-201.37 255.72,-203.11 264.97,-208.27 266.17,-201.37"/>
</g>
<!-- Node4 -->
<g id="node4" class="node">
<title>Node4</title>
<g id="a_node4"><a xlink:href="constants_8h.html" target="_top" xlink:title="Meteorological constants useful for computations with vertical atmospheric sounding profiles.">
<polygon fill="white" stroke="#666666" points="611,-19 490,-19 490,0 611,0 611,-19"/>
<text text-anchor="middle" x="550.5" y="-7" font-family="Helvetica,sans-Serif" font-size="10.00">SHARPlib/constants.h</text>
</a>
</g>
</g>
<!-- Node1&#45;&gt;Node4 -->
<g id="edge3" class="edge">
<title>Node1&#45;&gt;Node4</title>
<path fill="none" stroke="#63b8ff" d="M530.99,-241.72C535.25,-216.03 547.48,-138.72 551.5,-74 552.02,-65.57 551.59,-63.44 551.5,-55 551.4,-46.49 551.21,-37.07 551.01,-29.09"/>
<polygon fill="#63b8ff" stroke="#63b8ff" points="554.51,-28.94 550.75,-19.03 547.51,-29.12 554.51,-28.94"/>
</g>
<!-- Node5 -->
<g id="node5" class="node">
<title>Node5</title>
<g id="a_node5"><a xlink:href="winds_8h.html" target="_top" xlink:title="Routines used to compute kinematic attributes and indices of vertical sounding profiles.">
<polygon fill="white" stroke="#666666" points="503.5,-200.5 401.5,-200.5 401.5,-181.5 503.5,-181.5 503.5,-200.5"/>
<text text-anchor="middle" x="452.5" y="-188.5" font-family="Helvetica,sans-Serif" font-size="10.00">SHARPlib/winds.h</text>
</a>
</g>
</g>
<!-- Node1&#45;&gt;Node5 -->
<g id="edge4" class="edge">
<title>Node1&#45;&gt;Node5</title>
<path fill="none" stroke="#63b8ff" d="M518.14,-241.87C506.08,-232.71 486.8,-218.06 472.25,-207.01"/>
<polygon fill="#63b8ff" stroke="#63b8ff" points="473.99,-203.93 463.91,-200.67 469.75,-209.5 473.99,-203.93"/>
</g>
<!-- Node12 -->
<g id="node12" class="node">
<title>Node12</title>
<g id="a_node12"><a xlink:title=" ">
<polygon fill="#e0e0e0" stroke="#999999" points="689,-200.5 636,-200.5 636,-181.5 689,-181.5 689,-200.5"/>
<text text-anchor="middle" x="662.5" y="-188.5" font-family="Helvetica,sans-Serif" font-size="10.00">stdlib.h</text>
</a>
</g>
</g>
<!-- Node1&#45;&gt;Node12 -->
<g id="edge20" class="edge">
<title>Node1&#45;&gt;Node12</title>
<path fill="none" stroke="#63b8ff" d="M548.84,-241.99C571.2,-232.16 608.21,-215.88 633.9,-204.58"/>
<polygon fill="#63b8ff" stroke="#63b8ff" points="635.39,-207.75 643.14,-200.52 632.57,-201.34 635.39,-207.75"/>
</g>
<!-- Node3 -->
<g id="node3" class="node">
<title>Node3</title>
<g id="a_node3"><a xlink:href="layer__wrap_8h.html" target="_top" xlink:title="Header defining the C wrapper interface to layer based routines.">
<polygon fill="white" stroke="#666666" points="125,-140 0,-140 0,-110 125,-110 125,-140"/>
<text text-anchor="start" x="8" y="-128" font-family="Helvetica,sans-Serif" font-size="10.00">SHARPlib/CWrap/layer</text>
<text text-anchor="middle" x="62.5" y="-117" font-family="Helvetica,sans-Serif" font-size="10.00">_wrap.h</text>
</a>
</g>
</g>
<!-- Node2&#45;&gt;Node3 -->
<g id="edge2" class="edge">
<title>Node2&#45;&gt;Node3</title>
<path fill="none" stroke="#63b8ff" d="M163.19,-175.95C144.62,-166.74 120.14,-154.6 99.96,-144.59"/>
<polygon fill="#63b8ff" stroke="#63b8ff" points="101.26,-141.32 90.74,-140.01 98.15,-147.59 101.26,-141.32"/>
</g>
<!-- Node5&#45;&gt;Node4 -->
<g id="edge5" class="edge">
<title>Node5&#45;&gt;Node4</title>
<path fill="none" stroke="#63b8ff" d="M460.32,-181.39C476.58,-163.04 514.2,-118.14 534.5,-74 541.11,-59.62 545.27,-42.1 547.68,-29.11"/>
<polygon fill="#63b8ff" stroke="#63b8ff" points="551.16,-29.49 549.37,-19.05 544.26,-28.33 551.16,-29.49"/>
</g>
<!-- Node6 -->
<g id="node6" class="node">
<title>Node6</title>
<g id="a_node6"><a xlink:href="interp_8h.html" target="_top" xlink:title="Routines for linear interpolation of vertical atmospheric profiles.">
<polygon fill="white" stroke="#666666" points="503.5,-74 401.5,-74 401.5,-55 503.5,-55 503.5,-74"/>
<text text-anchor="middle" x="452.5" y="-62" font-family="Helvetica,sans-Serif" font-size="10.00">SHARPlib/interp.h</text>
</a>
</g>
</g>
<!-- Node5&#45;&gt;Node6 -->
<g id="edge6" class="edge">
<title>Node5&#45;&gt;Node6</title>
<path fill="none" stroke="#63b8ff" d="M452.5,-181.44C452.5,-161.54 452.5,-111.76 452.5,-84.35"/>
<polygon fill="#63b8ff" stroke="#63b8ff" points="456,-84.12 452.5,-74.12 449,-84.12 456,-84.12"/>
</g>
<!-- Node8 -->
<g id="node8" class="node">
<title>Node8</title>
<g id="a_node8"><a xlink:title=" ">
<polygon fill="#e0e0e0" stroke="#999999" points="315,-19 262,-19 262,0 315,0 315,-19"/>
<text text-anchor="middle" x="288.5" y="-7" font-family="Helvetica,sans-Serif" font-size="10.00">cstddef</text>
</a>
</g>
</g>
<!-- Node5&#45;&gt;Node8 -->
<g id="edge19" class="edge">
<title>Node5&#45;&gt;Node8</title>
<path fill="none" stroke="#63b8ff" d="M401.33,-185.84C335.07,-177.36 222.2,-151.67 172.5,-74 151.34,-40.93 210.21,-23.71 251.63,-15.91"/>
<polygon fill="#63b8ff" stroke="#63b8ff" points="252.49,-19.32 261.73,-14.13 251.27,-12.42 252.49,-19.32"/>
</g>
<!-- Node9 -->
<g id="node9" class="node">
<title>Node9</title>
<g id="a_node9"><a xlink:href="layer_8h.html" target="_top" xlink:title="Data structures and functions for performing operations over atmospheric layers.">
<polygon fill="white" stroke="#666666" points="422.5,-134.5 324.5,-134.5 324.5,-115.5 422.5,-115.5 422.5,-134.5"/>
<text text-anchor="middle" x="373.5" y="-122.5" font-family="Helvetica,sans-Serif" font-size="10.00">SHARPlib/layer.h</text>
</a>
</g>
</g>
<!-- Node5&#45;&gt;Node9 -->
<g id="edge10" class="edge">
<title>Node5&#45;&gt;Node9</title>
<path fill="none" stroke="#63b8ff" d="M441.85,-181.37C429.12,-171.06 407.62,-153.65 392.13,-141.09"/>
<polygon fill="#63b8ff" stroke="#63b8ff" points="394.21,-138.27 384.24,-134.7 389.8,-143.71 394.21,-138.27"/>
</g>
<!-- Node6&#45;&gt;Node4 -->
<g id="edge7" class="edge">
<title>Node6&#45;&gt;Node4</title>
<path fill="none" stroke="#63b8ff" d="M468.25,-54.98C483.73,-46.61 507.59,-33.7 525.64,-23.95"/>
<polygon fill="#63b8ff" stroke="#63b8ff" points="527.34,-27.01 534.47,-19.17 524.01,-20.85 527.34,-27.01"/>
</g>
<!-- Node7 -->
<g id="node7" class="node">
<title>Node7</title>
<g id="a_node7"><a xlink:title=" ">
<polygon fill="#e0e0e0" stroke="#999999" points="425,-19 378,-19 378,0 425,0 425,-19"/>
<text text-anchor="middle" x="401.5" y="-7" font-family="Helvetica,sans-Serif" font-size="10.00">cmath</text>
</a>
</g>
</g>
<!-- Node6&#45;&gt;Node7 -->
<g id="edge8" class="edge">
<title>Node6&#45;&gt;Node7</title>
<path fill="none" stroke="#63b8ff" d="M444.08,-54.75C436.73,-47.11 425.87,-35.82 416.96,-26.56"/>
<polygon fill="#63b8ff" stroke="#63b8ff" points="419.22,-23.87 409.76,-19.09 414.18,-28.72 419.22,-23.87"/>
</g>
<!-- Node6&#45;&gt;Node8 -->
<g id="edge9" class="edge">
<title>Node6&#45;&gt;Node8</title>
<path fill="none" stroke="#63b8ff" d="M426.15,-54.98C398.74,-46.13 355.61,-32.19 324.94,-22.28"/>
<polygon fill="#63b8ff" stroke="#63b8ff" points="325.65,-18.83 315.06,-19.08 323.5,-25.49 325.65,-18.83"/>
</g>
<!-- Node9&#45;&gt;Node4 -->
<g id="edge14" class="edge">
<title>Node9&#45;&gt;Node4</title>
<path fill="none" stroke="#63b8ff" d="M420.69,-115.47C449.67,-108.32 486.16,-95.67 512.5,-74 527.05,-62.03 537.4,-42.94 543.58,-28.82"/>
<polygon fill="#63b8ff" stroke="#63b8ff" points="546.98,-29.76 547.51,-19.18 540.49,-27.12 546.98,-29.76"/>
</g>
<!-- Node9&#45;&gt;Node6 -->
<g id="edge15" class="edge">
<title>Node9&#45;&gt;Node6</title>
<path fill="none" stroke="#63b8ff" d="M385.16,-115.37C397.64,-106.12 417.68,-91.28 432.66,-80.19"/>
<polygon fill="#63b8ff" stroke="#63b8ff" points="434.84,-82.93 440.8,-74.17 430.68,-77.31 434.84,-82.93"/>
</g>
<!-- Node9&#45;&gt;Node7 -->
<g id="edge16" class="edge">
<title>Node9&#45;&gt;Node7</title>
<path fill="none" stroke="#63b8ff" d="M375.6,-115.47C380.1,-97.23 390.75,-54.07 396.9,-29.14"/>
<polygon fill="#63b8ff" stroke="#63b8ff" points="400.37,-29.68 399.37,-19.13 393.58,-28 400.37,-29.68"/>
</g>
<!-- Node9&#45;&gt;Node8 -->
<g id="edge17" class="edge">
<title>Node9&#45;&gt;Node8</title>
<path fill="none" stroke="#63b8ff" d="M367.11,-115.47C353.08,-96.74 319.37,-51.72 300.98,-27.16"/>
<polygon fill="#63b8ff" stroke="#63b8ff" points="303.76,-25.04 294.96,-19.13 298.16,-29.23 303.76,-25.04"/>
</g>
<!-- Node10 -->
<g id="node10" class="node">
<title>Node10</title>
<g id="a_node10"><a xlink:href="algorithms_8h.html" target="_top" xlink:title="Various algorithms used for searching, sorting, accumulating etc.">
<polygon fill="white" stroke="#666666" points="307.5,-74 181.5,-74 181.5,-55 307.5,-55 307.5,-74"/>
<text text-anchor="middle" x="244.5" y="-62" font-family="Helvetica,sans-Serif" font-size="10.00">SHARPlib/algorithms.h</text>
</a>
</g>
</g>
<!-- Node9&#45;&gt;Node10 -->
<g id="edge11" class="edge">
<title>Node9&#45;&gt;Node10</title>
<path fill="none" stroke="#63b8ff" d="M354.74,-115.49C333.15,-105.7 297.47,-89.52 272.57,-78.23"/>
<polygon fill="#63b8ff" stroke="#63b8ff" points="273.83,-74.96 263.28,-74.02 270.94,-81.33 273.83,-74.96"/>
</g>
<!-- Node11 -->
<g id="node11" class="node">
<title>Node11</title>
<g id="a_node11"><a xlink:title=" ">
<polygon fill="#e0e0e0" stroke="#999999" points="218,-19 153,-19 153,0 218,0 218,-19"/>
<text text-anchor="middle" x="185.5" y="-7" font-family="Helvetica,sans-Serif" font-size="10.00">functional</text>
</a>
</g>
</g>
<!-- Node9&#45;&gt;Node11 -->
<g id="edge18" class="edge">
<title>Node9&#45;&gt;Node11</title>
<path fill="none" stroke="#63b8ff" d="M324.22,-118.65C270.89,-111.73 190.99,-97.66 172.5,-74 162.35,-61.02 168.07,-42.11 174.82,-28.3"/>
<polygon fill="#63b8ff" stroke="#63b8ff" points="178.01,-29.76 179.71,-19.31 171.86,-26.42 178.01,-29.76"/>
</g>
<!-- Node10&#45;&gt;Node8 -->
<g id="edge12" class="edge">
<title>Node10&#45;&gt;Node8</title>
<path fill="none" stroke="#63b8ff" d="M251.77,-54.75C258.04,-47.18 267.29,-36.05 274.93,-26.84"/>
<polygon fill="#63b8ff" stroke="#63b8ff" points="277.67,-29.02 281.37,-19.09 272.29,-24.55 277.67,-29.02"/>
</g>
<!-- Node10&#45;&gt;Node11 -->
<g id="edge13" class="edge">
<title>Node10&#45;&gt;Node11</title>
<path fill="none" stroke="#63b8ff" d="M235.02,-54.98C226.3,-47.15 213.16,-35.34 202.6,-25.86"/>
<polygon fill="#63b8ff" stroke="#63b8ff" points="204.93,-23.25 195.15,-19.17 200.25,-28.46 204.93,-23.25"/>
</g>
</g>
</svg>
