<?xml version="1.0" encoding="UTF-8" standalone="no"?>
<!DOCTYPE svg PUBLIC "-//W3C//DTD SVG 1.1//EN"
 "http://www.w3.org/Graphics/SVG/1.1/DTD/svg11.dtd">
<!-- Generated by graphviz version 2.43.0 (0)
 -->
<!-- Title: sharp_components_to_vector Pages: 1 -->
<svg width="467pt" height="64pt"
 viewBox="0.00 0.00 467.00 64.00" xmlns="http://www.w3.org/2000/svg" xmlns:xlink="http://www.w3.org/1999/xlink">
<g id="graph0" class="graph" transform="scale(1 1) rotate(0) translate(4 60)">
<title>sharp_components_to_vector</title>
<!-- Node1 -->
<g id="node1" class="node">
<title>Node1</title>
<g id="a_node1"><a xlink:title=" ">
<polygon fill="#999999" stroke="#666666" points="124,-42.5 0,-42.5 0,-12.5 124,-12.5 124,-42.5"/>
<text text-anchor="start" x="8" y="-30.5" font-family="Helvetica,sans-Serif" font-size="10.00">sharp_components_to</text>
<text text-anchor="middle" x="62" y="-19.5" font-family="Helvetica,sans-Serif" font-size="10.00">_vector</text>
</a>
</g>
</g>
<!-- Node2 -->
<g id="node2" class="node">
<title>Node2</title>
<g id="a_node2"><a xlink:href="namespacesharp.html#adc84f46d1ec5872b1777857983bdb4be" target="_top" xlink:title="Conveniance function to compute wind speed and direction from components.">
<polygon fill="white" stroke="#666666" points="285,-42.5 160,-42.5 160,-12.5 285,-12.5 285,-42.5"/>
<text text-anchor="start" x="168" y="-30.5" font-family="Helvetica,sans-Serif" font-size="10.00">sharp::components_to</text>
<text text-anchor="middle" x="222.5" y="-19.5" font-family="Helvetica,sans-Serif" font-size="10.00">_vector</text>
</a>
</g>
</g>
<!-- Node1&#45;&gt;Node2 -->
<g id="edge1" class="edge">
<title>Node1&#45;&gt;Node2</title>
<path fill="none" stroke="#63b8ff" d="M124.28,-27.5C132.58,-27.5 141.16,-27.5 149.62,-27.5"/>
<polygon fill="#63b8ff" stroke="#63b8ff" points="149.86,-31 159.86,-27.5 149.86,-24 149.86,-31"/>
</g>
<!-- Node3 -->
<g id="node3" class="node">
<title>Node3</title>
<g id="a_node3"><a xlink:href="namespacesharp.html#a24ba1a17b591165e527fa9bf6156eed2" target="_top" xlink:title="Computes the direction (degrees from North) a vector points to.">
<polygon fill="white" stroke="#666666" points="446.5,-56 333.5,-56 333.5,-37 446.5,-37 446.5,-56"/>
<text text-anchor="middle" x="390" y="-44" font-family="Helvetica,sans-Serif" font-size="10.00">sharp::vector_angle</text>
</a>
</g>
</g>
<!-- Node2&#45;&gt;Node3 -->
<g id="edge2" class="edge">
<title>Node2&#45;&gt;Node3</title>
<path fill="none" stroke="#63b8ff" d="M285.13,-34.57C297.6,-36.01 310.76,-37.52 323.36,-38.96"/>
<polygon fill="#63b8ff" stroke="#63b8ff" points="323,-42.45 333.33,-40.11 323.79,-35.49 323,-42.45"/>
</g>
<!-- Node4 -->
<g id="node4" class="node">
<title>Node4</title>
<g id="a_node4"><a xlink:href="namespacesharp.html#af887f27accb1a1d656a35abec65cab5f" target="_top" xlink:title="Computes the magnitude of a vector given its components.">
<polygon fill="white" stroke="#666666" points="459,-19 321,-19 321,0 459,0 459,-19"/>
<text text-anchor="middle" x="390" y="-7" font-family="Helvetica,sans-Serif" font-size="10.00">sharp::vector_magnitude</text>
</a>
</g>
</g>
<!-- Node2&#45;&gt;Node4 -->
<g id="edge3" class="edge">
<title>Node2&#45;&gt;Node4</title>
<path fill="none" stroke="#63b8ff" d="M285.13,-20.8C293.52,-19.89 302.21,-18.94 310.85,-18"/>
<polygon fill="#63b8ff" stroke="#63b8ff" points="311.36,-21.46 320.93,-16.9 310.61,-14.51 311.36,-21.46"/>
</g>
</g>
</svg>
