<?xml version="1.0" encoding="UTF-8" standalone="no"?>
<!DOCTYPE svg PUBLIC "-//W3C//DTD SVG 1.1//EN"
 "http://www.w3.org/Graphics/SVG/1.1/DTD/svg11.dtd">
<!-- Generated by graphviz version 2.43.0 (0)
 -->
<!-- Title: sharp_HeightLayer_helicity Pages: 1 -->
<svg width="707pt" height="101pt"
 viewBox="0.00 0.00 707.00 101.00" xmlns="http://www.w3.org/2000/svg" xmlns:xlink="http://www.w3.org/1999/xlink">
<g id="graph0" class="graph" transform="scale(1 1) rotate(0) translate(4 97)">
<title>sharp_HeightLayer_helicity</title>
<!-- Node1 -->
<g id="node1" class="node">
<title>Node1</title>
<g id="a_node1"><a xlink:title=" ">
<polygon fill="#999999" stroke="#666666" points="149,-56 0,-56 0,-37 149,-37 149,-56"/>
<text text-anchor="middle" x="74.5" y="-44" font-family="Helvetica,sans-Serif" font-size="10.00">sharp_HeightLayer_helicity</text>
</a>
</g>
</g>
<!-- Node2 -->
<g id="node2" class="node">
<title>Node2</title>
<g id="a_node2"><a xlink:href="namespacesharp.html#a80858337a63be77bafadbb343d6e4931" target="_top" xlink:title="Computes the Storm Relative Helicity (SRH) over a given layer.">
<polygon fill="white" stroke="#666666" points="271,-56 185,-56 185,-37 271,-37 271,-56"/>
<text text-anchor="middle" x="228" y="-44" font-family="Helvetica,sans-Serif" font-size="10.00">sharp::helicity</text>
</a>
</g>
</g>
<!-- Node1&#45;&gt;Node2 -->
<g id="edge1" class="edge">
<title>Node1&#45;&gt;Node2</title>
<path fill="none" stroke="#63b8ff" d="M149.03,-46.5C157.62,-46.5 166.24,-46.5 174.47,-46.5"/>
<polygon fill="#63b8ff" stroke="#63b8ff" points="174.63,-50 184.63,-46.5 174.63,-43 174.63,-50"/>
</g>
<!-- Node3 -->
<g id="node3" class="node">
<title>Node3</title>
<g id="a_node3"><a xlink:href="namespacesharp.html#ac93f477dfa774c966b5da7521bd43ee6" target="_top" xlink:title="Returns the array indices corresponding to the given layer.">
<polygon fill="white" stroke="#666666" points="435,-93 307,-93 307,-74 435,-74 435,-93"/>
<text text-anchor="middle" x="371" y="-81" font-family="Helvetica,sans-Serif" font-size="10.00">sharp::get_layer_index</text>
</a>
</g>
</g>
<!-- Node2&#45;&gt;Node3 -->
<g id="edge2" class="edge">
<title>Node2&#45;&gt;Node3</title>
<path fill="none" stroke="#63b8ff" d="M265.31,-56.03C283.02,-60.67 304.52,-66.32 323.42,-71.28"/>
<polygon fill="#63b8ff" stroke="#63b8ff" points="322.76,-74.72 333.32,-73.88 324.54,-67.95 322.76,-74.72"/>
</g>
<!-- Node6 -->
<g id="node6" class="node">
<title>Node6</title>
<g id="a_node6"><a xlink:href="namespacesharp.html#ae8240f026498ad2775633a8d0dcf100d" target="_top" xlink:title="Linearly interpolate a data field to a requested height level.">
<polygon fill="white" stroke="#666666" points="428,-19 314,-19 314,0 428,0 428,-19"/>
<text text-anchor="middle" x="371" y="-7" font-family="Helvetica,sans-Serif" font-size="10.00">sharp::interp_height</text>
</a>
</g>
</g>
<!-- Node2&#45;&gt;Node6 -->
<g id="edge5" class="edge">
<title>Node2&#45;&gt;Node6</title>
<path fill="none" stroke="#63b8ff" d="M265.31,-36.97C283.02,-32.33 304.52,-26.68 323.42,-21.72"/>
<polygon fill="#63b8ff" stroke="#63b8ff" points="324.54,-25.05 333.32,-19.12 322.76,-18.28 324.54,-25.05"/>
</g>
<!-- Node9 -->
<g id="node9" class="node">
<title>Node9</title>
<g id="a_node9"><a xlink:href="namespacesharp.html#a55e4f8ee4ff8a4a30d7b3f3d92a41c75" target="_top" xlink:title="Linearly interpolate a data field to a requested pressure level.">
<polygon fill="white" stroke="#666666" points="433.5,-56 308.5,-56 308.5,-37 433.5,-37 433.5,-56"/>
<text text-anchor="middle" x="371" y="-44" font-family="Helvetica,sans-Serif" font-size="10.00">sharp::interp_pressure</text>
</a>
</g>
</g>
<!-- Node2&#45;&gt;Node9 -->
<g id="edge9" class="edge">
<title>Node2&#45;&gt;Node9</title>
<path fill="none" stroke="#63b8ff" d="M271.3,-46.5C279.88,-46.5 289.13,-46.5 298.4,-46.5"/>
<polygon fill="#63b8ff" stroke="#63b8ff" points="298.44,-50 308.44,-46.5 298.44,-43 298.44,-50"/>
</g>
<!-- Node4 -->
<g id="node4" class="node">
<title>Node4</title>
<g id="a_node4"><a xlink:href="namespacesharp.html#a1edcf8bff9a13429bcbff7c1129024b3" target="_top" xlink:title="Finds the index of the lower bound that does not satisfy element &lt; value.">
<polygon fill="white" stroke="#666666" points="583.5,-93 471.5,-93 471.5,-74 583.5,-74 583.5,-93"/>
<text text-anchor="middle" x="527.5" y="-81" font-family="Helvetica,sans-Serif" font-size="10.00">sharp::lower_bound</text>
</a>
</g>
</g>
<!-- Node3&#45;&gt;Node4 -->
<g id="edge3" class="edge">
<title>Node3&#45;&gt;Node4</title>
<path fill="none" stroke="#63b8ff" d="M435.29,-83.5C443.91,-83.5 452.78,-83.5 461.43,-83.5"/>
<polygon fill="#63b8ff" stroke="#63b8ff" points="461.47,-87 471.47,-83.5 461.47,-80 461.47,-87"/>
</g>
<!-- Node5 -->
<g id="node5" class="node">
<title>Node5</title>
<g id="a_node5"><a xlink:href="namespacesharp.html#a772686549a5111c1152b778731119aa6" target="_top" xlink:title="Finds the first index that satisfies value &lt; element.">
<polygon fill="white" stroke="#666666" points="584,-56 471,-56 471,-37 584,-37 584,-56"/>
<text text-anchor="middle" x="527.5" y="-44" font-family="Helvetica,sans-Serif" font-size="10.00">sharp::upper_bound</text>
</a>
</g>
</g>
<!-- Node3&#45;&gt;Node5 -->
<g id="edge4" class="edge">
<title>Node3&#45;&gt;Node5</title>
<path fill="none" stroke="#63b8ff" d="M411.79,-73.97C431.62,-69.22 455.81,-63.43 476.85,-58.39"/>
<polygon fill="#63b8ff" stroke="#63b8ff" points="477.67,-61.79 486.58,-56.06 476.04,-54.99 477.67,-61.79"/>
</g>
<!-- Node6&#45;&gt;Node5 -->
<g id="edge8" class="edge">
<title>Node6&#45;&gt;Node5</title>
<path fill="none" stroke="#63b8ff" d="M411.79,-19.03C431.62,-23.78 455.81,-29.57 476.85,-34.61"/>
<polygon fill="#63b8ff" stroke="#63b8ff" points="476.04,-38.01 486.58,-36.94 477.67,-31.21 476.04,-38.01"/>
</g>
<!-- Node7 -->
<g id="node7" class="node">
<title>Node7</title>
<g id="a_node7"><a xlink:href="namespacesharp.html#a0bf533560780fdb77bc3656db8d89208" target="_top" xlink:title="Linearly interpolates between a and b with distance t.">
<polygon fill="white" stroke="#666666" points="561.5,-19 493.5,-19 493.5,0 561.5,0 561.5,-19"/>
<text text-anchor="middle" x="527.5" y="-7" font-family="Helvetica,sans-Serif" font-size="10.00">sharp::lerp</text>
</a>
</g>
</g>
<!-- Node6&#45;&gt;Node7 -->
<g id="edge6" class="edge">
<title>Node6&#45;&gt;Node7</title>
<path fill="none" stroke="#63b8ff" d="M428.22,-9.5C446.36,-9.5 466.19,-9.5 483.25,-9.5"/>
<polygon fill="#63b8ff" stroke="#63b8ff" points="483.48,-13 493.48,-9.5 483.48,-6 483.48,-13"/>
</g>
<!-- Node8 -->
<g id="node8" class="node">
<title>Node8</title>
<g id="a_node8"><a xlink:href="namespacesharp.html#ac4464059524ff56c7974141bb4cc7375" target="_top" xlink:title="Linearly interpolates between a and b with distance t.">
<polygon fill="white" stroke="#666666" points="699,-19 620,-19 620,0 699,0 699,-19"/>
<text text-anchor="middle" x="659.5" y="-7" font-family="Helvetica,sans-Serif" font-size="10.00">sharp::__lerp</text>
</a>
</g>
</g>
<!-- Node7&#45;&gt;Node8 -->
<g id="edge7" class="edge">
<title>Node7&#45;&gt;Node8</title>
<path fill="none" stroke="#63b8ff" d="M561.64,-9.5C576.2,-9.5 593.6,-9.5 609.61,-9.5"/>
<polygon fill="#63b8ff" stroke="#63b8ff" points="609.88,-13 619.88,-9.5 609.88,-6 609.88,-13"/>
</g>
<!-- Node9&#45;&gt;Node5 -->
<g id="edge11" class="edge">
<title>Node9&#45;&gt;Node5</title>
<path fill="none" stroke="#63b8ff" d="M433.51,-46.5C442.43,-46.5 451.65,-46.5 460.66,-46.5"/>
<polygon fill="#63b8ff" stroke="#63b8ff" points="460.71,-50 470.71,-46.5 460.71,-43 460.71,-50"/>
</g>
<!-- Node9&#45;&gt;Node7 -->
<g id="edge10" class="edge">
<title>Node9&#45;&gt;Node7</title>
<path fill="none" stroke="#63b8ff" d="M411.79,-36.97C433.73,-31.72 460.99,-25.19 483.43,-19.81"/>
<polygon fill="#63b8ff" stroke="#63b8ff" points="484.46,-23.17 493.37,-17.43 482.83,-16.36 484.46,-23.17"/>
</g>
</g>
</svg>
