<?xml version="1.0" encoding="UTF-8" standalone="no"?>
<!DOCTYPE svg PUBLIC "-//W3C//DTD SVG 1.1//EN"
 "http://www.w3.org/Graphics/SVG/1.1/DTD/svg11.dtd">
<!-- Generated by graphviz version 2.43.0 (0)
 -->
<!-- Title: winds.h Pages: 1 -->
<svg width="210pt" height="137pt"
 viewBox="0.00 0.00 209.50 137.00" xmlns="http://www.w3.org/2000/svg" xmlns:xlink="http://www.w3.org/1999/xlink">
<g id="graph0" class="graph" transform="scale(1 1) rotate(0) translate(4 133)">
<title>winds.h</title>
<!-- Node1 -->
<g id="node1" class="node">
<title>Node1</title>
<g id="a_node1"><a xlink:title="Routines used to compute kinematic attributes and indices of vertical sounding profiles.">
<polygon fill="#999999" stroke="#666666" points="106,-129 52,-129 52,-110 106,-110 106,-129"/>
<text text-anchor="middle" x="79" y="-117" font-family="Helvetica,sans-Serif" font-size="10.00">winds.h</text>
</a>
</g>
</g>
<!-- Node2 -->
<g id="node2" class="node">
<title>Node2</title>
<g id="a_node2"><a xlink:href="convective_8cpp.html" target="_top" xlink:title="Routines used to computed derived sounding parameters from vertical atmospheric profiles.">
<polygon fill="white" stroke="#666666" points="90,-19 0,-19 0,0 90,0 90,-19"/>
<text text-anchor="middle" x="45" y="-7" font-family="Helvetica,sans-Serif" font-size="10.00">convective.cpp</text>
</a>
</g>
</g>
<!-- Node1&#45;&gt;Node2 -->
<g id="edge1" class="edge">
<title>Node1&#45;&gt;Node2</title>
<path fill="none" stroke="#63b8ff" d="M56.37,-103.97C46.63,-96.35 36.27,-86.08 31,-74 22.87,-55.38 33.09,-31.55 39.88,-19.04"/>
<polygon fill="#63b8ff" stroke="#63b8ff" points="54.48,-106.93 64.63,-109.96 58.59,-101.26 54.48,-106.93"/>
</g>
<!-- Node3 -->
<g id="node3" class="node">
<title>Node3</title>
<g id="a_node3"><a xlink:href="convective_8h.html" target="_top" xlink:title="Routines used to computed derived sounding parameters from vertical atmospheric profiles.">
<polygon fill="white" stroke="#666666" points="118.5,-74 39.5,-74 39.5,-55 118.5,-55 118.5,-74"/>
<text text-anchor="middle" x="79" y="-62" font-family="Helvetica,sans-Serif" font-size="10.00">convective.h</text>
</a>
</g>
</g>
<!-- Node1&#45;&gt;Node3 -->
<g id="edge2" class="edge">
<title>Node1&#45;&gt;Node3</title>
<path fill="none" stroke="#63b8ff" d="M79,-99.66C79,-90.93 79,-80.99 79,-74.09"/>
<polygon fill="#63b8ff" stroke="#63b8ff" points="75.5,-99.75 79,-109.75 82.5,-99.75 75.5,-99.75"/>
</g>
<!-- Node4 -->
<g id="node4" class="node">
<title>Node4</title>
<g id="a_node4"><a xlink:href="winds_8cpp.html" target="_top" xlink:title="Routines used to compute kinematic attributes and indices of vertical sounding profiles.">
<polygon fill="white" stroke="#666666" points="201.5,-74 136.5,-74 136.5,-55 201.5,-55 201.5,-74"/>
<text text-anchor="middle" x="169" y="-62" font-family="Helvetica,sans-Serif" font-size="10.00">winds.cpp</text>
</a>
</g>
</g>
<!-- Node1&#45;&gt;Node4 -->
<g id="edge4" class="edge">
<title>Node1&#45;&gt;Node4</title>
<path fill="none" stroke="#63b8ff" d="M102.44,-104.7C118.84,-95.04 140.23,-82.44 154.28,-74.17"/>
<polygon fill="#63b8ff" stroke="#63b8ff" points="100.3,-101.89 93.46,-109.98 103.85,-107.93 100.3,-101.89"/>
</g>
<!-- Node3&#45;&gt;Node2 -->
<g id="edge3" class="edge">
<title>Node3&#45;&gt;Node2</title>
<path fill="none" stroke="#63b8ff" d="M67.84,-46.1C62.03,-37.04 55.18,-26.37 50.51,-19.09"/>
<polygon fill="#63b8ff" stroke="#63b8ff" points="65.04,-48.22 73.39,-54.75 70.93,-44.44 65.04,-48.22"/>
</g>
</g>
</svg>
