<?xml version="1.0" encoding="UTF-8" standalone="no"?>
<!DOCTYPE svg PUBLIC "-//W3C//DTD SVG 1.1//EN"
 "http://www.w3.org/Graphics/SVG/1.1/DTD/svg11.dtd">
<!-- Generated by graphviz version 2.43.0 (0)
 -->
<!-- Title: sharp_PressureLayer_helicity Pages: 1 -->
<svg width="676pt" height="101pt"
 viewBox="0.00 0.00 676.00 101.00" xmlns="http://www.w3.org/2000/svg" xmlns:xlink="http://www.w3.org/1999/xlink">
<g id="graph0" class="graph" transform="scale(1 1) rotate(0) translate(4 97)">
<title>sharp_PressureLayer_helicity</title>
<!-- Node1 -->
<g id="node1" class="node">
<title>Node1</title>
<g id="a_node1"><a xlink:title=" ">
<polygon fill="#999999" stroke="#666666" points="118,-61.5 0,-61.5 0,-31.5 118,-31.5 118,-61.5"/>
<text text-anchor="start" x="8" y="-49.5" font-family="Helvetica,sans-Serif" font-size="10.00">sharp_PressureLayer</text>
<text text-anchor="middle" x="59" y="-38.5" font-family="Helvetica,sans-Serif" font-size="10.00">_helicity</text>
</a>
</g>
</g>
<!-- Node2 -->
<g id="node2" class="node">
<title>Node2</title>
<g id="a_node2"><a xlink:href="namespacesharp.html#a80858337a63be77bafadbb343d6e4931" target="_top" xlink:title="Computes the Storm Relative Helicity (SRH) over a given layer.">
<polygon fill="white" stroke="#666666" points="240,-56 154,-56 154,-37 240,-37 240,-56"/>
<text text-anchor="middle" x="197" y="-44" font-family="Helvetica,sans-Serif" font-size="10.00">sharp::helicity</text>
</a>
</g>
</g>
<!-- Node1&#45;&gt;Node2 -->
<g id="edge1" class="edge">
<title>Node1&#45;&gt;Node2</title>
<path fill="none" stroke="#63b8ff" d="M118.07,-46.5C126.59,-46.5 135.32,-46.5 143.72,-46.5"/>
<polygon fill="#63b8ff" stroke="#63b8ff" points="143.75,-50 153.75,-46.5 143.75,-43 143.75,-50"/>
</g>
<!-- Node3 -->
<g id="node3" class="node">
<title>Node3</title>
<g id="a_node3"><a xlink:href="namespacesharp.html#ac93f477dfa774c966b5da7521bd43ee6" target="_top" xlink:title="Returns the array indices corresponding to the given layer.">
<polygon fill="white" stroke="#666666" points="404,-93 276,-93 276,-74 404,-74 404,-93"/>
<text text-anchor="middle" x="340" y="-81" font-family="Helvetica,sans-Serif" font-size="10.00">sharp::get_layer_index</text>
</a>
</g>
</g>
<!-- Node2&#45;&gt;Node3 -->
<g id="edge2" class="edge">
<title>Node2&#45;&gt;Node3</title>
<path fill="none" stroke="#63b8ff" d="M234.31,-56.03C252.02,-60.67 273.52,-66.32 292.42,-71.28"/>
<polygon fill="#63b8ff" stroke="#63b8ff" points="291.76,-74.72 302.32,-73.88 293.54,-67.95 291.76,-74.72"/>
</g>
<!-- Node6 -->
<g id="node6" class="node">
<title>Node6</title>
<g id="a_node6"><a xlink:href="namespacesharp.html#ae8240f026498ad2775633a8d0dcf100d" target="_top" xlink:title="Linearly interpolate a data field to a requested height level.">
<polygon fill="white" stroke="#666666" points="397,-19 283,-19 283,0 397,0 397,-19"/>
<text text-anchor="middle" x="340" y="-7" font-family="Helvetica,sans-Serif" font-size="10.00">sharp::interp_height</text>
</a>
</g>
</g>
<!-- Node2&#45;&gt;Node6 -->
<g id="edge5" class="edge">
<title>Node2&#45;&gt;Node6</title>
<path fill="none" stroke="#63b8ff" d="M234.31,-36.97C252.02,-32.33 273.52,-26.68 292.42,-21.72"/>
<polygon fill="#63b8ff" stroke="#63b8ff" points="293.54,-25.05 302.32,-19.12 291.76,-18.28 293.54,-25.05"/>
</g>
<!-- Node9 -->
<g id="node9" class="node">
<title>Node9</title>
<g id="a_node9"><a xlink:href="namespacesharp.html#a55e4f8ee4ff8a4a30d7b3f3d92a41c75" target="_top" xlink:title="Linearly interpolate a data field to a requested pressure level.">
<polygon fill="white" stroke="#666666" points="402.5,-56 277.5,-56 277.5,-37 402.5,-37 402.5,-56"/>
<text text-anchor="middle" x="340" y="-44" font-family="Helvetica,sans-Serif" font-size="10.00">sharp::interp_pressure</text>
</a>
</g>
</g>
<!-- Node2&#45;&gt;Node9 -->
<g id="edge9" class="edge">
<title>Node2&#45;&gt;Node9</title>
<path fill="none" stroke="#63b8ff" d="M240.3,-46.5C248.88,-46.5 258.13,-46.5 267.4,-46.5"/>
<polygon fill="#63b8ff" stroke="#63b8ff" points="267.44,-50 277.44,-46.5 267.44,-43 267.44,-50"/>
</g>
<!-- Node4 -->
<g id="node4" class="node">
<title>Node4</title>
<g id="a_node4"><a xlink:href="namespacesharp.html#a1edcf8bff9a13429bcbff7c1129024b3" target="_top" xlink:title="Finds the index of the lower bound that does not satisfy element &lt; value.">
<polygon fill="white" stroke="#666666" points="552.5,-93 440.5,-93 440.5,-74 552.5,-74 552.5,-93"/>
<text text-anchor="middle" x="496.5" y="-81" font-family="Helvetica,sans-Serif" font-size="10.00">sharp::lower_bound</text>
</a>
</g>
</g>
<!-- Node3&#45;&gt;Node4 -->
<g id="edge3" class="edge">
<title>Node3&#45;&gt;Node4</title>
<path fill="none" stroke="#63b8ff" d="M404.29,-83.5C412.91,-83.5 421.78,-83.5 430.43,-83.5"/>
<polygon fill="#63b8ff" stroke="#63b8ff" points="430.47,-87 440.47,-83.5 430.47,-80 430.47,-87"/>
</g>
<!-- Node5 -->
<g id="node5" class="node">
<title>Node5</title>
<g id="a_node5"><a xlink:href="namespacesharp.html#a772686549a5111c1152b778731119aa6" target="_top" xlink:title="Finds the first index that satisfies value &lt; element.">
<polygon fill="white" stroke="#666666" points="553,-56 440,-56 440,-37 553,-37 553,-56"/>
<text text-anchor="middle" x="496.5" y="-44" font-family="Helvetica,sans-Serif" font-size="10.00">sharp::upper_bound</text>
</a>
</g>
</g>
<!-- Node3&#45;&gt;Node5 -->
<g id="edge4" class="edge">
<title>Node3&#45;&gt;Node5</title>
<path fill="none" stroke="#63b8ff" d="M380.79,-73.97C400.62,-69.22 424.81,-63.43 445.85,-58.39"/>
<polygon fill="#63b8ff" stroke="#63b8ff" points="446.67,-61.79 455.58,-56.06 445.04,-54.99 446.67,-61.79"/>
</g>
<!-- Node6&#45;&gt;Node5 -->
<g id="edge8" class="edge">
<title>Node6&#45;&gt;Node5</title>
<path fill="none" stroke="#63b8ff" d="M380.79,-19.03C400.62,-23.78 424.81,-29.57 445.85,-34.61"/>
<polygon fill="#63b8ff" stroke="#63b8ff" points="445.04,-38.01 455.58,-36.94 446.67,-31.21 445.04,-38.01"/>
</g>
<!-- Node7 -->
<g id="node7" class="node">
<title>Node7</title>
<g id="a_node7"><a xlink:href="namespacesharp.html#a0bf533560780fdb77bc3656db8d89208" target="_top" xlink:title="Linearly interpolates between a and b with distance t.">
<polygon fill="white" stroke="#666666" points="530.5,-19 462.5,-19 462.5,0 530.5,0 530.5,-19"/>
<text text-anchor="middle" x="496.5" y="-7" font-family="Helvetica,sans-Serif" font-size="10.00">sharp::lerp</text>
</a>
</g>
</g>
<!-- Node6&#45;&gt;Node7 -->
<g id="edge6" class="edge">
<title>Node6&#45;&gt;Node7</title>
<path fill="none" stroke="#63b8ff" d="M397.22,-9.5C415.36,-9.5 435.19,-9.5 452.25,-9.5"/>
<polygon fill="#63b8ff" stroke="#63b8ff" points="452.48,-13 462.48,-9.5 452.48,-6 452.48,-13"/>
</g>
<!-- Node8 -->
<g id="node8" class="node">
<title>Node8</title>
<g id="a_node8"><a xlink:href="namespacesharp.html#ac4464059524ff56c7974141bb4cc7375" target="_top" xlink:title="Linearly interpolates between a and b with distance t.">
<polygon fill="white" stroke="#666666" points="668,-19 589,-19 589,0 668,0 668,-19"/>
<text text-anchor="middle" x="628.5" y="-7" font-family="Helvetica,sans-Serif" font-size="10.00">sharp::__lerp</text>
</a>
</g>
</g>
<!-- Node7&#45;&gt;Node8 -->
<g id="edge7" class="edge">
<title>Node7&#45;&gt;Node8</title>
<path fill="none" stroke="#63b8ff" d="M530.64,-9.5C545.2,-9.5 562.6,-9.5 578.61,-9.5"/>
<polygon fill="#63b8ff" stroke="#63b8ff" points="578.88,-13 588.88,-9.5 578.88,-6 578.88,-13"/>
</g>
<!-- Node9&#45;&gt;Node5 -->
<g id="edge11" class="edge">
<title>Node9&#45;&gt;Node5</title>
<path fill="none" stroke="#63b8ff" d="M402.51,-46.5C411.43,-46.5 420.65,-46.5 429.66,-46.5"/>
<polygon fill="#63b8ff" stroke="#63b8ff" points="429.71,-50 439.71,-46.5 429.71,-43 429.71,-50"/>
</g>
<!-- Node9&#45;&gt;Node7 -->
<g id="edge10" class="edge">
<title>Node9&#45;&gt;Node7</title>
<path fill="none" stroke="#63b8ff" d="M380.79,-36.97C402.73,-31.72 429.99,-25.19 452.43,-19.81"/>
<polygon fill="#63b8ff" stroke="#63b8ff" points="453.46,-23.17 462.37,-17.43 451.83,-16.36 453.46,-23.17"/>
</g>
</g>
</svg>
