<?xml version="1.0" encoding="UTF-8" standalone="no"?>
<!DOCTYPE svg PUBLIC "-//W3C//DTD SVG 1.1//EN"
 "http://www.w3.org/Graphics/SVG/1.1/DTD/svg11.dtd">
<!-- Generated by graphviz version 2.43.0 (0)
 -->
<!-- Title: sharp_PressureLayer_wind_shear Pages: 1 -->
<svg width="692pt" height="64pt"
 viewBox="0.00 0.00 692.00 64.00" xmlns="http://www.w3.org/2000/svg" xmlns:xlink="http://www.w3.org/1999/xlink">
<g id="graph0" class="graph" transform="scale(1 1) rotate(0) translate(4 60)">
<title>sharp_PressureLayer_wind_shear</title>
<!-- Node1 -->
<g id="node1" class="node">
<title>Node1</title>
<g id="a_node1"><a xlink:title=" ">
<polygon fill="#999999" stroke="#666666" points="118,-42.5 0,-42.5 0,-12.5 118,-12.5 118,-42.5"/>
<text text-anchor="start" x="8" y="-30.5" font-family="Helvetica,sans-Serif" font-size="10.00">sharp_PressureLayer</text>
<text text-anchor="middle" x="59" y="-19.5" font-family="Helvetica,sans-Serif" font-size="10.00">_wind_shear</text>
</a>
</g>
</g>
<!-- Node2 -->
<g id="node2" class="node">
<title>Node2</title>
<g id="a_node2"><a xlink:href="namespacesharp.html#a099a4575acc27d6e10f9dfb69bc315a1" target="_top" xlink:title="Compue the wind shear for a given layer.">
<polygon fill="white" stroke="#666666" points="259,-37 154,-37 154,-18 259,-18 259,-37"/>
<text text-anchor="middle" x="206.5" y="-25" font-family="Helvetica,sans-Serif" font-size="10.00">sharp::wind_shear</text>
</a>
</g>
</g>
<!-- Node1&#45;&gt;Node2 -->
<g id="edge1" class="edge">
<title>Node1&#45;&gt;Node2</title>
<path fill="none" stroke="#63b8ff" d="M118.34,-27.5C126.66,-27.5 135.24,-27.5 143.62,-27.5"/>
<polygon fill="#63b8ff" stroke="#63b8ff" points="143.72,-31 153.72,-27.5 143.72,-24 143.72,-31"/>
</g>
<!-- Node3 -->
<g id="node3" class="node">
<title>Node3</title>
<g id="a_node3"><a xlink:href="namespacesharp.html#ae8240f026498ad2775633a8d0dcf100d" target="_top" xlink:title="Linearly interpolate a data field to a requested height level.">
<polygon fill="white" stroke="#666666" points="414.5,-56 300.5,-56 300.5,-37 414.5,-37 414.5,-56"/>
<text text-anchor="middle" x="357.5" y="-44" font-family="Helvetica,sans-Serif" font-size="10.00">sharp::interp_height</text>
</a>
</g>
</g>
<!-- Node2&#45;&gt;Node3 -->
<g id="edge2" class="edge">
<title>Node2&#45;&gt;Node3</title>
<path fill="none" stroke="#63b8ff" d="M259.19,-34.09C269.26,-35.38 279.94,-36.74 290.39,-38.07"/>
<polygon fill="#63b8ff" stroke="#63b8ff" points="289.96,-41.54 300.32,-39.34 290.84,-34.6 289.96,-41.54"/>
</g>
<!-- Node7 -->
<g id="node7" class="node">
<title>Node7</title>
<g id="a_node7"><a xlink:href="namespacesharp.html#a55e4f8ee4ff8a4a30d7b3f3d92a41c75" target="_top" xlink:title="Linearly interpolate a data field to a requested pressure level.">
<polygon fill="white" stroke="#666666" points="420,-19 295,-19 295,0 420,0 420,-19"/>
<text text-anchor="middle" x="357.5" y="-7" font-family="Helvetica,sans-Serif" font-size="10.00">sharp::interp_pressure</text>
</a>
</g>
</g>
<!-- Node2&#45;&gt;Node7 -->
<g id="edge6" class="edge">
<title>Node2&#45;&gt;Node7</title>
<path fill="none" stroke="#63b8ff" d="M259.19,-21.25C267.47,-20.26 276.16,-19.21 284.81,-18.16"/>
<polygon fill="#63b8ff" stroke="#63b8ff" points="285.39,-21.62 294.9,-16.94 284.55,-14.67 285.39,-21.62"/>
</g>
<!-- Node4 -->
<g id="node4" class="node">
<title>Node4</title>
<g id="a_node4"><a xlink:href="namespacesharp.html#a0bf533560780fdb77bc3656db8d89208" target="_top" xlink:title="Linearly interpolates between a and b with distance t.">
<polygon fill="white" stroke="#666666" points="546.5,-56 478.5,-56 478.5,-37 546.5,-37 546.5,-56"/>
<text text-anchor="middle" x="512.5" y="-44" font-family="Helvetica,sans-Serif" font-size="10.00">sharp::lerp</text>
</a>
</g>
</g>
<!-- Node3&#45;&gt;Node4 -->
<g id="edge3" class="edge">
<title>Node3&#45;&gt;Node4</title>
<path fill="none" stroke="#63b8ff" d="M414.6,-46.5C432.09,-46.5 451.12,-46.5 467.64,-46.5"/>
<polygon fill="#63b8ff" stroke="#63b8ff" points="468.1,-50 478.1,-46.5 468.1,-43 468.1,-50"/>
</g>
<!-- Node6 -->
<g id="node6" class="node">
<title>Node6</title>
<g id="a_node6"><a xlink:href="namespacesharp.html#a772686549a5111c1152b778731119aa6" target="_top" xlink:title="Finds the first index that satisfies value &lt; element.">
<polygon fill="white" stroke="#666666" points="569,-19 456,-19 456,0 569,0 569,-19"/>
<text text-anchor="middle" x="512.5" y="-7" font-family="Helvetica,sans-Serif" font-size="10.00">sharp::upper_bound</text>
</a>
</g>
</g>
<!-- Node3&#45;&gt;Node6 -->
<g id="edge5" class="edge">
<title>Node3&#45;&gt;Node6</title>
<path fill="none" stroke="#63b8ff" d="M397.9,-36.97C417.46,-32.24 441.28,-26.48 462.05,-21.46"/>
<polygon fill="#63b8ff" stroke="#63b8ff" points="463.07,-24.81 471.97,-19.06 461.42,-18.01 463.07,-24.81"/>
</g>
<!-- Node5 -->
<g id="node5" class="node">
<title>Node5</title>
<g id="a_node5"><a xlink:href="namespacesharp.html#ac4464059524ff56c7974141bb4cc7375" target="_top" xlink:title="Linearly interpolates between a and b with distance t.">
<polygon fill="white" stroke="#666666" points="684,-56 605,-56 605,-37 684,-37 684,-56"/>
<text text-anchor="middle" x="644.5" y="-44" font-family="Helvetica,sans-Serif" font-size="10.00">sharp::__lerp</text>
</a>
</g>
</g>
<!-- Node4&#45;&gt;Node5 -->
<g id="edge4" class="edge">
<title>Node4&#45;&gt;Node5</title>
<path fill="none" stroke="#63b8ff" d="M546.64,-46.5C561.2,-46.5 578.6,-46.5 594.61,-46.5"/>
<polygon fill="#63b8ff" stroke="#63b8ff" points="594.88,-50 604.88,-46.5 594.88,-43 594.88,-50"/>
</g>
<!-- Node7&#45;&gt;Node4 -->
<g id="edge7" class="edge">
<title>Node7&#45;&gt;Node4</title>
<path fill="none" stroke="#63b8ff" d="M397.9,-19.03C419.55,-24.26 446.44,-30.77 468.62,-36.13"/>
<polygon fill="#63b8ff" stroke="#63b8ff" points="467.9,-39.56 478.44,-38.51 469.54,-32.75 467.9,-39.56"/>
</g>
<!-- Node7&#45;&gt;Node6 -->
<g id="edge8" class="edge">
<title>Node7&#45;&gt;Node6</title>
<path fill="none" stroke="#63b8ff" d="M420.29,-9.5C428.66,-9.5 437.28,-9.5 445.72,-9.5"/>
<polygon fill="#63b8ff" stroke="#63b8ff" points="445.9,-13 455.9,-9.5 445.9,-6 445.9,-13"/>
</g>
</g>
</svg>
