<?xml version="1.0" encoding="UTF-8" standalone="no"?>
<!DOCTYPE svg PUBLIC "-//W3C//DTD SVG 1.1//EN"
 "http://www.w3.org/Graphics/SVG/1.1/DTD/svg11.dtd">
<!-- Generated by graphviz version 2.43.0 (0)
 -->
<!-- Title: sharp_HeightLayer_wind_shear Pages: 1 -->
<svg width="711pt" height="64pt"
 viewBox="0.00 0.00 711.00 64.00" xmlns="http://www.w3.org/2000/svg" xmlns:xlink="http://www.w3.org/1999/xlink">
<g id="graph0" class="graph" transform="scale(1 1) rotate(0) translate(4 60)">
<title>sharp_HeightLayer_wind_shear</title>
<!-- Node1 -->
<g id="node1" class="node">
<title>Node1</title>
<g id="a_node1"><a xlink:title=" ">
<polygon fill="#999999" stroke="#666666" points="137,-42.5 0,-42.5 0,-12.5 137,-12.5 137,-42.5"/>
<text text-anchor="start" x="8" y="-30.5" font-family="Helvetica,sans-Serif" font-size="10.00">sharp_HeightLayer_wind</text>
<text text-anchor="middle" x="68.5" y="-19.5" font-family="Helvetica,sans-Serif" font-size="10.00">_shear</text>
</a>
</g>
</g>
<!-- Node2 -->
<g id="node2" class="node">
<title>Node2</title>
<g id="a_node2"><a xlink:href="namespacesharp.html#a099a4575acc27d6e10f9dfb69bc315a1" target="_top" xlink:title="Compue the wind shear for a given layer.">
<polygon fill="white" stroke="#666666" points="278,-37 173,-37 173,-18 278,-18 278,-37"/>
<text text-anchor="middle" x="225.5" y="-25" font-family="Helvetica,sans-Serif" font-size="10.00">sharp::wind_shear</text>
</a>
</g>
</g>
<!-- Node1&#45;&gt;Node2 -->
<g id="edge1" class="edge">
<title>Node1&#45;&gt;Node2</title>
<path fill="none" stroke="#63b8ff" d="M137.03,-27.5C145.5,-27.5 154.13,-27.5 162.51,-27.5"/>
<polygon fill="#63b8ff" stroke="#63b8ff" points="162.57,-31 172.57,-27.5 162.57,-24 162.57,-31"/>
</g>
<!-- Node3 -->
<g id="node3" class="node">
<title>Node3</title>
<g id="a_node3"><a xlink:href="namespacesharp.html#ae8240f026498ad2775633a8d0dcf100d" target="_top" xlink:title="Linearly interpolate a data field to a requested height level.">
<polygon fill="white" stroke="#666666" points="433.5,-56 319.5,-56 319.5,-37 433.5,-37 433.5,-56"/>
<text text-anchor="middle" x="376.5" y="-44" font-family="Helvetica,sans-Serif" font-size="10.00">sharp::interp_height</text>
</a>
</g>
</g>
<!-- Node2&#45;&gt;Node3 -->
<g id="edge2" class="edge">
<title>Node2&#45;&gt;Node3</title>
<path fill="none" stroke="#63b8ff" d="M278.19,-34.09C288.26,-35.38 298.94,-36.74 309.39,-38.07"/>
<polygon fill="#63b8ff" stroke="#63b8ff" points="308.96,-41.54 319.32,-39.34 309.84,-34.6 308.96,-41.54"/>
</g>
<!-- Node7 -->
<g id="node7" class="node">
<title>Node7</title>
<g id="a_node7"><a xlink:href="namespacesharp.html#a55e4f8ee4ff8a4a30d7b3f3d92a41c75" target="_top" xlink:title="Linearly interpolate a data field to a requested pressure level.">
<polygon fill="white" stroke="#666666" points="439,-19 314,-19 314,0 439,0 439,-19"/>
<text text-anchor="middle" x="376.5" y="-7" font-family="Helvetica,sans-Serif" font-size="10.00">sharp::interp_pressure</text>
</a>
</g>
</g>
<!-- Node2&#45;&gt;Node7 -->
<g id="edge6" class="edge">
<title>Node2&#45;&gt;Node7</title>
<path fill="none" stroke="#63b8ff" d="M278.19,-21.25C286.47,-20.26 295.16,-19.21 303.81,-18.16"/>
<polygon fill="#63b8ff" stroke="#63b8ff" points="304.39,-21.62 313.9,-16.94 303.55,-14.67 304.39,-21.62"/>
</g>
<!-- Node4 -->
<g id="node4" class="node">
<title>Node4</title>
<g id="a_node4"><a xlink:href="namespacesharp.html#a0bf533560780fdb77bc3656db8d89208" target="_top" xlink:title="Linearly interpolates between a and b with distance t.">
<polygon fill="white" stroke="#666666" points="565.5,-56 497.5,-56 497.5,-37 565.5,-37 565.5,-56"/>
<text text-anchor="middle" x="531.5" y="-44" font-family="Helvetica,sans-Serif" font-size="10.00">sharp::lerp</text>
</a>
</g>
</g>
<!-- Node3&#45;&gt;Node4 -->
<g id="edge3" class="edge">
<title>Node3&#45;&gt;Node4</title>
<path fill="none" stroke="#63b8ff" d="M433.6,-46.5C451.09,-46.5 470.12,-46.5 486.64,-46.5"/>
<polygon fill="#63b8ff" stroke="#63b8ff" points="487.1,-50 497.1,-46.5 487.1,-43 487.1,-50"/>
</g>
<!-- Node6 -->
<g id="node6" class="node">
<title>Node6</title>
<g id="a_node6"><a xlink:href="namespacesharp.html#a772686549a5111c1152b778731119aa6" target="_top" xlink:title="Finds the first index that satisfies value &lt; element.">
<polygon fill="white" stroke="#666666" points="588,-19 475,-19 475,0 588,0 588,-19"/>
<text text-anchor="middle" x="531.5" y="-7" font-family="Helvetica,sans-Serif" font-size="10.00">sharp::upper_bound</text>
</a>
</g>
</g>
<!-- Node3&#45;&gt;Node6 -->
<g id="edge5" class="edge">
<title>Node3&#45;&gt;Node6</title>
<path fill="none" stroke="#63b8ff" d="M416.9,-36.97C436.46,-32.24 460.28,-26.48 481.05,-21.46"/>
<polygon fill="#63b8ff" stroke="#63b8ff" points="482.07,-24.81 490.97,-19.06 480.42,-18.01 482.07,-24.81"/>
</g>
<!-- Node5 -->
<g id="node5" class="node">
<title>Node5</title>
<g id="a_node5"><a xlink:href="namespacesharp.html#ac4464059524ff56c7974141bb4cc7375" target="_top" xlink:title="Linearly interpolates between a and b with distance t.">
<polygon fill="white" stroke="#666666" points="703,-56 624,-56 624,-37 703,-37 703,-56"/>
<text text-anchor="middle" x="663.5" y="-44" font-family="Helvetica,sans-Serif" font-size="10.00">sharp::__lerp</text>
</a>
</g>
</g>
<!-- Node4&#45;&gt;Node5 -->
<g id="edge4" class="edge">
<title>Node4&#45;&gt;Node5</title>
<path fill="none" stroke="#63b8ff" d="M565.64,-46.5C580.2,-46.5 597.6,-46.5 613.61,-46.5"/>
<polygon fill="#63b8ff" stroke="#63b8ff" points="613.88,-50 623.88,-46.5 613.88,-43 613.88,-50"/>
</g>
<!-- Node7&#45;&gt;Node4 -->
<g id="edge7" class="edge">
<title>Node7&#45;&gt;Node4</title>
<path fill="none" stroke="#63b8ff" d="M416.9,-19.03C438.55,-24.26 465.44,-30.77 487.62,-36.13"/>
<polygon fill="#63b8ff" stroke="#63b8ff" points="486.9,-39.56 497.44,-38.51 488.54,-32.75 486.9,-39.56"/>
</g>
<!-- Node7&#45;&gt;Node6 -->
<g id="edge8" class="edge">
<title>Node7&#45;&gt;Node6</title>
<path fill="none" stroke="#63b8ff" d="M439.29,-9.5C447.66,-9.5 456.28,-9.5 464.72,-9.5"/>
<polygon fill="#63b8ff" stroke="#63b8ff" points="464.9,-13 474.9,-9.5 464.9,-6 464.9,-13"/>
</g>
</g>
</svg>
