<?xml version="1.0" encoding="UTF-8" standalone="no"?>
<!DOCTYPE svg PUBLIC "-//W3C//DTD SVG 1.1//EN"
 "http://www.w3.org/Graphics/SVG/1.1/DTD/svg11.dtd">
<!-- Generated by graphviz version 2.43.0 (0)
 -->
<!-- Title: winds.cpp Pages: 1 -->
<svg width="527pt" height="247pt"
 viewBox="0.00 0.00 527.00 247.00" xmlns="http://www.w3.org/2000/svg" xmlns:xlink="http://www.w3.org/1999/xlink">
<g id="graph0" class="graph" transform="scale(1 1) rotate(0) translate(4 243)">
<title>winds.cpp</title>
<!-- Node1 -->
<g id="node1" class="node">
<title>Node1</title>
<g id="a_node1"><a xlink:title="Routines used to compute kinematic attributes and indices of vertical sounding profiles.">
<polygon fill="#999999" stroke="#666666" points="230,-239 165,-239 165,-220 230,-220 230,-239"/>
<text text-anchor="middle" x="197.5" y="-227" font-family="Helvetica,sans-Serif" font-size="10.00">winds.cpp</text>
</a>
</g>
</g>
<!-- Node2 -->
<g id="node2" class="node">
<title>Node2</title>
<g id="a_node2"><a xlink:href="constants_8h.html" target="_top" xlink:title="Meteorological constants useful for computations with vertical atmospheric sounding profiles.">
<polygon fill="white" stroke="#666666" points="121,-19 0,-19 0,0 121,0 121,-19"/>
<text text-anchor="middle" x="60.5" y="-7" font-family="Helvetica,sans-Serif" font-size="10.00">SHARPlib/constants.h</text>
</a>
</g>
</g>
<!-- Node1&#45;&gt;Node2 -->
<g id="edge1" class="edge">
<title>Node1&#45;&gt;Node2</title>
<path fill="none" stroke="#63b8ff" d="M164.83,-228.32C131.93,-226.17 82.7,-217.16 58.5,-184 24.37,-137.23 42.61,-62.89 53.83,-28.74"/>
<polygon fill="#63b8ff" stroke="#63b8ff" points="57.18,-29.75 57.15,-19.15 50.57,-27.46 57.18,-29.75"/>
</g>
<!-- Node3 -->
<g id="node3" class="node">
<title>Node3</title>
<g id="a_node3"><a xlink:href="interp_8h.html" target="_top" xlink:title="Routines for linear interpolation of vertical atmospheric profiles.">
<polygon fill="white" stroke="#666666" points="247.5,-74 145.5,-74 145.5,-55 247.5,-55 247.5,-74"/>
<text text-anchor="middle" x="196.5" y="-62" font-family="Helvetica,sans-Serif" font-size="10.00">SHARPlib/interp.h</text>
</a>
</g>
</g>
<!-- Node1&#45;&gt;Node3 -->
<g id="edge2" class="edge">
<title>Node1&#45;&gt;Node3</title>
<path fill="none" stroke="#63b8ff" d="M197.45,-219.74C197.29,-194.31 196.83,-120.08 196.62,-84.69"/>
<polygon fill="#63b8ff" stroke="#63b8ff" points="200.12,-84.29 196.55,-74.31 193.12,-84.33 200.12,-84.29"/>
</g>
<!-- Node4 -->
<g id="node4" class="node">
<title>Node4</title>
<g id="a_node4"><a xlink:title=" ">
<polygon fill="#e0e0e0" stroke="#999999" points="519,-19 472,-19 472,0 519,0 519,-19"/>
<text text-anchor="middle" x="495.5" y="-7" font-family="Helvetica,sans-Serif" font-size="10.00">cmath</text>
</a>
</g>
</g>
<!-- Node1&#45;&gt;Node4 -->
<g id="edge20" class="edge">
<title>Node1&#45;&gt;Node4</title>
<path fill="none" stroke="#63b8ff" d="M229.27,-219.87C287.49,-202.4 411.36,-157.24 477.5,-74 487.64,-61.24 492.06,-43.07 494,-29.43"/>
<polygon fill="#63b8ff" stroke="#63b8ff" points="497.5,-29.58 495.11,-19.26 490.55,-28.82 497.5,-29.58"/>
</g>
<!-- Node6 -->
<g id="node6" class="node">
<title>Node6</title>
<g id="a_node6"><a xlink:href="layer_8h.html" target="_top" xlink:title="Data structures and functions for performing operations over atmospheric layers.">
<polygon fill="white" stroke="#666666" points="323.5,-129 225.5,-129 225.5,-110 323.5,-110 323.5,-129"/>
<text text-anchor="middle" x="274.5" y="-117" font-family="Helvetica,sans-Serif" font-size="10.00">SHARPlib/layer.h</text>
</a>
</g>
</g>
<!-- Node1&#45;&gt;Node6 -->
<g id="edge6" class="edge">
<title>Node1&#45;&gt;Node6</title>
<path fill="none" stroke="#63b8ff" d="M203.8,-219.66C216.61,-201.69 245.88,-160.64 262.46,-137.38"/>
<polygon fill="#63b8ff" stroke="#63b8ff" points="265.37,-139.33 268.33,-129.16 259.67,-135.27 265.37,-139.33"/>
</g>
<!-- Node9 -->
<g id="node9" class="node">
<title>Node9</title>
<g id="a_node9"><a xlink:href="winds_8h.html" target="_top" xlink:title="Routines used to compute kinematic attributes and indices of vertical sounding profiles.">
<polygon fill="white" stroke="#666666" points="169.5,-184 67.5,-184 67.5,-165 169.5,-165 169.5,-184"/>
<text text-anchor="middle" x="118.5" y="-172" font-family="Helvetica,sans-Serif" font-size="10.00">SHARPlib/winds.h</text>
</a>
</g>
</g>
<!-- Node1&#45;&gt;Node9 -->
<g id="edge15" class="edge">
<title>Node1&#45;&gt;Node9</title>
<path fill="none" stroke="#63b8ff" d="M184.81,-219.98C172.67,-211.84 154.14,-199.41 139.75,-189.76"/>
<polygon fill="#63b8ff" stroke="#63b8ff" points="141.68,-186.84 131.42,-184.17 137.78,-192.65 141.68,-186.84"/>
</g>
<!-- Node3&#45;&gt;Node2 -->
<g id="edge3" class="edge">
<title>Node3&#45;&gt;Node2</title>
<path fill="none" stroke="#63b8ff" d="M174.65,-54.98C152.38,-46.3 117.6,-32.75 92.28,-22.88"/>
<polygon fill="#63b8ff" stroke="#63b8ff" points="93.34,-19.54 82.75,-19.17 90.79,-26.06 93.34,-19.54"/>
</g>
<!-- Node3&#45;&gt;Node4 -->
<g id="edge4" class="edge">
<title>Node3&#45;&gt;Node4</title>
<path fill="none" stroke="#63b8ff" d="M244.54,-54.98C305.36,-44.2 408.6,-25.9 461.72,-16.49"/>
<polygon fill="#63b8ff" stroke="#63b8ff" points="462.41,-19.92 471.65,-14.73 461.19,-13.03 462.41,-19.92"/>
</g>
<!-- Node5 -->
<g id="node5" class="node">
<title>Node5</title>
<g id="a_node5"><a xlink:title=" ">
<polygon fill="#e0e0e0" stroke="#999999" points="263,-19 210,-19 210,0 263,0 263,-19"/>
<text text-anchor="middle" x="236.5" y="-7" font-family="Helvetica,sans-Serif" font-size="10.00">cstddef</text>
</a>
</g>
</g>
<!-- Node3&#45;&gt;Node5 -->
<g id="edge5" class="edge">
<title>Node3&#45;&gt;Node5</title>
<path fill="none" stroke="#63b8ff" d="M203.11,-54.75C208.76,-47.26 217.04,-36.28 223.95,-27.13"/>
<polygon fill="#63b8ff" stroke="#63b8ff" points="226.79,-29.18 230.02,-19.09 221.2,-24.96 226.79,-29.18"/>
</g>
<!-- Node6&#45;&gt;Node2 -->
<g id="edge10" class="edge">
<title>Node6&#45;&gt;Node2</title>
<path fill="none" stroke="#63b8ff" d="M234.49,-109.93C206.01,-102.82 167.47,-91.08 136.5,-74 113.13,-61.11 90.15,-40.5 75.69,-26.27"/>
<polygon fill="#63b8ff" stroke="#63b8ff" points="78.11,-23.75 68.58,-19.12 73.14,-28.68 78.11,-23.75"/>
</g>
<!-- Node6&#45;&gt;Node3 -->
<g id="edge11" class="edge">
<title>Node6&#45;&gt;Node3</title>
<path fill="none" stroke="#63b8ff" d="M261.97,-109.98C250.1,-101.92 232.04,-89.65 217.89,-80.03"/>
<polygon fill="#63b8ff" stroke="#63b8ff" points="219.5,-76.9 209.26,-74.17 215.56,-82.69 219.5,-76.9"/>
</g>
<!-- Node6&#45;&gt;Node4 -->
<g id="edge12" class="edge">
<title>Node6&#45;&gt;Node4</title>
<path fill="none" stroke="#63b8ff" d="M323.66,-116.12C362.35,-112.08 415.98,-101.49 454.5,-74 470.31,-62.71 481.55,-43.24 488.21,-28.83"/>
<polygon fill="#63b8ff" stroke="#63b8ff" points="491.53,-29.98 492.26,-19.41 485.09,-27.22 491.53,-29.98"/>
</g>
<!-- Node6&#45;&gt;Node5 -->
<g id="edge13" class="edge">
<title>Node6&#45;&gt;Node5</title>
<path fill="none" stroke="#63b8ff" d="M272.45,-109.74C269.46,-97.38 263.48,-74.16 256.5,-55 253.24,-46.05 248.98,-36.37 245.23,-28.33"/>
<polygon fill="#63b8ff" stroke="#63b8ff" points="248.34,-26.72 240.87,-19.21 242.03,-29.74 248.34,-26.72"/>
</g>
<!-- Node7 -->
<g id="node7" class="node">
<title>Node7</title>
<g id="a_node7"><a xlink:href="algorithms_8h.html" target="_top" xlink:title="Various algorithms used for searching, sorting, accumulating etc.">
<polygon fill="white" stroke="#666666" points="429.5,-74 303.5,-74 303.5,-55 429.5,-55 429.5,-74"/>
<text text-anchor="middle" x="366.5" y="-62" font-family="Helvetica,sans-Serif" font-size="10.00">SHARPlib/algorithms.h</text>
</a>
</g>
</g>
<!-- Node6&#45;&gt;Node7 -->
<g id="edge7" class="edge">
<title>Node6&#45;&gt;Node7</title>
<path fill="none" stroke="#63b8ff" d="M289.28,-109.98C303.68,-101.69 325.81,-88.94 342.69,-79.22"/>
<polygon fill="#63b8ff" stroke="#63b8ff" points="344.53,-82.19 351.45,-74.17 341.04,-76.13 344.53,-82.19"/>
</g>
<!-- Node8 -->
<g id="node8" class="node">
<title>Node8</title>
<g id="a_node8"><a xlink:title=" ">
<polygon fill="#e0e0e0" stroke="#999999" points="427,-19 362,-19 362,0 427,0 427,-19"/>
<text text-anchor="middle" x="394.5" y="-7" font-family="Helvetica,sans-Serif" font-size="10.00">functional</text>
</a>
</g>
</g>
<!-- Node6&#45;&gt;Node8 -->
<g id="edge14" class="edge">
<title>Node6&#45;&gt;Node8</title>
<path fill="none" stroke="#63b8ff" d="M323.62,-111.8C366.68,-104.8 424.52,-92.28 438.5,-74 450.92,-57.76 432.95,-38.35 416.38,-25.3"/>
<polygon fill="#63b8ff" stroke="#63b8ff" points="418.13,-22.24 408.01,-19.1 413.96,-27.86 418.13,-22.24"/>
</g>
<!-- Node7&#45;&gt;Node5 -->
<g id="edge8" class="edge">
<title>Node7&#45;&gt;Node5</title>
<path fill="none" stroke="#63b8ff" d="M345.61,-54.98C324.42,-46.34 291.37,-32.87 267.2,-23.02"/>
<polygon fill="#63b8ff" stroke="#63b8ff" points="268.35,-19.7 257.77,-19.17 265.71,-26.19 268.35,-19.7"/>
</g>
<!-- Node7&#45;&gt;Node8 -->
<g id="edge9" class="edge">
<title>Node7&#45;&gt;Node8</title>
<path fill="none" stroke="#63b8ff" d="M371.12,-54.75C374.96,-47.49 380.52,-36.95 385.26,-27.98"/>
<polygon fill="#63b8ff" stroke="#63b8ff" points="388.39,-29.57 389.96,-19.09 382.2,-26.3 388.39,-29.57"/>
</g>
<!-- Node9&#45;&gt;Node2 -->
<g id="edge16" class="edge">
<title>Node9&#45;&gt;Node2</title>
<path fill="none" stroke="#63b8ff" d="M115.38,-164.74C106.26,-139.09 79.46,-63.78 67,-28.78"/>
<polygon fill="#63b8ff" stroke="#63b8ff" points="70.28,-27.55 63.63,-19.31 63.69,-29.9 70.28,-27.55"/>
</g>
<!-- Node9&#45;&gt;Node3 -->
<g id="edge17" class="edge">
<title>Node9&#45;&gt;Node3</title>
<path fill="none" stroke="#63b8ff" d="M124.88,-164.66C137.86,-146.69 167.51,-105.64 184.31,-82.38"/>
<polygon fill="#63b8ff" stroke="#63b8ff" points="187.23,-84.31 190.25,-74.16 181.55,-80.22 187.23,-84.31"/>
</g>
<!-- Node9&#45;&gt;Node5 -->
<g id="edge19" class="edge">
<title>Node9&#45;&gt;Node5</title>
<path fill="none" stroke="#63b8ff" d="M117.24,-165C114.61,-143.96 110.76,-88.76 136.5,-55 151.82,-34.91 178.19,-23.69 200.01,-17.54"/>
<polygon fill="#63b8ff" stroke="#63b8ff" points="201.16,-20.86 209.98,-14.98 199.42,-14.08 201.16,-20.86"/>
</g>
<!-- Node9&#45;&gt;Node6 -->
<g id="edge18" class="edge">
<title>Node9&#45;&gt;Node6</title>
<path fill="none" stroke="#63b8ff" d="M143.56,-164.98C169.53,-156.16 210.31,-142.31 239.46,-132.41"/>
<polygon fill="#63b8ff" stroke="#63b8ff" points="240.9,-135.61 249.24,-129.08 238.65,-128.99 240.9,-135.61"/>
</g>
</g>
</svg>
