<?xml version="1.0" encoding="UTF-8" standalone="no"?>
<!DOCTYPE svg PUBLIC "-//W3C//DTD SVG 1.1//EN"
 "http://www.w3.org/Graphics/SVG/1.1/DTD/svg11.dtd">
<!-- Generated by graphviz version 2.43.0 (0)
 -->
<!-- Title: winter.h Pages: 1 -->
<svg width="452pt" height="192pt"
 viewBox="0.00 0.00 452.00 192.00" xmlns="http://www.w3.org/2000/svg" xmlns:xlink="http://www.w3.org/1999/xlink">
<g id="graph0" class="graph" transform="scale(1 1) rotate(0) translate(4 188)">
<title>winter.h</title>
<!-- Node1 -->
<g id="node1" class="node">
<title>Node1</title>
<g id="a_node1"><a xlink:title="Winter weather parameters.">
<polygon fill="#999999" stroke="#666666" points="254.5,-184 198.5,-184 198.5,-165 254.5,-165 254.5,-184"/>
<text text-anchor="middle" x="226.5" y="-172" font-family="Helvetica,sans-Serif" font-size="10.00">winter.h</text>
</a>
</g>
</g>
<!-- Node2 -->
<g id="node2" class="node">
<title>Node2</title>
<g id="a_node2"><a xlink:href="constants_8h.html" target="_top" xlink:title="Meteorological constants useful for computations with vertical atmospheric sounding profiles.">
<polygon fill="white" stroke="#666666" points="444,-19 323,-19 323,0 444,0 444,-19"/>
<text text-anchor="middle" x="383.5" y="-7" font-family="Helvetica,sans-Serif" font-size="10.00">SHARPlib/constants.h</text>
</a>
</g>
</g>
<!-- Node1&#45;&gt;Node2 -->
<g id="edge1" class="edge">
<title>Node1&#45;&gt;Node2</title>
<path fill="none" stroke="#63b8ff" d="M244.94,-164.97C274.33,-150.44 331.73,-118.14 363.5,-74 373.1,-60.66 378.21,-42.55 380.85,-29.08"/>
<polygon fill="#63b8ff" stroke="#63b8ff" points="384.33,-29.51 382.53,-19.07 377.42,-28.35 384.33,-29.51"/>
</g>
<!-- Node3 -->
<g id="node3" class="node">
<title>Node3</title>
<g id="a_node3"><a xlink:href="layer_8h.html" target="_top" xlink:title="Data structures and functions for performing operations over atmospheric layers.">
<polygon fill="white" stroke="#666666" points="275.5,-129 177.5,-129 177.5,-110 275.5,-110 275.5,-129"/>
<text text-anchor="middle" x="226.5" y="-117" font-family="Helvetica,sans-Serif" font-size="10.00">SHARPlib/layer.h</text>
</a>
</g>
</g>
<!-- Node1&#45;&gt;Node3 -->
<g id="edge2" class="edge">
<title>Node1&#45;&gt;Node3</title>
<path fill="none" stroke="#63b8ff" d="M226.5,-164.75C226.5,-157.8 226.5,-147.85 226.5,-139.13"/>
<polygon fill="#63b8ff" stroke="#63b8ff" points="230,-139.09 226.5,-129.09 223,-139.09 230,-139.09"/>
</g>
<!-- Node5 -->
<g id="node5" class="node">
<title>Node5</title>
<g id="a_node5"><a xlink:title=" ">
<polygon fill="#e0e0e0" stroke="#999999" points="207,-19 154,-19 154,0 207,0 207,-19"/>
<text text-anchor="middle" x="180.5" y="-7" font-family="Helvetica,sans-Serif" font-size="10.00">cstddef</text>
</a>
</g>
</g>
<!-- Node1&#45;&gt;Node5 -->
<g id="edge14" class="edge">
<title>Node1&#45;&gt;Node5</title>
<path fill="none" stroke="#63b8ff" d="M198.44,-169.17C152.62,-160.42 63.01,-135.91 24.5,-74 -3.94,-28.28 89.24,-15.48 143.79,-11.89"/>
<polygon fill="#63b8ff" stroke="#63b8ff" points="144.04,-15.39 153.82,-11.31 143.63,-8.4 144.04,-15.39"/>
</g>
<!-- Node3&#45;&gt;Node2 -->
<g id="edge6" class="edge">
<title>Node3&#45;&gt;Node2</title>
<path fill="none" stroke="#63b8ff" d="M265,-109.99C288.92,-103.25 319.24,-91.92 341.5,-74 356.74,-61.73 368.4,-42.41 375.53,-28.3"/>
<polygon fill="#63b8ff" stroke="#63b8ff" points="378.76,-29.66 379.9,-19.12 372.44,-26.65 378.76,-29.66"/>
</g>
<!-- Node4 -->
<g id="node4" class="node">
<title>Node4</title>
<g id="a_node4"><a xlink:href="algorithms_8h.html" target="_top" xlink:title="Various algorithms used for searching, sorting, accumulating etc.">
<polygon fill="white" stroke="#666666" points="159.5,-74 33.5,-74 33.5,-55 159.5,-55 159.5,-74"/>
<text text-anchor="middle" x="96.5" y="-62" font-family="Helvetica,sans-Serif" font-size="10.00">SHARPlib/algorithms.h</text>
</a>
</g>
</g>
<!-- Node3&#45;&gt;Node4 -->
<g id="edge3" class="edge">
<title>Node3&#45;&gt;Node4</title>
<path fill="none" stroke="#63b8ff" d="M205.61,-109.98C184.42,-101.34 151.37,-87.87 127.2,-78.02"/>
<polygon fill="#63b8ff" stroke="#63b8ff" points="128.35,-74.7 117.77,-74.17 125.71,-81.19 128.35,-74.7"/>
</g>
<!-- Node3&#45;&gt;Node5 -->
<g id="edge12" class="edge">
<title>Node3&#45;&gt;Node5</title>
<path fill="none" stroke="#63b8ff" d="M222.43,-109.67C218.32,-100.72 211.85,-86.45 206.5,-74 199.96,-58.78 192.86,-41.36 187.73,-28.62"/>
<polygon fill="#63b8ff" stroke="#63b8ff" points="190.91,-27.15 183.94,-19.17 184.41,-29.75 190.91,-27.15"/>
</g>
<!-- Node6 -->
<g id="node6" class="node">
<title>Node6</title>
<g id="a_node6"><a xlink:title=" ">
<polygon fill="#e0e0e0" stroke="#999999" points="65,-19 0,-19 0,0 65,0 65,-19"/>
<text text-anchor="middle" x="32.5" y="-7" font-family="Helvetica,sans-Serif" font-size="10.00">functional</text>
</a>
</g>
</g>
<!-- Node3&#45;&gt;Node6 -->
<g id="edge13" class="edge">
<title>Node3&#45;&gt;Node6</title>
<path fill="none" stroke="#63b8ff" d="M177.04,-114.58C123.52,-109.19 43.28,-97.37 24.5,-74 14.4,-61.44 18.32,-42.73 23.6,-28.87"/>
<polygon fill="#63b8ff" stroke="#63b8ff" points="26.94,-29.97 27.71,-19.4 20.52,-27.18 26.94,-29.97"/>
</g>
<!-- Node7 -->
<g id="node7" class="node">
<title>Node7</title>
<g id="a_node7"><a xlink:href="interp_8h.html" target="_top" xlink:title="Routines for linear interpolation of vertical atmospheric profiles.">
<polygon fill="white" stroke="#666666" points="317.5,-74 215.5,-74 215.5,-55 317.5,-55 317.5,-74"/>
<text text-anchor="middle" x="266.5" y="-62" font-family="Helvetica,sans-Serif" font-size="10.00">SHARPlib/interp.h</text>
</a>
</g>
</g>
<!-- Node3&#45;&gt;Node7 -->
<g id="edge7" class="edge">
<title>Node3&#45;&gt;Node7</title>
<path fill="none" stroke="#63b8ff" d="M233.11,-109.75C238.76,-102.26 247.04,-91.28 253.95,-82.13"/>
<polygon fill="#63b8ff" stroke="#63b8ff" points="256.79,-84.18 260.02,-74.09 251.2,-79.96 256.79,-84.18"/>
</g>
<!-- Node8 -->
<g id="node8" class="node">
<title>Node8</title>
<g id="a_node8"><a xlink:title=" ">
<polygon fill="#e0e0e0" stroke="#999999" points="298,-19 251,-19 251,0 298,0 298,-19"/>
<text text-anchor="middle" x="274.5" y="-7" font-family="Helvetica,sans-Serif" font-size="10.00">cmath</text>
</a>
</g>
</g>
<!-- Node3&#45;&gt;Node8 -->
<g id="edge11" class="edge">
<title>Node3&#45;&gt;Node8</title>
<path fill="none" stroke="#63b8ff" d="M271.96,-109.96C292.27,-103.64 314.34,-92.72 326.5,-74 338.29,-55.84 317.77,-36.87 299.14,-24.45"/>
<polygon fill="#63b8ff" stroke="#63b8ff" points="300.89,-21.42 290.56,-19.07 297.17,-27.35 300.89,-21.42"/>
</g>
<!-- Node4&#45;&gt;Node5 -->
<g id="edge4" class="edge">
<title>Node4&#45;&gt;Node5</title>
<path fill="none" stroke="#63b8ff" d="M110,-54.98C122.9,-46.84 142.6,-34.41 157.9,-24.76"/>
<polygon fill="#63b8ff" stroke="#63b8ff" points="160.17,-27.47 166.76,-19.17 156.43,-21.55 160.17,-27.47"/>
</g>
<!-- Node4&#45;&gt;Node6 -->
<g id="edge5" class="edge">
<title>Node4&#45;&gt;Node6</title>
<path fill="none" stroke="#63b8ff" d="M86.22,-54.98C76.66,-47.07 62.22,-35.11 50.72,-25.58"/>
<polygon fill="#63b8ff" stroke="#63b8ff" points="52.9,-22.85 42.97,-19.17 48.44,-28.24 52.9,-22.85"/>
</g>
<!-- Node7&#45;&gt;Node2 -->
<g id="edge8" class="edge">
<title>Node7&#45;&gt;Node2</title>
<path fill="none" stroke="#63b8ff" d="M285.3,-54.98C304.12,-46.46 333.32,-33.23 355,-23.41"/>
<polygon fill="#63b8ff" stroke="#63b8ff" points="356.7,-26.48 364.36,-19.17 353.81,-20.11 356.7,-26.48"/>
</g>
<!-- Node7&#45;&gt;Node5 -->
<g id="edge10" class="edge">
<title>Node7&#45;&gt;Node5</title>
<path fill="none" stroke="#63b8ff" d="M252.68,-54.98C239.35,-46.77 218.92,-34.18 203.19,-24.49"/>
<polygon fill="#63b8ff" stroke="#63b8ff" points="204.92,-21.44 194.57,-19.17 201.25,-27.4 204.92,-21.44"/>
</g>
<!-- Node7&#45;&gt;Node8 -->
<g id="edge9" class="edge">
<title>Node7&#45;&gt;Node8</title>
<path fill="none" stroke="#63b8ff" d="M267.82,-54.75C268.87,-47.8 270.37,-37.85 271.69,-29.13"/>
<polygon fill="#63b8ff" stroke="#63b8ff" points="275.17,-29.5 273.2,-19.09 268.25,-28.45 275.17,-29.5"/>
</g>
</g>
</svg>
