<?xml version="1.0" encoding="UTF-8" standalone="no"?>
<!DOCTYPE svg PUBLIC "-//W3C//DTD SVG 1.1//EN"
 "http://www.w3.org/Graphics/SVG/1.1/DTD/svg11.dtd">
<!-- Generated by graphviz version 2.43.0 (0)
 -->
<!-- Title: winter.cpp Pages: 1 -->
<svg width="492pt" height="247pt"
 viewBox="0.00 0.00 492.00 247.00" xmlns="http://www.w3.org/2000/svg" xmlns:xlink="http://www.w3.org/1999/xlink">
<g id="graph0" class="graph" transform="scale(1 1) rotate(0) translate(4 243)">
<title>winter.cpp</title>
<!-- Node1 -->
<g id="node1" class="node">
<title>Node1</title>
<g id="a_node1"><a xlink:title="Winter weather parameters.">
<polygon fill="#999999" stroke="#666666" points="426,-239 359,-239 359,-220 426,-220 426,-239"/>
<text text-anchor="middle" x="392.5" y="-227" font-family="Helvetica,sans-Serif" font-size="10.00">winter.cpp</text>
</a>
</g>
</g>
<!-- Node2 -->
<g id="node2" class="node">
<title>Node2</title>
<g id="a_node2"><a xlink:href="constants_8h.html" target="_top" xlink:title="Meteorological constants useful for computations with vertical atmospheric sounding profiles.">
<polygon fill="white" stroke="#666666" points="484,-19 363,-19 363,0 484,0 484,-19"/>
<text text-anchor="middle" x="423.5" y="-7" font-family="Helvetica,sans-Serif" font-size="10.00">SHARPlib/constants.h</text>
</a>
</g>
</g>
<!-- Node1&#45;&gt;Node2 -->
<g id="edge1" class="edge">
<title>Node1&#45;&gt;Node2</title>
<path fill="none" stroke="#63b8ff" d="M395.76,-219.95C404.99,-194.92 430.39,-119.46 427.5,-55 427.12,-46.47 426.32,-37.04 425.54,-29.07"/>
<polygon fill="#63b8ff" stroke="#63b8ff" points="429.01,-28.6 424.49,-19.02 422.05,-29.32 429.01,-28.6"/>
</g>
<!-- Node3 -->
<g id="node3" class="node">
<title>Node3</title>
<g id="a_node3"><a xlink:href="interp_8h.html" target="_top" xlink:title="Routines for linear interpolation of vertical atmospheric profiles.">
<polygon fill="white" stroke="#666666" points="376.5,-74 274.5,-74 274.5,-55 376.5,-55 376.5,-74"/>
<text text-anchor="middle" x="325.5" y="-62" font-family="Helvetica,sans-Serif" font-size="10.00">SHARPlib/interp.h</text>
</a>
</g>
</g>
<!-- Node1&#45;&gt;Node3 -->
<g id="edge2" class="edge">
<title>Node1&#45;&gt;Node3</title>
<path fill="none" stroke="#63b8ff" d="M390.54,-219.71C387.66,-207.3 381.82,-184.04 374.5,-165 363.09,-135.31 346,-102.5 335.31,-82.97"/>
<polygon fill="#63b8ff" stroke="#63b8ff" points="338.28,-81.1 330.37,-74.05 332.16,-84.49 338.28,-81.1"/>
</g>
<!-- Node5 -->
<g id="node5" class="node">
<title>Node5</title>
<g id="a_node5"><a xlink:title=" ">
<polygon fill="#e0e0e0" stroke="#999999" points="53,-19 0,-19 0,0 53,0 53,-19"/>
<text text-anchor="middle" x="26.5" y="-7" font-family="Helvetica,sans-Serif" font-size="10.00">cstddef</text>
</a>
</g>
</g>
<!-- Node1&#45;&gt;Node5 -->
<g id="edge18" class="edge">
<title>Node1&#45;&gt;Node5</title>
<path fill="none" stroke="#63b8ff" d="M358.85,-225.28C295.97,-217.84 158.56,-194.74 65.5,-129 39.47,-110.61 30.38,-103.95 19.5,-74 14.18,-59.34 16.81,-41.62 20.27,-28.63"/>
<polygon fill="#63b8ff" stroke="#63b8ff" points="23.64,-29.59 23.21,-19.01 16.95,-27.55 23.64,-29.59"/>
</g>
<!-- Node6 -->
<g id="node6" class="node">
<title>Node6</title>
<g id="a_node6"><a xlink:href="winter_8h.html" target="_top" xlink:title="Winter weather parameters.">
<polygon fill="white" stroke="#666666" points="366,-184 223,-184 223,-165 366,-165 366,-184"/>
<text text-anchor="middle" x="294.5" y="-172" font-family="Helvetica,sans-Serif" font-size="10.00">SHARPlib/params/winter.h</text>
</a>
</g>
</g>
<!-- Node1&#45;&gt;Node6 -->
<g id="edge6" class="edge">
<title>Node1&#45;&gt;Node6</title>
<path fill="none" stroke="#63b8ff" d="M376.75,-219.98C361.27,-211.61 337.41,-198.7 319.36,-188.95"/>
<polygon fill="#63b8ff" stroke="#63b8ff" points="320.99,-185.85 310.53,-184.17 317.66,-192.01 320.99,-185.85"/>
</g>
<!-- Node3&#45;&gt;Node2 -->
<g id="edge3" class="edge">
<title>Node3&#45;&gt;Node2</title>
<path fill="none" stroke="#63b8ff" d="M341.25,-54.98C356.73,-46.61 380.59,-33.7 398.64,-23.95"/>
<polygon fill="#63b8ff" stroke="#63b8ff" points="400.34,-27.01 407.47,-19.17 397.01,-20.85 400.34,-27.01"/>
</g>
<!-- Node4 -->
<g id="node4" class="node">
<title>Node4</title>
<g id="a_node4"><a xlink:title=" ">
<polygon fill="#e0e0e0" stroke="#999999" points="298,-19 251,-19 251,0 298,0 298,-19"/>
<text text-anchor="middle" x="274.5" y="-7" font-family="Helvetica,sans-Serif" font-size="10.00">cmath</text>
</a>
</g>
</g>
<!-- Node3&#45;&gt;Node4 -->
<g id="edge4" class="edge">
<title>Node3&#45;&gt;Node4</title>
<path fill="none" stroke="#63b8ff" d="M317.08,-54.75C309.73,-47.11 298.87,-35.82 289.96,-26.56"/>
<polygon fill="#63b8ff" stroke="#63b8ff" points="292.22,-23.87 282.76,-19.09 287.18,-28.72 292.22,-23.87"/>
</g>
<!-- Node3&#45;&gt;Node5 -->
<g id="edge5" class="edge">
<title>Node3&#45;&gt;Node5</title>
<path fill="none" stroke="#63b8ff" d="M277.46,-54.98C217.72,-44.4 117.06,-26.55 63.17,-17"/>
<polygon fill="#63b8ff" stroke="#63b8ff" points="63.5,-13.5 53.04,-15.2 62.27,-20.4 63.5,-13.5"/>
</g>
<!-- Node6&#45;&gt;Node2 -->
<g id="edge7" class="edge">
<title>Node6&#45;&gt;Node2</title>
<path fill="none" stroke="#63b8ff" d="M309.35,-164.88C334,-149.77 383.13,-116.07 408.5,-74 416.64,-60.49 420.37,-42.9 422.07,-29.66"/>
<polygon fill="#63b8ff" stroke="#63b8ff" points="425.59,-29.65 423.1,-19.35 418.62,-28.95 425.59,-29.65"/>
</g>
<!-- Node6&#45;&gt;Node5 -->
<g id="edge17" class="edge">
<title>Node6&#45;&gt;Node5</title>
<path fill="none" stroke="#63b8ff" d="M222.92,-167.5C161.21,-158.19 75.2,-134.46 30.5,-74 21.16,-61.37 20.96,-43.18 22.63,-29.5"/>
<polygon fill="#63b8ff" stroke="#63b8ff" points="26.14,-29.73 24.31,-19.3 19.23,-28.6 26.14,-29.73"/>
</g>
<!-- Node7 -->
<g id="node7" class="node">
<title>Node7</title>
<g id="a_node7"><a xlink:href="layer_8h.html" target="_top" xlink:title="Data structures and functions for performing operations over atmospheric layers.">
<polygon fill="white" stroke="#666666" points="295.5,-129 197.5,-129 197.5,-110 295.5,-110 295.5,-129"/>
<text text-anchor="middle" x="246.5" y="-117" font-family="Helvetica,sans-Serif" font-size="10.00">SHARPlib/layer.h</text>
</a>
</g>
</g>
<!-- Node6&#45;&gt;Node7 -->
<g id="edge8" class="edge">
<title>Node6&#45;&gt;Node7</title>
<path fill="none" stroke="#63b8ff" d="M286.57,-164.75C279.65,-157.11 269.43,-145.82 261.05,-136.56"/>
<polygon fill="#63b8ff" stroke="#63b8ff" points="263.59,-134.15 254.28,-129.09 258.4,-138.85 263.59,-134.15"/>
</g>
<!-- Node7&#45;&gt;Node2 -->
<g id="edge12" class="edge">
<title>Node7&#45;&gt;Node2</title>
<path fill="none" stroke="#63b8ff" d="M295.62,-111.65C324.25,-105.63 359.69,-94.47 385.5,-74 400.26,-62.29 410.58,-43.16 416.7,-28.96"/>
<polygon fill="#63b8ff" stroke="#63b8ff" points="420.11,-29.84 420.57,-19.26 413.61,-27.25 420.11,-29.84"/>
</g>
<!-- Node7&#45;&gt;Node3 -->
<g id="edge13" class="edge">
<title>Node7&#45;&gt;Node3</title>
<path fill="none" stroke="#63b8ff" d="M259.19,-109.98C271.33,-101.84 289.86,-89.41 304.25,-79.76"/>
<polygon fill="#63b8ff" stroke="#63b8ff" points="306.22,-82.65 312.58,-74.17 302.32,-76.84 306.22,-82.65"/>
</g>
<!-- Node7&#45;&gt;Node4 -->
<g id="edge14" class="edge">
<title>Node7&#45;&gt;Node4</title>
<path fill="none" stroke="#63b8ff" d="M248.79,-109.66C253.35,-92.09 263.62,-52.45 269.72,-28.95"/>
<polygon fill="#63b8ff" stroke="#63b8ff" points="273.13,-29.72 272.26,-19.16 266.36,-27.96 273.13,-29.72"/>
</g>
<!-- Node7&#45;&gt;Node5 -->
<g id="edge15" class="edge">
<title>Node7&#45;&gt;Node5</title>
<path fill="none" stroke="#63b8ff" d="M197.49,-113.36C145.29,-106.91 67.23,-94.2 45.5,-74 33.26,-62.62 28.8,-43.73 27.22,-29.5"/>
<polygon fill="#63b8ff" stroke="#63b8ff" points="30.7,-29.04 26.48,-19.32 23.71,-29.55 30.7,-29.04"/>
</g>
<!-- Node8 -->
<g id="node8" class="node">
<title>Node8</title>
<g id="a_node8"><a xlink:href="algorithms_8h.html" target="_top" xlink:title="Various algorithms used for searching, sorting, accumulating etc.">
<polygon fill="white" stroke="#666666" points="180.5,-74 54.5,-74 54.5,-55 180.5,-55 180.5,-74"/>
<text text-anchor="middle" x="117.5" y="-62" font-family="Helvetica,sans-Serif" font-size="10.00">SHARPlib/algorithms.h</text>
</a>
</g>
</g>
<!-- Node7&#45;&gt;Node8 -->
<g id="edge9" class="edge">
<title>Node7&#45;&gt;Node8</title>
<path fill="none" stroke="#63b8ff" d="M225.77,-109.98C204.74,-101.34 171.95,-87.87 147.96,-78.02"/>
<polygon fill="#63b8ff" stroke="#63b8ff" points="149.18,-74.73 138.6,-74.17 146.52,-81.21 149.18,-74.73"/>
</g>
<!-- Node9 -->
<g id="node9" class="node">
<title>Node9</title>
<g id="a_node9"><a xlink:title=" ">
<polygon fill="#e0e0e0" stroke="#999999" points="191,-19 126,-19 126,0 191,0 191,-19"/>
<text text-anchor="middle" x="158.5" y="-7" font-family="Helvetica,sans-Serif" font-size="10.00">functional</text>
</a>
</g>
</g>
<!-- Node7&#45;&gt;Node9 -->
<g id="edge16" class="edge">
<title>Node7&#45;&gt;Node9</title>
<path fill="none" stroke="#63b8ff" d="M239.3,-109.66C224.59,-91.61 190.91,-50.28 172.01,-27.08"/>
<polygon fill="#63b8ff" stroke="#63b8ff" points="174.59,-24.7 165.55,-19.16 169.16,-29.12 174.59,-24.7"/>
</g>
<!-- Node8&#45;&gt;Node5 -->
<g id="edge10" class="edge">
<title>Node8&#45;&gt;Node5</title>
<path fill="none" stroke="#63b8ff" d="M102.88,-54.98C88.64,-46.69 66.75,-33.94 50.05,-24.22"/>
<polygon fill="#63b8ff" stroke="#63b8ff" points="51.79,-21.18 41.39,-19.17 48.27,-27.23 51.79,-21.18"/>
</g>
<!-- Node8&#45;&gt;Node9 -->
<g id="edge11" class="edge">
<title>Node8&#45;&gt;Node9</title>
<path fill="none" stroke="#63b8ff" d="M124.27,-54.75C130.06,-47.26 138.56,-36.28 145.64,-27.13"/>
<polygon fill="#63b8ff" stroke="#63b8ff" points="148.51,-29.14 151.86,-19.09 142.97,-24.86 148.51,-29.14"/>
</g>
</g>
</svg>
